<?xml version="1.0" encoding="utf-8"?>
<!-- Generator: Adobe Illustrator 27.9.1, SVG Export Plug-In . SVG Version: 6.00 Build 0)  -->
<svg version="1.1" id="Layer_1" xmlns="http://www.w3.org/2000/svg" xmlns:xlink="http://www.w3.org/1999/xlink" x="0px" y="0px"
	 viewBox="0 0 519.6 153.1" style="enable-background:new 0 0 519.6 153.1;" xml:space="preserve">
<style type="text/css">
	.st0{fill:#0D0D0D;}
	.st1{fill:#CD2328;}
	.st2{fill:#8E192F;}
	.st3{fill:#B62225;}
	.st4{fill:#E93B48;}
	.st5{fill:#EC626C;}
	.st6{fill:#EA5661;}
	.st7{fill:#B31F36;}
	.st8{fill:#8B6271;}
	.st9{fill:#FFFFFF;}
	.st10{fill:#F8F6F1;}
	.st11{fill:#606161;}
	.st12{opacity:0.15;}
	.st13{fill:#6D1628;}
	.st14{fill:#F26866;}
	.st15{fill:#232121;}
	.st16{fill:#CFDCDC;}
	.st17{fill:#0E0E0E;}
	.st18{fill:#F4ECE5;}
	.st19{fill:#CB832A;}
	.st20{fill:#FFCD05;}
	.st21{fill:#911F36;}
	.st22{fill:#F9F8F2;}
	.st23{fill:none;}
	.st24{fill:#54121D;}
	.st25{fill:#4A77A8;}
	.st26{fill:#84827E;}
	.st27{fill:#6B6B6B;}
	.st28{fill:#65A042;}
	.st29{fill:#B8CACD;}
	.st30{fill:#B21F37;}
	.st31{fill:#215483;}
	.st32{fill:#D6D5D2;}
	.st33{fill:#FECE43;}
	.st34{opacity:0.49;fill:#B21F37;enable-background:new    ;}
	.st35{fill:#4B78A9;}
	.st36{fill:#8F2438;}
	.st37{fill:#ABB4CE;}
	.st38{fill:#DEE2F2;}
	.st39{fill:#666666;}
	.st40{fill:#F26966;}
	.st41{fill:#999999;}
	.st42{opacity:0.38;fill:#FFFFFF;enable-background:new    ;}
	.st43{fill:#0D0F10;}
	.st44{fill:#4F5051;}
	.st45{fill:#6B6C6C;}
	.st46{fill:#0C0B0A;}
	.st47{fill:#C3E2ED;}
	.st48{fill:#9FABB0;}
	.st49{clip-path:url(#SVGID_00000088818449620091327860000001162353900509340586_);fill:#FFCD05;}
	.st50{clip-path:url(#SVGID_00000088818449620091327860000001162353900509340586_);}
	.st51{fill:#FBEFD7;}
	.st52{fill:#B21F36;}
	.st53{fill:#170F09;}
	.st54{fill:#222221;}
	.st55{fill:#D89A53;}
	.st56{fill:#FDFDFD;}
	.st57{fill:#592A07;}
	.st58{fill:#B88346;}
	.st59{fill:#DBDADA;}
	.st60{fill:#383837;}
	.st61{fill:#804118;}
	.st62{fill:#646463;}
	.st63{fill:#E5AF73;}
	.st64{fill:#2D2D2C;}
	.st65{fill:#693309;}
	.st66{fill:#DB9D56;}
	.st67{fill:#613214;}
	.st68{fill:#FCCA1D;}
	.st69{fill:#8E1830;}
	.st70{fill:#FFDE83;}
	.st71{fill:#D1CDC5;}
	.st72{fill:#7F3211;}
	.st73{fill:#FCFCFC;}
	.st74{fill:#D6D5D5;}
	.st75{fill:#FCCD2A;}
	.st76{fill:#181516;}
	.st77{fill:#FBFBFB;}
	.st78{fill:#3F383B;}
	.st79{fill:#716E6D;}
	.st80{fill:#7A1E2F;}
	.st81{opacity:0.74;fill:#FFCCD6;enable-background:new    ;}
	.st82{fill:#CFCECE;}
	.st83{opacity:0.58;}
	.st84{fill:none;stroke:#000000;stroke-width:2;stroke-miterlimit:10;}
</style>
<g>
	<g>
		<g>
			<path d="M42.7,87c-12.5,0-22.8-4.1-30.8-12c-8-8-12-18.1-12-30s4-22,12-30.1S30,2.7,41.9,2.7c7.4,0,14.4,1.7,20.6,5.1
				c6.3,3.4,11.3,8,14.9,13.8l2.3,3.7l-15.8,9h19.4V47c0,11.5-3.8,21.1-11.2,28.7C64.6,83.1,54.7,87,42.7,87z M42.4,31.2
				c-4.1,0-7.3,1.2-9.7,3.7c-2.5,2.6-3.7,5.8-3.7,10.1c0,4.1,1.1,7.5,3.6,10.5c1.3,1.7,3.2,2.8,5.6,3.4V34.1h13.2
				C49.3,32.1,46.3,31.2,42.4,31.2z"/>
		</g>
	</g>
	<g>
		<polygon points="135.8,85.3 135.8,60.6 125.9,77 119.4,77 109.6,60.6 109.6,85.3 80.6,85.3 80.6,4.3 107.9,4.3 122.7,29.8 
			137.4,4.3 164.7,4.3 164.7,85.3 		"/>
	</g>
	<g>
		<path d="M184,86.7c-6.9,0-12.5-2.4-16.8-7.3c-4.1-4.7-6.1-11.5-6.1-20.2V25.1h27.5v32c0,2.9,0.8,2.9,2.3,2.9c1.5,0,2-0.6,2.1-0.7
			c0.6-0.7,0.9-1.8,0.9-3.4V25.1h27.4v60.2h-27.5v-0.6C191,86,187.7,86.7,184,86.7z"/>
	</g>
	<g>
		<path d="M250.4,85.3v-32c0-2.9-0.8-2.9-2.3-2.9c-1.5,0-2,0.6-2.1,0.7c-0.6,0.7-0.9,1.8-0.9,3.4v30.8h-27.5V25.1H245v0.6
			c2.9-1.3,6.1-2,9.9-2c6.9,0,12.5,2.4,16.8,7.3c4.1,4.7,6.1,11.5,6.1,20.2v34.2H250.4L250.4,85.3z"/>
	</g>
	<g>
		<g>
			<path d="M306.7,86.7c-9.1,0-16.8-3-22.7-9c-6.1-6-9.1-13.6-9.1-22.5s3-16.5,9.1-22.5c6.1-6,13.7-9,22.7-9
				c5.8,0,11.3,1.4,16.1,4.2c4.9,2.8,8.7,6.7,11.3,11.5l2,3.6l-21.5,12.2L336,67.5l-1.9,3.5c-2.7,4.9-6.5,8.8-11.3,11.6
				C317.8,85.3,312.5,86.7,306.7,86.7z M306.7,50.3c-1.3,0-2.3,0.4-3.1,1.3c-0.9,0.9-1.3,2-1.3,3.6c0,1.5,0.4,2.7,1.3,3.6
				c0.8,0.9,1.8,1.3,3.1,1.3c2.6,0,3.5-1.1,4.1-2.3l1.4-2.9l-1.3-2.3C309.8,51,308.6,50.3,306.7,50.3z"/>
		</g>
	</g>
	<g>
		<path d="M363.8,85.3v-32c0-2.9-0.8-2.9-2.3-2.9c-1.5,0-2,0.6-2.1,0.7c-0.6,0.7-0.9,1.8-0.9,3.4v30.8H331v-81h27.5v21.4
			c2.9-1.3,6.1-2,9.9-2c6.9,0,12.5,2.4,16.8,7.3c4.1,4.7,6.1,11.5,6.1,20.2v34.2H363.8L363.8,85.3z"/>
	</g>
	<g>
		<path d="M387.7,85.3V25.1h3.5c-0.1-0.1-0.1-0.1-0.1-0.1c-2.9-2.9-4.4-6.3-4.4-10.3s1.4-7.4,4.4-10.3C394,1.5,397.5,0,401.6,0
			c3.9,0,7.4,1.4,10.3,4.4c2.9,2.9,4.4,6.3,4.4,10.3s-1.4,7.4-4.4,10.3c-0.1,0.1-0.1,0.1-0.1,0.1h3.5v60.2H387.7z"/>
	</g>
	<g>
		<path d="M445.3,86.7c-9.9,0-18-3-24.2-8.9c-6.2-5.9-9.3-13.5-9.3-22.5c0-9,3-16.6,9-22.7c6-6.1,13.7-9.1,22.7-9.1
			c9,0,16.5,3,22.5,8.9c5.8,5.9,8.8,13.5,8.8,22.4c0,2.6-0.3,5.2-1,7.7l-0.8,3.1h-9.3l9.6,8l-2.9,3.1
			C464.4,83.5,456,86.7,445.3,86.7z"/>
	</g>
	<g>
		<path class="st7" d="M42.1,55.9h15.5c-2.4,5.1-7.3,7.7-14.5,7.7c-6.2,0-10.8-1.8-13.9-5.6c-3-3.7-4.5-8-4.5-13
			c0-5.3,1.6-9.6,4.9-12.9c3.2-3.3,7.4-5,12.7-5c6.3,0,11,2.2,13.9,6.7l17.7-10.1c-3.2-5.2-7.7-9.3-13.3-12.3
			c-5.7-3-11.9-4.6-18.7-4.6c-10.8,0-19.9,3.7-27,11C7.7,25.1,4.1,34.2,4.1,45s3.7,19.9,10.8,27.1s16.5,10.8,27.9,10.8
			c10.9,0,19.7-3.4,26.4-10.1c6.7-6.8,10-15.4,10-25.8v-8.7h-37L42.1,55.9L42.1,55.9z M122.7,38L105.5,8.4H84.7v72.8h20.8V45.7
			L121.7,73h1.9l16.2-27.3v35.5h20.8V8.4h-20.8L122.7,38z M198,55.9c0,2.6-0.6,4.6-1.8,6.1c-1.2,1.4-3,2.2-5.2,2.2
			c-4.3,0-6.4-2.3-6.4-7v-28h-19.2v30.1c0,7.7,1.8,13.7,5.1,17.5c3.4,3.9,8,5.9,13.7,5.9c6.1,0,10.8-2.2,13.9-6.5v5.1h19.2v-52
			h-19.2L198,55.9L198,55.9z M254.9,27.7c-6.1,0-10.8,2.2-13.9,6.5v-5.1h-19.2v52H241V54.4c0-2.6,0.6-4.6,1.8-6.1
			c1.2-1.4,3-2.2,5.2-2.2c4.3,0,6.4,2.3,6.4,7v28h19.2V51c0-7.7-1.8-13.7-5.1-17.5C265.1,29.6,260.6,27.7,254.9,27.7z M306.7,46.2
			c3.4,0,6,1.4,7.7,4.4l16.2-9.2c-2.3-4.2-5.6-7.5-9.9-9.9c-4.2-2.4-8.9-3.7-14.1-3.7c-8,0-14.6,2.7-19.9,7.9
			c-5.3,5.2-7.9,11.8-7.9,19.6c0,7.8,2.7,14.4,7.9,19.6c5.3,5.2,11.9,7.9,19.9,7.9c5.1,0,9.9-1.2,14.1-3.7c4.2-2.4,7.6-5.8,9.9-10
			l-16.2-9.4c-1.5,3-4.1,4.5-7.7,4.5c-2.4,0-4.5-0.8-6.1-2.6c-1.7-1.7-2.4-3.9-2.4-6.3c0-2.6,0.8-4.7,2.4-6.3
			C302.2,47.1,304.3,46.2,306.7,46.2z M368.3,27.7c-6.1,0-10.8,2.2-13.9,6.5V8.3h-19.2v72.8h19.2V54.4c0-2.6,0.6-4.6,1.8-6.1
			c1.2-1.4,3-2.2,5.2-2.2c4.3,0,6.4,2.3,6.4,7v28h19.2V51c0-7.7-1.8-13.7-5.1-17.5C378.6,29.6,374,27.7,368.3,27.7z M391.8,81.2H411
			v-52h-19.2V81.2z M401.4,3.9c-2.9,0-5.5,1.1-7.6,3.2c-2.1,2.1-3.2,4.6-3.2,7.4c0,2.9,1.1,5.3,3.2,7.4c2.1,2.1,4.6,3.2,7.6,3.2
			c2.9,0,5.3-1.1,7.4-3.2c2.1-2.1,3.2-4.6,3.2-7.4c0-2.9-1.1-5.3-3.2-7.4C406.7,5,404.3,3.9,401.4,3.9z M443.5,27.7
			c-8,0-14.6,2.7-19.8,7.9c-5.2,5.3-7.9,11.8-7.9,19.8c0,7.8,2.7,14.3,8,19.5c5.4,5.1,12.5,7.7,21.4,7.7c9.5,0,16.8-2.8,22-8.4
			l-12.6-10.6c-2.7,2.2-5.7,3.3-8.9,3.3c-5.4,0-8.9-1.8-10.6-5.2h34.6c0.6-2.2,0.8-4.5,0.8-6.8c0-7.8-2.6-14.3-7.7-19.5
			C458,30.3,451.4,27.7,443.5,27.7z M434.9,49.4c1.5-4.2,4.6-6.2,9-6.2c4.5,0,7.3,2,8.4,6.2H434.9z M517.5,56.5
			c-1.3-2.3-2.9-3.9-4.9-4.9c-2-1.1-4-1.9-6.2-2.6s-4.3-1.1-6.2-1.4c-2-0.2-3.6-0.6-4.9-1.1c-1.3-0.4-1.9-1.1-1.9-2
			c0-1.4,1.1-2.2,3.2-2.2c2.7,0,4.6,1.4,5.8,4.4l15.9-5.7c-3.7-8.8-11.2-13.2-22.6-13.2c-5.7,0-10.7,1.6-15,4.7
			c-4.3,3.1-6.5,7.5-6.5,13.2c0,3.6,0.8,6.5,2.6,8.9s3.9,4,6.3,5.1c2.4,1,4.9,1.8,7.3,2.4c2.4,0.6,4.5,1.1,6.2,1.8
			c1.8,0.6,2.6,1.3,2.6,2.2c0,1.5-1.2,2.3-3.6,2.3c-3.7,0-6.1-1.8-7.3-5.3l-16.7,7.5c3.7,8.2,11.8,12.3,24.4,12.3
			c2.7,0,5.3-0.3,7.9-0.9c2.5-0.6,5-1.5,7.4-2.7c2.4-1.2,4.4-3.1,5.9-5.6c1.5-2.5,2.3-5.4,2.3-8.7C519.4,61.4,518.8,58.7,517.5,56.5
			z"/>
	</g>
	<g>
		<g>
			<rect x="84.6" y="77.1" class="st2" width="20.8" height="4.1"/>
		</g>
		<g>
			<rect x="139.8" y="77.1" class="st2" width="20.8" height="4.1"/>
		</g>
		<g>
			<polygon class="st2" points="139.8,41.6 123.5,68.9 121.7,68.9 105.5,41.6 105.5,45.8 121.7,72.9 123.5,72.9 139.8,45.8 			"/>
		</g>
		<g>
			<path class="st2" d="M198,72c-3.2,4.4-7.8,6.5-13.9,6.5c-5.7,0-10.2-2-13.7-5.9c-3.4-3.9-5.1-9.8-5.1-17.5v4.1
				c0,7.7,1.8,13.7,5.1,17.5c3.4,3.9,8,5.9,13.7,5.9c6.1,0,10.8-2.2,13.9-6.5V72z"/>
		</g>
		<g>
			<rect x="198" y="77.1" class="st2" width="19.2" height="4.1"/>
		</g>
		<g>
			<path class="st2" d="M42.1,51.8v4.1h12.5c1.2-1.1,2.3-2.5,3-4.1H42.1z"/>
		</g>
		<g>
			<path class="st2" d="M483.2,59.4c0.6,0.2,1.2,0.4,1.8,0.7l3.4-1.5c0.4,1.3,1.1,2.3,1.9,3.2c0.1,0,0.1,0,0.1,0.1
				c2.4,0.6,4.5,1.1,6.2,1.8c0.2,0.1,0.4,0.1,0.6,0.2c1.3-0.3,2-1,2-2.1c0-0.9-0.8-1.6-2.6-2.2s-3.8-1.1-6.2-1.8
				c-2.4-0.6-4.9-1.3-7.3-2.4c-2.4-1-4.6-2.7-6.3-5.1c-1.3-1.9-2.2-4.2-2.5-6.9c-0.1,0.7-0.1,1.3-0.1,2.1c0,3.6,0.8,6.5,2.6,8.9
				C478.6,56.8,480.8,58.4,483.2,59.4z"/>
		</g>
		<g>
			<path class="st2" d="M444.1,39c-4.5,0-7.5,2-9,6.2h2.7c1.6-1.4,3.7-2.1,6.3-2.1s4.6,0.7,6.1,2.1h2.3
				C451.3,41.1,448.5,39,444.1,39z"/>
		</g>
		<g>
			<path class="st2" d="M496.7,38.2c-2.1,0-3.2,0.8-3.2,2.2c0,0.8,0.6,1.5,1.9,2h0.1c0.4-0.1,0.8-0.1,1.2-0.1c1.3,0,2.5,0.4,3.5,1.1
				l0,0c2,0.2,4,0.7,6.2,1.4c0.1,0.1,0.4,0.1,0.6,0.1l11.5-4.1c-0.6-1.2-1.1-2.3-1.8-3.5l-14.1,5.1
				C501.2,39.6,499.3,38.2,496.7,38.2z"/>
		</g>
		<g>
			<path class="st2" d="M42.4,23c-5.2,0-9.4,1.7-12.7,5c-3.2,3.3-4.9,7.7-4.9,12.9c0,0.7,0,1.3,0.1,2c0.4-4.3,2-8,4.8-10.8
				c3.2-3.3,7.4-5,12.7-5c6.3,0,11,2.2,13.9,6.7L74,23.7c-0.6-1-1.3-2-2-2.9l-15.6,8.9C53.4,25.2,48.7,23,42.4,23z"/>
		</g>
		<g>
			<rect x="221.7" y="77.1" class="st2" width="19.2" height="4.1"/>
		</g>
		<g>
			<path class="st2" d="M42.7,78.8c-11.3,0-20.7-3.7-27.9-10.8C8.1,61.1,4.6,52.8,4.1,42.9c0,0.7-0.1,1.3-0.1,2
				C4,55.8,7.7,64.8,14.9,72c7.2,7.3,16.5,10.8,27.9,10.8c10.9,0,19.7-3.4,26.4-10.1c6.7-6.8,10-15.4,10-25.8v-4.1
				c0,10.4-3.3,19-10,25.8C62.5,75.4,53.7,78.8,42.7,78.8z"/>
		</g>
		<g>
			<path class="st2" d="M254.5,49.1c0-4.6-2.1-7-6.4-7c-2.3,0-4,0.8-5.2,2.2c-1.2,1.4-1.8,3.5-1.8,6.1v4.1c0-2.6,0.6-4.6,1.8-6.1
				c1.2-1.4,3-2.2,5.2-2.2c4.3,0,6.4,2.3,6.4,7V49.1z"/>
		</g>
		<g>
			<path class="st2" d="M445.3,78.6c-8.9,0-16-2.6-21.4-7.7c-4.9-4.7-7.6-10.6-8-17.5c-0.1,0.7-0.1,1.3-0.1,2c0,7.8,2.7,14.3,8,19.5
				c5.4,5.1,12.5,7.7,21.4,7.7c9.5,0,16.8-2.8,22-8.4l-2.3-1.9C460.1,76.4,453.5,78.6,445.3,78.6z"/>
		</g>
		<g>
			<rect x="254.5" y="77.1" class="st2" width="19.2" height="4.1"/>
		</g>
		<g>
			<path class="st2" d="M517.2,69.3c-1.5,2.5-3.5,4.4-5.9,5.6c-2.4,1.2-4.9,2.2-7.4,2.7c-2.5,0.6-5.1,0.9-7.9,0.9
				c-10.8,0-18.2-3-22.5-9.1l-1.8,0.8c3.7,8.2,11.8,12.3,24.4,12.3c2.7,0,5.3-0.3,7.9-0.9c2.5-0.6,5-1.5,7.4-2.7
				c2.4-1.2,4.4-3.1,5.9-5.6c1.5-2.5,2.3-5.4,2.3-8.7c0-0.8,0-1.4-0.1-2.1C519.1,65.1,518.5,67.3,517.2,69.3z"/>
		</g>
		<g>
			<rect x="391.8" y="77.1" class="st2" width="19.2" height="4.1"/>
		</g>
		<g>
			<path class="st2" d="M469.9,57.7h-34.6c0.9,1.9,2.3,3.2,4.3,4.1h11.5c1.2-0.6,2.4-1.3,3.6-2.2l2.7,2.2h12.5
				c0.6-2.2,0.8-4.5,0.8-6.8c0-0.8,0-1.4-0.1-2.1C470.5,54.4,470.2,56,469.9,57.7z"/>
		</g>
		<g>
			<path class="st2" d="M408.8,17.9c-2.1,2.1-4.6,3.2-7.4,3.2c-2.9,0-5.5-1.1-7.6-3.2c-1.6-1.6-2.6-3.4-3-5.4
				c-0.1,0.7-0.2,1.3-0.2,2c0,2.9,1.1,5.3,3.2,7.4c1.7,1.7,3.7,2.7,5.8,3h3.4c2.1-0.3,4.1-1.3,5.8-3c2.1-2.1,3.2-4.6,3.2-7.4
				c0-0.7-0.1-1.3-0.2-2C411.4,14.6,410.4,16.3,408.8,17.9z"/>
		</g>
		<g>
			<path class="st2" d="M320.7,74.9c-4.2,2.4-8.9,3.7-14.1,3.7c-8,0-14.6-2.7-19.9-7.9c-4.8-4.8-7.4-10.6-7.8-17.6
				c-0.1,0.7-0.1,1.3-0.1,2c0,7.8,2.7,14.4,7.9,19.6c5.3,5.2,11.9,7.9,19.9,7.9c5.1,0,9.9-1.2,14.1-3.7c4.2-2.4,7.6-5.8,9.9-10
				l-1.9-1.1C326.6,70.8,324,73.1,320.7,74.9z"/>
		</g>
		<g>
			<path class="st2" d="M314.3,46.5c-1.8-2.9-4.3-4.4-7.7-4.4c-2.4,0-4.5,0.8-6.1,2.6c-1.7,1.7-2.4,3.9-2.4,6.3c0,0.7,0.1,1.3,0.2,2
				c0.3-1.7,1.1-3.1,2.3-4.3c1.6-1.7,3.7-2.6,6.1-2.6c3.4,0,6,1.4,7.7,4.4l16.2-9.2c-0.6-1.1-1.2-2-1.9-3L314.3,46.5z"/>
		</g>
		<g>
			<rect x="335.2" y="77.1" class="st2" width="19.2" height="4.1"/>
		</g>
		<g>
			<path class="st2" d="M367.9,49.1c0-4.6-2.1-7-6.4-7c-2.3,0-4,0.8-5.2,2.2c-1.2,1.4-1.8,3.5-1.8,6.1v4.1c0-2.6,0.6-4.6,1.8-6.1
				c1.2-1.4,3-2.2,5.2-2.2c4.3,0,6.4,2.3,6.4,7V49.1z"/>
		</g>
		<g>
			<rect x="367.9" y="77.1" class="st2" width="19.2" height="4.1"/>
		</g>
	</g>
	<g>
		<g>
			<path class="st14" d="M182.4,61.1c0,5.8,3.1,9.1,8.6,9.1c3,0,5.2-1,6.8-3c1.5-1.8,2.3-4.3,2.3-7.3v-4c0,3-0.8,5.6-2.3,7.3
				c-1.6,2-3.9,3-6.8,3c-5.5,0-8.6-3.3-8.6-9.1V61.1L182.4,61.1z"/>
		</g>
		<g>
			<rect x="167.3" y="31.3" class="st14" width="15.1" height="4"/>
		</g>
		<g>
			<rect x="223.8" y="31.3" class="st14" width="15.1" height="4"/>
		</g>
		<g>
			<path class="st14" d="M16.3,23.2c6.8-6.9,15.4-10.4,25.6-10.4c6.4,0,12.3,1.4,17.7,4.3c3.6,1.9,6.6,4.3,9.2,7.1l2.2-1.3
				c-3-4-6.8-7.3-11.3-9.9c-5.3-2.9-11.3-4.3-17.7-4.3c-10.1,0-18.8,3.5-25.6,10.4C9.6,26.1,6.1,34.7,6.1,44.9c0,0.7,0,1.3,0.1,2
				C6.7,37.5,10.1,29.6,16.3,23.2z"/>
		</g>
		<g>
			<path class="st14" d="M27.7,63.3c3.4,4.2,8.6,6.3,15.5,6.3c8,0,13.6-3,16.4-8.9l1.4-3h-2c-3,5.1-8.2,7.8-15.8,7.8
				c-6.9,0-12-2.1-15.5-6.3c-2.9-3.6-4.5-7.7-4.9-12.3c-0.1,0.7-0.1,1.3-0.1,2C22.8,54.4,24.5,59.3,27.7,63.3z"/>
		</g>
		<g>
			<path class="st14" d="M511.7,53.4c-1.8-1-3.8-1.8-5.9-2.4c-2.1-0.7-4.1-1.1-5.9-1.3c-2.1-0.2-3.9-0.7-5.3-1.2
				c-1.4-0.6-2.3-1.3-2.7-2c-0.4,0.8-0.6,1.7-0.6,2.1c0,1,0.4,2.9,3.2,3.9c1.4,0.6,3.2,1,5.3,1.2c1.8,0.2,3.8,0.7,5.9,1.3
				c2,0.7,4.1,1.4,5.9,2.4c1.6,0.8,3,2.2,4,4.2c0.8,1.4,1.3,3.1,1.5,5.1c0.1-0.6,0.1-1.3,0.1-2c0-2.8-0.6-5.2-1.7-7.1
				C514.7,55.6,513.2,54.2,511.7,53.4z"/>
		</g>
		<g>
			<path class="st14" d="M482.1,38.1c3.9-2.9,8.6-4.3,13.8-4.3c8,0,13.7,2.2,17.5,6.8l2.2-0.8c-3.7-6.7-10.1-9.9-19.7-9.9
				c-5.2,0-9.9,1.4-13.8,4.3c-3.8,2.7-5.6,6.5-5.6,11.5c0,0.7,0.1,1.3,0.1,2C477,43.5,478.8,40.4,482.1,38.1z"/>
		</g>
		<g>
			<rect x="44.3" y="40.3" class="st14" width="32.8" height="4"/>
		</g>
		<g>
			<rect x="337.3" y="10.4" class="st14" width="15.1" height="4"/>
		</g>
		<g>
			<path class="st14" d="M288.3,41.1c4.9-4.9,10.9-7.3,18.4-7.3c4.7,0,9.1,1.1,13,3.4c2.2,1.3,4.2,2.8,5.8,4.6l2.2-1.2
				c-2-3-4.7-5.5-8-7.3c-3.9-2.3-8.3-3.4-13-3.4c-7.5,0-13.5,2.3-18.4,7.3C283.3,42,281,48,281,55.3c0,0.7,0,1.3,0.1,2
				C281.4,50.8,283.8,45.5,288.3,41.1z"/>
		</g>
		<g>
			<path class="st14" d="M487.4,69.6c1.8,3,4.6,4.6,8.4,4.6c5.2,0,5.6-3.3,5.6-4.4c0-0.6-0.1-1.2-0.6-1.9c-0.7,1.1-2,2.3-5.1,2.3
				c-3.7,0-6.6-1.6-8.4-4.6l-12.9,5.8c0.7,1.1,1.4,2.1,2.3,3L487.4,69.6z"/>
		</g>
		<g>
			<path class="st14" d="M401.4,6.1c-2.3,0-4.3,0.8-6.1,2.6c-1.8,1.8-2.6,3.7-2.6,6c0,0.7,0.1,1.3,0.2,2c0.4-1.4,1.1-2.7,2.3-3.9
				c1.8-1.8,3.7-2.6,6.1-2.6c2.3,0,4.2,0.8,6,2.6c1.2,1.2,2,2.5,2.3,3.9c0.1-0.6,0.2-1.3,0.2-2c0-2.3-0.8-4.2-2.6-6
				C405.7,6.9,403.7,6.1,401.4,6.1z"/>
		</g>
		<g>
			<rect x="393.8" y="31.3" class="st14" width="15.1" height="4"/>
		</g>
		<g>
			<polygon class="st14" points="122.7,42.2 104.3,10.4 86.7,10.4 86.7,14.4 104.3,14.4 122.7,46.2 141,14.4 158.5,14.4 158.5,10.4 
				141,10.4 			"/>
		</g>
		<g>
			<path class="st14" d="M455.2,55.4l-0.8-2.7c-0.1-0.4-0.3-0.9-0.4-1.3h-20.5c-0.1,0.4-0.4,0.8-0.6,1.2l-1.1,2.8H455.2L455.2,55.4z
				"/>
		</g>
		<g>
			<path class="st14" d="M443.5,29.8c-7.4,0-13.5,2.3-18.3,7.3C420.4,42,418,48,418,55.3c0,0.7,0,1.3,0.1,2
				c0.4-6.4,2.7-11.8,7.2-16.3c4.9-4.9,10.8-7.3,18.3-7.3c7.4,0,13.2,2.3,18,7.1c4.2,4.3,6.6,9.6,7,15.9c0.1-0.6,0.1-1.2,0.1-1.9
				c0-7.3-2.3-13.2-7-18C456.8,32.2,450.9,29.8,443.5,29.8z"/>
		</g>
		<g>
			<path class="st14" d="M445.9,69c-5.8,0-9.8-1.8-11.9-5.4h-2l1.4,3c2,4.2,6.2,6.3,12.5,6.3c3.1,0,6.1-0.9,8.8-2.7l7,6
				c0.9-0.6,1.8-1.2,2.5-1.9l-9.6-8C452,68.1,449.1,69,445.9,69z"/>
		</g>
		<g>
			<path class="st14" d="M254.9,29.8c-5.5,0-9.5,1.9-12.3,5.7l-3.8,5.1v4l3.8-5.1c2.8-3.9,6.8-5.7,12.3-5.7c5.1,0,9.1,1.7,12.1,5.1
				c3.1,3.5,4.6,8.9,4.6,16.1v-4c0-7.2-1.6-12.7-4.6-16.1C264,31.5,260,29.8,254.9,29.8z"/>
		</g>
		<g>
			<path class="st14" d="M368.3,29.8c-5.5,0-9.5,1.9-12.3,5.7l-3.8,5.1v4l3.8-5.1c2.8-3.9,6.8-5.7,12.3-5.7c5.1,0,9.1,1.7,12.1,5.1
				c3.1,3.5,4.6,8.9,4.6,16.1v-4c0-7.2-1.6-12.7-4.6-16.1C377.3,31.5,373.4,29.8,368.3,29.8z"/>
		</g>
		<g>
			<rect x="200.1" y="31.3" class="st14" width="15.1" height="4"/>
		</g>
		<g>
			<path class="st14" d="M306.7,66.2c-3,0-5.6-1.1-7.6-3.2c-1.6-1.6-2.5-3.6-2.9-5.8c-0.1,0.7-0.1,1.3-0.1,2c0,3.1,1,5.8,3,7.9
				c2,2.1,4.6,3.2,7.6,3.2c3.6,0,6.4-1.3,8.4-3.8l10.6,6.1c0.8-0.8,1.5-1.8,2.1-2.7L315,62.5C313.1,64.9,310.2,66.2,306.7,66.2z"/>
		</g>
	</g>
	<g>
		<g>
			<g>
				<path d="M157.2,153.1c-0.2,0-0.4,0-0.7,0c-2.3-0.1-4.7-1.1-7.1-2.8c-2.3-1.5-4.2-3.9-6-7c-1.6-2.9-2.9-6.1-3.9-9.7
					c-1.1-3.6-1.8-7.3-2.4-11.3c-0.6-3.9-0.8-7.8-1-11.5c-0.1-3.7,0.1-7.2,0.6-10.4c0.4-3.4,1.2-6.1,2.3-8.2c0.9-1.8,2.3-3.3,4-4.4
					c1.5-0.9,3.2-1.3,5.1-1.3c0.4,0,0.8,0,1.1,0.1c2.8,0.3,5.1,1.6,6.5,3.9c1.1,1.8,2,3.9,2.4,6.4c0.4,2.3,0.6,4.9,0.6,7.7
					c0,2.7,0,5.4,0,8.2c0,2.7,0.1,5.5,0.2,8.1c0.1,2.3,0.4,4.4,1.1,6.3c0.6-1.7,0.9-3.5,1.3-5.6c0.4-2.9,0.9-5.8,1.3-8.8
					c0.4-3,1-6.1,1.6-8.9c0.6-3.1,1.5-5.8,2.7-8v-0.1c0.7-1.3,1.8-2.3,3.2-3c0.8-0.3,1.6-0.6,2.4-0.6s1.4,0.1,2.2,0.4l0.1,0.1
					c1.4,0.6,2.6,1.6,3.2,3c0.6,1.2,0.8,2.5,0.8,3.8c-0.6,5.4-1.3,10.8-2.3,16.3c-1,5.4-2,10.6-3,15.8c-0.3,1.6-0.7,3.3-1.2,5.1
					c-0.6,1.9-1.2,3.8-2,5.6c-0.8,1.9-1.8,3.7-3,5.3c-1.3,1.8-2.9,3.2-4.6,4.2C161.1,152.7,159.2,153.1,157.2,153.1z"/>
			</g>
		</g>
		<g>
			<g>
				<path d="M194.8,141c-0.4,0-0.7,0-1.1,0c-3.1-0.1-6.2-0.9-9.2-2.3c-2.8-1.2-5-3-6.6-5.1c-1.5-2.1-2.6-4.5-3-7
					c-0.4-2.5-0.4-5.1,0.1-7.7c0.4-2.6,1.3-5.1,2.5-7.6c1.2-2.4,2.7-4.8,4.5-6.9c1.8-2.2,3.9-4,6.1-5.6c2.3-1.6,4.9-2.8,7.7-3.7
					c2-0.6,4.1-0.9,6.2-0.9c0.8,0,1.7,0.1,2.6,0.1c3.2,0.4,5.8,1.5,7.8,3.4c1.8,1.8,3.1,3.9,3.7,6.4c0.6,2.3,0.6,4.9,0,7.5
					c-0.6,2.6-1.8,4.9-3.5,7c-0.6,0.6-1,1.2-1.5,1.8c2.3,0.8,3.5,2.3,4,3.4c0.6,1.2,1.2,3.1,0.4,5.8c-0.6,1.9-1.8,3.7-3.8,5.1
					c-1.4,1.1-3,2.2-4.8,3c-1.5,0.8-2.7,1.3-3.7,1.7C200.6,140.4,197.7,141,194.8,141z"/>
			</g>
		</g>
		<g>
			<g>
				<path d="M243.2,134.3c-1.6,0-3-0.4-4.3-1.3c-1.3-0.8-2.3-2-3-3.2c-0.6-1.1-1.1-2.3-1.5-3.5c-0.4-1.1-0.6-2.3-0.8-3.6
					c-0.1-1.1-0.2-2.1-0.3-3.1c0-0.3-0.1-0.7-0.1-1c-0.6,1.1-0.8,2.3-1.1,3.6c-0.2,1.1-0.4,2.2-0.7,3.3c-0.3,1.4-0.8,2.8-1.4,4
					c-0.8,1.5-1.9,2.7-3.2,3.6c-1.1,0.8-2.4,1.1-3.9,1.1c-0.6,0-1.2-0.1-1.9-0.2c-2-0.4-3.8-1.4-5-3c-1.1-1.5-1.8-3.2-1.8-5.1
					c-0.1-1.4,0.1-3.1,0.3-5.1c0.2-1.8,0.6-3.7,0.8-5.7c0.3-2,0.7-3.9,1-5.7c0.3-1.8,0.6-3.4,0.7-4.7c0.1-1.2,0.6-2.4,1.1-3.6
					c0.8-1.7,2.3-2.9,4.2-3.2c0.7-0.1,1.3-0.2,1.9-0.2c0.4,0,0.9,0.1,1.3,0.1c1,0.2,1.8,0.7,2.6,1.3l0,0c2.3-1.8,4.5-3,6.5-3.5
					c1.1-0.3,2.1-0.4,3.1-0.4c1.8,0,3.6,0.4,5,1.4c2,1.3,3.7,3.3,4.9,6c1,2.3,1.8,4.8,2.4,7.4c0.6,2.7,1.1,5.3,1.3,8
					c0.3,2.6,0.6,4.9,0.8,6.8c0.1,1.4,0.1,2.8-0.3,4.1c-0.6,1.7-1.7,3.1-3.2,4c-1.3,0.8-2.7,1.2-4.4,1.3
					C243.8,134.3,243.5,134.3,243.2,134.3z"/>
			</g>
		</g>
		<g>
			<g>
				<path d="M275.1,139.3c-2.2,0-4.5-0.3-6.8-0.8c-4-1-8-3-11.8-6.1c-2.4-1.9-4.2-4.2-5.6-6.9c-1.2-2.6-2-5.2-2.3-8
					c-0.2-2.7,0-5.5,0.7-8.1c0.7-2.7,1.8-5.1,3.3-7.3c1.6-2.2,3.6-4,5.9-5.4c2.5-1.4,5.3-2.2,8.3-2.3h0.3c2.9,0,6,0.7,9.3,2
					c1.3,0.6,2.8,1.3,4.2,2.2c-0.2-1.1-0.6-2.2-0.8-3.2c-0.6-1.9-1.3-3.8-2-5.6c-0.8-1.8-1.5-3.3-2.3-4.6l-0.1-0.1l-0.1-0.1
					c-0.1-0.1-0.1-0.1-0.1-0.1c-0.3-0.4-0.6-0.8-0.8-1.2l-0.1-0.1l-0.1-0.1c-0.7-1.7-0.8-3.4-0.4-5.1c0.4-1.6,1.2-2.9,2.3-3.9
					c1.1-1.1,2.6-1.7,4.1-1.9c0.3-0.1,0.6-0.1,0.9-0.1c1.4,0,2.9,0.4,4.2,1.3c1.8,1.2,3.4,2.9,4.9,5c1.4,2,2.7,4.1,3.9,6.3
					c1.1,2.2,2.1,4.5,3,6.7c0.8,2.3,1.5,4.2,2,6c1.4,5.2,2,10.1,1.6,14.8c-0.4,4.6-1.5,8.7-3.3,12.3c-1.9,3.7-4.4,6.8-7.4,9.1
					c-3.1,2.4-6.6,4-10.3,4.8C278.5,139.1,276.8,139.3,275.1,139.3z M267.8,112.5c-0.1,0-0.6,0.1-0.6,0.1c-0.1,0.1-0.3,0.4-0.4,1.1
					c-0.1,0.6,0.1,1.1,0.4,1.7c0.4,0.6,1,1.3,1.9,1.8s2.3,0.9,4.2,0.9h0.1c0.1,0,0.3,0,0.4,0c0.6,0,1.1-0.1,1.7-0.2
					c-0.4-0.4-0.8-0.7-1.2-1.1c-1.4-1.2-3-2.4-4.6-3.5C268.5,112.6,267.9,112.5,267.8,112.5L267.8,112.5z"/>
			</g>
		</g>
		<g>
			<g>
				<path d="M310.7,134.6c-1.8,0-3.6-0.6-5.3-1.8c-2-1.3-3.7-3.4-4.9-6.2c-1-2.3-1.8-5-2.1-7.9c-0.4-2.8-0.6-5.8-0.4-8.7
					c0.1-3,0.6-5.8,1.2-8.3c0.7-2.7,1.6-5,2.8-7c1-1.7,2.2-2.9,3.6-3.7c-1.3-0.7-3.4-2.3-3.6-6.1c-0.1-2.2,0.1-4.1,0.8-5.6
					c0.6-1.6,1.5-3,2.7-3.9c1.2-1.1,2.6-1.8,4.1-2c0.4-0.1,0.8-0.1,1.2-0.1c1.1,0,2,0.2,3,0.6c1.3,0.6,2.4,1.3,3.3,2.5
					c1,1.2,1.5,2.7,1.7,4.4c0.2,2.6-0.4,5-2,6.9c-0.9,1.2-2,2.1-3.1,2.8c0.3,0.1,0.6,0.3,0.8,0.4c1.6,1.1,2.7,2.7,3.3,4.6
					c0.6,1.6,0.8,3.5,0.7,5.6c-0.1,1.8-0.1,3.7-0.4,5.4c-0.2,1.8-0.4,3.5-0.8,5.1c-0.3,1.7-0.4,2.6-0.4,3.1v0.1
					c-0.1,1-0.1,1.9,0,2.8c0,0.4,0.1,0.9,0.1,1.3c1.1,0.7,2,1.5,2.6,2.5c1,1.6,1.4,3.2,1.3,4.9c-0.1,1.5-0.8,3-1.8,4.2
					c-0.9,1.2-2.1,2.2-3.7,2.9c-1.3,0.7-2.9,1-4.5,1L310.7,134.6z"/>
			</g>
		</g>
		<g>
			<g>
				<path d="M345.8,126.2c-1.6,0-3-0.4-4.3-1.3c-1.3-0.8-2.3-2-3-3.2c-0.6-1.1-1.1-2.3-1.5-3.5c-0.4-1.1-0.6-2.3-0.8-3.6
					c-0.1-1.1-0.2-2.1-0.3-3.1c0-0.3-0.1-0.7-0.1-1c-0.6,1.1-0.8,2.3-1.1,3.6c-0.2,1.1-0.4,2.1-0.7,3.3c-0.3,1.4-0.8,2.8-1.4,4
					c-0.8,1.5-1.9,2.7-3.2,3.6c-1.1,0.8-2.4,1.1-3.9,1.1c-0.6,0-1.2-0.1-1.9-0.2c-2-0.4-3.8-1.4-5-3c-1.1-1.5-1.8-3.2-1.8-5.1
					c-0.1-1.4,0.1-3.1,0.3-5.1c0.2-1.8,0.6-3.7,0.8-5.7c0.3-2,0.7-3.9,1-5.7c0.3-1.8,0.6-3.4,0.7-4.7c0.1-1.2,0.6-2.4,1.1-3.6
					c0.8-1.7,2.3-2.9,4.2-3.2c0.7-0.1,1.3-0.2,1.9-0.2c0.4,0,0.9,0.1,1.3,0.1c1,0.2,1.8,0.7,2.6,1.3l0,0c2.3-1.8,4.5-3,6.5-3.5
					c1.1-0.3,2.1-0.4,3.1-0.4c1.8,0,3.6,0.4,5,1.4c2,1.3,3.7,3.3,4.9,6c1,2.3,1.8,4.8,2.4,7.4c0.6,2.7,1.1,5.3,1.3,8
					c0.3,2.6,0.6,4.9,0.8,6.8c0.1,1.4,0.1,2.8-0.3,4.1c-0.6,1.7-1.7,3.1-3.2,4c-1.3,0.8-2.7,1.2-4.4,1.3
					C346.4,126.2,346.1,126.2,345.8,126.2z"/>
			</g>
		</g>
		<g>
			<g>
				<path d="M370.2,141.2c-2.1,0-4.3-0.4-6.4-1.2c-2.5-1-4.9-2.6-7-4.9c-1.1-1.1-2.1-2.5-3-4.2c-1-1.8-1.7-3.6-2.1-5.5
					c-0.4-2.1-0.4-4.2,0.1-6.1c0.4-1.6,1.7-3.9,4.8-5.3c0.4-0.1,0.8-0.3,1.1-0.4c-1.6-0.8-2.9-1.8-4-3.1c-1.6-1.8-2.6-4.2-3-6.9
					c-0.4-2.6-0.1-5.6,0.8-8.9c0.7-2.4,1.8-4.8,3.2-6.9c1.4-2.1,3.1-4,5.1-5.6c2-1.7,4.2-3,6.5-4c2.4-1.1,5-1.7,7.6-1.9
					c0.4,0,0.8-0.1,1.2-0.1c0.8,0,1.6,0.1,2.3,0.2c0.8,0.1,1.7,0.4,2.4,0.7c0.8,0.2,1.5,0.6,2.2,0.8c0.4,0.1,0.9,0.3,1.4,0.4h0.1
					c2,0.3,3.5,1,4.6,2.1c1,1,1.7,2.3,2,3.7c0.3,1,0.4,2.1,0.6,3.2c0.1,0.8,0.2,1.5,0.4,2.3c1.3,4.1,2.3,8.2,3,12.1
					c0.8,4.2,0.8,8.6,0.1,13.1c-0.6,3.5-1.4,7-2.7,10.2c-1.3,3.5-3.6,6.7-6.4,9.3c-2,1.9-4.2,3.5-6.5,4.6c-2.4,1.2-4.9,1.9-7.3,2
					C370.9,141.2,370.6,141.2,370.2,141.2z M365.4,115.2c0.1,0.1,0.2,0.2,0.4,0.3c1,0.8,1.9,1.8,2.7,2.9c0.6,0.8,1.1,1.5,1.8,2.2
					c1.1,1.3,1.7,1.3,1.7,1.3h0.1c0.2,0,0.6-0.1,1.1-0.4c0.7-0.6,1.3-1.4,1.9-2.6c0.7-1.3,1.1-2.8,1.4-4.4c0.2-1.3,0.4-2.6,0.4-3.9
					c-0.8,0.6-1.7,1.2-2.6,1.8c-2.5,1.4-5,2.3-7.4,2.7C366.2,115.1,365.8,115.1,365.4,115.2z M372.3,92.9c-0.2,0.1-1.1,0.4-2.5,2.1
					c-0.7,0.8-1.1,1.7-1.2,2.4c0,0.2-0.1,0.4-0.1,0.6c0.3-0.2,0.8-0.6,1.4-1.3c1.8-2,2.2-3.1,2.3-3.5
					C372.3,93.1,372.3,92.9,372.3,92.9L372.3,92.9z"/>
			</g>
		</g>
		<g>
			<path class="st20" d="M173.6,95.8c-0.8-0.3-1.4-0.2-2.1,0.1c-0.7,0.3-1.2,0.8-1.5,1.3c-1,2-1.8,4.4-2.3,7.2
				c-0.6,2.8-1.1,5.8-1.6,8.8c-0.4,3-0.9,6-1.3,8.9c-0.4,2.9-1.1,5.3-1.8,7.4c-0.6,1.6-1.1,2.7-1.7,3.2c-0.6,0.6-1.1,0.8-1.6,0.7
				c-0.6-0.1-1-0.7-1.4-1.5c-0.4-0.8-0.8-1.9-1.2-3.2c-0.8-2.3-1.2-4.9-1.3-7.7c-0.1-2.8-0.2-5.6-0.2-8.3c0-2.8,0-5.6,0-8.1
				c0-2.7-0.1-5-0.6-7c-0.4-2-1-3.8-1.9-5.1c-0.9-1.3-2.3-2.1-4-2.3c-1.5-0.1-2.9,0.1-4.1,0.8c-1.2,0.7-2.1,1.8-2.7,3
				c-0.9,1.8-1.6,4.2-2,7.2c-0.4,3-0.6,6.2-0.4,9.8c0.1,3.6,0.4,7.3,0.9,11.1c0.6,3.8,1.3,7.4,2.3,10.8c1,3.4,2.2,6.3,3.7,9.1
				c1.4,2.7,3.1,4.6,4.9,5.9c2,1.3,3.7,2,5.4,2.2c1.6,0.1,3.1-0.2,4.4-1c1.3-0.8,2.5-1.8,3.5-3.2c1-1.4,1.9-3,2.7-4.6
				c0.8-1.7,1.3-3.4,1.8-5.1c0.6-1.8,0.9-3.4,1.1-4.9c1-5.2,2-10.5,3-15.8c1-5.4,1.8-10.7,2.3-15.9c0.1-0.7-0.1-1.3-0.4-2
				C174.8,96.5,174.3,96,173.6,95.8z M210,100.1c-1.4-1.3-3.3-2.2-5.8-2.5c-2.6-0.3-5.1-0.1-7.4,0.6c-2.4,0.7-4.6,1.8-6.7,3.2
				s-3.9,3.1-5.5,5c-1.6,2-3,4-4,6.2c-1.1,2.2-1.8,4.4-2.2,6.7c-0.4,2.3-0.4,4.5-0.1,6.5c0.4,2,1.2,3.9,2.4,5.7
				c1.2,1.8,3,3.1,5.2,4.1c2.7,1.2,5.3,1.9,8,2c2.7,0.1,5.4-0.4,8-1.5c0.8-0.3,2-0.8,3.5-1.6c1.5-0.7,2.9-1.6,4.1-2.6
				c1.3-1.1,2.3-2.2,2.6-3.5c0.4-1.2,0.3-2.3-0.1-3.2c-0.4-0.9-1.3-1.5-2.6-1.9c-1.3-0.4-2.7-0.2-4.6,0.4c-1.6,0.6-3.2,1.2-4.9,1.9
				c-1.7,0.7-3.2,1.2-4.6,1.5c-1.4,0.4-2.5,0.3-3.4-0.1c-0.9-0.3-1.3-1.3-1.3-2.8l0.4-0.3l0.4-0.1c2,0.1,3.8,0,5.4-0.2
				c1.7-0.2,3.2-0.6,4.7-1.2c1.5-0.6,2.9-1.3,4.2-2.4c1.3-1.1,2.7-2.3,3.9-3.9c1.3-1.7,2.3-3.6,2.8-5.6c0.4-2,0.4-4,0-5.9
				C212.3,103,211.4,101.5,210,100.1z M203.2,110.8c-0.8,1.2-1.7,2.2-2.9,3c-1.2,0.8-2.5,1.4-3.9,1.8c-1.4,0.4-2.7,0.4-3.9,0
				c0.4-1,0.9-2,1.8-3.2c0.8-1.1,1.8-2.1,2.8-3c1.1-0.8,2.2-1.5,3.4-2c1.2-0.4,2.4-0.6,3.6-0.4C204.3,108.4,203.8,109.6,203.2,110.8
				z M247.9,118.4c-0.3-2.6-0.8-5.1-1.3-7.6c-0.6-2.5-1.3-4.8-2.2-6.8c-0.9-2-2-3.6-3.6-4.5c-1.5-0.9-3.2-1.1-5.5-0.6
				c-2.1,0.6-4.7,2.2-7.7,4.9c-0.4-0.4-0.8-0.8-1.1-1.1s-0.6-0.7-0.9-1c-0.3-0.3-0.7-0.4-1.1-0.6c-0.4-0.1-1-0.1-1.7,0.1
				c-0.9,0.1-1.6,0.7-2,1.4c-0.4,0.7-0.6,1.6-0.8,2.4c-0.1,1.4-0.4,3-0.7,4.9c-0.3,1.9-0.6,3.8-1,5.7c-0.3,2-0.6,3.8-0.8,5.6
				c-0.2,1.8-0.3,3.2-0.3,4.6c0.1,1.2,0.4,2.3,1.1,3.2c0.7,0.9,1.7,1.5,3,1.8c1.3,0.3,2.4,0.1,3.2-0.4c0.8-0.6,1.5-1.3,2-2.3
				c0.6-1,0.9-2,1.1-3.2c0.2-1.1,0.4-2.2,0.7-3.2c0.4-2.3,1.2-4.5,2.4-6.4c1.2-2,2.5-3.9,3.9-5.6l0.6-0.2c0.3,1.6,0.4,3.2,0.6,4.9
				c0.1,1.7,0.2,3.4,0.4,5c0.1,1,0.1,2,0.3,3c0.1,1.1,0.4,2,0.7,3c0.3,1,0.7,1.9,1.2,2.7c0.6,0.8,1.2,1.6,2,2.1
				c0.8,0.6,1.8,0.8,3,0.7c1.1-0.1,2.2-0.4,3-0.9c0.9-0.6,1.4-1.2,1.7-2c0.2-0.8,0.3-1.8,0.1-2.7
				C248.4,123.2,248.2,120.9,247.9,118.4z M294.4,93c-0.8-2.1-1.8-4.2-2.8-6.3c-1.1-2.1-2.3-4.1-3.6-5.9c-1.3-1.8-2.7-3.2-4.1-4.2
				c-0.9-0.6-1.8-0.9-2.7-0.8c-0.9,0.1-1.7,0.4-2.3,1.1c-0.7,0.6-1.1,1.3-1.3,2.3c-0.2,0.9-0.1,1.9,0.2,2.9c0.1,0.2,0.3,0.4,0.4,0.7
				c0.1,0.2,0.3,0.4,0.4,0.7c0.8,1.3,1.7,3,2.4,4.9c0.8,1.9,1.5,3.9,2.2,5.9c0.6,2,1.1,4.1,1.4,6.1c0.3,2,0.4,3.9,0.3,5.4
				c-3.4-3-6.7-5.1-9.6-6.3c-3-1.2-5.8-1.8-8.2-1.8c-2.5,0-4.7,0.6-6.7,1.8c-2,1.1-3.6,2.7-4.9,4.5s-2.2,3.9-2.8,6.1
				c-0.6,2.3-0.8,4.6-0.6,6.9c0.2,2.3,0.8,4.6,1.9,6.8c1.1,2.2,2.6,4.1,4.6,5.8c3.4,2.7,6.9,4.6,10.5,5.5c3.6,0.9,7,1,10.2,0.3
				s6.2-2,8.9-4.2c2.7-2.1,4.9-4.8,6.5-8c1.7-3.2,2.7-6.9,3-11.1c0.4-4.2-0.1-8.7-1.5-13.6C295.9,97,295.2,95.1,294.4,93z
				 M273.1,121.5c-2.5-0.1-4.5-0.6-5.9-1.4c-1.4-0.9-2.5-1.9-3.1-3.1c-0.6-1.2-0.9-2.3-0.8-3.6c0.1-1.2,0.6-2.2,1.2-3
				c0.7-0.8,1.7-1.2,2.9-1.3c1.2-0.1,2.7,0.4,4.2,1.5c1.7,1.1,3.2,2.3,4.8,3.7c1.5,1.3,3.1,2.6,4.6,3.9
				C279.1,120.5,276.5,121.7,273.1,121.5z M307.2,88c1.1,0.6,2.3,0.6,3.5,0.1c1.2-0.4,2.3-1.3,3.3-2.5c1-1.2,1.3-2.7,1.3-4.6
				c-0.1-1-0.4-1.9-0.9-2.6c-0.6-0.7-1.2-1.2-2-1.5c-0.8-0.3-1.6-0.4-2.4-0.3c-0.8,0.1-1.7,0.6-2.3,1.1c-0.7,0.6-1.3,1.5-1.7,2.6
				c-0.4,1.1-0.6,2.5-0.6,4.2C305.5,86.5,306,87.5,307.2,88z M313.4,121.2c0-1.1,0-2.1-0.1-3.2c-0.1-1.1-0.1-2.1,0-3.2
				c0.1-0.8,0.2-2,0.4-3.6c0.3-1.5,0.6-3.1,0.7-4.9c0.1-1.8,0.3-3.4,0.4-5.1c0.1-1.8-0.1-3.2-0.6-4.5c-0.4-1.3-1.1-2.2-2-2.8
				c-0.9-0.6-2.3-0.8-3.9-0.3c-1.3,0.3-2.5,1.3-3.5,3c-1,1.7-1.8,3.7-2.4,6.1c-0.6,2.3-1,4.9-1.1,7.7c-0.1,2.8-0.1,5.5,0.3,8
				c0.4,2.6,1,4.9,1.9,7c0.9,2.1,2.1,3.7,3.7,4.7c1.1,0.8,2.3,1.1,3.4,1.2c1.1,0,2.2-0.2,3.2-0.7c1-0.4,1.8-1.1,2.3-1.9
				c0.6-0.8,1-1.7,1.1-2.6c0.1-0.9-0.1-1.8-0.8-2.7C315.9,122.5,314.9,121.7,313.4,121.2z M350.5,110.1c-0.3-2.6-0.7-5.1-1.3-7.6
				c-0.6-2.5-1.3-4.8-2.2-6.8s-2-3.6-3.6-4.5c-1.5-0.9-3.2-1.1-5.5-0.6c-2.1,0.6-4.7,2.2-7.7,4.9c-0.4-0.4-0.8-0.8-1.1-1.1
				c-0.3-0.4-0.6-0.7-0.9-1c-0.3-0.3-0.7-0.4-1.1-0.6c-0.4-0.1-1-0.1-1.7,0.1c-0.9,0.1-1.6,0.7-2,1.4c-0.4,0.8-0.6,1.6-0.8,2.4
				c-0.1,1.4-0.4,3-0.7,4.9c-0.4,1.9-0.6,3.8-1,5.7c-0.3,2-0.6,3.8-0.8,5.6c-0.2,1.8-0.3,3.2-0.3,4.6c0.1,1.2,0.4,2.3,1.1,3.2
				c0.7,0.9,1.7,1.5,3,1.8c1.3,0.3,2.4,0.1,3.2-0.4c0.8-0.6,1.5-1.3,2-2.3c0.6-1,0.9-2,1.1-3.2c0.2-1.1,0.4-2.2,0.7-3.2
				c0.4-2.3,1.2-4.5,2.4-6.4c1.2-2,2.5-3.9,3.9-5.6l0.6-0.2c0.3,1.6,0.4,3.2,0.6,4.9c0.1,1.7,0.2,3.4,0.4,5c0.1,1,0.1,2,0.3,3
				s0.4,2,0.7,3c0.3,1,0.7,1.9,1.2,2.7c0.6,0.8,1.2,1.6,2,2.1c0.8,0.6,1.8,0.8,3,0.7c1.1-0.1,2.2-0.4,3-0.9c0.9-0.6,1.4-1.2,1.7-2
				c0.2-0.8,0.3-1.8,0.1-2.7C351.1,115,350.8,112.7,350.5,110.1z M390.9,102.5c-0.7-3.8-1.7-7.7-3-11.8c-0.3-1-0.4-1.9-0.6-2.9
				c-0.1-1-0.3-1.9-0.6-2.7c-0.2-0.8-0.6-1.6-1.2-2.2s-1.5-1-2.7-1.1c-0.8-0.1-1.6-0.3-2.3-0.6c-0.7-0.3-1.3-0.6-2-0.8
				c-0.7-0.2-1.3-0.4-2.1-0.6c-0.8-0.1-1.6-0.2-2.6-0.1c-2.3,0.1-4.4,0.7-6.5,1.6c-2.1,0.9-4,2-5.7,3.5c-1.8,1.4-3.2,3.1-4.5,4.9
				c-1.3,1.8-2.2,3.9-2.7,5.9c-0.8,2.8-1.1,5.3-0.7,7.4c0.3,2.1,1.1,3.9,2.3,5.2c1.1,1.3,2.7,2.3,4.4,2.9c1.8,0.6,3.7,0.7,5.7,0.4
				c2-0.3,4.1-1.1,6.3-2.3c2.1-1.2,4.2-2.9,6.1-5.1l0.3,0.4c0.8,1.3,1.2,3,1.3,4.9c0.1,1.8,0,3.7-0.4,5.6c-0.4,1.9-0.9,3.7-1.8,5.2
				c-0.8,1.7-1.8,2.9-2.8,3.7c-1.1,0.8-2.3,1.3-3.6,1.1c-1.3-0.1-2.6-0.9-3.9-2.6c-0.7-0.8-1.3-1.6-2-2.4c-0.6-0.8-1.3-1.6-2-2.2
				c-0.8-0.6-1.6-1.1-2.5-1.3c-0.9-0.2-2-0.1-3.2,0.4c-1.6,0.8-2.6,1.8-3,3.2c-0.4,1.3-0.4,2.9-0.1,4.4c0.3,1.5,0.9,3,1.8,4.5
				c0.8,1.4,1.7,2.7,2.6,3.5c1.8,1.9,3.8,3.2,5.8,4c2,0.8,4.1,1.1,6.1,1c2-0.1,4.1-0.7,6.1-1.7s3.9-2.3,5.8-4.1c2.5-2.3,4.4-5,5.6-8
				c1.2-3,2-6.2,2.5-9.5C391.6,110.3,391.6,106.3,390.9,102.5z M375.7,93.7c-0.2,1.6-1.3,3.3-3.1,5.3c-1.6,1.7-3,2.6-4.2,2.6
				c-1.2,0.1-2-0.4-2.6-1.2c-0.6-0.8-0.7-2-0.6-3.4s0.8-2.8,1.9-4.1c1.5-1.9,3-3,4.5-3.3c1.4-0.3,2.5-0.1,3.2,0.7
				C375.7,91,376,92.1,375.7,93.7z"/>
		</g>
		<g>
			<g>
				<path class="st9" d="M311.3,118.1c-0.1,1-0.1,2,0,3c0,0.3,0,0.7,0,1v-1C311.4,120.2,311.4,119.1,311.3,118.1z"/>
			</g>
			<g>
				<path class="st9" d="M303.6,113.4c0.1-2.7,0.6-5.1,1.1-7.3c0.6-2.1,1.3-4,2.1-5.5c0.7-1.1,1.4-1.8,2.2-2
					c0.6-0.1,0.9-0.1,1.3-0.1s0.8,0.1,1,0.2c0.6,0.4,0.9,0.9,1.1,1.8c0.1,0.6,0.3,1.2,0.4,1.9c0-0.4,0.1-0.8,0.1-1.2
					c0.1-1.4-0.1-2.7-0.4-3.8c-0.2-0.8-0.6-1.3-1.1-1.8c-0.2-0.1-0.6-0.2-1-0.2c-0.4,0-0.8,0.1-1.3,0.1c-0.8,0.1-1.5,0.8-2.2,2
					c-0.9,1.4-1.6,3.2-2.1,5.5c-0.6,2.2-0.9,4.7-1.1,7.3c-0.1,1.3-0.1,2.7,0,3.9C303.6,113.9,303.6,113.7,303.6,113.4z"/>
			</g>
			<g>
				<path class="st9" d="M254.8,113.8c0.6-2,1.3-3.9,2.5-5.5c1.2-1.6,2.5-2.9,4.2-3.9s3.5-1.4,5.6-1.5h0.1c2.1,0,4.6,0.6,7.2,1.7
					c2.8,1.1,5.8,3.2,9.1,6l3.1,2.7l0.4-4.1c0.1-1,0.1-2.1,0-3.2c0,0.1,0,0.1,0,0.1l-0.4,4.1l-3.1-2.7c-3.2-2.8-6.3-4.9-9.1-6
					c-2.7-1.1-5.1-1.7-7.2-1.7h-0.1c-2.1,0-3.9,0.6-5.6,1.5s-3.1,2.3-4.2,3.9c-1.1,1.6-2,3.4-2.5,5.5c-0.6,2-0.7,4.1-0.6,6.1
					C254.3,115.8,254.5,114.8,254.8,113.8z"/>
			</g>
			<g>
				<path class="st9" d="M262.3,121c0.8,1.5,2.1,2.8,3.9,3.9c1.8,1.1,4.1,1.7,7,1.8c0.2,0,0.4,0,0.7,0c3.7,0,6.7-1.4,8.9-4.2
					l1.3-1.6l-1.5-1.2c-2.2,2.7-5.1,3.9-8.7,3.9c-0.2,0-0.6,0-0.7,0c-2.9-0.1-5.1-0.7-7-1.8c-1.8-1.1-3.1-2.4-3.9-3.9
					c-0.4-0.8-0.8-1.6-0.9-2.4c-0.1,0.2-0.1,0.4-0.1,0.7C261.1,117.9,261.5,119.5,262.3,121z"/>
			</g>
			<g>
				<path class="st9" d="M356.5,99.5c0.6-1.9,1.3-3.7,2.5-5.3c1.1-1.7,2.5-3.2,4.1-4.5c1.6-1.3,3.3-2.3,5.2-3.2s3.9-1.3,5.8-1.4
					c0.2,0,0.6,0,0.8,0c0.4,0,0.8,0,1.2,0.1c0.7,0.1,1.3,0.3,1.9,0.6c0.7,0.2,1.3,0.4,2,0.7c0.8,0.3,1.8,0.6,2.8,0.7
					c0.9,0.1,1.3,0.4,1.4,0.6c0.3,0.4,0.6,0.8,0.7,1.3c0.2,0.8,0.4,1.5,0.4,2.4c0.1,1.1,0.4,2.2,0.7,3.3c1.3,3.9,2.3,7.7,2.9,11.5
					c0.2,1.3,0.4,2.7,0.4,4.2c0.1-2.5-0.1-4.9-0.4-7.2c-0.7-3.7-1.7-7.6-2.9-11.5c-0.3-1.1-0.6-2.2-0.7-3.3
					c-0.1-0.9-0.2-1.7-0.4-2.4c-0.1-0.6-0.4-0.9-0.7-1.3c-0.1-0.1-0.6-0.4-1.4-0.6c-1-0.1-1.9-0.4-2.8-0.7c-0.6-0.2-1.3-0.4-2-0.7
					c-0.6-0.2-1.2-0.4-1.9-0.6c-0.4-0.1-0.8-0.1-1.2-0.1c-0.2,0-0.6,0-0.8,0c-2,0.1-4,0.7-5.8,1.4c-1.9,0.8-3.7,1.9-5.2,3.2
					c-1.6,1.3-3,2.8-4.1,4.5c-1.1,1.7-2,3.5-2.5,5.3c-0.7,2.4-0.9,4.6-0.7,6.3C356,101.7,356.2,100.6,356.5,99.5z"/>
			</g>
			<g>
				<path class="st9" d="M142.1,104.4c0.4-2.7,1-4.9,1.8-6.5c0.4-1,1.1-1.7,2-2.2c0.7-0.4,1.3-0.6,2.2-0.6c0.1,0,0.4,0,0.6,0
					c1.1,0.1,2,0.6,2.5,1.3c0.8,1.1,1.3,2.6,1.6,4.4c0.3,1.8,0.6,3.9,0.6,6.2c0-0.8,0-1.8,0-2.6c0-2.5-0.1-4.8-0.6-6.7
					c-0.3-1.8-0.8-3.2-1.6-4.4c-0.6-0.8-1.3-1.3-2.5-1.3c-0.2,0-0.4,0-0.6,0c-0.8,0-1.6,0.2-2.2,0.6c-0.8,0.6-1.5,1.2-2,2.2
					c-0.8,1.6-1.4,3.8-1.8,6.5c-0.4,2.8-0.6,5.9-0.4,9.2C141.7,108.3,141.8,106.2,142.1,104.4z"/>
			</g>
			<g>
				<path class="st9" d="M364.1,104.6c0.9,1.4,2.3,2.2,4.2,2.2c0.1,0,0.1,0,0.2,0c1.8-0.1,3.7-1.1,5.6-3.2c2.1-2.3,3.3-4.3,3.7-6.3
					c0.1-1.1,0.1-2-0.1-2.9c-0.4,2-1.6,4-3.7,6.2c-2,2.1-3.9,3.2-5.6,3.2c-0.1,0-0.1,0-0.2,0c-1.8,0-3.3-0.8-4.2-2.2
					c-0.4-0.6-0.6-1.3-0.8-2c0,0.1,0,0.2-0.1,0.3C363.1,101.7,363.3,103.3,364.1,104.6z"/>
			</g>
			<g>
				<path class="st9" d="M358.8,122.2c0.6-0.2,1.1-0.4,1.4-0.4c0.1,0,0.3,0,0.4,0.1c0.6,0.1,1.2,0.4,1.7,0.8
					c0.6,0.6,1.2,1.1,1.8,1.8c0.7,0.9,1.3,1.8,2,2.6c1.8,2,3.6,3.2,5.4,3.2c0.1,0,0.3,0,0.4,0l0,0c1.6,0,3.1-0.6,4.5-1.7
					c1.3-1.1,2.5-2.6,3.4-4.5c0.8-1.8,1.5-3.7,1.9-5.8c0.4-2,0.6-4.1,0.4-6.1l0,0c-0.1,1-0.2,2-0.4,3c-0.4,2-1.1,3.9-1.9,5.8
					c-0.9,1.9-2,3.4-3.4,4.5c-1.3,1.1-2.9,1.7-4.5,1.7l0,0c-0.1,0-0.3,0-0.4,0c-1.9-0.1-3.7-1.2-5.4-3.2c-0.7-0.8-1.3-1.7-2-2.6
					c-0.6-0.8-1.1-1.3-1.8-1.8c-0.6-0.4-1.1-0.7-1.7-0.8c-0.1,0-0.2-0.1-0.4-0.1c-0.4,0-0.9,0.1-1.4,0.4c-1.3,0.6-1.7,1.3-1.8,1.8
					c-0.3,1.1-0.3,2.1-0.1,3.3c0-0.1,0-0.1,0.1-0.3C357.1,123.6,357.3,122.8,358.8,122.2z"/>
			</g>
			<g>
				<path class="st9" d="M307.6,85.3c0.1-0.4,0.1-0.8,0.3-1.1c0.3-0.8,0.7-1.3,1.1-1.8c0.4-0.4,0.8-0.6,1.3-0.6c0.1,0,0.3,0,0.4,0
					c0.3,0,0.6,0.1,0.9,0.1c0.4,0.1,0.8,0.4,1.1,0.8c0.1,0.1,0.1,0.2,0.2,0.4c0.2-0.6,0.3-1.3,0.2-2c-0.1-0.6-0.2-1.1-0.4-1.4
					c-0.3-0.4-0.7-0.7-1.1-0.8c-0.3-0.1-0.6-0.1-0.9-0.1c-0.1,0-0.2,0-0.4,0c-0.4,0.1-0.8,0.3-1.3,0.6c-0.4,0.4-0.8,1-1.1,1.8
					c-0.3,0.8-0.4,2-0.4,3.4C307.5,85,307.6,85.2,307.6,85.3z"/>
			</g>
			<g>
				<path class="st9" d="M172.9,97.7c-0.1,0-0.1-0.1-0.2-0.1c-0.1,0-0.2,0-0.3,0.1c-0.3,0.1-0.4,0.3-0.6,0.4c-0.9,1.8-1.6,4-2.2,6.7
					c-0.6,2.8-1.1,5.7-1.5,8.7c-0.4,3-0.9,6-1.3,8.9c-0.4,3-1.1,5.6-1.9,7.7c-0.7,1.9-1.3,3.2-2.1,4c-0.8,0.9-1.8,1.3-2.8,1.3
					c-0.3,0-0.6-0.1-0.9-0.1c-1.1-0.3-2-1.1-2.7-2.6c-0.6-1-1-2.1-1.3-3.6c-0.8-2.5-1.3-5.3-1.4-8.2c-0.1-2.4-0.2-4.9-0.2-7.3
					c0,0.6,0,1.3,0,1.9c0,2.8,0.1,5.7,0.2,8.5c0.1,3,0.7,5.7,1.4,8.2c0.4,1.3,0.8,2.6,1.3,3.6c0.8,1.3,1.6,2.2,2.7,2.6
					c0.3,0.1,0.6,0.1,0.9,0.1c1,0,2-0.4,2.8-1.3c0.8-0.8,1.4-2.1,2.1-4c0.8-2.1,1.4-4.8,1.9-7.7c0.4-2.9,1-5.9,1.3-8.9
					c0.4-3,1-5.9,1.5-8.7c0.6-2.7,1.3-4.9,2.2-6.7c0.1-0.1,0.1-0.2,0.6-0.4c0.1-0.1,0.2-0.1,0.3-0.1s0.1,0,0.2,0.1
					c0.1,0.1,0.2,0.1,0.3,0.3c0.1-0.7,0.1-1.4,0.2-2.1c0-0.3,0-0.6-0.1-0.8C173.2,97.9,173.1,97.8,172.9,97.7z"/>
			</g>
			<g>
				<path class="st9" d="M292.5,93.8c-0.8-2-1.8-4.2-2.7-6.2c-1-2-2.1-3.9-3.4-5.6c-1.1-1.6-2.3-2.8-3.6-3.7
					c-0.4-0.3-0.8-0.4-1.1-0.4c-0.1,0-0.1,0-0.1,0c-0.4,0.1-0.8,0.2-1.2,0.6c-0.4,0.4-0.6,0.8-0.8,1.3c-0.1,0.4-0.1,1,0.1,1.5
					c0.1,0.1,0.1,0.2,0.1,0.3c0.1,0.1,0.1,0.1,0.1,0.2c0.1-0.1,0.1-0.2,0.2-0.3c0.4-0.3,0.8-0.4,1.2-0.6c0.1,0,0.1,0,0.1,0
					c0.3,0,0.7,0.1,1.1,0.4c1.2,0.8,2.4,2,3.6,3.7c1.2,1.8,2.3,3.7,3.4,5.6c1,2,2,4.1,2.7,6.2c0.8,2,1.4,3.9,1.8,5.5
					c0.8,3,1.3,6,1.5,8.7c0.1-3.7-0.3-7.6-1.5-11.8C293.8,97.7,293.3,95.8,292.5,93.8z"/>
			</g>
			<g>
				<path class="st9" d="M348.4,110.4c-0.3-2.5-0.7-4.9-1.3-7.3c-0.6-2.3-1.2-4.6-2.1-6.4c-0.8-1.7-1.7-2.9-2.7-3.6
					c-0.6-0.4-1.3-0.6-2-0.6c-0.6,0-1.1,0.1-1.8,0.2c-1.2,0.3-3.4,1.3-6.8,4.4l-1.4,1.3l-1.4-1.3c-0.6-0.4-0.9-1-1.3-1.4
					c-0.1-0.2-0.4-0.4-0.6-0.6c0,0-0.1-0.1-0.2-0.1c0,0,0,0-0.1,0c-0.1,0-0.3,0-0.7,0.1H326c-0.3,0.1-0.4,0.1-0.6,0.3
					c-0.3,0.6-0.4,1.1-0.6,1.7c-0.1,1.4-0.4,3.1-0.7,5c-0.4,1.9-0.6,3.8-1,5.7c-0.3,1.9-0.6,3.8-0.8,5.6c-0.2,1.7-0.3,3-0.3,4.2
					c0,0.2,0.1,0.4,0.1,0.7c0.1-0.6,0.1-1.1,0.2-1.8c0.2-1.8,0.6-3.6,0.8-5.6c0.3-2,0.7-3.9,1-5.7c0.3-1.9,0.6-3.6,0.7-5
					c0.1-0.6,0.2-1.1,0.6-1.7c0.1-0.1,0.1-0.3,0.6-0.3h0.1c0.3-0.1,0.6-0.1,0.7-0.1c0.1,0,0.1,0,0.1,0c0.1,0,0.2,0.1,0.2,0.1
					c0.1,0.1,0.4,0.4,0.6,0.6c0.4,0.4,0.8,1,1.3,1.4l1.4,1.3l1.4-1.3c3.3-3.1,5.6-4.1,6.8-4.4c0.6-0.1,1.2-0.2,1.8-0.2
					c0.8,0,1.4,0.1,2,0.6c1.1,0.7,2,1.9,2.7,3.6c0.8,2,1.5,4.1,2.1,6.4c0.6,2.4,1,4.9,1.3,7.3c0.2,2.1,0.4,4,0.6,5.7l0,0
					c0.1-0.6,0.2-1.2,0.1-1.9C349,115.3,348.7,112.9,348.4,110.4z"/>
			</g>
			<g>
				<path class="st9" d="M245.9,118.6c-0.3-2.5-0.7-4.9-1.3-7.3c-0.6-2.3-1.3-4.6-2.1-6.4c-0.8-1.7-1.7-2.9-2.7-3.6
					c-0.6-0.4-1.3-0.6-2-0.6c-0.6,0-1.1,0.1-1.8,0.2c-1.2,0.3-3.4,1.3-6.8,4.4l-1.4,1.3l-1.4-1.3c-0.6-0.4-0.9-1-1.3-1.4
					c-0.1-0.2-0.4-0.4-0.6-0.6c0,0-0.1-0.1-0.2-0.1c0,0,0,0-0.1,0c-0.1,0-0.3,0-0.7,0.1h-0.1c-0.3,0.1-0.4,0.1-0.6,0.3
					c-0.3,0.6-0.4,1.1-0.6,1.7c-0.1,1.4-0.4,3.1-0.7,5c-0.3,1.9-0.6,3.8-1,5.7c-0.3,2-0.6,3.8-0.8,5.6c-0.2,1.7-0.3,3-0.3,4.2
					c0,0.2,0.1,0.4,0.1,0.7c0.1-0.6,0.1-1.1,0.2-1.8c0.2-1.8,0.6-3.6,0.8-5.6c0.3-2,0.7-3.9,1-5.7c0.3-1.9,0.6-3.6,0.7-5
					c0.1-0.6,0.2-1.1,0.6-1.7c0.1-0.1,0.1-0.3,0.6-0.3h0.1c0.3-0.1,0.6-0.1,0.7-0.1c0.1,0,0.1,0,0.1,0c0.1,0,0.2,0.1,0.2,0.1
					c0.1,0.1,0.4,0.4,0.6,0.6c0.4,0.4,0.8,1,1.3,1.4l1.4,1.3l1.4-1.3c3.3-3.1,5.6-4.1,6.8-4.4c0.6-0.1,1.2-0.2,1.8-0.2
					c0.8,0,1.5,0.1,2,0.6c1.1,0.7,2,1.9,2.7,3.6c0.8,2,1.5,4.1,2.1,6.4c0.6,2.4,1,4.9,1.3,7.3c0.2,2.1,0.4,4,0.6,5.7l0,0
					c0.1-0.6,0.2-1.2,0.1-1.9C246.4,123.4,246.2,121.2,245.9,118.6z"/>
			</g>
			<g>
				<path class="st9" d="M312.6,123.2l-1.3-0.6c0,0.6,0,1.1,0,1.6v1.4l1.3,0.6c1.1,0.4,1.6,0.8,2,1.1c0.4-0.4,0.6-1,0.6-1.4
					c0.1-0.4-0.1-0.8-0.4-1.3C314.6,124.2,314,123.6,312.6,123.2z"/>
			</g>
			<g>
				<path class="st9" d="M209,125.4c-0.2-0.1-0.6-0.1-0.8-0.1c-0.7,0-1.5,0.1-2.4,0.6c-1.6,0.6-3.2,1.2-4.9,1.8
					c-1.8,0.8-3.5,1.3-5,1.6c-0.8,0.1-1.5,0.2-2.3,0.2c-0.8,0-1.7-0.1-2.3-0.4c-0.8-0.3-2-1.1-2.4-3l-0.1,0.1v1.1
					c-0.1,3.2,1.6,4.4,2.7,4.8c0.7,0.2,1.5,0.4,2.3,0.4c0.7,0,1.4-0.1,2.3-0.2c1.5-0.3,3.2-0.8,5-1.6c1.7-0.7,3.2-1.3,4.9-1.8
					c1-0.4,1.8-0.6,2.4-0.6c0.3,0,0.6,0,0.8,0.1c0.4,0.1,0.7,0.2,0.8,0.4c0.2-0.3,0.4-0.6,0.4-1c0.3-1,0.1-1.4,0-1.6
					C210.2,126.1,210,125.7,209,125.4z"/>
			</g>
			<g>
				<path class="st9" d="M208.5,101.6c-1.1-1.1-2.6-1.7-4.6-1.9c-0.7-0.1-1.3-0.1-2-0.1c-1.6,0-3.2,0.2-4.7,0.7
					c-2.2,0.6-4.2,1.6-6.1,2.9c-1.9,1.3-3.6,2.9-5.1,4.6c-1.5,1.8-2.8,3.7-3.8,5.8c-1,2-1.7,4.1-2,6.1c-0.3,1.6-0.4,3.1-0.2,4.6
					c0.1-0.6,0.1-1,0.2-1.5c0.4-2,1.1-4.2,2-6.1c1-2,2.3-3.9,3.8-5.8c1.5-1.8,3.2-3.3,5.1-4.6c1.8-1.3,3.9-2.3,6.1-2.9
					c1.5-0.4,3.1-0.7,4.7-0.7c0.6,0,1.3,0,2,0.1c2,0.2,3.5,0.9,4.6,1.9c1.1,1.1,1.9,2.3,2.3,3.9c0.1,0.3,0.1,0.6,0.1,0.8
					c0.2-1.3,0.1-2.7-0.1-3.9C210.4,103.9,209.6,102.7,208.5,101.6z"/>
			</g>
			<g>
				<path class="st9" d="M191.9,120.7c0.8,0.2,1.5,0.3,2.3,0.3c0.8,0,1.7-0.1,2.6-0.3c1.7-0.4,3.2-1.1,4.6-2c1.4-1,2.6-2.2,3.5-3.7
					c1-1.6,1.4-3.2,1.3-5l-0.1-1.1c-0.1,1.1-0.6,2-1.2,3c-0.9,1.4-2,2.7-3.5,3.7c-1.3,1-2.9,1.7-4.6,2c-0.9,0.2-1.8,0.3-2.6,0.3
					s-1.6-0.1-2.3-0.3l-1.1-0.3c-0.1,0.2-0.2,0.4-0.3,0.7l-0.8,2L191.9,120.7z"/>
			</g>
		</g>
	</g>
</g>
</svg>
