<?xml version="1.0" encoding="utf-8"?>
<!-- Generator: Adobe Illustrator 27.9.1, SVG Export Plug-In . SVG Version: 6.00 Build 0)  -->
<svg version="1.1" id="Layer_1" xmlns="http://www.w3.org/2000/svg" xmlns:xlink="http://www.w3.org/1999/xlink" x="0px" y="0px"
	 viewBox="0 0 441.4 473.5" style="enable-background:new 0 0 441.4 473.5;" xml:space="preserve">
<style type="text/css">
	.st0{fill:#0D0D0D;}
	.st1{fill:#CD2328;}
	.st2{fill:#8E192F;}
	.st3{fill:#B62225;}
	.st4{fill:#E93B48;}
	.st5{fill:#EC626C;}
	.st6{fill:#EA5661;}
	.st7{fill:#B31F36;}
	.st8{fill:#8B6271;}
	.st9{fill:#FFFFFF;}
	.st10{fill:#F8F6F1;}
	.st11{fill:#606161;}
	.st12{opacity:0.15;}
	.st13{fill:#6D1628;}
	.st14{fill:#F26866;}
	.st15{fill:#232121;}
	.st16{fill:#CFDCDC;}
	.st17{fill:#0E0E0E;}
	.st18{fill:#F4ECE5;}
	.st19{fill:#CB832A;}
	.st20{fill:#FFCD05;}
	.st21{fill:#911F36;}
	.st22{fill:#F9F8F2;}
	.st23{fill:none;}
	.st24{fill:#54121D;}
	.st25{fill:#4A77A8;}
	.st26{fill:#84827E;}
	.st27{fill:#6B6B6B;}
	.st28{fill:#65A042;}
	.st29{fill:#B8CACD;}
	.st30{fill:#B21F37;}
	.st31{fill:#215483;}
	.st32{fill:#D6D5D2;}
	.st33{fill:#FECE43;}
	.st34{opacity:0.49;fill:#B21F37;enable-background:new    ;}
	.st35{fill:#4B78A9;}
	.st36{fill:#8F2438;}
	.st37{fill:#ABB4CE;}
	.st38{fill:#DEE2F2;}
	.st39{fill:#666666;}
	.st40{fill:#F26966;}
	.st41{fill:#999999;}
	.st42{opacity:0.38;fill:#FFFFFF;enable-background:new    ;}
	.st43{fill:#0D0F10;}
	.st44{fill:#4F5051;}
	.st45{fill:#6B6C6C;}
	.st46{fill:#0C0B0A;}
	.st47{fill:#C3E2ED;}
	.st48{fill:#9FABB0;}
	.st49{clip-path:url(#SVGID_00000121268830284773655450000001895745185690953619_);fill:#FFCD05;}
	.st50{clip-path:url(#SVGID_00000121268830284773655450000001895745185690953619_);}
	.st51{fill:#FBEFD7;}
	.st52{fill:#B21F36;}
	.st53{fill:#170F09;}
	.st54{fill:#222221;}
	.st55{fill:#D89A53;}
	.st56{fill:#FDFDFD;}
	.st57{fill:#592A07;}
	.st58{fill:#B88346;}
	.st59{fill:#DBDADA;}
	.st60{fill:#383837;}
	.st61{fill:#804118;}
	.st62{fill:#646463;}
	.st63{fill:#E5AF73;}
	.st64{fill:#2D2D2C;}
	.st65{fill:#693309;}
	.st66{fill:#DB9D56;}
	.st67{fill:#613214;}
	.st68{fill:#FCCA1D;}
	.st69{fill:#8E1830;}
	.st70{fill:#FFDE83;}
	.st71{fill:#D1CDC5;}
	.st72{fill:#7F3211;}
	.st73{fill:#FCFCFC;}
	.st74{fill:#D6D5D5;}
	.st75{fill:#FCCD2A;}
	.st76{fill:#181516;}
	.st77{fill:#FBFBFB;}
	.st78{fill:#3F383B;}
	.st79{fill:#716E6D;}
	.st80{fill:#7A1E2F;}
	.st81{opacity:0.74;fill:#FFCCD6;enable-background:new    ;}
	.st82{fill:#CFCECE;}
	.st83{opacity:0.58;}
	.st84{fill:none;stroke:#000000;stroke-width:2;stroke-miterlimit:10;}
</style>
<g>
	<g>
		<g>
			<rect x="195" y="457" class="st15" width="10.8" height="4.9"/>
			<rect x="222.7" y="457" class="st15" width="10.8" height="4.9"/>
			<path class="st15" d="M29.4,461.9c-14.2,0-25.7-11.5-25.7-25.7V36.3c0-14.2,11.5-25.7,25.7-25.7h180.6
				c14.2,0,25.7,11.5,25.7,25.7v379.4c0,25.5-20.7,46.2-46.2,46.2H29.4z"/>
			<path class="st30" d="M189.4,451.9H29.4c-8.7,0-15.7-7-15.7-15.7V36.3c0-8.7,7-15.7,15.7-15.7h180.6c8.7,0,15.7,7,15.7,15.7
				v379.4C225.6,435.7,209.4,451.9,189.4,451.9z"/>
		</g>
		<polyline class="st46" points="104.2,468.3 110.6,473.5 109.7,468.3 		"/>
		<g>
			<path class="st15" d="M232.9,461.9c-14.2,0-25.7-11.5-25.7-25.7V36.3c0-14.2,11.5-25.7,25.7-25.7h180.6
				c14.2,0,25.7,11.5,25.7,25.7v379.4c0,25.5-20.7,46.2-46.2,46.2H232.9z"/>
			<path class="st30" d="M393,451.9H232.9c-8.7,0-15.7-7-15.7-15.7V36.3c0-8.7,7-15.7,15.7-15.7h180.6c8.7,0,15.7,7,15.7,15.7v379.4
				C429.2,435.7,413,451.9,393,451.9z"/>
		</g>
		<path class="st15" d="M3,471.5c-1.7,0-3-1.3-3-3V3c0-1.7,1.3-3,3-3h18.4c1.7,0,3,1.3,3,3v465.5c0,1.7-1.3,3-3,3H3z"/>
		
			<rect x="-215.6" y="231.6" transform="matrix(-1.836970e-16 1 -1 -1.836970e-16 247.9421 223.5579)" class="st38" width="455.5" height="8.4"/>
		<path class="st15" d="M205.8,471.5c-1.7,0-3-1.3-3-3V3c0-1.7,1.3-3,3-3h18.4c1.7,0,3,1.3,3,3v465.5c0,1.7-1.3,3-3,3H205.8z"/>
		
			<rect x="-12.8" y="231.6" transform="matrix(-1.836970e-16 1 -1 -1.836970e-16 450.744 20.7561)" class="st38" width="455.5" height="8.4"/>
		<path class="st15" d="M420,471.5c-1.7,0-3-1.3-3-3V3c0-1.7,1.3-3,3-3h18.4c1.7,0,3,1.3,3,3v465.5c0,1.7-1.3,3-3,3H420z"/>
		
			<rect x="201.4" y="231.6" transform="matrix(-1.836970e-16 1 -1 -1.836970e-16 664.9361 -193.4361)" class="st38" width="455.5" height="8.4"/>
		<rect x="186.3" y="441.8" class="st30" width="16.5" height="10.1"/>
		<rect x="396.2" y="451.9" class="st15" width="20.8" height="10"/>
		<rect x="396.2" y="441.9" class="st30" width="20.8" height="10"/>
	</g>
	<path class="st15" d="M47.9,424.8c-8.6,0-15.6-7-15.6-15.5V54.3c0-8.5,7-15.5,15.5-15.5h143.9c8.5,0,15.5,7,15.5,15.5v354.9
		c0,8.5-7,15.5-15.5,15.5H47.9z"/>
	<g>
		<path class="st31" d="M43,114.3c-2.7,0-4.9-1.6-4.9-3.5v-2.4c0-2,2.2-3.5,4.9-3.5h151.9c2.7,0,4.9,1.6,4.9,3.5v2.4
			c0,2-2.2,3.5-4.9,3.5H43z"/>
		<g>
			<path class="st15" d="M43,114c-4.1,0-7.4-2.4-7.4-5.3v-2.4c0-2.9,3.3-5.3,7.4-5.3h151.9c4.1,0,7.4,2.4,7.4,5.3v2.4
				c0,2.9-3.3,5.3-7.4,5.3H43z"/>
			<path class="st15" d="M43,112.3c-2.7,0-4.9-1.6-4.9-3.5v-2.4c0-2,2.2-3.5,4.9-3.5h151.9c2.7,0,4.9,1.6,4.9,3.5v2.4
				c0,2-2.2,3.5-4.9,3.5H43z"/>
			<path class="st9" d="M194.9,104.3H43c-1.6,0-3,0.9-3,2v2.4c0,1.1,1.4,2,3,2h151.9c1.6,0,3-0.9,3-2v-2.4
				C197.9,105.2,196.7,104.3,194.9,104.3z"/>
			<path class="st32" d="M194.9,108H43c-1.6,0-2.8-0.8-3-1.9v0.1v2.4c0,1.1,1.4,2,3,2h151.9c1.6,0,3-0.9,3-2v-2.4v-0.1
				C197.8,107.2,196.5,108,194.9,108z"/>
		</g>
	</g>
	<g>
		<path class="st31" d="M43.5,191.6c-2.6,0-4.8-1.6-4.8-3.5v-2.4c0-2,2.2-3.5,4.8-3.5h149.1c2.6,0,4.8,1.6,4.8,3.5v2.4
			c0,2-2.2,3.5-4.8,3.5H43.5z"/>
		<g>
			<path class="st15" d="M43.5,191.3c-4,0-7.2-2.4-7.2-5.3v-2.4c0-2.9,3.3-5.3,7.2-5.3h149.1c4,0,7.2,2.4,7.2,5.3v2.4
				c0,2.9-3.3,5.3-7.2,5.3H43.5z"/>
			<path class="st15" d="M43.5,189.6c-2.6,0-4.8-1.6-4.8-3.5v-2.4c0-2,2.2-3.5,4.8-3.5h149.1c2.6,0,4.8,1.6,4.8,3.5v2.4
				c0,2-2.2,3.5-4.8,3.5H43.5z"/>
			<path class="st9" d="M192.7,181.6H43.5c-1.6,0-2.9,0.9-2.9,2v2.4c0,1.1,1.3,2,2.9,2h149.1c1.6,0,2.9-0.9,2.9-2v-2.4
				C195.5,182.5,194.3,181.6,192.7,181.6z"/>
			<path class="st32" d="M192.7,185.3H43.5c-1.6,0-2.8-0.8-2.9-1.9v0.1v2.4c0,1.1,1.3,2,2.9,2h149.1c1.6,0,2.9-0.9,2.9-2v-2.4v-0.1
				C195.4,184.5,194.2,185.3,192.7,185.3z"/>
		</g>
	</g>
	<g>
		<path class="st31" d="M44.1,397.2c-2.5,0-4.6-1.6-4.6-3.5v-2.4c0-2,2.1-3.5,4.6-3.5h143c2.5,0,4.6,1.6,4.6,3.5v2.4
			c0,2-2.1,3.5-4.6,3.5H44.1z"/>
		<g>
			<path class="st15" d="M44.1,396.9c-3.8,0-6.9-2.4-6.9-5.3v-2.4c0-2.9,3.1-5.3,6.9-5.3h143c3.8,0,6.9,2.4,6.9,5.3v2.4
				c0,2.9-3.1,5.3-6.9,5.3H44.1z"/>
			<path class="st15" d="M44.1,395.2c-2.5,0-4.6-1.6-4.6-3.5v-2.4c0-2,2.1-3.5,4.6-3.5h143c2.5,0,4.6,1.6,4.6,3.5v2.4
				c0,2-2.1,3.5-4.6,3.5H44.1z"/>
			<path class="st9" d="M187.1,387.2h-143c-1.5,0-2.8,0.9-2.8,2v2.4c0,1.1,1.3,2,2.8,2h143c1.5,0,2.8-0.9,2.8-2v-2.4
				C189.9,388.1,188.7,387.2,187.1,387.2z"/>
			<path class="st32" d="M187.1,390.9h-143c-1.5,0-2.7-0.8-2.8-1.9v0.1v2.4c0,1.1,1.3,2,2.8,2h143c1.5,0,2.8-0.9,2.8-2v-2.4V389
				C189.7,390.1,188.6,390.9,187.1,390.9z"/>
		</g>
	</g>
	<g>
		<path class="st31" d="M44.1,319.1c-2.5,0-4.6-1.6-4.6-3.5v-2.4c0-2,2.1-3.5,4.6-3.5h143c2.5,0,4.6,1.6,4.6,3.5v2.4
			c0,2-2.1,3.5-4.6,3.5H44.1z"/>
		<g>
			<path class="st15" d="M44.1,318.8c-3.8,0-6.9-2.4-6.9-5.3v-2.4c0-2.9,3.1-5.3,6.9-5.3h143c3.8,0,6.9,2.4,6.9,5.3v2.4
				c0,2.9-3.1,5.3-6.9,5.3H44.1z"/>
			<path class="st15" d="M44.1,317.1c-2.5,0-4.6-1.6-4.6-3.5v-2.4c0-2,2.1-3.5,4.6-3.5h143c2.5,0,4.6,1.6,4.6,3.5v2.4
				c0,2-2.1,3.5-4.6,3.5H44.1z"/>
			<path class="st9" d="M187.1,309.1h-143c-1.5,0-2.8,0.9-2.8,2v2.4c0,1.1,1.3,2,2.8,2h143c1.5,0,2.8-0.9,2.8-2v-2.4
				C189.9,310,188.7,309.1,187.1,309.1z"/>
			<path class="st32" d="M187.1,312.8h-143c-1.5,0-2.7-0.8-2.8-1.9v0.1v2.4c0,1.1,1.3,2,2.8,2h143c1.5,0,2.8-0.9,2.8-2V311v-0.1
				C189.7,312,188.6,312.8,187.1,312.8z"/>
		</g>
	</g>
	<g>
		<g>
			<path class="st15" d="M86.8,56.6c-0.7-1.1-1.9-1.7-3.2-1.7c-0.5,0-1,0.1-1.5,0.4c-1.7,0.7-3.4,1.5-5.2,2.4
				c-1.3-1.1-2.5-2.2-3.6-3.2c-0.7-0.6-1.5-0.9-2.5-0.9s-1.8,0.4-2.5,1c-0.7,0.7-1.5,1.5-2.4,2.2C65.1,55.8,64,54.9,63,54
				c-0.6-0.5-1.5-0.9-2.4-0.9c-0.9,0-1.7,0.3-2.4,0.9c-1.2,1-2.2,1.9-3.3,2.7c-0.8-0.7-1.6-1.5-2.4-2.2c-0.6-0.6-1.5-1-2.5-1
				s-1.8,0.4-2.5,0.9c-1.1,1-2.4,2.1-3.6,3.2c-1.8-0.8-3.5-1.5-5.2-2.4c-0.5-0.2-1-0.4-1.5-0.4c-1.3,0-2.5,0.6-3.2,1.7
				c-0.5,0.9-0.7,2-0.5,3c0.4,1.3,0.7,2.5,1.1,3.8c0.4,1.2,1.4,2.1,2.5,2.5c6.8,1.6,14.2,3.4,22.3,5.4c0.3,0.1,0.5,0.1,0.9,0.1
				c0.3,0,0.5,0,0.9-0.1c8.2-1.9,15.5-3.6,22.4-5.4c1.3-0.3,2.2-1.2,2.5-2.5c0.4-1.3,0.7-2.5,1.1-3.8C87.6,58.6,87.4,57.6,86.8,56.6
				z"/>
			<path class="st9" d="M75.9,59.9c-1.4-1.2-2.8-2.5-4.2-3.6c-0.5-0.5-1.3-0.5-1.7,0c-1,1-2,1.9-3.1,2.9c-0.5,0.5-1.2,0.5-1.7,0
				c-1.4-1.1-2.6-2.3-4-3.4c-0.5-0.4-1.2-0.4-1.6,0c-1.3,1.1-2.6,2.3-4,3.4c-0.5,0.5-1.3,0.4-1.7,0c-1.1-1-2.1-1.9-3.1-2.9
				c-0.5-0.5-1.2-0.5-1.7,0c-1.4,1.2-2.7,2.5-4.2,3.6c-0.4,0.4-1,0.5-1.5,0.3c-2-0.9-3.9-1.7-5.8-2.6c-0.9-0.5-2.1,0.5-1.9,1.5
				c0.4,1.3,0.7,2.5,1.1,3.7c0.1,0.4,0.4,0.6,0.8,0.7c7.3,1.8,14.8,3.5,22.3,5.4c0.2,0.1,0.5,0.1,0.6,0c7.6-1.8,15.1-3.5,22.3-5.4
				c0.4-0.1,0.7-0.4,0.8-0.7c0.4-1.3,0.7-2.5,1.1-3.7c0.3-1-0.9-1.9-1.9-1.5c-1.9,0.9-3.8,1.7-5.8,2.6
				C76.8,60.4,76.2,60.2,75.9,59.9z"/>
			<path class="st15" d="M86.1,64.1L85.8,62H35l-0.3,2.1c-1.5,12.5-1.3,25.2,0.5,37.8l0.3,2h49.8l0.3-2
				C87.4,89.3,87.6,76.6,86.1,64.1z"/>
			<path class="st30" d="M83.2,101.6c-15.2,0-30.4,0-45.6,0c-1.7-12.3-1.9-24.9-0.5-37.2c15.5,0,31,0,46.5,0
				C85.1,76.7,84.9,89.2,83.2,101.6z"/>
			<path class="st36" d="M83.7,64.4c-0.2,0-0.5,0-0.6,0c1.1,9-1.8,18.9-3.4,28c-0.4,1.9-2.2,3.4-4.3,3.4c-9.9,0-19.8,0-29.7,0
				c-2.1,0-3.9-1.4-4.3-3.3c-1.7-9.2-5.2-19.2-4.1-28.1c-1.5,12.3-1.3,24.9,0.5,37.2c15.2,0,30.4,0,45.6,0
				C84.9,89.2,85.1,76.7,83.7,64.4z"/>
		</g>
		<path class="st15" d="M60.3,71.3c-8.2,0-15.1,4.7-15.2,10.3c0.1,5.6,7,10.3,15.2,10.3l0,0c8.2,0,15.1-4.7,15.2-10.3
			C75.4,76,68.5,71.3,60.3,71.3z"/>
		<path class="st9" d="M73,81.6c-0.1,4.4-6.2,8-12.7,8s-12.6-3.5-12.7-8c0.1-4.4,6.2-8,12.7-8C66.9,73.5,73,77.2,73,81.6z"/>
	</g>
	<g>
		<g>
			<path class="st15" d="M144.2,56.6c-0.7-1.1-1.9-1.7-3.2-1.7c-0.5,0-1,0.1-1.5,0.4c-1.7,0.7-3.4,1.5-5.2,2.4
				c-1.3-1.1-2.5-2.2-3.6-3.2c-0.7-0.6-1.5-0.9-2.5-0.9c-0.9,0-1.8,0.4-2.5,1c-0.7,0.7-1.5,1.5-2.4,2.2c-1.1-0.9-2.2-1.9-3.2-2.7
				c-0.6-0.5-1.5-0.9-2.4-0.9c-0.9,0-1.7,0.3-2.4,0.9c-1.2,1-2.2,1.9-3.3,2.7c-0.8-0.7-1.6-1.5-2.4-2.2c-0.6-0.6-1.5-1-2.5-1
				c-0.9,0-1.8,0.4-2.5,0.9c-1.2,1-2.4,2.1-3.6,3.2c-1.8-0.8-3.5-1.5-5.2-2.4c-0.5-0.2-1-0.4-1.5-0.4c-1.3,0-2.5,0.6-3.2,1.7
				c-0.5,0.9-0.7,2-0.5,3c0.4,1.3,0.7,2.5,1.1,3.8c0.4,1.2,1.4,2.1,2.5,2.5c6.8,1.6,14.2,3.4,22.4,5.4c0.3,0.1,0.5,0.1,0.9,0.1
				c0.3,0,0.5,0,0.9-0.1c8.3-1.9,15.5-3.6,22.4-5.4c1.3-0.3,2.2-1.2,2.5-2.5c0.4-1.3,0.7-2.5,1.1-3.8
				C144.9,58.6,144.8,57.6,144.2,56.6z"/>
			<path class="st9" d="M133.2,59.9c-1.4-1.2-2.8-2.5-4.2-3.6c-0.5-0.5-1.3-0.5-1.7,0c-1,1-2,1.9-3.1,2.9c-0.5,0.5-1.2,0.5-1.7,0
				c-1.4-1.1-2.6-2.3-4-3.4c-0.5-0.4-1.2-0.4-1.6,0c-1.3,1.1-2.6,2.3-4,3.4c-0.5,0.5-1.3,0.4-1.7,0c-1.1-1-2.1-1.9-3.1-2.9
				c-0.5-0.5-1.2-0.5-1.7,0c-1.4,1.2-2.7,2.5-4.2,3.6c-0.4,0.4-1,0.5-1.5,0.3c-2-0.9-3.9-1.7-5.8-2.6C94,57.1,92.8,58,93,59
				c0.4,1.3,0.7,2.5,1.1,3.7c0.1,0.4,0.4,0.6,0.8,0.7c7.3,1.8,14.8,3.5,22.3,5.4c0.2,0.1,0.5,0.1,0.6,0c7.6-1.8,15.1-3.5,22.3-5.4
				c0.4-0.1,0.7-0.4,0.8-0.7c0.4-1.3,0.7-2.5,1.1-3.7c0.3-1-0.9-1.9-1.9-1.5c-1.9,0.9-3.8,1.7-5.8,2.6
				C134.2,60.4,133.6,60.2,133.2,59.9z"/>
			<path class="st15" d="M143.5,64.1l-0.3-2.1H92.4l-0.3,2.1c-1.5,12.5-1.3,25.2,0.5,37.8l0.3,2h49.8l0.3-2
				C144.9,89.3,144.9,76.6,143.5,64.1z"/>
			<path class="st33" d="M140.7,101.6c-15.2,0-30.4,0-45.6,0c-1.7-12.3-1.9-24.9-0.5-37.2c15.5,0,31,0,46.5,0
				C142.5,76.7,142.4,89.2,140.7,101.6z"/>
			<path class="st34" d="M141,64.4c-0.2,0-0.5,0-0.6,0c1.1,9-1.8,18.9-3.4,28c-0.4,1.9-2.2,3.4-4.3,3.4c-9.9,0-19.8,0-29.7,0
				c-2.1,0-3.9-1.4-4.3-3.3c-1.7-9.2-5.2-19.2-4.1-28.1c-1.5,12.3-1.3,24.9,0.5,37.2c15.2,0,30.4,0,45.6,0
				C142.4,89.2,142.5,76.7,141,64.4z"/>
		</g>
		<path class="st15" d="M117.7,71.3c-8.2,0-15.1,4.7-15.2,10.3c0.1,5.6,7,10.3,15.2,10.3l0,0c8.2,0,15.1-4.7,15.2-10.3
			C132.8,76,125.9,71.3,117.7,71.3z"/>
		<path class="st9" d="M130.4,81.6c-0.1,4.4-6.2,8-12.7,8s-12.6-3.5-12.7-8c0.1-4.4,6.2-8,12.7-8C124.3,73.5,130.4,77.2,130.4,81.6z
			"/>
	</g>
	<g>
		<g>
			<path class="st15" d="M201.9,56.6c-0.7-1.1-1.9-1.7-3.2-1.7c-0.5,0-1,0.1-1.5,0.4c-1.7,0.7-3.4,1.5-5.2,2.4
				c-1.3-1.1-2.5-2.2-3.6-3.2c-0.7-0.6-1.5-0.9-2.5-0.9c-0.9,0-1.8,0.4-2.5,1c-0.7,0.7-1.5,1.5-2.4,2.2c-1.1-0.9-2.2-1.9-3.2-2.7
				c-0.6-0.5-1.5-0.9-2.4-0.9c-0.9,0-1.7,0.3-2.4,0.9c-1.2,1-2.2,1.9-3.3,2.7c-0.8-0.7-1.6-1.5-2.4-2.2c-0.6-0.6-1.5-1-2.5-1
				c-0.9,0-1.8,0.4-2.5,0.9c-1.2,1-2.4,2.1-3.6,3.2c-1.8-0.8-3.5-1.5-5.2-2.4c-0.5-0.2-1-0.4-1.5-0.4c-1.3,0-2.5,0.6-3.2,1.7
				c-0.5,0.9-0.7,2-0.5,3c0.4,1.3,0.7,2.5,1.1,3.8c0.4,1.2,1.4,2.1,2.5,2.5c6.8,1.6,14.2,3.4,22.4,5.4c0.3,0.1,0.5,0.1,0.9,0.1
				c0.3,0,0.5,0,0.9-0.1c8.3-1.9,15.5-3.6,22.4-5.4c1.3-0.3,2.2-1.2,2.5-2.5c0.4-1.3,0.7-2.5,1.1-3.8
				C202.6,58.6,202.5,57.6,201.9,56.6z"/>
			<path class="st9" d="M190.9,59.9c-1.4-1.2-2.8-2.5-4.2-3.6c-0.5-0.5-1.3-0.5-1.7,0c-1,1-2,1.9-3.1,2.9c-0.5,0.5-1.2,0.5-1.7,0
				c-1.4-1.1-2.6-2.3-4-3.4c-0.5-0.4-1.2-0.4-1.6,0c-1.3,1.1-2.6,2.3-4,3.4c-0.5,0.5-1.3,0.4-1.7,0c-1.1-1-2.1-1.9-3.1-2.9
				c-0.5-0.5-1.2-0.5-1.7,0c-1.4,1.2-2.7,2.5-4.2,3.6c-0.4,0.4-1,0.5-1.5,0.3c-2-0.9-3.9-1.7-5.8-2.6c-0.9-0.5-2.1,0.5-1.9,1.5
				c0.4,1.3,0.7,2.5,1.1,3.7c0.1,0.4,0.4,0.6,0.8,0.7c7.3,1.8,14.8,3.5,22.3,5.4c0.2,0.1,0.5,0.1,0.6,0c7.6-1.8,15.1-3.5,22.3-5.4
				c0.4-0.1,0.7-0.4,0.8-0.7c0.4-1.3,0.7-2.5,1.1-3.7c0.3-1-0.9-1.9-1.9-1.5c-1.9,0.9-3.8,1.7-5.8,2.6
				C191.9,60.4,191.3,60.2,190.9,59.9z"/>
			<path class="st15" d="M201.2,64.1l-0.3-2.1h-50.8l-0.3,2.1c-1.5,12.5-1.3,25.2,0.5,37.8l0.3,2h49.8l0.3-2
				C202.5,89.3,202.6,76.6,201.2,64.1z"/>
			<path class="st35" d="M198.4,101.6c-15.2,0-30.4,0-45.6,0c-1.7-12.3-1.9-24.9-0.5-37.2c15.5,0,31,0,46.5,0
				C200.2,76.7,200.1,89.2,198.4,101.6z"/>
			<path class="st31" d="M198.7,64.4c-0.2,0-0.5,0-0.6,0c1.1,9-1.8,18.9-3.4,28c-0.4,1.9-2.2,3.4-4.3,3.4c-9.9,0-19.8,0-29.7,0
				c-2.1,0-3.9-1.4-4.3-3.3c-1.7-9.2-5.2-19.2-4.1-28.1c-1.5,12.3-1.3,24.9,0.5,37.2c15.2,0,30.4,0,45.6,0
				C200.1,89.2,200.2,76.7,198.7,64.4z"/>
		</g>
		<path class="st15" d="M175.4,71.3c-8.2,0-15.1,4.7-15.2,10.3c0.1,5.6,7,10.3,15.2,10.3l0,0c8.2,0,15.1-4.7,15.2-10.3
			C190.5,76,183.6,71.3,175.4,71.3z"/>
		<path class="st9" d="M188.1,81.6c-0.1,4.4-6.2,8-12.7,8c-6.5,0-12.6-3.5-12.7-8c0.1-4.4,6.2-8,12.7-8
			C182,73.5,188.1,77.2,188.1,81.6z"/>
	</g>
	<g>
		<g>
			<path class="st15" d="M145.9,135.7c0.4,1.3,0.7,2.5,1.1,3.8c0.4,1.3,1.3,2.2,2.5,2.5c6.9,1.7,14.3,3.4,22.4,5.4
				c0.4,0.1,0.6,0.1,0.9,0.1c0.4,0,0.6,0,0.9-0.1c8.2-1.9,15.5-3.7,22.3-5.4c1.2-0.4,2.2-1.3,2.5-2.5c0.4-1.3,0.7-2.5,1.1-3.8
				c0.3-1,0.1-2.1-0.5-3c-0.7-1.1-1.9-1.7-3.2-1.7c-0.5,0-1,0.2-1.5,0.4c-1.6,0.8-3.4,1.5-5.2,2.4c-1.3-1.1-2.5-2.2-3.6-3.2
				c-0.6-0.5-1.5-0.9-2.5-0.9c-0.9,0-1.8,0.4-2.5,1c-0.7,0.7-1.5,1.5-2.4,2.2c-1.1-0.8-2.1-1.7-3.3-2.7c-0.6-0.6-1.5-0.9-2.4-0.9
				c-0.8,0-1.7,0.4-2.4,0.9c-1,0.9-2.1,1.8-3.2,2.7c-0.8-0.7-1.6-1.5-2.4-2.2c-0.6-0.6-1.5-1-2.5-1c-0.9,0-1.7,0.3-2.5,0.9
				c-1.2,1-2.4,2.1-3.6,3.2c-1.7-0.8-3.4-1.6-5.2-2.4c-0.5-0.3-0.9-0.4-1.5-0.4c-1.3,0-2.5,0.6-3.2,1.7
				C146.2,133.6,146,134.7,145.9,135.7z"/>
			<path class="st9" d="M156.5,136.2c-2-0.9-3.9-1.7-5.8-2.6c-1-0.5-2.2,0.5-1.9,1.5c0.4,1.2,0.7,2.5,1.1,3.7
				c0.1,0.4,0.5,0.6,0.8,0.7c7.3,1.8,14.7,3.5,22.3,5.4c0.2,0.1,0.5,0.1,0.6,0c7.5-1.8,15.1-3.5,22.3-5.4c0.5-0.1,0.7-0.4,0.8-0.7
				c0.4-1.2,0.7-2.5,1.1-3.7c0.2-1-1-1.9-1.9-1.5c-1.9,0.9-3.8,1.7-5.8,2.6c-0.5,0.2-1.1,0.1-1.5-0.3c-1.5-1.2-2.8-2.5-4.2-3.6
				c-0.5-0.5-1.3-0.5-1.7,0c-1,1-2,1.9-3.1,2.9c-0.5,0.4-1.3,0.5-1.7,0c-1.4-1.1-2.7-2.3-4-3.4c-0.5-0.4-1.2-0.4-1.6,0
				c-1.4,1.1-2.6,2.3-4,3.4c-0.5,0.5-1.3,0.5-1.7,0c-1.1-1-2.1-1.9-3.1-2.9c-0.5-0.5-1.2-0.5-1.7,0c-1.4,1.2-2.8,2.5-4.2,3.6
				C157.3,136.2,156.8,136.4,156.5,136.2z"/>
			<path class="st15" d="M148,177.9l0.3,2h49.8l0.3-2c1.7-12.5,1.9-25.2,0.5-37.8l-0.3-2.1h-50.8l-0.3,2.1
				C146,152.6,146.2,165.3,148,177.9z"/>
			<path class="st30" d="M149.9,140.4c15.5,0,31,0,46.5,0c1.5,12.3,1.3,24.9-0.5,37.2c-15.2,0-30.4,0-45.6,0
				C148.6,165.2,148.4,152.7,149.9,140.4z"/>
			<path class="st36" d="M150.3,177.6c15.2,0,30.4,0,45.6,0c1.7-12.3,1.9-24.9,0.5-37.2c1.1,9-2.4,19-4.1,28.1
				c-0.4,1.9-2.2,3.3-4.3,3.3c-9.9,0-19.8,0-29.7,0c-2.1,0-3.9-1.5-4.3-3.4c-1.6-9.2-4.5-19.1-3.4-28c-0.2,0-0.5,0-0.6,0
				C148.4,152.7,148.6,165.2,150.3,177.6z"/>
		</g>
		<path class="st15" d="M158.1,157.6c0.1,5.6,7,10.3,15.2,10.3l0,0c8.2,0,15.1-4.7,15.2-10.3c-0.1-5.6-7-10.3-15.2-10.3
			C165.1,147.3,158.2,152,158.1,157.6z"/>
		<path class="st9" d="M173.2,149.6c6.5,0,12.6,3.5,12.7,8c-0.1,4.4-6.2,8-12.7,8c-6.5,0-12.6-3.5-12.7-8
			C160.6,153.2,166.7,149.5,173.2,149.6z"/>
	</g>
	<g>
		<g>
			<path class="st15" d="M89.6,135.7c0.4,1.3,0.7,2.5,1.1,3.8c0.4,1.3,1.3,2.2,2.5,2.5c6.9,1.7,14.2,3.4,22.4,5.4
				c0.4,0.1,0.6,0.1,0.9,0.1c0.4,0,0.6,0,0.9-0.1c8.3-1.9,15.6-3.7,22.4-5.4c1.2-0.4,2.2-1.3,2.5-2.5c0.4-1.3,0.7-2.5,1.1-3.8
				c0.3-1,0.1-2.1-0.5-3c-0.7-1.1-1.9-1.7-3.2-1.7c-0.5,0-1,0.2-1.5,0.4c-1.6,0.8-3.4,1.5-5.2,2.4c-1.3-1.1-2.5-2.2-3.6-3.2
				c-0.6-0.5-1.5-0.9-2.5-0.9c-0.9,0-1.8,0.4-2.5,1c-0.7,0.7-1.5,1.5-2.4,2.2c-1.1-0.8-2.1-1.7-3.3-2.7c-0.6-0.6-1.5-0.9-2.4-0.9
				c-0.8,0-1.7,0.4-2.4,0.9c-1,0.8-2.1,1.8-3.2,2.7c-0.8-0.7-1.6-1.5-2.4-2.2c-0.6-0.6-1.5-1-2.5-1s-1.7,0.3-2.5,0.9
				c-1.2,1-2.4,2.1-3.6,3.2c-1.7-0.8-3.4-1.6-5.2-2.4c-0.5-0.3-0.9-0.4-1.5-0.4c-1.3,0-2.5,0.6-3.2,1.7
				C90,133.6,89.8,134.7,89.6,135.7z"/>
			<path class="st9" d="M100.3,136.2c-2-0.9-3.9-1.7-5.8-2.6c-1-0.5-2.2,0.5-1.9,1.5c0.4,1.2,0.7,2.5,1.1,3.7
				c0.1,0.4,0.5,0.6,0.8,0.7c7.3,1.8,14.7,3.5,22.3,5.4c0.2,0.1,0.5,0.1,0.6,0c7.5-1.8,15.1-3.5,22.3-5.4c0.5-0.1,0.7-0.4,0.8-0.7
				c0.4-1.2,0.7-2.5,1.1-3.7c0.2-1-1-1.9-1.9-1.5c-1.9,0.9-3.8,1.7-5.8,2.6c-0.5,0.2-1.1,0.1-1.5-0.3c-1.5-1.2-2.8-2.5-4.2-3.6
				c-0.5-0.5-1.3-0.5-1.7,0c-1,1-2,1.9-3.1,2.9c-0.5,0.4-1.3,0.5-1.7,0c-1.4-1.1-2.7-2.3-4-3.4c-0.5-0.4-1.2-0.4-1.6,0
				c-1.4,1.1-2.6,2.3-4,3.4c-0.5,0.5-1.3,0.5-1.7,0c-1.1-1-2.1-1.9-3.1-2.9c-0.5-0.5-1.2-0.5-1.7,0c-1.4,1.2-2.8,2.5-4.2,3.6
				C101.1,136.2,100.5,136.4,100.3,136.2z"/>
			<path class="st15" d="M91.8,177.9l0.3,2h49.8l0.3-2c1.7-12.5,1.9-25.2,0.5-37.8l-0.3-2.1H91.5l-0.3,2.1
				C89.8,152.6,89.9,165.3,91.8,177.9z"/>
			<path class="st35" d="M93.6,140.4c15.5,0,31,0,46.5,0c1.5,12.3,1.3,24.9-0.5,37.2c-15.2,0-30.4,0-45.6,0
				C92.3,165.2,92.2,152.7,93.6,140.4z"/>
			<path class="st31" d="M94.1,177.6c15.2,0,30.4,0,45.6,0c1.7-12.3,1.9-24.9,0.5-37.2c1.1,9-2.4,19-4.1,28.1
				c-0.4,1.9-2.2,3.3-4.3,3.3c-9.9,0-19.8,0-29.7,0c-2.1,0-3.9-1.5-4.3-3.4c-1.6-9.2-4.5-19.1-3.4-28c-0.2,0-0.5,0-0.6,0
				C92.2,152.7,92.3,165.2,94.1,177.6z"/>
		</g>
		<path class="st15" d="M101.9,157.6c0.1,5.6,7,10.3,15.2,10.3l0,0c8.2,0,15.1-4.7,15.2-10.3c-0.1-5.6-7-10.3-15.2-10.3
			S102,152,101.9,157.6z"/>
		<path class="st9" d="M117,149.6c6.5,0,12.6,3.5,12.7,8c-0.1,4.4-6.2,8-12.7,8s-12.6-3.5-12.7-8C104.3,153.2,110.4,149.5,117,149.6
			z"/>
	</g>
	<g>
		<g>
			<path class="st15" d="M35.6,135.7c0.4,1.3,0.7,2.5,1.1,3.8s1.3,2.2,2.5,2.5c6.9,1.7,14.2,3.4,22.4,5.4c0.4,0.1,0.6,0.1,0.9,0.1
				c0.4,0,0.6,0,0.9-0.1c8.3-1.9,15.6-3.7,22.4-5.4c1.2-0.4,2.2-1.3,2.5-2.5c0.4-1.3,0.7-2.5,1.1-3.8c0.3-1,0.1-2.1-0.5-3
				c-0.7-1.1-1.9-1.7-3.2-1.7c-0.5,0-1,0.2-1.5,0.4c-1.6,0.8-3.4,1.5-5.2,2.4c-1.3-1.1-2.5-2.2-3.6-3.2c-0.6-0.5-1.5-0.9-2.5-0.9
				s-1.8,0.4-2.5,1c-0.7,0.7-1.5,1.5-2.4,2.2c-1.1-0.8-2.1-1.7-3.3-2.7c-0.6-0.6-1.5-0.9-2.4-0.9c-0.8,0-1.7,0.4-2.4,0.9
				c-1,0.8-2.1,1.8-3.2,2.7c-0.8-0.7-1.6-1.5-2.4-2.2c-0.6-0.6-1.5-1-2.5-1c-0.9,0-1.7,0.3-2.5,0.9c-1.2,1-2.4,2.1-3.6,3.2
				c-1.7-0.8-3.4-1.6-5.2-2.4c-0.5-0.3-0.9-0.4-1.5-0.4c-1.3,0-2.5,0.6-3.2,1.7C35.9,133.6,35.8,134.7,35.6,135.7z"/>
			<path class="st9" d="M46.3,136.2c-2-0.9-3.9-1.7-5.8-2.6c-1-0.5-2.2,0.5-1.9,1.5c0.4,1.2,0.7,2.5,1.1,3.7
				c0.1,0.4,0.5,0.6,0.8,0.7c7.3,1.8,14.7,3.5,22.3,5.4c0.2,0.1,0.5,0.1,0.6,0c7.5-1.8,15.1-3.5,22.3-5.4c0.5-0.1,0.7-0.4,0.8-0.7
				c0.4-1.2,0.7-2.5,1.1-3.7c0.2-1-1-1.9-1.9-1.5c-1.9,0.9-3.8,1.7-5.8,2.6c-0.5,0.2-1.1,0.1-1.5-0.3c-1.5-1.2-2.8-2.5-4.2-3.6
				c-0.5-0.5-1.3-0.5-1.7,0c-1,1-2,1.9-3.1,2.9c-0.5,0.4-1.3,0.5-1.7,0c-1.4-1.1-2.7-2.3-4-3.4c-0.5-0.4-1.2-0.4-1.6,0
				c-1.4,1.1-2.6,2.3-4,3.4c-0.5,0.5-1.3,0.5-1.7,0c-1.1-1-2.1-1.9-3.1-2.9c-0.5-0.5-1.2-0.5-1.7,0c-1.4,1.2-2.8,2.5-4.2,3.6
				C47.1,136.2,46.5,136.4,46.3,136.2z"/>
			<path class="st15" d="M37.8,177.9l0.3,2h49.8l0.3-2c1.7-12.5,1.9-25.2,0.5-37.8l-0.3-2.1H37.5l-0.3,2.1
				C35.8,152.6,35.8,165.3,37.8,177.9z"/>
			<path class="st33" d="M39.6,140.4c15.5,0,31,0,46.5,0c1.5,12.3,1.3,24.9-0.5,37.2c-15.2,0-30.4,0-45.6,0
				C38.3,165.2,38.2,152.7,39.6,140.4z"/>
			<path class="st34" d="M40,177.6c15.2,0,30.4,0,45.6,0c1.7-12.3,1.9-24.9,0.5-37.2c1.1,9-2.4,19-4.1,28.1
				c-0.4,1.9-2.2,3.3-4.3,3.3c-9.9,0-19.8,0-29.7,0c-2.1,0-3.9-1.5-4.3-3.4c-1.6-9.2-4.5-19.1-3.4-28c-0.2,0-0.5,0-0.6,0
				C38.2,152.7,38.3,165.2,40,177.6z"/>
		</g>
		<path class="st15" d="M47.8,157.6c0.1,5.6,7,10.3,15.2,10.3l0,0c8.2,0,15.1-4.7,15.2-10.3c-0.1-5.6-7-10.3-15.2-10.3
			S47.9,152,47.8,157.6z"/>
		<path class="st9" d="M63,149.6c6.5,0,12.6,3.5,12.7,8c-0.1,4.4-6.2,8-12.7,8s-12.6-3.5-12.7-8C50.3,153.2,56.4,149.5,63,149.6z"/>
	</g>
	<g>
		<g>
			<g>
				<g>
					<path class="st15" d="M79.6,353.2c-0.8,0.2-1.5,0.1-2.2,0c-3.3-0.5-6.7-1.2-10.4-1.8c-0.7-0.1-1.2-0.3-1.8-0.6s-1-0.7-1.5-1.1
						c-2.3-2.5-4.4-4.8-6.3-7c-0.8-0.8-1.1-1.8-1.1-2.9c0-0.9,0.1-1.7,0.1-2.5c0.1-1.6,1.1-3.1,2.6-3.9c0.6-0.3,1.2-0.5,1.8-0.6
						c1.5-0.3,3-0.1,4.3,0.6c0.6,0.3,1.2,0.7,1.6,1.3c0.6,0.8,1.3,1.6,2,2.5c0.8-0.2,1.5-0.6,2.2-0.8c0.2-0.1,0.6-0.2,0.8-0.3
						c1.4-0.3,2.9-0.1,4.1,0.5c1.6,0.8,2.6,2.3,2.6,4.1c0,0.5,0,1,0,1.5c1.2,0.1,2.3,0.3,3.5,0.5c0.7,0.1,1.4,0.3,2,0.7
						c2,1,3,3.1,2.5,5.1c-0.3,1.5-1.5,2.9-3.2,3.5c-0.9,0.4-1.9,0.7-2.8,1.1C80.3,353,79.9,353.1,79.6,353.2z"/>
					<path class="st33" d="M74.5,344c0-1.1-0.1-2.1,0-3.2c0-0.9-1.3-1.6-2.4-1.2c-1.2,0.4-2.4,0.8-3.7,1.3c-0.8,0.2-1.7,0-2.2-0.6
						c-1-1.2-1.9-2.3-2.8-3.5c-0.8-1-3-0.8-3.1,0.3c0,0.8-0.1,1.6-0.1,2.5c0,0.3,0.1,0.5,0.3,0.7c2,2.3,4.1,4.6,6.2,6.9
						c0.3,0.3,0.7,0.6,1.2,0.7c3.5,0.6,7,1.2,10.3,1.8c0.4,0,0.6,0.1,1-0.1c0.9-0.4,1.8-0.7,2.7-1.1c1.2-0.5,0.6-2.2-0.9-2.3
						c-1.7-0.2-3.3-0.4-5-0.7C75.2,345.3,74.6,344.7,74.5,344z"/>
					<path class="st15" d="M55.8,386.6c-1.5,0.3-3,0.1-4.3-0.6c-0.6-0.3-1.2-0.7-1.6-1.3c-0.6-0.8-1.3-1.6-2-2.5
						c-0.8,0.2-1.5,0.5-2.2,0.8c-0.2,0.1-0.6,0.2-0.8,0.3c-1.4,0.3-2.9,0.1-4.1-0.5c-1.6-0.8-2.6-2.3-2.6-4.1c0-0.5,0-1,0-1.5
						c-1.2-0.1-2.3-0.3-3.5-0.5c-0.7-0.1-1.4-0.3-2-0.7c-2-1-3-3.1-2.5-5.1c0.3-1.5,1.5-2.9,3.2-3.5c0.9-0.4,1.9-0.7,2.8-1.1
						c0.3-0.2,0.7-0.2,1-0.3c0.8-0.2,1.5-0.1,2.2,0c3.3,0.5,6.6,1.1,10.4,1.8c0.7,0.1,1.2,0.3,1.8,0.6s1.1,0.7,1.5,1.1
						c2.3,2.5,4.3,4.8,6.3,7c0.7,0.8,1.1,1.8,1.1,2.9c0,0.9-0.1,1.8-0.1,2.5c-0.1,1.6-1.1,3.1-2.6,3.9
						C57.1,386.2,56.4,386.5,55.8,386.6z"/>
					<path class="st33" d="M42.1,375.1c0,1.1,0.1,2.1,0,3.2c0,0.9,1.3,1.6,2.4,1.2c1.2-0.4,2.4-0.8,3.7-1.3c0.8-0.2,1.7,0,2.2,0.6
						c1,1.2,1.9,2.3,2.8,3.5c0.8,1,3,0.8,3.1-0.3c0-0.8,0.1-1.6,0.1-2.5c0-0.3-0.1-0.5-0.3-0.7c-2-2.3-4.1-4.6-6.2-6.9
						c-0.3-0.3-0.7-0.6-1.2-0.7c-3.5-0.6-7-1.2-10.3-1.8c-0.4,0-0.6-0.1-1,0.1c-0.9,0.4-1.8,0.7-2.7,1.1c-1.2,0.5-0.6,2.2,0.9,2.3
						c1.7,0.2,3.3,0.4,5,0.7C41.4,373.9,42.1,374.4,42.1,375.1z"/>
					<path class="st15" d="M58.4,380.5c-0.4,0.1-0.8,0-1.2-0.1l-22-11.6c-0.4-0.2-0.7-0.6-0.8-1c-0.1-0.4,0-0.9,0.2-1.2l1.3-1.8
						c6-8.7,12.8-17.1,20.1-25.2l1.4-1.5c0.3-0.3,0.6-0.5,1-0.6c0.4-0.1,0.8-0.1,1.2,0.1l22.1,11.7c0.4,0.2,0.7,0.6,0.8,1
						c0.1,0.4,0,0.9-0.2,1.2l-1.3,1.8c-6,8.7-12.8,17.1-20.2,25.1l-1.4,1.5C59.1,380.3,58.7,380.5,58.4,380.5z"/>
					<path class="st15" d="M36.1,367.4l1.3-1.8c5.9-8.6,12.7-17,20-25l1.4-1.5l22.1,11.7l-1.3,1.8c-6,8.7-12.7,17-20.1,25l-1.4,1.5
						L36.1,367.4z"/>
					<path class="st9" d="M57.8,376.3c-6.2-3.2-12.4-6.5-18.6-9.8c5.9-8.6,12.5-16.8,19.8-24.6c6.2,3.2,12.5,6.6,18.7,9.8
						C71.7,360.3,65,368.5,57.8,376.3z"/>
				</g>
			</g>
		</g>
		<path class="st15" d="M62.7,374.6c-0.9,0.2-1.8,0-2.5-0.4L41.7,363c-0.7-0.5-1.2-1.2-1.4-2.1s0-1.7,0.6-2.4
			c3.3-4.5,7.1-9.1,11-13.6c0.5-0.6,1.2-1,2-1.1c0.9-0.2,1.8,0,2.5,0.4L75,355.4c0.7,0.5,1.2,1.2,1.4,2.1c0.2,0.9,0,1.7-0.6,2.4
			c-3.3,4.4-7.1,9.1-11,13.6C64.1,374.2,63.5,374.5,62.7,374.6z"/>
		<path class="st33" d="M73,358.2L54.4,347c-3.8,4.4-7.4,8.9-10.8,13.4l18.4,11.2C65.9,367.2,69.5,362.8,73,358.2z"/>
		
			<ellipse transform="matrix(0.9805 -0.1966 0.1966 0.9805 -69.2986 18.2381)" class="st15" cx="57.2" cy="358.2" rx="6.7" ry="6.2"/>
		<ellipse transform="matrix(0.9805 -0.1966 0.1966 0.9805 -69.2986 18.2381)" class="st9" cx="57.2" cy="358.2" rx="3" ry="2.7"/>
	</g>
	<g>
		<g>
			<g>
				<g>
					<path class="st15" d="M119,353.2c-0.8,0.2-1.5,0.1-2.2,0c-3.3-0.5-6.7-1.2-10.4-1.8c-0.7-0.1-1.2-0.3-1.8-0.6s-1-0.7-1.5-1.1
						c-2.3-2.5-4.4-4.8-6.3-7c-0.8-0.8-1.1-1.8-1.1-2.9c0-0.9,0.1-1.7,0.1-2.5c0.1-1.6,1.1-3.1,2.6-3.9c0.6-0.3,1.2-0.5,1.8-0.6
						c1.5-0.3,3-0.1,4.3,0.6c0.6,0.3,1.2,0.7,1.6,1.3c0.6,0.8,1.3,1.6,2,2.5c0.8-0.2,1.5-0.6,2.2-0.8c0.2-0.1,0.6-0.2,0.8-0.3
						c1.4-0.3,2.9-0.1,4.1,0.5c1.6,0.8,2.6,2.3,2.6,4.1c0,0.5,0,1,0,1.5c1.2,0.1,2.3,0.3,3.5,0.5c0.7,0.1,1.4,0.3,2,0.7
						c2,1,3,3.1,2.5,5.1c-0.3,1.5-1.5,2.9-3.2,3.5c-0.9,0.4-1.9,0.7-2.8,1.1C119.7,353,119.4,353.1,119,353.2z"/>
					<path class="st30" d="M113.9,344c0-1.1-0.1-2.1,0-3.2c0-0.9-1.3-1.6-2.4-1.2c-1.2,0.4-2.4,0.8-3.7,1.3c-0.8,0.2-1.7,0-2.2-0.6
						c-1-1.2-1.9-2.3-2.8-3.5c-0.8-1-3-0.8-3.1,0.3c0,0.8-0.1,1.6-0.1,2.5c0,0.3,0.1,0.5,0.3,0.7c2,2.3,4.1,4.6,6.2,6.9
						c0.3,0.3,0.7,0.6,1.2,0.7c3.5,0.6,7,1.2,10.3,1.8c0.4,0,0.6,0.1,1-0.1c0.9-0.4,1.8-0.7,2.7-1.1c1.2-0.5,0.6-2.2-0.9-2.3
						c-1.7-0.2-3.3-0.4-5-0.7C114.6,345.3,114,344.7,113.9,344z"/>
					<path class="st15" d="M95.2,386.6c-1.5,0.3-3,0.1-4.3-0.6c-0.6-0.3-1.2-0.7-1.6-1.3c-0.6-0.8-1.3-1.6-2-2.5
						c-0.8,0.2-1.5,0.5-2.2,0.8c-0.2,0.1-0.6,0.2-0.8,0.3c-1.4,0.3-2.9,0.1-4.1-0.5c-1.6-0.8-2.6-2.3-2.6-4.1c0-0.5,0-1,0-1.5
						c-1.2-0.1-2.3-0.3-3.5-0.5c-0.7-0.1-1.4-0.3-2-0.7c-2-1-3-3.1-2.5-5.1c0.3-1.5,1.5-2.9,3.2-3.5c0.9-0.4,1.9-0.7,2.8-1.1
						c0.3-0.2,0.7-0.2,1-0.3c0.8-0.2,1.5-0.1,2.2,0c3.3,0.5,6.6,1.1,10.4,1.8c0.7,0.1,1.2,0.3,1.8,0.6s1.1,0.7,1.5,1.1
						c2.3,2.5,4.3,4.8,6.3,7c0.7,0.8,1.1,1.8,1.1,2.9c0,0.9-0.1,1.8-0.1,2.5c-0.1,1.6-1.1,3.1-2.6,3.9
						C96.5,386.2,95.8,386.5,95.2,386.6z"/>
					<path class="st30" d="M81.5,375.1c0,1.1,0.1,2.1,0,3.2c0,0.9,1.3,1.6,2.4,1.2c1.2-0.4,2.4-0.8,3.7-1.3c0.8-0.2,1.7,0,2.2,0.6
						c1,1.2,1.9,2.3,2.8,3.5c0.8,1,3,0.8,3.1-0.3c0-0.8,0.1-1.6,0.1-2.5c0-0.3-0.1-0.5-0.3-0.7c-2-2.3-4.1-4.6-6.2-6.9
						c-0.3-0.3-0.7-0.6-1.2-0.7c-3.5-0.6-7-1.2-10.3-1.8c-0.4,0-0.6-0.1-1,0.1c-0.9,0.4-1.8,0.7-2.7,1.1c-1.2,0.5-0.6,2.2,0.9,2.3
						c1.7,0.2,3.3,0.4,5,0.7C80.8,373.9,81.6,374.4,81.5,375.1z"/>
					<path class="st15" d="M97.8,380.5c-0.4,0.1-0.8,0-1.2-0.1l-22-11.6c-0.4-0.2-0.7-0.6-0.8-1c-0.1-0.4,0-0.9,0.2-1.2l1.3-1.8
						c6-8.7,12.8-17.1,20.1-25.2l1.4-1.5c0.3-0.3,0.6-0.5,1-0.6c0.4-0.1,0.8-0.1,1.2,0.1l22.1,11.7c0.4,0.2,0.7,0.6,0.8,1
						c0.1,0.4,0,0.9-0.2,1.2l-1.3,1.8c-6,8.7-12.8,17.1-20.2,25.1l-1.4,1.5C98.6,380.3,98.1,380.5,97.8,380.5z"/>
					<path class="st15" d="M75.5,367.4l1.3-1.8c5.9-8.6,12.7-17,20-25l1.4-1.5l22.1,11.7l-1.3,1.8c-6,8.7-12.7,17-20.1,25l-1.4,1.5
						L75.5,367.4z"/>
					<path class="st9" d="M97.2,376.3c-6.2-3.2-12.4-6.5-18.6-9.8c5.9-8.6,12.5-16.8,19.8-24.6c6.2,3.2,12.5,6.6,18.7,9.8
						C111.1,360.3,104.5,368.5,97.2,376.3z"/>
				</g>
			</g>
		</g>
		<path class="st15" d="M102.1,374.6c-0.9,0.2-1.8,0-2.5-0.4L81.2,363c-0.7-0.5-1.2-1.2-1.4-2.1c-0.2-0.9,0-1.7,0.6-2.4
			c3.3-4.5,7.1-9.1,11-13.6c0.5-0.6,1.2-1,2-1.1c0.9-0.2,1.8,0,2.5,0.4l18.5,11.2c0.7,0.5,1.2,1.2,1.4,2.1c0.2,0.9,0,1.7-0.6,2.4
			c-3.3,4.4-7.1,9.1-11,13.6C103.5,374.2,102.9,374.5,102.1,374.6z"/>
		<path class="st30" d="M112.4,358.2L93.9,347c-3.8,4.4-7.4,8.9-10.8,13.4l18.4,11.2C105.3,367.2,108.9,362.8,112.4,358.2z"/>
		
			<ellipse transform="matrix(0.9805 -0.1966 0.1966 0.9805 -68.5295 25.9864)" class="st15" cx="96.6" cy="358.2" rx="6.7" ry="6.2"/>
		<ellipse transform="matrix(0.9805 -0.1966 0.1966 0.9805 -68.5295 25.9864)" class="st9" cx="96.6" cy="358.2" rx="3" ry="2.7"/>
	</g>
	<g>
		<g>
			<g>
				<g>
					<path class="st15" d="M157.4,353.2c-0.8,0.2-1.5,0.1-2.2,0c-3.3-0.5-6.7-1.2-10.4-1.8c-0.7-0.1-1.2-0.3-1.8-0.6
						c-0.6-0.3-1-0.7-1.5-1.1c-2.3-2.5-4.4-4.8-6.3-7c-0.8-0.8-1.1-1.8-1.1-2.9c0-0.9,0.1-1.7,0.1-2.5c0.1-1.6,1.1-3.1,2.6-3.9
						c0.6-0.3,1.2-0.5,1.8-0.6c1.5-0.3,3-0.1,4.3,0.6c0.6,0.3,1.2,0.7,1.6,1.3c0.6,0.8,1.3,1.6,2,2.5c0.8-0.2,1.5-0.6,2.2-0.8
						c0.2-0.1,0.6-0.2,0.8-0.3c1.4-0.3,2.9-0.1,4.1,0.5c1.6,0.8,2.6,2.3,2.6,4.1c0,0.5,0,1,0,1.5c1.2,0.1,2.3,0.3,3.5,0.5
						c0.7,0.1,1.4,0.3,2,0.7c2,1,3,3.1,2.5,5.1c-0.3,1.5-1.5,2.9-3.2,3.5c-0.9,0.4-1.9,0.7-2.8,1.1
						C158.1,353,157.8,353.1,157.4,353.2z"/>
					<path class="st35" d="M152.4,344c0-1.1-0.1-2.1,0-3.2c0-0.9-1.3-1.6-2.4-1.2c-1.2,0.4-2.4,0.8-3.7,1.3c-0.8,0.2-1.7,0-2.2-0.6
						c-1-1.2-1.9-2.3-2.8-3.5c-0.8-1-3-0.8-3.1,0.3c0,0.8-0.1,1.6-0.1,2.5c0,0.3,0.1,0.5,0.3,0.7c2,2.3,4.1,4.6,6.2,6.9
						c0.3,0.3,0.7,0.6,1.2,0.7c3.5,0.6,7,1.2,10.3,1.8c0.4,0,0.6,0.1,1-0.1c0.9-0.4,1.8-0.7,2.7-1.1c1.2-0.5,0.6-2.2-0.9-2.3
						c-1.7-0.2-3.3-0.4-5-0.7C153.1,345.3,152.4,344.7,152.4,344z"/>
					<path class="st15" d="M133.7,386.6c-1.5,0.3-3,0.1-4.3-0.6c-0.6-0.3-1.2-0.7-1.6-1.3c-0.6-0.8-1.3-1.6-2-2.5
						c-0.8,0.2-1.5,0.5-2.2,0.8c-0.2,0.1-0.6,0.2-0.8,0.3c-1.4,0.3-2.9,0.1-4.1-0.5c-1.6-0.8-2.6-2.3-2.6-4.1c0-0.5,0-1,0-1.5
						c-1.2-0.1-2.3-0.3-3.5-0.5c-0.7-0.1-1.4-0.3-2-0.7c-2-1-3-3.1-2.5-5.1c0.3-1.5,1.5-2.9,3.2-3.5c0.9-0.4,1.9-0.7,2.8-1.1
						c0.3-0.2,0.7-0.2,1-0.3c0.8-0.2,1.5-0.1,2.2,0c3.3,0.5,6.6,1.1,10.4,1.8c0.7,0.1,1.2,0.3,1.8,0.6c0.6,0.3,1.1,0.7,1.5,1.1
						c2.3,2.5,4.3,4.8,6.3,7c0.7,0.8,1.1,1.8,1.1,2.9c0,0.9-0.1,1.8-0.1,2.5c-0.1,1.6-1.1,3.1-2.6,3.9
						C134.9,386.2,134.3,386.5,133.7,386.6z"/>
					<path class="st35" d="M119.9,375.1c0,1.1,0.1,2.1,0,3.2c0,0.9,1.3,1.6,2.4,1.2c1.2-0.4,2.4-0.8,3.7-1.3c0.8-0.2,1.7,0,2.2,0.6
						c1,1.2,1.9,2.3,2.8,3.5c0.8,1,3,0.8,3.1-0.3c0-0.8,0.1-1.6,0.1-2.5c0-0.3-0.1-0.5-0.3-0.7c-2-2.3-4.1-4.6-6.2-6.9
						c-0.3-0.3-0.7-0.6-1.2-0.7c-3.5-0.6-7-1.2-10.3-1.8c-0.4,0-0.6-0.1-1,0.1c-0.9,0.4-1.8,0.7-2.7,1.1c-1.2,0.5-0.6,2.2,0.9,2.3
						c1.7,0.2,3.3,0.4,5,0.7C119.2,373.9,120,374.4,119.9,375.1z"/>
					<path class="st15" d="M136.2,380.5c-0.4,0.1-0.8,0-1.2-0.1l-22-11.6c-0.4-0.2-0.7-0.6-0.8-1c-0.1-0.4,0-0.9,0.2-1.2l1.3-1.8
						c6-8.7,12.8-17.1,20.1-25.2l1.4-1.5c0.3-0.3,0.6-0.5,1-0.6c0.4-0.1,0.8-0.1,1.2,0.1l22.1,11.7c0.4,0.2,0.7,0.6,0.8,1
						c0.1,0.4,0,0.9-0.2,1.2l-1.3,1.8c-6,8.7-12.8,17.1-20.2,25.1l-1.4,1.5C137,380.3,136.6,380.5,136.2,380.5z"/>
					<path class="st15" d="M113.9,367.4l1.3-1.8c5.9-8.6,12.7-17,20-25l1.4-1.5l22.1,11.7l-1.3,1.8c-6,8.7-12.7,17-20.1,25l-1.4,1.5
						L113.9,367.4z"/>
					<path class="st9" d="M135.6,376.3c-6.2-3.2-12.4-6.5-18.6-9.8c5.9-8.6,12.5-16.8,19.8-24.6c6.2,3.2,12.5,6.6,18.7,9.8
						C149.5,360.3,142.9,368.5,135.6,376.3z"/>
				</g>
			</g>
		</g>
		<path class="st15" d="M140.5,374.6c-0.9,0.2-1.8,0-2.5-0.4L119.6,363c-0.7-0.5-1.2-1.2-1.4-2.1c-0.2-0.9,0-1.7,0.6-2.4
			c3.3-4.5,7.1-9.1,11-13.6c0.5-0.6,1.2-1,2-1.1c0.9-0.2,1.8,0,2.5,0.4l18.5,11.2c0.7,0.5,1.2,1.2,1.4,2.1c0.2,0.9,0,1.7-0.6,2.4
			c-3.3,4.4-7.1,9.1-11,13.6C142,374.2,141.3,374.5,140.5,374.6z"/>
		<path class="st35" d="M150.8,358.2L132.3,347c-3.8,4.4-7.4,8.9-10.8,13.4l18.4,11.2C143.7,367.2,147.3,362.8,150.8,358.2z"/>
		
			<ellipse transform="matrix(0.9805 -0.1966 0.1966 0.9805 -67.7797 33.5405)" class="st15" cx="135.1" cy="358.2" rx="6.7" ry="6.2"/>
		<ellipse transform="matrix(0.9805 -0.1966 0.1966 0.9805 -67.7797 33.5405)" class="st9" cx="135.1" cy="358.2" rx="3" ry="2.7"/>
	</g>
	<g>
		<g>
			<g>
				<g>
					<path class="st15" d="M194.5,353.2c-0.8,0.2-1.5,0.1-2.2,0c-3.3-0.5-6.7-1.2-10.4-1.8c-0.7-0.1-1.2-0.3-1.8-0.6
						c-0.6-0.3-1-0.7-1.5-1.1c-2.3-2.5-4.4-4.8-6.3-7c-0.8-0.8-1.1-1.8-1.1-2.9c0-0.9,0.1-1.7,0.1-2.5c0.1-1.6,1.1-3.1,2.6-3.9
						c0.6-0.3,1.2-0.5,1.8-0.6c1.5-0.3,3-0.1,4.3,0.6c0.6,0.3,1.2,0.7,1.6,1.3c0.6,0.8,1.3,1.6,2,2.5c0.8-0.2,1.5-0.6,2.2-0.8
						c0.2-0.1,0.6-0.2,0.8-0.3c1.4-0.3,2.9-0.1,4.1,0.5c1.6,0.8,2.6,2.3,2.6,4.1c0,0.5,0,1,0,1.5c1.2,0.1,2.3,0.3,3.5,0.5
						c0.7,0.1,1.4,0.3,2,0.7c2,1,3,3.1,2.5,5.1c-0.3,1.5-1.5,2.9-3.2,3.5c-0.9,0.4-1.9,0.7-2.8,1.1
						C195.2,353,194.8,353.1,194.5,353.2z"/>
					<path class="st33" d="M189.4,344c0-1.1-0.1-2.1,0-3.2c0-0.9-1.3-1.6-2.4-1.2c-1.2,0.4-2.4,0.8-3.7,1.3c-0.8,0.2-1.7,0-2.2-0.6
						c-1-1.2-1.9-2.3-2.8-3.5c-0.8-1-3-0.8-3.1,0.3c0,0.8-0.1,1.6-0.1,2.5c0,0.3,0.1,0.5,0.3,0.7c2,2.3,4.1,4.6,6.2,6.9
						c0.3,0.3,0.7,0.6,1.2,0.7c3.5,0.6,7,1.2,10.3,1.8c0.4,0,0.6,0.1,1-0.1c0.9-0.4,1.8-0.7,2.7-1.1c1.2-0.5,0.6-2.2-0.9-2.3
						c-1.7-0.2-3.3-0.4-5-0.7C190.1,345.3,189.4,344.7,189.4,344z"/>
					<path class="st15" d="M170.7,386.6c-1.5,0.3-3,0.1-4.3-0.6c-0.6-0.3-1.2-0.7-1.6-1.3c-0.6-0.8-1.3-1.6-2-2.5
						c-0.8,0.2-1.5,0.5-2.2,0.8c-0.2,0.1-0.6,0.2-0.8,0.3c-1.4,0.3-2.9,0.1-4.1-0.5c-1.6-0.8-2.6-2.3-2.6-4.1c0-0.5,0-1,0-1.5
						c-1.2-0.1-2.3-0.3-3.5-0.5c-0.7-0.1-1.4-0.3-2-0.7c-2-1-3-3.1-2.5-5.1c0.3-1.5,1.5-2.9,3.2-3.5c0.9-0.4,1.9-0.7,2.8-1.1
						c0.3-0.2,0.7-0.2,1-0.3c0.8-0.2,1.5-0.1,2.2,0c3.3,0.5,6.6,1.1,10.4,1.8c0.7,0.1,1.2,0.3,1.8,0.6c0.6,0.3,1.1,0.7,1.5,1.1
						c2.3,2.5,4.3,4.8,6.3,7c0.7,0.8,1.1,1.8,1.1,2.9c0,0.9-0.1,1.8-0.1,2.5c-0.1,1.6-1.1,3.1-2.6,3.9
						C172,386.2,171.3,386.5,170.7,386.6z"/>
					<path class="st33" d="M157,375.1c0,1.1,0.1,2.1,0,3.2c0,0.9,1.3,1.6,2.4,1.2c1.2-0.4,2.4-0.8,3.7-1.3c0.8-0.2,1.7,0,2.2,0.6
						c1,1.2,1.9,2.3,2.8,3.5c0.8,1,3,0.8,3.1-0.3c0-0.8,0.1-1.6,0.1-2.5c0-0.3-0.1-0.5-0.3-0.7c-2-2.3-4.1-4.6-6.2-6.9
						c-0.3-0.3-0.7-0.6-1.2-0.7c-3.5-0.6-7-1.2-10.3-1.8c-0.4,0-0.6-0.1-1,0.1c-0.9,0.4-1.8,0.7-2.7,1.1c-1.2,0.5-0.6,2.2,0.9,2.3
						c1.7,0.2,3.3,0.4,5,0.7C156.3,373.9,157,374.4,157,375.1z"/>
					<path class="st15" d="M173.3,380.5c-0.4,0.1-0.8,0-1.2-0.1l-22-11.6c-0.4-0.2-0.7-0.6-0.8-1c-0.1-0.4,0-0.9,0.2-1.2l1.3-1.8
						c6-8.7,12.8-17.1,20.1-25.2l1.4-1.5c0.3-0.3,0.6-0.5,1-0.6c0.4-0.1,0.8-0.1,1.2,0.1l22.1,11.7c0.4,0.2,0.7,0.6,0.8,1
						c0.1,0.4,0,0.9-0.2,1.2l-1.3,1.8c-6,8.7-12.8,17.1-20.2,25.1l-1.4,1.5C174,380.3,173.6,380.5,173.3,380.5z"/>
					<path class="st15" d="M150.9,367.4l1.3-1.8c5.9-8.6,12.7-17,20-25l1.4-1.5l22.1,11.7l-1.3,1.8c-6,8.7-12.7,17-20.1,25l-1.4,1.5
						L150.9,367.4z"/>
					<path class="st9" d="M172.7,376.3c-6.2-3.2-12.4-6.5-18.6-9.8c5.9-8.6,12.5-16.8,19.8-24.6c6.2,3.2,12.5,6.6,18.7,9.8
						C186.6,360.3,179.9,368.5,172.7,376.3z"/>
				</g>
			</g>
		</g>
		<path class="st15" d="M177.6,374.6c-0.9,0.2-1.8,0-2.5-0.4L156.6,363c-0.7-0.5-1.2-1.2-1.4-2.1c-0.2-0.9,0-1.7,0.6-2.4
			c3.3-4.5,7.1-9.1,11-13.6c0.5-0.6,1.2-1,2-1.1c0.9-0.2,1.8,0,2.5,0.4l18.5,11.2c0.7,0.5,1.2,1.2,1.4,2.1c0.2,0.9,0,1.7-0.6,2.4
			c-3.3,4.4-7.1,9.1-11,13.6C179,374.2,178.3,374.5,177.6,374.6z"/>
		<path class="st33" d="M187.8,358.2L169.3,347c-3.8,4.4-7.4,8.9-10.8,13.4l18.4,11.2C180.7,367.2,184.4,362.8,187.8,358.2z"/>
		
			<ellipse transform="matrix(0.9805 -0.1966 0.1966 0.9805 -67.0568 40.8233)" class="st15" cx="172.1" cy="358.2" rx="6.7" ry="6.2"/>
		<ellipse transform="matrix(0.9805 -0.1966 0.1966 0.9805 -67.0568 40.8233)" class="st9" cx="172.1" cy="358.2" rx="3" ry="2.7"/>
	</g>
	<g>
		<g>
			<g>
				<path class="st15" d="M98.6,306.9h33.5C121,306.8,109.8,306.8,98.6,306.9z"/>
				<path class="st15" d="M182.2,306.9c-2,0-4,0-6.1,0c-0.1-1-0.2-1.9-0.3-2.7c-0.5-5.8-1-11.6-1.6-17.4c-0.4-4.4-3.8-7.3-8.2-7.4
					c-4.1,0-8.2,0-12.3,0c-2.5,0-2.5,0-2.9-2.4c-0.4-2.3-0.8-4.6-1.3-7.1c0.7,0,1.2,0,1.7,0c7,0,13.9,0,20.9,0c2.8,0,5-1.2,6-3.8
					c1.1-3.2,1.8-6.5,1.4-9.9c-0.1-0.7-0.2-1.4-0.3-2.3c0.5,0,0.8-0.1,1.1-0.1c4.9-0.2,6.8-2.4,6.1-7.3c-0.6-4.3-1.2-8.6-1.8-12.9
					c-1.1-7.7-2.2-15.4-3.3-23.1c-0.3-1.8-1.5-2.8-3.3-2.8c-1.5,0-3.1,0-4.6,0c-0.8,0-1.1-0.3-1.2-1.1c-0.2-1.6-0.4-3.1-0.7-4.7
					c-0.6-3.8-2.6-5.4-6.4-5.4c-22.3,0-44.6,0-66.9,0c-11.6,0-23.2,0-34.7,0c-2.9,0-5.3,1.9-5.7,4.6c-1.2,7.7-2.3,15.4-3.4,23.1
					c-1.3,8.7-2.4,17.5-3.8,26.2c-0.7,4.7-1.1,9.3,0.1,14c0.9,3.4,3.2,5.5,6.7,5.5c6.9,0,13.8,0,20.7,0c0.6,0,1.1,0,1.8,0
					c-0.6,3.2-1.1,6.3-1.7,9.3c-0.3,0.1-0.4,0.1-0.5,0.1c-4.8,0-9.5,0-14.3,0c-4.6,0-7.9,3-8.4,7.5c-0.3,2.5-0.4,5.1-0.7,7.7
					c-0.4,4-0.7,8.1-1.1,12.3c-0.5,0-0.9,0-1.3,0 M85.9,306.9c-4.5-0.7-7.9-5.3-7.5-8.9c0.3-3.3,0.9-6.6,1.5-9.9
					c1.5-8.6,3.1-17.3,4.6-25.9c0.4-2.6-1.3-4.6-4-4.6c-8.6,0-17.2,0-25.8,0c-0.5,0-1.1,0-1.8,0c0.4-3.1,0.8-5.9,1.3-8.8
					c1.4-9.4,2.7-18.7,4.1-28.1c0.9-6.2,1.9-12.4,2.8-18.7c0.2-1.6,1-2.2,3-2.2c18,0,35.9,0,53.9,0c15.7,0,31.4,0,47.1,0
					c2.3,0,2.9,0.5,3.2,2.7c1.6,11.2,3.3,22.3,4.9,33.5c1,6.5,2,13,2.9,19.5c0.1,0.6,0.1,1.2,0.2,2c-0.6,0-1.2,0-1.7,0
					c-8.4,0-16.8,0-25.2,0c-3.5,0-5,2-4.4,5.4c2,11,4,22,5.9,33c0.6,3.6-0.6,6.7-3.4,9.1c-1.2,1-2.5,1.6-4.1,1.7 M157.6,282.8
					c2.9,0,5.8,0,8.7,0c2.3,0,3.9,1.4,4.4,3.8c-0.5,0-1,0.1-1.5,0.1c-5,0-10.1,0-15.1,0c-1.2,0-1.9-0.2-2-1.6c0-0.7-0.3-1.4-0.4-2.3
					C153.8,282.8,155.7,282.8,157.6,282.8z M153,289.9c6.1,0,12.1,0,18.2,0c0.5,5.6,1,11.2,1.5,16.9c-7.4,0-14.6,0-22.2,0
					C155.4,301.7,154.3,295.9,153,289.9z M175,264.5c-0.4,1.5-1.6,2-3,2c-7.4,0-14.8,0-22.2,0c-0.4,0-0.9-0.5-1-0.9
					c-0.3-1-0.4-2-0.6-3c-0.3-1.2,0.1-1.7,1.4-1.7c6.3,0.1,12.6,0,18.9,0c2.4,0,4.7,0,7.4,0C175.5,262.3,175.3,263.4,175,264.5z
					 M173.7,211.1c1.3,0,2.7,0,4.2,0c0.3,2.3,0.7,4.6,1,6.8c1.4,9.8,2.8,19.6,4.1,29.5c0.1,0.9-0.2,2.3-0.8,2.7
					c-0.9,0.5-2.2,0.3-3.4,0.3c-0.2,0-0.4-0.7-0.5-1.1c-1.5-10.1-3-20.2-4.4-30.3c-0.4-2.6-0.7-5.1-1.1-7.8
					C173.2,211.1,173.5,211.1,173.7,211.1z M76.5,266.5c-6.1,0-12.1,0-18.2,0c-3.1,0-4-0.7-4.6-3.8c-0.1-0.5-0.2-1-0.3-1.7
					c4.9,0,9.6,0,14.3,0c4,0,7.9,0,11.9,0c1.3,0,1.7,0.5,1.4,1.7c-0.3,1.2-0.1,2.9-0.9,3.6C79.4,266.9,77.8,266.5,76.5,266.5z
					 M62,282.9c5.1-0.1,10.2,0,15.3,0c-0.4,3.9-0.4,3.9-4.1,3.9c-4.9,0-9.8,0-14.7,0C58.5,285,60.1,282.9,62,282.9z M56.6,306.8
					c0.5-5.6,0.9-11.2,1.4-16.9c6,0,12,0,18,0c-0.3,3-0.9,5.9-0.9,8.8c0,3,1.3,5.7,3.6,8C71.2,306.8,64,306.8,56.6,306.8z"/>
				<path class="st47" d="M132.1,306.9h11.1c1.6-0.1,2.9-0.7,4.1-1.7c2.8-2.4,4-5.5,3.4-9.1c-1.9-11-3.9-22-5.9-33
					c-0.6-3.5,0.9-5.4,4.4-5.4c8.4,0,16.8,0,25.2,0c0.5,0,1.1,0,1.7,0c-0.1-0.9-0.1-1.5-0.2-2c-1-6.5-2-13-2.9-19.5
					c-1.6-11.2-3.3-22.3-4.9-33.5c-0.3-2.2-0.9-2.7-3.2-2.7c-15.7,0-31.4,0-47.1,0c-18,0-35.9,0-53.9,0c-1.9,0-2.7,0.6-3,2.2
					c-0.9,6.2-1.9,12.4-2.8,18.7c-1.4,9.4-2.7,18.7-4.1,28.1c-0.4,2.8-0.8,5.7-1.3,8.8c0.7,0,1.3,0,1.8,0c8.6,0,17.2,0,25.8,0
					c2.7,0,4.4,2,4,4.6c-1.5,8.6-3.1,17.3-4.6,25.9c-0.6,3.3-1.1,6.6-1.5,9.9c-0.4,3.6,3,8.1,7.5,8.9h12.7
					C109.8,306.8,121,306.8,132.1,306.9z M64,251.4c-2.9,0-3.6-0.8-3.2-3.7c1.1-8.3,2.3-16.6,3.4-24.9c0.7-5.5,1.5-10.9,2.2-16.4
					c0.3-2.3,0.9-2.9,3.2-2.9c30,0,60,0,90.1,0c2.2,0,2.9,0.6,3.2,2.8c1.7,12.6,3.3,25.1,5,37.7c0.2,1.3,0.4,2.7,0.6,4
					c0.3,2.4-0.4,3.3-2.8,3.3c-17,0-34,0-51,0c0,0,0,0,0,0C97.7,251.4,80.8,251.4,64,251.4z M82.6,293.3c2-10.7,4-21.4,5.9-32.2
					c0.2-0.8,0.1-1.7,0.2-2.5c0.1-1.6,0.9-2.4,2.5-2.4c15.6,0,31.3,0,46.9,0c1.4,0,2.1,0.7,2.3,2.1c1.1,6.5,2.1,13,3.3,19.6
					c0.9,5.2,1.9,10.3,2.9,15.5c0.6,3.5-0.8,5.3-4.3,5.3c-9.2,0-18.5,0-27.7,0c-9.2,0-18.4,0-27.6,0C83.4,298.7,82,296.8,82.6,293.3
					z"/>
				<path class="st48" d="M142.7,306.9c0.2,0,0.3,0,0.5,0h-11.1C135.7,306.9,139.2,306.9,142.7,306.9z"/>
				<path class="st48" d="M98.6,306.9H85.9c0.4,0.1,0.9,0.1,1.3,0.1C91.1,306.9,94.9,306.9,98.6,306.9z"/>
				<path class="st48" d="M172.7,306.8c-0.5-5.7-1-11.3-1.5-16.9c-6.1,0-12,0-18.2,0c1.3,6,2.4,11.8-2.5,16.9
					C158.1,306.8,165.3,306.8,172.7,306.8z"/>
				<path class="st48" d="M75.1,298.8c0-2.9,0.6-5.9,0.9-8.8c-6,0-11.9,0-18,0c-0.5,5.7-0.9,11.2-1.4,16.9c7.4,0,14.6,0,22.1,0
					C76.4,304.4,75.1,301.8,75.1,298.8z"/>
				<path class="st48" d="M172.9,211.2c0.4,0,0.6-0.1,0.8-0.1c1.3,0,2.7,0,4.2,0c0.3,2.3,0.7,4.6,1,6.8c1.4,9.8,2.8,19.6,4.1,29.5
					c0.1,0.9-0.2,2.3-0.8,2.7c-0.9,0.5-2.2,0.3-3.4,0.3c-0.2,0-0.4-0.7-0.5-1.1c-1.5-10.1-3-20.2-4.4-30.3
					C173.6,216.4,173.2,213.8,172.9,211.2z"/>
				<path class="st48" d="M53.4,261c4.9,0,9.6,0,14.3,0c4,0,7.9,0,11.9,0c1.3,0,1.7,0.5,1.4,1.7c-0.3,1.2-0.1,2.9-0.9,3.6
					c-0.7,0.6-2.4,0.3-3.6,0.3c-6.1,0-12.1,0-18.2,0c-3.1,0-4-0.7-4.6-3.8C53.6,262.2,53.5,261.7,53.4,261z"/>
				<path class="st48" d="M175.8,261c-0.3,1.3-0.4,2.4-0.8,3.5c-0.4,1.4-1.6,2-3,2c-7.4,0-14.8,0-22.2,0c-0.4,0-0.9-0.5-1-0.9
					c-0.3-1-0.4-2-0.6-3c-0.3-1.2,0.1-1.7,1.4-1.7c6.3,0.1,12.6,0,18.9,0C170.8,261,173.2,261,175.8,261z"/>
				<path class="st48" d="M77.4,282.8c-0.4,3.9-0.4,3.9-4.1,3.9c-4.9,0-9.8,0-14.7,0c-0.1-1.7,1.5-3.8,3.4-3.8
					C67.1,282.7,72.2,282.8,77.4,282.8z"/>
				<path class="st48" d="M151.8,282.8c2,0,3.9,0,5.8,0c2.9,0,5.8,0,8.7,0c2.3,0,3.9,1.4,4.4,3.8c-0.5,0-1,0.1-1.5,0.1
					c-5,0-10.1,0-15.1,0c-1.2,0-1.9-0.2-2-1.6C152.2,284.4,151.9,283.6,151.8,282.8z"/>
				<path class="st15" d="M114.5,251.4c-16.9,0-33.7,0-50.6,0c-2.9,0-3.6-0.8-3.2-3.7c1.1-8.3,2.3-16.6,3.4-24.9
					c0.7-5.5,1.5-10.9,2.2-16.4c0.3-2.3,0.9-2.9,3.2-2.9c30,0,60,0,90.1,0c2.2,0,2.9,0.6,3.2,2.8c1.7,12.6,3.3,25.1,5,37.7
					c0.2,1.3,0.4,2.7,0.6,4c0.3,2.4-0.4,3.3-2.8,3.3C148.5,251.4,131.5,251.4,114.5,251.4C114.5,251.4,114.5,251.4,114.5,251.4z
					 M159.4,206.9c-30.1,0-59.9,0-89.7,0c-1.8,13.7-3.7,27.4-5.5,41c33.7,0,67.2,0,100.7,0C163.1,234.2,161.2,220.6,159.4,206.9z"/>
				<path class="st15" d="M114.6,298.7c-9.2,0-18.4,0-27.6,0c-3.6,0-5.1-1.9-4.4-5.4c2-10.7,4-21.4,5.9-32.2
					c0.2-0.8,0.1-1.7,0.2-2.5c0.1-1.6,0.9-2.4,2.5-2.4c15.6,0,31.3,0,46.9,0c1.4,0,2.1,0.7,2.3,2.1c1.1,6.5,2.1,13,3.3,19.6
					c0.9,5.2,1.9,10.3,2.9,15.5c0.6,3.5-0.8,5.3-4.3,5.3C133.1,298.7,123.8,298.7,114.6,298.7z M137,259.7c-15,0-29.9,0-44.8,0
					c-1.2,6.2-2.3,12.3-3.4,18.4c-1,5.2-1.9,10.4-2.8,15.5c-0.2,1-0.3,1.8,1.3,1.8c18.3,0,36.5,0,54.8,0c1.4,0,1.6-0.6,1.4-1.7
					c-0.9-4.8-1.8-9.6-2.7-14.4C139.4,272.8,138.2,266.3,137,259.7z"/>
				<path class="st35" d="M159.4,206.9c1.8,13.6,3.6,27.3,5.5,41c-33.5,0-67,0-100.7,0c1.8-13.7,3.7-27.3,5.5-41
					C99.5,206.9,129.3,206.9,159.4,206.9z"/>
				<path class="st47" d="M137,259.7c1.2,6.6,2.4,13.1,3.6,19.6c0.9,4.8,1.8,9.6,2.7,14.4c0.2,1.1,0,1.7-1.4,1.7
					c-18.3,0-36.5,0-54.8,0c-1.5,0-1.4-0.8-1.3-1.8c0.9-5.2,1.9-10.4,2.8-15.5c1.1-6.1,2.3-12.2,3.4-18.4
					C107.1,259.7,122.1,259.7,137,259.7z M98.3,291.2c1.1,0,2.1,0,3.2,0c3.2,0,3.2,0,3.2-3.3c0-1.5-0.5-1.9-1.9-1.9
					c-2.4,0-4.8,0-7.1,0c-3.2,0-3.2,0-3.8,3.2c-0.2,1.4,0.2,2,1.7,2.1C95.1,291.2,96.7,291.2,98.3,291.2z M131,291.2
					C131,291.2,131,291.2,131,291.2c1,0,2,0,3.1,0c3.5,0,3.4,0,3.2-3.4c-0.1-1.4-0.8-1.9-2.1-1.9c-2.4,0-4.8,0-7.3,0
					c-3.4,0-3.5,0.1-3.4,3.6c0,1.1,0.5,1.7,1.7,1.7C127.8,291.2,129.4,291.2,131,291.2z M114.5,291.2
					C114.5,291.2,114.5,291.2,114.5,291.2c1,0,2.1,0,3.1,0c3.1,0,3.1,0,3.1-3.1c0,0,0-0.1,0-0.1c0-1.4-0.5-1.9-1.9-2
					c-2.2,0-4.5,0-6.7,0c-3.5,0-3.6,0.2-3.5,3.7c0,1.1,0.6,1.6,1.6,1.6C111.7,291.2,113.1,291.2,114.5,291.2z M130.3,283.2
					C130.3,283.2,130.3,283.2,130.3,283.2c1.4,0,2.8,0,4.2,0c1,0,1.7-0.2,1.7-1.5c0-2.1-0.3-2.7-1.7-2.8c-2.8,0-5.6,0-8.4,0
					c-1.4,0-1.6,0.9-1.6,2.1c0,1.2,0,2.2,1.6,2.2C127.5,283.2,128.9,283.2,130.3,283.2z M99,283.2C99,283.2,99,283.2,99,283.2
					c1.4,0,2.9,0,4.3,0c1.1,0,1.5-0.8,1.5-1.8c0-1,0.2-2.3-1.2-2.4c-3-0.1-6-0.1-8.9,0c-1.7,0.1-1.3,1.6-1.4,2.7
					c-0.1,1.1,0.6,1.5,1.6,1.5C96.2,283.2,97.6,283.2,99,283.2z M114.6,283.2C114.6,283.2,114.6,283.2,114.6,283.2
					c1.4,0,2.8,0,4.2,0c1.2,0,1.6-0.6,1.6-1.8c0-1.1,0.1-2.4-1.5-2.4c-2.8-0.1-5.7-0.1-8.5,0c-1.6,0-1.5,1.3-1.5,2.4
					c0,1.2,0.4,1.8,1.6,1.8C111.8,283.2,113.2,283.2,114.6,283.2z M114.5,269.3C114.5,269.3,114.5,269.3,114.5,269.3
					c1.4,0,2.7,0,4.1,0c1,0,1.5-0.6,1.5-1.6c0-1.1,0.2-2.4-1.4-2.4c-2.7-0.1-5.3-0.1-8,0c-1.4,0-1.5,1.1-1.5,2.2
					c0,1.1,0.3,1.8,1.5,1.8C112,269.3,113.3,269.3,114.5,269.3z M99.6,276.1C99.6,276.1,99.6,276.1,99.6,276.1c1.4,0,2.8,0,4.2,0
					c1.4,0,1.5-1,1.5-2c0-1.1-0.1-2-1.5-2c-2.7,0-5.5,0-8.2,0c-1.6,0-1.5,1.2-1.5,2.3c0,1.1,0.4,1.7,1.5,1.7
					C96.9,276.1,98.3,276.1,99.6,276.1z M114.6,276.1C114.6,276.1,114.6,276.1,114.6,276.1c1.4,0,2.8,0,4.2,0c1.3,0,1.4-0.8,1.4-1.8
					c0-1,0.2-2.1-1.3-2.2c-2.8,0-5.6,0-8.4,0c-1.4,0-1.4,1.1-1.4,2.1c0,1,0.2,1.9,1.5,1.9C111.9,276.1,113.3,276.1,114.6,276.1z
					 M129.7,276.1c1.4,0,2.7,0,4.1,0c1.3,0,1.6-0.7,1.5-1.8c0-1.1,0-2.2-1.6-2.2c-2.7,0-5.3,0.1-8,0c-1.7,0-1.5,1.2-1.5,2.2
					c-0.1,1.1,0.3,1.8,1.6,1.8C127.1,276.1,128.4,276.1,129.7,276.1z M100.1,269.3c1.3,0,2.5,0,3.8,0c1.4,0,1.5-0.9,1.5-2
					c0-1.1-0.2-2-1.5-2c-2.5,0-4.9,0-7.4,0c-1.4,0-1.6,0.9-1.6,2.1c0,1.2,0.3,1.9,1.6,1.9C97.7,269.3,98.9,269.3,100.1,269.3z
					 M129.1,269.3C129.1,269.3,129.1,269.3,129.1,269.3c1.3,0,2.5,0,3.8,0c1.2,0,1.6-0.7,1.5-1.9c0-1.1-0.1-2.1-1.5-2.2
					c-2.5,0-4.9,0-7.4,0c-1.7,0-1.4,1.3-1.5,2.4c-0.1,1.2,0.5,1.6,1.6,1.6C126.7,269.3,127.9,269.3,129.1,269.3z"/>
				<path class="st15" d="M98.3,291.2c-1.6,0-3.2,0-4.8,0c-1.4,0-1.9-0.6-1.7-2.1c0.6-3.2,0.6-3.2,3.8-3.2c2.4,0,4.8,0,7.1,0
					c1.5,0,1.9,0.5,1.9,1.9c0.1,3.3,0,3.3-3.2,3.3C100.4,291.2,99.4,291.2,98.3,291.2z"/>
				<path class="st15" d="M131,291.2c-1.6,0-3.2,0-4.7,0c-1.2,0-1.7-0.6-1.7-1.7c-0.1-3.4,0-3.6,3.4-3.6c2.4,0,4.8,0,7.3,0
					c1.3,0,1.9,0.5,2.1,1.9c0.3,3.4,0.3,3.4-3.2,3.4C133,291.2,132,291.2,131,291.2C131,291.2,131,291.2,131,291.2z"/>
				<path class="st15" d="M114.5,291.2c-1.4,0-2.9,0-4.3,0c-1.1,0-1.6-0.5-1.6-1.6c-0.2-3.5,0-3.7,3.5-3.7c2.2,0,4.5,0,6.7,0
					c1.4,0,1.9,0.5,1.9,2c0,0,0,0.1,0,0.1c0,3.1,0,3.2-3.1,3.1C116.6,291.2,115.6,291.2,114.5,291.2
					C114.5,291.2,114.5,291.2,114.5,291.2z"/>
				<path class="st15" d="M130.3,283.2c-1.4,0-2.8,0-4.2,0c-1.6,0-1.6-1-1.6-2.2c0-1.2,0.2-2.1,1.6-2.1c2.8,0,5.6,0,8.4,0
					c1.4,0,1.6,0.6,1.7,2.8c0,1.3-0.7,1.5-1.7,1.5C133.1,283.2,131.7,283.2,130.3,283.2C130.3,283.2,130.3,283.2,130.3,283.2z"/>
				<path class="st15" d="M99,283.2c-1.4,0-2.8,0-4.2,0c-1,0-1.6-0.4-1.6-1.5c0.1-1.1-0.3-2.6,1.4-2.7c3-0.1,6-0.1,8.9,0
					c1.5,0.1,1.2,1.4,1.2,2.4c0,1-0.3,1.8-1.5,1.8C101.9,283.2,100.5,283.2,99,283.2C99,283.2,99,283.2,99,283.2z"/>
				<path class="st15" d="M114.6,283.2c-1.4,0-2.8,0-4.2,0c-1.2,0-1.6-0.6-1.6-1.8c0-1.1-0.1-2.4,1.5-2.4c2.8-0.1,5.7-0.1,8.5,0
					c1.6,0,1.5,1.3,1.5,2.4c0,1.1-0.4,1.8-1.6,1.8C117.4,283.2,116,283.2,114.6,283.2C114.6,283.2,114.6,283.2,114.6,283.2z"/>
				<path class="st15" d="M114.5,269.3c-1.3,0-2.5,0-3.8,0c-1.2,0-1.6-0.7-1.5-1.8c0-1.1,0.1-2.2,1.5-2.2c2.7-0.1,5.3-0.1,8,0
					c1.6,0.1,1.4,1.3,1.4,2.4c0,1-0.4,1.6-1.5,1.6C117.3,269.3,115.9,269.3,114.5,269.3C114.5,269.3,114.5,269.3,114.5,269.3z"/>
				<path class="st15" d="M99.6,276.1c-1.3,0-2.7,0-4,0c-1.1,0-1.6-0.6-1.5-1.7c0-1.1-0.1-2.3,1.5-2.3c2.7,0,5.5,0,8.2,0
					c1.4,0,1.5,0.9,1.5,2c0,1.1-0.1,2-1.5,2C102.4,276.1,101,276.1,99.6,276.1C99.6,276.1,99.6,276.1,99.6,276.1z"/>
				<path class="st15" d="M114.6,276.1c-1.4,0-2.7,0-4.1,0c-1.3,0-1.5-0.8-1.5-1.9c0-1,0-2.1,1.4-2.1c2.8,0,5.6,0,8.4,0
					c1.5,0,1.3,1.2,1.3,2.2c0,1-0.1,1.8-1.4,1.8C117.4,276.1,116,276.1,114.6,276.1C114.6,276.1,114.6,276.1,114.6,276.1z"/>
				<path class="st15" d="M129.7,276.1c-1.3,0-2.6,0-3.9,0c-1.2,0-1.6-0.6-1.6-1.8c0.1-1.1-0.2-2.2,1.5-2.2c2.7,0,5.3,0,8,0
					c1.6,0,1.5,1.1,1.6,2.2c0,1.1-0.2,1.8-1.5,1.8C132.4,276.1,131.1,276.1,129.7,276.1z"/>
				<path class="st15" d="M100.1,269.3c-1.2,0-2.4,0-3.6,0c-1.3,0-1.6-0.8-1.6-1.9c0-1.2,0.2-2.1,1.6-2.1c2.5,0,4.9,0,7.4,0
					c1.3,0,1.5,0.9,1.5,2c0,1.1-0.2,2-1.5,2C102.6,269.3,101.4,269.3,100.1,269.3z"/>
				<path class="st15" d="M129.1,269.3c-1.2,0-2.3,0-3.5,0c-1.1,0-1.7-0.4-1.6-1.6c0.1-1.1-0.2-2.4,1.5-2.4c2.5-0.1,4.9-0.1,7.4,0
					c1.4,0,1.5,1.1,1.5,2.2c0,1.1-0.3,1.8-1.5,1.9C131.6,269.3,130.3,269.3,129.1,269.3C129.1,269.3,129.1,269.3,129.1,269.3z"/>
			</g>
		</g>
		<polygon class="st15" points="177.4,310 52.9,310 53.2,306.9 176.2,306.9 		"/>
	</g>
	<g>
		<path class="st15" d="M279.7,394.5c-9.3,0-16.9-7.6-16.9-16.8V65.6c0-9.3,7.6-16.8,16.8-16.8h112.9c9.3,0,16.8,7.6,16.8,16.8
			v312.1c0,9.3-7.6,16.8-16.8,16.8H279.7z"/>
		<g>
			<path class="st31" d="M274.4,214c-2.2,0-4-1.6-4-3.5v-2.4c0-2,1.8-3.5,4-3.5h123.8c2.2,0,4,1.6,4,3.5v2.4c0,2-1.8,3.5-4,3.5
				H274.4z"/>
			<g>
				<path class="st15" d="M274.4,213.7c-3.3,0-6-2.4-6-5.3V206c0-2.9,2.7-5.3,6-5.3h123.8c3.3,0,6,2.4,6,5.3v2.4
					c0,2.9-2.7,5.3-6,5.3H274.4z"/>
				<path class="st15" d="M274.4,212c-2.2,0-4-1.6-4-3.5v-2.4c0-2,1.8-3.5,4-3.5h123.8c2.2,0,4,1.6,4,3.5v2.4c0,2-1.8,3.5-4,3.5
					H274.4z"/>
				<path class="st9" d="M398.2,204H274.4c-1.3,0-2.4,0.9-2.4,2v2.4c0,1.1,1.1,2,2.4,2h123.8c1.3,0,2.4-0.9,2.4-2V206
					C400.6,204.9,399.6,204,398.2,204z"/>
				<path class="st32" d="M398.2,207.7H274.4c-1.3,0-2.3-0.8-2.4-1.9v0.1v2.4c0,1.1,1.1,2,2.4,2h123.8c1.3,0,2.4-0.9,2.4-2v-2.4
					v-0.1C400.5,206.9,399.5,207.7,398.2,207.7z"/>
			</g>
		</g>
		<g>
			<g>
				<path class="st31" d="M274.4,138.1c-2.2,0-4-1.6-4-3.5v-2.4c0-2,1.8-3.5,4-3.5h122.8c2.2,0,4,1.6,4,3.5v2.4c0,2-1.8,3.5-4,3.5
					H274.4z"/>
				<g>
					<path class="st15" d="M274.4,137.8c-3.3,0-6-2.4-6-5.3v-2.4c0-2.9,2.7-5.3,6-5.3h122.8c3.3,0,6,2.4,6,5.3v2.4
						c0,2.9-2.7,5.3-6,5.3H274.4z"/>
					<path class="st15" d="M274.4,136.1c-2.2,0-4-1.6-4-3.5v-2.4c0-2,1.8-3.5,4-3.5h122.8c2.2,0,4,1.6,4,3.5v2.4c0,2-1.8,3.5-4,3.5
						H274.4z"/>
					<path class="st9" d="M397.2,128.1H274.4c-1.3,0-2.4,0.9-2.4,2v2.4c0,1.1,1.1,2,2.4,2h122.8c1.3,0,2.4-0.9,2.4-2v-2.4
						C399.6,129,398.6,128.1,397.2,128.1z"/>
					<path class="st32" d="M397.2,131.8H274.4c-1.3,0-2.3-0.8-2.4-1.9v0.1v2.4c0,1.1,1.1,2,2.4,2h122.8c1.3,0,2.4-0.9,2.4-2V130
						v-0.1C399.5,131,398.5,131.8,397.2,131.8z"/>
				</g>
			</g>
			<g>
				<path class="st31" d="M274.4,297.2c-2.2,0-4-1.6-4-3.5v-2.4c0-2,1.8-3.5,4-3.5h123.8c2.2,0,4,1.6,4,3.5v2.4c0,2-1.8,3.5-4,3.5
					H274.4z"/>
				<g>
					<path class="st15" d="M274.4,296.9c-3.3,0-6-2.4-6-5.3v-2.4c0-2.9,2.7-5.3,6-5.3h123.8c3.3,0,6,2.4,6,5.3v2.4
						c0,2.9-2.7,5.3-6,5.3H274.4z"/>
					<path class="st15" d="M274.4,295.2c-2.2,0-4-1.6-4-3.5v-2.4c0-2,1.8-3.5,4-3.5h123.8c2.2,0,4,1.6,4,3.5v2.4c0,2-1.8,3.5-4,3.5
						H274.4z"/>
					<path class="st9" d="M398.2,287.2H274.4c-1.3,0-2.4,0.9-2.4,2v2.4c0,1.1,1.1,2,2.4,2h123.8c1.3,0,2.4-0.9,2.4-2v-2.4
						C400.6,288.1,399.6,287.2,398.2,287.2z"/>
					<path class="st32" d="M398.2,290.9H274.4c-1.3,0-2.3-0.8-2.4-1.9v0.1v2.4c0,1.1,1.1,2,2.4,2h123.8c1.3,0,2.4-0.9,2.4-2v-2.4
						V289C400.5,290.1,399.5,290.9,398.2,290.9z"/>
				</g>
			</g>
			<g>
				<path class="st15" d="M298.5,165.6c-0.5,0-0.9,0-1.4-0.1c-1.5-0.2-2.9-0.4-4.3-0.4s-2.9,0.1-4.3,0.4c-0.5,0.1-0.9,0.1-1.4,0.1
					c-4.1,0-7.5-2.9-7.5-6.4v-9.3c0-3,2.4-5.6,5.8-6.3c2.4-0.5,4.9-0.7,7.4-0.7s5,0.3,7.4,0.7c3.4,0.6,5.8,3.3,5.8,6.3v9.3
					c0,1.7-0.8,3.5-2.3,4.7C302.3,164.9,300.4,165.6,298.5,165.6z"/>
				<path class="st15" d="M298.5,163.9c-0.4,0-0.7,0-1-0.1c-1.6-0.3-3.1-0.4-4.6-0.4c-1.6,0-3.1,0.1-4.6,0.4c-0.4,0.1-0.7,0.1-1,0.1
					c-3.1,0-5.7-2.1-5.7-4.8v-9.3c0-2.2,1.8-4.1,4.4-4.7c2.3-0.5,4.6-0.6,7-0.6s4.7,0.2,7,0.6c2.6,0.6,4.4,2.5,4.4,4.7v9.3
					c0,1.3-0.6,2.6-1.7,3.4C301.3,163.5,300,163.9,298.5,163.9z"/>
				<path class="st30" d="M299.2,147.3c-4.2-0.8-8.6-0.8-12.8,0c-1.5,0.3-2.5,1.4-2.5,2.6v9.3c0,1.7,1.8,2.9,3.8,2.6
					c3.4-0.6,6.8-0.6,10.2,0c1.9,0.3,3.8-0.9,3.8-2.6v-9.3C301.6,148.6,300.6,147.6,299.2,147.3z"/>
				<path class="st9" d="M299.2,147.3c-4.2-0.8-8.6-0.8-12.8,0c-1.5,0.3-2.5,1.4-2.5,2.6v1.3c0-1.2,1-2.3,2.5-2.6
					c4.2-0.8,8.6-0.8,12.8,0c1.5,0.3,2.5,1.4,2.5,2.6v-1.3C301.6,148.6,300.6,147.6,299.2,147.3z"/>
				<path class="st15" d="M280,204.4c-5.7,0-10.3-4-10.3-8.7v-25.1c0-10.7,10.4-19.3,23.2-19.3c12.8,0,23.2,8.7,23.2,19.3v25.1
					c0,4.9-4.6,8.7-10.3,8.7H280z"/>
				<path class="st15" d="M280,202.7c-4.7,0-8.6-3.2-8.6-7.2v-25.1c0-9.8,9.6-17.8,21.4-17.8c11.8,0,21.4,7.9,21.4,17.8v25.1
					c0,4-3.9,7.2-8.6,7.2H280z"/>
				<path class="st30" d="M306.1,200.5h-26.8c-3,0-5.4-2.5-5.4-5.4v-23.1c0-9.5,7.6-17.1,17.1-17.1h3.5c9.5,0,17.1,7.6,17.1,17.1
					v23.1C311.6,198.1,309.2,200.5,306.1,200.5z"/>
				<path class="st2" d="M308.2,161.6c1.2,2.1,1.9,4.5,1.9,7.1v22.1c0,2.7-2.4,4.9-5.2,4.9h-24.3c-2.9,0-5.2-2.2-5.2-4.9v-22.1
					c0-2.6,0.7-5,1.9-7.1c-2.1,2.7-3.4,6-3.4,9.6v23.9c0,2.9,2.6,5.2,5.7,5.2h26.3c3.1,0,5.7-2.4,5.7-5.2v-23.9
					C311.6,167.7,310.4,164.4,308.2,161.6z"/>
				<path class="st15" d="M292.8,188.5c-6.5,0-13.2-0.6-19.7-1.7l-1-0.2c-0.4-0.1-0.6-0.2-0.9-0.5c-0.8-0.1-1.6-0.8-1.6-1.7v-14.1
					c0-0.3,0-0.5,0-0.6l0.1-2.6c0-0.5,0.3-0.9,0.6-1.2c0.3-0.3,0.7-0.4,1.1-0.4c0.1,0,0.2,0,0.3,0l2.9,0.5c6,1,12.1,1.6,18.1,1.6
					s12.1-0.6,18-1.6l2.9-0.6c0.1,0,0.2,0,0.4,0c0.4,0,0.8,0.1,1.1,0.4c0.4,0.3,0.6,0.7,0.6,1.2l0.1,2.6c0,0.2,0,0.5,0,0.6v14.1
					c0,0.8-0.6,1.5-1.6,1.7c-0.3,0.2-0.6,0.4-0.9,0.5l-1,0.2C305.9,187.9,299.4,188.5,292.8,188.5z"/>
				<path class="st15" d="M292.8,186.9c-6.4,0-13-0.6-19.3-1.7l-1-0.2l0.1-0.5h-1.1v-14.1c0-0.2,0-0.4,0-0.6l0.1-2.6l2.9,0.5
					c6.1,1.1,12.2,1.6,18.3,1.6s12.2-0.6,18.3-1.6l2.9-0.6l0.1,2.6c0,0.2,0,0.4,0,0.6v14.1h-1.1l0.1,0.5l-1,0.2
					C305.8,186.3,299.2,186.9,292.8,186.9z"/>
				<path class="st15" d="M292.8,185.9c-6.4,0-12.8-0.6-19.2-1.7l0.2-0.6h-1.4v-13.2c0-0.2,0-0.4,0-0.6l0.1-1.5l1.7,0.3
					c6.1,1.1,12.3,1.7,18.5,1.7s12.4-0.6,18.5-1.7l1.7-0.3l0.1,1.6c0,0.2,0,0.4,0,0.6v13.2h-1.4l0.2,0.6
					C305.7,185.4,299.2,185.9,292.8,185.9z"/>
				<path class="st9" d="M311.6,169.8c-12.4,2.2-25.2,2.2-37.7,0c0,0.2,0,0.4,0,0.6v1.6v10v1.6c0-0.2,0-0.4,0-0.6
					c12.4,2.2,25.2,2.2,37.7,0c0,0.2,0,0.4,0,0.6V182v-10v-1.6C311.6,170.2,311.6,170,311.6,169.8z"/>
			</g>
			<g>
				<path class="st15" d="M341.5,165.6c-0.5,0-0.9,0-1.4-0.1c-1.5-0.2-2.9-0.4-4.3-0.4s-2.9,0.1-4.3,0.4c-0.5,0.1-0.9,0.1-1.4,0.1
					c-4.1,0-7.5-2.9-7.5-6.4v-9.3c0-3,2.4-5.6,5.8-6.3c2.4-0.5,4.9-0.7,7.4-0.7s5,0.3,7.4,0.7c3.4,0.6,5.8,3.3,5.8,6.3v9.3
					c0,1.7-0.8,3.5-2.3,4.7C345.3,164.9,343.5,165.6,341.5,165.6z"/>
				<path class="st15" d="M341.5,163.9c-0.4,0-0.7,0-1-0.1c-1.6-0.3-3.1-0.4-4.6-0.4c-1.6,0-3.1,0.1-4.6,0.4c-0.4,0.1-0.7,0.1-1,0.1
					c-3.1,0-5.7-2.1-5.7-4.8v-9.3c0-2.2,1.8-4.1,4.4-4.7c2.3-0.5,4.6-0.6,7-0.6s4.7,0.2,7,0.6c2.6,0.6,4.4,2.5,4.4,4.7v9.3
					c0,1.3-0.6,2.6-1.7,3.4C344.4,163.5,343,163.9,341.5,163.9z"/>
				<path class="st33" d="M342.3,147.3c-4.2-0.8-8.6-0.8-12.8,0c-1.5,0.3-2.5,1.4-2.5,2.6v9.3c0,1.7,1.8,2.9,3.8,2.6
					c3.4-0.6,6.8-0.6,10.2,0c1.9,0.3,3.8-0.9,3.8-2.6v-9.3C344.7,148.6,343.7,147.6,342.3,147.3z"/>
				<path class="st9" d="M342.3,147.3c-4.2-0.8-8.6-0.8-12.8,0c-1.5,0.3-2.5,1.4-2.5,2.6v1.3c0-1.2,1-2.3,2.5-2.6
					c4.2-0.8,8.6-0.8,12.8,0c1.5,0.3,2.5,1.4,2.5,2.6v-1.3C344.7,148.6,343.7,147.6,342.3,147.3z"/>
				<path class="st15" d="M323,204.4c-5.7,0-10.3-4-10.3-8.7v-25.1c0-10.7,10.4-19.3,23.2-19.3c12.8,0,23.2,8.7,23.2,19.3v25.1
					c0,4.9-4.6,8.7-10.3,8.7H323z"/>
				<path class="st15" d="M323,202.7c-4.7,0-8.6-3.2-8.6-7.2v-25.1c0-9.8,9.6-17.8,21.4-17.8c11.8,0,21.4,7.9,21.4,17.8v25.1
					c0,4-3.9,7.2-8.6,7.2H323z"/>
				<path class="st33" d="M349.2,200.5h-26.8c-3,0-5.4-2.5-5.4-5.4v-23.1c0-9.5,7.6-17.1,17.1-17.1h3.5c9.5,0,17.1,7.6,17.1,17.1
					v23.1C354.7,198.1,352.2,200.5,349.2,200.5z"/>
				<path class="st34" d="M351.3,161.6c1.2,2.1,1.9,4.5,1.9,7.1v22.1c0,2.7-2.4,4.9-5.2,4.9h-24.3c-2.9,0-5.2-2.2-5.2-4.9v-22.1
					c0-2.6,0.7-5,1.9-7.1c-2.1,2.7-3.4,6-3.4,9.6v23.9c0,2.9,2.6,5.2,5.7,5.2H349c3.1,0,5.7-2.4,5.7-5.2v-23.9
					C354.7,167.7,353.4,164.4,351.3,161.6z"/>
				<path class="st15" d="M335.8,188.5c-6.5,0-13.2-0.6-19.7-1.7l-1-0.2c-0.4-0.1-0.6-0.2-0.9-0.5c-0.8-0.1-1.6-0.8-1.6-1.7v-14.1
					c0-0.3,0-0.5,0-0.6l0.1-2.6c0-0.5,0.3-0.9,0.6-1.2c0.3-0.3,0.7-0.4,1.1-0.4c0.1,0,0.2,0,0.3,0l2.9,0.5c6,1,12.1,1.6,18.1,1.6
					s12.1-0.6,18-1.6l2.9-0.6c0.1,0,0.2,0,0.4,0c0.4,0,0.8,0.1,1.1,0.4c0.4,0.3,0.6,0.7,0.6,1.2l0.1,2.6c0,0.2,0,0.5,0,0.6v14.1
					c0,0.8-0.6,1.5-1.6,1.7c-0.3,0.2-0.6,0.4-0.9,0.5l-1,0.2C349,187.9,342.5,188.5,335.8,188.5z"/>
				<path class="st15" d="M335.8,186.9c-6.4,0-13-0.6-19.3-1.7l-1-0.2l0.1-0.5h-1.1v-14.1c0-0.2,0-0.4,0-0.6l0.1-2.6l2.9,0.5
					c6.1,1.1,12.2,1.6,18.3,1.6c6.1,0,12.2-0.6,18.3-1.6l2.9-0.6l0.1,2.6c0,0.2,0,0.4,0,0.6v14.1H356l0.1,0.5l-1,0.2
					C348.8,186.3,342.3,186.9,335.8,186.9z"/>
				<path class="st15" d="M335.8,185.9c-6.4,0-12.8-0.6-19.2-1.7l0.2-0.6h-1.4v-13.2c0-0.2,0-0.4,0-0.6l0.1-1.5l1.7,0.3
					c6.1,1.1,12.3,1.7,18.5,1.7c6.2,0,12.4-0.6,18.5-1.7l1.7-0.3l0.1,1.6c0,0.2,0,0.4,0,0.6v13.2h-1.4l0.2,0.6
					C348.7,185.4,342.3,185.9,335.8,185.9z"/>
				<path class="st9" d="M354.7,169.8c-12.4,2.2-25.2,2.2-37.7,0c0,0.2,0,0.4,0,0.6v1.6v10v1.6c0-0.2,0-0.4,0-0.6
					c12.4,2.2,25.2,2.2,37.7,0c0,0.2,0,0.4,0,0.6V182v-10v-1.6C354.7,170.2,354.7,170,354.7,169.8z"/>
			</g>
			<g>
				<path class="st15" d="M384.6,165.6c-0.5,0-0.9,0-1.4-0.1c-1.5-0.2-2.9-0.4-4.3-0.4s-2.9,0.1-4.3,0.4c-0.5,0.1-0.9,0.1-1.4,0.1
					c-4.1,0-7.5-2.9-7.5-6.4v-9.3c0-3,2.4-5.6,5.8-6.3c2.4-0.5,4.9-0.7,7.4-0.7s5,0.3,7.4,0.7c3.4,0.6,5.8,3.3,5.8,6.3v9.3
					c0,1.7-0.8,3.5-2.3,4.7C388.4,164.9,386.5,165.6,384.6,165.6z"/>
				<path class="st15" d="M384.6,163.9c-0.4,0-0.7,0-1-0.1c-1.6-0.3-3.1-0.4-4.6-0.4c-1.6,0-3.1,0.1-4.6,0.4c-0.4,0.1-0.7,0.1-1,0.1
					c-3.1,0-5.7-2.1-5.7-4.8v-9.3c0-2.2,1.8-4.1,4.4-4.7c2.3-0.5,4.6-0.6,7-0.6s4.7,0.2,7,0.6c2.6,0.6,4.4,2.5,4.4,4.7v9.3
					c0,1.3-0.6,2.6-1.7,3.4C387.4,163.5,386.1,163.9,384.6,163.9z"/>
				<path class="st31" d="M385.3,147.3c-4.2-0.8-8.6-0.8-12.8,0c-1.5,0.3-2.5,1.4-2.5,2.6v9.3c0,1.7,1.8,2.9,3.8,2.6
					c3.4-0.6,6.8-0.6,10.2,0c1.9,0.3,3.8-0.9,3.8-2.6v-9.3C387.7,148.6,386.7,147.6,385.3,147.3z"/>
				<path class="st9" d="M385.3,147.3c-4.2-0.8-8.6-0.8-12.8,0c-1.5,0.3-2.5,1.4-2.5,2.6v1.3c0-1.2,1-2.3,2.5-2.6
					c4.2-0.8,8.6-0.8,12.8,0c1.5,0.3,2.5,1.4,2.5,2.6v-1.3C387.7,148.6,386.7,147.6,385.3,147.3z"/>
				<path class="st15" d="M366.1,204.4c-5.7,0-10.3-4-10.3-8.7v-25.1c0-10.7,10.4-19.3,23.2-19.3c12.8,0,23.2,8.7,23.2,19.3v25.1
					c0,4.9-4.6,8.7-10.3,8.7H366.1z"/>
				<path class="st15" d="M366.1,202.7c-4.7,0-8.6-3.2-8.6-7.2v-25.1c0-9.8,9.6-17.8,21.4-17.8c11.8,0,21.4,7.9,21.4,17.8v25.1
					c0,4-3.9,7.2-8.6,7.2H366.1z"/>
				<path class="st35" d="M392.2,200.5h-26.8c-3,0-5.4-2.5-5.4-5.4v-23.1c0-9.5,7.6-17.1,17.1-17.1h3.5c9.5,0,17.1,7.6,17.1,17.1
					v23.1C397.8,198.1,395.3,200.5,392.2,200.5z"/>
				<path class="st31" d="M394.3,161.6c1.2,2.1,1.9,4.5,1.9,7.1v22.1c0,2.7-2.4,4.9-5.2,4.9h-24.3c-2.9,0-5.2-2.2-5.2-4.9v-22.1
					c0-2.6,0.7-5,1.9-7.1c-2.1,2.7-3.4,6-3.4,9.6v23.9c0,2.9,2.6,5.2,5.7,5.2H392c3.1,0,5.7-2.4,5.7-5.2v-23.9
					C397.8,167.7,396.5,164.4,394.3,161.6z"/>
				<path class="st15" d="M378.9,188.5c-6.5,0-13.2-0.6-19.7-1.7l-1-0.2c-0.4-0.1-0.6-0.2-0.9-0.5c-0.8-0.1-1.6-0.8-1.6-1.7v-14.1
					c0-0.3,0-0.5,0-0.6l0.1-2.6c0-0.5,0.3-0.9,0.6-1.2c0.3-0.3,0.7-0.4,1.1-0.4c0.1,0,0.2,0,0.3,0l2.9,0.5c6,1,12.1,1.6,18.1,1.6
					s12.1-0.6,18-1.6l2.9-0.6c0.1,0,0.2,0,0.4,0c0.4,0,0.8,0.1,1.1,0.4c0.4,0.3,0.6,0.7,0.6,1.2l0.1,2.6c0,0.2,0,0.5,0,0.6v14.1
					c0,0.8-0.6,1.5-1.6,1.7c-0.3,0.2-0.6,0.4-0.9,0.5l-1,0.2C392,187.9,385.5,188.5,378.9,188.5z"/>
				<path class="st15" d="M378.9,186.9c-6.4,0-13-0.6-19.3-1.7l-1-0.2l0.1-0.5h-1.1v-14.1c0-0.2,0-0.4,0-0.6l0.1-2.6l2.9,0.5
					c6.1,1.1,12.2,1.6,18.3,1.6c6.1,0,12.2-0.6,18.3-1.6l2.9-0.6l0.1,2.6c0,0.2,0,0.4,0,0.6v14.1H399l0.1,0.5l-1,0.2
					C391.9,186.3,385.3,186.9,378.9,186.9z"/>
				<path class="st15" d="M378.9,185.9c-6.4,0-12.8-0.6-19.2-1.7l0.2-0.6h-1.4v-13.2c0-0.2,0-0.4,0-0.6l0.1-1.5l1.7,0.3
					c6.1,1.1,12.3,1.7,18.5,1.7c6.2,0,12.4-0.6,18.5-1.7l1.7-0.3l0.1,1.6c0,0.2,0,0.4,0,0.6v13.2h-1.4l0.2,0.6
					C391.8,185.4,385.3,185.9,378.9,185.9z"/>
				<path class="st9" d="M397.8,169.8c-12.4,2.2-25.2,2.2-37.7,0c0,0.2,0,0.4,0,0.6v1.6v10v1.6c0-0.2,0-0.4,0-0.6
					c12.4,2.2,25.2,2.2,37.7,0c0,0.2,0,0.4,0,0.6V182v-10v-1.6C397.8,170.2,397.8,170,397.8,169.8z"/>
			</g>
			<g>
				<path class="st15" d="M325,84.6c-1.5-1.2-2.3-2.9-2.3-4.7v-9.3c0-2.9,2.4-5.6,5.8-6.3c2.4-0.5,4.9-0.7,7.4-0.7s5,0.3,7.4,0.7
					c3.4,0.6,5.8,3.2,5.8,6.3v9.3c0,3.6-3.3,6.4-7.5,6.4c-0.5,0-0.9,0-1.4-0.1c-1.4-0.3-2.9-0.4-4.3-0.4s-2.9,0.2-4.3,0.4
					c-0.5,0.1-0.9,0.1-1.4,0.1C328.3,86.4,326.4,85.7,325,84.6z"/>
				<path class="st15" d="M326.1,83.3c-1.1-0.8-1.7-2.1-1.7-3.4v-9.3c0-2.2,1.8-4.1,4.4-4.7c2.3-0.5,4.6-0.6,7-0.6
					c2.4,0,4.7,0.2,7,0.6c2.6,0.6,4.4,2.5,4.4,4.7v9.3c0,2.7-2.6,4.8-5.7,4.8c-0.3,0-0.6,0-1-0.1c-1.5-0.3-3-0.4-4.6-0.4
					c-1.5,0-3,0.1-4.6,0.4c-0.3,0.1-0.6,0.1-1,0.1C328.7,84.7,327.3,84.3,326.1,83.3z"/>
				<path class="st35" d="M327,70.6v9.3c0,1.7,1.8,2.9,3.8,2.6c3.4-0.6,6.8-0.6,10.2,0c1.9,0.3,3.8-0.9,3.8-2.6v-9.3
					c0-1.2-1-2.3-2.5-2.6c-4.2-0.8-8.6-0.8-12.8,0C328.1,68.4,327.1,69.4,327,70.6z"/>
				<path class="st9" d="M327,70.6v1.3c0-1.2,1-2.3,2.5-2.6c4.2-0.8,8.6-0.8,12.8,0c1.5,0.3,2.5,1.4,2.5,2.6v-1.3
					c0-1.2-1-2.3-2.5-2.6c-4.2-0.8-8.6-0.8-12.8,0C328.1,68.4,327.1,69.4,327,70.6z"/>
				<path class="st15" d="M322.9,125.2c-5.7,0-10.3-3.9-10.3-8.7V91.3c0-10.7,10.4-19.3,23.2-19.3c12.8,0,23.2,8.7,23.2,19.3v25.1
					c0,4.8-4.6,8.7-10.3,8.7H322.9z"/>
				<path class="st15" d="M323.1,123.5c-4.7,0-8.6-3.2-8.6-7.2V91.2c0-9.9,9.6-17.8,21.4-17.8c11.8,0,21.4,8,21.4,17.8v25.1
					c0,4-3.9,7.2-8.6,7.2H323.1z"/>
				<path class="st35" d="M317,115.9V92.7c0-9.5,7.6-17.1,17.1-17.1h3.5c9.5,0,17.1,7.6,17.1,17.1v23.1c0,2.9-2.4,5.4-5.4,5.4h-26.8
					C319.5,121.3,317,118.9,317,115.9z"/>
				<path class="st31" d="M317,92v23.9c0,2.9,2.6,5.2,5.7,5.2h26.3c3.1,0,5.7-2.4,5.7-5.2V92c0-3.6-1.3-6.9-3.4-9.6
					c1.2,2.1,1.9,4.5,1.9,7.1v22.1c0,2.7-2.4,4.9-5.2,4.9h-24.3c-2.9,0-5.2-2.2-5.2-4.9V89.5c0-2.6,0.7-5,1.9-7.1
					C318.3,85.2,317,88.5,317,92z"/>
				<path class="st15" d="M316.5,107.5l-1-0.2c-0.4-0.1-0.6-0.3-0.9-0.5c-0.9-0.2-1.6-0.8-1.6-1.7V91.1c0-0.2,0-0.5,0-0.6l0.1-2.6
					c0-0.5,0.3-0.9,0.6-1.2c0.3-0.3,0.7-0.4,1.1-0.4c0.2,0,0.3,0,0.4,0l2.9,0.6c5.9,1,12,1.6,18,1.6s12.1-0.6,18.1-1.6l2.9-0.5
					c0.1,0,0.2,0,0.3,0c0.4,0,0.8,0.1,1.1,0.4c0.4,0.3,0.6,0.7,0.6,1.2l0.1,2.6c0,0.2,0,0.4,0,0.6v14.1c0,0.8-0.7,1.6-1.6,1.7
					c-0.3,0.3-0.6,0.4-0.9,0.5l-1,0.2c-6.5,1.2-13.2,1.7-19.7,1.7C329.3,109.3,322.7,108.7,316.5,107.5z"/>
				<path class="st15" d="M316.7,105.8l-1-0.2l0.1-0.5h-1.1V91.1c0-0.2,0-0.4,0-0.6l0.1-2.6l2.9,0.6c6.1,1,12.2,1.6,18.3,1.6
					c6.1,0,12.2-0.5,18.3-1.6l2.9-0.5l0.1,2.6c0,0.3,0,0.5,0,0.6v14.1h-1.1l0.1,0.5l-1,0.2c-6.4,1.1-12.9,1.7-19.3,1.7
					S322.9,107.1,316.7,105.8z"/>
				<path class="st15" d="M316.8,105.2l0.2-0.6h-1.4V91.4c0-0.2,0-0.4,0-0.6l0.1-1.6l1.7,0.3c6.1,1.1,12.3,1.7,18.5,1.7
					c6.2,0,12.4-0.6,18.5-1.7l1.7-0.3l0.1,1.5c0,0.2,0,0.4,0,0.6v13.2h-1.4l0.2,0.6c-6.4,1.1-12.8,1.7-19.2,1.7
					C329.5,106.7,323,106.2,316.8,105.2z"/>
				<path class="st9" d="M317,91.2v1.6v10v1.6c0-0.2,0-0.4,0-0.6c12.4,2.2,25.2,2.2,37.7,0c0,0.2,0,0.4,0,0.6v-1.6v-10v-1.6
					c0-0.2,0-0.4,0-0.6c-12.4,2.2-25.2,2.2-37.7,0C317,90.8,317,91,317,91.2z"/>
			</g>
			<g>
				<path class="st15" d="M282,84.6c-1.5-1.2-2.3-2.9-2.3-4.7v-9.3c0-2.9,2.4-5.6,5.8-6.3c2.4-0.5,4.9-0.7,7.4-0.7s5,0.3,7.4,0.7
					c3.4,0.6,5.8,3.2,5.8,6.3v9.3c0,3.6-3.3,6.4-7.5,6.4c-0.5,0-0.9,0-1.4-0.1c-1.4-0.3-2.9-0.4-4.3-0.4s-2.9,0.2-4.3,0.4
					c-0.5,0.1-0.9,0.1-1.4,0.1C285.2,86.4,283.4,85.7,282,84.6z"/>
				<path class="st15" d="M283,83.3c-1.1-0.8-1.7-2.1-1.7-3.4v-9.3c0-2.2,1.8-4.1,4.4-4.7c2.3-0.5,4.6-0.6,7-0.6s4.7,0.2,7,0.6
					c2.6,0.6,4.4,2.5,4.4,4.7v9.3c0,2.7-2.6,4.8-5.7,4.8c-0.3,0-0.6,0-1-0.1c-1.5-0.3-3-0.4-4.6-0.4c-1.5,0-3,0.1-4.6,0.4
					c-0.3,0.1-0.6,0.1-1,0.1C285.7,84.7,284.3,84.3,283,83.3z"/>
				<path class="st33" d="M283.9,70.6v9.3c0,1.7,1.8,2.9,3.8,2.6c3.4-0.6,6.8-0.6,10.2,0c1.9,0.3,3.8-0.9,3.8-2.6v-9.3
					c0-1.2-1-2.3-2.5-2.6c-4.2-0.8-8.6-0.8-12.8,0C285,68.4,284,69.4,283.9,70.6z"/>
				<path class="st9" d="M283.9,70.6v1.3c0-1.2,1-2.3,2.5-2.6c4.2-0.8,8.6-0.8,12.8,0c1.5,0.3,2.5,1.4,2.5,2.6v-1.3
					c0-1.2-1-2.3-2.5-2.6c-4.2-0.8-8.6-0.8-12.8,0C285,68.4,284,69.4,283.9,70.6z"/>
				<path class="st15" d="M279.9,125.2c-5.7,0-10.3-3.9-10.3-8.7V91.3c0-10.7,10.4-19.3,23.2-19.3c12.8,0,23.2,8.7,23.2,19.3v25.1
					c0,4.8-4.6,8.7-10.3,8.7H279.9z"/>
				<path class="st15" d="M280.1,123.5c-4.7,0-8.6-3.2-8.6-7.2V91.2c0-9.9,9.6-17.8,21.4-17.8c11.8,0,21.4,8,21.4,17.8v25.1
					c0,4-3.9,7.2-8.6,7.2H280.1z"/>
				<path class="st33" d="M274,115.9V92.7c0-9.5,7.6-17.1,17.1-17.1h3.5c9.5,0,17.1,7.6,17.1,17.1v23.1c0,2.9-2.4,5.4-5.4,5.4h-26.8
					C276.5,121.3,274,118.9,274,115.9z"/>
				<path class="st34" d="M274,92v23.9c0,2.9,2.6,5.2,5.7,5.2H306c3.1,0,5.7-2.4,5.7-5.2V92c0-3.6-1.3-6.9-3.4-9.6
					c1.2,2.1,1.9,4.5,1.9,7.1v22.1c0,2.7-2.4,4.9-5.2,4.9h-24.3c-2.9,0-5.2-2.2-5.2-4.9V89.5c0-2.6,0.7-5,1.9-7.1
					C275.3,85.2,274,88.5,274,92z"/>
				<path class="st15" d="M273.4,107.5l-1-0.2c-0.4-0.1-0.6-0.3-0.9-0.5c-0.9-0.2-1.6-0.8-1.6-1.7V91.1c0-0.2,0-0.5,0-0.6l0.1-2.6
					c0-0.5,0.3-0.9,0.6-1.2c0.3-0.3,0.7-0.4,1.1-0.4c0.2,0,0.3,0,0.4,0l2.9,0.6c5.9,1,12,1.6,18,1.6s12.1-0.6,18.1-1.6l2.9-0.5
					c0.1,0,0.2,0,0.3,0c0.4,0,0.8,0.1,1.1,0.4c0.4,0.3,0.6,0.7,0.6,1.2l0.1,2.6c0,0.2,0,0.4,0,0.6v14.1c0,0.8-0.7,1.6-1.6,1.7
					c-0.3,0.3-0.6,0.4-0.9,0.5l-1,0.2c-6.5,1.2-13.2,1.7-19.7,1.7C286.2,109.3,279.7,108.7,273.4,107.5z"/>
				<path class="st15" d="M273.6,105.8l-1-0.2l0.1-0.5h-1.1V91.1c0-0.2,0-0.4,0-0.6l0.1-2.6l2.9,0.6c6.1,1,12.2,1.6,18.3,1.6
					c6.1,0,12.2-0.5,18.3-1.6l2.9-0.5l0.1,2.6c0,0.3,0,0.5,0,0.6v14.1h-1.1l0.1,0.5l-1,0.2c-6.4,1.1-12.9,1.7-19.3,1.7
					S279.9,107.1,273.6,105.8z"/>
				<path class="st15" d="M273.7,105.2l0.2-0.6h-1.4V91.4c0-0.2,0-0.4,0-0.6l0.1-1.6l1.7,0.3c6.1,1.1,12.3,1.7,18.5,1.7
					c6.2,0,12.4-0.6,18.5-1.7l1.7-0.3l0.1,1.5c0,0.2,0,0.4,0,0.6v13.2h-1.4l0.2,0.6c-6.4,1.1-12.8,1.7-19.2,1.7
					C286.4,106.7,280,106.2,273.7,105.2z"/>
				<path class="st9" d="M274,91.2v1.6v10v1.6c0-0.2,0-0.4,0-0.6c12.4,2.2,25.2,2.2,37.7,0c0,0.2,0,0.4,0,0.6v-1.6v-10v-1.6
					c0-0.2,0-0.4,0-0.6c-12.4,2.2-25.2,2.2-37.7,0C274,90.8,274,91,274,91.2z"/>
			</g>
			<g>
				<path class="st15" d="M384.6,86.4c-0.5,0-0.9,0-1.4-0.1c-1.5-0.2-2.9-0.4-4.3-0.4s-2.9,0.1-4.3,0.4c-0.5,0.1-0.9,0.1-1.4,0.1
					c-4.1,0-7.5-2.9-7.5-6.4v-9.3c0-3,2.4-5.6,5.8-6.3c2.4-0.5,4.9-0.7,7.4-0.7s5,0.3,7.4,0.7c3.4,0.6,5.8,3.3,5.8,6.3v9.3
					c0,1.7-0.8,3.5-2.3,4.7C388.4,85.7,386.5,86.4,384.6,86.4z"/>
				<path class="st15" d="M384.6,84.7c-0.4,0-0.7,0-1-0.1c-1.6-0.3-3.1-0.4-4.6-0.4c-1.6,0-3.1,0.1-4.6,0.4c-0.4,0.1-0.7,0.1-1,0.1
					c-3.1,0-5.7-2.1-5.7-4.8v-9.3c0-2.2,1.8-4.1,4.4-4.7c2.3-0.5,4.6-0.6,7-0.6s4.7,0.2,7,0.6c2.6,0.6,4.4,2.5,4.4,4.7v9.3
					c0,1.3-0.6,2.6-1.7,3.4C387.4,84.3,386.1,84.7,384.6,84.7z"/>
				<path class="st30" d="M385.3,68.1c-4.2-0.8-8.6-0.8-12.8,0c-1.5,0.3-2.5,1.4-2.5,2.6v9.3c0,1.7,1.8,2.9,3.8,2.6
					c3.4-0.6,6.8-0.6,10.2,0c1.9,0.3,3.8-0.9,3.8-2.6v-9.3C387.7,69.4,386.7,68.4,385.3,68.1z"/>
				<path class="st9" d="M385.3,68.1c-4.2-0.8-8.6-0.8-12.8,0c-1.5,0.3-2.5,1.4-2.5,2.6v1.3c0-1.2,1-2.3,2.5-2.6
					c4.2-0.8,8.6-0.8,12.8,0c1.5,0.3,2.5,1.4,2.5,2.6v-1.3C387.7,69.4,386.7,68.4,385.3,68.1z"/>
				<path class="st15" d="M366.1,125.2c-5.7,0-10.3-4-10.3-8.7V91.3c0-10.7,10.4-19.3,23.2-19.3c12.8,0,23.2,8.7,23.2,19.3v25.1
					c0,4.9-4.6,8.7-10.3,8.7H366.1z"/>
				<path class="st15" d="M366.1,123.5c-4.7,0-8.6-3.2-8.6-7.2V91.2c0-9.8,9.6-17.8,21.4-17.8c11.8,0,21.4,7.9,21.4,17.8v25.1
					c0,4-3.9,7.2-8.6,7.2H366.1z"/>
				<path class="st30" d="M392.2,121.3h-26.8c-3,0-5.4-2.5-5.4-5.4V92.7c0-9.5,7.6-17.1,17.1-17.1h3.5c9.5,0,17.1,7.6,17.1,17.1
					v23.1C397.8,118.9,395.3,121.3,392.2,121.3z"/>
				<path class="st2" d="M394.3,82.4c1.2,2.1,1.9,4.5,1.9,7.1v22.1c0,2.7-2.4,4.9-5.2,4.9h-24.3c-2.9,0-5.2-2.2-5.2-4.9V89.5
					c0-2.6,0.7-5,1.9-7.1c-2.1,2.7-3.4,6-3.4,9.6v23.9c0,2.9,2.6,5.2,5.7,5.2H392c3.1,0,5.7-2.4,5.7-5.2V92
					C397.8,88.5,396.5,85.2,394.3,82.4z"/>
				<path class="st15" d="M378.9,109.3c-6.5,0-13.2-0.6-19.7-1.7l-1-0.2c-0.4-0.1-0.6-0.2-0.9-0.5c-0.8-0.1-1.6-0.8-1.6-1.7V91.2
					c0-0.3,0-0.5,0-0.6l0.1-2.6c0-0.5,0.3-0.9,0.6-1.2c0.3-0.3,0.7-0.4,1.1-0.4c0.1,0,0.2,0,0.3,0l2.9,0.5c6,1,12.1,1.6,18.1,1.6
					s12.1-0.6,18-1.6l2.9-0.6c0.1,0,0.2,0,0.4,0c0.4,0,0.8,0.1,1.1,0.4c0.4,0.3,0.6,0.7,0.6,1.2l0.1,2.6c0,0.2,0,0.5,0,0.6v14.1
					c0,0.8-0.6,1.5-1.6,1.7c-0.3,0.2-0.6,0.4-0.9,0.5l-1,0.2C392,108.7,385.5,109.3,378.9,109.3z"/>
				<path class="st15" d="M378.9,107.7c-6.4,0-13-0.6-19.3-1.7l-1-0.2l0.1-0.5h-1.1V91.3c0-0.2,0-0.4,0-0.6l0.1-2.6l2.9,0.5
					c6.1,1.1,12.2,1.6,18.3,1.6c6.1,0,12.2-0.6,18.3-1.6l2.9-0.6l0.1,2.6c0,0.2,0,0.4,0,0.6v14.1H399l0.1,0.5l-1,0.2
					C391.9,107.1,385.3,107.7,378.9,107.7z"/>
				<path class="st15" d="M378.9,106.7c-6.4,0-12.8-0.6-19.2-1.7l0.2-0.6h-1.4V91.3c0-0.2,0-0.4,0-0.6l0.1-1.5l1.7,0.3
					c6.1,1.1,12.3,1.7,18.5,1.7c6.2,0,12.4-0.6,18.5-1.7l1.7-0.3l0.1,1.6c0,0.2,0,0.4,0,0.6v13.2h-1.4l0.2,0.6
					C391.8,106.2,385.3,106.7,378.9,106.7z"/>
				<path class="st9" d="M397.8,90.6c-12.4,2.2-25.2,2.2-37.7,0c0,0.2,0,0.4,0,0.6v1.6v10v1.6c0-0.2,0-0.4,0-0.6
					c12.4,2.2,25.2,2.2,37.7,0c0,0.2,0,0.4,0,0.6v-1.6v-10v-1.6C397.8,91,397.8,90.8,397.8,90.6z"/>
			</g>
			<g>
				<path class="st31" d="M274.4,369.8c-2.2,0-4-1.6-4-3.5v-2.4c0-2,1.8-3.5,4-3.5h123.8c2.2,0,4,1.6,4,3.5v2.4c0,2-1.8,3.5-4,3.5
					H274.4z"/>
				<g>
					<path class="st15" d="M274.4,369.5c-3.3,0-6-2.4-6-5.3v-2.4c0-2.9,2.7-5.3,6-5.3h123.8c3.3,0,6,2.4,6,5.3v2.4
						c0,2.9-2.7,5.3-6,5.3H274.4z"/>
					<path class="st15" d="M274.4,367.8c-2.2,0-4-1.6-4-3.5v-2.4c0-2,1.8-3.5,4-3.5h123.8c2.2,0,4,1.6,4,3.5v2.4c0,2-1.8,3.5-4,3.5
						H274.4z"/>
					<path class="st9" d="M398.2,359.8H274.4c-1.3,0-2.4,0.9-2.4,2v2.4c0,1.1,1.1,2,2.4,2h123.8c1.3,0,2.4-0.9,2.4-2v-2.4
						C400.6,360.7,399.6,359.8,398.2,359.8z"/>
					<path class="st32" d="M398.2,363.5H274.4c-1.3,0-2.3-0.8-2.4-1.9v0.1v2.4c0,1.1,1.1,2,2.4,2h123.8c1.3,0,2.4-0.9,2.4-2v-2.4
						v-0.1C400.5,362.7,399.5,363.5,398.2,363.5z"/>
				</g>
			</g>
		</g>
		<g>
			<path class="st15" d="M294.3,287.5c-11.5,0-17.3-1.6-18.5-5.1l-2-3.1c-1.1-0.4-1.9-1.4-1.9-2.5v-33.2c0-0.5,0.1-1,0.4-1.4
				l4.4-6.8c0.5-0.9,1.5-1.4,2.5-1.4h30.1c1.1,0,2,0.5,2.5,1.4l4.3,6.8c0.3,0.4,0.4,0.9,0.4,1.4v30.6c0,0.2,0,0.4-0.1,0.6l-0.7,2.8
				c-0.1,0.3-0.2,0.5-0.3,0.8l-2.8,4.5C311.2,286.1,305.5,287.5,294.3,287.5z"/>
			<path class="st15" d="M294.3,285.8c-10.3,0-16-1.4-16.8-4l-2.5-3.9h-0.1c-0.6,0-1.1-0.5-1.1-1v-33.3c0-0.2,0.1-0.4,0.2-0.5
				l4.4-6.8c0.2-0.3,0.6-0.5,0.9-0.5h30.1c0.4,0,0.8,0.2,0.9,0.5l4.3,6.8c0.1,0.2,0.1,0.3,0.1,0.5v30.6c0,0.1,0,0.2,0,0.2l-0.7,2.8
				c0,0.1-0.1,0.2-0.1,0.3l-2.9,4.6C309.9,284.5,304.3,285.8,294.3,285.8z"/>
			<path class="st35" d="M312.2,275.5v-31.6l-3.7-5.9h-28.2l-3.7,5.9v31.7h0.1l3.5,5.5c0,0,0,0,0,0.1c0,1.3,6.3,2.3,14.2,2.3
				c7.8,0,14-1.1,14.2-2.3L312.2,275.5L312.2,275.5L312.2,275.5L312.2,275.5L312.2,275.5z"/>
			<path class="st15" d="M294.3,244.6c-8.1,0-18.8-0.7-18.8-6.4s10.7-6.4,18.8-6.4c8.1,0,18.8,0.7,18.8,6.4S302.4,244.6,294.3,244.6
				z"/>
			<path class="st15" d="M294.3,242.9c-11.2,0-16.9-1.6-16.9-4.7c0-3.1,5.7-4.7,16.9-4.7c11.2,0,16.9,1.6,16.9,4.7
				C311.3,241.3,305.6,242.9,294.3,242.9z"/>
			<ellipse class="st37" cx="294.3" cy="238.2" rx="14.2" ry="2.3"/>
			<ellipse class="st38" cx="291.2" cy="238.2" rx="11.1" ry="1.9"/>
			<path class="st15" d="M275,276.9l3.7,5.2l1.3-0.9l-3.8-6.3l-1.4,1.6C274.9,276.3,274.7,276.7,275,276.9z"/>
			<g>
				<path class="st15" d="M274.9,276.2c-0.7,0-1.3-0.2-1.9-0.6c-0.7-0.5-1.2-1.3-1.2-2.1v-17.9c0-1.3,0.9-2.3,2.2-2.6l38.9-9.3
					c0.3-0.1,0.5-0.1,0.8-0.1c0.7,0,1.3,0.2,1.9,0.6c0.7,0.5,1.2,1.4,1.2,2.1v18.6c0,1.3-1,2.3-2.2,2.6l-38.9,8.6
					C275.3,276.2,275.1,276.2,274.9,276.2z"/>
				<path class="st15" d="M274.9,274.5c-0.2,0-0.5-0.1-0.7-0.2c-0.3-0.2-0.4-0.5-0.4-0.8v-17.9c0-0.5,0.3-0.9,0.8-1l38.9-9.3
					c0.1,0,0.2,0,0.3,0c0.2,0,0.5,0.1,0.7,0.2c0.3,0.2,0.4,0.5,0.4,0.8v18.6c0,0.5-0.3,0.9-0.8,1l-38.9,8.6
					C275,274.5,274.9,274.5,274.9,274.5z"/>
				<polygon class="st38" points="276.5,256.4 276.5,271.6 312.2,264 312.2,248.3 				"/>
			</g>
		</g>
		<g>
			<path class="st15" d="M336.5,287.5c-11.5,0-17.3-1.6-18.5-5.1l-2-3.1c-1.1-0.4-1.9-1.4-1.9-2.5v-33.2c0-0.5,0.1-1,0.4-1.4
				l4.4-6.8c0.5-0.9,1.5-1.4,2.5-1.4h30.1c1.1,0,2,0.5,2.5,1.4l4.3,6.8c0.3,0.4,0.4,0.9,0.4,1.4v30.6c0,0.2,0,0.4-0.1,0.6l-0.7,2.8
				c-0.1,0.3-0.2,0.5-0.3,0.8l-2.8,4.5C353.4,286.1,347.6,287.5,336.5,287.5z"/>
			<path class="st15" d="M336.5,285.8c-10.3,0-16-1.4-16.8-4l-2.5-3.9h-0.1c-0.6,0-1.1-0.5-1.1-1v-33.3c0-0.2,0.1-0.4,0.2-0.5
				l4.4-6.8c0.2-0.3,0.6-0.5,0.9-0.5h30.1c0.4,0,0.8,0.2,0.9,0.5l4.3,6.8c0.1,0.2,0.1,0.3,0.1,0.5v30.6c0,0.1,0,0.2,0,0.2l-0.7,2.8
				c0,0.1-0.1,0.2-0.1,0.3l-2.9,4.6C352.1,284.5,346.4,285.8,336.5,285.8z"/>
			<path class="st30" d="M354.3,275.5v-31.6l-3.7-5.9h-28.2l-3.7,5.9v31.7h0.1l3.5,5.5c0,0,0,0,0,0.1c0,1.3,6.3,2.3,14.2,2.3
				c7.8,0,14-1.1,14.2-2.3L354.3,275.5L354.3,275.5L354.3,275.5L354.3,275.5L354.3,275.5z"/>
			<path class="st15" d="M336.5,244.6c-8.1,0-18.8-0.7-18.8-6.4s10.7-6.4,18.8-6.4c8.1,0,18.8,0.7,18.8,6.4S344.6,244.6,336.5,244.6
				z"/>
			<path class="st15" d="M336.5,242.9c-11.2,0-16.9-1.6-16.9-4.7c0-3.1,5.7-4.7,16.9-4.7c11.2,0,16.9,1.6,16.9,4.7
				C353.5,241.3,347.7,242.9,336.5,242.9z"/>
			<ellipse class="st37" cx="336.5" cy="238.2" rx="14.2" ry="2.3"/>
			<ellipse class="st38" cx="333.4" cy="238.2" rx="11.1" ry="1.9"/>
			<path class="st15" d="M317.2,276.9l3.7,5.2l1.3-0.9l-3.8-6.3l-1.4,1.6C317.1,276.3,316.9,276.7,317.2,276.9z"/>
			<g>
				<path class="st15" d="M317.1,276.2c-0.7,0-1.3-0.2-1.9-0.6c-0.7-0.5-1.2-1.3-1.2-2.1v-17.9c0-1.3,0.9-2.3,2.2-2.6l38.9-9.3
					c0.3-0.1,0.5-0.1,0.8-0.1c0.7,0,1.3,0.2,1.9,0.6c0.7,0.5,1.2,1.4,1.2,2.1v18.6c0,1.3-1,2.3-2.2,2.6l-38.9,8.6
					C317.5,276.2,317.3,276.2,317.1,276.2z"/>
				<path class="st15" d="M317.1,274.5c-0.2,0-0.5-0.1-0.7-0.2c-0.3-0.2-0.4-0.5-0.4-0.8v-17.9c0-0.5,0.3-0.9,0.8-1l38.9-9.3
					c0.1,0,0.2,0,0.3,0c0.2,0,0.5,0.1,0.7,0.2c0.3,0.2,0.4,0.5,0.4,0.8v18.6c0,0.5-0.3,0.9-0.8,1l-38.9,8.6
					C317.2,274.5,317.1,274.5,317.1,274.5z"/>
				<polygon class="st38" points="318.7,256.4 318.7,271.6 354.3,264 354.3,248.3 				"/>
			</g>
		</g>
		<g>
			<path class="st15" d="M378.1,287.5c-11.5,0-17.3-1.6-18.5-5.1l-2-3.1c-1.1-0.4-1.9-1.4-1.9-2.5v-33.2c0-0.5,0.1-1,0.4-1.4
				l4.4-6.8c0.5-0.9,1.5-1.4,2.5-1.4h30.1c1.1,0,2,0.5,2.5,1.4l4.3,6.8c0.3,0.4,0.4,0.9,0.4,1.4v30.6c0,0.2,0,0.4-0.1,0.6l-0.7,2.8
				c-0.1,0.3-0.2,0.5-0.3,0.8l-2.8,4.5C395,286.1,389.2,287.5,378.1,287.5z"/>
			<path class="st15" d="M378.1,285.8c-10.3,0-16-1.4-16.8-4l-2.5-3.9h-0.1c-0.6,0-1.1-0.5-1.1-1v-33.3c0-0.2,0.1-0.4,0.2-0.5
				l4.4-6.8c0.2-0.3,0.6-0.5,0.9-0.5h30.1c0.4,0,0.8,0.2,0.9,0.5l4.3,6.8c0.1,0.2,0.1,0.3,0.1,0.5v30.6c0,0.1,0,0.2,0,0.2l-0.7,2.8
				c0,0.1-0.1,0.2-0.1,0.3l-2.9,4.6C393.7,284.5,388,285.8,378.1,285.8z"/>
			<path class="st33" d="M395.9,275.5v-31.6l-3.7-5.9h-28.2l-3.7,5.9v31.7h0.1l3.5,5.5c0,0,0,0,0,0.1c0,1.3,6.3,2.3,14.2,2.3
				c7.8,0,14-1.1,14.2-2.3L395.9,275.5L395.9,275.5L395.9,275.5L395.9,275.5L395.9,275.5z"/>
			<path class="st15" d="M378.1,244.6c-8.1,0-18.8-0.7-18.8-6.4s10.7-6.4,18.8-6.4s18.8,0.7,18.8,6.4S386.2,244.6,378.1,244.6z"/>
			<path class="st15" d="M378.1,242.9c-11.2,0-16.9-1.6-16.9-4.7c0-3.1,5.7-4.7,16.9-4.7s16.9,1.6,16.9,4.7
				C395.1,241.3,389.3,242.9,378.1,242.9z"/>
			<ellipse class="st37" cx="378.1" cy="238.2" rx="14.2" ry="2.3"/>
			<ellipse class="st38" cx="375" cy="238.2" rx="11.1" ry="1.9"/>
			<path class="st15" d="M358.8,276.9l3.7,5.2l1.3-0.9l-3.8-6.3l-1.4,1.6C358.7,276.3,358.5,276.7,358.8,276.9z"/>
			<g>
				<path class="st15" d="M358.7,276.2c-0.7,0-1.3-0.2-1.9-0.6c-0.7-0.5-1.2-1.3-1.2-2.1v-17.9c0-1.3,0.9-2.3,2.2-2.6l38.9-9.3
					c0.3-0.1,0.5-0.1,0.8-0.1c0.7,0,1.3,0.2,1.9,0.6c0.7,0.5,1.2,1.4,1.2,2.1v18.6c0,1.3-1,2.3-2.2,2.6l-38.9,8.6
					C359.1,276.2,358.9,276.2,358.7,276.2z"/>
				<path class="st15" d="M358.7,274.5c-0.2,0-0.5-0.1-0.7-0.2c-0.3-0.2-0.4-0.5-0.4-0.8v-17.9c0-0.5,0.3-0.9,0.8-1l38.9-9.3
					c0.1,0,0.2,0,0.3,0c0.2,0,0.5,0.1,0.7,0.2c0.3,0.2,0.4,0.5,0.4,0.8v18.6c0,0.5-0.3,0.9-0.8,1l-38.9,8.6
					C358.8,274.5,358.7,274.5,358.7,274.5z"/>
				<polygon class="st38" points="360.2,256.4 360.2,271.6 395.9,264 395.9,248.3 				"/>
			</g>
		</g>
		<g>
			<path class="st15" d="M294.3,359.9c-11.5,0-17.3-1.6-18.5-5.1l-2-3.1c-1.1-0.4-1.9-1.4-1.9-2.5V316c0-0.5,0.1-1,0.4-1.4l4.4-6.8
				c0.5-0.9,1.5-1.4,2.5-1.4h30.1c1.1,0,2,0.5,2.5,1.4l4.3,6.8c0.3,0.4,0.4,0.9,0.4,1.4v30.6c0,0.2,0,0.4-0.1,0.6l-0.7,2.8
				c-0.1,0.3-0.2,0.5-0.3,0.8l-2.8,4.5C311.2,358.5,305.5,359.9,294.3,359.9z"/>
			<path class="st15" d="M294.3,358.2c-10.3,0-16-1.4-16.8-4l-2.5-3.9h-0.1c-0.6,0-1.1-0.5-1.1-1V316c0-0.2,0.1-0.4,0.2-0.5l4.4-6.8
				c0.2-0.3,0.6-0.5,0.9-0.5h30.1c0.4,0,0.8,0.2,0.9,0.5l4.3,6.8c0.1,0.2,0.1,0.3,0.1,0.5v30.6c0,0.1,0,0.2,0,0.2l-0.7,2.8
				c0,0.1-0.1,0.2-0.1,0.3l-2.9,4.6C309.9,356.9,304.3,358.2,294.3,358.2z"/>
			<path class="st30" d="M312.2,347.8v-31.6l-3.7-5.9h-28.2l-3.7,5.9v31.7h0.1l3.5,5.5c0,0,0,0,0,0.1c0,1.3,6.3,2.3,14.2,2.3
				c7.8,0,14-1.1,14.2-2.3L312.2,347.8L312.2,347.8L312.2,347.8L312.2,347.8L312.2,347.8z"/>
			<path class="st15" d="M294.3,317c-8.1,0-18.8-0.7-18.8-6.4s10.7-6.4,18.8-6.4c8.1,0,18.8,0.7,18.8,6.4S302.4,317,294.3,317z"/>
			<path class="st15" d="M294.3,315.3c-11.2,0-16.9-1.6-16.9-4.7c0-3.1,5.7-4.7,16.9-4.7c11.2,0,16.9,1.6,16.9,4.7
				C311.3,313.7,305.6,315.3,294.3,315.3z"/>
			<ellipse class="st37" cx="294.3" cy="310.6" rx="14.2" ry="2.3"/>
			<ellipse class="st38" cx="291.2" cy="310.6" rx="11.1" ry="1.9"/>
			<path class="st15" d="M275,349.3l3.7,5.2l1.3-0.9l-3.8-6.3l-1.4,1.6C274.9,348.7,274.7,349.1,275,349.3z"/>
			<g>
				<path class="st15" d="M274.9,348.6c-0.7,0-1.3-0.2-1.9-0.6c-0.7-0.5-1.2-1.3-1.2-2.1V328c0-1.3,0.9-2.3,2.2-2.6l38.9-9.3
					c0.3-0.1,0.5-0.1,0.8-0.1c0.7,0,1.3,0.2,1.9,0.6c0.7,0.5,1.2,1.4,1.2,2.1v18.6c0,1.3-1,2.3-2.2,2.6l-38.9,8.6
					C275.3,348.6,275.1,348.6,274.9,348.6z"/>
				<path class="st15" d="M274.9,346.9c-0.2,0-0.5-0.1-0.7-0.2c-0.3-0.2-0.4-0.5-0.4-0.8V328c0-0.5,0.3-0.9,0.8-1l38.9-9.3
					c0.1,0,0.2,0,0.3,0c0.2,0,0.5,0.1,0.7,0.2c0.3,0.2,0.4,0.5,0.4,0.8v18.6c0,0.5-0.3,0.9-0.8,1l-38.9,8.6
					C275,346.9,274.9,346.9,274.9,346.9z"/>
				<polygon class="st38" points="276.5,328.8 276.5,343.9 312.2,336.4 312.2,320.6 				"/>
			</g>
		</g>
		<g>
			<path class="st15" d="M336.5,359.9c-11.5,0-17.3-1.6-18.5-5.1l-2-3.1c-1.1-0.4-1.9-1.4-1.9-2.5V316c0-0.5,0.1-1,0.4-1.4l4.4-6.8
				c0.5-0.9,1.5-1.4,2.5-1.4h30.1c1.1,0,2,0.5,2.5,1.4l4.3,6.8c0.3,0.4,0.4,0.9,0.4,1.4v30.6c0,0.2,0,0.4-0.1,0.6L358,350
				c-0.1,0.3-0.2,0.5-0.3,0.8l-2.8,4.5C353.4,358.5,347.6,359.9,336.5,359.9z"/>
			<path class="st15" d="M336.5,358.2c-10.3,0-16-1.4-16.8-4l-2.5-3.9h-0.1c-0.6,0-1.1-0.5-1.1-1V316c0-0.2,0.1-0.4,0.2-0.5l4.4-6.8
				c0.2-0.3,0.6-0.5,0.9-0.5h30.1c0.4,0,0.8,0.2,0.9,0.5l4.3,6.8c0.1,0.2,0.1,0.3,0.1,0.5v30.6c0,0.1,0,0.2,0,0.2l-0.7,2.8
				c0,0.1-0.1,0.2-0.1,0.3l-2.9,4.6C352.1,356.9,346.4,358.2,336.5,358.2z"/>
			<path class="st33" d="M354.3,347.8v-31.6l-3.7-5.9h-28.2l-3.7,5.9v31.7h0.1l3.5,5.5c0,0,0,0,0,0.1c0,1.3,6.3,2.3,14.2,2.3
				c7.8,0,14-1.1,14.2-2.3L354.3,347.8L354.3,347.8L354.3,347.8L354.3,347.8L354.3,347.8z"/>
			<path class="st15" d="M336.5,317c-8.1,0-18.8-0.7-18.8-6.4s10.7-6.4,18.8-6.4c8.1,0,18.8,0.7,18.8,6.4S344.6,317,336.5,317z"/>
			<path class="st15" d="M336.5,315.3c-11.2,0-16.9-1.6-16.9-4.7c0-3.1,5.7-4.7,16.9-4.7c11.2,0,16.9,1.6,16.9,4.7
				C353.5,313.7,347.7,315.3,336.5,315.3z"/>
			<ellipse class="st37" cx="336.5" cy="310.6" rx="14.2" ry="2.3"/>
			<ellipse class="st38" cx="333.4" cy="310.6" rx="11.1" ry="1.9"/>
			<path class="st15" d="M317.2,349.3l3.7,5.2l1.3-0.9l-3.8-6.3l-1.4,1.6C317.1,348.7,316.9,349.1,317.2,349.3z"/>
			<g>
				<path class="st15" d="M317.1,348.6c-0.7,0-1.3-0.2-1.9-0.6c-0.7-0.5-1.2-1.3-1.2-2.1V328c0-1.3,0.9-2.3,2.2-2.6l38.9-9.3
					c0.3-0.1,0.5-0.1,0.8-0.1c0.7,0,1.3,0.2,1.9,0.6c0.7,0.5,1.2,1.4,1.2,2.1v18.6c0,1.3-1,2.3-2.2,2.6l-38.9,8.6
					C317.5,348.6,317.3,348.6,317.1,348.6z"/>
				<path class="st15" d="M317.1,346.9c-0.2,0-0.5-0.1-0.7-0.2c-0.3-0.2-0.4-0.5-0.4-0.8V328c0-0.5,0.3-0.9,0.8-1l38.9-9.3
					c0.1,0,0.2,0,0.3,0c0.2,0,0.5,0.1,0.7,0.2c0.3,0.2,0.4,0.5,0.4,0.8v18.6c0,0.5-0.3,0.9-0.8,1l-38.9,8.6
					C317.2,346.9,317.1,346.9,317.1,346.9z"/>
				<polygon class="st38" points="318.7,328.8 318.7,343.9 354.3,336.4 354.3,320.6 				"/>
			</g>
		</g>
		<g>
			<path class="st15" d="M378.1,359.9c-11.5,0-17.3-1.6-18.5-5.1l-2-3.1c-1.1-0.4-1.9-1.4-1.9-2.5V316c0-0.5,0.1-1,0.4-1.4l4.4-6.8
				c0.5-0.9,1.5-1.4,2.5-1.4h30.1c1.1,0,2,0.5,2.5,1.4l4.3,6.8c0.3,0.4,0.4,0.9,0.4,1.4v30.6c0,0.2,0,0.4-0.1,0.6l-0.7,2.8
				c-0.1,0.3-0.2,0.5-0.3,0.8l-2.8,4.5C395,358.5,389.2,359.9,378.1,359.9z"/>
			<path class="st15" d="M378.1,358.2c-10.3,0-16-1.4-16.8-4l-2.5-3.9h-0.1c-0.6,0-1.1-0.5-1.1-1V316c0-0.2,0.1-0.4,0.2-0.5l4.4-6.8
				c0.2-0.3,0.6-0.5,0.9-0.5h30.1c0.4,0,0.8,0.2,0.9,0.5l4.3,6.8c0.1,0.2,0.1,0.3,0.1,0.5v30.6c0,0.1,0,0.2,0,0.2l-0.7,2.8
				c0,0.1-0.1,0.2-0.1,0.3l-2.9,4.6C393.7,356.9,388,358.2,378.1,358.2z"/>
			<path class="st35" d="M395.9,347.8v-31.6l-3.7-5.9h-28.2l-3.7,5.9v31.7h0.1l3.5,5.5c0,0,0,0,0,0.1c0,1.3,6.3,2.3,14.2,2.3
				c7.8,0,14-1.1,14.2-2.3L395.9,347.8L395.9,347.8L395.9,347.8L395.9,347.8L395.9,347.8z"/>
			<path class="st15" d="M378.1,317c-8.1,0-18.8-0.7-18.8-6.4s10.7-6.4,18.8-6.4s18.8,0.7,18.8,6.4S386.2,317,378.1,317z"/>
			<path class="st15" d="M378.1,315.3c-11.2,0-16.9-1.6-16.9-4.7c0-3.1,5.7-4.7,16.9-4.7s16.9,1.6,16.9,4.7
				C395.1,313.7,389.3,315.3,378.1,315.3z"/>
			<ellipse class="st37" cx="378.1" cy="310.6" rx="14.2" ry="2.3"/>
			<ellipse class="st38" cx="375" cy="310.6" rx="11.1" ry="1.9"/>
			<path class="st15" d="M358.8,349.3l3.7,5.2l1.3-0.9l-3.8-6.3l-1.4,1.6C358.7,348.7,358.5,349.1,358.8,349.3z"/>
			<g>
				<path class="st15" d="M358.7,348.6c-0.7,0-1.3-0.2-1.9-0.6c-0.7-0.5-1.2-1.3-1.2-2.1V328c0-1.3,0.9-2.3,2.2-2.6l38.9-9.3
					c0.3-0.1,0.5-0.1,0.8-0.1c0.7,0,1.3,0.2,1.9,0.6c0.7,0.5,1.2,1.4,1.2,2.1v18.6c0,1.3-1,2.3-2.2,2.6l-38.9,8.6
					C359.1,348.6,358.9,348.6,358.7,348.6z"/>
				<path class="st15" d="M358.7,346.9c-0.2,0-0.5-0.1-0.7-0.2c-0.3-0.2-0.4-0.5-0.4-0.8V328c0-0.5,0.3-0.9,0.8-1l38.9-9.3
					c0.1,0,0.2,0,0.3,0c0.2,0,0.5,0.1,0.7,0.2c0.3,0.2,0.4,0.5,0.4,0.8v18.6c0,0.5-0.3,0.9-0.8,1l-38.9,8.6
					C358.8,346.9,358.7,346.9,358.7,346.9z"/>
				<polygon class="st38" points="360.2,328.8 360.2,343.9 395.9,336.4 395.9,320.6 				"/>
			</g>
		</g>
	</g>
	<g>
		<path class="st15" d="M236,297.9c-2.8,0-5-2.2-5-5v-7.8c0-2.6,2-4.7,4.5-5V144.9c-2.5-0.3-4.5-2.4-4.5-5v-7.8c0-2.8,2.2-5,5-5h19
			c2.8,0,5,2.2,5,5v7.8c0,2.6-2,4.7-4.5,5v135.3c2.5,0.3,4.5,2.4,4.5,5v7.8c0,2.8-2.2,5-5,5H236z"/>
		<polygon class="st38" points="255,140 255,132.2 250.5,132.2 240.5,132.2 236,132.2 236,140 240.5,140 240.5,285.2 236,285.2 
			236,292.9 255,292.9 255,285.2 250.5,285.2 250.5,140 		"/>
	</g>
	<rect x="258" y="136.1" class="st15" width="1.2" height="1.2"/>
	<path class="st37" d="M285.5,238.2c0-0.8,2.1-1.5,4.8-1.6c-0.4,0-0.7,0-1.1,0c-3.3,0-5.9,0.7-5.9,1.6c0,0.9,2.7,1.6,5.9,1.6
		c0.4,0,0.7,0,1.1,0C287.6,239.7,285.5,239,285.5,238.2z"/>
	<path class="st37" d="M292.7,238.2c0-0.6-1.6-1.1-3.7-1.2c0.3,0,0.6,0,0.8,0c2.5,0,4.6,0.6,4.6,1.3c0,0.7-2,1.3-4.6,1.3
		c-0.3,0-0.6,0-0.8,0C291.1,239.3,292.7,238.8,292.7,238.2z"/>
	<path class="st37" d="M328,238.2c0-0.8,2.1-1.5,4.8-1.6c-0.4,0-0.7,0-1.1,0c-3.3,0-5.9,0.7-5.9,1.6c0,0.9,2.7,1.6,5.9,1.6
		c0.4,0,0.7,0,1.1,0C330.1,239.7,328,239,328,238.2z"/>
	<path class="st37" d="M335.2,238.2c0-0.6-1.6-1.1-3.7-1.2c0.3,0,0.6,0,0.8,0c2.5,0,4.6,0.6,4.6,1.3c0,0.7-2,1.3-4.6,1.3
		c-0.3,0-0.6,0-0.8,0C333.6,239.3,335.2,238.8,335.2,238.2z"/>
	<path class="st37" d="M369.3,238.2c0-0.8,2.1-1.5,4.8-1.6c-0.4,0-0.7,0-1.1,0c-3.3,0-5.9,0.7-5.9,1.6c0,0.9,2.7,1.6,5.9,1.6
		c0.4,0,0.7,0,1.1,0C371.4,239.7,369.3,239,369.3,238.2z"/>
	<path class="st37" d="M376.5,238.2c0-0.6-1.6-1.1-3.7-1.2c0.3,0,0.6,0,0.8,0c2.5,0,4.6,0.6,4.6,1.3c0,0.7-2,1.3-4.6,1.3
		c-0.3,0-0.6,0-0.8,0C374.9,239.3,376.5,238.8,376.5,238.2z"/>
	<path class="st37" d="M285.5,310.9c0-0.8,2.1-1.5,4.8-1.6c-0.4,0-0.7,0-1.1,0c-3.3,0-5.9,0.7-5.9,1.6c0,0.9,2.7,1.6,5.9,1.6
		c0.4,0,0.7,0,1.1,0C287.6,312.4,285.5,311.7,285.5,310.9z"/>
	<path class="st37" d="M292.7,310.9c0-0.6-1.6-1.1-3.7-1.2c0.3,0,0.6,0,0.8,0c2.5,0,4.6,0.6,4.6,1.3c0,0.7-2,1.3-4.6,1.3
		c-0.3,0-0.6,0-0.8,0C291.1,312,292.7,311.5,292.7,310.9z"/>
	<path class="st37" d="M328,310.9c0-0.8,2.1-1.5,4.8-1.6c-0.4,0-0.7,0-1.1,0c-3.3,0-5.9,0.7-5.9,1.6c0,0.9,2.7,1.6,5.9,1.6
		c0.4,0,0.7,0,1.1,0C330.1,312.4,328,311.7,328,310.9z"/>
	<path class="st37" d="M335.2,310.9c0-0.6-1.6-1.1-3.7-1.2c0.3,0,0.6,0,0.8,0c2.5,0,4.6,0.6,4.6,1.3c0,0.7-2,1.3-4.6,1.3
		c-0.3,0-0.6,0-0.8,0C333.6,312,335.2,311.5,335.2,310.9z"/>
	<path class="st37" d="M369.3,310.9c0-0.8,2.1-1.5,4.8-1.6c-0.4,0-0.7,0-1.1,0c-3.3,0-5.9,0.7-5.9,1.6c0,0.9,2.7,1.6,5.9,1.6
		c0.4,0,0.7,0,1.1,0C371.4,312.4,369.3,311.7,369.3,310.9z"/>
	<path class="st37" d="M376.5,310.9c0-0.6-1.6-1.1-3.7-1.2c0.3,0,0.6,0,0.8,0c2.5,0,4.6,0.6,4.6,1.3c0,0.7-2,1.3-4.6,1.3
		c-0.3,0-0.6,0-0.8,0C374.9,312,376.5,311.5,376.5,310.9z"/>
	<rect x="186.3" y="414.4" class="st15" width="16.5" height="10.1"/>
	<polygon class="st42" points="151.5,236.6 147.7,240 126.4,220.4 130.1,216.9 	"/>
	<path class="st42" d="M154.7,228.6L138.7,214c-0.1-0.1-0.2-0.1-0.3-0.1s-0.2,0-0.3,0.1l-2.8,2.6c-0.1,0.1-0.1,0.2-0.1,0.3
		s0,0.2,0.1,0.3l15.9,14.7c0.1,0.1,0.2,0.1,0.3,0.1c0.1,0,0.2,0,0.3-0.1l2.8-2.6c0.1-0.1,0.1-0.2,0.1-0.3
		C154.8,228.8,154.7,228.7,154.7,228.6z"/>
	<path class="st42" d="M156.7,221l-9.7-8.9c-0.2-0.2-0.5-0.3-0.8-0.3c-0.3,0-0.6,0.1-0.8,0.3l-1.7,1.6c-0.2,0.2-0.3,0.5-0.3,0.7
		c0,0.3,0.1,0.5,0.3,0.7l9.7,8.9c0.2,0.2,0.5,0.3,0.8,0.3c0.3,0,0.6-0.1,0.8-0.3l1.7-1.6c0.2-0.2,0.3-0.5,0.3-0.7
		C157.1,221.4,157,221.2,156.7,221z"/>
	<ellipse class="st40" cx="329.1" cy="30" rx="55.2" ry="4"/>
	<ellipse class="st40" cx="116.3" cy="26.3" rx="43.2" ry="2.6"/>
	<polygon class="st42" points="385.9,115.6 376.7,124 324.6,75.9 333.7,67.5 	"/>
	<path class="st42" d="M393.8,96.2l-39-35.9c-0.2-0.2-0.5-0.2-0.7-0.2s-0.6,0.1-0.7,0.2l-6.8,6.3c-0.2,0.2-0.3,0.4-0.3,0.6
		c0,0.2,0.1,0.5,0.3,0.6l39,35.9c0.2,0.2,0.5,0.2,0.7,0.2c0.2,0,0.6-0.1,0.7-0.2l6.8-6.3c0.2-0.2,0.3-0.4,0.3-0.6
		C394,96.6,393.9,96.3,393.8,96.2z"/>
	<path class="st42" d="M398.8,77.4l-23.7-21.8c-0.5-0.5-1.2-0.7-1.9-0.7s-1.5,0.2-1.9,0.7l-4.1,3.8c-0.5,0.5-0.8,1.1-0.8,1.8
		c0,0.6,0.3,1.3,0.8,1.8l23.7,21.8c0.5,0.5,1.2,0.7,1.9,0.7s1.5-0.2,1.9-0.7l4.1-3.8c0.5-0.5,0.8-1.1,0.8-1.8
		C399.6,78.5,399.4,77.8,398.8,77.4z"/>
	<rect x="278.3" y="65.8" class="st42" width="11.2" height="250.7"/>
</g>
</svg>
