<?xml version="1.0" encoding="utf-8"?>
<!-- Generator: Adobe Illustrator 27.9.1, SVG Export Plug-In . SVG Version: 6.00 Build 0)  -->
<svg version="1.1" id="Layer_1" xmlns="http://www.w3.org/2000/svg" xmlns:xlink="http://www.w3.org/1999/xlink" x="0px" y="0px"
	 viewBox="0 0 657.8 585.2" style="enable-background:new 0 0 657.8 585.2;" xml:space="preserve">
<style type="text/css">
	.st0{fill:#0D0D0D;}
	.st1{fill:#CD2328;}
	.st2{fill:#8E192F;}
	.st3{fill:#B62225;}
	.st4{fill:#E93B48;}
	.st5{fill:#EC626C;}
	.st6{fill:#EA5661;}
	.st7{fill:#B31F36;}
	.st8{fill:#8B6271;}
	.st9{fill:#FFFFFF;}
	.st10{fill:#F8F6F1;}
	.st11{fill:#606161;}
	.st12{opacity:0.15;}
	.st13{fill:#6D1628;}
	.st14{fill:#F26866;}
	.st15{fill:#232121;}
	.st16{fill:#CFDCDC;}
	.st17{fill:#0E0E0E;}
	.st18{fill:#F4ECE5;}
	.st19{fill:#CB832A;}
	.st20{fill:#FFCD05;}
	.st21{fill:#911F36;}
	.st22{fill:#F9F8F2;}
	.st23{fill:none;}
	.st24{fill:#54121D;}
	.st25{fill:#4A77A8;}
	.st26{fill:#84827E;}
	.st27{fill:#6B6B6B;}
	.st28{fill:#65A042;}
	.st29{fill:#B8CACD;}
	.st30{fill:#B21F37;}
	.st31{fill:#215483;}
	.st32{fill:#D6D5D2;}
	.st33{fill:#FECE43;}
	.st34{opacity:0.49;fill:#B21F37;enable-background:new    ;}
	.st35{fill:#4B78A9;}
	.st36{fill:#8F2438;}
	.st37{fill:#ABB4CE;}
	.st38{fill:#DEE2F2;}
	.st39{fill:#666666;}
	.st40{fill:#F26966;}
	.st41{fill:#999999;}
	.st42{opacity:0.38;fill:#FFFFFF;enable-background:new    ;}
	.st43{fill:#0D0F10;}
	.st44{fill:#4F5051;}
	.st45{fill:#6B6C6C;}
	.st46{fill:#0C0B0A;}
	.st47{fill:#C3E2ED;}
	.st48{fill:#9FABB0;}
	.st49{clip-path:url(#SVGID_00000163782225903706781560000009164804116311814060_);fill:#FFCD05;}
	.st50{clip-path:url(#SVGID_00000163782225903706781560000009164804116311814060_);}
	.st51{fill:#FBEFD7;}
	.st52{fill:#B21F36;}
	.st53{fill:#170F09;}
	.st54{fill:#222221;}
	.st55{fill:#D89A53;}
	.st56{fill:#FDFDFD;}
	.st57{fill:#592A07;}
	.st58{fill:#B88346;}
	.st59{fill:#DBDADA;}
	.st60{fill:#383837;}
	.st61{fill:#804118;}
	.st62{fill:#646463;}
	.st63{fill:#E5AF73;}
	.st64{fill:#2D2D2C;}
	.st65{fill:#693309;}
	.st66{fill:#DB9D56;}
	.st67{fill:#613214;}
	.st68{fill:#FCCA1D;}
	.st69{fill:#8E1830;}
	.st70{fill:#FFDE83;}
	.st71{fill:#D1CDC5;}
	.st72{fill:#7F3211;}
	.st73{fill:#FCFCFC;}
	.st74{fill:#D6D5D5;}
	.st75{fill:#FCCD2A;}
	.st76{fill:#181516;}
	.st77{fill:#FBFBFB;}
	.st78{fill:#3F383B;}
	.st79{fill:#716E6D;}
	.st80{fill:#7A1E2F;}
	.st81{opacity:0.74;fill:#FFCCD6;enable-background:new    ;}
	.st82{fill:#CFCECE;}
	.st83{opacity:0.58;}
	.st84{fill:none;stroke:#000000;stroke-width:2;stroke-miterlimit:10;}
</style>
<g>
	<circle class="st68" cx="335.3" cy="292.6" r="292.6"/>
	<g>
		<g>
			<g>
				<path class="st15" d="M535.1,357c0.3,0,0.6,0,0.9,0c3.4-0.9,6.5,0,8.5,3.1s1.1,6-0.9,8.5c-5.4,9.1-11.1,18.1-16.7,27.2
					c-11.9,19-24.4,37.7-35.7,57c-7.7,12.5-10.8,26.9-13.3,41.1c-0.3,1.4-0.6,2.6-0.9,4c-1.4,7.1-2.8,8.2-9.9,6.5
					c-6.8-1.7-11.6-6.2-15-11.6c-3.1-4.8-7.1-7.7-13.3-7.9c-9.6-0.3-17-5.4-21-14.2c-4.3-8.8-9.9-13-20.1-12.2
					c-8.2,0.6-14.2-4.5-18.4-11.1c-2.3-3.4-4.8-6.5-6.2-10.2c-2-4.8-5.1-6-9.9-6c-3.4,0-7.1-0.9-10.5-1.4c-9.9-1.4-17.3-6.8-22.4-15
					c-1.1-1.7-2.3-2.8-2.8-4.5c-2.3-7.1-7.7-9.4-14.7-10.2c-12.5-1.4-21.8-7.9-26.9-19c-3.7-8.2-9.9-11.1-17.9-12.8
					c-10.2-2.6-20.7-5.4-26.9-15.6c-2.3-3.7-1.7-5.7,1.7-8.2c10.8-7.4,20.7-15,29.5-24.7c9.9-10.8,16.7-23.5,24.4-35.7
					c16.7-27.2,32.6-54.4,47.6-82.5c1.1-1.7,2.6-3.7,4-5.4c8.2,0.9,8.8,1.7,10.5,7.9c-0.6,1.7-1.1,3.1-1.7,4.5
					c-12.2,23.2-25.5,45.9-39.4,68c-2,3.4-2,5.1,1.4,7.9c14.7,11.6,29.5,23.5,44.5,34.6c32.6,24.4,66.1,47.6,101.2,68.3
					c0,0.3,0,0.6-0.3,0.9c-0.9,1.4-1.7,2.3-2.6,3.7c-1.4-0.6-2.3-1.1-3.7-1.7c-24.9-15.3-49.6-31.5-73.4-48.8
					c-23.8-17-47.1-34.6-69.5-53c-3.1-2.6-4.3-1.7-6,1.4c-4.3,6.8-8.2,13.6-12.8,20.4c-1.7,2.3-1.7,3.7,0.9,5.7
					c21.3,18.4,43.7,36.3,66.6,53c36.6,26.6,74,51.9,114.5,72c2.3,1.4,3.7,1.1,4.8-1.4c4.8-7.9,9.6-15.6,14.7-23.2
					c1.7-2.3,0.9-3.1-1.4-4.5c-7.7-4.3-15-8.5-22.7-12.8c0.3-1.7,1.7-2.8,2.6-4.3c7.4,4,14.7,7.9,21.5,11.6c2.8,1.7,4.8,2,6.8-1.7
					c5.4-9.4,11.3-18.1,17.3-27.5C526,371.2,529.7,363.3,535.1,357z M377.2,425.4c0,0.9,0.6,1.4,1.1,1.7c1.1,1.7,2,4,3.1,5.7
					c10.8,17.3,9.4,16.4,27.8,16.7c4.8,0,8.5,1.7,10.8,6.2c0.6,1.4,1.4,2.3,2,3.4c1.7,3.7,3.7,7.4,6.5,10.2c2,4.3,6,5.4,10.2,6
					c4.3,0.6,8.5,0,12.8,1.1c4.8,4.8,7.9,11.9,13.9,16.4c0.3-0.6,0.6-0.6,0.9-0.9c2-10.2,3.4-20.7,6.8-30.6c0.6-1.7-0.6-2-1.7-2.6
					c-4.3-2-8.2-4.3-12.2-6.2c-10.2-5.7-20.4-11.6-30.3-17.6c-11.6-7.1-23-14.2-34.6-21.3c-0.9-1.4-2.3-1.7-3.7-2.6
					c-13.6-9.4-26.9-19-40.5-28.3c-1.1-0.9-1.7-1.7-3.1-2.3c-3.1-2.6-6.5-4.8-9.6-7.7c-15.3-11.6-30-23.8-44.8-35.7
					c-2.6-2.3-5.4-4.8-8.2-7.7c-1.7-1.7-2.6-1.1-4,0.3c-7.4,7.4-15.6,13.6-24.4,19c-3.7,2.3-2,3.4,0.6,4.8c4.8,2.8,9.9,4,14.7,5.1
					c17.3,4.8,13.9,0.9,22.4,17l0.3,0.3c4,8.5,11.1,12.8,20.4,14.5c5.4,0.9,11.6,0.3,15.9,4.8c0.3,1.4,0.9,2.3,1.7,3.1
					c6.2,14.7,16.4,23.8,33.7,22.7c0.9,0,1.7,0,2,0C371.5,422,374.6,422.8,377.2,425.4z M465.3,439.5c-3.1-1.7-6.2-3.4-9.4-5.1
					c-36.9-21-72-44.2-105.7-70c-13.9-10.8-27.8-21.5-41.4-32.3c-4.8-4.5-9.9-8.5-14.7-13c-1.4-1.4-3.1-2-3.7,0.3
					c-0.9,2.3-6.2,3.4-2.3,7.1c5.4,4.8,11.6,9.6,17.3,14.7c0.6,0.6,1.4,1.4,1.7,1.7c48.8,39.4,99.5,76,155.1,105.5
					c2.6,1.4,5.1,2.8,7.7,4.3c5.4,3.1,5.4,2.8,8.2-2.8c1.1-2,0.9-3.4-1.7-4.5C472.4,443.5,469,441.2,465.3,439.5z"/>
				<path class="st15" d="M341.3,206.7c-0.3-2,13.8-25.1,14.9-26.8c3.4-6,6.5-12.2,10.5-18.1c1.7-2.8,0.6-3.4-1.7-4
					c-7.4-1.4-14.7-2.6-22.1-4.5c-3.7-1.1-7.1-2.3-9.9-4.5c-5.7-4.3-6.2-9.6-1.1-14.7c4.3-4,8.8-6.8,13.6-9.9c2-1.4,4.5-2.6,6.2-4.3
					c6.2-4.8,10.5-10.8,10.8-18.7c0-2.6,0.3-5.1,0.6-7.9c0.3-5.4,2-8.2,7.4-8.2c6-0.3,11.1-3.4,17.3-3.1c9.1,0.3,17.3,2.6,24.7,7.4
					c2.8,1.7,4,0.9,5.1-1.7c2.8-4.8,6-9.4,9.1-14.2c7.9-11.6,13-13.3,26.1-8.8s24.7,11.6,36.6,19c34.9,21.8,70.3,43.9,104.9,65.8
					c17,10.8,34.6,21.3,50.5,33.7c9.4,7.4,10.2,12.2,4,22.4c-6.5,10.8-13.3,21.3-20.1,31.8c-1.7,2.3-1.7,3.7,0.9,5.4
					c3.4,2.3,6.5,5.4,9.9,8.2c7.7,5.1,10.8,13.3,15.3,20.7c2.6,4,1.4,7.9-2.6,11.1c-2.8,2-5.7,4-8.8,6c-9.9,6.8-17,15.9-21.3,27.2
					c-2.6,6-4.8,12.2-7.1,18.1c-2,5.4-5.1,7.7-11.3,7.7c-9.6,0-18.1-4.3-26.4-8.5c-2.6-1.4-5.1-4.8-7.9-4c-2.3,1.1-3.7,4.8-5.1,7.4
					c-2,3.4-4.5,6.5-6.5,9.9c-1.7,3.1-4,5.7-7.9,5.1c-4.3-0.6-5.7-3.7-6.8-7.4c3.1-8.2,8.2-14.7,12.8-22.1c1.4-2.3,1.7-3.7-0.9-5.4
					c-5.7-4.3-10.5-9.4-15.6-14.2c-4-4.3-8.2-7.9-13.9-9.6c-10.5-6.8-21.3-13.6-31.5-20.4c-40.5-26.4-79.9-54.1-117.6-84.2
					c-5.7-4.8-17.4,16.2-21.4,22.1C348.7,212.8,345,213.2,341.3,206.7z M433,90.9c2.3-3.7,4.8-7.4,7.7-10.8c0.9-1.1,1.1-3.1,3.1-2
					c-6.8,11.9-15,23-23,34.3c-2.6,3.7-2.3,6,1.1,8.2c1.4,0.9,2.3,1.7,3.4,2.6c9.9,7.9,19.8,15.6,29.5,23.8c2.3,2,3.4,2,5.4-0.6
					c7.9-11.3,15.6-22.7,23-34.6c2-3.4,3.1-8.2,7.7-9.9c0.3,0.6,0.3,1.4,0.6,1.7c-8.8,15-18.1,30.3-28.3,44.5c-1.7,2.3-1.7,4,0.6,6
					c3.1,2.3,5.7,4.8,8.5,7.7c8.8,7.7,17.9,15,26.6,22.7c2,1.7,3.4,2.3,5.4-0.9c4.3-6.8,8.5-13.3,13-19.8
					c6.8-10.2,13.6-20.4,19.6-30.9c1.1-0.6,1.7-1.4,3.1-0.9c0,1.7-0.9,3.1-1.7,4.5c-10.5,16.4-21,32.6-31.5,49
					c-1.7,2.3-1.7,4,0.6,5.7c12.2,9.9,24.4,20.1,37.7,28.9c2,1.4,2.8,1.7,4.5-0.9c7.4-11.6,15-22.4,22.1-34
					c4.5-7.4,9.9-13.9,13.3-21.5c0.9-0.6,1.7-1.1,2.6-1.7c2.3,3.1-0.9,5.1-2,7.1c-11.1,17.3-22.1,34.6-33.5,51.3
					c-1.7,2-1.7,3.4,1.1,4.8c4,2.3,7.9,5.1,11.6,7.9c12.2,7.9,24.7,15,37.7,21.5c3.1,1.7,5.1,1.4,7.4-1.7
					c7.1-10.8,14.5-21.3,21.3-32c4.5-6.8,8.2-13.6,12.5-20.4c3.4-5.7,2.8-8.2-2.3-12.5c-1.4-1.1-2.6-2.3-4.5-2.8
					c-10.2-8.8-21.8-15.3-33.5-22.4c-0.3-0.3-0.3-0.6-0.6-0.9c-18.7-11.9-37.7-23.8-56.4-35.7c-20.4-12.8-40.8-24.9-60.7-37.7
					c-11.6-7.4-23-14.5-36-18.7c-2.6-0.9-5.4-2.3-8.2-0.9c-0.3,0-0.6,0-0.9,0c-3.4-0.9-4.8,2-6.2,4c-3.7,5.1-7.1,10.5-10.5,15.6
					c-4,6.2-7.7,12.8-11.6,19.3c-1.7,2.8,0.3,4,2,5.1c2,1.7,2.8,0.9,4.3-1.1C423.1,105.6,429,98.8,433,90.9z M388.2,99.4
					c0.3-1.7-1.1-3.4,1.1-4.3c1.7-0.9,2.8,0.9,4.3,1.7c3.4,3.1,6.8,6.2,11.6,6.2c1.7,0,7.4-6,6.8-7.4c-0.3-0.6-0.9-0.9-1.4-1.1
					c-0.9-0.6-2-0.6-2.8-1.4c-6.5-4.8-13.9-6.8-21.5-6.5c-5.7,0-10.2,4.8-16.2,4.5c-0.9,0-1.1,1.1-0.9,1.7c0,1.1-0.3,2.3-0.3,3.4
					c0.9,14.5-5.4,24.7-17.9,31.8c-3.7,2-7.4,4.3-11.1,6.8c-2.3,1.7-6,3.1-5.1,6.5c0.6,3.7,4.5,4.5,7.7,5.1
					c17.3,4.5,34.6,7.1,51.3,13c11.9,5.1,23.8,11.3,34.6,18.4c23.9,15.7,42.9,36.7,60.7,58.2c17.6,21.3,34.3,42.8,54.1,62.1
					c10.5,10.2,21.3,19.8,34.3,27.2c4.8,4,10.8,6,16.4,8.2c11.1,3.7,13,2.8,16.4-7.9c6.5-19.3,16.4-35.7,34.6-46.2
					c4.8-2.6,4.8-5.1,1.4-9.9c-1.4-1.7-4-2.8-3.4-4.8c0.9-3.4-1.4-4.8-3.1-6.5c-5.1-4.8-10.8-9.4-16.7-13c-1.7,2.6-3.1,4.8-4.8,7.4
					c-0.9,1.4-1.1,2-0.3,3.7c3.7,5.1,7.9,9.6,15,8.8c0.9,0,1.7-0.6,2.3,0.6c0.3,1.1-0.6,1.7-1.4,2.6c-2,1.7-4.5,1.1-6.8,1.7
					c-2-0.6-4.5-0.9-6.5-1.7c-13.6-3.4-25.2-10.5-37.4-17c-30-16.4-57.3-37.1-83.3-59c-31.5-26.6-62.4-54.1-95.5-78.8
					C399.3,109.6,392.8,105.9,388.2,99.4z M517.5,281.6c0.3-0.3,0.6-0.6,0.6-0.6c-0.3-0.6-0.6-1.1-0.9-1.4
					c-6.5-8.2-13.3-15.9-19.8-24.1c-14.7-18.1-29.5-36.3-46.5-52.2c-18.1-16.7-38-29.8-60.9-38.3c-7.7-2.8-7.9-2.6-11.6,4
					c-1.4,2.3-2.3,4.8-4,7.1s-1.4,3.7,1.1,5.4c9.6,7.4,19,14.7,28.6,22.1c29.2,22.1,59.5,42.8,89.9,63.2
					C501.9,271.7,509.6,276.8,517.5,281.6z"/>
				<path class="st15" d="M356.5,181.3c-0.3-2,0.3-3.7,1.4-5.4c3.4-6,6.5-12.2,10.5-18.1c1.7-2.8,0.6-3.4-1.7-4
					c-7.4-1.4-14.7-2.6-22.1-4.5c-3.7-1.1-7.1-2.3-9.9-4.5c-5.7-4.3-6.2-9.6-1.1-14.7c4.3-4,8.8-6.8,13.6-9.9c2-1.4,4.5-2.6,6.2-4.3
					c6.2-4.8,10.5-10.8,10.8-18.7c0-2.6,0.3-5.1,0.6-7.9c0.3-5.4,2-8.2,7.4-8.2c6-0.3,11.1-3.4,17.3-3.1c9.1,0.3,17.3,2.6,24.7,7.4
					c2.8,1.7,4,0.9,5.1-1.7c2.8-4.8,6-9.4,9.1-14.2c7.9-11.6,13-13.3,26.1-8.8s24.7,11.6,36.6,19c34.9,21.8,70.3,43.9,104.9,65.8
					c17,10.8,34.6,21.3,50.5,33.7c9.4,7.4,10.2,12.2,4,22.4c-6.5,10.8-13.3,21.3-20.1,31.8c-1.7,2.3-1.7,3.7,0.9,5.4
					c3.4,2.3,6.5,5.4,9.9,8.2c7.7,5.1,10.8,13.3,15.3,20.7c2.6,4,1.4,7.9-2.6,11.1c-2.8,2-5.7,4-8.8,6c-9.9,6.8-17,15.9-21.3,27.2
					c-2.6,6-4.8,12.2-7.1,18.1c-2,5.4-5.1,7.7-11.3,7.7c-9.6,0-18.1-4.3-26.4-8.5c-2.6-1.4-5.1-4.8-7.9-4c-2.3,1.1-3.7,4.8-5.1,7.4
					c-2,3.4-4.5,6.5-6.5,9.9c-1.7,3.1-4,5.7-7.9,5.1c-4.3-0.6-5.7-3.7-6.8-7.4c3.1-8.2,8.2-14.7,12.8-22.1c1.4-2.3,1.7-3.7-0.9-5.4
					c-5.7-4.3-10.5-9.4-15.6-14.2c-4-4.3-8.2-7.9-13.9-9.6c-10.5-6.8-21.3-13.6-31.5-20.4c-40.5-26.4-79.9-54.1-117.6-84.2
					c-5.7-4.8-5.7-4.5-9.6,1.4C361.6,188.1,359.9,187.2,356.5,181.3z M434.7,86.6c2.3-3.7,4.8-7.4,7.7-10.8c0.9-1.1,1.1-3.1,3.1-2
					c-6.8,11.9-15,23-23,34.3c-2.6,3.7-2.3,6,1.1,8.2c1.4,0.9,2.3,1.7,3.4,2.6c9.9,7.9,19.8,15.6,29.5,23.8c2.3,2,3.4,2,5.4-0.6
					c7.9-11.3,15.6-22.7,23-34.6c2-3.4,3.1-8.2,7.7-9.9c0.3,0.6,0.3,1.4,0.6,1.7c-8.8,15-18.1,30.3-28.3,44.5c-1.7,2.3-1.7,4,0.6,6
					c3.1,2.3,5.7,4.8,8.5,7.7c8.8,7.7,17.9,15,26.6,22.7c2,1.7,3.4,2.3,5.4-0.9c4.3-6.8,8.5-13.3,13-19.8
					c6.8-10.2,13.6-20.4,19.6-30.9c1.1-0.6,1.7-1.4,3.1-0.9c0,1.7-0.9,3.1-1.7,4.5c-10.5,16.4-21,32.6-31.5,49
					c-1.7,2.3-1.7,4,0.6,5.7c12.2,9.9,24.4,20.1,37.7,28.9c2,1.4,2.8,1.7,4.5-0.9c7.4-11.6,15-22.4,22.1-34
					c4.5-7.4,9.9-13.9,13.3-21.5c0.9-0.6,1.7-1.1,2.6-1.7c2.3,3.1-0.9,5.1-2,7.1c-11.1,17.3-22.1,34.6-33.5,51.3
					c-1.7,2-1.7,3.4,1.1,4.8c4,2.3,7.9,5.1,11.6,7.9c12.2,7.9,24.7,15,37.7,21.5c3.1,1.7,5.1,1.4,7.4-1.7
					c7.1-10.8,14.5-21.3,21.3-32c4.5-6.8,8.2-13.6,12.5-20.4c3.4-5.7,2.8-8.2-2.3-12.5c-1.4-1.1-2.6-2.3-4.5-2.8
					c-10.2-8.8-21.8-15.3-33.5-22.4c-0.3-0.3-0.3-0.6-0.6-0.9c-18.7-11.9-37.7-23.8-56.4-35.7c-20.4-12.8-40.8-24.9-60.7-37.7
					c-11.6-7.4-23-14.5-36-18.7c-2.6-0.9-5.4-2.3-8.2-0.9c-0.3,0-0.6,0-0.9,0c-3.4-0.9-4.8,2-6.2,4c-3.7,5.1-7.1,10.5-10.5,15.6
					c-4,6.2-7.7,12.8-11.6,19.3c-1.7,2.8,0.3,4,2,5.1c2,1.7,2.8,0.9,4.3-1.1C424.2,101.3,430.2,94.5,434.7,86.6z M389.9,95.1
					c0.3-1.7-1.1-3.4,1.1-4.3c1.7-0.9,2.8,0.9,4.3,1.7c3.4,3.1,6.8,6.2,11.6,6.2c1.7,0,7.4-6,6.8-7.4c-0.3-0.6-0.9-0.9-1.4-1.1
					c-0.9-0.6-2-0.6-2.8-1.4C403,84,395.6,82,388,82.3c-5.7,0-10.2,4.8-16.2,4.5c-0.9,0-1.1,1.1-0.9,1.7c0,1.1-0.3,2.3-0.3,3.4
					c0.9,14.5-5.4,24.7-17.9,31.8c-3.7,2-7.4,4.3-11.1,6.8c-2.3,1.7-6,3.1-5.1,6.5c0.6,3.7,4.5,4.5,7.7,5.1
					c17.3,4.5,34.6,7.1,51.3,13c11.9,5.1,23.8,11.3,34.6,18.4c23.8,15.6,42.8,36.6,60.7,58.1c17.6,21.3,34.3,42.8,54.1,62.1
					c10.5,10.2,21.3,19.8,34.3,27.2c4.8,4,10.8,6,16.4,8.2c11.1,3.7,13,2.8,16.4-7.9c6.5-19.3,16.4-35.7,34.6-46.2
					c4.8-2.6,4.8-5.1,1.4-9.9c-1.4-1.7-4-2.8-3.4-4.8c0.9-3.4-1.4-4.8-3.1-6.5c-5.1-4.8-10.8-9.4-16.7-13c-1.7,2.6-3.1,4.8-4.8,7.4
					c-0.9,1.4-1.1,2-0.3,3.7c3.7,5.1,7.9,9.6,15,8.8c0.9,0,1.7-0.6,2.3,0.6c0.3,1.1-0.6,1.7-1.4,2.6c-2,1.7-4.5,1.1-6.8,1.7
					c-2-0.6-4.5-0.9-6.5-1.7c-13.6-3.4-25.2-10.5-37.4-17c-30-16.4-57.3-37.1-83.3-59c-31.5-26.6-62.4-54.1-95.5-78.8
					C400.4,105.3,393.9,101.3,389.9,95.1z M518.9,277.4c0.3-0.3,0.6-0.6,0.6-0.6c-0.3-0.6-0.6-1.1-0.9-1.4
					c-6.5-8.2-13.3-15.9-19.8-24.1c-14.7-18.1-29.5-36.3-46.5-52.2c-18.1-16.7-38-29.8-60.9-38.3c-7.7-2.8-7.9-2.6-11.6,4
					c-1.4,2.3-2.3,4.8-4,7.1s-1.4,3.7,1.1,5.4c9.6,7.4,19,14.7,28.6,22.1c29.2,22.1,59.5,42.8,89.9,63.2
					C503,267.5,511.3,272.3,518.9,277.4z"/>
				<path class="st68" d="M539.3,302.9c5.1,4.8,9.9,9.9,15.6,14.2c2.3,1.7,2,3.1,0.9,5.4c-4.5,7.4-9.6,14.2-12.8,22.1
					c-2.6,4.3-5.1,8.2-7.9,12.5c-5.4,6.5-9.1,14.2-13.6,21.3c-6,9.1-11.6,18.1-17.3,27.5c-2,3.4-4,2.8-6.8,1.7
					c-7.4-4-14.7-7.9-21.5-11.6l0.3-0.3c11.1-16.2,22.1-32,33.2-48.2C519.2,332.1,529.1,317.4,539.3,302.9z"/>
				<path class="st68" d="M358.5,204.3c3.1-4.5,6.5-9.1,8.2-14.5c4-5.7,4-5.7,9.6-1.4c37.7,30,77.1,57.8,117.6,84.2
					c10.5,6.8,21.3,13.6,31.5,20.4c-9.4,14.7-18.7,29.5-28.3,44.2c-11.1,16.7-21.8,33.7-32.9,50.5C429,367,395.6,343.8,363,319.4
					c-15-11.3-30-23-44.5-34.6c-3.4-2.6-3.4-4.5-1.4-7.9c13.9-22.1,27.2-44.8,39.4-68C357.3,207.4,357.6,205.7,358.5,204.3z"/>
				<path class="st69" d="M473.3,399.3c7.7,4.3,15,8.5,22.7,12.8c2,1.1,2.8,2,1.4,4.5c-4.8,7.7-9.9,15.3-14.7,23.2
					c-1.4,2-2.3,2.3-4.8,1.4c-40.5-20.4-77.7-45.6-114.5-72c-23-16.7-45.1-34.3-66.6-53c-2.3-2-2.3-3.1-0.9-5.7
					c4.5-6.5,8.5-13.3,12.8-20.4c1.7-2.8,2.8-4,6-1.4c22.4,18.4,45.6,36,69.5,53c23.8,17.3,48.2,33.5,73.4,48.8
					c1.1,0.9,2.3,1.4,3.7,1.7c0,0.3,0,0.6,0,0.6c-4.5,7.1-9.1,14.2-13.6,21.3c-3.1,4.8-1.1,9.1,4.8,9.6c2.6,0.3,4.5-1.1,5.7-3.1
					c4.8-7.1,9.6-13.9,14.7-21C473,399.6,473.3,399.3,473.3,399.3z"/>
				<path class="st56" d="M422.2,459.1c-0.9-1.1-1.7-2-2-3.4c-2-4.8-5.7-6.2-10.8-6.2c-18.4-0.3-17.3,0.6-27.8-16.7
					c-1.1-1.7-2-4-3.1-5.7c4.5-5.4,10.2-9.1,15.6-13.3c11.6,7.1,23,14.5,34.6,21.3c9.9,6,20.1,11.6,30.3,17.6
					c-2.3,8.2-4.8,15.9-7.4,24.1c-4.3-1.4-8.5-0.6-12.8-1.1c-4.3-0.6-8.2-1.7-10.2-6c1.4-2.8,2.3-5.7,4-8.2c2-3.4,3.7-7.1,4.8-10.8
					c0.6-1.7,1.1-4.3-1.4-5.1c-1.7-0.9-3.1,0.9-4.3,1.7c-1.1,1.4-1.7,2.8-3.1,4.3C426.8,453.7,426.5,457.7,422.2,459.1z"/>
				<path class="st56" d="M330.7,395.9c-4.5-4.8-10.5-4.3-15.9-4.8c-9.4-1.7-16.2-5.7-20.4-14.5c0-0.3-0.3-0.3-0.3-0.3
					c-8.5-16.2-5.1-12.2-22.4-17c0.9-2,2.6-3.1,4.3-4.5c5.7-5.7,11.6-11.3,16.7-17.6c14.7,11.9,29.5,24.4,44.8,35.7
					c3.4,2.3,6.5,4.8,9.6,7.7c-0.9,2.8-3.1,4.3-4.8,6C338,389.7,333.8,391.9,330.7,395.9z"/>
				<path class="st56" d="M461.9,447.8c-55.6-29.2-106.3-65.8-155.1-105.5c-0.9-0.6-1.4-1.4-1.7-1.7c1.4-2.8,2.3-5.7,3.7-8.5
					c13.9,10.8,27.5,21.5,41.4,32.3c33.7,25.5,68.9,49,105.7,70c3.1,1.7,6.2,3.4,9.4,5.1C463.9,442.4,462.8,445.2,461.9,447.8z"/>
				<path class="st70" d="M464.2,387.9c11.1-16.7,21.8-33.7,32.9-50.5c9.6-14.7,19-29.5,28.3-44.2c5.4,1.7,9.9,5.4,13.9,9.6
					c-9.9,14.7-20.1,29.2-30,43.9c-11.1,16.2-22.1,32-33.2,48.2c-4-2-8.2-4.3-11.9-6.2C464.2,388.5,464.2,388.2,464.2,387.9z"/>
				<path class="st56" d="M350.2,382.6c13.6,9.4,26.9,19,40.5,28.3c-0.9,2-2.3,3.7-4,4.8c-3.4,2.8-7.1,4.8-9.1,9.1
					c-2.6-2.3-6-3.1-9.4-3.4c-0.9,0-1.7,0-2,0c-17,1.4-27.2-7.9-33.7-22.7c0.6-1.7,1.7-2.6,2.8-3.7
					C340,391.4,345.7,387.7,350.2,382.6z"/>
				<path class="st71" d="M292.4,337.2c-4.8,6.5-11.1,11.6-16.7,17.6c-1.7,1.7-3.4,2.6-4.3,4.5c-5.1-1.4-10.2-2.3-14.7-5.1
					c-2.6-1.7-4.3-2.3-0.6-4.8c8.5-5.4,17-11.6,24.4-19c1.4-1.4,2.3-1.7,4-0.3C287,332.4,289.9,334.7,292.4,337.2z"/>
				<path class="st71" d="M452,476.4c2.3-8.2,4.8-15.9,7.4-24.1c4.3,2,8.2,4.3,12.2,6.2c1.1,0.6,2,1.1,1.7,2.6
					c-3.4,9.9-4.5,20.4-6.8,30.6c0,0.3-0.3,0.6-0.9,0.9C459.4,488.3,456.8,481.5,452,476.4z"/>
				<path class="st71" d="M308.6,332.1c-1.4,2.8-2.3,5.7-3.7,8.5c-5.7-4.8-11.6-9.6-17.3-14.7c-4-3.7,1.7-4.8,2.3-7.1
					c0.9-2.3,2.3-1.7,3.7-0.3C298.6,323.3,303.7,327.9,308.6,332.1z"/>
				<path class="st71" d="M422.2,459.1c4.3-1.1,4.8-5.1,7.1-7.9c1.4-1.4,2-2.8,3.1-4.3c1.1-1.4,2.3-2.6,4.3-1.7
					c2,1.1,1.7,3.4,1.4,5.1c-1.4,3.7-2.8,7.4-4.8,10.8c-1.7,2.6-2.6,5.4-4,8.2C426.2,466.2,423.9,462.8,422.2,459.1z"/>
				<path class="st71" d="M461.9,447.8c1.1-2.8,2-5.4,3.1-8.2c3.7,1.7,7.4,3.7,11.1,5.4c2.3,1.1,2.3,2,1.7,4.5
					c-2.6,5.7-2.3,5.7-8.2,2.8C467,450.9,464.5,449.5,461.9,447.8z"/>
				<path class="st72" d="M463.9,388.8c4,2,8.2,4.3,11.9,6.2l-0.3,0.3c-0.9,1.7-2.3,2.6-2.6,4.3c0,0-0.3,0.3-0.6,0.3
					c-3.7-2.6-7.7-4.8-11.6-6.8c0-0.3,0-0.6,0-0.6C462.5,391.1,463.1,389.7,463.9,388.8z"/>
				<path class="st71" d="M350.2,382.6c-4.5,4.8-10.2,8.2-15,12.8c-1.4,1.1-2.3,2-2.8,3.7c-1.1-0.9-1.4-2-1.7-3.1
					c3.1-4.3,7.7-6.5,11.6-9.6c2-1.7,4.5-3.1,4.8-6C348.5,380.9,349.4,382,350.2,382.6z"/>
				<path class="st71" d="M377.2,425.4c2-4.3,5.7-6.2,9.1-9.1c1.7-1.7,3.4-2.8,4-4.8c1.4,0.6,2.8,1.1,3.7,2.6
					c-5.4,4.3-11.3,7.9-15.6,13.3C377.7,426.8,377.2,426.2,377.2,425.4z"/>
				<path class="st72" d="M636.8,185.5c1.7,0.6,3.1,1.7,4.5,2.8c5.1,4.3,5.7,6.8,2.3,12.5c-4.3,6.8-8.2,13.6-12.5,20.4
					c-7.1,10.8-14.5,21.3-21.3,32c-2,3.1-4.3,3.4-7.4,1.7c-13-6.5-25.5-13.9-37.7-21.5c-4-2.6-7.9-5.4-11.6-7.9
					c-2.3-1.7-2.3-2.8-1.1-4.8c11.3-17.3,22.4-34.3,33.5-51.3c1.4-1.7,4.5-4,2-7.1c-4.8-1.7-9.4-3.4-13.9-6c-10.8-6-21-11.9-29.5-21
					c-0.9-0.9-1.7-1.7-3.1-1.1c-1.1,0.9,0,2,0.3,2.8c1.4,2.6,2.3,4.8,0.6,7.9c-2.6,4-4.8,8.2-7.4,11.9c-2.6,1.7-2.6,4.8-4,7.1
					c2.3-2.3,5.1-4,6.5-7.4c1.7-3.4,5.1-5.4,6.5-9.1c1.1-3.1,2.6-2.8,4.8-0.9c5.4,5.1,11.6,9.4,18.4,12.5c2.8,1.4,2.8,2.3,1.4,4.8
					c-4.3,7.4-9.6,13.6-12.8,21.3c-1.7,0.9-1.7,2.6-2.3,4c-0.6,2-1.7,4.8,0.6,5.7c1.4,0.6,2.3-2.3,3.1-4
					c5.4-8.8,11.1-18.1,17.3-26.6c1.1-1.7,2-2.3,4-2c2.3,0.3,4.8,0.3,7.1,0.6c-3.4,7.9-8.8,14.7-13.3,21.5
					c-7.1,11.6-14.7,22.7-22.1,34c-1.7,2.3-2.3,2-4.5,0.9c-13-8.8-25.2-19-37.7-28.9c-2.3-2-2-3.4-0.6-5.7
					c10.8-16.2,21.3-32.6,31.5-49c0.9-1.4,1.7-2.8,1.7-4.5c-0.9-0.6-1.7-1.1-2.3-1.4c-11.6-3.7-21.3-9.6-31.2-16.7
					c-5.4-4-10.5-8.5-15.6-12.8v-0.3c0,0,0,0.3,0.3,0.3c0,0.3,0,0.6-0.3,0.9c-4.5,1.7-5.4,6.5-7.7,9.9c-7.4,11.6-14.7,23.2-23,34.6
					c-1.7,2.8-3.1,2.6-5.4,0.6c-9.6-8.2-19.6-15.9-29.5-23.8c-1.1-1.1-2.3-1.7-3.4-2.6c-3.7-2.3-3.7-4.8-1.1-8.2
					c7.9-11.3,16.2-22.1,23-34.3c2.6,1.7,3.1,3.1,1.4,5.7c-2.8,4.3-5.1,8.5-7.9,12.8c-2.6,2-3.7,5.1-4.3,8.2
					c1.7-3.1,5.1-4.8,6.5-8.5c2.3-3.4,5.1-6.5,7.4-9.9c1.7-2.6,2.8-2.8,4.8-0.9c4.8,4.8,10.8,8.2,17,11.3c3.7,1.7,3.1,3.4,1.7,6
					c-3.1,5.1-6.2,10.5-9.1,15.6c-2,3.7-4,7.4-4,11.6c1.7-1.4,2.8-2.6,4-4.3c4-6,8.2-11.9,11.6-18.1c2.6-4.5,5.1-8.5,11.6-6
					c0,0,0.3,0,0.6,0c1.1,0,2,0,2.3-1.4c0-1.1-0.9-1.7-1.7-1.7c-3.1-0.3-5.7-2.3-8.2-3.7c-13.3-6.5-25.2-14.7-36-24.7
					c2.8-1.7,5.7-0.3,8.2,0.9c13,4.3,24.7,11.6,36,18.7c20.1,12.8,40.8,24.9,60.7,37.7c18.7,11.6,37.7,23.8,56.4,35.7
					c0.3,0.3,0.3,0.6,0.6,0.9c-3.4,2.3-1.1,3.7,0.9,4.8c7.7,5.1,15.3,10.5,23,15.3C630,185.5,633.4,187,636.8,185.5z M603.7,217.9
					c-1.1,1.7-2.8,3.1-2.8,5.4c0,1.7-1.1,4.3,0.9,4.8c2.3,1.1,1.7-2.3,3.1-3.4c0.6-0.6,1.1-1.7,1.7-2c4.8-7.7,9.4-15.3,14.2-23
					c2.3-3.4,4.8-6.5,9.9-5.1c1.7,0.6,4,0.3,5.7-1.1c-16.4-6.2-31.2-14.7-43.7-27.2c-0.6-0.6-1.1-1.7-2-1.1
					c-1.7,0.6-1.1,1.7-0.9,2.6c2.6,4.8,0,8.2-2.3,11.9c-2.8,4.8-6.2,9.1-8.5,14.7c6-4.8,8.5-11.6,13.3-16.4c1.4-1.4,2-2.3,4-0.9
					c5.4,5.1,11.6,9.4,18.7,12.5c4,1.7,4,3.7,1.7,7.1C611.6,203.7,607.6,210.8,603.7,217.9z M629.8,204.8c-6,7.4-11.1,15-15,23.5
					C621.3,221.8,626.9,214.5,629.8,204.8z"/>
				<path class="st71" d="M627.8,270c2.3-0.6,4.8,0,6.8-1.7c0.9-0.6,1.7-1.7,1.4-2.6c-0.3-1.1-1.7-0.9-2.3-0.6
					c-7.4,0.9-11.6-3.7-15-8.8c-1.1-1.4-0.6-2.3,0.3-3.7c1.7-2.3,3.1-4.8,4.8-7.4c6,3.7,11.6,8.2,16.7,13c1.7,1.7,4.3,3.1,3.1,6.5
					c-0.6,1.7,2.3,3.1,3.4,4.8c3.4,4.5,3.1,7.4-1.4,9.9c-18.1,10.5-28.1,26.9-34.6,46.2c-3.7,10.8-5.4,11.6-16.4,7.9
					c-5.7-2-11.6-4.3-16.4-8.2c0.3-2.3,0.6-4.8,1.1-7.1c0.6-2-0.3-3.4-2-4.3c-4.3-1.7-7.9-4.8-11.3-7.7
					c-20.4-16.2-37.4-35.7-53.9-55.8c-16.2-19.6-32.3-39.1-51-56.7c-16.7-15.9-35.7-28.3-57-37.4c-4-1.7-6.8-0.9-9.1,2.6
					c-16.7-6.2-34.3-8.5-51.3-13c-3.1-0.9-7.1-1.7-7.7-5.1c-0.6-3.4,3.1-4.8,5.1-6.5c3.4-2.6,7.1-4.8,11.1-6.8
					c12.2-7.1,18.1-17.6,17.9-31.8c0-1.1,0.3-2.3,0.3-3.4c0.9,0.6,1.7,0.6,2.3,1.4c1.7,2.6,8.5,2.8,4,8.5c-0.3,0.3,0,1.1,0.3,1.7
					c1.7,4.5,2.3,9.1,3.7,13.6c0.9,2.8,1.7,6.2,5.4,5.7c4.8-0.9,7.9-5.7,6.8-9.9c-0.3-1.4-1.7-2.3-1.1-4.5c3.7,2.6,7.4,4.8,10.5,7.7
					c2.6,2.3,6.5,2.8,6,9.1c-0.6,6.5,1.7,13.9,2,21c0,2.6,0.3,6.2,4.3,7.4c6.2,1.7,12.8,3.1,19.3,4.8c3.1,0.9,6.2,1.7,10.2,2.3
					c-10.5-12.2-18.1-25.5-30.3-35.2c25.8,19,49.9,40,74,62.1c-2.8,0.6-4-1.1-4.8-1.7c-7.1-5.7-13.6-11.9-21.3-16.7
					c-10.2-6.5-14.2-7.4-21.3-1.1c-2,1.7-1.7,2.8,0.3,4.5c7.4,5.1,14.2,10.8,20.7,16.7c1.4,1.1,2.6,2,4.3,2.6
					c9.1,2.8,18.1,6,27.8,8.2c2.8,0.6,4.8,1.1,4.3-4c18.1,15.6,36,28.6,54.1,42.2c-4.8-0.6-9.6-1.4-14.5-2.3
					c-4.8-1.1-9.6-1.7-14.5-2.8c-4.5-1.1-8.2-4.3-13.6-2.8c7.1,3.7,11.1,11.1,17.9,14.7c1.7,1.1,4.3,1.7,6,2.8
					c2,1.1,4.5,3.1,3.7,5.1c-0.9,2.3-3.4,0.9-5.4,0.9c-3.7-0.6-7.1-0.9-11.3,0.9c7.1,7.7,13.6,14.7,20.1,21.8c1.1,1.1,2,1.7,3.4,1.4
					c2.6-1.1,5.4-1.1,7.9-2.8c4.8-3.7,9.4-6.5,15.9-7.4c8.2-1.4,11.1-2.6,11.1-11.6c1.7,0,2.3,0.9,3.7,1.4c6,3.1,11.6,6.8,18.1,9.1
					c5.7,2,5.7,4.8,4,9.9c-1.1,3.1-3.1,5.7-6,7.7c-8.5,5.4-17,11.3-25.5,16.7c-1.1,0.6-2.3,1.1-2.3,2.3c-0.3,4.3,2.8,6.2,6,7.9
					c2.6,1.7,5.1,2,7.4-1.1c5.7-8.8,13.6-15.3,22.4-21c5.4-3.4,9.9-8.2,9.1-16.2C620.1,275.7,624.4,274.6,627.8,270z"/>
				<path class="st56" d="M627.8,270c-3.4,4.8-7.9,5.7-13.3,3.4c0.6,7.9-3.7,12.8-9.1,16.2c-8.8,5.4-16.7,11.9-22.4,21
					c-2,3.1-4.8,2.6-7.4,1.1c-3.1-1.7-6.2-3.7-6-7.9c0-1.4,1.7-1.7,2.3-2.3c8.5-5.4,17-11.3,25.5-16.7c2.8-1.7,4.8-4.5,6-7.7
					c1.7-4.8,1.7-7.9-4-9.9c-6.2-2.3-11.9-6-18.1-9.1c-1.1-0.6-2-1.7-3.7-1.4c0,8.8-2.8,10.2-11.1,11.6c-6.5,1.1-11.3,3.7-15.9,7.4
					c-2.3,1.7-5.1,1.7-7.9,2.8c-1.4,0.6-2.6-0.3-3.4-1.4c-6.5-7.1-13-14.5-20.1-21.8c4-1.7,7.7-1.4,11.3-0.9
					c1.7,0.3,4.8,1.7,5.4-0.9c0.6-2-1.7-4.3-3.7-5.1c-2-1.1-4.3-1.7-6-2.8c-6.8-4-10.8-11.1-17.9-14.7c4.8-1.4,9.1,1.7,13.6,2.8
					c4.8,1.1,9.4,1.7,14.5,2.8c4.8,1.1,9.4,1.7,14.5,2.3c-18.1-13.6-36.3-26.9-54.1-42.2c0.9,4.8-1.4,4.8-4.3,4
					c-9.4-2-18.4-4.8-27.8-8.2c-1.7-0.6-2.8-1.7-4.3-2.6c-6.8-5.7-13.6-11.6-20.7-16.7c-2-1.7-2.3-2.6-0.3-4.5
					c7.1-6,11.1-5.4,21.3,1.1c7.7,4.8,14.2,11.3,21.3,16.7c1.1,0.9,2,2,4.8,1.7c-24.4-22.1-48.2-43.1-74-62.1
					c11.9,9.6,19.8,23,30.3,35.2c-4-0.9-7.1-1.7-10.2-2.3c-6.5-1.7-12.8-3.1-19.3-4.8c-3.7-1.1-4-4.8-4.3-7.4
					c-0.3-7.1-2.6-14.5-2-21c0.6-6.2-3.4-6.8-6-9.1c-3.1-2.8-6.8-4.8-10.5-7.7c-0.6,1.7,0.9,3.1,1.1,4.5c1.1,4-2,9.1-6.8,9.9
					c-4,0.6-4.8-2.8-5.4-5.7c-1.1-4.8-1.7-9.4-3.7-13.6c-0.3-0.6-0.6-1.4-0.3-1.7c4.8-5.7-2.3-6-4-8.5c-0.6-0.6-1.7-0.9-2.3-1.4
					c-0.3-0.9,0-1.7,0.9-1.7c6,0.3,10.5-4.5,16.2-4.5c-0.3,0.6-0.6,1.4-1.1,1.7c-4.3,4.8-3.1,8.2,3.1,10.5
					c4.3,6.5,11.1,10.2,16.7,14.7c33.2,24.7,64.1,52.2,95.5,78.8c26.1,21.8,53.3,42.2,83.3,59c11.9,6.5,24.1,13.6,37.4,17
					C623.5,269.2,625.8,269.5,627.8,270z"/>
				<path class="st69" d="M517.5,281.6c-7.9-4.8-15.6-9.9-23.5-15c-30.6-20.4-60.7-41.1-89.9-63.2c-9.6-7.4-19-14.7-28.6-22.1
					c-2.3-1.7-2.6-3.1-1.1-5.4c1.7-2,2.6-4.8,4-7.1c3.7-6.8,4-6.8,11.6-4c23,8.5,43.4,21.5,60.9,38.3c17.3,15.9,31.8,34.3,46.5,52.2
					c6.5,8.2,13,15.9,19.8,24.1c0.3,0.6,0.6,1.1,0.9,1.4C518.1,281.1,517.8,281.4,517.5,281.6z"/>
				<path class="st72" d="M537.1,132.5c-6,10.5-12.8,21-19.6,30.9c-4.5,6.5-9.1,13-13,19.8c-1.7,3.1-3.1,2.6-5.4,0.9
					c-8.8-7.7-17.9-15-26.6-22.7c-2.8-2.6-5.7-5.1-8.5-7.7c-2.6-1.7-2.3-3.7-0.6-6c10.5-14.5,19.6-29.2,28.3-44.5
					c3.7,4.8,4.3,9.1,0,14.2c-1.1,1.4-1.7,2.8-2.8,4.5c-2,2-2.8,4.8-4.8,7.7c4.3-1.1,4.8-4.8,7.1-6.8c1.7-2.3,3.1-4.5,4.8-6.8
					c1.4-2,2.6-1.7,4.3-0.3c5.1,5.4,11.6,9.1,18.1,12.5c2.6,1.4,2.8,2.3,1.7,4.8c-3.1,4.8-6.2,9.6-9.1,14.7c-1.7,3.1-4,6.8-2.3,11.6
					c4.3-6.5,8.5-12.2,11.9-18.1c3.4-6.2,7.7-10.5,15.3-8.2C536.2,132.5,536.5,132.5,537.1,132.5z"/>
				<path class="st56" d="M394.2,160c2.3-3.4,5.4-4.3,9.1-2.6c21.3,8.8,40.3,21.3,57,37.4c18.4,17.6,34.6,37.1,51,56.7
					c16.4,20.1,33.5,39.7,53.9,55.8c3.7,2.8,7.1,5.7,11.3,7.7c1.7,0.9,2.6,2,2,4.3s-0.9,4.8-1.1,7.1c-12.8-7.4-23.5-17-34.3-27.2
					c-19.8-19-36.6-40.8-54.1-62.1c-18.1-21.8-36.9-42.5-60.7-58.1C418,171.1,406.4,165.4,394.2,160z"/>
				<path class="st68" d="M437.6,96.5c2.6-4.5,4.8-8.8,7.9-12.8c1.7-2.6,1.4-4.3-1.4-5.7c-2-1.1-2.6,1.1-3.1,2
					c-2.6,3.4-4.8,7.1-7.7,10.8c-2.3-1.4-0.3-2.3,0.3-3.4c2-6,8.2-10.2,7.1-17.6c0.3,0,0.6,0,0.9,0c10.8,10.2,23,18.1,36,24.7
					c2.8,1.4,5.1,3.4,8.2,3.7c1.1,0,1.7,0.9,1.7,1.7c0,1.4-1.4,1.7-2.3,1.4c-0.3,0-0.3,0-0.6,0c-6.2-2.6-8.8,1.7-11.6,6
					c-3.7,6.2-7.9,12.2-11.6,18.1c-1.1,1.7-2.3,2.8-4,4.3c-0.3-4.5,1.7-8.2,4-11.6c2.8-5.1,6-10.5,9.1-15.6c1.7-2.6,2-4.5-1.7-6
					c-6-2.8-11.9-6.5-17-11.3c-2.3-2-3.4-1.7-4.8,0.9c-2.3,3.4-4.8,6.5-7.4,9.9C439,96.5,438.1,96.5,437.6,96.5z"/>
				<path class="st68" d="M555.5,185.8c3.1-7.9,8.5-14.5,12.8-21.3c1.7-2.6,1.7-3.7-1.4-4.8c-6.8-3.1-13-7.4-18.4-12.5
					c-2-2-3.7-2.3-4.8,0.9c-1.4,3.7-4.8,5.7-6.5,9.1c-0.9,0-1.7,0-2.6,0.3c2.3-4,4.8-8.2,7.4-11.9c1.7-2.8,0.9-5.1-0.6-7.9
					c-0.6-0.9-1.4-2-0.3-2.8c1.1-0.9,2,0,3.1,1.1c8.5,8.8,18.7,15,29.5,21c4.5,2.3,9.1,4,13.9,6c-0.9,0.6-1.7,1.1-2.6,1.7
					c-2.3-0.3-4.8-0.3-7.1-0.6c-1.7-0.3-2.8,0.9-4,2c-6.2,8.5-11.6,17.9-17.3,26.6C554.1,190.4,556.9,187.8,555.5,185.8z"/>
				<path class="st68" d="M537.1,132.5c-0.6,0-0.9-0.3-1.4-0.3c-7.9-2-11.9,2-15.3,8.2c-3.4,6.2-7.7,11.6-11.9,18.1
					c-1.7-4.8,0.6-8.2,2.3-11.6c2.6-4.8,6-9.9,9.1-14.7c1.7-2.3,1.1-3.4-1.7-4.8c-6.5-3.4-13-7.1-18.1-12.5
					c-1.7-1.7-2.8-1.7-4.3,0.3c-1.7,2.3-3.1,4.8-4.8,6.8c-0.9-0.3-1.7-0.6-2.3-0.9c1.1-1.7,1.7-3.1,2.8-4.5c4.3-4.8,3.7-9.4,0-14.2
					c-0.3-0.6-0.3-1.4-0.6-1.7c0.3-0.3,0.3-0.6,0.3-0.9l0,0c5.1,4.3,10.2,8.8,15.6,12.8c9.4,7.1,19.6,13,31.2,16.7
					c0.9,0.3,1.7,0.9,2.3,1.4C538.8,131.4,538.2,132.2,537.1,132.5z"/>
				<path class="st72" d="M440.4,70.2c1.4,7.4-4.8,11.6-7.1,17.6c-0.6,1.1-2.6,2-0.3,3.4c-4.3,7.9-10.5,14.7-14.7,22.1
					c-1.1,1.7-2,2.6-4.3,1.1c-1.7-1.7-3.7-2.3-2-5.1c4-6.2,7.7-12.8,11.6-19.3c3.4-5.4,6.8-10.8,10.5-15.6
					C435.9,71.9,437.3,69.3,440.4,70.2z"/>
				<path class="st71" d="M388.2,99.4c-6.2-2-7.4-5.7-3.1-10.5c0.6-0.6,0.9-1.4,1.1-1.7c8.2-0.3,15.3,1.7,21.5,6.5
					c0.9,0.6,1.7,0.9,2.8,1.4c0.6,0.3,1.1,0.6,1.4,1.1c0.6,1.4-5.4,7.4-6.8,7.4c-4.8,0-8.2-3.1-11.6-6.2c-1.4-1.1-2-2.6-4.3-1.7
					C387.1,96,388.8,97.7,388.2,99.4z"/>
				<path class="st69" d="M636.8,185.5c-3.7,1.1-6.8,0-9.6-2c-7.9-4.8-15.3-10.2-23-15.3c-1.7-1.4-4.3-2.6-0.9-4.8
					C615,170.2,626.6,176.8,636.8,185.5z"/>
				<path class="st71" d="M461.4,392.8c4.3,1.7,7.9,4.3,11.6,6.8c-4.8,7.1-9.6,13.9-14.7,21c-1.7,2-3.1,3.4-5.7,3.1
					c-5.7-0.6-7.9-4.8-4.8-9.6C452.3,406.9,456.8,399.9,461.4,392.8z"/>
				<path class="st68" d="M603.7,217.9c4.3-7.1,8.2-14.2,12.5-21c2.3-3.4,2.3-5.4-1.7-7.1c-7.1-2.8-13.3-7.4-18.7-12.5
					c-1.7-1.7-2.6-0.9-4,0.9c-4.8,5.1-7.4,11.6-13.3,16.4c2.3-5.7,5.7-10.2,8.5-14.7c2.3-4,4.8-7.4,2.3-11.9c-0.6-0.9-0.9-2,0.9-2.6
					c1.1-0.6,1.7,0.6,2,1.1c12.2,12.2,27.2,21,43.7,27.2c-1.7,1.7-4.3,1.7-5.7,1.1c-5.1-1.7-7.9,1.7-9.9,5.1
					c-4.8,7.7-9.4,15-14.2,23C603.4,221.8,605.7,218.4,603.7,217.9z"/>
				<path class="st15" d="M629.8,204.8c-2.6,9.4-8.2,17-15,23.5C618.7,220.1,623.5,212.2,629.8,204.8z"/>
				<path class="st69" d="M603.7,217.9c2,1.1-0.3,4.3,2.6,4.8c-0.6,0.9-0.9,1.7-1.7,2c-1.1,1.1-0.6,4.3-3.1,3.4
					c-1.7-0.9-0.9-3.1-0.9-4.8C600.6,220.7,602.3,219.3,603.7,217.9z"/>
				<path class="st69" d="M555.5,185.8c1.7,1.7-1.4,4.5,1.4,6c-0.9,1.7-1.7,4.5-3.1,4c-2.3-1.1-1.1-4-0.6-5.7
					C553.8,188.4,553.8,186.7,555.5,185.8z"/>
				<path class="st69" d="M534.8,157.2c0.9,0,1.7,0,2.6-0.3c-1.4,3.1-4.3,4.8-6.5,7.4C532,162,532,158.9,534.8,157.2z"/>
				<path class="st69" d="M437.6,96.5c0.9,0,1.7-0.3,2-0.3c-1.1,3.7-4.5,5.7-6.5,8.5C433.6,101.9,435,98.8,437.6,96.5z"/>
				<path class="st68" d="M491.4,101.1C491.4,101.1,491.4,100.8,491.4,101.1C491.1,100.8,491.4,100.8,491.4,101.1L491.4,101.1z"/>
				<path class="st69" d="M488.9,122c0.9,0.3,1.7,0.6,2.3,0.9c-2,2-2.8,5.7-7.1,6.8C486,126.9,486.6,124,488.9,122z"/>
			</g>
		</g>
		<polyline class="st15" points="558.8,344.2 538.6,376.9 530,363.2 545.6,339.9 		"/>
		<g>
			<g>
				<path class="st73" d="M45.8,260.9c1.1,3.4,2,6.8,3.4,10.2c-4.5,2.6-5.1,4.8-4,9.6c0.3,0.9,0.6,1.7,0.9,2.3
					c8.8,22.1,17,44.5,26.4,66.6c15,35.2,31.5,69.7,49.6,103.5c12.8,24.4,26.6,47.6,42.8,70c1.1,1.7,1.4,2.8,1.4,4.8
					c0,11.3-0.3,22.4,2,33.5c1.4,6.5,5.1,10.8,11.6,11.9c10.8,2.3,19-2,24.7-10.8c7.1-11.1,15.6-13.6,27.8-9.9
					c17.3,4.8,30.3-1.4,38.3-17.3c1.4-2.6,3.1-5.1,4.8-7.9c3.4-5.1,8.2-7.7,14.2-7.4c4.5,0,8.5,1.1,13,1.4
					c18.4,2,32.9-4.8,42.8-20.4c2-3.1,4-6.2,6.2-9.1c3.4-4.8,8.2-6.8,13.9-6.8c4.8,0,9.1,1.4,13.9,1.7c15.9,1.7,28.6-3.4,37.7-16.7
					c2-3.1,3.7-6.5,5.4-9.9c3.7-6.2,9.4-9.4,16.7-9.4c3.1,0,6.2,0.3,9.4,0.3c8.2,0.3,14.7-2.3,20.1-8.2c5.7-6.5,6.2-13.9,0.9-20.7
					c-7.1-8.8-15.6-16.2-24.7-23.2c-1.1-0.9-2.3-1.7-2.6-3.4c-4.5-23-12.8-44.5-20.7-66.6c-7.4-20.1-15.6-39.7-24.1-59.2
					c-21.3-49-45.1-96.7-72-142.9c-7.1-12.2-14.7-24.7-24.1-35.2c-0.9-0.9-1.1-1.7-1.1-2.8c0-7.9-1.7-15.6-3.4-23.5
					c-1.1-4.8-2.3-9.9-5.7-13.9c-8.2-9.1-23.5-7.7-30.6,3.1c-1.7,2.6-3.4,5.4-5.1,8.2c-4,5.7-9.4,7.9-16.2,6c-4-1.1-7.9-2.6-11.6-4
					c-13.6-3.4-27.5,2.3-34.6,15.3c-2,4-3.7,8.2-5.7,12.2c-4.3,8.5-11.1,11.6-20.1,9.4c-4.8-1.1-9.4-2.8-14.2-3.7
					c-13.6-2.6-26.1,3.1-33.2,15.3c-2,4-3.7,7.9-5.7,11.6c-4.8,9.9-11.6,13-22.1,9.9c-3.4-1.1-6.8-2.3-10.2-3.1
					c-15.3-3.7-28.1,2.8-34.3,17.6c-1.1,2.8-2,5.7-3.1,8.5c-2.8,6.8-7.4,9.4-14.7,8.5c-2.8-0.3-5.4-1.1-8.2-1.7
					c-7.9-1.4-13.9,1.7-18.1,7.9c-4.5,6.2-4.8,12.8-0.6,19c5.7,8.5,12.2,16.4,20.1,23c1.7,1.4,2.3,2.8,2.8,4.8
					c2,12.2,6,23.8,9.9,35.4C38.7,261.2,40.7,262.4,45.8,260.9z"/>
				<path class="st15" d="M470.7,424.2c-7.1-8.8-15.9-16.2-24.7-23.2c-0.9-1.1-2.3-1.7-2.6-3.4c-4.8-23-12.8-44.8-20.7-66.6
					c-7.4-20.1-15.9-39.7-24.1-59.2c-21-49.3-45.1-96.7-72-142.9c-7.1-12.2-14.5-24.4-24.1-35.2c-0.9-0.9-1.1-1.7-1.1-2.8
					c-0.3-8.2-1.7-15.6-3.4-23.5c-1.1-5.1-2.3-9.9-5.7-13.9c-8.2-9.1-23.5-7.7-30.6,3.1c-1.7,2.8-3.4,5.7-5.1,8.2
					c-4,5.7-9.4,7.7-16.2,6c-3.7-1.1-7.7-2.8-11.6-4c-14.2-4-27.8,1.7-34.9,14.7c-2,4-3.7,8.2-5.7,12.2c-4.3,8.2-10.8,11.3-20.1,9.4
					c-4.8-1.1-9.4-2.8-14.2-3.7c-13.9-2.8-26.4,3.4-33.2,15.3c-2.3,3.4-4,7.7-5.7,11.6c-4.5,9.9-11.6,13-22.1,9.9
					c-3.4-1.1-6.8-2.3-10.2-3.1c-15.6-3.7-28.3,2.8-34.3,17.6c-1.1,2.8-1.7,5.7-3.1,8.5c-3.1,6.8-7.4,9.4-14.7,8.5
					c-2.8-0.6-5.4-1.1-8.2-1.7c-7.4-0.9-13.6,1.7-18.1,7.9s-4.8,12.8-0.6,19c5.7,8.2,12.2,16.2,20.1,23c1.4,1.4,2.6,2.8,2.8,4.8
					c2,12.2,6,23.8,9.9,35.4c1.4,5.1,4,6.2,9.1,4.8c3.4-2.3,4-5.4,3.7-7.4c-3.7-10.5-6.5-21-9.1-31.8c-0.3-1.4-0.3-2.6,1.1-3.4
					c7.7-5.1,14.7-10.5,23-14.7c12.8-8.5,26.4-15.9,39.7-23.2c26.4-14.7,53.3-27.5,81.1-39.4c25.5-11.1,51.3-21.3,78.2-29.5
					c1.4-0.3,2.8-0.9,4.3-1.1c8.2-3.4,17-5.7,25.5-7.4c1.7-0.3,2.3,0.9,3.4,2c6.5,7.7,11.9,16.4,17,24.9
					c12.5,21,23.5,42.5,34.9,64.1c10.8,20.7,21,41.1,30.3,62.4c7.7,17.6,15,34.9,22.4,52.7c7.9,19.8,15.6,40.3,22.1,60.7
					c3.4,9.6,6,19.3,8.2,29.2c0.3,2.3,0,3.4-1.7,4.8c-14.2,11.1-29.5,21-44.8,30.6c-32.9,20.4-68,36.6-103.2,51.6
					c-32.6,13.9-66.3,24.9-100.9,32c-2.6,0.9-4.3,0.3-6-2c-8.2-11.6-15.9-23.5-23.2-35.7c-9.9-16.7-19-34-27.8-51.6
					c-11.1-21.8-21.8-43.7-31.5-66.1c-8.2-18.1-15.6-36.9-23-55.3c-4-9.9-8.2-19.6-11.1-29.8c-0.9-3.4-4-5.1-8.2-4.5
					c-4.5,2.6-5.7,4.8-4,9.6c0.3,0.6,0.6,1.4,0.9,2.3c8.8,22.4,17,44.8,26.4,66.6c15,35.2,31.5,69.7,49.6,103.5
					c12.8,24.4,26.6,47.9,42.8,70c1.1,1.7,1.4,3.1,1.4,4.8c0,11.3-0.3,22.4,2,33.5c1.1,6.2,5.1,10.5,11.6,11.9
					c10.5,2.3,19.3-2.3,24.7-10.8c6.8-11.1,15.6-13.6,27.8-9.9c17,4.8,30-1.4,38.3-17.3c1.7-2.8,3.1-5.4,4.8-7.9
					c3.1-5.1,8.2-7.4,14.2-7.4c4.5,0,8.5,0.9,13,1.4c18.4,2,32.9-4.8,42.8-20.4c2-3.1,4.3-6.2,6.2-9.1c3.4-4.8,8.2-6.8,13.9-6.8
					c4.8,0,9.1,1.1,13.9,1.7c15.6,1.4,28.6-3.4,37.7-16.7c2-3.1,3.7-6.8,5.4-9.9c4-6.2,9.4-9.1,16.7-9.4c3.1-0.3,6.2,0.3,9.4,0.3
					c8.2,0.3,15-2.3,20.1-8.2C475.5,438.4,476.1,431,470.7,424.2z"/>
				<path class="st52" d="M199.3,505.3c-7.4,0-13.8-2-19.6-6l-0.1-0.1c-2.5-1.9-4.6-4-6.7-6.1c-0.1-0.1-0.1-0.1-0.2-0.1
					c-2.2-2-2.2-4.2-1.7-5.7c0.6-2.3,2.6-3.8,5-3.8c0.2,0,0.4,0,0.6,0c-6.2-3.1-11.5-7.6-16.5-12.1l-0.1-0.1
					c-9.8-9.2-16.7-20.1-22-29.6c-6.8-11.4-12.9-23.2-18.8-34.7c-1.3-2.6-2.6-5.1-4-7.7c-8.6-16.7-16.4-34.1-23.8-50.9l-2.1-4.6
					c-4.9-11.1-9.5-22.7-13.9-33.8c-4.1-10.2-8-20.6-11.7-30.7c-1.2-3.2-2.4-6.4-3.6-9.7c-0.6-1.6-0.8-3-0.6-4.2h-0.2
					c-3.1-0.5-4.3-2.3-4.7-3.3c-0.7-1.6-0.5-3.4,0.5-5c1.5-2.4,0.8-4.9-0.5-8.9c-0.3-0.9-0.6-1.8-0.9-2.8v-0.1
					c-2.8-11.4-5-21.7-2.3-32.9c1.1-4.7,3.1-8.2,6.4-11.2l0.1-0.1c0,0,0.6-0.4,0.6-0.5l-0.3-1.6l2.2-1.5c12.6-8.6,26.6-16.2,40-23.5
					c22.9-12.8,48.6-25.3,80.8-39.3c26.2-11.6,52.7-21.6,78.7-29.6l0.6-0.2h0.6c2.3,0,3.1-0.3,3.8-0.6l2.5-1l1.6,1.6
					c0.2,0,0.4-0.1,0.6-0.2c0.5-0.1,1-0.3,1.5-0.4h0.1h0.1c1.1-0.1,2.2-0.2,3.3-0.2c5.3,0,10.5,1.3,15.1,3.7
					c1.4,0.6,4.9,2.3,5.8,5.9c0.4,1.5,0.1,3-0.4,4.3c0.5-0.1,1-0.2,1.5-0.2c3.6,0,5.5,3,6.1,4c4.2,6.8,8.2,13.8,12,20.6
					c2.1,3.8,4.3,7.7,6.5,11.6c2.4,4,4.8,8.7,7,13.6l11.8,23.7c13.5,25.4,25.3,51.8,36.8,77.4l1.9,4.1c5.6,12.7,11.4,25.7,14.9,39.3
					c0.2,0.5,0.4,1,0.6,1.6c0.5,1.3,1.2,2.7,1.4,4.2c1.9,8.5,1.5,16.7-1.3,24.3c0.9-1.1,2.5-2.4,4.9-2.4h0.5l0.5,0.1
					c3,0.8,4,3.4,4.4,4.4l0.1,0.1l0.1,0.3l0.1,0.4c3.4,12.2,6.6,28.4,2,45.6c-3.1,11.4-9.3,21.8-19.2,31.6
					c-11.4,11.4-24.2,19.9-35.3,26.9c-19.2,12.2-39.9,21.8-59.5,30.4c-14.3,6-29.4,11.2-46.2,15.8c-13.3,3.7-25.3,6.9-37.6,8.6
					C205.7,505,202.4,505.3,199.3,505.3z M173.9,202.5c-23.7,13.4-40.9,31-52.7,53.8c-18,34.6-18.1,68.6-0.3,101.3
					c13,23.5,32.6,40.2,58.4,49.7c15.5,5.6,30.9,8.5,45.8,8.5l0,0c22.8,0,45.4-6.6,67.1-19.8c24.2-14.5,41.8-35,52.1-60.9
					c13.2-33.6,11.8-64.4-4.3-94c-12-22.4-30.6-38.4-55.4-47.7c-14.9-5.6-30.1-8.5-45.1-8.5c-18.2,0-36.7,4.2-55.2,12.4
					c-2.3,1.1-4.8,2.3-7.1,3.5C176.1,201.4,175,202,173.9,202.5z"/>
				<path class="st52" d="M266.6,108.4c1.7,1.7,3.7,0.6,5.4,0.3c5.7-0.6,11.3,0.6,16.2,3.1c4.5,2,4.5,4.3,1.4,7.9
					c-1.7,1.7-4,2.3-6.5,4.3c4.5,0.9,8.2,0.9,11.9-1.1c2-1.1,3.1-0.9,4.5,1.4c6.5,10.5,12.2,21.3,18.4,32c2.6,4.3,4.8,8.8,6.8,13.3
					c4,7.9,7.9,15.9,11.9,23.8c14.2,26.6,26.4,54.1,38.6,81.4c5.7,12.8,11.3,25.5,14.7,38.8c0.6,1.7,1.7,3.7,2,5.4
					c3.4,14.7-1.1,27.5-11.6,38c-0.6,0.6-1.1,1.1-1.7,1.7c3.1,0.6,4.8-1.4,7.1-2.3c4.5-2.8,8.2-6,11.6-10.5c0.6-0.9,1.1-1.7,2.3-1.7
					c1.1,0.3,1.4,1.7,1.7,2.3c4,14.5,6,28.6,2,43.4c-3.1,11.6-9.6,21.3-18.1,29.8c-10.5,10.5-22.1,18.4-34.6,26.4
					c-18.7,11.9-38.8,21.3-59,30c-14.7,6.2-30,11.3-45.6,15.6c-12.2,3.4-24.7,6.8-37.1,8.5c-9.1,1.7-18.1,1.7-26.6-4.3
					c-2.3-1.7-4.3-3.7-6.2-5.7c-0.6-0.6-1.1-0.9-0.9-1.7c0.3-1.1,1.4-0.9,1.7-0.6c3.4,0.3,6.8-0.3,10.2-1.1c2-0.6,4-1.1,5.1-3.1
					c-12.2-0.9-21-7.9-29.2-15.3c-8.8-8.2-15.3-18.1-21.3-28.6c-8.2-13.9-15.3-28.1-22.7-42.2c-9.4-18.1-17.6-36.9-25.8-55.3
					c-4.8-11.1-9.4-22.4-13.9-33.7C73.9,295.3,69.1,282,64,268.3c-0.6-1.4-0.6-2.6,0.6-3.7c1.7-1.7,0.6-2.6-1.4-2.6
					c-1.1-0.3-2-0.6-3.1-0.6c-1.7-0.3-2-1.1-1.4-2c3.1-5.1,0.6-9.9-0.9-15c-2.6-10.2-4.8-20.4-2.3-30.9c0.9-3.7,2.3-6.5,5.1-9.1
					c1.1-0.9,2.6-1.7,2.3-3.4c12.5-8.5,26.1-15.9,39.7-23.2c25.8-14.5,53-27.2,80.5-39.1c25.5-11.3,51.6-21.3,78.2-29.5
					C263.8,109.3,265.2,109,266.6,108.4z M182.7,193.5c-3.7,1.7-7.4,3.7-10.8,5.4c-23.5,13.3-42,31.5-54.4,55.6
					c-18.1,34.9-19.3,70.3-0.3,105.2c13.6,24.7,34.3,42,60.7,51.6c40.5,14.7,79.4,10.8,116.5-11.6c24.7-14.7,43.1-36,53.9-62.9
					c13-33.2,12.8-65.8-4.5-97.5c-12.8-23.8-32.6-40.3-57.5-49.6C251,176.2,216.4,178.5,182.7,193.5z"/>
				<path class="st69" d="M266.6,108.4c8.2-3.4,17-5.4,25.5-7.4c1.7-0.6,2.6,0.9,3.4,2c6.2,7.9,11.6,16.4,17,24.9
					c12.8,21,24.1,42.2,34.9,64.1c10.8,20.7,21.3,41.1,30.3,62.4c7.7,17.6,15,34.9,22.4,52.7c8.2,19.8,15.6,40.3,22.1,60.7
					c3.1,9.6,5.7,19.3,8.2,29.2c0.6,2.3,0,3.7-1.7,4.8c-14.5,11.1-29.5,21-44.8,30.6c-32.6,20.7-67.5,36.6-103.2,51.6
					c-32.6,13.9-66.1,24.9-100.9,32c-2.6,0.6-4.5,0.3-6-2c-8.2-11.6-15.9-23.5-23.2-35.7c-9.9-17-19-34.3-27.8-51.6
					c-11.3-21.5-21.5-43.7-31.5-66.1c-7.9-18.1-15.6-36.9-23-55.3c-4-9.9-8.2-19.6-11.1-29.8c-1.1-3.4-4.3-5.1-8.2-4.5
					c-1.1-3.4-2-6.8-3.4-10.2c3.4-2.3,4-5.4,2.6-9.4c-3.4-10.5-6.5-21.3-9.1-31.8c-0.3-1.7-0.3-2.6,1.1-3.4
					c7.7-5.1,14.7-10.5,23-14.7c0.3,1.7-1.4,2.3-2.3,3.4c-2.6,2.3-4.3,5.4-5.1,9.1c-2.6,10.8-0.3,20.7,2.3,30.9
					c1.4,4.8,4.3,9.6,0.9,15c-0.9,1.4-0.3,2,1.4,2c1.1,0,2,0.6,3.1,0.6c1.7,0.3,2.8,0.9,1.4,2.6c-0.9,1.1-1.1,2.3-0.6,3.7
					c5.1,13.3,9.9,26.9,15.3,40.3c4.8,11.3,8.8,22.7,13.9,33.7c8.2,18.4,16.4,37.1,25.8,55.3c7.4,14.2,14.7,28.3,22.7,42.2
					c6,10.5,12.2,20.7,21.3,28.6c8.2,7.7,17,14.7,29.2,15.3c-1.4,2-3.1,2.8-5.1,3.1c-3.4,0.9-6.5,1.4-10.2,1.1
					c-0.6,0-1.7-0.3-1.7,0.6c-0.3,0.9,0.3,1.1,0.9,1.7c1.7,2,4,4,6.2,5.7c8.2,6,17.3,5.4,26.6,4.3c12.5-2,24.7-5.1,37.1-8.5
					c15.3-4.5,30.9-9.4,45.6-15.6c20.4-8.5,40.5-18.1,59-30c12.2-7.9,24.4-15.9,34.6-26.4c8.5-8.5,14.7-18.1,18.1-29.8
					c4.3-14.7,1.7-28.9-2-43.4c-0.3-0.9-0.6-2-1.7-2.3s-1.7,0.9-2.3,1.7c-3.1,4.5-7.1,7.9-11.6,10.5c-2,1.4-4,2.8-7.1,2.3
					c0.9-0.9,1.4-1.4,1.7-1.7c10.5-10.8,14.7-23.2,11.6-38c-0.6-1.7-1.7-3.7-2-5.4c-4-13.6-9.4-26.4-14.7-38.8
					c-12.2-27.5-24.7-54.7-38.6-81.4c-4.3-7.9-8.2-15.9-11.9-23.8c-2.3-4.5-4.5-8.8-6.8-13.3c-6.2-10.8-11.9-21.5-18.4-32
					c-1.4-2-2.3-2.6-4.5-1.4c-3.7,1.7-7.7,1.7-11.9,1.1c2.6-1.7,4.8-2.3,6.5-4.3c3.4-3.7,3.1-5.4-1.4-7.9
					c-5.1-2.6-10.5-3.7-16.2-3.1C270.3,109,268.6,109.8,266.6,108.4z"/>
				<path class="st73" d="M176.7,115.8c12.5-2.6,21-10.5,25.2-22.1c1.4-3.1,2.3-6.2,4.5-9.1c4.5-6,10.5-8.2,17.6-6.2
					c2.8,0.9,5.4,1.7,8.2,2.8c15,5.1,28.1,0.6,36.9-12.8c2-3.1,3.1-7.7,7.9-8.5c2.8,5.4,2.8,11.1,2.6,17c-0.3,4.8-2.8,8.2-6.2,11.6
					c-6.2,6-14.7,7.4-22.4,10.5c-3.7,1.7-7.7,2.3-10.5,5.1c-11.3,4.5-22.7,8.5-34,13.3c-26.9,10.5-53,22.4-78.5,35.2
					c-11.1,5.4-21.5,11.1-32.3,16.7c-4.5,2.6-9.4,4.8-13.9,7.7c-2-1.1-3.7-0.6-4,2c-0.6,0.3-0.9,0.6-1.4,0.9
					c-1.4-0.9-2.3,0.3-3.4,0.9c-6.2,3.1-12.2,6.2-18.1,9.6c-3.1,1.7-6.5,3.4-9.9,4.5c-11.6,3.4-21.3-4-28.6-14.7
					c2-1.7,4.8-1.1,7.1-0.6c6.2,1.4,12.5,2,18.4,0c8.2-3.1,13.9-8.8,16.7-17.3c1.1-2.6,1.7-4.8,2.6-7.7c3.1-7.9,9.4-11.3,17.6-9.1
					c4.3,1.1,8.2,2.6,12.5,3.7c9.4,2.3,18.1,0.9,25.8-5.1c0.9-0.6,1.7-1.1,2.6-1.7c0.9,0.9,1.7,0.6,2.3-0.3
					c5.1-4.8,8.5-10.8,10.8-17.3c0.6-1.4-0.6-1.7-1.4-2.3c4.3-9.6,12.8-13.3,22.7-10.2c2.3,4.8,17.6,7.4,21.5,5.1
					C176.2,116.7,176.7,116.1,176.7,115.8z"/>
				<path class="st73" d="M448,438.4c-0.6,0-1.1,0-1.7,0c-0.6-1.1-1.4-1.4-2.3-1.4c-15.9-1.4-28.3,6.2-36.6,21
					c-3.1,5.7-6,11.6-12.5,13.9c-5.1,2-10.5,0.9-15.9-0.3c-3.7-0.9-7.4-1.7-11.3-1.4c-10.2,0.6-18.7,5.1-26.4,11.6
					c-3.4,2.8-6.2,6.2-8.2,10.5c-2,4.8-6,8.2-8.2,12.5c-1.7,1.4-4,2-6,2.6c-0.6-0.9-1.4-1.1-2.3-0.9c-5.4,0.6-10.8-0.6-15.9-1.7
					c-17-2.8-35.2,6-42.5,22.1c-4.8,10.8-11.3,14.5-23.8,9.9c-11.6-4.3-23.2-1.7-32.9,6.5c-4,3.4-6.5,7.9-9.9,11.6
					c-0.9,0.9-1.4,1.7-2.6,1.7c-1.4-0.6-1.7-1.7-1.7-2.8c-0.6-8.2,1.7-15.6,8.2-21.5c4.8-4.8,11.6-7.1,18.1-9.1
					c10.2-3.4,20.4-7.4,30.6-10.8c6.2-2,12.2-5.4,18.4-7.4c3.4-1.1,7.4-2,9.9-4.8c2.3-1.1,4.8-2,7.4-3.1c3.1,0.9,5.4-1.1,7.7-2.8
					c17.3-7.9,34.6-15.9,51.9-23.8c1.7,0.3,2.8,0,3.4-1.7c3.4-2.3,7.4-4,11.1-5.7c0.6,0,1.4,0.3,1.7,0c8.5-3.4,16.4-8.2,24.7-12.2
					c2.8-1.4,5.4-2.8,8.2-4.5c11.3-6.2,22.1-13.3,34-18.7c9.6-4.5,18.7-4.3,27.8,1.7c3.1,2,6,4.3,5.4,8.2c-1.4,0.3-2.3,0.9-3.7,0.6
					C450,437.6,449.2,436.7,448,438.4z"/>
				<path class="st74" d="M272.3,500.5c-2.6,2.8-6.2,4.3-9.9,4.8c-6.5,1.7-12.2,5.1-18.4,7.4c-10.2,3.4-20.1,7.7-30.6,10.8
					c-6.2,2-12.8,4.3-18.1,9.1c-6.2,6-8.5,13.3-8.2,21.5c0,1.4,0.3,2.6,1.7,2.8c1.4,0.6,2-0.9,2.6-1.7c3.1-4,5.7-8.2,9.9-11.6
					c9.9-8.2,21.3-10.8,32.9-6.5c12.8,4.5,19,0.6,23.8-9.9c7.4-16.2,25.5-24.9,42.5-22.1c5.1,0.9,10.5,2,15.9,1.7
					c0.9,0,1.7,0,2.3,0.9c-4.8,1.7-9.4,1.7-14.5,1.1c-3.7-0.6-7.4-1.1-11.1-1.4c-13.3-0.9-23.2,4.8-30.3,15.9
					c-1.7,3.1-3.4,6.2-5.1,9.1c-4.5,6.8-10.5,9.9-18.4,8.5c-3.1-0.6-6.5-1.4-9.6-2c-12.5-3.1-22.7,0.9-30.9,10.5
					c-2.6,3.1-4.8,6.5-7.7,9.1c-1.7,1.7-3.7,2.3-6,2.3c-2.6,0-4.5-0.9-4.8-3.7c-1.7-8.8-1.7-18.1-1.7-26.9c0-2,1.7-1.7,2.8-2
					c8.5-2,17.6-4.3,26.1-6.5c20.1-5.4,40-12.2,59.5-20.1C268.9,501.6,270.3,500.5,272.3,500.5z"/>
				<path class="st74" d="M455.1,438.1c0.3-4.3-2.6-6.2-5.4-8.2c-8.8-6-18.1-6.2-27.8-1.7c-11.6,5.4-22.7,12.5-34,18.7
					c-2.8,1.7-5.4,3.1-8.2,4.5c-8.2,4.3-15.9,8.8-24.7,12.2c-0.6,0.3-1.1,0-1.7,0c4.3-3.1,9.1-5.1,13.6-7.9
					c23.8-13.3,47.1-27.2,68.6-43.7c2.6-1.7,4.3-2,6.8,0.3c5.1,5.1,10.8,9.9,15.9,14.7C463.1,432.2,461.9,436.1,455.1,438.1z"/>
				<path class="st74" d="M240.2,103.3c2.8-2.8,6.8-3.7,10.5-5.1c7.7-3.4,16.2-4.5,22.4-10.5c3.4-3.1,6-6.5,6.2-11.6
					c0.6-6,0.6-11.6-2.6-17c4.3-0.9,6,0,7.4,3.7c2.6,8.2,3.4,16.4,4.5,24.7c0.3,1.4-0.3,1.7-1.4,2c-15.6,3.7-31.2,8.5-46.5,13.9
					C240.8,103.6,240.5,103.3,240.2,103.3z"/>
				<path class="st74" d="M16,179.3c7.7,10.5,17,18.1,28.6,14.7c3.4-1.1,6.8-2.6,9.9-4.5c6-3.4,11.9-6.8,18.1-9.6
					c1.1-0.6,2-1.4,3.4-0.9c-5.1,4-11.1,6.8-16.2,10.2c-8.2,5.4-16.7,11.1-24.9,16.4c-1.1,0.9-2,1.7-3.4,0.3
					c-5.7-6-11.6-11.9-16.2-19C13.5,184.1,13.2,181.6,16,179.3z"/>
				<path class="st74" d="M324.7,505.3c2.3-4.5,6.2-7.9,8.2-12.5c1.7-4.3,4.8-7.7,8.2-10.5c7.7-6.5,15.9-11.3,26.4-11.6
					c4-0.3,7.7,0.6,11.3,1.4c5.1,1.1,10.5,2,15.9,0.3c6.5-2.6,9.6-8.2,12.5-13.9c8.2-14.7,20.7-22.1,36.6-21c1.1,0,1.7,0.3,2.3,1.4
					c-3.7,0.3-7.7,0-11.3,0.6c-9.4,1.4-16.7,6.2-21.8,14.5c-1.7,2.3-3.1,4.8-4.5,7.7c-6.2,11.3-15.3,15.6-28.1,13.6
					c-5.7-1.1-11.6-2-17.6-1.4c-10.5,1.4-18.1,7.1-24.1,15.6c-2.3,3.4-4.3,6.8-6.5,9.9C330.7,501.3,327.8,503.9,324.7,505.3z"/>
				<path class="st74" d="M131.1,122c0.9,0.6,1.7,1.1,1.4,2.3c-2,6.8-5.4,12.5-10.8,17.3c-0.9,0.6-1.7,0.9-2.3,0.3
					c4.8-4.8,7.9-10.5,10.2-16.7C130,124,130.3,122.9,131.1,122z"/>
				<path class="st74" d="M176.7,115.8c0,0.9-0.6,1.1-1.1,1.4c-4.3,2-19.3-0.3-21.5-5.1C161.4,113.8,168.8,116.1,176.7,115.8z"/>
				<path class="st74" d="M287,494.5c-2,1.7-4.5,4-7.7,2.8C281.9,496.2,284.5,495.1,287,494.5z"/>
				<path class="st74" d="M77.5,178.2c0.3-2.6,1.7-2.8,4-2C80.4,177,78.9,177.9,77.5,178.2z"/>
				<path class="st74" d="M342,469.3c-0.6,1.7-1.7,2-3.4,1.7C339.8,470.2,341.2,469.6,342,469.3z"/>
				<path class="st74" d="M448,438.4c1.1-1.7,2-1.1,3.1,0C450,439.3,449.2,439,448,438.4z"/>
				<path class="st15" d="M182.7,193.5c34-14.7,68.3-17.3,103.5-4.3c24.9,9.4,44.5,25.8,57.5,49.6c17.3,31.8,17.6,64.4,4.5,97.5
					c-10.8,27.2-28.9,47.9-53.9,62.9c-36.9,22.1-76,26.4-116.5,11.6c-26.4-9.6-47.1-26.9-60.7-51.6c-19.3-34.9-17.9-70.3,0.3-105.2
					c12.2-24.1,31.2-42.2,54.4-55.6C175.3,197.2,179,195.2,182.7,193.5z M274.8,396.2c3.1-1.7,6-3.1,9.1-4.8
					c2.8-1.7,5.4-3.4,8.2-4.8c28.1-19.3,45.6-45.4,51-79.1c6.8-42-13.6-81.9-51-101.2c-33.5-17.3-67.5-16.4-101.5-2
					c-26.9,11.6-47.3,30.3-61.2,55.8c-23.5,42.8-12.8,95.5,26.6,124.5C192.6,411.8,232.9,413.2,274.8,396.2z"/>
				<path class="st73" d="M274.8,396.2c-41.7,17-82.2,15.3-119.3-11.9c-39.4-28.9-50.2-81.4-26.6-124.5
					c14.2-25.5,34.6-44.2,61.2-55.8c34-14.7,68-15,101.5,2c37.7,19.3,57.8,59.5,51,101.2c-5.4,33.7-23,60.1-51,79.1
					c-2.6,1.7-5.1,3.4-8.2,4.8C280.8,393.1,277.7,394.8,274.8,396.2z M316.8,252.4c-7.4-15.6-16.7-25.2-30-30.6
					c-13.6-5.1-26.9-4.8-39.1,3.7c-7.7,5.4-12.5,12.8-16.7,21c-3.4,6.8-6.8,13.9-10.2,20.7s-7.7,13.3-14.5,17.9
					c-8.2,5.1-17,6.2-26.4,5.7c-15.3-1.1-28.9,2.6-40,14.5c-5.7,6.2-8.5,12.8-7.1,21c3.4,17,13.3,29.5,29.8,34.9
					c23.2,7.9,44.5,1.7,64.4-11.3c2-1.4,4-2,6.8-1.7c34.6,6.8,66.6-9.9,80.2-42.2C322.2,287,323.9,268.3,316.8,252.4z"/>
				<path class="st15" d="M316.8,252.4c6.8,16.2,5.1,34.6-2.3,53.3c-13.9,32.3-45.9,49-80.2,42.2c-2.6-0.6-4.5,0.3-6.8,1.7
					c-19.8,13-41.1,19.3-64.4,11.3c-16.4-5.4-26.4-18.1-29.8-34.9c-1.7-8.2,1.4-14.7,7.1-21c11.1-11.6,24.7-15.3,40-14.5
					c9.1,0.6,18.1-0.6,26.4-5.7c6.5-4.5,10.8-10.8,14.5-17.9c3.4-6.8,6.8-13.9,10.2-20.7c4.3-8.2,9.1-15.6,16.7-21
					c12.2-8.8,25.5-9.1,39.1-3.7C300.3,227.2,309.4,236.9,316.8,252.4z M179,303.8c2,1.1,4.5,2,6.5,3.1c11.1,5.7,21,12.8,31.2,19.8
					c15.9,10.8,33.2,13.6,51,7.1c25.5-9.1,41.1-32,40.5-59.5c-0.3-17.3-7.4-30.9-22.7-39.4c-11.3-6.2-27.8-7.1-38,8.8
					c-1.7,2.8-3.7,6-5.4,9.1c-4,7.4-7.7,14.7-11.3,22.1c-9.9,19.3-25.8,28.3-47.3,27.8C181.8,303.2,180.1,302.9,179,303.8z
					 M217.3,341.7c-8.8-4.8-16.4-10.2-24.1-15.3c-5.1-3.4-10.8-6.8-16.2-9.6c-6.2-3.1-12.5-5.7-19.8-5.4c-8.8,0.3-13.6,6-11.1,14.7
					c3.7,11.6,10.8,20.7,23,24.4C186.4,355.1,201.7,350,217.3,341.7z"/>
				<path class="st75" d="M179,303.8c1.4-1.4,2.8-1.1,4.5-1.1c21.5,0.6,37.4-8.5,47.3-27.8c4-7.4,7.4-14.7,11.3-22.1
					c1.7-3.1,3.4-6.2,5.4-9.1c10.2-15.9,26.9-15,38-8.8c15.3,8.2,22.4,22.1,22.7,39.4c0.6,27.2-14.7,50.5-40.5,59.5
					c-18.1,6.5-35.2,3.7-51-7.1c-10.2-6.8-20.4-13.9-31.2-19.8C183.5,306,181,304.9,179,303.8z"/>
				<path class="st75" d="M217.3,341.7c-15.6,8.5-31.2,13.3-47.9,8.2c-12.2-3.7-19.6-12.5-23-24.4c-2.6-8.5,2-14.5,11.1-14.7
					c7.1-0.3,13.6,2.6,19.8,5.4c5.7,2.8,11.1,6.2,16.2,9.6C201.1,331.5,208.5,336.6,217.3,341.7z"/>
			</g>
		</g>
		<polyline class="st15" points="61.3,287.6 45.8,242.3 33.2,247.2 49.4,290.6 		"/>
	</g>
</g>
</svg>
