<?xml version="1.0" encoding="utf-8"?>
<!-- Generator: Adobe Illustrator 27.9.1, SVG Export Plug-In . SVG Version: 6.00 Build 0)  -->
<svg version="1.1" id="Layer_1" xmlns="http://www.w3.org/2000/svg" xmlns:xlink="http://www.w3.org/1999/xlink" x="0px" y="0px"
	 viewBox="0 0 66 51.3" style="enable-background:new 0 0 66 51.3;" xml:space="preserve">
<style type="text/css">
	.st0{fill:#0D0D0D;}
	.st1{fill:#CD2328;}
	.st2{fill:#8E192F;}
	.st3{fill:#B62225;}
	.st4{fill:#E93B48;}
	.st5{fill:#EC626C;}
	.st6{fill:#EA5661;}
	.st7{fill:#B31F36;}
	.st8{fill:#8B6271;}
	.st9{fill:#FFFFFF;}
	.st10{fill:#F8F6F1;}
	.st11{fill:#606161;}
	.st12{opacity:0.15;}
	.st13{fill:#6D1628;}
	.st14{fill:#F26866;}
	.st15{fill:#232121;}
	.st16{fill:#CFDCDC;}
	.st17{fill:#0E0E0E;}
	.st18{fill:#F4ECE5;}
	.st19{fill:#CB832A;}
	.st20{fill:#FFCD05;}
	.st21{fill:#911F36;}
	.st22{fill:#F9F8F2;}
	.st23{fill:none;}
	.st24{fill:#54121D;}
	.st25{fill:#4A77A8;}
	.st26{fill:#84827E;}
	.st27{fill:#6B6B6B;}
	.st28{fill:#65A042;}
	.st29{fill:#B8CACD;}
	.st30{fill:#B21F37;}
	.st31{fill:#215483;}
	.st32{fill:#D6D5D2;}
	.st33{fill:#FECE43;}
	.st34{opacity:0.49;fill:#B21F37;enable-background:new    ;}
	.st35{fill:#4B78A9;}
	.st36{fill:#8F2438;}
	.st37{fill:#ABB4CE;}
	.st38{fill:#DEE2F2;}
	.st39{fill:#666666;}
	.st40{fill:#F26966;}
	.st41{fill:#999999;}
	.st42{opacity:0.38;fill:#FFFFFF;enable-background:new    ;}
	.st43{fill:#0D0F10;}
	.st44{fill:#4F5051;}
	.st45{fill:#6B6C6C;}
	.st46{fill:#0C0B0A;}
	.st47{fill:#C3E2ED;}
	.st48{fill:#9FABB0;}
	.st49{clip-path:url(#SVGID_00000106135275073589562540000000519780352234464685_);fill:#FFCD05;}
	.st50{clip-path:url(#SVGID_00000106135275073589562540000000519780352234464685_);}
	.st51{fill:#FBEFD7;}
	.st52{fill:#B21F36;}
	.st53{fill:#170F09;}
	.st54{fill:#222221;}
	.st55{fill:#D89A53;}
	.st56{fill:#FDFDFD;}
	.st57{fill:#592A07;}
	.st58{fill:#B88346;}
	.st59{fill:#DBDADA;}
	.st60{fill:#383837;}
	.st61{fill:#804118;}
	.st62{fill:#646463;}
	.st63{fill:#E5AF73;}
	.st64{fill:#2D2D2C;}
	.st65{fill:#693309;}
	.st66{fill:#DB9D56;}
	.st67{fill:#613214;}
	.st68{fill:#FCCA1D;}
	.st69{fill:#8E1830;}
	.st70{fill:#FFDE83;}
	.st71{fill:#D1CDC5;}
	.st72{fill:#7F3211;}
	.st73{fill:#FCFCFC;}
	.st74{fill:#D6D5D5;}
	.st75{fill:#FCCD2A;}
	.st76{fill:#181516;}
	.st77{fill:#FBFBFB;}
	.st78{fill:#3F383B;}
	.st79{fill:#716E6D;}
	.st80{fill:#7A1E2F;}
	.st81{opacity:0.74;fill:#FFCCD6;enable-background:new    ;}
	.st82{fill:#CFCECE;}
	.st83{opacity:0.58;}
	.st84{fill:none;stroke:#000000;stroke-width:2;stroke-miterlimit:10;}
</style>
<path d="M32.1,13.3L11,30.7v18.8c0,0.5,0.2,1,0.5,1.3c0.3,0.3,0.8,0.5,1.3,0.5l12.8,0c0.5,0,0.9-0.2,1.3-0.5
	c0.3-0.3,0.5-0.8,0.5-1.3v-11c0-0.5,0.2-1,0.5-1.3c0.3-0.3,0.8-0.5,1.3-0.5h7.3c0.5,0,1,0.2,1.3,0.5c0.3,0.3,0.5,0.8,0.5,1.3v11
	c0,0.2,0,0.5,0.1,0.7c0.1,0.2,0.2,0.4,0.4,0.6c0.2,0.2,0.4,0.3,0.6,0.4c0.2,0.1,0.5,0.1,0.7,0.1l12.8,0c0.5,0,1-0.2,1.3-0.5
	c0.3-0.3,0.5-0.8,0.5-1.3V30.7L33.9,13.3C33.6,13.1,33.3,13,33,13C32.7,13,32.4,13.1,32.1,13.3z M65.5,25.1l-9.6-7.9V1.4
	c0-0.4-0.1-0.7-0.4-1c-0.3-0.3-0.6-0.4-1-0.4h-6.4c-0.4,0-0.7,0.1-1,0.4c-0.3,0.3-0.4,0.6-0.4,1v8.3L36.5,1.3C35.5,0.4,34.3,0,33,0
	c-1.3,0-2.5,0.4-3.5,1.3l-29,23.9c-0.1,0.1-0.3,0.3-0.3,0.4C0.1,25.7,0,25.9,0,26.1c0,0.2,0,0.4,0.1,0.5c0.1,0.2,0.1,0.3,0.3,0.5
	l2.9,3.6c0.1,0.1,0.3,0.3,0.4,0.3s0.3,0.1,0.5,0.2c0.2,0,0.4,0,0.5-0.1C4.9,31,5,30.9,5.2,30.8L32.1,8.6c0.2-0.2,0.6-0.3,0.9-0.3
	c0.3,0,0.6,0.1,0.9,0.3l26.9,22.2c0.1,0.1,0.3,0.2,0.5,0.3c0.2,0.1,0.4,0.1,0.5,0.1c0.2,0,0.4-0.1,0.5-0.2c0.2-0.1,0.3-0.2,0.4-0.3
	l2.9-3.6c0.1-0.1,0.2-0.3,0.3-0.5c0.1-0.2,0.1-0.4,0.1-0.5c0-0.2-0.1-0.4-0.2-0.5C65.7,25.4,65.6,25.2,65.5,25.1z"/>
</svg>
