<?xml version="1.0" encoding="utf-8"?>
<!-- Generator: Adobe Illustrator 27.9.1, SVG Export Plug-In . SVG Version: 6.00 Build 0)  -->
<svg version="1.1" id="Layer_1" xmlns="http://www.w3.org/2000/svg" xmlns:xlink="http://www.w3.org/1999/xlink" x="0px" y="0px"
	 viewBox="0 0 661.3 585.2" style="enable-background:new 0 0 661.3 585.2;" xml:space="preserve">
<style type="text/css">
	.st0{fill:#0D0D0D;}
	.st1{fill:#CD2328;}
	.st2{fill:#8E192F;}
	.st3{fill:#B62225;}
	.st4{fill:#E93B48;}
	.st5{fill:#EC626C;}
	.st6{fill:#EA5661;}
	.st7{fill:#B31F36;}
	.st8{fill:#8B6271;}
	.st9{fill:#FFFFFF;}
	.st10{fill:#F8F6F1;}
	.st11{fill:#606161;}
	.st12{opacity:0.15;}
	.st13{fill:#6D1628;}
	.st14{fill:#F26866;}
	.st15{fill:#232121;}
	.st16{fill:#CFDCDC;}
	.st17{fill:#0E0E0E;}
	.st18{fill:#F4ECE5;}
	.st19{fill:#CB832A;}
	.st20{fill:#FFCD05;}
	.st21{fill:#911F36;}
	.st22{fill:#F9F8F2;}
	.st23{fill:none;}
	.st24{fill:#54121D;}
	.st25{fill:#4A77A8;}
	.st26{fill:#84827E;}
	.st27{fill:#6B6B6B;}
	.st28{fill:#65A042;}
	.st29{fill:#B8CACD;}
	.st30{fill:#B21F37;}
	.st31{fill:#215483;}
	.st32{fill:#D6D5D2;}
	.st33{fill:#FECE43;}
	.st34{opacity:0.49;fill:#B21F37;enable-background:new    ;}
	.st35{fill:#4B78A9;}
	.st36{fill:#8F2438;}
	.st37{fill:#ABB4CE;}
	.st38{fill:#DEE2F2;}
	.st39{fill:#666666;}
	.st40{fill:#F26966;}
	.st41{fill:#999999;}
	.st42{opacity:0.38;fill:#FFFFFF;enable-background:new    ;}
	.st43{fill:#0D0F10;}
	.st44{fill:#4F5051;}
	.st45{fill:#6B6C6C;}
	.st46{fill:#0C0B0A;}
	.st47{fill:#C3E2ED;}
	.st48{fill:#9FABB0;}
	.st49{clip-path:url(#SVGID_00000084526580882403323200000000767819798272307330_);fill:#FFCD05;}
	.st50{clip-path:url(#SVGID_00000084526580882403323200000000767819798272307330_);}
	.st51{fill:#FBEFD7;}
	.st52{fill:#B21F36;}
	.st53{fill:#170F09;}
	.st54{fill:#222221;}
	.st55{fill:#D89A53;}
	.st56{fill:#FDFDFD;}
	.st57{fill:#592A07;}
	.st58{fill:#B88346;}
	.st59{fill:#DBDADA;}
	.st60{fill:#383837;}
	.st61{fill:#804118;}
	.st62{fill:#646463;}
	.st63{fill:#E5AF73;}
	.st64{fill:#2D2D2C;}
	.st65{fill:#693309;}
	.st66{fill:#DB9D56;}
	.st67{fill:#613214;}
	.st68{fill:#FCCA1D;}
	.st69{fill:#8E1830;}
	.st70{fill:#FFDE83;}
	.st71{fill:#D1CDC5;}
	.st72{fill:#7F3211;}
	.st73{fill:#FCFCFC;}
	.st74{fill:#D6D5D5;}
	.st75{fill:#FCCD2A;}
	.st76{fill:#181516;}
	.st77{fill:#FBFBFB;}
	.st78{fill:#3F383B;}
	.st79{fill:#716E6D;}
	.st80{fill:#7A1E2F;}
	.st81{opacity:0.74;fill:#FFCCD6;enable-background:new    ;}
	.st82{fill:#CFCECE;}
	.st83{opacity:0.58;}
	.st84{fill:none;stroke:#000000;stroke-width:2;stroke-miterlimit:10;}
</style>
<g>
	<circle class="st68" cx="325.3" cy="292.6" r="292.6"/>
	<g>
		<g>
			<path class="st76" d="M293.6,92.5c-4.4-9.6-2.7-17.1,5.2-24.2c8.6-7.6,18.3-13.5,28.2-19c19-10.5,38.5-19.8,60.2-23.2
				c10.3-1.6,17,2.1,21.5,11.3c5.2,10.7,10.4,21.4,15.6,32.2c0.9,2,2.3,4.3,2,6.2c-0.9,4.5,1.8,5.3,5,6.7c8.9,3.8,11.3,10.4,7.3,18
				c-1.2,2.2-5.3,3.3-3.5,6.5c1.2,2.3,3.6,4.1,5.6,6c1.3,1.3,2.8,2.4,4.2,3.5c13.4,11,28.9,18.7,43.7,27.3
				c17.6,10.3,35.2,20.4,48.3,36.6c9.9,12.2,16.8,26.2,24.1,40c11.5,21.7,38.2,80.5,46.2,103.8c2.6,7.6,2.8,15.2,3,23.1
				c0.3,12.3,3.8,24.6,4.8,36.9c0.8,10.1,5.2,17.3,12.9,23.6c12.5,10.4,22.4,23,28.8,38.2c12.4,29.4-1,65.8-29.8,79.5
				c-13,6.1-26.4,8.1-40.5,2.9c-10.8-4-14-2.1-18.7,8.4c-1,2.3-2.1,4.7-3.3,7c-8.4,16.1-21.5,26.4-39.4,29.5
				c-27.7,4.8-48.3-7.4-64.2-29c-10.8-14.7-15.3-31.5-14.8-49.6c0.3-9.4-2.8-16.9-9.8-23.4c-7.7-7.2-14.7-15.2-22.2-22.8
				c-3.2-3.3-6.2-6.5-10.8-8.6c-5.3-2.4-7.8-8.9-11-14.1c-16.1-26.6-44-91.9-56.7-120.2c-10.1-22.6-12.9-45.9-9.1-70.3
				c1.7-10.7,3.3-21.4,4.8-32.1c1.9-13.6,3.1-27.3,1.2-41c-0.6-4.2-1.3-7.1-7.2-6.7c-9.2,0.7-13.8-5.8-11.1-14.8
				c1.3-4.5,3.8-8.7-2.6-11.4c-1.1-0.5-1.6-2.4-2.2-3.7c-2.6-5.4-5.2-10.9-7.8-16.4C298.9,103.8,296.2,98.2,293.6,92.5z
				 M574.8,346.7c6-3.5,11.5-7.9,17.3-11.7c2.2-1.5,2.6-3,1.8-5.5c-7-23.4-34.7-81.3-45.6-102.9c-3.7-7.3-8.1-14.3-12-21.6
				c-1.6-3-2.6-3.2-5.7-1.4c-14.4,8.5-28.7,17-43.5,24.6c-32.8,16.8-65.9,33.1-99.8,47.6c-11.9,5.1-23.9,10.3-36.4,14
				c-4.4,1.3-5.7,2.9-3.7,7.8c9.7,22.8,35.9,82,47.1,104.1c3.1,6.2,6.6,12.2,10.5,18c1.7,2.5,3.1,2.7,5.8,1.9
				c26.9-7.1,52.3-18,77.4-29.6c4-1.8,8-3.8,11.9-5.7C525.8,374.8,550.3,360.8,574.8,346.7z M468.4,149.9c-4.4-2.7-7.7-4.7-11.1-6.7
				c-12.4-7.5-24.6-15.3-34.4-26.1c-1.8-2-3.1-2.2-5.5-0.7c-21.4,13.8-44.3,24.4-68.2,32.9c-1.6,0.6-3.5,0.8-2.9,3.6
				c4.3,18.2,2.6,36.3-0.1,54.5c0,0.3,0.3,0.6,0.7,1.6C385.7,186.7,425.9,167.5,468.4,149.9z M320.9,114.4c1.8,4.7,4.9,4,8.4,2.7
				c4.4-1.6,2-4.2,1-6.6c-3.5-8-6.1-16.5-10.4-24.2c-1.9-3.3-0.6-4.8,2.5-6.2c10.3-4.7,8-4.8,12.5,4.3c3.6,7.4,7.2,14.8,10.6,22.4
				c1.3,2.9,2.7,3.6,5.9,2.3c11.3-4.9,11.4-4.8,6-16c-3.2-6.8-6.4-13.6-9.7-20.3c-1.4-2.7-0.9-4.2,1.9-5.6
				c11.5-5.3,8.6-5.1,13.3,4.3c3.7,7.4,7.2,14.8,10.6,22.3c1.2,2.7,2.5,3.4,5.5,2.2c11.5-4.9,12.4-6.9,5.3-17.5
				c-3.7-5.5-6-11.7-9.2-17.4c-1.9-3.5-1.4-5.9,2.5-7.2c1-0.4,2.1-0.8,3-1.4c3.5-2.3,5.7-1.8,7.5,2.4c3.3,7.7,7.1,15.3,10.9,22.8
				c1,2,1.1,5.7,5.1,3.8c5.1-2.3,7.2-5.8,5.3-9.5c-2.5-4.9-5.3-9.6-7.9-14.4c-1.1-2.1-2.1-4.3-3.1-6.4c-5.9-13.5-6.3-12.2-20.5-8.3
				c-8.2,2.3-15.5,6.4-23.3,9.7C340,58.8,325.9,66,312.8,75.1c-7.1,4.9-7.4,6.3-3.8,14c1.9,4,3.8,7.9,5.7,11.9l0,0
				C316.8,105.4,319.2,109.8,320.9,114.4z M593.2,430.7c2.6,2.3,4.7,2.5,6.8-0.4c0.8-1,1.8-1.8,2.8-2.7c3.7-3.1,4-5.7,0.2-9.3
				c-8.7-8.3-11.9-19.4-15.1-30.6c-2.4-8.6-4.7-17.3-6.9-25.9c-1-3.9-2.6-4.8-6.6-2.7c-11.8,6.2-11.9,6-7.7,18.6
				c3.7,11.3,7.3,22.6,10,31C581.6,419.1,586.9,425.2,593.2,430.7z M417.9,101.4c2-1.4,5.4-2.7,4.9-5.4c-0.5-3.3-4.2-4.8-6.6-7
				c-1.3-1.2-2.2,0.3-3.2,1c-24.4,16.5-50.4,30-78.7,38.4c-4.8,1.4-7.4,8-4.4,11.9c1.7,2.3,4.1,0.7,6,0.2c14.7-4,28.8-9.8,48.5-19.1
				C392.4,117.9,405.4,110,417.9,101.4z M606.4,442c-1.1,1.3-0.4,2.7,0.8,3.8c13.9,13.5,21.3,29.9,22.1,49.2c0,1.1,0,2.4,1.4,2.7
				c1.5,0.3,2.2-1.1,2.9-2.1c4.9-7.5,7.1-15.6,5.8-24.5c-2-13.8-8.2-25.6-17.5-35.9c-2.7-2.9-4.4-3.7-6.3-2.8
				C612.7,435.4,609.5,438.6,606.4,442z M506,195c-9.6-11.6-21-20.7-34.8-27c-4.1-1.9-7.4-1.8-9.8,2.5c-2.5,4.4-1.8,7.4,2.8,10
				c12.5,7.3,23.2,16.6,30.3,29.4c1.1,1.9,2.3,2,4,1.1c1.6-0.9,3.3-1.6,4.9-2.4C513.1,203.7,513.1,203.6,506,195z"/>
			<path class="st77" d="M346.9,209c38.8-22.3,79-41.5,121.5-59.1c-4.4-2.7-7.7-4.7-11.1-6.7c-12.4-7.5-24.6-15.3-34.4-26.1
				c-1.8-2-3.1-2.2-5.5-0.7c-21.4,13.8-44.3,24.4-68.2,32.9c-1.6,0.6-3.5,0.8-2.9,3.6c4.3,18.2,2.6,36.3-0.1,54.5
				C346.1,207.7,346.5,208,346.9,209z"/>
			<path class="st78" d="M314.6,100.9c2.1,4.5,4.5,8.8,6.3,13.4c1.8,4.7,4.9,4,8.4,2.7c4.4-1.6,2-4.2,1-6.6
				c-3.5-8-6.1-16.5-10.4-24.2c-1.9-3.3-0.6-4.8,2.5-6.2c10.3-4.7,8-4.8,12.5,4.3c3.6,7.4,7.2,14.8,10.6,22.4
				c1.3,2.9,2.7,3.6,5.9,2.3c11.3-4.9,11.4-4.8,6-16c-3.2-6.8-6.4-13.6-9.7-20.3c-1.4-2.7-0.9-4.2,1.9-5.6
				c11.5-5.3,8.6-5.1,13.3,4.3c3.7,7.4,7.2,14.8,10.6,22.3c1.2,2.7,2.5,3.4,5.5,2.2c11.5-4.9,12.4-6.9,5.3-17.5
				c-3.7-5.5-6-11.7-9.2-17.4c-1.9-3.5-1.4-5.9,2.5-7.2c1-0.4,2.1-0.8,3-1.4c3.5-2.3,5.7-1.8,7.5,2.4c3.3,7.7,7.1,15.3,10.9,22.8
				c1,2,1.1,5.7,5.1,3.8c5.1-2.3,7.2-5.8,5.3-9.5c-2.5-4.9-5.3-9.6-7.9-14.4c-1.1-2.1-2.1-4.3-3.1-6.4c-5.9-13.5-6.3-12.2-20.5-8.3
				c-8.2,2.3-15.5,6.4-23.3,9.7C340,58.7,325.9,65.9,312.8,75c-7.1,4.9-7.4,6.3-3.8,14C310.9,93,312.8,97,314.6,100.9
				C314.7,100.9,314.7,100.9,314.6,100.9z"/>
			<path class="st79" d="M576.7,408.8c4.9,10.3,10.2,16.5,16.5,22c2.6,2.3,4.7,2.5,6.8-0.4c0.8-1,1.8-1.8,2.8-2.7
				c3.7-3.1,4-5.7,0.2-9.3c-8.7-8.3-11.9-19.4-15.1-30.6c-2.4-8.6-4.7-17.3-6.9-25.9c-1-3.9-2.6-4.8-6.6-2.7
				c-11.8,6.2-11.9,6-7.7,18.6C570.4,389,573.9,400.3,576.7,408.8z"/>
			<path class="st77" d="M384.5,121.5c7.9-3.6,20.9-11.5,33.4-20.1c2-1.4,5.4-2.7,4.9-5.4c-0.5-3.3-4.2-4.8-6.6-7
				c-1.3-1.2-2.2,0.3-3.2,1c-24.4,16.5-50.4,30-78.7,38.4c-4.8,1.4-7.4,8-4.4,11.9c1.7,2.3,4.1,0.7,6,0.2
				C350.7,136.6,364.7,130.8,384.5,121.5z"/>
			<path class="st79" d="M615.6,432.4c-2.9,3-6.1,6.2-9.1,9.6c-1.1,1.3-0.4,2.7,0.8,3.8c13.9,13.5,21.3,29.9,22.1,49.2
				c0,1.1,0,2.4,1.4,2.7c1.5,0.3,2.2-1.1,2.9-2.1c4.9-7.5,7.1-15.6,5.8-24.5c-2-13.8-8.2-25.6-17.5-35.9
				C619.2,432.3,617.5,431.6,615.6,432.4z"/>
			<path class="st79" d="M503.5,208.7c9.6-5,9.6-5,2.5-13.6c-9.6-11.6-21-20.7-34.8-27c-4.1-1.9-7.4-1.8-9.8,2.5
				c-2.5,4.4-1.8,7.4,2.8,10c12.5,7.3,23.2,16.6,30.3,29.4c1.1,1.9,2.3,2,4,1.1S501.9,209.4,503.5,208.7z"/>
			<path class="st52" d="M347.2,297.6c-2-4.8-0.7-6.5,3.7-7.8c12.5-3.7,24.4-8.9,36.4-14c33.9-14.4,67-30.8,99.8-47.6
				c14.8-7.6,29.2-16.1,43.5-24.6c3.1-1.8,4.1-1.7,5.7,1.4c3.8,7.3,8.3,14.3,12,21.6c10.9,21.6,38.6,79.5,45.6,102.9
				c0.8,2.6,0.4,4.1-1.8,5.5c-5.8,3.8-11.3,8.2-17.3,11.7c-24.4,14.1-49,28.1-74.7,39.7c-4,1.9-7.9,3.8-11.9,5.7
				c-25.1,11.6-50.6,22.4-77.4,29.6c-2.7,0.7-4.2,0.5-5.8-1.9c-3.9-5.8-7.4-11.8-10.5-18C383.2,379.6,356.9,320.4,347.2,297.6z"/>
			<path class="st80" d="M413.4,407.2c-15.9-8.9-67.1-113.2-67.1-113.3c0,1,0.3,2.2,0.9,3.6c9.7,22.8,35.9,82,47.1,104.1
				c3.1,6.2,6.6,12.2,10.5,18c1.7,2.5,3.1,2.7,5.8,1.9c26.9-7.1,52.3-18,77.4-29.6c4-1.8,8-3.8,11.9-5.7
				c25.8-11.6,50.3-25.6,74.7-39.7C574.8,346.7,429.4,416.1,413.4,407.2z"/>
			<path class="st81" d="M554.3,297.4c-5.6-11.7-27.2-60.2-32.6-72c-1.5-3.2-2.6-3.9-6-2.1c-12,6.3-12,6.2-6.3,18.2
				c10.1,21.1,36.1,79,46.1,100.2c1.8,3.9,3.1,5.2,7.4,2.6c10.7-6.3,10.9-6,5.5-17.2C563.8,317.3,559,307.4,554.3,297.4
				C554.3,297.5,554.3,297.4,554.3,297.4z"/>
		</g>
	</g>
	<g>
		<g>
			<g>
				<path class="st23" d="M326.3,302.5c-0.6,1.7-1.3,3.4-2.1,5.1c-11,33-22,66.1-33,99.1c11-33,22-66.1,33-99.1
					C325,306,325.6,304.3,326.3,302.5z"/>
				<path class="st23" d="M107.1,380.7c-3.7-1.6-7.5-3.3-11.2-5C99.6,377.4,103.3,379,107.1,380.7z"/>
				<path class="st23" d="M95.9,375.6c-20.3-9.5-39.7-20.7-57.3-35.1c-7.3,21.9-14.8,43.7-21.9,65.6c7.1-21.9,14.6-43.8,21.9-65.6
					c0.6-1.8,1.1-3.5,1.7-5.3c-0.6,1.8-1.1,3.5-1.7,5.3C56.2,355,75.6,366.1,95.9,375.6z"/>
				<path class="st23" d="M276.7,154.4c0.5,0.3,1.1,0.7,1.6,1.1c0.6,0.3,1.2,0.5,1.7,0.8c-0.6-0.3-1.2-0.5-1.7-0.8
					C277.8,155.1,277.3,154.7,276.7,154.4z"/>
				<g>
					<path class="st76" d="M103.7,129.9c1,6.7-0.8,11.2-6.2,15.2c-8.8,6.6-14.2,15.5-17.7,26.2c-23.9,73-48.2,146-72.4,218.9
						C5.5,395.8,4.2,401.6,2,407c-3.8,9.2-1.8,17.3,3.8,24.9c2.3,3,3.2,6.1,2.1,9.7c-3.3,11.4,1.1,20.3,9,28.1
						c12.6,12.1,27.5,20.5,42.9,28.1c26.5,13.1,54.2,23.2,82.7,30.9c24.4,6.6,49.1,12.2,74.7,11.4c3.3-0.1,6.6-0.5,9.8-0.9
						c11.1-1.5,19.5-6.9,24-17.4c1.3-3,3.3-4.7,6.3-5.6c10.2-2.9,15.9-9.5,19.1-19.8c12.4-39.2,25.7-78.1,38.6-117.2
						c0.2,0.1,0.4,0.1,0.6,0.2c13.4-40.5,26.8-81,40.3-121.5c3-9.1,2.7-18.1,0.6-27.1c-1.4-5.9-0.4-10.6,3.8-15.2
						c6.2-6.7,6.7-13,2.3-21c-6.2-11.1-15.9-18.6-26.3-25.3c-35.5-22.6-74.6-36.5-114.6-48.5c-25.2-7.6-50.8-13.9-77.4-15.1
						c-10.3-0.4-20.5,0.1-29.9,4.8C106.8,114.3,102.4,121.5,103.7,129.9z M21.4,444.2c65.4,43,137,66.6,215.3,72.2
						c-2.8,6.2-8.6,8.2-14.8,9.2c-13.9,2.2-27.7,0.6-41.3-2c-46.4-8.9-90.9-23.5-132.1-47.1c-8.7-5-17-10.7-23.6-18.5
						C21.4,453.9,19.7,449.3,21.4,444.2z M110.9,151.1c2.2-1.8,3.4-1.5,5.1,0.3c3.8,4,8.2,7.5,12.7,10.7
						c24.3,17,51.2,28.8,78.8,39.2c15.9,6,32.1,11.1,48.6,15c27,6.4,54,12.5,82.1,9.3c1.5-0.2,3.4-0.7,3.8,1.5
						c1.2,8.5,4.2,17,1.3,25.6c-1.2,3.4-2.3,6.8-3.5,10.2c-3.5,10.2-7.1,20.3-10.7,30.5l0,0c-0.8,3.1-1.7,6.1-2.8,9.1
						c-0.6,1.7-1.3,3.4-2.1,5.1c-11,33-22,66.1-33,99.1c-1.7,5.1-3.5,10.3-5.2,15.4c-7.5,22.6-14.9,45.1-22.4,67.7
						c-2.2,6.6-6.6,10.2-13.6,11.1c-5.5,0.8-11,1.5-16.5,1.6c-34.6,0.3-67.7-7.8-100.3-18c-24.3-7.6-47.9-17.3-70.3-29.6
						c-14.6-8-28.8-16.6-40.5-28.8c-5.5-5.7-8.2-12.3-5.7-19.9c7.1-21.9,14.6-43.8,21.9-65.6c0.6-1.8,1.1-3.5,1.7-5.3
						c1.1-3.3,2.1-6.7,3.2-10c9.8-29.8,19.6-59.5,29.4-89.3c1.1-3.4,2.5-6.8,3.7-10.2c0.3-1.2,0.6-2.5,0.9-3.7
						c1-3.7,2.3-7.2,3.8-10.7c2.4-7.5,5.1-15,7.4-22.6c0.8-2.5,1.5-5.1,2.2-7.6C94.2,168.8,100.9,158.9,110.9,151.1z M123.9,120.7
						c4.3-1.2,8.8-1.7,13.3-1.7c25.8,0,50.6,6,75.1,13l0,0l0.2,0.1c1,0.3,2.1,0.6,3.1,0.9c0.2,0,0.3,0.1,0.5,0.2l6.1,1.8
						c0.6,0,1.3,0.4,1.9,0.6c14.2,4.8,28.7,9.1,42.5,15.1c1.8,0.1,3.3,0.9,4.8,1.8c1.8,0.5,3.6,1.1,5.3,2c0.5,0.3,1.1,0.7,1.6,1.1
						c0.6,0.3,1.2,0.5,1.7,0.8c8.5,2.8,16.1,7.7,24.2,11.1c14.6,6.2,28.3,13.6,40.2,24.1c3.9,3.4,8.6,7.3,6.8,13.1
						c-1.8,5.6-7.7,6.4-12.9,7.2c-14.7,2.3-29.4,0.9-43.9-1.4c-38-6.1-74.5-17.6-109.7-33.1c-19-8.3-37.6-17.6-54-30.7
						c-4.9-3.9-9.5-8-12.4-13.8C115.4,126.5,117,122.6,123.9,120.7z"/>
					<path class="st76" d="M199,132.8c-7.2,2-14.1,4.6-15.6,13c-1.6,9.2,4.2,14.9,10.7,19.8c5.4,4.1,11.6,7.1,18.3,8.2
						c12.2,2.1,23.6,6,34.3,12.4c7.9,4.7,16.9,6.2,26.1,4.6c11.2-2,14.4-11.3,6.9-19.8c-5.2-6-11.6-10.7-19.3-12.5
						c-12.6-3-22.2-10.6-32.1-18.1c-1.8-0.7-3.5-1.4-5.3-2.2c0,0-8.8-2.8-9.2-3.6C209,133.6,204,132.7,199,132.8z M244.1,164.5
						c3.8-0.6,7.5,0.3,11.9,1.6c4.4,1.7,9.6,3.8,13,8.4c2.5,3.3,1.4,6.3-2.7,6.6c-9.9,0.6-18.2-3.2-25-10.1
						C238.5,168.1,239.9,165.1,244.1,164.5z M201.8,144.1c10.7-0.8,19.7,3,26.9,10.8c3.5,3.9,1.7,8.1-3.6,9.1
						c-4.4,0.8-8.6-0.3-12.7-1.6c-4.5-1.5-8.7-3.5-12.3-6.5c-0.5-0.4-1-0.9-1.5-1.4c-1.8-1.7-3.1-3.9-2.3-6.5
						S199.3,144.3,201.8,144.1z"/>
				</g>
				<path class="st82" d="M283.1,159.5c18.4,9.5,36.9,18.8,53.5,31.3c0.6,0.4,1.1,0.8,1.7,1.2c2.7,2.3,5.6,5.1,4.6,8.7
					c-0.9,3.1-4.8,3.6-7.9,4.1c-13,2.3-25.9,0.6-38.7-1.5c-19.6-3.3-38.6-9-57.8-14.3c-24.8-6.9-48.2-16.6-71.2-28
					c-10.6-5.3-19.8-12.6-29.7-18.9c-3.8-2.4-6.8-5.8-8.7-10.1c-1.7-3.8-0.8-5.7,3.5-6.6c9.2-1.8,18.3-0.8,27.4,0.1
					c12.9,1.2,25.6,3.7,38.3,6.2c0.4,0.1,0.6,0.7,1,1.1c-7.2,2-14.1,4.6-15.6,13c-1.6,9.2,4.2,14.9,10.7,19.8
					c5.4,4.1,11.6,7.1,18.3,8.2c12.2,2.1,23.6,6,34.3,12.4c7.9,4.7,16.9,6.2,26.1,4.6c11.2-2,14.4-11.3,6.9-19.8
					c-5.2-6-11.6-10.7-19.3-12.5c-12.6-3-22.2-10.6-32.1-18.1c2-1.3,3.7,0.1,5.4,0.6c9.2,3,18.4,6.1,27.6,9.1c1.7,0.6,3.4,2,5.4,0.5
					c1.8,0.1,3.3,0.9,4.8,1.8c0.9,4.1,3.8,3.7,6.8,3c0.6,0.3,1.2,0.5,1.7,0.8C279.4,158.9,281.7,158.8,283.1,159.5z"/>
				<path class="st82" d="M236.7,516.4c-2.8,6.2-8.6,8.2-14.8,9.2c-13.9,2.2-27.7,0.6-41.3-2c-46.4-8.9-90.9-23.5-132.1-47.1
					c-8.7-5-17-10.7-23.6-18.5c-3.5-4.1-5.2-8.8-3.5-13.8C86.8,487.2,158.4,510.8,236.7,516.4z"/>
				<path class="st77" d="M225.2,164c-4.4,0.8-8.6-0.3-12.7-1.6c-4.5-1.4-8.7-3.5-12.4-6.5c-0.5-0.4-1-0.9-1.5-1.4
					c-1.8-1.7-3.1-3.9-2.3-6.5s3-3.8,5.6-3.9c10.7-0.8,19.7,3,26.9,10.8C232.3,158.8,230.4,163,225.2,164z"/>
				<path class="st77" d="M225.2,164c-4.4,0.8-8.6-0.3-12.7-1.6c-4.5-1.5-8.7-3.5-12.3-6.5c3.6,3,7.8,5.1,12.4,6.5
					C216.6,163.8,220.8,164.9,225.2,164z"/>
				<path class="st77" d="M256,166.1c4.4,1.7,9.6,3.8,13,8.4c2.5,3.3,1.4,6.3-2.7,6.6c-9.9,0.6-18.2-3.2-25-10.1
					c-2.8-2.9-1.4-5.9,2.8-6.5C247.9,163.9,251.6,164.8,256,166.1z"/>
				<path class="st77" d="M271.5,152.4c1.8,0.5,3.6,1.1,5.3,2c0.5,0.3,1.1,0.7,1.6,1.1C275.3,156.2,272.4,156.5,271.5,152.4z"/>
				<path class="st52" d="M90.9,181.2c3.3-12.4,10-22.2,19.9-30.1c2.2-1.8,3.4-1.5,5.1,0.3c3.8,4,8.2,7.5,12.7,10.7
					c24.3,17,51.2,28.8,78.8,39.2c15.9,6,32.1,11.1,48.6,15c27,6.4,54,12.5,82.1,9.3c1.5-0.2,3.4-0.7,3.8,1.5
					c1.2,8.5,4.2,17,1.3,25.6c-1.2,3.4-2.3,6.8-3.5,10.2c-3.5,10.2-7.1,20.3-10.7,30.5l0,0c-0.8,3.1-1.7,6.1-2.8,9.1
					c-0.6,1.7-1.3,3.4-2.1,5.1c-11,33-22,66.1-33,99.1c-1.7,5.1-3.5,10.3-5.2,15.4c-7.5,22.6-14.9,45.1-22.4,67.7
					c-2.2,6.6-6.6,10.2-13.6,11.1c-5.5,0.8-11,1.5-16.5,1.6c-34.6,0.3-67.7-7.8-100.3-18c-24.3-7.6-47.9-17.3-70.3-29.6
					c-14.6-8-28.8-16.6-40.5-28.8c-5.5-5.7-8.2-12.3-5.7-19.9c7.1-21.9,14.6-43.8,21.9-65.6c15.4,12.6,32.2,22.7,49.8,31.4
					c-17.6-8.7-34.3-18.8-49.8-31.4c0.6-1.8,1.1-3.5,1.7-5.3c1.1-3.3,2.1-6.7,3.2-10c9.8-29.8,19.6-59.5,29.4-89.3
					c1.1-3.4,2.5-6.8,3.7-10.2c0.3-1.2,0.6-2.5,0.9-3.7c1-3.6,2.3-7.2,3.8-10.7c2.4-7.5,5.1-15,7.4-22.6
					C89.5,186.2,90.2,183.7,90.9,181.2z"/>
				<g>
					<g>
						<g>
							<path class="st80" d="M342.2,228.6c-0.1-0.5-0.2-1-0.2-1.6c-0.3-2.2-2.3-1.7-3.8-1.5c-8,0.9-15.9,1.1-23.8,0.7
								C323.6,227.7,332.8,228.6,342.2,228.6z"/>
						</g>
						<g>
							<path class="st80" d="M238.5,501.4c-34.6-0.9-67.4-10.2-99.6-21.6c-24-8.5-47.3-19-69.2-32.1c-14.3-8.5-28.2-17.6-39.4-30.2
								c-5.3-5.9-7.8-12.5-5-20.1c6.3-17.4,12.9-34.8,19.4-52.1c-2-1.5-4-3.1-6-4.8c-7.3,21.9-14.8,43.7-21.9,65.6
								c-2.5,7.7,0.3,14.2,5.7,19.9c11.7,12.2,25.9,20.8,40.5,28.8c22.4,12.3,46,22,70.3,29.6c32.6,10.3,65.7,18.4,100.3,18
								c5.6-0.1,11-0.8,16.5-1.6c0.5-0.1,0.9-0.1,1.4-0.2C247.1,501.2,242.8,501.5,238.5,501.4z"/>
						</g>
						<g>
							<path class="st80" d="M49.4,332.6c0.6-1.8,1.3-3.5,1.9-5.3c1.2-3.3,2.4-6.6,3.5-9.9c10.8-29.4,21.7-58.8,32.5-88.2
								c1.3-3.4,2.7-6.7,4.1-10.1c0.3-1.2,0.7-2.4,1.1-3.6c1.2-3.6,2.6-7.1,4.1-10.6c2.7-7.5,5.6-14.8,8.2-22.3
								c0.9-2.5,1.7-5,2.5-7.5c2.5-8.1,6.3-15,11.6-20.9c-1-0.9-2-1.9-3-2.9c-1.7-1.8-2.8-2.1-5.1-0.3c-10,7.9-16.6,17.7-19.9,30.1
								c-0.7,2.5-1.4,5.1-2.2,7.6c-2.3,7.6-5,15.1-7.4,22.6c-1.4,3.5-2.7,7.1-3.8,10.7c-0.3,1.2-0.7,2.4-0.9,3.7
								c-1.3,3.4-2.6,6.8-3.7,10.2c-9.8,29.7-19.6,59.5-29.4,89.3c-1.1,3.3-2.1,6.7-3.2,10c-0.6,1.8-1.1,3.5-1.7,5.3
								c2,1.6,4,3.2,6,4.8C46.2,341.1,47.8,336.9,49.4,332.6"/>
						</g>
					</g>
				</g>
				<g class="st83">
					<path class="st9" d="M207.2,206.8c-3.8-1.3-7.8-2.8-11.7-4.2c-24.8-9.3-53.7-21.3-80-39.8c-2-1.4-3.8-2.8-5.5-4.1
						c1-0.9,2-1.9,3.1-2.7c3.5,3.5,7.6,6.9,12.6,10.4c26.3,18.4,55.2,30.4,80,39.8c2.2,0.8,4.5,1.7,6.7,2.5
						C210.7,208,209,207.4,207.2,206.8z"/>
					<path class="st9" d="M124.6,476c28.6,9,62.7,18.1,98.7,17.8c4.9,0,9.8-0.7,14.9-1.4l1-0.1c5-0.7,7.8-3,9.3-7.6
						c5.2-15.7,22.4-67.7,22.4-67.7l5.2-15.4l33.1-99.4l0.1-0.3c0.7-1.4,1.3-3,1.9-4.7c1-2.9,1.9-5.9,2.7-8.7v-0.2l0.1-0.2
						c1.4-4,2.8-8,4.2-12c2.2-6.2,4.3-12.3,6.5-18.5c1.2-3.4,2.3-6.8,3.5-10.2c1.7-5,0.9-10.4-0.2-16c3.1-0.1,6.2-0.3,9.3-0.6
						c0.2,1,0.4,2,0.5,2.9c1.2,6.1,2.3,11.9,0.4,17.3c-1.1,3.4-2.3,6.8-3.5,10.2c-2.1,6.2-4.3,12.4-6.5,18.5c-1.4,4-2.8,8-4.2,12
						l-0.1,0.2v0.2c-0.8,2.8-1.6,5.9-2.7,8.7c-0.6,1.7-1.2,3.2-1.9,4.7l-0.1,0.3l-33.1,99.4l-5.2,15.4c0,0-17.2,52-22.4,67.7
						c-1.5,4.6-4.3,6.9-9.3,7.6l-1,0.1c-5.2,0.7-10,1.4-14.9,1.4c-36,0.3-70.1-8.8-98.7-17.8c-4-1.3-8-2.6-11.9-3.9
						c-1.4-0.5-2.9-1-4.3-1.5C120.6,474.8,122.6,475.4,124.6,476z"/>
				</g>
			</g>
			<g>
				<g>
					<path class="st76" d="M316.8,311.2c-22.8,5-49.7,5.7-79.8,2.1c-10.5-1.3-20.3-3.6-29.2-6.9c-37.3-13.9-55.7-43.8-75.3-75.4
						c-10.6-17.1-21.5-34.9-35.7-49.7l-13.5-14.1l-5.8,18.7c-1.3,4.2-2.7,8.5-4.1,12.6c-1,3-2,6-3,9c-1.8,4.4-3,8-4,11.5
						c-0.3,1.2-0.6,2.4-0.9,3.5c-0.3,0.8-0.6,1.6-0.9,2.4c-0.9,2.4-1.8,4.9-2.7,7.4l-8.6,26.5l4.7,5c17.7,18.5,35.3,42.4,57.7,72.7
						c10.5,14.1,22.3,30.2,35.7,47.6c15.7,20.5,34.1,34.8,54.7,42.5l0,0c33.4,12.4,65.9,5.1,87.3-3.3l5-1.9l3.7-10.8l34.4-103.8
						L316.8,311.2z"/>
				</g>
			</g>
			<path class="st9" d="M72.9,236c1.1-3.4,2.5-6.8,3.7-10.2c0.3-1.2,0.6-2.5,0.9-3.7c1-3.6,2.3-7.2,3.8-10.7
				c2.4-7.4,5-14.7,7.3-22.1c44.2,46.4,56.4,124.5,147.1,135.4c35.5,4.3,62.9,2.2,83.6-2.3c-9.4,28.1-18.7,56.3-28.1,84.4
				c-0.7,1.9-1.3,3.9-2,5.8c-31.9,12.5-85.7,20.9-128.7-35.4C118.8,322.6,93,283.9,66.3,256C68.5,249.3,70.7,242.6,72.9,236z"/>
		</g>
		<path class="st9" d="M123.9,120.7c4.3-1.2,8.8-1.7,13.3-1.7c25.8,0,50.6,6,75.1,13l0,0l0.2,0.1c1,0.3,2.1,0.6,3.1,0.9
			c0.2,0,0.3,0.1,0.5,0.2l6.1,1.8c0.6,0,1.3,0.4,1.9,0.6c14.2,4.8,28.7,9.1,42.5,15.1c-1.9,1.4-3.7,0-5.4-0.5
			c-9.2-3-18.4-6.1-27.6-9.1c-1.7-0.6-3.4-1.9-5.4-0.6c-1.8-0.7-3.5-1.4-5.3-2.2c0,0-8.8-2.8-9.2-3.6c-4.8-0.9-9.8-1.8-14.8-1.8
			c-0.3-0.4-0.6-1-1-1.1c-12.7-2.5-25.4-5-38.3-6.2c-9.1-0.8-18.2-1.9-27.4-0.1c-4.2,0.8-5.1,2.8-3.5,6.6c1.9,4.3,4.9,7.7,8.7,10.1
			c9.9,6.3,19.1,13.6,29.7,18.9c23,11.4,46.4,21.1,71.2,28c19.2,5.3,38.2,11.1,57.8,14.3c12.8,2.1,25.7,3.8,38.7,1.5
			c3.1-0.5,7-1,7.9-4.1c1-3.5-1.9-6.4-4.6-8.7c-0.5-0.4-1.1-0.8-1.7-1.2c-16.6-12.6-35.1-21.8-53.5-31.3c-1.4-0.7-3.7-0.6-3-3.3
			c8.5,2.8,16.1,7.7,24.2,11.1c14.6,6.2,28.3,13.6,40.2,24.1c3.9,3.4,8.6,7.3,6.8,13.1c-1.8,5.6-7.7,6.4-12.9,7.2
			c-14.7,2.3-29.4,0.9-43.9-1.4c-38-6.1-74.5-17.6-109.7-33.1c-19-8.3-37.6-17.6-54-30.7c-4.9-3.9-9.5-8-12.4-13.8
			C115.4,126.5,117,122.6,123.9,120.7z"/>
	</g>
</g>
</svg>
