<?xml version="1.0" encoding="utf-8"?>
<!-- Generator: Adobe Illustrator 27.9.1, SVG Export Plug-In . SVG Version: 6.00 Build 0)  -->
<svg version="1.1" id="Layer_1" xmlns="http://www.w3.org/2000/svg" xmlns:xlink="http://www.w3.org/1999/xlink" x="0px" y="0px"
	 viewBox="0 0 45.3 51.5" style="enable-background:new 0 0 45.3 51.5;" xml:space="preserve">
<style type="text/css">
	.st0{fill:#0D0D0D;}
	.st1{fill:#CD2328;}
	.st2{fill:#8E192F;}
	.st3{fill:#B62225;}
	.st4{fill:#E93B48;}
	.st5{fill:#EC626C;}
	.st6{fill:#EA5661;}
	.st7{fill:#B31F36;}
	.st8{fill:#8B6271;}
	.st9{fill:#FFFFFF;}
	.st10{fill:#F8F6F1;}
	.st11{fill:#606161;}
	.st12{opacity:0.15;}
	.st13{fill:#6D1628;}
	.st14{fill:#F26866;}
	.st15{fill:#232121;}
	.st16{fill:#CFDCDC;}
	.st17{fill:#0E0E0E;}
	.st18{fill:#F4ECE5;}
	.st19{fill:#CB832A;}
	.st20{fill:#FFCD05;}
	.st21{fill:#911F36;}
	.st22{fill:#F9F8F2;}
	.st23{fill:none;}
	.st24{fill:#54121D;}
	.st25{fill:#4A77A8;}
	.st26{fill:#84827E;}
	.st27{fill:#6B6B6B;}
	.st28{fill:#65A042;}
	.st29{fill:#B8CACD;}
	.st30{fill:#B21F37;}
	.st31{fill:#215483;}
	.st32{fill:#D6D5D2;}
	.st33{fill:#FECE43;}
	.st34{opacity:0.49;fill:#B21F37;enable-background:new    ;}
	.st35{fill:#4B78A9;}
	.st36{fill:#8F2438;}
	.st37{fill:#ABB4CE;}
	.st38{fill:#DEE2F2;}
	.st39{fill:#666666;}
	.st40{fill:#F26966;}
	.st41{fill:#999999;}
	.st42{opacity:0.38;fill:#FFFFFF;enable-background:new    ;}
	.st43{fill:#0D0F10;}
	.st44{fill:#4F5051;}
	.st45{fill:#6B6C6C;}
	.st46{fill:#0C0B0A;}
	.st47{fill:#C3E2ED;}
	.st48{fill:#9FABB0;}
	.st49{clip-path:url(#SVGID_00000053543671909966509560000016963981191837192094_);fill:#FFCD05;}
	.st50{clip-path:url(#SVGID_00000053543671909966509560000016963981191837192094_);}
	.st51{fill:#FBEFD7;}
	.st52{fill:#B21F36;}
	.st53{fill:#170F09;}
	.st54{fill:#222221;}
	.st55{fill:#D89A53;}
	.st56{fill:#FDFDFD;}
	.st57{fill:#592A07;}
	.st58{fill:#B88346;}
	.st59{fill:#DBDADA;}
	.st60{fill:#383837;}
	.st61{fill:#804118;}
	.st62{fill:#646463;}
	.st63{fill:#E5AF73;}
	.st64{fill:#2D2D2C;}
	.st65{fill:#693309;}
	.st66{fill:#DB9D56;}
	.st67{fill:#613214;}
	.st68{fill:#FCCA1D;}
	.st69{fill:#8E1830;}
	.st70{fill:#FFDE83;}
	.st71{fill:#D1CDC5;}
	.st72{fill:#7F3211;}
	.st73{fill:#FCFCFC;}
	.st74{fill:#D6D5D5;}
	.st75{fill:#FCCD2A;}
	.st76{fill:#181516;}
	.st77{fill:#FBFBFB;}
	.st78{fill:#3F383B;}
	.st79{fill:#716E6D;}
	.st80{fill:#7A1E2F;}
	.st81{opacity:0.74;fill:#FFCCD6;enable-background:new    ;}
	.st82{fill:#CFCECE;}
	.st83{opacity:0.58;}
	.st84{fill:none;stroke:#000000;stroke-width:2;stroke-miterlimit:10;}
</style>
<g>
	<path class="st84" d="M43.1,47.4h-1.9V3.3c0-1.3-1-2.3-2.3-2.3H6.4C5.1,1,4.1,2,4.1,3.3v44.1H2.2c-0.6,0-1.2,0.5-1.2,1.2v1.9h43.3
		v-1.9C44.3,47.9,43.8,47.4,43.1,47.4z M13.4,8.3c0-0.6,0.5-1.2,1.2-1.2h3.9c0.6,0,1.2,0.5,1.2,1.2v3.9c0,0.6-0.5,1.2-1.2,1.2h-3.9
		c-0.6,0-1.2-0.5-1.2-1.2V8.3z M13.4,17.6c0-0.6,0.5-1.2,1.2-1.2h3.9c0.6,0,1.2,0.5,1.2,1.2v3.9c0,0.6-0.5,1.2-1.2,1.2h-3.9
		c-0.6,0-1.2-0.5-1.2-1.2V17.6z M18.4,31.9h-3.9c-0.6,0-1.2-0.5-1.2-1.2v-3.9c0-0.6,0.5-1.2,1.2-1.2h3.9c0.6,0,1.2,0.5,1.2,1.2v3.9
		C19.6,31.4,19,31.9,18.4,31.9z M25.7,47.4h-6.2v-8.1c0-0.6,0.5-1.2,1.2-1.2h3.9c0.6,0,1.2,0.5,1.2,1.2V47.4z M31.9,30.8
		c0,0.6-0.5,1.2-1.2,1.2h-3.9c-0.6,0-1.2-0.5-1.2-1.2v-3.9c0-0.6,0.5-1.2,1.2-1.2h3.9c0.6,0,1.2,0.5,1.2,1.2V30.8z M31.9,21.5
		c0,0.6-0.5,1.2-1.2,1.2h-3.9c-0.6,0-1.2-0.5-1.2-1.2v-3.9c0-0.6,0.5-1.2,1.2-1.2h3.9c0.6,0,1.2,0.5,1.2,1.2V21.5z M31.9,12.2
		c0,0.6-0.5,1.2-1.2,1.2h-3.9c-0.6,0-1.2-0.5-1.2-1.2V8.3c0-0.6,0.5-1.2,1.2-1.2h3.9c0.6,0,1.2,0.5,1.2,1.2V12.2z"/>
</g>
</svg>
