<?xml version="1.0" encoding="utf-8"?>
<!-- Generator: Adobe Illustrator 27.9.1, SVG Export Plug-In . SVG Version: 6.00 Build 0)  -->
<svg version="1.1" id="Layer_1" xmlns="http://www.w3.org/2000/svg" xmlns:xlink="http://www.w3.org/1999/xlink" x="0px" y="0px"
	 viewBox="0 0 479.5 477.2" style="enable-background:new 0 0 479.5 477.2;" xml:space="preserve">
<style type="text/css">
	.st0{fill:#170F09;}
	.st1{fill:#222221;}
	.st2{fill:#D89A53;}
	.st3{fill:#FDFDFD;}
	.st4{fill:#592A07;}
	.st5{fill:#B88346;}
	.st6{fill:#DBDADA;}
	.st7{fill:#383837;}
	.st8{fill:#804118;}
	.st9{fill:#646463;}
	.st10{fill:#E5AF73;}
	.st11{fill:#2D2D2C;}
	.st12{fill:#693309;}
	.st13{fill:#DB9D56;}
	.st14{fill:#613214;}
</style>
<g>
	<g>
		<g>
			<path class="st0" d="M357.1,184.1c0.3,0.5,0.7,0.8,1.2,1.3c0,0.5,0.2,0.8,0.8,0.8c4.2,4.7,7.3,10,7.8,16.5
				c0.7,8.5-3.2,14.8-11.2,17.3c-3.2,1-5,2.8-6.7,5.5c-8.5,14-17.3,28-26.3,41.7c-1.3,2-2.5,4-3.8,6c-0.3,0.5-0.3,0.7,0,1.2
				c1.7,1.5,2,3.7,1.8,5.8c-0.2,3-1.3,5.7-2.8,8c-9.7,14.5-19.5,29-29.2,43.7c-10.5,15.7-21,31.3-31.5,47c-2.2,3.3-4.7,6.5-6.7,10
				c-2.5,4.2-6.3,6.3-11,7.2c-1.5,0.3-2.5,0.8-3.3,2.3c-8.2,13-16.5,26-24.7,39c-2.8,4.5-5.8,9-8.5,13.7c-1.3,2.5-3.8,4.2-6.3,5.5
				c-9.7,5.5-20.3,5.5-31,5.2c-15.7-0.5-30.5-5-45-10.3c-20.5-7.5-39.8-17.3-57.4-30.5c-9.3-7-17.7-14.8-24.5-24.3
				c-4.3-6-7.8-12.5-8.3-20.2c-0.2-4.3,1.3-8.2,2.5-12.2c5.5-18,11.3-35.5,17.2-53.2c0.2-0.5,0.2-0.8-0.2-1.3
				c-3.5-5.2-3.3-10.7-1.7-16.3c6.2-21,12.2-42,18.5-63c5.3-17.7,10.5-35.3,15.8-52.8c1.3-4.5,3.8-8.2,8.7-9.5
				c0.5-0.2,0.7-0.5,0.8-1c3.5-12.8,7.8-25.5,11.7-38.3c-3.3-0.3-6.8-0.5-10.2-0.8c-3.8-0.2-7.3-1.2-10.7-2.7
				c-4-1.8-5.5-5.3-5.5-9.5c0-4.5,0.2-9,0.3-13.5c0-0.8,0-1.7-0.2-2.5c-2.5-8.2,2-13.5,7-17c0.5-0.3,1-0.7,1.5-0.8
				c3.2-0.8,3.8-2.8,3.7-5.8c-0.3-3.5,0-7.2-0.2-10.8c-0.2-5.5,2.3-9.7,6.8-12.7s9.5-5.2,14.7-7.2c16.2-6.2,32.7-10.7,49.3-14.7
				c20.8-5.2,41.8-9.5,63-13.2c18.8-3.2,37.7-6,56.7-7.3c7.8-0.5,15.7-0.8,23.5,0.2c2.7,0.3,5.2,1.3,7.5,2.5c2.3,1.2,3.7,3,4.8,5.3
				c2.5,4.8,5.3,9.5,8,14.2c0.5,0.8,1,0.5,1.7,0.5c3.7,0.2,7.3,0.3,10.7,2.2c4.7,2.5,7.3,6.5,7.3,11.8c0,1.2,0.3,2,1.2,3
				c3,4,5.8,8.3,8.3,12.7c1.2,1.8,1,2.2,0.2,7.3c2.5-1.8,5-3.7,7.3-5.3c9.5-7,19.3-13.5,29.8-19c16.2-8.5,33.3-14.2,51.8-14.5
				c7.5-0.2,14.8,0.7,21.7,4.2c4.5,2.3,8.2,5.5,10.5,10c4.5,9,0.8,19-8.5,23.7c-7.2,3.5-14.8,4.7-22.7,5c-7.8,0.5-15.7,0.2-23.5,1.2
				c-8.7,1-16.8,3.7-23.5,9.7c-1.2,1-2.2,2-3,3.2c-1.3,2.2-0.8,4,1.3,5.3c1.8,1.2,3.8,1.7,6,1.8c5.3,0.5,10.7,0.5,15.8,1.3
				c6,1,11.7,3,16.8,6.5c3.5,2.3,6.3,5.3,8.3,9c6.5,11.2-1.2,25.3-14,26.5c-8.2,0.8-15.5-1.5-22.7-4.8c-6.7-3.2-13.2-6.8-20.3-8.8
				c-6.3-1.8-12.7-1.8-19,0.5c-1,0.3-2,0.8-2.8,1.8c1.2,0.5,2.2,1,3.2,1.5c2.2,1.2,3.7,2.8,3.7,5.3c0,2.8-1.2,5.2-3.8,6.5
				c-1,0.5-1.8,0.7-2.8,0.5c-8.2-1.8-15.5,0.5-22.3,4.8c-5.8,3.8-9.8,9.2-13.2,15.2c-0.5,1-0.3,1.3,0.7,1.8
				c8.2,4.2,15.7,9.7,22.7,15.5c1,0.8,1.8,1.7,2.7,2.5c0,0.7,0.3,1,1,1c0,1,0.7,1.3,1.5,1.5l0,0
				C356.2,183.8,356.6,184.1,357.1,184.1z M274.7,106.4c-2.8,0.7-5.7,1.3-8.8,2c0.7,0.3,1.3,0.5,1.5,0.8c1.5,1.8,2.7,1,4-0.2
				C272.4,108.1,273.9,107.8,274.7,106.4h0.2v-0.2L274.7,106.4z M122.8,128c-0.2,0-0.5,0-0.7,0c-1.7-0.2-3.5-0.2-5.3,0
				c0.3,0.5,0.7,0.7,0.8,1c5.8,5.7,12.2,10.7,18.8,15.3c16.3,11.3,33.5,21,51.3,29.7c3.3,1.7,6.8,3.3,10.2,4.8
				c3.5,1.7,7,3.5,10.8,4.7c0.7,0.3,1.3,0.7,2,1c16.3,6.8,33.2,13,50.2,18.2c7.7,2.3,15.5,4.7,23.3,6.3c1.7,0.3,3.3,0.8,4.8,1.2
				c14.2,3.5,28.5,6,43.2,6.7c6,0.2,11.8,0,17.7-1.3c6-1.3,8.8-4.2,9.8-9.7c0-0.5-0.2-1-0.2-1.5c0.5-2.7-0.3-5.2-1.5-7.5
				c-2.3-5.2-6.2-9.3-10.5-12.8c-7.3-6.2-15.2-11.7-23.8-16.2c-1,2.8-1,2.8,1.5,4.3c6.7,4,13,8.5,18.8,13.8c2.5,2.2,4.7,4.7,6.3,7.7
				c2.5,4.7,1,8.2-3.8,10c-6.3,2.2-12.8,2.2-19.2,1.7c-10.7-0.7-21-2.3-31.5-4.7c-16.8-3.7-33.3-8.3-49.5-14
				c-26.3-9.3-52-20-76.4-33.8c-12.5-7.2-24.8-14.3-35.2-24.3c-0.7-0.5-1.2-0.8-1.8-0.5c-2.5-0.2-4.8-0.2-7.3,0.2
				c-0.2,0-0.3,0-0.7,0c-0.3,0-0.7,0-1,0C123.5,127.8,123.2,128,122.8,128z M358.2,129.5c-1.5-1.8-1.2-3.7,0.2-5.5
				c1.8-2.7,4.5-4.2,7.7-5c9-2.5,17.7-1.3,26.2,2.2c5.7,2.2,10.8,5.2,16.3,7.5c5.3,2.3,10.8,4.3,16.8,4.2c4-0.2,7.8-1,10.3-4.5
				c3.3-4.7,3-9.5,0.3-14.3c-1.7-3-4.2-5-7-6.8c-5-3-10.5-4.7-16.2-5.3c-5.8-0.7-11.7-0.5-17.3-1.8c-0.7-0.3-1.3-0.7-2-1
				c-5.7-2-8.2-8-5.5-13.2c3-6,8.5-9.3,14.2-12.2c3.5-1.7,7.3-2.5,11-3.8c1.5-0.2,3-0.3,4.5-1c1.8-0.2,3.5-0.3,5.3-0.3
				c7.2-0.3,14.2,0,21.3-0.7c6.2-0.5,12.5-1.2,18.2-4c5.8-2.8,8.5-7.5,7.2-13.5c-1-4.3-3.8-7.2-7.7-9.3c-6.5-3.7-13.7-4.2-20.8-4
				c-16,0.3-31,5.3-45.2,12.3c-12.3,6.2-23.7,13.7-34.7,21.8c-4,3-8.2,5.8-13,7.5c-3.3,1.2-6.7,2.5-9.8,4.2c-3.3,1.7-6.8,2.7-9.2,6
				c-2,2.8-4.7,5.2-7.2,7.7c-3.8,3.8-8.2,7.2-13.8,7.8c-3.5,0.3-6.8-0.2-10.2-0.7c-2.3-0.3-4.7-0.2-7,0.5c-4.7,1.5-8.8,3.8-13,6.3
				c-9,5.7-15.5,13.8-21,22.8c-2.8,4.7-6.5,8.8-11.2,12c-8,5.5-17,8.2-26.7,8.7c-7,0.3-14-0.2-20.8-2.3c-4-1.3-7.8-2.8-11.5-5.2
				c-2.3-1.8-4.7-3.7-6.2-6.3c1.3-0.3,2.7-1.3,4.3,0c5,4.3,11.3,6,17.7,7.7c6.2,1.5,12.5,1.7,19,0.8c3.8-0.5,7.5-1.2,11.2-2.7
				c-1.3-0.7-2.7-1.2-3.8-1.5c-12-4.2-24.2-8-36.5-11c-7.2-1.7-14.3-3-21.5-4.7c-2-0.5-4.2-0.8-5.8-2.2c-0.3-0.3-0.8-0.2-1.3-0.2
				c-4,0.2-8.2,0.3-12.2,0.5c-4,0.2-7.8,0.5-12.2,0.7c0.5,0.3,0.5,0.5,0.7,0.7c6,5.2,12.5,9.7,19.3,13.7
				c8.7,5.3,17.3,10.3,26.3,14.8c8.7,4.3,17.7,8.3,26.7,12c8.5,3.5,17,7.3,25.8,10.5c9.5,3.5,19.2,6.7,28.8,9.7
				c6.3,1.8,12.7,3.7,19,5.3c6.2,1.5,12.3,2.7,18.5,4c5.7,1.2,11.5,1.8,17.3,2.3c0.7,0,1.3,0,2.3-0.2c-1.5-1.8-3-3-4-4.8
				c-5-9-5.8-18.5-2.5-28.2c3.8-11,10.2-20.5,20.3-27c4.3-2.8,9-4.5,14.2-5.2c3.2-0.3,6.5,0,9.7-0.2c0.7,0,1.5,0.2,1.7-0.8
				c0.2-0.8-0.3-1.5-1.2-1.7C361.2,131.6,359.7,130.6,358.2,129.5z M332.4,59.8c-3.5,1.3-6.5,3.3-10,4.8
				c-8.3,3.5-16.8,7.2-25.3,10.3c-7.5,2.3-14.8,4.8-22.3,7.2c-1.7,0.5-3.2,1-4.8,1.5c-0.2,0-0.3,0-0.5,0c-15,4.3-30.2,7.7-45.3,10.7
				c-10.2,2-20.3,3.7-30.5,5.2c-14.8,2.3-29.7,3.8-44.7,5c-10.8,0.8-21.8,1.2-32.7,1.2c-6.8,0-13.7-0.3-20.5-1.2
				c-3.5-0.3-7-1.2-10.3-2.2c-0.7-0.2-1.2-0.2-1.2,0.7c0,2.2,0,4.5,0,6.7c-0.3,2.3-0.2,4.5-0.2,6.8c0,1.8,1,3,2.8,3.7
				c3.7,1.2,7.3,1.7,11.2,2.2c7.7,1,15.2,1.2,22.8,1.3c10,0.2,20-0.3,30-1.2c14.3-1.2,28.5-2.7,42.7-4.8c4.2-0.7,8.5-1,12.7-2.2
				c0.7,0,1.3,0,2-0.2c7-1.2,14.2-2.3,21.2-3.7c9.8-1.8,19.7-4,29.5-6.3c4.5-1.2,9-2.2,13.3-3.7c3.2-0.3,6-1.5,9-2.3
				c7.5-2,14.8-4.3,22-7c6-2.2,12-4.3,18-6.7c7.2-2.7,13.8-6,20.3-10c2.5-1.5,5-3.2,6.7-5.7c0.3-0.7,0.7-1.2,0.3-2
				c-2.3-4.5-4.8-9-7.7-13c-0.7-0.8-1-0.8-1.8-0.3c-1.5,1.2-3,2.5-4.5,3.7C333.9,58.8,332.7,58.8,332.4,59.8z M93,175
				c-2.3,1-2.7,3.3-3.3,5.3c-4.2,14.2-8.3,28.3-12.7,42.3c-4.3,14.5-8.7,29.2-13,43.7c-3.2,10.5-6,21-9.3,31.5
				c-0.7,2.2-0.8,4.3,0,6.3c0.7,1.8,1.5,3.5,2.7,5c2.2,3.3,4.3,6.5,7.2,9.3c3.2,3.3,6.3,6.8,9.8,10c4.3,3.8,8.7,7.5,13,11
				c4.8,3.8,9.8,7.2,15,10.5c20.7,13.3,42.8,23.3,66,31c6.7,2.2,13.5,4.3,20.5,5.5c0.7,0.2,1.3,0.5,2,0.7c5.7,1,11.3,2.3,17.2,2.7
				c9.3,0.7,18.8,1.7,28.2-0.2c3.8-0.8,6.3-2,8.5-5.5c8.7-13.3,17.5-26.5,26.3-39.7c5.2-7.8,10.5-15.7,15.7-23.7
				c3.5-5.3,7-10.7,10.7-15.8c5.2-7.5,10.3-15.2,15.3-22.7c0.5-0.8,1-1.8,1.2-2.8c0-0.8,0-1.8-1.3-1c-2.5,1.5-5.2,2.7-8.2,2.7
				c-12.3,1.7-24.5,0.3-36.7-1.7c-3.8-0.7-7.5-1.5-11.3-2.2c-0.5-0.2-1.2-0.3-1.7-0.5c-13.7-3-27.2-7.2-40.3-12
				c-21.8-8-42.7-18-62.4-30.3c-15.3-9.5-29.7-20-42.7-32.5c-4-4-7.8-8.2-11.2-12.7C95.2,185.3,92.3,180.8,93,175
				c0.2,0,0.2,0,0.3-0.2c0,0,0,0-0.2-0.2C93,174.8,93,175,93,175z M135.2,372.4c0-0.2-0.2-0.5-0.3-0.5c-0.7-0.2-1.2-0.7-2-0.7
				c-1.3-0.8-2.7-1.7-4.2-2.3c-4.5-2-8.8-4.3-13-6.7c-17.5-10-34.2-21-48.5-35.5c-3.7-3.7-7.2-7.5-10.5-11.7
				c-0.3,1.2-0.8,2.2-1.2,3.2c-5.2,16.3-10.3,32.7-15.5,49c-0.8,2.7-2,5.5-2,8.3c0.2,4.3,1.7,8,3.8,11.7c5.5,9.5,13.3,17,21.7,23.8
				c14.8,12.2,31.3,21.3,49.2,28.7c5.8,2.3,11.7,4.8,17.7,6.5c0.2,0.2,0.3,0.3,0.7,0.3c12.5,4,25.3,6.8,38.5,7.3
				c6.8,0.3,13.7,0.2,20.2-2.2c3.2-1.2,6-2.7,8-5.8c4-6.5,8.2-12.8,12.2-19.2c6.2-9.7,12.2-19.3,18.3-29c0.7-1,1.7-2.3,1.5-3
				c-0.5-1-2.2-0.3-3.2-0.3c-8,0.2-16-0.7-24-1.5c-5.8-0.7-11.7-1.8-17.5-3.3c-14.5-3.8-28.7-8.3-42.5-14.2
				C140,374,137.8,372.5,135.2,372.4z M265.9,70.3c2.3-0.7,4.8-1.2,7.2-2c11.2-3.5,22.3-6.8,33-11.3c6.2-2.5,12.2-5,17.7-8.8
				c1.3-1,1.3-1.8,0.5-3c-3.8-6.5-7.7-12.8-11.2-19.5c-1.2-2.2-1.2-2.2-3.2-0.7c-2.8,2.3-6.2,3.8-9.5,5.3
				c-10.5,5-21.5,8.8-32.5,12.3c-2.3,0.8-4.8,1.7-7.2,2.5c-3.7,1-7.3,1.8-11,2.8c-18,4.8-36.2,8.5-54.5,11.8
				c-10,1.8-20.2,3.2-30.2,4.5c-11.3,1.3-22.7,2.5-34,2.8c-7,0.2-14,0.5-21,0c-4.2-0.3-8.2-0.7-12.2-2.2c-1.5-0.7-1.8-0.2-1.8,1.2
				c0,2.5,0,5-0.2,7.3c-0.2,5.2-0.3,10.2-0.7,15.3c0,1,0.2,1.5,1,1.7c1.7,0.5,3.2,1.2,5,1.2c6,0.2,11.8,0.5,17.8,0.5
				c10.3,0,20.8-0.5,31.2-1.3c15.2-1.3,30.2-3.2,45.2-5.7c15-2.5,30-5.3,44.8-8.8C249,74.9,257.5,72.8,265.9,70.3z M257.9,274
				c0.3,0.2,0.5,0.2,0.8,0.3c9.7,2.2,19.5,3.5,29.5,4.2c6.3,0.3,12.7,0.5,18.8-1.2c0.7-0.2,1.3-0.3,1.7-1.2c1.8-3.3,4-6.3,6-9.5
				c7.7-11.8,15.2-23.7,22.5-35.5c2.3-3.8,4.8-7.8,7.3-12c-0.7,0-0.8,0-1.2,0c-7.2,0.5-14.3,0-21.5-0.8c-17.3-2-34.5-5.8-51.3-10.5
				c-21.2-6-41.8-13.3-62-22c-19.7-8.3-39-17.8-57.2-29c-10.8-6.8-21.5-14-31.2-22.5c-2-1.8-4-3.7-5.8-5.7c-0.5-0.5-1.2-1-1.8-0.8
				c-0.7,0.2-0.7,0.8-0.8,1.5c-0.3,1-0.5,2-0.8,3c-0.7,2.2-1.5,4.2-2.2,6.3c-3.8,12.5-7.7,24.8-11.7,37.3c-0.7,1.8-0.5,3.3,0.3,5.2
				c1.8,3.8,4.2,7.3,7,10.7c9,10.3,19.3,19,30.3,27.2c15,11,31,20.3,47.5,28.5c16,8,32.7,14.7,49.8,20c7.3,2.3,14.8,4.5,22.3,6
				c0.3,0,0.7,0.2,1,0.2C256.2,273.7,257,273.8,257.9,274z M93.2,85.8c-3,1-5.8,2.8-7.3,4.8c-4,4.8-2.3,9.5,3.8,10.7
				c7,1.3,14,2,21.2,2c15.7,0.2,31.2-0.5,46.8-1.8c20.2-1.7,40.2-4.7,60-8.3c15.8-2.8,31.3-6.5,46.8-10.7c10.5-2.8,20.7-6,30.8-9.7
				c10.2-3.7,20.3-7.8,30.2-12.3c3.5-1.7,7-3.2,9.8-6c4-4,3.7-10.7-0.7-13.3c-3.2-1.8-6.7-2.3-10.5-2.2c0.7,1.3,1.2,2.5,1.7,3.5
				c2.3,3.8,2.3,4.3-1,7.2c-0.5,0.5-1.2,1-1.8,1.3c-6.2,3.8-12.8,6.8-19.5,9.7c-14.8,6-30.2,10.5-45.7,14.5
				c-19.3,5.2-39,9.2-58.9,12.3c-17.8,3-35.7,5.2-53.7,6.3c-6.3,0.3-12.7,0.8-19,0.8c-7.3,0-14.7,0-21.8-0.7c-3.2-0.3-6.2-0.7-9.2-2
				c-1.5-0.7-2.7-1.7-2.2-3.7C93.3,87.8,93.2,86.9,93.2,85.8z M103.5,64.4c5.5,0.8,10.5,0.8,15.5,0.8c20.7-0.2,41.2-2.2,61.5-5.3
				c19.3-3,38.5-6.8,57.5-11.3c20.7-5,41-11.3,60.5-19.8c3.5-1.5,6.8-3.2,9.8-5.7c3.2-2.5,1.7-4-1-5.2c-0.2-0.2-0.5-0.2-0.7-0.2
				c-5.5-1.8-11-1.7-16.7-1.7c-10.7,0.2-21.3,1.3-32,2.5c-16.2,2-32.2,4.8-48.2,7.7c-14.2,2.5-28.3,5.7-42.3,9.2
				c-18,4.3-36,9-53.5,15.5c-5,1.8-10,3.8-14.3,6.8c-1,0.7-2,1.5-2.5,2.7c-0.3,1-0.5,1.7,0.8,2.3C100,63.8,102,64.3,103.5,64.4z
				 M167.5,125.5c0.3,0.3,0.3,0.5,0.5,0.5c0.5,0.2,1,0.2,1.5,0.3c13.3,2,26.7,4.5,39.5,8.7c9.3,3,18.8,5.5,27.7,9.7
				c0.3,0.2,0.8,0.3,1.2,0c2.7-1.2,5.2-2.8,7.3-4.7c-2.8-1-5.5-2.2-8.3-3.2c-13.3-4.5-26.7-9-40.3-11.8c-3.2-0.7-6.3-1.8-9.5-1.5
				c-2.7,0.2-5.3,0.5-7.8,0.8C175.3,124.6,171.5,125.1,167.5,125.5z M216.4,119.1c0,0.2,0,0.2,0,0.3c0.3,0,0.5,0.2,0.8,0.2
				c11.5,2.7,22.7,6.5,33.8,10.7c1,0.3,1.5,0.3,2.2-0.7c2.7-4,5.2-8,8.3-11.7c-3-1.7-5.8-3.5-8.2-6.2c-0.3-0.5-0.8-0.2-1.2,0
				c-7.8,1.8-15.5,3.7-23.5,5C224.5,117.6,220.5,118.4,216.4,119.1z M322.4,173c-0.2,2.5-0.3,4.7-0.5,6.7c-0.2,1.2,0.3,1.8,1.2,2.5
				c4.7,3.2,9.3,6.5,13.5,10.2c2.3,2.2,4.5,4.5,5.7,7.3c0.8,2,0.8,2.2,2.8,1.2c0.7-0.3,1.3-0.7,1.8-1c1.8-1.3,2.2-2.5,1.3-4.5
				c-0.5-1.3-1.3-2.5-2.2-3.7c-4.7-5.8-11-10-17-14.3C327.1,175.8,324.7,174.5,322.4,173z M194.5,122.3c3.3,0.7,6.3,1.3,9.3,2
				c14,3.3,27.7,8,41.2,13c2.5,1,2.5,1,4-1.3c-0.7-0.3-1.3-0.7-2-0.8c-12.3-4.5-24.7-8.5-37.3-11.8c-2.3-0.7-4.8-1.3-7.2-1.8
				C200,120.9,197.4,121.4,194.5,122.3z M333.2,201.6c1.8,0,3.7,0,5.5,0c1.2,0,1.5-0.7,1-1.8c-0.8-1.7-2-3.2-3.2-4.3
				c-3.8-3.8-8-7.2-12.7-10c-0.3-0.2-0.7-0.7-1.2-0.3c-0.5,0.3-0.2,0.8,0,1.2c0.5,2.2,1,4.3,2.2,6.3c1.3,2.7,3.7,4.5,5.2,7
				C330.6,200.8,331.7,201.5,333.2,201.6z M300.9,98.4c7.5,1.2,13.8-0.3,18.3-6.8C313.4,94.4,307.1,96.3,300.9,98.4z M263,110.1
				c-0.7-0.2-3.3,0.5-3.3,1c0,1,1,1.3,1.5,2c0.3,0.3,0.8,0.7,1.3,1c1.5,1.2,2.2,1,3.5-0.8c0.8-1.3-0.7-1.5-1.3-2.2
				C264.4,110.6,263.7,110.4,263,110.1z"/>
			<path class="st0" d="M445.3,11.2c-0.5,3.3-2.5,5.5-5.3,7.2c-4.8,2.7-10.3,3.7-15.8,4.2c-8,0.7-15.7,2-22.8,5.5
				c-1.2,0.5-2.3,1-3.3,2s-2,1-3,0.3c-1.2-0.8-0.7-2-0.2-2.8c3-6.8,7-12.8,12.7-17.7c6.5-5.5,13.7-9.2,22.3-9.8
				c4.3-0.3,8.3,0.3,12,2.8C444.4,4.7,445.6,7.6,445.3,11.2z M402.2,20.4c-0.7,0.3-1,1.2-1.3,1.8c-0.3,0.5-1.2,1-0.7,1.7
				c0.5,0.5,1.2-0.2,1.8-0.3c7.5-2.8,15.3-4.2,23.2-5c4.7-0.5,9.3-1.5,13.2-4.5c2.7-2,3.2-5,1.5-7.2c-0.7-1.2-1.8-1.7-2.8-2.2
				c-4-1.7-8-1.3-12.2-0.3c-5.2,1.3-9.7,3.7-13.8,6.8C407.8,13.9,404.4,16.6,402.2,20.4z"/>
			<path class="st0" d="M146.7,468.6c-9.5-1.5-23.7-5.5-37-12.2c-0.5-0.2-1-0.5-1.3-0.8c-0.7-0.5-1.3-1.2-0.8-2s1.3-1,2.3-0.5
				c2.3,1.3,4.7,2.3,7.2,3.3c7.8,3.2,16,5.5,24.3,7.3c12.7,3,25.5,4.3,38.5,3.8c11.2-0.5,22-2.7,31.8-8.3c2-1.2,3.8-2.5,5.7-3.8
				c0.5-0.3,1-0.8,1.7-0.8c0.7-0.2,1.3,0.2,1.7,0.8c0.3,0.7,0.2,1.2-0.3,1.5c-0.8,0.7-1.5,1.5-2.3,2.2c-10,7.5-21.5,10.7-33.7,11.8
				C173.3,471.9,162.5,470.9,146.7,468.6z"/>
			<path class="st0" d="M123.5,475.9c-13.2-2-25.8-5.7-38.2-10.5c-16-6.2-31.3-13.8-45.3-23.7c-1.8-1.3-3.5-2.8-5.2-4.3
				c-0.5-0.5-1.3-1-0.7-1.8c0.8-0.8,1.5-0.3,2.2,0.2c5.5,4.3,11.3,8,17.5,11.3c12.7,6.8,25.8,13,39.5,17.7
				c13,4.5,26.2,8.3,39.8,10.5c1,0.2,2,0.2,3,0.5c0.5,0.2,1.3-0.2,1.3,0.7s-0.8,0.8-1.5,0.8c-2,0-3.8,0-5.8-0.2
				C128,476.7,125.7,476.2,123.5,475.9z"/>
			<path class="st0" d="M464.1,86.1c4.5,0.8,9.2,2.3,12.5,6.2c3,3.3,3.8,7.8,1.8,11.5c-2,3.5-6.5,5.2-10.8,4.2
				c-5.2-1.2-8.8-4.7-12.3-8.3c-2.5-2.7-5.3-4.8-8.7-6.3c-0.7-0.3-1.3-0.5-2-0.7c-1.3-0.2-2-1-2.2-2.2c-0.2-1.3,0.7-2,1.7-2.3
				C450.8,85.9,457.3,85.1,464.1,86.1z M455.1,89.6c-1.8-0.2-3.7,0.2-5.7,1.2c2,1.3,3.8,2.5,5.5,3.8c2,1.7,3.8,3.7,5.8,5.3
				c2.2,1.8,4.3,3.8,7.3,4.3c0.5,0,1,0.2,1.3,0.2c0.5,0,1,0.3,1.5-0.2c2.2-0.2,3.5-1.3,4-3c0.8-2.8-0.3-6-2.7-7.8
				C467.3,89.4,461.3,89.3,455.1,89.6z"/>
			<path class="st0" d="M355.7,43.3c0.7-5.7,2.2-11.2,6.5-15.2c1.5-1.3,3.2-2.5,5-3.2c3.2-1.2,6.5-0.3,8.5,2.2
				c1.8,2.3,1.8,6.2,0,8.8c-1,1.5-2.3,2.7-3.8,3.5c-2.3,1.5-4.8,3-7.2,4.5c-2,1.2-3.7,2.5-5.2,4.2c-0.8,1-1.8,1.7-3.2,1
				c-1.3-0.7-1.3-1.8-1-3C355.4,44.9,355.6,44.1,355.7,43.3z M371.1,28.3c-1.8-0.3-3.5,0.2-4.8,1.2c-3.8,2.8-5.8,7-6.8,11.7
				c-0.2,0.5-0.2,1,0.5,1.2c3-1.2,5.5-3.3,8.3-4.8c2.2-1.2,4-2.5,4.8-5C373.6,30.4,373.1,29.1,371.1,28.3z"/>
			<path class="st0" d="M380.9,137.3c3.2,0.5,6.3,1.3,8.8,3.7c2.5,2.2,3.8,4.8,3.3,8.2c-0.3,2.7-1.8,4.7-4.3,5.5
				c-2.8,1-5.5,0.5-7.8-1.3c-1.3-1-2.3-2.5-3.2-4c-1.7-3-3.2-6-5.2-8.7c-0.5-0.8-1-1.7-0.3-2.7s1.5-1.3,2.7-1.2
				C377.1,137,378.9,137.1,380.9,137.3z M388.4,145.6c-0.7-2-2.2-3.3-4.2-3.8c-2-0.8-4-1-6-1.3c-0.5,0-1-0.3-1.3,0.2
				c-0.3,0.5,0.2,0.8,0.5,1.2c1.3,1.8,2.8,3.8,3.8,6c0.5,1,1.2,2,2.2,2.8c1.7,1.3,3.5,1.2,5-0.3
				C389.7,149.1,389.7,147.3,388.4,145.6z"/>
			<path class="st0" d="M21.3,367c-1.8,5.5-2.5,10.7-1.8,16c1.2,8.5,5.2,15.7,10.5,22.3c0.7,0.7,1.2,1.5,1.7,2.3
				c0.5,0.7,0.3,1.3-0.3,1.8c-0.7,0.7-1.3,0.3-1.8-0.2c-4.2-3.8-7.5-8.5-10-13.7c-2.8-5.7-4.3-11.7-4.2-17.8
				c0.2-3.8,0.8-7.7,2.5-11.2c0.5-0.8,1.2-1.7,2.3-1.2C21.1,365.9,21.5,366.5,21.3,367z"/>
			<path class="st0" d="M2.1,377c1,0.3,1.5,1,1.3,2c-0.7,7.2,1.7,13.7,5.3,19.8c0.5,0.7,0.8,1.5,1.2,2.3c0.2,0.5,0,1-0.3,1.3
				c-0.5,0.5-1,0.2-1.3-0.2c-0.2-0.2-0.5-0.3-0.7-0.7c-5.3-6.7-8.7-14-7.3-22.8C0.3,377.7,0.6,376.9,2.1,377z"/>
			<path class="st1" d="M356.2,183.3c-0.8-0.2-1.5-0.5-1.5-1.5C355.4,182.3,355.9,182.6,356.2,183.3z"/>
			<path class="st1" d="M354.7,182c-0.7,0-1-0.3-1-1C354.2,181.3,354.6,181.6,354.7,182z"/>
			<path class="st1" d="M357.1,184.1c-0.5,0-0.8-0.2-0.7-0.8C356.6,183.5,356.9,183.8,357.1,184.1z"/>
			<path class="st1" d="M358.9,186.1c-0.5,0-0.8-0.2-0.8-0.8C358.4,185.5,358.7,185.8,358.9,186.1z"/>
			<path class="st2" d="M256.7,277.5c3.8,0.7,7.5,1.5,11.3,2.2c12.2,2,24.3,3.3,36.7,1.7c0.7,1,0.3,1.5-0.7,1.8
				c-2,0.8-4.2,1.3-6.5,1.8c-7.7,1.3-15.3,0.8-23,0c-5.5-0.7-11.2-1.3-16.7-2.2c-1.3-0.2-2.2,0.2-2.8,1.3c-2.5,4-5,8-7.7,12.2
				c-4.8,7.8-9.8,15.7-14.7,23.5c-4.7,7.5-9.3,15-14,22.5c-4.7,7.3-9.2,15-14,22.3c-4,6.2-8.2,12.2-12.8,18c-1,1.3-2.8,2.2-3,4
				c-7-1.2-13.8-3.2-20.5-5.5c-23.3-7.7-45.5-17.7-66-31c-5.2-3.3-10.2-6.7-15-10.5c-4.5-3.5-8.8-7.2-13-11c-3.5-3.2-6.7-6.7-9.8-10
				c-2.7-2.8-5-6-7.2-9.3c1.8,0.2,2.2-0.3,2.8-3.2c1,0.3,1.5-0.3,2.2-0.8c1.5-1.2,2.7-0.8,3.2,1C66,308,67.8,309,68,311
				c0,0.5,0.8,0.5,1.2,0.5c0.3,0.2,0.8,0.2,1.2,0.3c1.3,1.3,2.5,1.8,3.7,0c0.3-0.5,0.8-0.3,1.3-0.2c0.7,0.3,0,0.8-0.2,1.2
				c-0.3,0.5-0.7,1-0.2,1.7c0.5,0.5,0.5,1,0,1.5c-0.5,0.5-0.3,1.2,0,1.7c0.3,0.3,0.3,0.7,0,1.2c-0.8,1.5,0,2.7,1,3.3
				c2,1,3.8,2.2,6.2,2.7c0.8,0.2,1.3,0.5,1,1.3c-0.3,1.2,0.3,1.8,1.2,2.3c0.8,0.7,1.8,1.2,2.2,2.3c1.2,3.5,4.8,3.2,7.2,5H94
				c1.2-1,2.8-0.8,4.2-1.8c0.7-0.5,2-1.3,2.5,0c0.5,1.2,1.3,1.3,2.3,1.2c0.7-0.2,1.2,0,1,0.8c-0.2,0.8-0.2,1.7,1,1.8
				c0.3,0,0.5,0.3,0.3,0.7c-0.3,1.5,0.5,2,1.7,2.2s2.3,0.7,3.2-0.3c0.7-0.7,1.2-0.8,2-1c1.7-0.2,1.5-1,1.2-2.2
				c-0.2-0.5-0.8-0.5-0.5-1.2c0.8-0.2,1.2,0.8,1.8,0.8c0.5,0,1,0.2,1.3-0.3c0.3-0.3,0.3-0.8,0.2-1.2c-0.3-0.7-0.8-0.5-1.2-0.3
				c-0.7,0.3-1,0-1.2-0.7c-0.2-0.5-0.5-0.8-1-0.8c-0.5-0.2-1.3-0.2-1.2-1c0.2-0.5,1-0.2,1.5,0c0.3,0,0.5,0.2,0.8,0.3
				c2.2,1.2,2.5,1,3.2-1.3c0.7-2.3,1.7-4.5-0.8-6.2c-0.2-0.2-0.2-0.3-0.3-0.7c-0.3-2-1.8-3.7-2.5-5.7c-0.7-2.2-2-4.2-2.5-6.5
				c-0.2-0.5-0.3-1-0.7-1.3c-1.5-1.5-2.5-3.2-3.7-4.8c-1-1.5-0.8-2.7,0-4c1.5-2.5,3.3-4.7,5.2-6.8c1.2-1.3,2.3-2.3,4.2-2.2
				c2.2,0.2,3-2.2,4.8-2.7c0,0,0.2-0.2,0.2-0.3c1.3-3,2.3-6.2,4-8.8c0.8-1.3,0.7-3,1.8-4c0.8-0.8,1.3-1.5,1.5-2.8c0-1,1-2,0.3-3.2
				c0,0,0.2-0.3,0.3-0.5c0.8-0.7,1-1.3,0.8-2.3c-0.2-0.8-0.2-2,1.3-1.3c0.5,0.2,0.8-0.3,1-0.8c0.2-0.8,0.7-1.2,1.3-1.7
				c1.2-0.8,3-0.8,3.5-2.7c0,0,0.2-0.2,0.3-0.2c1.5-0.2,2.7-1,4.3-1c1,0,2.5,0,2.7-1.3c0.2-1.3,0.8-1.7,2-1.3c0.5,0.2,1-0.2,1.5-0.5
				c2.5-1.5,5.2-0.7,7.7-0.3c2,0.2,3.3-0.2,3-2.3c-0.5-2.5,0.5-3.8,2.3-5.2c1-0.7,1-1.5,0.2-2.3c-1.7-1.8-3.8-3.3-6.2-3.3
				c-3.3,0-6.7-0.8-10-1.2c-4-0.5-6.8-2.8-10-4.8c-1.3-0.8-1.2-2.3,0.2-2.8c1.8-0.7,1.3-1.5,0.5-2.5c-1.2-1.7-3-2.3-5-2.7
				c-2.3-0.5-4.5-1.3-5.8-3.3c-0.7-1.2-1.3-2.3-2-3.5c-0.3-0.5-0.8-1-0.8-1.7c4.7,3.2,9.3,6.3,13.8,9.5c6.3,4.3,13,8.2,19.8,11.8
				c15,8,30.3,15.7,46.3,21.5c5.5,2,11,4.3,16.5,6.2c6.3,2.2,12.5,4.2,19,6c5.5,1.5,11.2,3,16.8,4c1.3,0.2,1.8-0.3,2.2-1.3
				C256.5,278.7,256.5,278,256.7,277.5z M148.7,285L148.7,285L148.7,285c-0.5-0.2-0.8,0-0.8,0.7c-0.3,0.3-0.8,0.5-1.2,0.8
				c-0.8-0.2-1.2,0.2-1.3,1c-1.5,0.7-2.3,2-3.3,3c-3.7,3.3-6.2,7.3-7.5,12c-1,3.5-1,7.2,0.5,10.5c0.7,1.7,1.8,2.2,3,1.3
				c1.5-1,3.3-1.5,5.2-2c3.8-1,7.7-1.7,11.3-3c5.5-2,10.2-5.2,14.7-8.7c5.2-4,10.8-6,17.3-6.3c3.2-0.2,6.5-0.3,9.7-0.8
				c0.8-0.2,1.5-0.3,2-0.8c0.8-1,1.5-1.2,2.2,0.2c0.2,0.3,0.5,0.5,0.7,0.8c0.7,0.5,1.5,0.5,2,0c0.7-0.5,0-1.2-0.3-1.5
				c-2-3-4.5-5.8-7.7-7.8c-8.8-5.7-18.5-6.5-28.5-5.3c-5,0.7-9.7,1.7-14.2,4.2c-0.5-0.2-0.8,0-0.8,0.5c-0.8,0.3-1.5,0.8-2.3,1.2
				C149,284.5,148.8,284.5,148.7,285z M160.5,332c10.3,1.2,21.3-1.2,31.3-8c5.5-3.7,9.8-8.3,12.2-14.5c1.5-3.8,2-7.8,0.5-11.8
				c-0.5-1.3-1.3-2-2.8-1.7c-1,0.2-2,0.3-3,0.3c-7,0.2-13.7,1.8-19.5,6.2c-1.7,1.2-3.3,2.3-4.8,3.5c-6,4.7-12.7,7-20.3,7.2
				c-2.3,0-4.7,0.5-7,0.8c-1.8,0.3-3.7,1-5,2.3c-3,2.8-3,4.7-0.3,7.5c0.8,0.8,1.8,1.7,2.8,2.5C148.8,329.3,153.8,330.8,160.5,332z
				 M118.3,333.5c-0.2,0-0.2-0.2-0.3-0.2c0,0-0.2,0.2-0.2,0.3c0.2,0,0.2,0.2,0.3,0.2C118.3,333.7,118.3,333.5,118.3,333.5z"/>
			<path class="st3" d="M254.4,273.3c-7.5-1.7-15-3.8-22.3-6c-17.2-5.3-33.8-12-49.8-20c-16.7-8.2-32.7-17.5-47.5-28.5
				c-11-8.2-21.5-16.8-30.3-27.2c-2.8-3.2-5.2-6.7-7-10.7c-0.8-1.7-0.8-3.2-0.3-5.2c4-12.3,7.8-24.8,11.7-37.3
				c0.7-2.2,1.3-4.3,2.2-6.3c2,0.8,3.5,2.3,5,3.8c9.5,8.7,19.5,16.7,30.3,23.5c9.8,6.2,19.8,12,30,17.5
				c15.7,8.3,31.7,16.2,48.3,22.7c5.5,2.2,10.8,4.3,16.5,6.3s11.3,3.8,17,5.5c4.7,1.3,9.2,2.7,13.8,3.8c3.3,0.8,6.8,1.7,10.2,3
				c1,0.3,1.2,0.7,0.8,1.7c-0.8,1.7-1.3,3.3-2.2,5c-3.2,6-6.5,12-9.7,18c-3.7,7-7.5,13.8-11.3,20.7
				C257.9,267,255.7,269.8,254.4,273.3z"/>
			<path class="st3" d="M130.7,445.9c-6.2-1.5-11.8-4-17.7-6.5c-17.7-7.3-34.2-16.5-49.2-28.7c-8.3-6.8-16.2-14.3-21.7-23.8
				c-2.2-3.7-3.7-7.3-3.8-11.7c-0.2-3,1-5.7,2-8.3c5.2-16.3,10.3-32.7,15.5-49c0.3-1,0.7-2,1.2-3.2c3.3,4.2,6.8,8,10.5,11.7
				c14.3,14.3,31,25.5,48.5,35.5c4.2,2.3,8.7,4.7,13,6.7c1.3,0.7,2.7,1.5,4.2,2.3c-0.2,0.5-1,0.2-1,0.8c2,1.2,4.2,2.5,6.2,3.5
				c7.2,3.7,14.7,6.8,22.3,9.5c6.2,2.2,12.2,4.7,18.5,6.2c1.2,0.3,1,1,0.5,1.7c-0.8,1.7-1.8,3.3-2.8,5c-7,12.3-13.7,25-20.8,37.3
				c-3.8,6.5-9,10.3-16.8,10.2C136.2,445.4,133.3,444.7,130.7,445.9z"/>
			<path class="st4" d="M362.7,132.8c0.8,0.3,1.3,0.8,1.2,1.7c-0.2,1-1,0.7-1.7,0.8c-3.2,0-6.5-0.3-9.7,0.2
				c-5.2,0.7-9.8,2.3-14.2,5.2c-10.2,6.5-16.5,16-20.3,27c-3.3,9.7-2.5,19.2,2.5,28.2c1,1.8,2.5,3,4,4.8c-0.8,0-1.5,0.2-2.3,0.2
				c-5.8-0.7-11.7-1.2-17.3-2.3c-6.2-1.2-12.3-2.5-18.5-4c-6.3-1.5-12.7-3.3-19-5.3c-9.7-3-19.3-6.2-28.8-9.7
				c-8.7-3.2-17.2-7-25.8-10.5c-9-3.7-18-7.7-26.7-12c-9-4.5-17.7-9.5-26.3-14.8c-6.7-4.2-13.2-8.5-19.3-13.7
				c-0.2-0.2-0.3-0.3-0.7-0.7c4.2-0.3,8.2-0.5,12.2-0.7c4-0.2,8.2-0.3,12.2-0.5c0.5,0,1,0,1.3,0.2c1.7,1.3,3.8,1.7,5.8,2.2
				c7.2,1.8,14.3,3,21.5,4.7c12.3,3,24.5,6.8,36.5,11c1.3,0.5,2.5,0.8,3.8,1.5c-3.7,1.5-7.3,2.2-11.2,2.7c-6.3,0.8-12.7,0.7-19-0.8
				s-12.5-3.3-17.7-7.7c-1.7-1.3-2.8-0.3-4.3,0c-2.2-2-4.8-3.2-7.7-3.7c-2.7-0.5-5.2-2-8.2-1.2c-0.5,0.2-1.3,0-1.3,0.8
				c0,0.7,0.7,0.8,1.2,1.2c2.2,1,4.7,1.5,6.5,3c5.5,4,11,8.2,16.7,12.2c1.5,1.2,3.2,2,5,2.5c4.7,1.3,9.5,1.8,14.2,3.3
				c4.8,1.5,9.8,2,15,2.7c3.3,0.5,6.7,0.5,10,0.7c4.8,0.2,9.5-0.5,14.2-1.2c6.5-0.8,13.2-0.8,19.8-2c1.2-0.2,2.3-0.3,3.2-1.3
				c-0.7-0.3-2.2,0.2-1.2-1.3c1.3-2,2.5-4.2,4.5-5.3c2.7-1.8,3.5-4.7,5-7.2c1.3-2.2,3-4.5,3.2-7.3c0-0.2,0.3-0.3,0.3-0.7
				c0.8-2,2.2-4,2.2-6.2c0-2.8,1.2-4.7,3.3-6c3.2-1.8,6.2-3.7,8.7-6.5c1-1.2,2.7-1.8,2.8-3.7c1.7-0.8,3.3-1.8,5-2.7
				c0.5-0.2,1.2-0.3,1.7-0.2c2.3,0.5,4.5,0,6.7-0.5c3-0.7,5.5-1.8,7.7-4.2c2.8-3,4.8-6.5,7.3-9.7c1.8-2.3,3.5-4.8,5.8-6.7
				c5.3-4,12.2-4.3,18.2-7c3,0.3,5.7-0.3,8.3-1.5c3.7-1.7,7.5-3.2,11.5-3.5c3.3-0.2,4,0.3,4.5,3.2c0.2,0.7,0,1.3-0.2,2
				c0,0.5-0.5,1.2,0.2,1.5c0.7,0.5,1-0.2,1.5-0.5c0.5-0.3,0.8-0.5,1.3-1c3-2.8,6.5-5,9.7-7.3c2.8-2.2,5.7-4.3,9-5.8
				c3.5-1.7,7.5-2.3,11.3-3.3c1-0.3,1.7,0.2,2.3,0.7c0.7,0.5,1.5,0.8,2.5,0.8c1.2-0.2,1.7,0.3,0.7,1.3c-0.5,0.5-0.7,1.2-0.2,1.8
				c-3.7,1.2-7.5,2.2-11,3.8c-5.8,2.8-11.2,6.2-14.2,12.2c-2.7,5.2,0,11.3,5.5,13.2c0.7,0.2,1.3,0.7,2,1c-0.2,1-0.3,2-1.3,2.3
				c-1.7,0.7-3.3,2-5.5,1c-0.3-0.2-0.8,0-1.2,0.2c-1.3,0.5-2.7,0.8-3.8,1.8c-0.7,0.5-1.3,0.5-2.3,0.2c-1.5-0.3-2.8-1.2-4.3-1.2
				c-2.3,0.2-4.5,0.8-6.8,1.2c-0.5,0-1,0.2-1.2,0.7c-0.2,1.2-1.2,1.3-2,1.7c-4.3,1.5-8.7,2.8-12.7,5.2c-1.7,1-2.8,2.5-3.2,4.5
				c-0.3,1.7,0.8,2.8,2.5,2.7c0.8,0,1.3,0.2,2,0.5c-1,1.5-2.3,2.8-3,4.5c-1.2,2.7,0.2,6,3,7C358.7,134.5,360.2,134.5,362.7,132.8z
				 M297.1,191.6c1.2,0,2.5,0,3.7-0.2c2.8-0.5,5.5-3.7,4.7-6.5c-1.5-4.8-2.5-9.7-0.8-14.8c1.2-3.8,2.2-7.7,4-11.2
				c3.5-6.5,7.7-12.3,12.5-17.8c0.7-0.8,2-1.8,0.8-2.8c-1-0.8-1.8,0.7-2.5,1.5c-0.7,1.2-1.7,1.5-2.8,0.8c-0.7-0.3-1.2-0.2-1.8,0.2
				c-2.2,0.8-3.3,3-4.8,4.5c-6.3,6-12,12.7-15.5,20.7c-0.8,1.8-2,3.7-3.7,5.2c-2.3,2.3-5.2,4.3-7.8,6.3c-0.8,0.7-1.5,1.3-1.7,2.3
				c-0.2,0.7-0.5,1.5,0.5,1.8c1,0.3,0.7-0.7,0.8-1.2c0.2-0.3,0.3-0.8,0.8-0.7c0.5,0.2,0.3,0.5,0.3,0.8c0,1.8,0.7,3.5,2,4.5
				C288.9,188.1,292.7,190.1,297.1,191.6z M278.4,150.6c-2.5,1.2-4.5,3.2-6.5,5C274.5,154.6,276.4,152.6,278.4,150.6z"/>
			<path class="st5" d="M189.2,386.5c0.2-2,2-2.7,3-4c4.5-5.8,8.7-11.8,12.8-18c4.8-7.3,9.3-14.8,14-22.3c4.7-7.5,9.3-15,14-22.5
				c4.8-7.8,9.8-15.7,14.7-23.5c2.5-4,5.2-8,7.7-12.2c0.7-1.2,1.5-1.5,2.8-1.3c5.5,0.8,11.2,1.5,16.7,2.2c7.7,0.8,15.3,1.3,23,0
				c2.2-0.3,4.3-0.8,6.5-1.8c1-0.3,1.3-1,0.7-1.8c3,0,5.7-1.2,8.2-2.7c1.3-0.8,1.5,0,1.3,1c0,1-0.5,2-1.2,2.8
				c-5,7.7-10.2,15.2-15.3,22.7c-3.5,5.3-7.2,10.5-10.7,15.8c-5.2,7.8-10.5,15.8-15.7,23.7c-8.8,13.2-17.7,26.3-26.3,39.7
				c-2.2,3.3-4.8,4.7-8.5,5.5c-9.5,1.8-18.8,0.7-28.2,0.2c-5.8-0.3-11.5-1.7-17.2-2.7C190.5,387,189.9,386.7,189.2,386.5z"/>
			<path class="st6" d="M254.4,273.3c1.3-3.3,3.5-6.3,5.2-9.3c4-6.8,7.7-13.8,11.3-20.7c3.2-6,6.5-12,9.7-18c0.8-1.7,1.5-3.3,2.2-5
				c0.5-1,0.2-1.3-0.8-1.7c-3.3-1.2-6.7-2-10.2-3c-4.7-1.3-9.3-2.5-13.8-3.8c-5.7-1.7-11.5-3.5-17-5.5s-11-4.2-16.5-6.3
				c-16.7-6.3-32.7-14.2-48.3-22.7c-10.2-5.5-20.2-11.3-30-17.5c-10.8-7-20.8-14.8-30.3-23.5c-1.5-1.5-3-3-5-3.8c0.3-1,0.5-2,0.8-3
				c0.2-0.5,0.2-1.3,0.8-1.5c0.7-0.2,1.3,0.3,1.8,0.8c1.8,2,3.8,3.8,5.8,5.7c9.7,8.5,20.3,15.7,31.2,22.5
				c18.2,11.3,37.5,20.7,57.2,29c20.2,8.7,40.8,16,62,22c16.8,4.7,33.8,8.5,51.3,10.5c7.2,0.8,14.3,1.2,21.5,0.8c0.3,0,0.5,0,1.2,0
				c-2.5,4.2-5,8-7.3,12c-7.3,12-14.8,23.8-22.5,35.5c-2,3.2-4.2,6.2-6,9.5c-0.3,0.7-1,0.8-1.7,1.2c-6.2,1.7-12.5,1.7-18.8,1.2
				c-9.8-0.7-19.7-2-29.5-4.2c-0.3,0-0.5-0.2-0.8-0.3c-0.7-1.2-1.5-1-2.5-0.5C255,273.5,254.7,273.3,254.4,273.3z"/>
			<path class="st7" d="M265.9,70.3c-8.5,2.5-17,4.7-25.5,6.5c-14.8,3.3-29.8,6.3-44.8,8.8c-15,2.5-30,4.3-45.2,5.7
				c-10.3,0.8-20.7,1.3-31.2,1.3c-6,0-11.8-0.3-17.8-0.5c-1.7,0-3.3-0.8-5-1.2c-0.8-0.2-1-0.8-1-1.7c0.3-5.2,0.5-10.2,0.7-15.3
				c0-2.5,0-5,0.2-7.3c0-1.3,0.3-1.7,1.8-1.2c3.8,1.5,8,1.8,12.2,2.2c7,0.5,14,0.2,21,0c11.3-0.3,22.7-1.5,34-2.8
				c10.2-1.3,20.2-2.7,30.2-4.5c18.3-3.3,36.5-7,54.5-11.8c3.7-1,7.3-2,11-2.8c0.3,0.3,0.5,0.7,0.7,1c0.8,4.5,2.3,8.7,4,13
				c1,2.7,2,5.2,1.7,8.2C267,68.4,265.9,69.1,265.9,70.3z"/>
			<path class="st6" d="M130.7,445.9c2.7-1.2,5.5-0.5,8.3-0.5c7.8,0.2,13-3.7,16.8-10.2c7.2-12.3,13.8-24.8,20.8-37.3
				c1-1.7,1.8-3.3,2.8-5c0.3-0.7,0.7-1.5-0.5-1.7c-6.3-1.5-12.3-3.8-18.5-6.2c-7.7-2.8-15.2-5.8-22.3-9.5c-2.2-1.2-4.2-2.3-6.2-3.5
				c0-0.7,0.8-0.3,1-0.8c0.7,0,1.3,0.5,2,0.7c0.2,0.2,0.3,0.3,0.3,0.5c2.7,0.2,4.8,1.7,7.2,2.7c13.8,5.8,28,10.3,42.5,14.2
				c5.8,1.5,11.7,2.8,17.5,3.3c8,0.8,16,1.7,24,1.5c1.2,0,2.7-0.5,3.2,0.3c0.3,0.5-0.8,2-1.5,3c-6.2,9.7-12.2,19.3-18.3,29
				c-4,6.3-8.3,12.7-12.2,19.2c-1.8,3.2-4.8,4.7-8,5.8c-6.5,2.3-13.3,2.5-20.2,2.2c-13.2-0.5-26-3.3-38.5-7.3
				C131,446.2,130.8,446,130.7,445.9z"/>
			<path class="st7" d="M84.2,109.4c0-2.2,0-4.5,0-6.7c0-0.8,0.5-0.8,1.2-0.7c3.3,1,6.8,1.8,10.3,2.2c6.8,0.8,13.7,1,20.5,1.2
				c11,0.2,21.8-0.3,32.7-1.2c15-1,29.8-2.7,44.7-5c10.2-1.7,20.3-3.2,30.5-5.2c15.2-3,30.3-6.3,45.3-10.7c0.2,0,0.3,0,0.5,0
				c1,1.7,2.2,3.3,3.5,4.7c3.2,3.2,3,7.7,0.2,11c-0.5,0.7-1.3,1.2-1.3,2.2c-4.3,1.5-9,2.5-13.3,3.7c-9.7,2.5-19.5,4.5-29.5,6.3
				c-7,1.3-14.2,2.5-21.2,3.7c-0.7,0.2-1.3,0.2-2,0.2c-0.5-0.5,0-1.5-1-1.8c-1.5-0.5-2.8-1.3-4.3-1.8c-1.7-0.3-3.5-1.2-5,0
				c-2.5,2-5,2.5-7.8,1.2c-1.8-1-4-1-6-0.8c-3,0.2-5.7,2-8.8,2.5c-1.7,0.3-3.3,0.2-5,0.8c-4.8,2-9.8,3.2-15,3.7
				c-6.7,0.5-13.3,0.5-20,0.8c-5.8,0.3-11.7,0.5-17.3,0c-5.5-0.5-10.8-1-16.3-2c-3.8-0.7-7.7-2-11.2-3.8c-1.3-0.7-2.5-1.5-2.8-3.2
				C85.5,109.9,85,109.4,84.2,109.4z"/>
			<path class="st8" d="M350.9,82.1c-6,2.7-12.8,2.8-18.2,7c-2.3,1.8-4,4.3-5.8,6.7c-2.5,3.2-4.7,6.7-7.3,9.7
				c-2.2,2.3-4.8,3.7-7.7,4.2c-2.2,0.5-4.3,1-6.7,0.5c-0.5-0.2-1.2,0-1.7,0.2c-1.7,0.8-3.3,1.8-5,2.7c-0.8,0.3-1.7,0.7-2.5,1
				c-6.8,3.7-12.8,8.3-18.2,13.8c-5.5,5.7-11,11.2-16.8,16.5c-4.8,4.3-10.2,7.8-16.3,10c-5.8,2-11.8,2.8-18,3.2
				c-5.3,0.3-10.5,0.5-15.8-0.3c-3-0.5-6-1.3-9-2.5c-4.2-1.7-8.8-2.5-12.8-4.8c-1.3-0.8-2-1.7-1.5-3.2c3.7,2.3,7.5,3.8,11.5,5.2
				c6.8,2.2,13.7,2.7,20.8,2.3c9.7-0.5,18.7-3.2,26.7-8.7c4.5-3.2,8.2-7.2,11.2-12c5.5-9,11.8-17.2,21-22.8c4.2-2.7,8.3-5,13-6.3
				c2.3-0.7,4.7-1,7-0.5c3.3,0.5,6.7,1.2,10.2,0.7c5.7-0.7,9.8-4,13.8-7.8c2.5-2.5,5.2-4.7,7.2-7.7c2.2-3.3,5.8-4.5,9.2-6
				c3.2-1.5,6.3-3,9.8-4.2c4.8-1.7,9-4.5,13-7.5c11-8.2,22.5-15.7,34.7-21.8c14.2-7.2,29-12,45.2-12.3c7.2-0.2,14.3,0.5,20.8,4
				c3.8,2,6.7,5,7.7,9.3c1.3,6-1.3,10.7-7.2,13.5c-5.8,2.7-12,3.5-18.2,4c-7.2,0.5-14.2,0.3-21.3,0.7c-1.8,0-3.5,0.2-5.3,0.3
				c0-1.2,0.5-2,1.8-2.5c5-1.8,10.3-2.8,15.7-3.7c4.7-0.7,9.5-1.3,13.8-3.2c3.3-1.3,6.8-2.3,9.2-5.3c0.8-1.2,0.8-2.2,0.3-3.2
				c-0.3-1-1.5-0.7-2.3-0.7c-4.3,0.3-8.5,0.3-12.8-0.5c-4-0.7-8-1.2-11.8-1.8c-4-0.7-8.2-0.5-12.2,0.2c-8.7,1.5-16.8,4.5-25,7.8
				c-7.5,3.2-14.3,7.3-21.2,11.5c-3,1.8-5.8,3.7-8.8,5.5C360.1,76.4,355.4,79.3,350.9,82.1z"/>
			<path class="st9" d="M93.2,85.8c0,1,0.2,2-0.2,3c-0.5,2,0.5,3,2.2,3.7c2.8,1.3,6,1.8,9.2,2c7.3,0.7,14.7,0.7,21.8,0.7
				c6.3,0,12.7-0.5,19-0.8c18-1.2,35.8-3.3,53.7-6.3c19.8-3.3,39.5-7.3,58.9-12.3c15.5-4,30.8-8.5,45.7-14.5
				c6.7-2.7,13.3-5.8,19.5-9.7c0.7-0.3,1.3-0.8,1.8-1.3c3.5-3,3.5-3.3,1-7.2c-0.7-1-1.2-2.2-1.7-3.5c3.8-0.2,7.3,0.2,10.5,2.2
				c4.3,2.7,4.7,9.3,0.7,13.3c-2.8,2.8-6.3,4.3-9.8,6c-9.8,4.5-20,8.7-30.2,12.3c-10.2,3.7-20.5,6.8-30.8,9.7
				c-15.5,4.2-31.2,7.8-46.8,10.7c-19.8,3.7-39.8,6.5-60,8.3c-15.5,1.3-31.2,2-46.8,1.8c-7,0-14.2-0.7-21.2-2
				c-6.2-1.2-7.8-5.8-3.8-10.7C87.5,88.6,90.2,86.8,93.2,85.8z"/>
			<path class="st3" d="M132.8,127.6c0.7-0.3,1.3-0.2,1.8,0.5c10.3,10,22.8,17.2,35.2,24.3c24.3,13.8,50,24.5,76.4,33.8
				c16.2,5.7,32.8,10.2,49.5,14c10.3,2.3,20.8,4,31.5,4.7c6.5,0.5,13,0.5,19.2-1.7c5-1.7,6.3-5.3,3.8-10c-1.5-3-3.8-5.3-6.3-7.7
				c-5.8-5.3-12.2-9.7-18.8-13.8c-2.3-1.5-2.3-1.5-1.5-4.3c8.5,4.5,16.3,10,23.8,16.2c4.3,3.7,8.2,7.7,10.5,12.8
				c1,2.3,2,4.8,1.5,7.5c-0.2,0.5,0.2,1,0.2,1.5c-1-0.8-2-0.8-3.3-0.3c-5,1.5-9.7,3.8-14.8,4.7c-9.7,1.5-19.2,0.5-28.8-0.2
				c-3.8-0.3-7.7-1-11.5-1.3c-3.5-0.3-7-0.2-10.5,0.2c-0.8,0.2-1.5,0.3-1.7,1.3c-1.7-0.3-3.3-0.8-4.8-1.2c0.2-0.2,0.2-0.3,0.3-0.3
				c1.3-0.5,1.7-1.7,1.5-2.8c-0.2-1.2-1.3-1-2.2-1.2c-0.2,0-0.5-0.2-0.7-0.2c-6.3-2-12.7-3.2-19.2-4.7c-3.7-0.8-7.3-1.8-11-3
				c-6.7-2.2-13.2-4.3-19.8-6.5c-7.7-2.7-15.3-5.3-23.2-7.8c-0.5-0.2-1.2-0.8-1.8-0.3s0.5,1,0.3,1.7c-3.7-1.3-7.2-3.2-10.8-4.7
				c-3.5-1.5-6.8-3.2-10.2-4.8c-17.8-8.7-35-18.3-51.3-29.7c-6.7-4.7-13-9.7-18.8-15.3c-0.2-0.2-0.5-0.5-0.8-1c2-0.2,3.7-0.2,5.3,0
				c0,0.3-0.2,0.7-0.5,0.8c-1.3,1-0.7,1.7,0.3,2.5c0.5,0.3,1,0.3,1.5,0.5c1.2,0.2,2.3,0,3.3,0.3c1.8,0.7,3.8,0.7,6.2,1.2
				c-0.7-1-0.5-1.7,0-2.3C133.5,129.8,133.5,128.8,132.8,127.6z"/>
			<path class="st9" d="M103.5,64.4c-1.5-0.2-3.5-0.7-5.5-1.5c-1.2-0.7-1.2-1.3-0.8-2.3c0.5-1.2,1.5-2,2.5-2.7c4.3-3,9.3-5,14.3-6.8
				c17.5-6.5,35.3-11.2,53.5-15.5c14-3.3,28.2-6.5,42.3-9.2c16-2.8,32-5.7,48.2-7.7c10.7-1.3,21.3-2.3,32-2.5
				c5.7-0.2,11.2-0.2,16.7,1.7c0.2,0,0.5,0.2,0.7,0.2c2.7,1.2,4.2,2.5,1,5.2c-3,2.3-6.3,4.2-9.8,5.7C279,37.4,258.7,43.8,238,48.8
				c-19,4.5-38.2,8.3-57.5,11.3c-20.3,3.2-40.8,5.2-61.5,5.3C114,65.3,109,65.3,103.5,64.4z M121.3,58.6c3.2,0.3,6.3,0.3,9.5,0.2
				c15-0.5,29.7-2.5,44.5-4.5c19.3-2.7,38.5-6.5,57.5-10.7c16.5-3.7,32.8-7.8,48.7-13.8c2.8-1,5.5-2.2,7.8-4
				c2.2-1.7,1.8-3.5-0.7-4.5c-1-0.3-2.2-0.5-3.3-0.5c-6.2-0.2-12.3,0.2-18.5,0.8c-12.3,1.2-24.5,3-36.5,5c-24.3,4-48.5,8.7-72.4,15
				c-10,2.7-20,5.3-29.8,8.8c-3.2,1.2-6.3,2.3-9,4.5c-1.7,1.3-1.3,2.7,0.7,3.3C120.2,58.3,120.7,58.4,121.3,58.6z"/>
			<path class="st10" d="M60.3,306.2c-0.7,2.8-1,3.2-2.8,3.2c-1.2-1.5-2-3.2-2.7-5c-0.8-2.2-0.7-4.2,0-6.3c3.2-10.5,6.2-21,9.3-31.5
				c4.3-14.7,8.7-29.2,13-43.7c4.2-14.2,8.3-28.3,12.7-42.3c0.7-2,1-4.3,3.3-5.3l0,0c-0.7,5.7,2.2,10.3,5.3,14.5
				c3.3,4.5,7.2,8.8,11.2,12.7c13,12.5,27.3,23,42.7,32.5c19.8,12.2,40.5,22.3,62.4,30.3c13.2,4.8,26.7,8.8,40.3,12
				c0.5,0.2,1.2,0.3,1.7,0.5c-0.2,0.5-0.2,1-0.3,1.5c-0.3,1.2-0.8,1.7-2.2,1.3c-5.7-1-11.2-2.5-16.8-4c-6.3-1.7-12.7-3.8-19-6
				c-5.5-2-11-4.2-16.5-6.2c-16-6-31.3-13.5-46.3-21.5c-6.8-3.7-13.5-7.5-19.8-11.8c-4.7-3.2-9.2-6.3-13.8-9.5c-1-1.5-2.7-2.5-4-3.7
				c-7.8-6.5-15.7-13-22.2-21c-0.8-1-1.3-0.7-1.5,0.3c-0.3,1.2-0.7,2.3-1,3.5c-1.7,5.7-3.5,11.3-5.3,16.8c-2.2,6.2-4,12.5-6,18.8
				c-1.3,4.3-2.7,8.8-4,13.2c-1.7,5.3-3.3,10.7-4.8,16c-1.3,4.5-2.7,9-4.2,13.5c-1.8,5.8-3.5,11.5-5.3,17.3
				C62.6,299.5,62,303,60.3,306.2z"/>
			<path class="st11" d="M265.9,70.3c0-1.2,1.2-1.8,1.2-3c0.3-3-0.7-5.5-1.7-8.2c-1.5-4.2-3.2-8.5-4-13c0-0.5-0.2-0.8-0.7-1
				c2.3-0.8,4.8-1.7,7.2-2.5c11-3.5,22-7.3,32.5-12.3c3.3-1.5,6.7-3,9.5-5.3c1.8-1.5,2-1.5,3.2,0.7c3.5,6.7,7.3,13.2,11.2,19.5
				c0.7,1.2,0.8,2-0.5,3c-5.5,3.8-11.5,6.3-17.7,8.8c-10.8,4.5-22,7.8-33,11.3C270.7,69.1,268.4,69.6,265.9,70.3z"/>
			<path class="st12" d="M350.9,82.1c4.5-2.8,9.2-5.7,13.7-8.5c3-1.8,5.8-3.7,8.8-5.5c6.8-4.3,13.7-8.3,21.2-11.5
				c8.2-3.5,16.3-6.5,25-7.8c4-0.7,8-0.8,12.2-0.2c4,0.7,8,1.2,11.8,1.8c4.3,0.7,8.5,0.7,12.8,0.5c0.8,0,2-0.3,2.3,0.7
				c0.5,1,0.3,2-0.3,3.2c-2.3,3-5.8,4-9.2,5.3c-4.5,1.8-9.2,2.5-13.8,3.2c-5.3,0.8-10.5,1.7-15.7,3.7c-1.3,0.5-1.8,1.2-1.8,2.5
				c-1.3,0.7-3,0.8-4.5,1c-0.5-0.7-0.3-1.3,0.2-1.8c1-1.2,0.5-1.5-0.7-1.3c-1,0.2-1.7-0.2-2.5-0.8c-0.7-0.5-1.3-0.8-2.3-0.7
				c-3.8,1-7.7,1.7-11.3,3.3c-3.2,1.5-6,3.7-9,5.8c-3.2,2.5-6.7,4.7-9.7,7.3c-0.3,0.3-0.8,0.7-1.3,1c-0.5,0.3-0.8,1-1.5,0.5
				c-0.5-0.3-0.2-1-0.2-1.5c0-0.7,0.2-1.3,0.2-2c-0.5-2.8-1.2-3.3-4.5-3.2c-4.2,0.2-7.8,1.8-11.5,3.5
				C356.6,81.8,353.7,82.4,350.9,82.1z"/>
			<path class="st11" d="M272.2,101.4c0-1,0.8-1.5,1.3-2.2c3-3.3,3-8-0.2-11c-1.3-1.5-2.5-3-3.5-4.7c1.7-0.5,3.2-1,4.8-1.5
				c7.5-2.3,14.8-4.7,22.3-7.2c-0.5,1.5-1.8,2.5-3,3.5c-2.3,1.7-5,2.2-7.3,3.7c-0.7,0.3-2,0.2-1.8,1.3c0.3,1,1.5,0.7,2.5,0.7h0.2
				c6.8-0.7,13.3-2.5,19.8-4.7c6.8-2.3,13.3-5.3,19.8-8.5c2.8-1.5,5.7-3,8.3-4.8c0.8-0.7,1-1,0.5-2.2c-0.8-1.8-2.5-2.5-3.7-3.8
				c0.3-1.2,1.5-1.2,2.2-1.7c1.5-1.2,3-2.3,4.5-3.7c0.8-0.7,1.2-0.5,1.8,0.3c3,4.2,5.3,8.5,7.7,13c0.3,0.8,0.2,1.3-0.3,2
				c-1.7,2.7-4.2,4.2-6.7,5.7c-6.5,4-13.3,7.3-20.3,10c-6,2.3-12,4.5-18,6.7c-7.3,2.7-14.7,5-22,7
				C278.2,99.9,275.4,101.1,272.2,101.4z"/>
			<path class="st12" d="M187.4,146.6c-0.5,1.5,0.2,2.5,1.5,3.2c4,2.2,8.7,3.2,12.8,4.8c2.8,1.2,6,2,9,2.5
				c5.2,0.8,10.5,0.7,15.8,0.3c6.2-0.3,12.2-1.3,18-3.2c6.2-2.2,11.5-5.7,16.3-10c5.8-5.3,11.3-10.8,16.8-16.5
				c5.3-5.5,11.5-10,18.2-13.8c0.8-0.5,1.7-0.7,2.5-1c-0.2,1.8-1.8,2.5-2.8,3.7c-2.5,2.8-5.5,4.7-8.7,6.5c-2.2,1.2-3.5,3.2-3.3,6
				c0,2.2-1.3,4.2-2.2,6.2c-0.2,0.2-0.3,0.3-0.3,0.7c-0.2,2.8-1.8,5-3.2,7.3c-1.5,2.5-2.3,5.3-5,7.2c-1.8,1.3-3.2,3.3-4.5,5.3
				c-0.8,1.5,0.7,1,1.2,1.3c-0.8,1-2,1.2-3.2,1.3c-6.5,1.2-13.2,1.2-19.8,2c-4.7,0.7-9.5,1.3-14.2,1.2c-3.3-0.2-6.7-0.2-10-0.7
				c-5-0.7-10.2-1.2-15-2.7c-4.7-1.5-9.5-1.8-14.2-3.3c-1.8-0.5-3.5-1.3-5-2.5c-5.5-4-11-8.2-16.7-12.2c-2-1.3-4.3-2-6.5-3
				c-0.5-0.2-1.2-0.3-1.2-1.2s0.8-0.7,1.3-0.8c2.8-0.8,5.5,0.7,8.2,1.2c2.8,0.5,5.5,1.7,7.7,3.7C182.7,143,185,144.8,187.4,146.6z"
				/>
			<path class="st12" d="M355.9,120.9c-0.7-0.5-1.2-0.7-2-0.5c-1.7,0.2-2.8-1.2-2.5-2.7c0.3-2,1.3-3.5,3.2-4.5
				c4-2.2,8.5-3.5,12.7-5.2c0.8-0.3,1.8-0.5,2-1.7c0.2-0.5,0.7-0.7,1.2-0.7c2.3-0.3,4.5-1,6.8-1.2c1.7-0.2,3,0.7,4.3,1.2
				c0.8,0.2,1.7,0.3,2.3-0.2c1.2-1,2.5-1.3,3.8-1.8c0.3-0.2,0.8-0.3,1.2-0.2c2,1,3.7-0.5,5.5-1c1-0.3,1.2-1.3,1.3-2.3
				c5.7,1.3,11.5,1.2,17.3,1.8c5.7,0.7,11.2,2.2,16.2,5.3c2.8,1.7,5.3,3.8,7,6.8c-4-1-7.8-2.3-11-5.2c-1-0.8-2.2-1.3-3.5-1.5
				c-1.7-0.2-2.2,1.2-3,2.2c-0.7,0.8,0.3,1.3,0.7,1.8c1.3,2.3,3.3,3.8,5.5,5.2c1.5,1,2.8,0.8,4-0.3c0.7-0.7,0.3-1.7,0.5-2.5
				c2.3,3.5,1.3,7.7-2.5,8.8c-4.2,1.2-8.2,0.7-12.2-0.5c-4.2-1.3-7.8-3.7-11.7-5.7c-5.3-2.8-10.7-5.5-16.8-5.5
				c-7.2,0.2-14.2,1-20.8,4.2C361.9,116.6,358.9,118.6,355.9,120.9z"/>
			<path class="st8" d="M355.9,120.9c3-2.2,6-4.3,9.3-5.8c6.7-3.2,13.7-4,20.8-4.2c6.3-0.2,11.7,2.7,16.8,5.5
				c3.8,2,7.5,4.3,11.7,5.7c4,1.2,8,1.7,12.2,0.5c3.8-1.2,4.8-5.3,2.5-8.8c-0.3,0.8,0.2,1.8-0.5,2.5c-1.2,1.2-2.5,1.3-4,0.3
				c-2.2-1.3-4.2-2.8-5.5-5.2c-0.3-0.7-1.5-1.2-0.7-1.8c0.8-0.8,1.3-2.3,3-2.2c1.3,0.2,2.5,0.7,3.5,1.5c3.2,2.7,7.2,4,11,5.2
				c2.5,4.8,3,9.7-0.3,14.3c-2.5,3.5-6.3,4.3-10.3,4.5c-6,0.3-11.5-1.8-16.8-4.2c-5.5-2.3-10.8-5.3-16.3-7.5
				c-8.5-3.3-17.2-4.7-26.2-2.2c-3.2,0.8-5.8,2.3-7.7,5c-1.3,1.8-1.7,3.7-0.2,5.5c-0.3,1.3-1.8,1.7-2.3,2.8c-2.8-1-4.3-4.2-3-7
				C353.7,123.8,355.1,122.5,355.9,120.9z"/>
			<path class="st11" d="M84.2,109.4c0.8,0,1.3,0.5,1.5,1.2c0.3,1.7,1.7,2.3,2.8,3.2c3.5,1.8,7.2,3.2,11.2,3.8
				c5.3,1,10.8,1.7,16.3,2c5.8,0.5,11.5,0.2,17.3,0c6.7-0.3,13.3-0.3,20-0.8c5.2-0.3,10.2-1.7,15-3.7c1.7-0.7,3.3-0.7,5-0.8
				c3-0.5,5.7-2.2,8.8-2.5c2-0.2,4-0.2,6,0.8c2.8,1.3,5.3,0.8,7.8-1.2c1.5-1.2,3.3-0.5,5,0c1.5,0.3,2.8,1.2,4.3,1.8
				c1,0.3,0.5,1.3,1,1.8c-4.2,1.2-8.5,1.5-12.7,2.2c-14.2,2.2-28.5,3.7-42.7,4.8c-10,0.8-20,1.3-30,1.2c-7.7,0-15.2-0.3-22.8-1.3
				c-3.8-0.5-7.5-0.8-11.2-2.2c-1.8-0.7-2.7-1.8-2.8-3.7C84,113.9,83.8,111.8,84.2,109.4z"/>
			<path class="st6" d="M167.5,125.5c4-0.5,7.8-0.8,11.7-1.3c2.7-0.3,5.3-0.7,7.8-0.8c3.3-0.2,6.3,0.8,9.5,1.5
				c13.7,3,27,7.5,40.3,11.8c2.8,1,5.5,2,8.3,3.2c-2.3,1.8-4.7,3.5-7.3,4.7c-0.5,0.2-0.8,0.2-1.2,0c-9-4.2-18.3-6.7-27.7-9.7
				c-12.8-4.2-26.2-6.7-39.5-8.7c-0.5,0-1-0.2-1.5-0.3C167.8,126,167.8,125.8,167.5,125.5z"/>
			<path class="st3" d="M216.4,119.1c4.2-0.7,8.2-1.5,12.3-2.2c7.8-1.3,15.7-3.2,23.5-5c0.3-0.2,0.7-0.5,1.2,0
				c2.3,2.5,5.2,4.3,8.2,6.2c-3.2,3.7-5.7,7.7-8.3,11.7c-0.7,0.8-1,1-2.2,0.7c-11.2-4-22.3-8-33.8-10.7c-0.3,0-0.5-0.2-0.8-0.2
				C216.4,119.4,216.4,119.3,216.4,119.1z"/>
			<path class="st6" d="M289.4,210.1c0-1,0.8-1.3,1.7-1.3c3.5-0.5,7-0.5,10.5-0.2c3.8,0.3,7.7,1,11.5,1.3c9.7,0.7,19.2,1.7,28.8,0.2
				c5.2-0.8,9.8-3.2,14.8-4.7c1.3-0.3,2.3-0.5,3.3,0.3c-1,5.5-3.8,8.3-9.8,9.7c-5.8,1.3-11.8,1.5-17.7,1.3
				C317.9,216.1,303.6,213.6,289.4,210.1z"/>
			<path class="st7" d="M332.4,59.8c1.2,1.3,2.8,2.2,3.7,3.8c0.5,1.2,0.3,1.5-0.5,2.2c-2.7,1.8-5.5,3.5-8.3,4.8
				c-6.5,3.2-13,6.2-19.8,8.5c-6.5,2.2-13,4-19.8,4.7h-0.2c-0.8,0-2.2,0.3-2.5-0.7c-0.3-1,1.2-0.8,1.8-1.3c2.3-1.5,5.2-2,7.3-3.7
				c1.3-1,2.5-1.8,3-3.5c8.5-3.2,16.8-6.7,25.3-10.3C325.9,63.1,329.1,61.1,332.4,59.8z"/>
			<path class="st6" d="M208.9,183.5c0.2-0.7-0.8-1-0.3-1.7c0.7-0.5,1.2,0.2,1.8,0.3c7.7,2.7,15.3,5.3,23.2,7.8
				c6.7,2.2,13.2,4.5,19.8,6.5c3.7,1.2,7.3,2.2,11,3c6.3,1.5,12.8,2.7,19.2,4.7c0.2,0,0.5,0.2,0.7,0.2c0.8,0.2,2,0,2.2,1.2
				c0.2,1.2-0.2,2.3-1.5,2.8c-0.2,0-0.3,0.2-0.3,0.3c-7.8-1.7-15.7-4-23.3-6.3c-17-5.2-33.7-11.3-50.2-18.2
				C210.2,184.1,209.5,183.8,208.9,183.5z"/>
			<path class="st6" d="M322.4,173c2.5,1.5,4.8,2.8,6.8,4.5c6,4.3,12.2,8.5,17,14.3c0.8,1.2,1.7,2.3,2.2,3.7
				c0.8,2.2,0.7,3.2-1.3,4.5c-0.5,0.3-1.2,0.7-1.8,1c-2,0.8-2,0.8-2.8-1.2c-1.3-3-3.3-5.3-5.7-7.3c-4.3-3.7-8.8-7.2-13.5-10.2
				c-1-0.7-1.3-1.3-1.2-2.5C322.1,177.6,322.2,175.5,322.4,173z"/>
			<path class="st3" d="M194.5,122.3c3-0.8,5.5-1.3,8-0.8c2.3,0.5,4.8,1.2,7.2,1.8c12.7,3.3,25.2,7.3,37.3,11.8
				c0.7,0.2,1.3,0.5,2,0.8c-1.5,2.2-1.5,2.2-4,1.3c-13.5-5-27.2-9.5-41.2-13C200.9,123.6,197.9,123,194.5,122.3z"/>
			<path class="st4" d="M333.2,201.6c-1.5-0.2-2.7-0.8-3.5-2.2c-1.5-2.5-3.8-4.3-5.2-7c-1-2-1.7-4.2-2.2-6.3c0-0.3-0.3-0.8,0-1.2
				c0.5-0.3,0.8,0.2,1.2,0.3c4.7,2.8,8.8,6.3,12.7,10c1.3,1.3,2.5,2.7,3.2,4.3c0.5,1.2,0.2,1.8-1,1.8
				C336.9,201.8,335.1,201.6,333.2,201.6z"/>
			<path class="st6" d="M132.8,127.6c0.7,1,0.7,2-0.2,3.2c-0.5,0.7-0.7,1.3,0,2.3c-2.3-0.5-4.3-0.5-6.2-1.2c-1-0.3-2.2-0.2-3.3-0.3
				c-0.5,0-1-0.2-1.5-0.5c-1-0.7-1.7-1.5-0.3-2.5c0.3-0.2,0.5-0.5,0.5-0.8c0.2,0,0.5,0,0.7,0c0.3,0.7,0.8,0.8,1.2,0c0.3,0,0.7,0,1,0
				c0.2,0.3,0.3,0.3,0.7,0C128,127.6,130.5,127.5,132.8,127.6z"/>
			<path class="st3" d="M300.9,98.4c6.3-2.2,12.5-4.2,18.3-6.8C314.7,98.1,308.4,99.6,300.9,98.4z"/>
			<path class="st4" d="M263,110.1c0.5,0.3,1.3,0.5,1.7,0.8c0.5,0.7,2.2,0.8,1.3,2.2c-1.3,1.8-2,2-3.5,0.8c-0.5-0.3-0.8-0.5-1.3-1
				c-0.7-0.5-1.7-0.8-1.5-2C259.7,110.6,262.4,109.9,263,110.1z"/>
			<path class="st12" d="M355.9,132.3c0.5-1.2,1.8-1.7,2.3-2.8c1.5,1,3,2.2,4.5,3.2C360.2,134.5,358.7,134.5,355.9,132.3z"/>
			<path class="st3" d="M274.7,106.4c-0.7,1.3-2.2,1.7-3.2,2.7c-1.3,1.2-2.5,2-4,0.2c-0.2-0.3-0.8-0.3-1.5-0.8
				C269,107.8,271.9,107.1,274.7,106.4L274.7,106.4z"/>
			<path class="st3" d="M255.4,273.5c1-0.3,1.8-0.5,2.5,0.5C257,273.8,256.2,273.7,255.4,273.5z"/>
			<path class="st3" d="M124,127.8c-0.3,0.8-0.7,0.8-1.2,0C123.2,128,123.5,127.8,124,127.8z"/>
			<path class="st3" d="M274.7,106.4l0.2-0.2v0.2H274.7L274.7,106.4z"/>
			<path class="st10" d="M93,175L93,175c0.2-0.2,0.2-0.2,0.3,0C93.2,175,93,175,93,175L93,175z"/>
			<path class="st3" d="M125.5,127.8c-0.2,0.3-0.5,0.3-0.7,0C125.2,127.8,125.3,127.8,125.5,127.8z"/>
			<path class="st3" d="M135.2,372.4c-0.2-0.2-0.3-0.3-0.3-0.5C135,371.9,135,372.2,135.2,372.4z"/>
			<path class="st4" d="M440.1,6.9c1.7,2.2,1.2,5.2-1.5,7.2c-3.8,3-8.5,4.2-13.2,4.5c-8,0.7-15.7,2.2-23.2,5
				c-0.5,0.2-1.3,0.8-1.8,0.3c-0.5-0.7,0.3-1.2,0.7-1.7c0.3-0.7,0.7-1.3,1.3-1.8c0.5,0.5,1,0.5,1.5,0c1.3-0.8,2.7-1.5,4-2.3
				c4-2.2,8-4.3,12.5-5.3c4.5-0.8,9-1,13.5-1.2C438.3,11.6,439.3,10.9,440.1,6.9z"/>
			<path class="st12" d="M440.1,6.9c-0.7,3.8-1.8,4.7-6.3,4.8c-4.5,0.2-9,0.3-13.5,1.2c-4.5,0.8-8.5,3-12.5,5.3
				c-1.3,0.7-2.7,1.5-4,2.3c-0.7,0.3-1,0.3-1.5,0c2.2-3.8,5.5-6.7,8.8-9.2c4.2-3.2,8.8-5.5,13.8-6.8c4-1,8.2-1.3,12.2,0.3
				C438.3,5.2,439.3,5.9,440.1,6.9z M414.3,12.1c2.8-1,6-1,8.8-1.8c3.5-1,7-1.3,10.7-1.8c0.5-0.2,1.3-0.2,1.3-0.8
				c0.2-0.8-0.3-1.2-1-1.5c-0.3-0.2-0.8-0.3-1.3-0.5C425.4,4.1,419.6,7.4,414.3,12.1z"/>
			<path class="st12" d="M469.6,104.6c-0.5,0-1-0.2-1.3-0.2c0.8-1.5,0.3-2.5-1-3.3c-0.7-0.5-1.2-1.3-1.8-2c-2.7-2.8-5.3-6-9.2-7.3
				c-1.3-0.5-1.5-1-1.2-2.2c6.2-0.5,12.2-0.3,17.5,3.8c2.3,1.8,3.5,5,2.7,7.8c-0.5,1.8-2,2.8-4,3c-0.2-0.5-0.3-1.2-1-1
				C469.6,103.4,469.8,104.1,469.6,104.6z M459.6,91.4c3.7,2.7,7,5.3,10.7,7.5c0.8,0.5,2,0.8,3-0.2c1-1.2,0.5-2.2-0.3-3.2
				c-3.2-3.7-7.3-4.5-12-4.7C460.6,91.1,460.3,91.3,459.6,91.4z"/>
			<path class="st4" d="M455.1,89.6c-0.3,1.2-0.2,1.7,1.2,2.2c3.8,1.3,6.5,4.3,9.2,7.3c0.7,0.7,1,1.5,1.8,2c1.3,0.8,1.8,1.8,1,3.3
				c-3-0.7-5.2-2.7-7.3-4.3c-2-1.7-3.8-3.7-5.8-5.3c-1.7-1.3-3.5-2.5-5.5-3.8C451.4,89.9,453.3,89.6,455.1,89.6z"/>
			<path class="st4" d="M469.6,104.6c0.2-0.3,0-1.2,0.5-1.2c0.7,0,0.8,0.5,1,1C470.6,104.8,470.1,104.6,469.6,104.6z"/>
			<path class="st4" d="M371.1,28.3c2,0.7,2.7,2.2,2,4c-0.8,2.5-2.7,4-4.8,5c-2.8,1.5-5.3,3.7-8.3,4.8c0.2-0.7,0.3-1.5,0.8-2
				c2-2.2,3.8-4.3,6.2-6.2C368.9,32.8,370.7,31.1,371.1,28.3z"/>
			<path class="st8" d="M371.1,28.3c-0.2,2.7-2,4.3-4,5.8c-2.3,1.7-4.2,4-6.2,6.2c-0.5,0.7-0.7,1.3-0.8,2c-0.7-0.2-0.7-0.7-0.5-1.2
				c0.8-4.7,2.8-8.7,6.8-11.7C367.6,28.4,369.2,27.9,371.1,28.3z"/>
			<path class="st4" d="M388.4,145.6c1.2,1.7,1.2,3.5,0,4.7c-1.5,1.5-3.3,1.7-5,0.3c-1-0.7-1.7-1.7-2.2-2.8c-1-2.2-2.3-4-3.8-6
				c-0.3-0.3-0.7-0.8-0.5-1.2c0.3-0.5,0.8-0.3,1.3-0.2c2,0.3,4,0.5,6,1.3c-0.5,1-1.2,0.5-1.8,0.2c-0.8-0.3-1.5-0.5-2.5-0.3
				c1.3,2,3.3,2.8,4.8,4.3C386.7,147.8,386.9,147.8,388.4,145.6C388.2,145.6,388.4,145.6,388.4,145.6z"/>
			<path class="st8" d="M388.4,145.6C388.4,145.6,388.2,145.6,388.4,145.6c-1.5,2.2-1.7,2.2-3.7,0.3c-1.5-1.3-3.5-2.3-4.8-4.3
				c1-0.2,1.8,0,2.5,0.3c0.7,0.3,1.3,0.7,1.8-0.2C386.2,142.5,387.7,143.6,388.4,145.6z"/>
			<path class="st13" d="M60.3,306.2c1.7-3.2,2.3-6.7,3.3-10c1.8-5.7,3.7-11.5,5.3-17.3c1.3-4.5,2.7-9,4.2-13.5
				c1.7-5.3,3.3-10.7,4.8-16c1.3-4.3,2.7-8.8,4-13.2c1.8-6.3,3.8-12.5,6-18.8c1.8-5.7,3.8-11.2,5.3-16.8c0.3-1.2,0.7-2.3,1-3.5
				c0.2-0.8,0.7-1.3,1.5-0.3c6.5,7.8,14.3,14.5,22.2,21c1.3,1.2,3,2.2,4,3.7c-0.2,0.7,0.5,1.2,0.8,1.7c0.8,1.2,1.3,2.3,2,3.5
				c1.2,2,3.5,2.8,5.8,3.3c2,0.5,3.8,1,5,2.7c0.7,1,1.2,1.8-0.5,2.5c-1.3,0.5-1.3,2-0.2,2.8c3.2,2,6,4.3,10,4.8
				c3.3,0.3,6.5,1.2,10,1.2c2.5,0,4.5,1.5,6.2,3.3c0.8,0.8,0.7,1.7-0.2,2.3c-1.8,1.3-2.7,2.7-2.3,5.2c0.3,2.2-1,2.5-3,2.3
				c-2.5-0.2-5.2-1.2-7.7,0.3c-0.5,0.3-0.8,0.7-1.5,0.5c-1.2-0.3-1.8,0-2,1.3c-0.3,1.5-1.7,1.3-2.7,1.3c-1.5,0-2.8,0.8-4.3,1
				c-0.2,0-0.3,0.2-0.3,0.2c-0.5,1.7-2.3,1.8-3.5,2.7c-0.7,0.5-1.3,0.8-1.3,1.7c0,0.5-0.3,1-1,0.8c-1.5-0.5-1.5,0.5-1.3,1.3
				c0.2,1,0,1.7-0.8,2.3c-0.2,0.2-0.5,0.5-0.3,0.5c0.7,1.2-0.3,2.2-0.3,3.2c0,1.3-0.5,2-1.5,2.8c-1.2,1-1.2,2.7-1.8,4
				c-1.7,2.8-2.7,5.8-4,8.8c0,0.2,0,0.3-0.2,0.3c-1.8,0.5-2.7,2.8-4.8,2.7c-1.8-0.2-3,0.7-4.2,2.2c-1.8,2.2-3.7,4.5-5.2,6.8
				c-0.8,1.5-1,2.7,0,4c1.2,1.7,2.2,3.5,3.7,4.8c0.3,0.3,0.7,0.8,0.7,1.3c0.5,2.3,1.8,4.3,2.5,6.5c0.7,2,2,3.7,2.5,5.7
				c0,0.2,0.2,0.5,0.3,0.7c2.5,1.8,1.7,4,0.8,6.2c-0.7,2.3-1,2.5-3.2,1.3c-0.3-0.2-0.5-0.3-0.8-0.3c-0.5,0-1.2-0.5-1.5,0
				c-0.3,0.8,0.7,0.8,1.2,1c0.5,0.2,0.8,0.3,1,0.8c0.2,0.7,0.5,0.8,1.2,0.7c0.5-0.2,1-0.3,1.2,0.3c0.2,0.3,0.2,0.8-0.2,1.2
				c-0.3,0.5-0.8,0.3-1.3,0.3c-0.7,0-1-1.2-1.8-0.8c-0.2,0.7,0.5,0.8,0.5,1.2c0.3,1.2,0.5,2.2-1.2,2.2c-0.8,0-1.3,0.3-2,1
				c-0.8,0.8-2.2,0.5-3.2,0.3c-1.2-0.2-2-0.7-1.7-2.2c0-0.3,0-0.7-0.3-0.7c-1.2-0.2-1.2-0.8-1-1.8c0.2-0.8-0.3-1-1-0.8
				c-1,0.2-1.7,0-2.3-1.2c-0.7-1.3-2-0.5-2.5,0c-1.3,1-3,0.7-4.2,1.8c0,0-0.3,0.2-0.3,0c-2.3-1.7-6-1.5-7.2-5
				c-0.3-1-1.3-1.7-2.2-2.3c-0.8-0.7-1.3-1.3-1.2-2.3c0.2-0.8-0.2-1.2-1-1.3c-2.2-0.5-4.2-1.5-6.2-2.7c-1-0.5-1.8-1.8-1-3.3
				c0.2-0.3,0.3-0.7,0-1.2s-0.5-1,0-1.7c0.5-0.5,0.5-1,0-1.5c-0.5-0.5-0.2-1,0.2-1.7c0.2-0.3,0.8-0.7,0.2-1.2
				c-0.3-0.2-1-0.3-1.3,0.2c-1.3,1.8-2.5,1.3-3.7,0c-0.2-0.3-0.7-0.3-1.2-0.3c-0.5-0.2-1.2-0.2-1.2-0.5c-0.2-2-2-3-2.5-4.7
				c-0.5-1.8-1.7-2.2-3.2-1C61.8,305.8,61.3,306.5,60.3,306.2z M107.7,331.8c0.8,0,1.7-0.2,2-0.8c0.3-0.8-0.5-0.8-1-1.2
				c-0.7-0.3-0.8-1-1.3-1.7c-1.7-2.8-3.5-5.3-7.7-3.7c-0.3,0.2-1-0.2-1.2,0.5c-0.2,0.7,0.2,0.8,0.7,1.2c1.3,0.7,1.7,1.7,1,3
				c-0.5,0.8,0.2,0.8,0.7,0.7c0.8-0.2,2-1.5,2.7-0.5c0.3,0.7-1,1.5-1.7,2.2c-0.3,0.3-0.7,0.7-0.2,1.2c0.7,0.5,3.2,0.5,3.7-0.2
				C106,331.7,106.5,330.8,107.7,331.8z"/>
			<path class="st5" d="M146.7,286.3c-0.3,0.5-0.7,0.8-1.3,1C145.5,286.5,146,286.2,146.7,286.3z"/>
			<path class="st5" d="M148.7,285c-0.3,0.2-0.5,0.3-0.8,0.5C148,285,148.2,284.7,148.7,285z"/>
			<path class="st13" d="M118.3,333.5c0,0.2-0.2,0.2-0.2,0.3c0,0-0.2-0.2-0.3-0.2c0-0.2,0.2-0.2,0.2-0.3
				C118.2,333.2,118.3,333.3,118.3,333.5z"/>
			<path class="st5" d="M152.7,283c-0.3,0.2-0.7,0.3-0.8,0.5C151.8,283,152.2,282.8,152.7,283z"/>
			<path class="st5" d="M149.3,284.5c-0.2,0.2-0.5,0.3-0.7,0.3C148.8,284.5,149,284.5,149.3,284.5z"/>
			<path class="st12" d="M297.1,191.6c-4.2-1.5-8.2-3.5-11.5-6.5c-1.3-1.2-2-2.8-2-4.5c0-0.3,0.2-0.8-0.3-0.8
				c-0.5-0.2-0.7,0.3-0.8,0.7c-0.2,0.5,0,1.5-0.8,1.2c-1-0.3-0.7-1.2-0.5-1.8c0.3-1,0.8-1.7,1.7-2.3c2.7-2,5.5-3.8,7.8-6.3
				c1.5-1.5,2.7-3.3,3.7-5.2c3.7-8.2,9.2-14.7,15.5-20.7c1.7-1.5,2.7-3.5,4.8-4.5c0.7-0.3,1.2-0.5,1.8-0.2c1.2,0.7,2.2,0.3,2.8-0.8
				c0.7-1,1.5-2.3,2.5-1.5c1.2,0.8-0.2,2-0.8,2.8c-4.8,5.5-9.2,11.3-12.5,17.8c-1.8,3.5-2.8,7.3-4,11.2c-1.7,5.2-0.7,10,0.8,14.8
				c0.8,3-1.8,6-4.7,6.5C299.6,191.8,298.2,191.6,297.1,191.6z"/>
			<path class="st12" d="M278.4,150.6c-2,2-3.8,4-6.5,5C273.9,153.8,275.7,151.8,278.4,150.6z"/>
			<path class="st0" d="M121.3,58.6c-0.5-0.2-1.2-0.2-1.8-0.5c-2-0.7-2.3-2-0.7-3.3c2.7-2.2,5.8-3.5,9-4.5
				c9.8-3.3,19.8-6.2,29.8-8.8c23.8-6.3,48-11,72.4-15c12.2-2,24.3-4,36.5-5c6.2-0.5,12.3-1,18.5-0.8c1.2,0,2.2,0.2,3.3,0.5
				c2.5,1,2.8,2.8,0.7,4.5c-2.3,1.8-5.2,3-7.8,4c-15.8,6-32.2,10-48.7,13.8c-19,4.3-38.2,8-57.5,10.7c-14.8,2-29.5,4-44.5,4.5
				C127.7,58.9,124.5,58.9,121.3,58.6z M123.8,55.3c0,0.2,0,0.3,0.2,0.5c2.8,0,5.5,0.2,8.3,0c6.3-0.2,12.7-1.2,19-1.8
				c17.2-1.5,34.3-4,51.3-7.2c12.2-2.3,24.5-5,36.5-7.7c12.5-2.8,25-6.3,37.2-10.5c3.3-1.2,6.7-2.5,10-4.3c-2-0.7-3.8-0.5-5.5-0.5
				c-9.3,0.3-18.7,1.3-28,2.7c-7.3,1-14.8,2.2-22.2,3.3c-15.5,2.3-31,5.2-46.3,8.7c-7.8,1.7-15.5,3.7-23.2,5.7
				c-10.2,2.7-20.3,5.2-30.3,8.5C128.5,53.1,126.2,54.3,123.8,55.3z"/>
			<path class="st8" d="M414.3,12.1c5.3-4.7,11.2-8,18.7-6.5c0.5,0.2,0.8,0.3,1.3,0.5c0.5,0.3,1.2,0.8,1,1.5
				c-0.2,0.7-0.8,0.8-1.3,0.8c-3.5,0.5-7.2,0.8-10.7,1.8C420.3,11.1,417.3,11.1,414.3,12.1z"/>
			<path class="st8" d="M459.6,91.4c0.7-0.2,1-0.5,1.2-0.5c4.5,0.2,8.8,1.2,12,4.7c0.8,1,1.3,2,0.3,3.2c-0.8,1-2,0.7-3,0.2
				C466.6,96.9,463.3,94.3,459.6,91.4z"/>
			<path class="st2" d="M107.7,331.8c-1-1-1.7-0.2-2.2,0.7c-0.5,0.7-3,0.7-3.7,0.2c-0.5-0.5-0.2-0.8,0.2-1.2
				c0.8-0.7,2.2-1.5,1.7-2.2c-0.7-1-1.7,0.3-2.7,0.5c-0.7,0.2-1.2,0.2-0.7-0.7c0.7-1.3,0.2-2.3-1-3c-0.3-0.2-0.8-0.5-0.7-1.2
				c0.2-0.7,0.8-0.3,1.2-0.5c4.2-1.7,6,0.8,7.7,3.7c0.3,0.7,0.7,1.3,1.3,1.7c0.5,0.3,1.3,0.3,1,1.2
				C109.3,331.7,108.5,331.8,107.7,331.8z"/>
			<path class="st1" d="M123.8,55.3c2.3-1,4.5-2.2,7-2.8c10-3.3,20.2-5.8,30.3-8.5c7.7-2,15.3-4,23.2-5.7
				c15.3-3.3,30.8-6.2,46.3-8.7c7.3-1.2,14.7-2.3,22.2-3.3c9.3-1.3,18.7-2.3,28-2.7c1.7,0,3.7-0.2,5.5,0.5c-3.2,2-6.5,3.3-10,4.3
				c-12.2,4.2-24.7,7.7-37.2,10.5c-12.2,2.8-24.3,5.3-36.5,7.7c-17,3.2-34,5.7-51.3,7.2c-6.3,0.5-12.5,1.7-19,1.8
				c-2.8,0-5.5,0-8.3,0C124,55.6,124,55.4,123.8,55.3z"/>
		</g>
	</g>
	<path class="st2" d="M164.2,270.2c0,0-35.7,9.3-37.5,30.2s7.7,47.8,12.8,49.3s48-6.7,57-14.8c9-8,17.8-33.8,17.8-33.8l-2.7-10.5"/>
	<path class="st0" d="M204.5,290.7c0.8-0.7,1.8-1.7,2.5-3c-2.3-3-5-5.5-8.2-7.7c-12.3-8-26-9.3-40.2-7.5c-7,0.8-13.7,2.5-20,5.8
		c-0.5,0.2-0.8,0.5-1.3,0.7c-1.2,0.5-2.2,1-3.3,1.7c-0.3,0.2-0.7,0.3-1,0.5h-0.2h0.2c-0.3,0.3-0.8,0.5-1.2,0.8
		c-0.5,0.3-1,0.8-1.7,1.2c-0.5,0.7-1,1.2-1.8,1.3c-2,1-3.2,2.8-4.8,4.3c-5.2,4.7-8.7,10.3-10.5,17c-1.5,5-1.5,10,0.7,15
		c1,2.3,2.7,3,4.3,1.8c2.2-1.5,4.7-2.2,7.2-2.7c5.3-1.3,10.7-2.3,15.8-4.3c7.7-2.8,14.3-7.3,20.8-12.3c7.2-5.5,15.3-8.5,24.5-9
		c4.5-0.3,9.2-0.5,13.7-1.2c1.2-0.2,2.2-0.5,2.8-1.3C203.7,291.2,204.2,290.7,204.5,290.7z M202.2,288.8c-0.3,1.5-2,1.5-3.2,1.5
		c-4.2,0.3-8.2,0.7-12.3,0.8c-9.8,0.3-18.3,4.2-26,9.8c-7.8,5.7-15.8,11-25.3,13.5c-5.5,1.5-11.2,2.5-16.5,4.7
		c-1.3,0.5-1.5-0.3-1.8-1.2c-1.8-4.2-1-8.3,0.5-12.3c4.8-13.2,14.8-21.2,27.7-25.8c10.7-4,21.5-5.3,33.3-3.5
		c7.7,1.3,15.7,3.7,22,9.5C201.5,286.7,202.7,287.5,202.2,288.8z"/>
	<path class="st0" d="M150,347.5c-9.5-1.5-16.5-3.7-22.5-8.2c-1.3-1-2.8-2.2-4-3.5c-3.8-4.2-3.7-6.7,0.5-10.7c2-1.8,4.5-3,7.2-3.3
		c3.3-0.5,6.7-1.2,9.8-1.2c10.7-0.2,20.2-3.5,28.7-10.2c2.2-1.7,4.5-3.3,6.8-5c8.2-6,17.5-8.3,27.3-8.7c1.3,0,2.8,0,4.2-0.3
		c2.2-0.5,3.3,0.5,4,2.3c2.2,5.7,1.3,11.3-0.7,16.8c-3.3,8.8-9.7,15.3-17.3,20.5C180,345.7,164.5,349.2,150,347.5z M209.2,309.7
		c-0.3-2.5,0.5-5.2-0.3-7.8c-0.3-1.3-0.8-2.3-2.7-2c-1.7,0.2-3.3,0.3-5,0.3c-11.5,0.2-21.3,4.8-29.7,12.3c-5.3,4.7-11.3,7.7-18,9.5
		c-5.3,1.5-10.8,1.5-16.3,2c-3.7,0.3-7.5,0.7-10.7,3c-2.5,2-2.7,3.8-0.5,6c1.8,1.8,3.7,3.5,5.8,4.7c8.5,4.8,17.8,6.5,27.5,6
		c14.3-0.8,27.3-5.5,38.3-15.3C203.4,323.5,207,317.2,209.2,309.7z"/>
	<path class="st14" d="M178.5,276.3c7.7,1.3,15.7,3.7,22,9.5c1,0.8,2,1.7,1.7,3.2c-0.3,1.5-2,1.5-3.2,1.5c-4.2,0.3-8.2,0.7-12.3,0.8
		c-9.8,0.3-18.3,4.2-26,9.8c-7.8,5.7-15.8,11-25.3,13.5c-5.5,1.5-11.2,2.5-16.5,4.7c-1.3,0.5-1.5-0.3-1.8-1.2
		c-1.8-4.2-1-8.3,0.5-12.3c4.8-13.2,14.8-21.2,27.7-25.8C155.7,275.8,166.7,274.5,178.5,276.3z"/>
	<path class="st14" d="M209.2,309.7c-2,7.5-5.7,13.8-11.3,19c-10.8,9.8-24,14.5-38.3,15.3c-9.7,0.5-19-1.2-27.5-6
		c-2.2-1.2-4-3-5.8-4.7c-2.2-2.2-2-4.2,0.5-6c3.2-2.5,6.8-2.7,10.7-3c5.5-0.7,11-0.5,16.3-2c6.7-1.8,12.8-4.8,18-9.5
		c8.5-7.5,18.2-12.2,29.7-12.3c1.7,0,3.3-0.2,5-0.3c1.8-0.2,2.3,0.7,2.7,2C209.7,304.5,208.9,307.2,209.2,309.7z"/>
</g>
</svg>
