<?xml version="1.0" encoding="utf-8"?>
<!-- Generator: Adobe Illustrator 27.9.1, SVG Export Plug-In . SVG Version: 6.00 Build 0)  -->
<svg version="1.1" id="Layer_1" xmlns="http://www.w3.org/2000/svg" xmlns:xlink="http://www.w3.org/1999/xlink" x="0px" y="0px"
	 viewBox="0 0 275.7 220.7" style="enable-background:new 0 0 275.7 220.7;" xml:space="preserve">
<style type="text/css">
	.st0{fill:#121A41;}
	.st1{fill:#27366D;}
	.st2{fill:#121B41;}
</style>
<path class="st0" d="M273.8,0c-5.3,45-22.1,84.7-46.1,113.2c-14.3-27.7-49.2-47.3-89.9-47.3c-40.7,0-75.6,19.6-89.9,47.3
	C23.9,84.7,7.1,45,1.8,0C0.6,10,0,20.3,0,30.8c0,104.9,61.7,189.9,137.8,189.9s137.8-85,137.8-189.9C275.7,20.3,275,10,273.8,0z
	 M178.8,150.5c-0.6-8.1-5.5-15.4-13.1-20.6c-7.3,5-17,8.1-27.8,8.1c-10.7,0-20.4-3.1-27.8-8.1c-7.6,5.2-12.5,12.5-13.1,20.7
	c-9.2-3.9-17.9-9.1-26.2-15.4c3.9-26.1,32.4-46.4,66.9-46.4c34.6,0,63,20.3,66.9,46.4C196.6,141.5,187.9,146.6,178.8,150.5z"/>
</svg>
