<?xml version="1.0" encoding="utf-8"?>
<!-- Generator: Adobe Illustrator 27.9.1, SVG Export Plug-In . SVG Version: 6.00 Build 0)  -->
<svg version="1.1" id="Layer_1" xmlns="http://www.w3.org/2000/svg" xmlns:xlink="http://www.w3.org/1999/xlink" x="0px" y="0px"
	 viewBox="0 0 599.3 599.3" style="enable-background:new 0 0 599.3 599.3;" xml:space="preserve">
<style type="text/css">
	.st0{fill:#121A41;}
	.st1{fill:#27366D;}
	.st2{fill:#121B41;}
	.st3{font-family:'MyriadPro-Regular';}
	.st4{font-size:0.4783px;}
</style>
<g>
	<g>
		<path class="st1" d="M323.8,413.2h-46.9c-3.4,0-6.2,2.8-6.2,6.2c0,3.4,2.8,6.2,6.2,6.2h46.9c3.4,0,6.2-2.8,6.2-6.2
			C329.9,416,327.2,413.2,323.8,413.2z"/>
		<path class="st1" d="M435.6,306.4c-5.3,45-22.1,84.7-46.1,113.2c-14.3-27.7-49.2-47.3-89.9-47.3c-40.7,0-75.6,19.6-89.9,47.3
			c-24-28.5-40.8-68.2-46.1-113.2c-1.2,10-1.8,20.3-1.8,30.8c0,104.9,61.7,189.9,137.8,189.9s137.8-85,137.8-189.9
			C437.5,326.7,436.8,316.4,435.6,306.4z M340.6,456.9c-0.6-8.1-5.5-15.4-13.1-20.6c-7.3,5-17,8.1-27.8,8.1
			c-10.7,0-20.4-3.1-27.8-8.1c-7.6,5.2-12.5,12.5-13.1,20.7c-9.2-3.9-17.9-9.1-26.2-15.4c3.9-26.1,32.4-46.4,66.9-46.4
			c34.6,0,63,20.3,66.9,46.4C358.4,447.9,349.7,453,340.6,456.9z"/>
	</g>
	<path class="st1" d="M185,170.1c2,0.2,4-0.8,4.9-2.6c6-11.2,14.1-21,23.9-29c17.3-14.2,39.1-22,61.5-22c10.5,0,20.8,1.7,30.8,5
		c13.8,4.6,26.6,12.4,37,22.6c0.6,0.6,1.1,1.1,1.8,1.8c20.1,19.6,46.6,30.4,74.6,30.4c1.5,0,3-0.1,4.5-0.1c1.5-0.1,2.9-0.8,3.8-2
		c0.9-1.2,1.2-2.8,0.7-4.2l0,0c-14.5-50.8-57.6-88.7-109.7-96.7c-6.8-1-13.7-1.6-20.7-1.6c-19.1,0-37.5,3.9-54.8,11.6
		c-0.2,0.1-0.3,0.1-0.4,0.2c-0.2,0.1-0.4,0.2-0.6,0.3l-0.2,0.1c-2.2,1-4.1,1.9-5.9,2.9c-2.6,1.3-5,2.7-7.3,4
		c-0.1,0.1-0.3,0.2-0.4,0.3c-6.8,4.9-12.4,11.4-16.3,18.9c-7.3,2.4-13.9,6.5-19.3,12c-0.1,0.1-0.2,0.2-0.3,0.3
		c-2.7,3.3-4.9,6.3-6.9,9.3c-0.1,0.1-0.1,0.2-0.2,0.3c-4,7.1-6.1,15.1-6.1,23.2c0,3.9,0.5,7.7,1.4,11.5
		C181.3,168.4,182.9,169.8,185,170.1z"/>
	<path class="st1" d="M432.3,236.2c0,0-66.3,0-132.7,0s-132.7,0-132.7,0c0,5.9-0.2,11.8-0.1,17.8c0.3,33,26.6,61.2,60.1,61.2
		c30.8,0,56.1-23.2,59.6-53c1.3-6,6.7-10.6,13.1-10.6c6.4,0,11.8,4.5,13.1,10.6c3.5,29.8,28.8,53,59.6,53
		c33.5,0,59.8-28.2,60.1-61.2C432.5,248.1,432.3,242.1,432.3,236.2z"/>
</g>
<text transform="matrix(1 0 0 1 401.7151 235.8523)" class="st3 st4">89</text>
<text transform="matrix(1 0 0 1 404.3707 235.8523)" class="st3 st4">90</text>
<text transform="matrix(1 0 0 1 407.0261 235.8523)" class="st3 st4">91</text>
<text transform="matrix(1 0 0 1 409.6817 235.8523)" class="st3 st4">92</text>
<text transform="matrix(1 0 0 1 412.3373 235.8523)" class="st3 st4">93</text>
<text transform="matrix(1 0 0 1 414.993 235.8523)" class="st3 st4">94</text>
<text transform="matrix(1 0 0 1 417.6486 235.8523)" class="st3 st4">95</text>
<text transform="matrix(1 0 0 1 420.3042 235.8523)" class="st3 st4">96</text>
<text transform="matrix(1 0 0 1 422.9598 235.8523)" class="st3 st4">97</text>
<text transform="matrix(1 0 0 1 425.6154 235.8523)" class="st3 st4">98</text>
<text transform="matrix(1 0 0 1 428.271 235.8523)" class="st3 st4">99</text>
<text transform="matrix(1 0 0 1 430.804 235.8523)" class="st3 st4">100</text>
</svg>
