<?xml version="1.0" encoding="utf-8"?>
<!-- Generator: Adobe Illustrator 27.9.1, SVG Export Plug-In . SVG Version: 6.00 Build 0)  -->
<svg version="1.1" id="Layer_1" xmlns="http://www.w3.org/2000/svg" xmlns:xlink="http://www.w3.org/1999/xlink" x="0px" y="0px"
	 viewBox="0 0 26.5 26" style="enable-background:new 0 0 26.5 26;" xml:space="preserve">
<style type="text/css">
	.st0{fill:#87CCD1;}
	.st1{fill:#2F1110;}
	.st2{fill:#F7991C;}
	.st3{fill:#F5DE17;}
	.st4{fill:#101519;}
	.st5{fill:#E24E26;}
	.st6{fill:#FFFFFF;}
	.st7{fill:#47B97E;}
	.st8{fill:#FFC40D;}
	.st9{fill:#DA3226;}
	.st10{fill:#74A89A;}
	.st11{fill:#918FC6;}
	.st12{fill:#2ECEE8;}
	.st13{fill:none;stroke:#F7F5E2;stroke-miterlimit:10;}
	.st14{fill:#8062A9;}
	.st15{fill:#EF4F23;}
	.st16{fill:#F27264;}
	.st17{fill:#53C0DD;}
	.st18{fill:none;stroke:#020202;stroke-width:0.25;stroke-miterlimit:10;}
	.st19{fill:#3555A5;}
	.st20{fill:#F9F9F9;}
	.st21{fill-rule:evenodd;clip-rule:evenodd;fill:#2ECEE8;}
</style>
<g>
	<g id="vlpa_00000137101496696711123960000015390269498552861312_">
		<g id="vlpb_00000177443112676636110670000016403248357629265596_">
			<g id="vlpc_00000164499344346558228020000015976010228175117707_">
				<g id="vlpd_00000038394961396462047630000011248403998799702155_">
					<path class="st4" d="M4.7,0l17.2,0c2.7,0,4.7,2.2,4.7,4.7l0,16.7c0,2.7-2.2,4.7-4.7,4.7L4.7,26C2,26,0,23.8,0,21.3L0,4.8
						C-0.2,2.2,2,0,4.7,0z"/>
				</g>
			</g>
		</g>
		<g id="vlpe_00000148649375879092023740000003315907049447693962_">
			<g>
				<g id="vlpf_00000065794253257462720630000009075564832939797161_">
					<path class="st11" d="M10.6,15.6l-4.1,0l-0.9,2.7c0,0.2-0.2,0.2-0.2,0.2h-2c-0.2,0-0.2,0-0.2-0.2L6.8,8.1c0-0.2,0-0.2,0.2-0.4
						c0-0.4,0-0.5,0-0.9l0,0l0,0l2.9,0h0.2l4.1,11.5c0,0.2,0,0.2-0.2,0.2l-2.3,0c0,0-0.2,0-0.2-0.2L10.6,15.6L10.6,15.6z M7.2,13.4
						l2.9,0c0-0.2-0.2-0.5-0.2-0.7c-0.2-0.4-0.4-0.7-0.5-1.1c0-0.4-0.2-0.7-0.2-1.1c0-0.4-0.2-0.5-0.4-0.9c0-0.4-0.2-0.5-0.2-0.9
						l0,0c-0.2,0.5-0.4,0.9-0.5,1.4c-0.2,0.5-0.2,1.1-0.4,1.6C7.5,12.4,7.4,12.9,7.2,13.4z"/>
					<path class="st11" d="M20.8,14.7l-3.6,0c0,0.4,0.2,0.7,0.4,1.1c0.2,0.4,0.5,0.5,0.9,0.7c0.4,0.2,0.9,0.4,1.4,0.4
						c0.4,0,0.7,0,1.1-0.2c0.4,0,0.7-0.2,1.1-0.2l0,0v1.8c0,0,0,0,0,0.2l0,0c-0.4,0.2-0.7,0.2-1.1,0.4C20.4,19,19.9,19,19.4,19
						c-0.9,0-1.6-0.2-2.2-0.4c-0.5-0.2-1.1-0.5-1.4-1.1c-0.5-0.7-0.7-1.3-0.9-1.8c-0.2-0.5-0.2-1.1-0.2-1.6c0-0.5,0-1.3,0.4-1.8
						c0.2-0.5,0.5-1.1,0.9-1.6c0.2-0.4,0.7-0.7,1.3-0.9s1.1-0.4,1.8-0.4c0.5,0,1.3,0.2,1.8,0.4s0.9,0.5,1.3,0.9s0.5,0.7,0.7,1.3
						c0.2,0.4,0.2,0.9,0.2,1.4c0,0.2,0,0.5,0,0.7c0,0.2,0,0.4,0,0.5c0,0,0,0.2-0.2,0.2c0,0-0.2,0-0.4,0c-0.2,0-0.4,0-0.7,0
						C21.3,14.7,21,14.7,20.8,14.7L20.8,14.7z M17.2,13.1l2.3,0c0.4,0,0.5,0,0.7,0h0.2v-0.4c0-0.2,0-0.4,0-0.4
						c-0.2-0.5-0.7-1.1-1.4-1.1s-1.3,0.4-1.6,0.9C17.4,12.6,17.2,12.7,17.2,13.1z"/>
				</g>
			</g>
		</g>
	</g>
</g>
</svg>
