<?xml version="1.0" encoding="utf-8"?>
<!-- Generator: Adobe Illustrator 27.9.1, SVG Export Plug-In . SVG Version: 6.00 Build 0)  -->
<svg version="1.1" id="Layer_1" xmlns="http://www.w3.org/2000/svg" xmlns:xlink="http://www.w3.org/1999/xlink" x="0px" y="0px"
	 viewBox="0 0 26.5 26" style="enable-background:new 0 0 26.5 26;" xml:space="preserve">
<style type="text/css">
	.st0{fill:#87CCD1;}
	.st1{fill:#2F1110;}
	.st2{fill:#F7991C;}
	.st3{fill:#F5DE17;}
	.st4{fill:#101519;}
	.st5{fill:#E24E26;}
	.st6{fill:#FFFFFF;}
	.st7{fill:#47B97E;}
	.st8{fill:#FFC40D;}
	.st9{fill:#DA3226;}
	.st10{fill:#74A89A;}
	.st11{fill:#918FC6;}
	.st12{fill:#2ECEE8;}
	.st13{fill:none;stroke:#F7F5E2;stroke-miterlimit:10;}
	.st14{fill:#8062A9;}
	.st15{fill:#EF4F23;}
	.st16{fill:#F27264;}
	.st17{fill:#53C0DD;}
	.st18{fill:none;stroke:#020202;stroke-width:0.25;stroke-miterlimit:10;}
	.st19{fill:#3555A5;}
	.st20{fill:#F9F9F9;}
	.st21{fill-rule:evenodd;clip-rule:evenodd;fill:#2ECEE8;}
</style>
<g>
	
		<rect x="5.2" y="4.8" transform="matrix(-1.836970e-16 1 -1 -1.836970e-16 26.0292 -3.156922e-02)" class="st13" width="15.7" height="16.3"/>
	<g>
		<g>
			<g>
				<g id="vlpb_00000085942940930950712140000002549921452842418083_">
					<g id="vlpc_00000009577279060136478330000017176946338885707700_">
						<g id="vlpd_00000053516321213241983180000018238011063993610657_">
							<path class="st6" d="M4.7,0l17.2,0c2.7,0,4.7,2.2,4.7,4.7l0,16.7c0,2.7-2.2,4.7-4.7,4.7L4.7,26C2,26,0,23.8,0,21.3L0,4.8
								C-0.2,2.2,2,0,4.7,0z"/>
						</g>
					</g>
				</g>
			</g>
		</g>
	</g>
	<g>
		<path id="path0_fill_00000006672102649542403750000007182779731687251632_" class="st7" d="M11.5,20.4c1.3,0,2.4-1.1,2.4-2.4
			l0-2.4l-2.4,0c-1.3,0-2.4,1.1-2.4,2.4C9.1,19.3,10.2,20.4,11.5,20.4z"/>
		<path id="path1_fill_00000126324859965353504910000015650968777077999770_" class="st14" d="M9.1,13.1c0-1.3,1.1-2.4,2.4-2.4
			l2.4,0l0,4.9l-2.4,0C10.2,15.5,9.1,14.4,9.1,13.1z"/>
		<path id="path1_fill_00000119810281270593617810000017668754324508579221_" class="st15" d="M9.1,8.2c0-1.3,1.1-2.4,2.4-2.4l2.4,0
			l0,4.9l-2.4,0C10.2,10.7,9.1,9.6,9.1,8.2z"/>
		<path id="path2_fill_00000051381943168500925930000016706414633910165688_" class="st16" d="M14,5.8l2.4,0c1.3,0,2.4,1.1,2.4,2.4
			s-1.1,2.4-2.4,2.4l-2.4,0L14,5.8z"/>
		<path id="path3_fill_00000000207010946782555210000010307740889823150762_" class="st17" d="M18.9,13.1c0,1.3-1.1,2.4-2.4,2.4
			c-1.3,0-2.4-1.1-2.4-2.4c0-1.3,1.1-2.4,2.4-2.4C17.8,10.7,18.9,11.7,18.9,13.1z"/>
	</g>
</g>
</svg>
