<?xml version="1.0" encoding="utf-8"?>
<!-- Generator: Adobe Illustrator 27.9.1, SVG Export Plug-In . SVG Version: 6.00 Build 0)  -->
<svg version="1.1" id="Layer_1" xmlns="http://www.w3.org/2000/svg" xmlns:xlink="http://www.w3.org/1999/xlink" x="0px" y="0px"
	 viewBox="0 0 26.3 25.7" style="enable-background:new 0 0 26.3 25.7;" xml:space="preserve">
<style type="text/css">
	.st0{fill:#87CCD1;}
	.st1{fill:#2F1110;}
	.st2{fill:#F7991C;}
	.st3{fill:#F5DE17;}
	.st4{fill:#101519;}
	.st5{fill:#E24E26;}
	.st6{fill:#FFFFFF;}
	.st7{fill:#47B97E;}
	.st8{fill:#FFC40D;}
	.st9{fill:#DA3226;}
	.st10{fill:#74A89A;}
	.st11{fill:#918FC6;}
	.st12{fill:#2ECEE8;}
	.st13{fill:none;stroke:#F7F5E2;stroke-miterlimit:10;}
	.st14{fill:#8062A9;}
	.st15{fill:#EF4F23;}
	.st16{fill:#F27264;}
	.st17{fill:#53C0DD;}
	.st18{fill:none;stroke:#020202;stroke-width:0.25;stroke-miterlimit:10;}
	.st19{fill:#3555A5;}
	.st20{fill:#F9F9F9;}
	.st21{fill-rule:evenodd;clip-rule:evenodd;fill:#2ECEE8;}
</style>
<g>
	<g>
		<path class="st19" d="M4.7,0h17c2.6,0,4.7,2.1,4.7,4.7V21c0,2.6-2.1,4.7-4.7,4.7h-17C2.1,25.7,0,23.6,0,21V4.7C0,2.1,2.1,0,4.7,0z
			"/>
	</g>
	<polygon class="st20" points="6.5,5.5 20,5.5 18.8,19.5 13.2,21 7.7,19.5 	"/>
	<polygon class="st19" points="17.5,8.4 9,8.4 9.1,10.1 15.7,10.1 15.5,11.8 11.2,11.8 11.4,13.5 15.4,13.5 15.1,15.8 13.2,16.3 
		11.3,15.8 11.2,14.4 9.5,14.4 9.7,16.9 13.2,18 16.7,17 	"/>
</g>
</svg>
