<?xml version="1.0" encoding="utf-8"?>
<!-- Generator: Adobe Illustrator 27.9.1, SVG Export Plug-In . SVG Version: 6.00 Build 0)  -->
<svg version="1.1" id="Layer_1" xmlns="http://www.w3.org/2000/svg" xmlns:xlink="http://www.w3.org/1999/xlink" x="0px" y="0px"
	 viewBox="0 0 26.5 25.8" style="enable-background:new 0 0 26.5 25.8;" xml:space="preserve">
<style type="text/css">
	.st0{fill:#87CCD1;}
	.st1{fill:#2F1110;}
	.st2{fill:#F7991C;}
	.st3{fill:#F5DE17;}
	.st4{fill:#101519;}
	.st5{fill:#E24E26;}
	.st6{fill:#FFFFFF;}
	.st7{fill:#47B97E;}
	.st8{fill:#FFC40D;}
	.st9{fill:#DA3226;}
	.st10{fill:#74A89A;}
	.st11{fill:#918FC6;}
	.st12{fill:#2ECEE8;}
	.st13{fill:none;stroke:#F7F5E2;stroke-miterlimit:10;}
	.st14{fill:#8062A9;}
	.st15{fill:#EF4F23;}
	.st16{fill:#F27264;}
	.st17{fill:#53C0DD;}
	.st18{fill:none;stroke:#020202;stroke-width:0.25;stroke-miterlimit:10;}
	.st19{fill:#3555A5;}
	.st20{fill:#F9F9F9;}
	.st21{fill-rule:evenodd;clip-rule:evenodd;fill:#2ECEE8;}
</style>
<g>
	<path class="st6" d="M21.8,0H4.7C2.1,0,0,2.1,0,4.7v16.4c0,2.6,2.1,4.7,4.7,4.7h17.1c2.6,0,4.7-2.1,4.7-4.7V4.7
		C26.5,2.1,24.4,0,21.8,0z"/>
	<g>
		<g id="waves_00000031180617131969466530000005886158606724757385_">
			<path d="M22.9,20.8c-0.5,0-0.9-0.3-1.3-0.6c-0.3-0.3-0.6-0.5-1-0.5s-0.6,0.2-1,0.5c-0.3,0.3-0.7,0.6-1.3,0.6s-0.9-0.3-1.3-0.6
				c-0.3-0.3-0.6-0.5-1-0.5s-0.6,0.2-1,0.5c-0.3,0.3-0.7,0.6-1.3,0.6c-0.5,0-0.9-0.3-1.3-0.6c-0.3-0.3-0.6-0.5-1-0.5
				c-0.4,0-0.6,0.2-1,0.5c-0.3,0.3-0.7,0.6-1.3,0.6c0,0,0,0,0,0c-0.9-0.1-1.4-0.6-1.7-0.9c-0.2-0.2-0.3-0.3-0.5-0.3
				c-0.4,0.1-0.9,0.4-1.2,0.7c-0.4,0.3-0.7,0.6-1,0.6c-0.1,0-0.2-0.1-0.2-0.2s0.1-0.2,0.2-0.2c0.2,0,0.5-0.2,0.7-0.5
				c0.4-0.3,0.9-0.7,1.5-0.8c0,0,0,0,0,0c0.3,0,0.5,0.2,0.8,0.5c0.3,0.3,0.7,0.7,1.4,0.8c0.4,0,0.6-0.2,1-0.5
				c0.3-0.3,0.7-0.6,1.3-0.6s0.9,0.3,1.3,0.6c0.3,0.3,0.6,0.5,1,0.5c0.4,0,0.6-0.2,1-0.5c0.3-0.3,0.7-0.6,1.3-0.6
				c0.5,0,0.9,0.3,1.3,0.6c0.3,0.3,0.6,0.5,1,0.5s0.6-0.2,1-0.5c0.3-0.3,0.7-0.6,1.3-0.6c0.5,0,0.9,0.3,1.3,0.6
				c0.3,0.3,0.6,0.5,1,0.5c0.1,0,0.2,0.1,0.2,0.2S23,20.8,22.9,20.8z"/>
		</g>
		<g id="hull_00000076584724139482646670000010849902092368813969_">
			<path d="M17.4,20.3c-0.1,0-0.2-0.1-0.2-0.1c-0.1-0.1,0-0.3,0.1-0.3c1.5-0.7,2.8-1.5,3.8-2.2L6.6,18.5L7,19.3
				c0.1,0.1,0,0.3-0.1,0.3c-0.1,0.1-0.3,0-0.3-0.1L6,18.4c0-0.1,0-0.2,0-0.2c0-0.1,0.1-0.1,0.2-0.1l15.5-1c0.1,0,0.2,0.1,0.2,0.1
				c0,0.1,0,0.2-0.1,0.3C20.8,18.4,19.4,19.4,17.4,20.3C17.4,20.2,17.4,20.3,17.4,20.3z"/>
		</g>
		<g id="front_sail_00000038376068902436658000000001043573559212946313_">
			<path d="M20,16.7C20,16.7,19.9,16.7,20,16.7c-0.2,0-0.2-0.1-0.3-0.1c-0.6-0.2-1-0.4-1.8-0.2c-0.1,0-0.3,0-0.3-0.2
				c-1.1-3.9-2.9-6.8-5.3-8.5c-0.1-0.1-0.1-0.2-0.1-0.3c0.1-0.1,0.2-0.2,0.3-0.1c1.4,0.4,3,1.6,4.4,3.3c1.5,1.8,2.7,3.8,3.3,5.8
				c0,0.1,0,0.2-0.1,0.2C20.1,16.7,20,16.7,20,16.7z M18.5,15.8c0.4,0,0.8,0.1,1.1,0.2c-1.1-3.1-3.4-5.9-5.5-7.4
				c0.7,0.7,1.3,1.5,1.9,2.5c0.8,1.3,1.5,2.9,2,4.7C18.2,15.8,18.4,15.8,18.5,15.8z"/>
		</g>
		<g id="rear_sail_00000047021168654067685100000007015747855397639554_">
			<path d="M7.4,17.3c-0.1,0-0.1,0-0.2-0.1c-0.1-0.1-0.1-0.2,0-0.3c3.4-4.4,1.2-9.2,0-11.1c-0.1-0.1,0-0.2,0-0.3
				c0.1-0.1,0.2-0.1,0.3-0.1c1.9,0.8,3.9,2.3,5.5,4c1.9,2.1,3.2,4.5,3.5,7c0,0.1,0,0.2-0.1,0.2c-0.1,0.1-0.2,0.1-0.2,0
				c-3.2-1.3-6.1-1.1-8.7,0.5C7.5,17.3,7.5,17.3,7.4,17.3z M8.1,6.2C8.7,7.4,9.3,9,9.5,10.9c0.2,2-0.3,3.8-1.3,5.5
				c1-0.5,1.9-0.8,3-0.9c1.6-0.2,3.2,0,4.9,0.7C15.1,11.3,11,7.7,8.1,6.2z"/>
		</g>
	</g>
</g>
</svg>
