<?xml version="1.0" encoding="utf-8"?>
<!-- Generator: Adobe Illustrator 27.9.1, SVG Export Plug-In . SVG Version: 6.00 Build 0)  -->
<svg version="1.1" id="Layer_1" xmlns="http://www.w3.org/2000/svg" xmlns:xlink="http://www.w3.org/1999/xlink" x="0px" y="0px"
	 viewBox="0 0 26.5 25.8" style="enable-background:new 0 0 26.5 25.8;" xml:space="preserve">
<style type="text/css">
	.st0{fill:#87CCD1;}
	.st1{fill:#2F1110;}
	.st2{fill:#F7991C;}
	.st3{fill:#F5DE17;}
	.st4{fill:#101519;}
	.st5{fill:#E24E26;}
	.st6{fill:#FFFFFF;}
	.st7{fill:#47B97E;}
	.st8{fill:#FFC40D;}
	.st9{fill:#DA3226;}
	.st10{fill:#74A89A;}
	.st11{fill:#918FC6;}
	.st12{fill:#2ECEE8;}
	.st13{fill:none;stroke:#F7F5E2;stroke-miterlimit:10;}
	.st14{fill:#8062A9;}
	.st15{fill:#EF4F23;}
	.st16{fill:#F27264;}
	.st17{fill:#53C0DD;}
	.st18{fill:none;stroke:#020202;stroke-width:0.25;stroke-miterlimit:10;}
	.st19{fill:#3555A5;}
	.st20{fill:#F9F9F9;}
	.st21{fill-rule:evenodd;clip-rule:evenodd;fill:#2ECEE8;}
</style>
<g>
	<g id="vlpb_00000087398214953211582840000000997880376424636825_">
		<g id="vlpc_00000167354804134872184770000001018442066480720513_">
			<g id="vlpd_00000029739502266894925890000013716742889142006179_">
				<path class="st7" d="M4.7,0h17.1c2.6,0,4.7,2.1,4.7,4.7v16.4c0,2.6-2.1,4.7-4.7,4.7H4.7c-2.6,0-4.7-2.1-4.7-4.7V4.7
					C0,2.1,2.1,0,4.7,0z"/>
			</g>
		</g>
	</g>
	<g>
		<polygon class="st6" points="6.4,5.6 7.6,19.7 13.2,21.2 18.9,19.7 20.1,5.6 		"/>
		<path class="st7" d="M17.9,8.5c-0.8,0-1.7,0-2.5,0c-0.6,0-1.3,0-1.9,0c-0.1,0-0.1,0-0.2,0c-1.4,0-2.9,0-4.3,0
			c-0.1,0-0.2,0-0.2,0.2c0.1,0.5,0.1,1.1,0.2,1.6c0.1,1,0.2,2.1,0.3,3.1c0.1,0.8,0.1,1.6,0.2,2.4c0.1,0.7,0.1,1.4,0.2,2.1
			c0,0.1,0.1,0.2,0.2,0.2c1.2,0.3,2.5,0.7,3.7,1c1.2-0.3,2.4-0.7,3.6-1c0.1,0,0.2-0.1,0.2-0.2c0-0.3,0.1-0.6,0.1-0.9
			c0-0.3,0.1-0.6,0.1-0.9c-0.5,0.2-1,0.3-1.5,0.5c-0.8,0.2-1.6,0.5-2.5,0.7c-0.2,0-0.4-0.1-0.5-0.1c-0.5-0.1-1-0.3-1.4-0.4
			c-0.1,0-0.2-0.1-0.2-0.2c0-0.6-0.1-1.2-0.1-1.8c-0.1-0.8-0.1-1.6-0.2-2.4c-0.1-0.6-0.1-1.2-0.1-1.8c0,0,0,0,0,0c0.9,0,1.7,0,2.6,0
			c0.8,0,1.6,0,2.4,0c0.1,0,0.1,0,0.1,0.1c0,0.5-0.1,1.1-0.1,1.6c0,0.1,0,0.2,0.1,0.2c0.6,0,1.1,0,1.7,0c0.1,0,0.1,0,0.1-0.1
			c0-0.5,0.1-1,0.1-1.5c0.1-0.7,0.1-1.3,0.2-2C18.1,8.5,18.1,8.5,17.9,8.5z"/>
	</g>
</g>
</svg>
