<?xml version="1.0" encoding="utf-8"?>
<!-- Generator: Adobe Illustrator 27.9.1, SVG Export Plug-In . SVG Version: 6.00 Build 0)  -->
<svg version="1.1" id="Layer_1" xmlns="http://www.w3.org/2000/svg" xmlns:xlink="http://www.w3.org/1999/xlink" x="0px" y="0px"
	 viewBox="0 0 26.3 25.8" style="enable-background:new 0 0 26.3 25.8;" xml:space="preserve">
<style type="text/css">
	.st0{fill:#87CCD1;}
	.st1{fill:#2F1110;}
	.st2{fill:#F7991C;}
	.st3{fill:#F5DE17;}
	.st4{fill:#101519;}
	.st5{fill:#E24E26;}
	.st6{fill:#FFFFFF;}
	.st7{fill:#47B97E;}
	.st8{fill:#FFC40D;}
	.st9{fill:#DA3226;}
	.st10{fill:#74A89A;}
	.st11{fill:#918FC6;}
	.st12{fill:#2ECEE8;}
	.st13{fill:none;stroke:#F7F5E2;stroke-miterlimit:10;}
	.st14{fill:#8062A9;}
	.st15{fill:#EF4F23;}
	.st16{fill:#F27264;}
	.st17{fill:#53C0DD;}
	.st18{fill:none;stroke:#020202;stroke-width:0.25;stroke-miterlimit:10;}
	.st19{fill:#3555A5;}
	.st20{fill:#F9F9F9;}
	.st21{fill-rule:evenodd;clip-rule:evenodd;fill:#2ECEE8;}
</style>
<g>
	<g id="vlpb_00000009558293050905689600000016872793667438257810_">
		<g>
			<g id="vlpc_00000106114814282442711650000008667004446251697041_">
				<g id="vlpd_00000050658586955931670180000016022325054338995093_">
					<path class="st3" d="M4.6,0h17.1c2.7,0,4.6,2.1,4.6,4.6v16.5c0,2.7-2.1,4.6-4.6,4.6H4.6C2,25.8,0,23.6,0,21.1V4.8
						C-0.2,2.1,2,0,4.6,0z"/>
				</g>
			</g>
		</g>
	</g>
	<path class="st4" d="M6.9,19.3l1.7-1c0.3,0.6,0.6,1.1,1.4,1.1c0.7,0,1.1-0.3,1.1-1.3v-7.1h2.1v7.2c0,2.2-1.3,3.2-3.1,3.2
		C8.4,21.2,7.4,20.4,6.9,19.3 M14.3,19.1l1.7-1c0.5,0.7,1,1.3,2.1,1.3c0.9,0,1.4-0.4,1.4-1c0-0.7-0.6-1-1.5-1.4l-0.5-0.2
		C16,16.1,15,15.3,15,13.6c0-1.6,1.2-2.8,3.1-2.8c1.3,0,2.3,0.5,3,1.7l-1.6,1.1c-0.4-0.6-0.8-0.9-1.4-0.9c-0.6,0-1,0.4-1,0.9
		c0,0.6,0.4,0.9,1.3,1.3l0.5,0.2c1.8,0.8,2.8,1.5,2.8,3.3c0,1.9-1.5,2.9-3.5,2.9C16.2,21.2,15,20.3,14.3,19.1"/>
</g>
</svg>
