<?xml version="1.0" encoding="utf-8"?>
<!-- Generator: Adobe Illustrator 27.9.1, SVG Export Plug-In . SVG Version: 6.00 Build 0)  -->
<svg version="1.1" id="Layer_1" xmlns="http://www.w3.org/2000/svg" xmlns:xlink="http://www.w3.org/1999/xlink" x="0px" y="0px"
	 viewBox="0 0 26.5 25.8" style="enable-background:new 0 0 26.5 25.8;" xml:space="preserve">
<style type="text/css">
	.st0{fill:#87CCD1;}
	.st1{fill:#2F1110;}
	.st2{fill:#F7991C;}
	.st3{fill:#F5DE17;}
	.st4{fill:#101519;}
	.st5{fill:#E24E26;}
	.st6{fill:#FFFFFF;}
	.st7{fill:#47B97E;}
	.st8{fill:#FFC40D;}
	.st9{fill:#DA3226;}
	.st10{fill:#74A89A;}
	.st11{fill:#918FC6;}
	.st12{fill:#2ECEE8;}
	.st13{fill:none;stroke:#F7F5E2;stroke-miterlimit:10;}
	.st14{fill:#8062A9;}
	.st15{fill:#EF4F23;}
	.st16{fill:#F27264;}
	.st17{fill:#53C0DD;}
	.st18{fill:none;stroke:#020202;stroke-width:0.25;stroke-miterlimit:10;}
	.st19{fill:#3555A5;}
	.st20{fill:#F9F9F9;}
	.st21{fill-rule:evenodd;clip-rule:evenodd;fill:#2ECEE8;}
</style>
<g>
	<g id="vlpb_00000060752262741385983640000002365401677618396288_">
		<g>
			<g id="vlpc_00000075854189641455114640000007607859433551316391_">
				<g id="vlpd_00000176016828453386610330000016904140657340765313_">
					<path class="st10" d="M4.7,0h17.1c2.6,0,4.7,2.1,4.7,4.7v16.4c0,2.6-2.1,4.7-4.7,4.7H4.7c-2.6,0-4.7-2.1-4.7-4.7V4.7
						C0,2.1,2.1,0,4.7,0z"/>
				</g>
			</g>
		</g>
	</g>
	<path class="st6" d="M19.7,11.6L19.7,11.6c0.3-1,0.2-2.1-0.3-3c-0.8-1.4-2.4-2.1-3.9-1.8l0,0c-0.7-0.8-1.7-1.2-2.7-1.2
		c-1.6,0-3,1-3.5,2.5l0,0c-1,0.2-1.9,0.9-2.4,1.8c-0.8,1.4-0.6,3.1,0.4,4.3l0,0c-0.3,1-0.2,2.1,0.3,3c0.8,1.4,2.4,2.1,3.9,1.8l0,0
		c0.7,0.8,1.7,1.2,2.7,1.2c1.6,0,3-1,3.5-2.5l0,0c1-0.2,1.9-0.9,2.4-1.8C20.9,14.5,20.7,12.8,19.7,11.6z M14.9,13.7l-1.4,0.8
		L12,13.7v-1.7l1.4-0.8l1.4,0.8V13.7z M18.5,9.1L18.5,9.1c0.3,0.5,0.4,1.2,0.3,1.8l-3-1.7c0,0-0.1,0-0.1,0c-0.1,0-0.3,0-0.4,0
		l-3.4,2l0-1.4l2.8-1.6c0.3-0.2,0.6-0.3,0.9-0.3l0,0C16.8,7.6,17.9,8.1,18.5,9.1z M12.7,6.6L12.7,6.6L12.7,6.6
		c0.6,0,1.2,0.2,1.7,0.6l-3,1.7c0,0-0.1,0-0.1,0.1c-0.1,0.1-0.1,0.2-0.1,0.3v3.9L10,12.6l0-3.2C10,9,10,8.7,10.1,8.4l0,0
		C10.5,7.4,11.5,6.6,12.7,6.6z M7.6,10.4L7.6,10.4c0.3-0.5,0.8-1,1.4-1.2v3.4c0,0,0,0.1,0,0.1c0,0.1,0.1,0.2,0.2,0.3l3.4,2l-1.2,0.7
		l-2.8-1.6c-0.3-0.2-0.5-0.4-0.7-0.6l0,0C7.2,12.7,7,11.4,7.6,10.4z M8.4,16.7L8.4,16.7c-0.3-0.5-0.4-1.2-0.3-1.8l3,1.7
		c0,0,0.1,0,0.1,0c0.1,0,0.3,0,0.4,0l3.4-2l0,1.4l-2.8,1.6c-0.3,0.2-0.6,0.3-0.9,0.3l0,0C10.1,18.2,9,17.7,8.4,16.7z M14.2,19.2
		L14.2,19.2L14.2,19.2c-0.6,0-1.2-0.2-1.7-0.6l3-1.7c0,0,0.1,0,0.1-0.1c0.1-0.1,0.1-0.2,0.1-0.3v-3.9l1.2,0.7l0,3.2
		c0,0.3-0.1,0.6-0.2,0.9l0,0C16.4,18.4,15.4,19.2,14.2,19.2z M19.3,15.4L19.3,15.4c-0.3,0.5-0.8,1-1.4,1.2v-3.4c0,0,0-0.1,0-0.1
		c0-0.1-0.1-0.2-0.2-0.3l-3.4-2l1.2-0.7l2.8,1.6c0.3,0.2,0.5,0.4,0.7,0.6l0,0C19.7,13.1,19.9,14.4,19.3,15.4z"/>
</g>
</svg>
