<?xml version="1.0" encoding="utf-8"?>
<!-- Generator: Adobe Illustrator 27.9.1, SVG Export Plug-In . SVG Version: 6.00 Build 0)  -->
<svg version="1.1" id="Layer_1" xmlns="http://www.w3.org/2000/svg" xmlns:xlink="http://www.w3.org/1999/xlink" x="0px" y="0px"
	 viewBox="0 0 26.5 26" style="enable-background:new 0 0 26.5 26;" xml:space="preserve">
<style type="text/css">
	.st0{fill:#87CCD1;}
	.st1{fill:#2F1110;}
	.st2{fill:#F7991C;}
	.st3{fill:#F5DE17;}
	.st4{fill:#101519;}
	.st5{fill:#E24E26;}
	.st6{fill:#FFFFFF;}
	.st7{fill:#47B97E;}
	.st8{fill:#FFC40D;}
	.st9{fill:#DA3226;}
	.st10{fill:#74A89A;}
	.st11{fill:#918FC6;}
	.st12{fill:#2ECEE8;}
	.st13{fill:none;stroke:#F7F5E2;stroke-miterlimit:10;}
	.st14{fill:#8062A9;}
	.st15{fill:#EF4F23;}
	.st16{fill:#F27264;}
	.st17{fill:#53C0DD;}
	.st18{fill:none;stroke:#020202;stroke-width:0.25;stroke-miterlimit:10;}
	.st19{fill:#3555A5;}
	.st20{fill:#F9F9F9;}
	.st21{fill-rule:evenodd;clip-rule:evenodd;fill:#2ECEE8;}
</style>
<g>
	<g>
		<g>
			<g id="vlpb_00000013163337896141048520000016589785850031543959_">
				<g id="vlpc_00000075139870441264780100000016724507103020324271_">
					<g id="vlpd_00000176041709397804462630000008548907429506206601_">
						<path class="st6" d="M4.7,0h17.2c2.7,0,4.7,2.2,4.7,4.7v16.7c0,2.7-2.2,4.7-4.7,4.7H4.7C2,26,0,23.8,0,21.3V4.8
							C-0.2,2.2,2,0,4.7,0z"/>
					</g>
				</g>
			</g>
		</g>
	</g>
	<g>
		<path class="st2" d="M11,19.8c0.7,0.3,1.4,0.4,2.1,0.4c1,0,2-0.2,2.8-0.6c-1-0.4-2-1-2.7-1.7C12.6,18.8,11.9,19.4,11,19.8z"/>
		<path class="st8" d="M13.1,18c-1.8-1.7-2.9-4.1-2.8-6.7c0-0.1,0-0.2,0-0.3c-0.3-0.1-0.7-0.1-1-0.1c-0.5,0-1,0-1.4,0.2
			c-0.5,0.8-0.8,1.8-0.8,2.9c-0.1,2.7,1.5,5,3.9,6C11.9,19.4,12.6,18.8,13.1,18z"/>
		<path class="st2" d="M13.1,18c0.4-0.7,0.7-1.5,0.7-2.3c0.1-2.2-1.4-4.2-3.5-4.7c0,0.1,0,0.2,0,0.3C10.2,13.9,11.3,16.3,13.1,18z"
			/>
		<path class="st9" d="M13.6,4.7c-1.2,0.9-2.1,2.2-2.7,3.6c-0.3,0.8-0.5,1.7-0.6,2.6c2.1,0.5,3.6,2.5,3.5,4.7c0,0.8-0.3,1.6-0.7,2.3
			c0.8,0.7,1.7,1.3,2.7,1.7c2.1-1,3.5-3,3.6-5.4c0.1-1.6-0.5-3-1.4-4.1C17.2,8.9,13.6,4.7,13.6,4.7z"/>
	</g>
</g>
</svg>
