<?xml version="1.0" encoding="utf-8"?>
<!-- Generator: Adobe Illustrator 27.9.1, SVG Export Plug-In . SVG Version: 6.00 Build 0)  -->
<svg version="1.1" id="Layer_1" xmlns="http://www.w3.org/2000/svg" xmlns:xlink="http://www.w3.org/1999/xlink" x="0px" y="0px"
	 viewBox="0 0 26.5 26" style="enable-background:new 0 0 26.5 26;" xml:space="preserve">
<style type="text/css">
	.st0{fill:#F7F6E2;}
	.st1{fill:#87CCD1;}
	.st2{fill:#2F1110;}
	.st3{fill:#F7991C;}
	.st4{fill:#101519;}
	.st5{fill:#F5DE17;}
	.st6{fill:#3555A5;}
	.st7{fill:#E24E26;}
	.st8{fill:#FFFFFF;}
	.st9{fill:#47B97E;}
	.st10{fill:#FFC40D;}
	.st11{fill:#DA3226;}
	.st12{fill:#74A89A;}
	.st13{fill:#918FC6;}
	.st14{fill:none;stroke:#F7F5E2;stroke-miterlimit:10;}
	.st15{fill:#2ECEE8;}
	.st16{fill:#8062A9;}
	.st17{fill:#EF4F23;}
	.st18{fill:#F27264;}
	.st19{fill:#53C0DD;}
	.st20{fill:none;}
	.st21{fill:#F0F5DA;}
	.st22{fill:none;stroke:#020202;stroke-width:0.25;stroke-miterlimit:10;}
	.st23{fill:#F9F9F9;}
	.st24{fill-rule:evenodd;clip-rule:evenodd;fill:#2ECEE8;}
</style>
<g>
	<g>
		<g>
			<g id="vlpb_00000152247327495337851960000012200685373843067800_">
				<g id="vlpc_00000084529060304350946730000008643745566586497926_">
					<g id="vlpd_00000064337468251558018890000005817172883431671739_">
						<path class="st8" d="M4.7,0l17.2,0c2.7,0,4.7,2.2,4.7,4.7l0,16.7c0,2.7-2.2,4.7-4.7,4.7L4.7,26C2,26,0,23.8,0,21.3L0,4.8
							C-0.2,2.2,2,0,4.7,0z"/>
					</g>
				</g>
			</g>
		</g>
	</g>
</g>
<g>
	<path id="path0_fill_00000070841120942702334770000008862047851980633271_" class="st9" d="M11.5,20.4c1.3,0,2.4-1.1,2.4-2.4l0-2.4
		l-2.4,0c-1.3,0-2.4,1.1-2.4,2.4C9.1,19.3,10.2,20.4,11.5,20.4z"/>
	<path id="path1_fill_00000170999847273182005760000002899167005911256503_" class="st16" d="M9.1,13.1c0-1.3,1.1-2.4,2.4-2.4l2.4,0
		l0,4.9l-2.4,0C10.2,15.5,9.1,14.4,9.1,13.1z"/>
	<path id="path1_fill_00000173139546593644680030000016974196803280986259_" class="st17" d="M9.1,8.2c0-1.3,1.1-2.4,2.4-2.4l2.4,0
		l0,4.9l-2.4,0C10.2,10.7,9.1,9.6,9.1,8.2z"/>
	<path id="path2_fill_00000088134766947643482480000005916147368863861686_" class="st18" d="M14,5.8l2.4,0c1.3,0,2.4,1.1,2.4,2.4
		s-1.1,2.4-2.4,2.4l-2.4,0L14,5.8z"/>
	<path id="path3_fill_00000183214774493815502940000002396969877975118257_" class="st19" d="M18.9,13.1c0,1.3-1.1,2.4-2.4,2.4
		c-1.3,0-2.4-1.1-2.4-2.4c0-1.3,1.1-2.4,2.4-2.4C17.8,10.7,18.9,11.7,18.9,13.1z"/>
</g>
</svg>
