<?xml version="1.0" encoding="utf-8"?>
<!-- Generator: Adobe Illustrator 27.9.1, SVG Export Plug-In . SVG Version: 6.00 Build 0)  -->
<svg version="1.1" id="Layer_1" xmlns="http://www.w3.org/2000/svg" xmlns:xlink="http://www.w3.org/1999/xlink" x="0px" y="0px"
	 viewBox="0 0 26.5 25.8" style="enable-background:new 0 0 26.5 25.8;" xml:space="preserve">
<style type="text/css">
	.st0{fill:#F7F6E2;}
	.st1{fill:#87CCD1;}
	.st2{fill:#2F1110;}
	.st3{fill:#F7991C;}
	.st4{fill:#101519;}
	.st5{fill:#F5DE17;}
	.st6{fill:#3555A5;}
	.st7{fill:#E24E26;}
	.st8{fill:#FFFFFF;}
	.st9{fill:#47B97E;}
	.st10{fill:#FFC40D;}
	.st11{fill:#DA3226;}
	.st12{fill:#74A89A;}
	.st13{fill:#918FC6;}
	.st14{fill:none;stroke:#F7F5E2;stroke-miterlimit:10;}
	.st15{fill:#2ECEE8;}
	.st16{fill:#8062A9;}
	.st17{fill:#EF4F23;}
	.st18{fill:#F27264;}
	.st19{fill:#53C0DD;}
	.st20{fill:none;}
	.st21{fill:#F0F5DA;}
	.st22{fill:none;stroke:#020202;stroke-width:0.25;stroke-miterlimit:10;}
	.st23{fill:#F9F9F9;}
	.st24{fill-rule:evenodd;clip-rule:evenodd;fill:#2ECEE8;}
</style>
<g>
	<g id="vlpb_00000049909719059771209320000004413025049802585755_">
		<g>
			<g id="vlpc_00000115488529514247453010000003335419395808200883_">
				<g id="vlpd_00000106857575185368758250000014972753072658602679_">
					<path class="st4" d="M4.7,0h17.1c2.6,0,4.7,2.1,4.7,4.7v16.4c0,2.6-2.1,4.7-4.7,4.7H4.7c-2.6,0-4.7-2.1-4.7-4.7V4.7
						C0,2.1,2.1,0,4.7,0z"/>
				</g>
			</g>
		</g>
	</g>
</g>
<g>
	<path class="st15" d="M14.8,12.9c0-0.8-0.7-1.5-1.5-1.5c-0.8,0-1.5,0.7-1.5,1.5c0,0.8,0.7,1.5,1.5,1.5
		C14.1,14.4,14.8,13.7,14.8,12.9z"/>
	<path class="st24" d="M18.2,10.2c0.3-1.3,0.7-3.6-0.7-4.4c-1.4-0.8-3.3,0.7-4.2,1.6C12.3,6.5,10.4,5,9,5.8c-1.4,0.8-1,3.1-0.7,4.4
		c-1.3,0.4-3.6,1.1-3.6,2.7c0,1.6,2.3,2.4,3.6,2.8C8,17,7.6,19.3,9,20.1c1.4,0.8,3.3-0.7,4.3-1.6c1,0.9,2.8,2.4,4.2,1.6
		c1.4-0.8,1-3.1,0.7-4.4c1.3-0.4,3.5-1.2,3.5-2.8C21.7,11.3,19.5,10.5,18.2,10.2z M18,15c-0.2-0.7-0.5-1.4-0.9-2.1
		c0.3-0.7,0.6-1.4,0.8-2.1c1,0.3,3,0.9,3,2.1C21,14.1,19,14.7,18,15z M17.1,19.4c-1.1,0.6-2.6-0.8-3.3-1.5c0.5-0.5,1-1.1,1.4-1.8
		c0.8-0.1,1.6-0.2,2.3-0.3C17.7,16.8,18.2,18.9,17.1,19.4z M9.3,19.4c-1.1-0.6-0.6-2.6-0.3-3.6c0.7,0.1,1.5,0.3,2.3,0.3
		c0.5,0.6,1,1.2,1.5,1.7C12.2,18.5,10.4,20,9.3,19.4z M5.5,12.9c0-1.2,2.1-1.8,3-2.1c0.2,0.7,0.5,1.4,0.8,2.1
		C9,13.6,8.7,14.3,8.5,15C7.6,14.8,5.5,14.1,5.5,12.9z M9.3,6.4c1.1-0.6,2.7,0.9,3.4,1.5c-0.5,0.5-1,1.1-1.4,1.7
		C10.5,9.7,9.7,9.8,9,10C8.8,9,8.3,7,9.3,6.4z M15.7,10.4c0.5,0.1,1.1,0.2,1.6,0.3c-0.1,0.5-0.3,0.9-0.5,1.4
		C16.4,11.5,16.1,11,15.7,10.4z M13.3,8.4c0.3,0.4,0.7,0.7,1,1.2c-0.7,0-1.3,0-2,0C12.6,9.2,12.9,8.8,13.3,8.4z M9.8,12.1
		c-0.2-0.5-0.4-1-0.5-1.4c0.5-0.1,1-0.2,1.5-0.3C10.4,10.9,10.1,11.5,9.8,12.1z M10.8,15.4c-0.6-0.1-1.1-0.1-1.6-0.2
		c0.2-0.5,0.3-1,0.6-1.5C10.1,14.3,10.4,14.9,10.8,15.4z M13.3,17.4c-0.3-0.4-0.7-0.8-1-1.2c0.7,0,1.3,0,2,0
		C13.9,16.7,13.6,17.1,13.3,17.4z M16.7,13.7c0.2,0.5,0.4,1,0.6,1.5c-0.5,0.1-1,0.2-1.6,0.3C16.1,14.9,16.4,14.3,16.7,13.7z
		 M14.8,15.5c-1,0.1-2.1,0.1-3.1,0c-0.6-0.8-1.1-1.7-1.6-2.6c0.4-0.9,1-1.8,1.5-2.6c1-0.1,2.1-0.1,3.1,0c0.6,0.8,1.1,1.7,1.6,2.6
		C15.9,13.8,15.4,14.7,14.8,15.5z M17.1,6.4c1.1,0.6,0.6,2.7,0.4,3.6c-0.7-0.2-1.5-0.3-2.3-0.3c-0.5-0.6-1-1.2-1.4-1.7
		C14.5,7.2,16.1,5.8,17.1,6.4z"/>
</g>
</svg>
