<?xml version="1.0" encoding="utf-8"?>
<!-- Generator: Adobe Illustrator 27.9.1, SVG Export Plug-In . SVG Version: 6.00 Build 0)  -->
<svg version="1.1" id="Layer_1" xmlns="http://www.w3.org/2000/svg" xmlns:xlink="http://www.w3.org/1999/xlink" x="0px" y="0px"
	 viewBox="0 0 26.5 25.8" style="enable-background:new 0 0 26.5 25.8;" xml:space="preserve">
<style type="text/css">
	.st0{fill:#F7F6E2;}
	.st1{fill:#87CCD1;}
	.st2{fill:#2F1110;}
	.st3{fill:#F7991C;}
	.st4{fill:#101519;}
	.st5{fill:#F5DE17;}
	.st6{fill:#3555A5;}
	.st7{fill:#E24E26;}
	.st8{fill:#FFFFFF;}
	.st9{fill:#47B97E;}
	.st10{fill:#FFC40D;}
	.st11{fill:#DA3226;}
	.st12{fill:#74A89A;}
	.st13{fill:#918FC6;}
	.st14{fill:none;stroke:#F7F5E2;stroke-miterlimit:10;}
	.st15{fill:#2ECEE8;}
	.st16{fill:#8062A9;}
	.st17{fill:#EF4F23;}
	.st18{fill:#F27264;}
	.st19{fill:#53C0DD;}
	.st20{fill:none;}
	.st21{fill:#F0F5DA;}
	.st22{fill:none;stroke:#020202;stroke-width:0.25;stroke-miterlimit:10;}
	.st23{fill:#F9F9F9;}
	.st24{fill-rule:evenodd;clip-rule:evenodd;fill:#2ECEE8;}
</style>
<g>
	<g id="vlpb_00000047060034968362745960000017533456273270238890_">
		<g id="vlpc_00000098920401272586371360000005868992334762092672_">
			<g id="vlpd_00000062874708701188342600000000649601488357146503_">
				<path class="st7" d="M4.7,0h17.1c2.6,0,4.7,2.1,4.7,4.7v16.4c0,2.6-2.1,4.7-4.7,4.7H4.7c-2.6,0-4.7-2.1-4.7-4.7V4.7
					C0,2.1,2.1,0,4.7,0z"/>
			</g>
		</g>
	</g>
	<path class="st8" d="M6.3,5.5l1.3,14.1l5.6,1.6l5.7-1.6l1.3-14.1L6.3,5.5z M17.5,8.9l-0.1,0.9l0,0.4h-4.2h0h-2.4l0.2,1.8h2.3v0h4
		l0,0.5l-0.4,4.6l0,0.3l-3.5,1v0l0,0l-3.5-1l-0.2-2.7h1.7l0.1,1.4l1.9,0.5l0,0v0l1.9-0.5l0.2-2.2h-2.1h0H9.4L8.9,8.9l0-0.5h4.3h0
		h4.3L17.5,8.9z"/>
</g>
</svg>
