<svg width="23" height="37" viewBox="0 0 23 37" fill="none" xmlns="http://www.w3.org/2000/svg">
<path d="M11.5 18.5C11.5 16.9087 12.1058 15.3826 13.1842 14.2574C14.2625 13.1321 15.725 12.5 17.2501 12.5C18.7751 12.5 20.2376 13.1321 21.316 14.2574C22.3943 15.3826 23.0001 16.9087 23.0001 18.5C23.0001 20.0913 22.3943 21.6174 21.316 22.7427C20.2376 23.8679 18.7751 24.5 17.2501 24.5C15.725 24.5 14.2625 23.8679 13.1842 22.7427C12.1058 21.6174 11.5 20.0913 11.5 18.5Z" fill="#1ABCFE"/>
<path d="M0 30.5C0 28.9087 0.605808 27.3826 1.68415 26.2574C2.7625 25.1321 4.22505 24.5 5.75006 24.5H11.5001V30.5C11.5001 32.0913 10.8943 33.6174 9.81597 34.7427C8.73762 35.8679 7.27507 36.5 5.75006 36.5C4.22505 36.5 2.7625 35.8679 1.68415 34.7427C0.605808 33.6174 0 32.0913 0 30.5H0Z" fill="#0ACF83"/>
<path d="M11.5 0.5V12.5H17.2501C18.7751 12.5 20.2376 11.8679 21.316 10.7427C22.3943 9.61744 23.0001 8.09131 23.0001 6.50001C23.0001 4.90871 22.3943 3.38258 21.316 2.25736C20.2376 1.13214 18.7751 0.5 17.2501 0.5L11.5 0.5Z" fill="#FF7262"/>
<path d="M0 6.50001C0 8.09131 0.605808 9.61744 1.68415 10.7427C2.7625 11.8679 4.22505 12.5 5.75006 12.5H11.5001V0.5H5.75006C4.22505 0.5 2.7625 1.13214 1.68415 2.25736C0.605808 3.38258 0 4.90871 0 6.50001H0Z" fill="#F24E1E"/>
<path d="M0 18.5C0 20.0913 0.605808 21.6174 1.68415 22.7427C2.7625 23.8679 4.22505 24.5 5.75006 24.5H11.5001V12.5H5.75006C4.22505 12.5 2.7625 13.1321 1.68415 14.2574C0.605808 15.3826 0 16.9087 0 18.5H0Z" fill="#A259FF"/>
</svg>
