<svg width="30" height="37" viewBox="0 0 30 37" fill="none" xmlns="http://www.w3.org/2000/svg">
<path d="M9.39948 35.9353C10.9789 36.5607 12.6844 36.9255 14.4828 36.9907C16.9117 37.0754 19.2277 36.5802 21.2916 35.6421C18.8163 34.6845 16.5666 33.2903 14.6554 31.5509C13.4144 33.5053 11.5762 35.0428 9.39948 35.9353Z" fill="#F7911E"/>
<path d="M14.6487 31.5509C10.2755 27.5834 7.62098 21.8374 7.84661 15.5311C7.85325 15.3292 7.86652 15.1207 7.87979 14.9187C7.09672 14.7168 6.28047 14.5995 5.43767 14.5669C4.23652 14.5279 3.06855 14.6712 1.96694 14.9774C0.798965 16.9839 0.0955248 19.2901 0.00925412 21.7527C-0.216377 28.1176 3.70562 33.6812 9.39948 35.9288C11.5762 35.0363 13.4144 33.4988 14.6554 31.5443L14.6487 31.5509Z" fill="#FFC50F"/>
<path d="M14.6554 31.5509C15.6707 29.9548 16.2879 28.0785 16.3609 26.0655C16.5467 20.7559 12.9167 16.1956 7.88643 14.9187C7.87316 15.1207 7.85989 15.3292 7.85326 15.5311C7.62762 21.8309 10.2821 27.5769 14.6554 31.5509Z" fill="#F7911E"/>
<path d="M15.7968 0C12.9299 2.2541 10.6736 5.22482 9.29994 8.64505C8.51687 10.606 8.02579 12.7102 7.87979 14.9187C12.91 16.1956 16.54 20.7559 16.3542 26.0655C16.2812 28.085 15.6641 29.9548 14.6487 31.5509C16.5666 33.2903 18.8096 34.6845 21.2849 35.6421C26.2621 33.388 29.7859 28.528 29.9916 22.782C30.1244 19.0621 28.6644 15.7396 26.6072 12.9448C24.4305 9.98058 15.7902 0 15.7902 0H15.7968Z" fill="#DC3326"/>
</svg>
