<svg width="37" height="37" viewBox="0 0 37 37" fill="none" xmlns="http://www.w3.org/2000/svg">
<path d="M18.4904 36.9872C17.9969 36.9872 17.1124 36.9808 16.6958 36.9359C15.2858 36.7822 14.0168 36.5131 12.8183 36.1287C6.13355 33.9759 1.16645 28.1072 0.166625 21.1877C0.0192141 20.1818 0 19.8294 0 18.4968C0 17.1642 0.0192141 16.8118 0.166625 15.8059C0.589628 12.8779 1.6856 10.1614 3.43529 7.72675C6.53091 3.40208 11.5044 0.538182 16.7407 0.0640694C16.9073 0.0512555 17.0611 0.0384415 17.1573 0.0256277H17.2406C17.3432 0.0064069 17.4906 0 17.8815 0C18.4391 0 19.9453 0.0192209 20.3362 0.0640694C21.7398 0.224243 22.996 0.486926 24.1817 0.871342C30.86 3.02407 35.8271 8.89281 36.8334 15.8123C36.9808 16.8182 37 17.1706 37 18.5032C37 19.8358 36.9808 20.1882 36.8334 21.1941C36.327 24.6923 34.8209 27.9598 32.4816 30.6507C31.392 31.9065 30.0012 33.1238 28.6745 33.9887L28.5527 34.072C28.3284 34.2194 28.0849 34.3155 27.8349 34.3603C27.5401 34.6999 27.1748 34.8857 26.944 35.001C24.8739 36.0582 22.7653 36.6732 20.3042 36.9487C19.8812 36.9936 18.9967 37 18.5032 37L18.4904 36.9872Z" fill="white"/>
<path d="M17.4002 1.91572C17.3297 1.92213 17.099 1.94775 16.9003 1.96057C12.1896 2.38342 7.77366 4.92697 4.97287 8.8352C3.41544 11.0071 2.42202 13.4738 2.04388 16.0814C1.90929 16.9912 1.89648 17.2603 1.89648 18.4968C1.89648 19.7334 1.9157 20.0025 2.04388 20.9123C2.94757 27.1398 7.38272 32.3742 13.3945 34.3155C14.4712 34.6615 15.6057 34.8986 16.9003 35.0395C17.4002 35.0972 19.5793 35.0972 20.0792 35.0395C22.3096 34.7961 24.1939 34.2451 26.059 33.2904C26.3474 33.1431 26.3986 33.1046 26.3602 33.0726C26.3346 33.0534 25.1168 31.4196 23.6555 29.4527L21.0022 25.8712L17.6758 20.9507C15.8492 18.247 14.343 16.0366 14.3302 16.0366C14.3174 16.0366 14.3046 18.2213 14.2982 20.8866C14.2854 25.5573 14.2854 25.7495 14.2277 25.8584C14.1444 26.0186 14.0803 26.0826 13.9393 26.1531C13.8367 26.2044 13.747 26.2172 13.2535 26.2172H12.6895L12.5421 26.1211C12.4459 26.057 12.3754 25.9801 12.3242 25.884L12.2537 25.7367V19.2336L12.2729 12.7306L12.3754 12.6025C12.4267 12.532 12.5357 12.4487 12.6126 12.4039C12.7472 12.3398 12.7984 12.3334 13.356 12.3334C14.0162 12.3334 14.1251 12.359 14.2982 12.5448C14.3495 12.5961 16.1504 15.3062 18.3039 18.5737C20.4574 21.8413 23.4056 26.2941 24.8476 28.4852L27.4754 32.4639L27.61 32.3742C28.7893 31.6118 30.0326 30.5226 31.0197 29.3822C33.1154 26.9732 34.4742 24.0324 34.9228 20.9058C35.0574 19.9961 35.0702 19.727 35.0702 18.4904C35.0702 17.2539 35.051 16.9848 34.9228 16.075C34.0191 9.84749 29.584 4.61303 23.5722 2.67174C22.5083 2.32576 21.3803 2.08871 20.1177 1.94775C19.8036 1.91572 17.663 1.87728 17.3938 1.9029L17.4002 1.91572ZM24.1939 11.949C24.3477 12.0258 24.4759 12.1732 24.5208 12.3334C24.5464 12.4167 24.5528 14.2234 24.5464 18.2854L24.5336 24.1157L23.5081 22.5396L22.4762 20.9635V16.7285C22.4762 13.9864 22.4891 12.4487 22.5083 12.3718C22.5596 12.1924 22.6749 12.0451 22.8288 11.9618C22.9634 11.8913 23.0082 11.8849 23.5209 11.8849C24.0016 11.8849 24.085 11.8913 24.1939 11.949Z" fill="black"/>
</svg>
