<svg width="81" height="83" viewBox="0 0 81 83" fill="none" xmlns="http://www.w3.org/2000/svg">
<g clip-path="url(#clip0_57_2)">
<path d="M38.9739 5.34396L49.9985 3.20599L52.1365 14.2306L41.1119 16.3686L38.9739 5.34396Z" fill="black"/>
<path d="M16.9345 9.61801L27.9591 7.48004L30.0971 18.5046L19.0725 20.6426L16.9345 9.61801Z" fill="black"/>
<path d="M8.04787 22.7806L19.0725 20.6426L21.2104 31.6672L10.1858 33.8052L8.04787 22.7806Z" fill="black"/>
<path d="M30.0873 18.5065L41.1119 16.3686L43.2498 27.3932L32.2252 29.5311L30.0873 18.5065Z" fill="black"/>
<path d="M12.3219 44.82L23.3465 42.682L25.4845 53.7066L14.4599 55.8446L12.3219 44.82Z" fill="black"/>
<path d="M34.3613 40.5459L45.3859 38.408L47.5239 49.4326L36.4993 51.5705L34.3613 40.5459Z" fill="black"/>
<path d="M52.1365 14.2306L63.1611 12.0927L65.2991 23.1173L54.2744 25.2552L52.1365 14.2306Z" fill="black"/>
<path d="M56.4105 36.27L67.4351 34.132L69.5731 45.1567L58.5485 47.2946L56.4105 36.27Z" fill="black"/>
<path d="M43.2479 27.3834L54.2725 25.2454L56.4105 36.27L45.3859 38.408L43.2479 27.3834Z" fill="black"/>
<path d="M61.0231 1.06803L66.5305 0L68.6685 11.0246L63.1611 12.0926L61.0231 1.06803Z" fill="black"/>
<path d="M65.2972 23.1074L70.8046 22.0394L72.9425 33.064L67.4351 34.132L65.2972 23.1074Z" fill="black"/>
<path d="M21.2085 31.6574L32.2332 29.5194L34.3711 40.544L23.3465 42.682L21.2085 31.6574Z" fill="black"/>
<path d="M5.92133 11.8148L8.85889 26.9626L11.7964 42.1104L14.7321 57.2484L19.4269 81.4574L13.3825 81.4574L0.0114318 12.9609L5.92133 11.8148Z" fill="black"/>
</g>
<defs>
<clipPath id="clip0_57_2">
<rect width="67.77" height="71" fill="white" transform="matrix(-0.98171 0.19038 0.19038 0.98171 66.5305 0)"/>
</clipPath>
</defs>
</svg>
