<?xml version="1.0" encoding="utf-8"?>
<!-- Generator: Adobe Illustrator 27.9.1, SVG Export Plug-In . SVG Version: 6.00 Build 0)  -->
<svg version="1.1" id="Layer_1" xmlns="http://www.w3.org/2000/svg" xmlns:xlink="http://www.w3.org/1999/xlink" x="0px" y="0px"
	 viewBox="0 0 14.1 14.1" style="enable-background:new 0 0 14.1 14.1;" xml:space="preserve">
<style type="text/css">
	.st0{fill:#FFFFFF;}
	.st1{fill:#436AB3;}
	.st2{fill:#F4F2EF;}
	.st3{fill:#ED2224;}
	.st4{fill:#B4225B;}
	.st5{fill:#E64E89;}
	.st6{fill:#0B121E;}
	.st7{fill:none;stroke:#000000;stroke-miterlimit:10;}
	.st8{fill:url(#SVGID_1_);}
	.st9{clip-path:url(#SVGID_00000010990846189285447800000018074839903059922360_);}
	.st10{clip-path:url(#SVGID_00000129896033342517078260000013507033187296909492_);}
</style>
<g>
	<circle class="st0" cx="9.9" cy="4.2" r="0.6"/>
	<g>
		<linearGradient id="SVGID_1_" gradientUnits="userSpaceOnUse" x1="4.7089" y1="17.3145" x2="8.3756" y2="1.2311">
			<stop  offset="3.538466e-02" style="stop-color:#FDCA6D"/>
			<stop  offset="0.3144" style="stop-color:#F78F3E"/>
			<stop  offset="0.6877" style="stop-color:#CD1F89"/>
			<stop  offset="0.9954" style="stop-color:#75499D"/>
		</linearGradient>
		<path class="st8" d="M9.8,14.1H4.3C1.9,14.1,0,12.2,0,9.8V4.3C0,1.9,1.9,0,4.3,0h5.5c2.4,0,4.3,1.9,4.3,4.3v5.5
			C14.1,12.2,12.2,14.1,9.8,14.1z"/>
		<g>
			<defs>
				<path id="SVGID_00000031167631420868734130000000815501399994489763_" d="M7,14.1c-1.6,0-1.8,0-2.5,0c-0.7,0-1.3-0.1-1.8-0.4
					c-0.6-0.2-1-0.5-1.4-0.9c-0.4-0.4-0.7-0.9-0.9-1.4C0.2,10.8,0.1,10.2,0,9.5C0,8.9,0,8.7,0,7s0-1.8,0-2.5c0-0.7,0.1-1.3,0.4-1.8
					c0.2-0.6,0.5-1,0.9-1.4c0.4-0.4,0.9-0.7,1.4-0.9C3.3,0.2,3.9,0.1,4.5,0C5.2,0,5.4,0,7,0s1.8,0,2.5,0c0.7,0,1.3,0.1,1.8,0.4
					c0.6,0.2,1,0.5,1.4,0.9c0.4,0.4,0.7,0.9,0.9,1.4c0.2,0.5,0.3,1.1,0.4,1.8c0,0.7,0,0.9,0,2.5s0,1.8,0,2.5c0,0.7-0.1,1.3-0.4,1.8
					c-0.2,0.6-0.5,1-0.9,1.4c-0.4,0.4-0.9,0.7-1.4,0.9c-0.5,0.2-1.1,0.3-1.8,0.4C8.9,14.1,8.7,14.1,7,14.1z"/>
			</defs>
			<clipPath id="SVGID_00000141427761457823472950000003784008427172833967_">
				<use xlink:href="#SVGID_00000031167631420868734130000000815501399994489763_"  style="overflow:visible;"/>
			</clipPath>
			<g style="clip-path:url(#SVGID_00000141427761457823472950000003784008427172833967_);">
				<defs>
					<circle id="SVGID_00000038402004923290948970000015106684198247259574_" cx="7" cy="7" r="9.4"/>
				</defs>
				<clipPath id="SVGID_00000006699221794166508920000005383289620412045972_">
					<use xlink:href="#SVGID_00000038402004923290948970000015106684198247259574_"  style="overflow:visible;"/>
				</clipPath>
				<g style="clip-path:url(#SVGID_00000006699221794166508920000005383289620412045972_);">
					<defs>
						<rect id="SVGID_00000028321494889219181940000010414964754337132193_" x="-3.1" y="-3.1" width="20.3" height="20.3"/>
					</defs>
					<clipPath id="SVGID_00000082332255394229913700000007589127001942166178_">
						<use xlink:href="#SVGID_00000028321494889219181940000010414964754337132193_"  style="overflow:visible;"/>
					</clipPath>
				</g>
			</g>
		</g>
		<path class="st0" d="M12.3,4.9c0-0.6-0.1-0.9-0.2-1.3c-0.1-0.3-0.3-0.6-0.6-0.9c-0.3-0.3-0.6-0.5-0.9-0.6
			c-0.3-0.1-0.7-0.2-1.3-0.2c-0.6,0-0.7,0-2.2,0c-1.4,0-1.6,0-2.2,0C4.3,1.8,3.9,1.9,3.6,2C3.2,2.2,2.9,2.3,2.6,2.6
			C2.3,2.9,2.2,3.2,2,3.6C1.9,3.9,1.8,4.3,1.8,4.9c0,0.6,0,0.7,0,2.2c0,1.4,0,1.6,0,2.2c0,0.6,0.1,0.9,0.2,1.3
			c0.1,0.3,0.3,0.6,0.6,0.9c0.3,0.3,0.6,0.5,0.9,0.6c0.3,0.1,0.7,0.2,1.3,0.2c0.6,0,0.7,0,2.2,0c1.4,0,1.6,0,2.2,0
			c0.6,0,0.9-0.1,1.3-0.2c0.3-0.1,0.6-0.3,0.9-0.6c0.3-0.3,0.5-0.6,0.6-0.9c0.1-0.3,0.2-0.7,0.2-1.3c0-0.6,0-0.7,0-2.2
			S12.3,5.4,12.3,4.9z M11.4,9.2c0,0.5-0.1,0.8-0.2,1c-0.1,0.2-0.2,0.4-0.4,0.6c-0.2,0.2-0.4,0.3-0.6,0.4c-0.2,0.1-0.5,0.2-1,0.2
			c-0.6,0-0.7,0-2.1,0c-1.4,0-1.6,0-2.1,0c-0.5,0-0.8-0.1-1-0.2c-0.2-0.1-0.4-0.2-0.6-0.4c-0.2-0.2-0.3-0.4-0.4-0.6
			c-0.1-0.2-0.2-0.5-0.2-1c0-0.6,0-0.7,0-2.1c0-1.4,0-1.6,0-2.1c0-0.5,0.1-0.8,0.2-1C3,3.7,3.1,3.5,3.3,3.3C3.5,3.1,3.7,3,3.9,2.9
			c0.2-0.1,0.5-0.2,1-0.2c0.6,0,0.7,0,2.1,0s1.6,0,2.1,0c0.5,0,0.8,0.1,1,0.2c0.2,0.1,0.4,0.2,0.6,0.4c0.2,0.2,0.3,0.4,0.4,0.6
			c0.1,0.2,0.2,0.5,0.2,1c0,0.6,0,0.7,0,2.1C11.4,8.5,11.4,8.6,11.4,9.2z"/>
		<path class="st0" d="M7,4.3C5.5,4.3,4.3,5.5,4.3,7S5.5,9.8,7,9.8c1.5,0,2.7-1.2,2.7-2.7S8.6,4.3,7,4.3z M7,8.8
			C6.1,8.8,5.3,8,5.3,7S6.1,5.3,7,5.3S8.8,6.1,8.8,7S8,8.8,7,8.8z"/>
		<g>
			<defs>
				<path id="SVGID_00000145022903889145783860000005644275204188633519_" d="M7,14.1c-1.6,0-1.8,0-2.5,0c-0.7,0-1.3-0.1-1.8-0.4
					c-0.6-0.2-1-0.5-1.4-0.9c-0.4-0.4-0.7-0.9-0.9-1.4C0.2,10.8,0.1,10.2,0,9.5C0,8.9,0,8.7,0,7s0-1.8,0-2.5c0-0.7,0.1-1.3,0.4-1.8
					c0.2-0.6,0.5-1,0.9-1.4c0.4-0.4,0.9-0.7,1.4-0.9C3.3,0.2,3.9,0.1,4.5,0C5.2,0,5.4,0,7,0s1.8,0,2.5,0c0.7,0,1.3,0.1,1.8,0.4
					c0.6,0.2,1,0.5,1.4,0.9c0.4,0.4,0.7,0.9,0.9,1.4c0.2,0.5,0.3,1.1,0.4,1.8c0,0.7,0,0.9,0,2.5s0,1.8,0,2.5c0,0.7-0.1,1.3-0.4,1.8
					c-0.2,0.6-0.5,1-0.9,1.4c-0.4,0.4-0.9,0.7-1.4,0.9c-0.5,0.2-1.1,0.3-1.8,0.4C8.9,14.1,8.7,14.1,7,14.1z"/>
			</defs>
			<clipPath id="SVGID_00000123411440237761311820000014661618041667559815_">
				<use xlink:href="#SVGID_00000145022903889145783860000005644275204188633519_"  style="overflow:visible;"/>
			</clipPath>
		</g>
	</g>
	<circle class="st0" cx="9.8" cy="4.2" r="0.6"/>
</g>
</svg>
