<?xml version="1.0" encoding="utf-8"?>
<!-- Generator: Adobe Illustrator 27.9.1, SVG Export Plug-In . SVG Version: 6.00 Build 0)  -->
<svg version="1.1" id="Layer_1" xmlns="http://www.w3.org/2000/svg" xmlns:xlink="http://www.w3.org/1999/xlink" x="0px" y="0px"
	 viewBox="0 0 14 14" style="enable-background:new 0 0 14 14;" xml:space="preserve">
<style type="text/css">
	.st0{fill:#FFFFFF;}
	.st1{fill:#436AB3;}
	.st2{fill:#F4F2EF;}
	.st3{fill:#ED2224;}
	.st4{fill:#B4225B;}
	.st5{fill:#E64E89;}
	.st6{fill:#0B121E;}
	.st7{fill:none;stroke:#000000;stroke-miterlimit:10;}
	.st8{fill:url(#SVGID_1_);}
	.st9{clip-path:url(#SVGID_00000011735170634128040370000000828868390771126666_);}
	.st10{clip-path:url(#SVGID_00000032638100735657224530000002199972299259104386_);}
</style>
<g>
	<path class="st1" d="M14,4.4c0-1.2-0.4-2.2-1.2-3.1c-0.7-0.7-1.4-1.1-2.4-1.3C10.1,0,9.9,0,9.7,0C7.8,0,5.9,0,4,0
		C2.8,0.1,1.8,0.6,1,1.6C0.3,2.4,0,3.3,0,4.4c0,1.7,0,3.5,0,5.2c0,1.2,0.4,2.2,1.2,3c0.8,0.8,1.8,1.3,2.9,1.3c1,0,1.9,0,2.9,0
		c0,0,0,0,0,0c0.9,0,1.7,0,2.6,0c1.1,0,2-0.3,2.8-1c1-0.9,1.5-2,1.5-3.4C14,7.8,14,6.1,14,4.4z"/>
	<g>
		<g>
			<g>
				<g>
					<path class="st2" d="M7.5,6.1C7.5,6,7.5,6,7.5,6.1c0-0.2,0-0.4,0-0.5c0-0.1,0-0.1-0.1-0.1c-0.4,0-0.7,0-1.1,0
						c-0.1,0-0.1,0-0.1,0.1c0,0.2,0,0.5,0,0.7c0,1.3,0,2.6,0,4c0,0.1,0,0.1,0.1,0.1c0.4,0,0.7,0,1.1,0c0.1,0,0.1,0,0.1-0.1
						c0-0.8,0-1.5,0-2.3c0-0.2,0-0.4,0-0.6c0.1-0.4,0.2-0.7,0.6-0.8c0.2-0.1,0.4-0.1,0.7-0.1c0.3,0,0.5,0.2,0.5,0.5
						c0,0.2,0.1,0.4,0.1,0.6c0,0.9,0,1.8,0,2.7c0,0.1,0,0.1,0.1,0.1c0.4,0,0.8,0,1.2,0c0.1,0,0.1,0,0.1-0.1c0-1,0-2.1,0-3.1
						c0-0.2,0-0.3,0-0.5c-0.1-0.6-0.4-1-0.9-1.2C9.2,5.1,8.2,5.2,7.5,6.1C7.6,6,7.6,6,7.5,6.1z"/>
					<path class="st2" d="M3.8,7.9c0,0.6,0,1.3,0,1.9c0,0.2,0,0.3,0,0.5c0,0.1,0,0.1,0.1,0.1c0.4,0,0.8,0,1.2,0c0.1,0,0.1,0,0.1-0.1
						c0-0.2,0-0.3,0-0.5c0-1.4,0-2.8,0-4.2c0-0.1,0-0.1-0.1-0.1c-0.4,0-0.7,0-1.1,0c-0.1,0-0.1,0-0.1,0.2C3.8,6.3,3.8,7.1,3.8,7.9z"
						/>
					<path class="st2" d="M4.5,3.5c-0.1,0-0.1,0-0.1,0C4,3.6,3.8,3.8,3.8,4.1c0,0.3,0.2,0.6,0.5,0.6c0.1,0,0.2,0,0.3,0
						c0.2,0,0.4-0.1,0.5-0.3C5.2,4.2,5.2,4,5,3.8C4.9,3.6,4.7,3.5,4.5,3.5z"/>
				</g>
			</g>
		</g>
	</g>
</g>
<g>
	<g>
		<g>
			<defs>
				<path id="SVGID_00000031167631420868734130000000815501399994489763_" d="M-8.1,14.1c-1.6,0-1.8,0-2.5,0c-0.7,0-1.3-0.1-1.8-0.4
					c-0.6-0.2-1-0.5-1.4-0.9c-0.4-0.4-0.7-0.9-0.9-1.4c-0.2-0.5-0.3-1.1-0.4-1.8c0-0.7,0-0.9,0-2.5s0-1.8,0-2.5
					c0-0.7,0.1-1.3,0.4-1.8c0.2-0.6,0.5-1,0.9-1.4c0.4-0.4,0.9-0.7,1.4-0.9c0.5-0.2,1.1-0.3,1.8-0.4c0.7,0,0.9,0,2.5,0s1.8,0,2.5,0
					c0.7,0,1.3,0.1,1.8,0.4c0.6,0.2,1,0.5,1.4,0.9c0.4,0.4,0.7,0.9,0.9,1.4c0.2,0.5,0.3,1.1,0.4,1.8C-1,5.2-1,5.4-1,7s0,1.8,0,2.5
					c0,0.7-0.1,1.3-0.4,1.8c-0.2,0.6-0.5,1-0.9,1.4c-0.4,0.4-0.9,0.7-1.4,0.9c-0.5,0.2-1.1,0.3-1.8,0.4C-6.2,14.1-6.5,14.1-8.1,14.1
					z"/>
			</defs>
			<clipPath id="SVGID_00000008866916846876151680000005993142165371187865_">
				<use xlink:href="#SVGID_00000031167631420868734130000000815501399994489763_"  style="overflow:visible;"/>
			</clipPath>
			<g style="clip-path:url(#SVGID_00000008866916846876151680000005993142165371187865_);">
				<defs>
					<circle id="SVGID_00000038402004923290948970000015106684198247259574_" cx="-8.1" cy="7" r="9.4"/>
				</defs>
				<clipPath id="SVGID_00000178905564143897540090000010813419003688088212_">
					<use xlink:href="#SVGID_00000038402004923290948970000015106684198247259574_"  style="overflow:visible;"/>
				</clipPath>
				<g style="clip-path:url(#SVGID_00000178905564143897540090000010813419003688088212_);">
					<defs>
						<rect id="SVGID_00000028321494889219181940000010414964754337132193_" x="-18.2" y="-3.1" width="20.3" height="20.3"/>
					</defs>
					<clipPath id="SVGID_00000070823849349300863500000009482623123248971963_">
						<use xlink:href="#SVGID_00000028321494889219181940000010414964754337132193_"  style="overflow:visible;"/>
					</clipPath>
				</g>
			</g>
		</g>
	</g>
</g>
</svg>
