<?xml version="1.0" encoding="utf-8"?>
<!-- Generator: Adobe Illustrator 27.9.1, SVG Export Plug-In . SVG Version: 6.00 Build 0)  -->
<svg version="1.1" id="Layer_1" xmlns="http://www.w3.org/2000/svg" xmlns:xlink="http://www.w3.org/1999/xlink" x="0px" y="0px"
	 viewBox="0 0 14 14" style="enable-background:new 0 0 14 14;" xml:space="preserve">
<style type="text/css">
	.st0{fill:#FFFFFF;}
	.st1{fill:#436AB3;}
	.st2{fill:#F4F2EF;}
	.st3{fill:#ED2224;}
	.st4{fill:#B4225B;}
	.st5{fill:#E64E89;}
	.st6{fill:#0B121E;}
	.st7{fill:none;stroke:#000000;stroke-miterlimit:10;}
	.st8{fill:url(#SVGID_1_);}
	.st9{clip-path:url(#SVGID_00000029045232521786117520000009967749937725936007_);}
	.st10{clip-path:url(#SVGID_00000111187764242160258530000010400334715874783910_);}
</style>
<path class="st3" d="M14,9.1c-0.1-1.5,0-3,0-4.6c0-1.3-0.4-2.3-1.2-3.2c-0.6-0.6-1.3-1-2.1-1.2C10.4,0.1,10,0,9.7,0C7.8,0,5.9,0,4,0
	c-1.3,0-2.3,0.6-3.1,1.6C0.3,2.4,0,3.4,0,4.4c0,1.7,0,3.4,0,5.2c0,1.1,0.3,2.1,1.1,3c0.8,0.9,1.8,1.4,3,1.5c1,0,1.9,0,2.9,0
	c0,0,0,0,0,0c0.8,0,1.7,0,2.5,0c1,0,2-0.3,2.8-0.9C13.6,12.1,14.1,10.7,14,9.1z"/>
<g>
	<g>
		<path class="st0" d="M5.4,2.8c0.3,0,0.6,0,0.9,0c0.1,0,0.2,0,0.2,0.2c0,0.4,0,0.8,0,1.2c0,0.2-0.1,0.2-0.2,0.2c-0.5,0-1,0-1.5,0
			c-0.4,0-0.5,0.1-0.5,0.5c0,0.5,0,0.9,0,1.4c0,0.2,0,0.2-0.2,0.2c-0.4,0-0.8,0-1.2,0c-0.1,0-0.2-0.1-0.2-0.1c0-0.7,0-1.3,0-2
			c0.1-0.9,0.9-1.5,1.8-1.5C4.9,2.8,5.1,2.8,5.4,2.8C5.4,2.8,5.4,2.8,5.4,2.8z"/>
		<path class="st0" d="M8.6,11.2c-0.3,0-0.6,0-0.9,0c-0.1,0-0.2,0-0.2-0.2c0-0.4,0-0.8,0-1.2c0-0.1,0.1-0.2,0.2-0.2c0.5,0,1,0,1.5,0
			c0.4,0,0.5-0.1,0.5-0.5c0-0.5,0-0.9,0-1.4c0-0.2,0-0.2,0.2-0.2c0.4,0,0.8,0,1.2,0c0.1,0,0.2,0.1,0.2,0.1c0,0.7,0,1.3,0,2
			c-0.1,0.9-0.9,1.5-1.8,1.5C9.1,11.2,8.9,11.2,8.6,11.2C8.6,11.2,8.6,11.2,8.6,11.2z"/>
	</g>
</g>
</svg>
