<?xml version="1.0" encoding="utf-8"?>
<!-- Generator: Adobe Illustrator 27.9.1, SVG Export Plug-In . SVG Version: 6.00 Build 0)  -->
<svg version="1.1" id="Layer_1" xmlns="http://www.w3.org/2000/svg" xmlns:xlink="http://www.w3.org/1999/xlink" x="0px" y="0px"
	 viewBox="0 0 14.1 14.1" style="enable-background:new 0 0 14.1 14.1;" xml:space="preserve">
<style type="text/css">
	.st0{fill:#FFFFFF;}
	.st1{fill:#436AB3;}
	.st2{fill:#F4F2EF;}
	.st3{fill:#ED2224;}
	.st4{fill:#B4225B;}
	.st5{fill:#E64E89;}
	.st6{fill:#0B121E;}
	.st7{fill:none;stroke:#000000;stroke-miterlimit:10;}
	.st8{fill:url(#SVGID_1_);}
	.st9{clip-path:url(#SVGID_00000111157599545083568850000005804820249039349142_);}
	.st10{clip-path:url(#SVGID_00000065778611051125298960000015473847272873116587_);}
</style>
<g>
	<path class="st1" d="M9.8,14.1H4.3C1.9,14.1,0,12.2,0,9.8V4.3C0,1.9,1.9,0,4.3,0h5.5c2.4,0,4.3,1.9,4.3,4.3v5.5
		C14.1,12.2,12.2,14.1,9.8,14.1z"/>
	<g>
		<path class="st0" d="M10.2,4.8c-0.7,0-1.3,0-1.9,0c0,0.2,0,0.3,0,0.5c0.7,0,1.3,0,1.9,0C10.2,5.1,10.2,5,10.2,4.8z"/>
		<path class="st0" d="M6.7,7.1C6.6,7,6.5,6.9,6.4,6.9c0,0,0.1,0,0.1-0.1C7.2,6.4,7,5.3,6.6,4.9C6.3,4.7,5.9,4.6,5.4,4.6
			c-0.7,0-1.4,0-2.2,0c-0.1,0-0.1,0-0.2,0c0,0,0,0.1,0,0.1c0,1.6,0,3.1,0,4.7c0,0.1,0,0.1,0.1,0.1c0.8,0,1.6,0,2.4,0
			c0.6,0,1.1-0.3,1.4-0.8C7.2,8.2,7.2,7.4,6.7,7.1z M4.4,5.4c0.2,0,0.3,0,0.5,0c0,0,0,0,0,0c0.3,0,0.5,0,0.8,0.1
			C5.9,5.5,6,5.7,6,5.9c0,0.3,0,0.5-0.2,0.5C5.6,6.5,5.5,6.5,5.3,6.5c-0.3,0-0.6,0-0.9,0c-0.1,0-0.1,0-0.1-0.1c0-0.3,0-0.5,0-0.8
			C4.2,5.5,4.3,5.4,4.4,5.4z M6.1,8.2c0,0.3-0.2,0.4-0.5,0.5c-0.1,0-0.1,0-0.2,0c-0.2,0-0.4,0-0.6,0c0,0,0,0,0,0c-0.2,0-0.3,0-0.5,0
			c-0.1,0-0.2,0-0.2-0.1c0-0.3,0-0.7,0-1c0-0.1,0-0.1,0.1-0.1c0.4,0,0.7,0,1.1,0C6,7.4,6.2,7.7,6.1,8.2z"/>
		<path class="st0" d="M9.5,5.8C8.8,5.7,8.2,5.9,7.8,6.5C7.6,6.9,7.5,7.3,7.5,7.8c0,0.9,0.5,1.5,1.4,1.6c0.6,0.1,1.2,0,1.7-0.4
			c0.2-0.2,0.4-0.4,0.4-0.7c-0.3,0-0.6,0-0.9,0c0,0-0.1,0-0.1,0.1C9.8,8.7,9.4,8.8,9,8.7C8.6,8.6,8.4,8.2,8.5,7.8c0.8,0,1.7,0,2.5,0
			c0-0.2,0-0.4,0-0.5C10.9,6.4,10.4,5.8,9.5,5.8z M10,7.2c-0.5,0-1,0-1.6,0c0-0.4,0.4-0.8,0.8-0.8C9.7,6.5,10.1,6.8,10,7.2z"/>
	</g>
</g>
</svg>
