<?xml version="1.0" encoding="utf-8"?>
<!-- Generator: Adobe Illustrator 27.9.1, SVG Export Plug-In . SVG Version: 6.00 Build 0)  -->
<svg version="1.1" id="Layer_1" xmlns="http://www.w3.org/2000/svg" xmlns:xlink="http://www.w3.org/1999/xlink" x="0px" y="0px"
	 viewBox="0 0 14 14" style="enable-background:new 0 0 14 14;" xml:space="preserve">
<style type="text/css">
	.st0{fill:#FFFFFF;}
	.st1{fill:#436AB3;}
	.st2{fill:#F4F2EF;}
	.st3{fill:#ED2224;}
	.st4{fill:#B4225B;}
	.st5{fill:#E64E89;}
	.st6{fill:#0B121E;}
	.st7{fill:none;stroke:#000000;stroke-miterlimit:10;}
	.st8{fill:url(#SVGID_1_);}
	.st9{clip-path:url(#SVGID_00000076580021322578645610000007410363054446947775_);}
	.st10{clip-path:url(#SVGID_00000102515475383878918310000005969911176075687866_);}
</style>
<g>
	<g>
		<path class="st0" d="M14,4.5c0-1.2-0.4-2.3-1.2-3.2c-0.6-0.6-1.3-1-2.1-1.2C10.3,0.1,10,0,9.7,0C7.8,0,5.9,0,4,0
			c-1.3,0-2.3,0.6-3.1,1.6C0.3,2.4,0,3.4,0,4.4c0,1.7,0,3.4,0,5.1c0,1.1,0.3,2.1,1.1,2.9c0.8,0.9,1.8,1.4,3,1.5c1,0,1.9,0,2.9,0
			c0,0,0,0,0,0c0.8,0,1.7,0,2.5,0c1,0,2-0.3,2.8-0.9c1.2-1,1.8-2.3,1.6-4C13.8,7.6,13.9,6,14,4.5z"/>
	</g>
	<g>
		<path class="st4" d="M11.8,6.2c0-0.2-0.1-0.5-0.2-0.7C11,3.5,9.2,2.2,7,2.2c-0.2,0-0.4,0-0.6,0C4.3,2.4,2.5,4.3,2.3,6.5
			C2.1,7.8,2.5,9,3.3,10c0.8,1,2,1.6,3.3,1.7c0.1,0,0.1,0,0.1,0l0,0h0.5l0,0c0.1,0,0.2,0,0.4-0.1c0.3,0,0.5-0.1,0.7-0.2
			c2-0.6,3.1-2,3.4-4c0,0,0-0.1,0.1-0.2l0-0.9C11.8,6.4,11.8,6.3,11.8,6.2z"/>
		<path class="st5" d="M9.7,6.7c-0.2,0-0.4,0-0.6,0c-0.2,0-0.4,0-0.7,0C8.3,6.7,8.1,6.7,8,6.5C8,6.4,7.9,6.3,7.9,6.2
			c0,0,0-0.1,0-0.1l0-0.1l2.4-1.7l0,0.1c0.5,0.6,0.8,1.4,0.9,2.3l0,0.1c-0.1,0-0.4,0-0.5,0C10.4,6.7,10.1,6.7,9.7,6.7L9.7,6.7z"/>
		<path class="st5" d="M9.6,3.8L9.6,3.8C9.1,4.4,8.5,4.9,7.7,5.3c0,0-0.1,0-0.1,0c-0.1,0-0.2,0-0.3-0.1c-0.3-0.5-0.7-1-1-1.6L6,3
			l0.1,0C6.3,2.9,6.6,2.8,7,2.8C7.9,2.8,9,3.2,9.6,3.8L9.6,3.8z"/>
		<path class="st5" d="M5.2,3.3L5.2,3.3l1.6,2.3l-0.1,0C5.6,5.9,4.6,6.1,3.1,6.1L3,6.1L3,6C3.4,4.8,4.1,3.9,5.2,3.3z"/>
		<path class="st5" d="M3,6.9L3,6.9c0.1-0.1,0.5-0.1,0.6-0.1c0.4,0,0.8,0,1.2-0.1c0.6-0.1,1.2-0.2,1.8-0.3l0.1,0
			c0.2,0,0.3-0.1,0.4-0.1c0.2,0,0.3,0.2,0.4,0.6l0,0.1L7.3,7C6,7.4,4.9,8.3,4,9.6L3.9,9.7L3.9,9.6C3.2,8.7,2.9,7.8,3,6.9z"/>
		<path class="st5" d="M4.5,10.1c0.7-1.1,1.7-1.9,2.8-2.4c0.1,0,0.2-0.1,0.2-0.1c0.2,0,0.3,0.2,0.3,0.3C8,8.3,8.1,8.7,8.2,9.1
			c0.1,0.5,0.2,0.9,0.4,1.4c0,0.1,0,0.3-0.1,0.4c-0.3,0.2-0.7,0.2-1.2,0.2c-1,0-2.1-0.4-2.7-0.9L4.5,10.1L4.5,10.1z"/>
		<path class="st5" d="M9.4,10.4L9.4,10.4L8.5,7.5l0.1,0c0.3-0.1,0.6-0.1,0.9-0.1c0.5,0,1.1,0.1,1.6,0.1l0.1,0l0,0.1
			C10.9,8.8,10.3,9.7,9.4,10.4z"/>
	</g>
</g>
</svg>
