<?xml version="1.0" encoding="utf-8"?>
<!-- Generator: Adobe Illustrator 27.9.1, SVG Export Plug-In . SVG Version: 6.00 Build 0)  -->
<svg version="1.1" id="Layer_1" xmlns="http://www.w3.org/2000/svg" xmlns:xlink="http://www.w3.org/1999/xlink" x="0px" y="0px"
	 viewBox="0 0 14 14" style="enable-background:new 0 0 14 14;" xml:space="preserve">
<style type="text/css">
	.st0{fill:#FFFFFF;}
	.st1{fill:#436AB3;}
	.st2{fill:#F4F2EF;}
	.st3{fill:#ED2224;}
	.st4{fill:#B4225B;}
	.st5{fill:#E64E89;}
	.st6{fill:#0B121E;}
	.st7{fill:none;stroke:#000000;stroke-miterlimit:10;}
	.st8{fill:url(#SVGID_1_);}
	.st9{clip-path:url(#SVGID_00000126283467556398275050000001596783963791786161_);}
	.st10{clip-path:url(#SVGID_00000053536875350535071000000006199639144989453206_);}
</style>
<path class="st6" d="M14,9.1c-0.1-1.5,0-3,0-4.6c0-1.3-0.4-2.3-1.2-3.2c-0.6-0.6-1.3-1-2.1-1.2C10.4,0.1,10,0,9.7,0C7.8,0,5.9,0,4,0
	c-1.3,0-2.3,0.6-3.1,1.6C0.3,2.4,0,3.4,0,4.4c0,1.7,0,3.4,0,5.2c0,1.1,0.3,2.1,1.1,3c0.8,0.9,1.8,1.4,3,1.5c1,0,1.9,0,2.9,0
	c0,0,0,0,0,0c0.8,0,1.7,0,2.5,0c1,0,2-0.3,2.8-0.9C13.6,12.1,14.1,10.7,14,9.1z"/>
<g>
	<g>
		<path class="st0" d="M3.2,9c0-0.1,0-0.3,0-0.4c0-0.1,0-0.1,0.1-0.2c0,0,0.1,0,0.2,0c0.5,0.3,1,0.5,1.6,0.5c0.1,0,0.2,0,0.3-0.1
			C5.8,8.7,6,8.2,5.6,7.8C5.5,7.7,5.3,7.5,5.1,7.4c-0.3-0.2-0.7-0.3-1-0.5C3.2,6.4,3,5.3,3.5,4.5c0.3-0.4,0.6-0.7,1.1-0.8
			c0.7-0.1,1.3-0.1,2,0.1C6.7,3.9,6.8,4,6.8,4.2c0,0.2,0,0.4,0,0.7C6.8,5,6.7,5.1,6.5,5C6.1,4.7,5.6,4.6,5.1,4.7
			C4.7,4.7,4.4,5,4.5,5.4c0,0.2,0.1,0.4,0.3,0.5C5,5.9,5.2,6.1,5.4,6.2c0.3,0.2,0.7,0.3,1,0.5c0.9,0.6,1,1.8,0.3,2.6
			C6.4,9.7,5.9,9.9,5.4,9.9C4.7,10,4,10,3.4,9.6C3.2,9.6,3.2,9.5,3.2,9.3C3.2,9.2,3.2,9.1,3.2,9z"/>
		<path class="st0" d="M8.4,6.1c-0.1,0-0.3,0-0.4,0c-0.1,0-0.2,0-0.2-0.2c0-0.2,0-0.4,0-0.6c0-0.1,0.1-0.2,0.2-0.2
			c0.1,0,0.3,0,0.4,0c0-0.2,0-0.4,0-0.6c0-0.1,0-0.2,0.1-0.4C8.5,4.1,8.5,4,8.6,4c0.3,0,0.6-0.1,0.9-0.1c0.1,0,0.2,0,0.2,0.2
			c0,0.3,0,0.7,0,1c0,0,0,0.1,0,0.1c0.1,0,0.2,0,0.3,0c0.7,0,0.5-0.1,0.6,0.6c0,0.1,0,0.1,0,0.2c0,0.2,0,0.2-0.2,0.2
			c-0.2,0-0.4,0-0.5,0c-0.1,0-0.1,0-0.1,0.1c0,0.7,0,1.5,0,2.2c0,0.3,0.2,0.5,0.5,0.4c0.1,0,0.2,0,0.2,0c0.1,0,0.2,0,0.2,0.1
			c0,0.2,0,0.4,0,0.6c0,0.1-0.1,0.2-0.1,0.2C10,9.9,9.5,9.9,9.1,9.8C8.6,9.6,8.5,9.3,8.4,8.9c0-0.1,0-0.3,0-0.4c0-0.7,0-1.4,0-2.1
			C8.4,6.3,8.4,6.2,8.4,6.1z"/>
	</g>
</g>
</svg>
