<?xml version="1.0" encoding="utf-8"?>
<!-- Generator: Adobe Illustrator 27.9.1, SVG Export Plug-In . SVG Version: 6.00 Build 0)  -->
<svg version="1.1" id="Layer_1" xmlns="http://www.w3.org/2000/svg" xmlns:xlink="http://www.w3.org/1999/xlink" x="0px" y="0px"
	 viewBox="0 0 14 14" style="enable-background:new 0 0 14 14;" xml:space="preserve">
<style type="text/css">
	.st0{fill:#FFFFFF;}
	.st1{fill:#436AB3;}
	.st2{fill:#F4F2EF;}
	.st3{fill:#ED2224;}
	.st4{fill:#B4225B;}
	.st5{fill:#E64E89;}
	.st6{fill:#0B121E;}
	.st7{fill:none;stroke:#000000;stroke-miterlimit:10;}
	.st8{fill:url(#SVGID_1_);}
	.st9{clip-path:url(#SVGID_00000023261762052720993020000013530855609139096492_);}
	.st10{clip-path:url(#SVGID_00000137123430947491192480000014252224995295709327_);}
</style>
<g>
	<path class="st3" d="M14,4.5c0-1.2-0.4-2.3-1.2-3.2c-0.6-0.6-1.3-1-2.1-1.2C10.3,0.1,10,0,9.7,0C7.8,0,5.9,0,4,0
		c-1.3,0-2.3,0.6-3.1,1.6C0.3,2.4,0,3.4,0,4.4c0,1.7,0,3.4,0,5.1c0,1.1,0.3,2.1,1.1,2.9c0.8,0.9,1.8,1.4,3,1.5c1,0,1.9,0,2.9,0
		c0,0,0,0,0,0c0.8,0,1.7,0,2.5,0c1,0,2-0.3,2.8-0.9c1.2-1,1.8-2.3,1.6-4C13.8,7.6,13.9,6,14,4.5z"/>
</g>
<path id="polygon7431_00000080926705481917829560000012134654184374240915_" class="st0" d="M5.1,4.3l0,5.4L9.8,7L5.1,4.3z"/>
</svg>
