<svg width="50" height="33" viewBox="0 0 50 33" fill="none" xmlns="http://www.w3.org/2000/svg">
<g clip-path="url(#clip0_116_3555)">
<path d="M27.0239 0.5C27.6515 0.845699 28.3653 0.806563 29.036 0.989197C31.4234 1.64798 33.417 2.99164 35.1891 4.75927C36.3582 5.92682 37.4288 7.20526 38.6717 8.29454C41.4591 10.734 45.5263 10.6688 48.2275 8.08581C48.812 7.53139 49.3412 6.91826 49.9934 6.23339C50.0365 6.91826 49.7903 7.40094 49.6242 7.88361C47.366 14.5367 42.2159 16.9566 36.0443 16.3956C32.1433 16.0369 29.0606 14.1714 26.4517 11.2167C25.7133 10.3818 24.9011 9.61863 24.1012 8.84896C21.4615 6.31818 17.4682 6.23991 14.687 8.60762C13.9363 9.24684 13.2902 9.97737 12.5703 10.8253C13.4256 6.27905 16.3175 2.27415 20.7908 1.06747C21.5723 0.858744 22.3599 0.689156 23.1475 0.506523H27.0178L27.0239 0.5Z" fill="#4DBBEB"/>
<path d="M37.5092 22.2006C36.3032 26.7338 34.1435 30.1582 29.9532 31.6062C25.8184 33.0346 21.7143 32.7933 17.8193 30.5756C16.1519 29.6298 14.8043 28.2405 13.4999 26.8186C12.6015 25.8402 11.7155 24.8487 10.6264 24.1052C7.83904 22.2006 4.44253 22.4876 1.83977 24.7835C1.1937 25.3575 0.652227 26.0424 0 26.6294C0.393798 24.6009 1.16909 22.768 2.34433 21.1374C4.60866 18.0065 7.74059 16.7281 11.334 16.5063C15.0812 16.2715 18.5577 17.1129 21.4804 19.735C22.8403 20.9547 24.1263 22.2658 25.363 23.6225C28.4888 27.0469 33.4236 26.6881 36.2909 23.3746C36.6047 23.0159 36.9739 22.7158 37.5031 22.2071L37.5092 22.2006Z" fill="#4DBBEB"/>
</g>
<defs>
<clipPath id="clip0_116_3555">
<rect width="50" height="32" fill="white" transform="translate(0 0.5)"/>
</clipPath>
</defs>
</svg>
