<svg width="34" height="35" viewBox="0 0 34 35" fill="none" xmlns="http://www.w3.org/2000/svg">
<rect y="0.5" width="34" height="34" rx="2" fill="#007ACC"/>
<path d="M7.56738 17.7389V18.9367H11.7835V29.8126H14.7754V18.9367H18.9915V17.761C18.9915 17.0996 18.9915 16.5632 18.9591 16.5485C18.9591 16.5264 16.3888 16.5191 13.2673 16.5191L7.59171 16.5411V17.7463L7.56738 17.7389ZM26.5157 16.5117C27.3427 16.6881 27.9751 17.0261 28.5427 17.5626C28.8426 17.8565 29.2886 18.3709 29.321 18.5032C29.321 18.5473 27.9183 19.4071 27.067 19.8847C27.0346 19.9068 26.9048 19.7818 26.7751 19.5908C26.3535 19.047 25.9238 18.8118 25.2508 18.7677C24.2779 18.7089 23.6292 19.1719 23.6292 19.9435C23.6292 20.1787 23.6779 20.3109 23.7752 20.502C23.9941 20.9062 24.3995 21.1487 25.6562 21.6484C27.9751 22.5522 28.9805 23.1475 29.5886 23.9999C30.2777 24.9552 30.4318 26.4543 29.9696 27.5787C29.4507 28.8059 28.1859 29.6362 26.3778 29.9081C25.8103 29.9963 24.513 29.9816 23.9049 29.8861C22.6076 29.6656 21.3671 29.0778 20.605 28.3209C20.305 28.0269 19.7293 27.2406 19.7617 27.1892L20.0698 27.0128L21.286 26.3735L22.2022 25.8885L22.413 26.1457C22.6806 26.5278 23.2806 27.0422 23.6292 27.2186C24.6833 27.7109 26.094 27.6448 26.7913 27.0716C27.0913 26.8218 27.2211 26.5572 27.2211 26.1898C27.2211 25.8517 27.1643 25.6974 26.9778 25.4402C26.7184 25.1169 26.1995 24.8523 24.74 24.2645C23.0617 23.6178 22.3482 23.2063 21.6833 22.5743C21.3022 22.1922 20.9536 21.5969 20.7914 21.1046C20.6698 20.6784 20.6293 19.6349 20.7428 19.216C21.0914 17.7463 22.3157 16.7175 24.0671 16.4235C24.6346 16.3207 25.9724 16.3648 26.5319 16.497L26.5157 16.5117Z" fill="white"/>
</svg>
