<?xml version="1.0" encoding="utf-8"?>
<!-- Generator: Adobe Illustrator 27.9.1, SVG Export Plug-In . SVG Version: 6.00 Build 0)  -->
<svg version="1.1" id="Layer_1" xmlns="http://www.w3.org/2000/svg" xmlns:xlink="http://www.w3.org/1999/xlink" x="0px" y="0px"
	 viewBox="0 0 26.5 25.8" style="enable-background:new 0 0 26.5 25.8;" xml:space="preserve">
<style type="text/css">
	.st0{fill:#F7F6E2;}
	.st1{fill:#87CCD1;}
	.st2{fill:#2F1110;}
	.st3{fill:#F7991C;}
	.st4{fill:#101519;}
	.st5{fill:#F5DE17;}
	.st6{fill:#3555A5;}
	.st7{fill:#E24E26;}
	.st8{fill:#FFFFFF;}
	.st9{fill:#47B97E;}
	.st10{fill:#FFC40D;}
	.st11{fill:#DA3226;}
	.st12{fill:#74A89A;}
	.st13{fill:#918FC6;}
	.st14{fill:none;stroke:#F7F5E2;stroke-miterlimit:10;}
	.st15{fill:#2ECEE8;}
	.st16{fill:#8062A9;}
	.st17{fill:#EF4F23;}
	.st18{fill:#F27264;}
	.st19{fill:#53C0DD;}
	.st20{fill:none;}
	.st21{fill:#F0F5DA;}
	.st22{fill:none;stroke:#020202;stroke-width:0.25;stroke-miterlimit:10;}
	.st23{fill:#F9F9F9;}
	.st24{fill-rule:evenodd;clip-rule:evenodd;fill:#2ECEE8;}
</style>
<g id="vlpa_00000062902011238950791970000010078040955131292334_">
	<g id="vlpb_00000032636584903971471550000012605098705759155632_">
		<g id="vlpc_00000180328041814121142120000009987076754898719156_">
			<g id="vlpd_00000061463331891870586430000002313829265384968123_">
				<path class="st4" d="M4.7,0l17.1,0c2.6,0,4.7,2.1,4.7,4.7l0,16.4c0,2.6-2.1,4.7-4.7,4.7l-17.1,0c-2.6,0-4.7-2.1-4.7-4.7L0,4.7
					C0,2.1,2.1,0,4.7,0z"/>
			</g>
		</g>
	</g>
	<g id="vlpe_00000077288936564404173460000010254183261796063149_">
		<g id="vlpf_00000012464382110754346590000016519674636135741885_">
			<path class="st13" d="M6.3,18.1l0-11.4c0-0.1,0-0.1,0.1-0.1c0.2,0,0.4,0,0.6,0c0.3,0,0.5,0,0.8,0c0.3,0,0.6,0,1,0s0.7,0,1,0
				c0.9,0,1.7,0.1,2.3,0.3c0.6,0.2,1.1,0.5,1.5,0.9c0.4,0.4,0.6,0.8,0.8,1.3c0.2,0.5,0.3,0.9,0.3,1.4c0,0.9-0.2,1.7-0.7,2.4
				c-0.4,0.6-1.1,1.1-1.8,1.3c-0.8,0.3-1.6,0.4-2.5,0.4c-0.3,0-0.4,0-0.6,0c-0.1,0-0.3,0-0.5,0l0,3.5c0,0.1,0,0.1-0.1,0.2h0l-2.1,0
				C6.3,18.2,6.3,18.2,6.3,18.1L6.3,18.1z M8.7,8.8l0,3.7c0.2,0,0.3,0,0.4,0h0.6c0.4,0,0.9-0.1,1.3-0.2c0.4-0.1,0.7-0.3,0.9-0.6
				c0.2-0.3,0.3-0.7,0.3-1.1c0-0.3-0.1-0.7-0.3-1c-0.2-0.3-0.5-0.5-0.8-0.6c-0.4-0.2-0.8-0.2-1.3-0.2c-0.3,0-0.5,0-0.8,0
				C8.9,8.7,8.8,8.7,8.7,8.8L8.7,8.8z"/>
			<path class="st13" d="M16.2,9.4l1.9,0c0.1,0,0.2,0.1,0.2,0.2c0,0.1,0.1,0.2,0.1,0.3c0,0.1,0,0.2,0.1,0.3c0,0.1,0,0.3,0,0.4
				c0.3-0.4,0.7-0.7,1.2-0.9c0.5-0.3,1.1-0.4,1.7-0.4c0.1,0,0.1,0,0.2,0.1v0v2.2c0,0.1-0.1,0.1-0.2,0.1c-0.4,0-0.8,0-1.2,0.1
				c-0.3,0.1-0.6,0.2-0.9,0.3c-0.2,0.1-0.4,0.2-0.6,0.4l0,5.6c0,0.1,0,0.2-0.1,0.2l-2.2,0c-0.1,0-0.2,0-0.2-0.1v0l0-6.1
				c0-0.3,0-0.5,0-0.8c0-0.3,0-0.6,0-0.9c0-0.3,0-0.5,0-0.8C16.1,9.5,16.1,9.4,16.2,9.4C16.2,9.4,16.2,9.4,16.2,9.4L16.2,9.4z"/>
		</g>
	</g>
</g>
</svg>
