<?xml version="1.0" encoding="utf-8"?>
<!-- Generator: Adobe Illustrator 27.9.1, SVG Export Plug-In . SVG Version: 6.00 Build 0)  -->
<svg version="1.1" id="Layer_1" xmlns="http://www.w3.org/2000/svg" xmlns:xlink="http://www.w3.org/1999/xlink" x="0px" y="0px"
	 viewBox="0 0 26.3 25.8" style="enable-background:new 0 0 26.3 25.8;" xml:space="preserve">
<style type="text/css">
	.st0{fill:#F7F6E2;}
	.st1{fill:#87CCD1;}
	.st2{fill:#2F1110;}
	.st3{fill:#F7991C;}
	.st4{fill:#101519;}
	.st5{fill:#F5DE17;}
	.st6{fill:#3555A5;}
	.st7{fill:#E24E26;}
	.st8{fill:#FFFFFF;}
	.st9{fill:#47B97E;}
	.st10{fill:#FFC40D;}
	.st11{fill:#DA3226;}
	.st12{fill:#74A89A;}
	.st13{fill:#918FC6;}
	.st14{fill:none;stroke:#F7F5E2;stroke-miterlimit:10;}
	.st15{fill:#2ECEE8;}
	.st16{fill:#8062A9;}
	.st17{fill:#EF4F23;}
	.st18{fill:#F27264;}
	.st19{fill:#53C0DD;}
	.st20{fill:none;}
	.st21{fill:#F0F5DA;}
	.st22{fill:none;stroke:#020202;stroke-width:0.25;stroke-miterlimit:10;}
	.st23{fill:#F9F9F9;}
	.st24{fill-rule:evenodd;clip-rule:evenodd;fill:#2ECEE8;}
</style>
<g>
	<g id="vlpb_00000121973530115964034150000009170834938821066900_">
		<g id="vlpc_00000016757034395633593570000002769502391926800029_">
			<g id="vlpd_00000003792299543209072200000013410479499177341056_">
				<path class="st4" d="M4.6,0h17.1c2.7,0,4.6,2.1,4.6,4.6v16.5c0,2.7-2.1,4.6-4.6,4.6H4.6C2,25.8,0,23.6,0,21.1V4.8
					C-0.2,2.1,2,0,4.6,0z"/>
			</g>
		</g>
	</g>
	<g id="Layer_2_00000022542984478419398100000005760986545395659665_">
		<g id="Outlined_Mnemonics_Logos_00000132804871452026560960000012096988305586548133_">
			<g id="Ps_00000018922639418470439180000013331024896976857768_">
				<path class="st15" d="M5.7,18.3V6.9c0,0,0-0.2,0.2-0.2s0.4,0,0.7,0c0.2,0,0.4,0,0.7,0s0.7,0,1.1,0c0.4,0,0.5,0,0.9,0
					c0.9,0,1.8,0.2,2.3,0.4c0.7,0.2,1.2,0.2,1.6,0.7c0.4,0.4,0.7,0.7,0.9,1.2c0.2,0.5,0.2,0.9,0.2,1.4c0,0.9-0.2,1.8-0.7,2.5
					c-0.5,0.7-1.1,1.1-1.8,1.4c-0.7,0.2-1.6,0.4-2.5,0.4c-0.4,0-0.5,0-0.5,0c-0.2,0-0.4,0-0.5,0v3.6c0,0,0,0.2-0.2,0.2l0,0L5.7,18.3
					C5.7,18.5,5.7,18.5,5.7,18.3z M8.2,8.7v3.7c0.2,0,0.4,0,0.4,0h0.5c0.4,0,0.9,0,1.2-0.2c0.5,0,0.9-0.2,1.1-0.5s0.4-0.7,0.4-1.2
					c0-0.4,0-0.7-0.2-1.1c-0.2-0.2-0.5-0.4-0.9-0.5c-0.4-0.2-0.9-0.2-1.2-0.2s-0.5,0-0.7,0C8.4,8.7,8.2,8.7,8.2,8.7L8.2,8.7z"/>
				<path class="st15" d="M21.3,11.9c-0.4-0.2-0.7-0.4-1.1-0.4c-0.4-0.2-0.9-0.2-1.2-0.2c-0.2,0-0.5,0-0.7,0c-0.2,0-0.4,0.2-0.4,0.2
					c0,0.2-0.2,0.2-0.2,0.4s0,0.2,0.2,0.4c0.2,0.2,0.2,0.2,0.4,0.4c0.2,0.2,0.5,0.2,0.9,0.4c0.5,0.2,1.2,0.5,1.8,0.9
					c0.2,0,0.5,0.4,0.7,0.7c0.2,0.4,0.4,0.7,0.2,1.2c0,0.5-0.2,1.1-0.4,1.4c-0.4,0.5-0.7,0.9-1.2,1.1c-0.5,0.2-1.2,0.4-2.1,0.4
					c-0.5,0-1.1,0-1.6-0.2c-0.4,0-0.7-0.2-1.1-0.4l-0.2-0.2v-2c0,0,0,0,0-0.2c0,0,0,0,0.2,0c0.4,0.2,0.9,0.4,1.4,0.5
					c0.4,0.2,0.9,0.2,1.2,0.2s0.7,0,0.9-0.2c0.2,0,0.4-0.4,0.4-0.5c0-0.2-0.2-0.4-0.4-0.5c-0.2-0.2-0.5-0.4-1.1-0.5
					c-0.4,0-0.9-0.2-1.4-0.5c-0.4-0.4-0.5-0.5-0.9-1.1c-0.2-0.4-0.2-0.7-0.2-1.1c0-0.5,0.2-0.9,0.4-1.4c0.4-0.4,0.7-0.7,1.2-1.1
					c0.5-0.4,1.2-0.4,2-0.4c0.5,0,0.9,0,1.4,0.2c0.4,0,0.7,0.2,0.9,0.2c0,0,0.2,0,0.2,0.2v0.2v1.8v0.2
					C21.3,11.9,21.3,11.9,21.3,11.9z"/>
			</g>
		</g>
	</g>
</g>
</svg>
