<?xml version="1.0" encoding="utf-8"?>
<!-- Generator: Adobe Illustrator 27.9.1, SVG Export Plug-In . SVG Version: 6.00 Build 0)  -->
<svg version="1.1" id="Layer_1" xmlns="http://www.w3.org/2000/svg" xmlns:xlink="http://www.w3.org/1999/xlink" x="0px" y="0px"
	 viewBox="0 0 548 645" style="enable-background:new 0 0 548 645;" xml:space="preserve">
<style type="text/css">
	.st0{fill:#F7F6E2;}
	.st1{fill:#87CCD1;}
	.st2{fill:#2F1110;}
	.st3{fill:#F7991C;}
	.st4{fill:#101519;}
	.st5{fill:#F5DE17;}
	.st6{fill:#3555A5;}
	.st7{fill:#E24E26;}
	.st8{fill:#FFFFFF;}
	.st9{fill:#47B97E;}
	.st10{fill:#FFC40D;}
	.st11{fill:#DA3226;}
	.st12{fill:#606060;}
	.st13{font-family:'Roboto-Medium';}
	.st14{font-size:10.3315px;}
	.st15{fill:#74A89A;}
	.st16{fill:#918FC6;}
	.st17{fill:none;stroke:#F7F5E2;stroke-miterlimit:10;}
	.st18{fill:#2ECEE8;}
	.st19{fill:#8062A9;}
	.st20{fill:#EF4F23;}
	.st21{fill:#F27264;}
	.st22{fill:#53C0DD;}
	.st23{fill:none;}
	.st24{fill:#F0F5DA;}
	.st25{font-family:'Roboto-LightItalic';}
	.st26{font-family:'BebasNeueBook';}
	.st27{font-size:38.9172px;}
	.st28{letter-spacing:7;}
	.st29{fill:none;stroke:#020202;stroke-width:0.25;stroke-miterlimit:10;}
	.st30{fill:#F9F9F9;}
	.st31{fill-rule:evenodd;clip-rule:evenodd;fill:#2ECEE8;}
</style>
<rect class="st0" width="548" height="645"/>
<path class="st1" d="M387.8,323.9c0,58-47,105-105,105s-105-47-105-105s-2.9-105,55.1-105S387.8,266,387.8,323.9z"/>
<image style="overflow:visible;" width="399" height="713" xlink:href="EE869B6F.png"  transform="matrix(0.5603 0 0 0.5603 153.8439 247.136)">
</image>
<g>
	<defs>
		<path id="SVGID_1_" d="M329.7,609.2c0,0,0.5,6.7-1.9,8.2c-2.4,1.5-4.6,7.7-3.6,9c0.9,1.3,2.5,1.9,4,1.3c1.5-0.6,4.4-3.6,4.4-3.6
			s0.8,0.7,2.6,0.4c1.8-0.3,4.8-3,6.2-3.3c1.4-0.3,3-1,4-1.3s3.4-2.6,4.6-3.1c1.2-0.4,3.1-2.1,3.2-2.3c0.2-0.1,7.1-8.9,7.1-13.2
			c0-4.3-0.3-18.9,0-25.2c0.3-6.3-19.7-9.8-19.7-9.8s-5.6,5-8.4,10.1c-2.8,5.1-8.8,22.2-9.6,25.1s0.2,4.5-0.8,7.1
			c-1,2.6-2.6,2.6-1.8,4.1c0.8,1.5,3.3,2.6,6,1.5c2.6-1.2,4.1-6.1,4.1-6.1"/>
	</defs>
	<clipPath id="SVGID_00000090296134631791722990000007738760058848789427_">
		<use xlink:href="#SVGID_1_"  style="overflow:visible;"/>
	</clipPath>
	<g style="clip-path:url(#SVGID_00000090296134631791722990000007738760058848789427_);">
		
			<image style="overflow:visible;" width="399" height="713" xlink:href="EE869B6D.png"  transform="matrix(0.5603 0 0 0.5603 153.8439 247.2568)">
		</image>
	</g>
</g>
<g>
	<defs>
		<path id="SVGID_00000166656660680985612500000008314529083218898092_" d="M180.9,610.2c0,0-3,2.1-10-7.1s-7.2-11-7.2-12.6
			c0-1.6-2.9-7.6-3.2-9.1s0.8-5.3,1.1-5.7c0.3-0.3,2.9-10.4,2.9-10.4s15.3-6.8,16.3-6.1c1,0.8,6.2,5.2,6.8,9.5
			c0.6,4.3,0.8,9.2,1.2,12.3c0.4,3.2,0.4,6.3,0.3,9.3c-0.1,3-2.3,10.8-2.5,12.7c-0.2,1.8-1.1,3.8-1.2,4.2c-0.2,0.3-3.9,3.2-3.9,3.2"
			/>
	</defs>
	<clipPath id="SVGID_00000132779123116263338450000017653447574151402936_">
		<use xlink:href="#SVGID_00000166656660680985612500000008314529083218898092_"  style="overflow:visible;"/>
	</clipPath>
	<g style="clip-path:url(#SVGID_00000132779123116263338450000017653447574151402936_);">
		
			<image style="overflow:visible;" width="399" height="713" xlink:href="EE869B73.png"  transform="matrix(0.5603 0 0 0.5603 153.8439 246.1318)">
		</image>
	</g>
</g>
<g>
	<path class="st2" d="M59.1,268.7h17c2.6,0,4.7,2.1,4.7,4.7v16.3c0,2.6-2.1,4.7-4.7,4.7h-17c-2.6,0-4.7-2.1-4.7-4.7v-16.3
		C54.5,270.7,56.6,268.7,59.1,268.7z"/>
	<path class="st3" d="M67.2,284h-4.1l-0.8,2.6c0,0.1-0.1,0.2-0.2,0.2H60c-0.1,0-0.2-0.1-0.1-0.2l3.5-10.2c0-0.1,0.1-0.2,0.1-0.4
		c0-0.2,0.1-0.5,0.1-0.7c0-0.1,0-0.1,0.1-0.1h2.8c0.1,0,0.1,0,0.1,0.1l4,11.3c0,0.1,0,0.2-0.1,0.2h-2.3c-0.1,0-0.2,0-0.2-0.1
		L67.2,284z M63.8,281.8h2.8c-0.1-0.2-0.2-0.5-0.3-0.8c-0.1-0.3-0.2-0.6-0.3-0.9c-0.1-0.3-0.2-0.7-0.3-1c-0.1-0.3-0.2-0.7-0.3-1
		c-0.1-0.3-0.2-0.6-0.2-0.9h0c-0.1,0.5-0.2,0.9-0.4,1.4c-0.2,0.5-0.3,1.1-0.5,1.6C64.1,280.8,63.9,281.3,63.8,281.8z M73.1,277.1
		c-0.4,0-0.7-0.1-1-0.4c-0.3-0.3-0.4-0.6-0.4-1c0-0.4,0.1-0.7,0.4-1c0.3-0.3,0.6-0.4,1-0.4c0.4,0,0.8,0.1,1,0.4
		c0.2,0.3,0.4,0.6,0.4,1c0,0.4-0.1,0.7-0.4,1C73.9,277,73.5,277.1,73.1,277.1L73.1,277.1z M71.9,286.6v-8.4c0-0.1,0-0.2,0.1-0.2h2.2
		c0.1,0,0.1,0.1,0.1,0.2v8.4c0,0.1,0,0.2-0.1,0.2H72C71.9,286.8,71.9,286.7,71.9,286.6z"/>
</g>
<g>
	<g id="vlpb_00000010994420746992569360000011400099829115132320_">
		<g>
			<g id="vlpc_00000056422008376416259550000015668440138754906007_">
				<g id="vlpd_00000000925348257067674620000007883219561811257740_">
					<path class="st4" d="M472.5,462.5h17.1c2.6,0,4.7,2.1,4.7,4.7v16.4c0,2.6-2.1,4.7-4.7,4.7h-17.1c-2.6,0-4.7-2.1-4.7-4.7v-16.4
						C467.8,464.6,469.9,462.5,472.5,462.5z"/>
				</g>
			</g>
		</g>
	</g>
</g>
<g>
	<g id="vlpb_00000009558293050905689600000016872793667438257810_">
		<g>
			<g id="vlpc_00000107579518359106836540000016844149348050542243_">
				<g id="vlpd_00000026149391804873390530000014664099945701276299_">
					<path class="st5" d="M472.5,414.7h17.1c2.7,0,4.6,2.1,4.6,4.6v16.5c0,2.7-2.1,4.6-4.6,4.6h-17.1c-2.7,0-4.6-2.1-4.6-4.6v-16.3
						C467.7,416.8,469.8,414.7,472.5,414.7z"/>
				</g>
			</g>
		</g>
	</g>
	<path class="st4" d="M474.8,434l1.7-1c0.3,0.6,0.6,1.1,1.4,1.1c0.7,0,1.1-0.3,1.1-1.3v-7.1h2.1v7.2c0,2.2-1.3,3.2-3.1,3.2
		C476.2,435.9,475.3,435.1,474.8,434 M482.2,433.8l1.7-1c0.5,0.7,1,1.3,2.1,1.3c0.9,0,1.4-0.4,1.4-1c0-0.7-0.6-1-1.5-1.4l-0.5-0.2
		c-1.5-0.6-2.5-1.5-2.5-3.2c0-1.6,1.2-2.8,3.1-2.8c1.3,0,2.3,0.5,3,1.7l-1.6,1.1c-0.4-0.6-0.8-0.9-1.4-0.9c-0.6,0-1,0.4-1,0.9
		c0,0.6,0.4,0.9,1.3,1.3l0.5,0.2c1.8,0.8,2.8,1.5,2.8,3.3c0,1.9-1.5,2.9-3.5,2.9C484.1,435.9,482.8,435,482.2,433.8"/>
</g>
<g>
	<path class="st6" d="M472.4,268.6h17c2.6,0,4.7,2.1,4.7,4.7v16.3c0,2.6-2.1,4.7-4.7,4.7h-17c-2.6,0-4.7-2.1-4.7-4.7v-16.3
		C467.8,270.7,469.9,268.6,472.4,268.6z"/>
</g>
<g>
	<g id="vlpb_00000181801594415839445230000013751860846520428441_">
		<g id="vlpc_00000098181695607903454040000017943399886069173648_">
			<g id="vlpd_00000061456055654626784440000011974939194877946303_">
				<path class="st7" d="M472.5,318.6h17.1c2.6,0,4.7,2.1,4.7,4.7v16.4c0,2.6-2.1,4.7-4.7,4.7h-17.1c-2.6,0-4.7-2.1-4.7-4.7v-16.4
					C467.8,320.7,469.9,318.6,472.5,318.6z"/>
			</g>
		</g>
	</g>
	<path class="st8" d="M474.1,324.2l1.3,14.1l5.6,1.6l5.7-1.6l1.3-14.1H474.1z M485.3,327.5l-0.1,0.9l0,0.4H481h0h-2.4l0.2,1.8h2.3
		l0,0h4l0,0.5l-0.4,4.6l0,0.3l-3.5,1v0l0,0l-3.5-1l-0.2-2.7h1.7l0.1,1.4l1.9,0.5l0,0v0l1.9-0.5l0.2-2.2H481h0h-3.9l-0.4-4.8l0-0.5
		h4.3h0h4.3L485.3,327.5z"/>
</g>
<g>
	<g id="vlpb_00000087398214953211582840000000997880376424636825_">
		<g id="vlpc_00000167354804134872184770000001018442066480720513_">
			<g id="vlpd_00000029739502266894925890000013716742889142006179_">
				<path class="st9" d="M472.5,366.6h17.1c2.6,0,4.7,2.1,4.7,4.7v16.4c0,2.6-2.1,4.7-4.7,4.7h-17.1c-2.6,0-4.7-2.1-4.7-4.7v-16.4
					C467.8,368.7,469.9,366.6,472.5,366.6z"/>
			</g>
		</g>
	</g>
	<g>
		<polygon class="st8" points="474.1,372.2 475.4,386.3 481,387.8 486.6,386.2 487.9,372.2 		"/>
		<path class="st9" d="M485.7,375.1c-0.8,0-1.7,0-2.5,0c-0.6,0-1.3,0-1.9,0c-0.1,0-0.1,0-0.2,0c-1.4,0-2.9,0-4.3,0
			c-0.1,0-0.2,0-0.2,0.2c0.1,0.5,0.1,1.1,0.2,1.6c0.1,1,0.2,2.1,0.3,3.1c0.1,0.8,0.1,1.6,0.2,2.4c0.1,0.7,0.1,1.4,0.2,2.1
			c0,0.1,0.1,0.2,0.2,0.2c1.2,0.3,2.5,0.7,3.7,1c1.2-0.3,2.4-0.7,3.6-1c0.1,0,0.2-0.1,0.2-0.2c0-0.3,0.1-0.6,0.1-0.9
			c0-0.3,0.1-0.6,0.1-0.9c-0.5,0.2-1,0.3-1.5,0.5c-0.8,0.2-1.6,0.5-2.5,0.7c-0.2,0-0.4-0.1-0.5-0.1c-0.5-0.1-1-0.3-1.4-0.4
			c-0.1,0-0.2-0.1-0.2-0.2c0-0.6-0.1-1.2-0.1-1.8c-0.1-0.8-0.1-1.6-0.2-2.4c-0.1-0.6-0.1-1.2-0.1-1.8c0,0,0,0,0,0c0.9,0,1.7,0,2.6,0
			c0.8,0,1.6,0,2.4,0c0.1,0,0.1,0,0.1,0.1c0,0.5-0.1,1.1-0.1,1.6c0,0.1,0,0.2,0.1,0.2c0.6,0,1.1,0,1.7,0c0.1,0,0.1,0,0.1-0.1
			c0-0.5,0.1-1,0.1-1.5c0.1-0.7,0.1-1.3,0.2-2C485.9,375.1,485.9,375.1,485.7,375.1z"/>
	</g>
</g>
<g>
	<g id="vlpb_00000011003661060017512880000015771984570193717939_">
		<g id="vlpc_00000003080486599267671790000000306576705276037764_">
			<g id="vlpd_00000050637065593372376660000000886018860624978308_">
				<path class="st4" d="M471.9,510.4h17.2c2.7,0,4.7,2.2,4.7,4.7v16.7c0,2.7-2.2,4.7-4.7,4.7h-17.2c-2.7,0-4.7-2.2-4.7-4.7v-16.5
					C467,512.5,469.2,510.4,471.9,510.4z"/>
			</g>
		</g>
	</g>
	<path class="st8" d="M485.8,516.6c-0.1-0.1-0.2-0.1-0.6-0.1c-0.5,0-0.5,0-0.6,0.1c-0.1,0.1-0.2,0.2-0.3,0.4c0,0.1,0,1.5,0,4v3.9
		l1,1.5l1,1.5l0-5.4c0-3.8,0-5.4,0-5.5C486,516.8,485.9,516.6,485.8,516.6z"/>
	<path class="st8" d="M480.3,522.7c-2-3-3.7-5.5-3.7-5.6c-0.2-0.2-0.3-0.2-0.9-0.2c-0.5,0-0.6,0-0.7,0.1c-0.1,0-0.2,0.1-0.2,0.2
		l-0.1,0.1l0,6l0,6l0.1,0.1c0,0.1,0.1,0.2,0.2,0.2l0.1,0.1h0.5c0.5,0,0.5,0,0.6-0.1c0.1-0.1,0.2-0.1,0.3-0.3
		c0.1-0.1,0.1-0.3,0.1-4.6c0-2.5,0-4.5,0-4.5c0,0,1.4,2,3.1,4.6l3.1,4.6l2.5,3.3c0.8,1.1,1.9,2.6,2.6,3.6h1.2c0.1,0,0.2,0,0.3,0
		l-3-4.5C485,529.9,482.3,525.7,480.3,522.7z"/>
</g>
<g>
	<g>
		<g>
			<g id="vlpb_00000031174329092572849470000018288526935431496877_">
				<g id="vlpc_00000125594383275038374700000007073315466968656309_">
					<g id="vlpd_00000043454233921488024640000001708861720899028117_">
						<path class="st8" d="M472.3,558.3h17.2c2.7,0,4.7,2.2,4.7,4.7v16.7c0,2.7-2.2,4.7-4.7,4.7h-17.2c-2.7,0-4.7-2.2-4.7-4.7v-16.5
							C467.5,560.5,469.6,558.3,472.3,558.3z"/>
					</g>
				</g>
			</g>
		</g>
	</g>
	<g>
		<path class="st3" d="M478.6,578.1c0.7,0.3,1.4,0.4,2.1,0.4c1,0,2-0.2,2.8-0.6c-1-0.4-2-1-2.7-1.7
			C480.3,577.1,479.5,577.8,478.6,578.1z"/>
		<path class="st10" d="M480.8,576.3c-1.8-1.7-2.9-4.1-2.8-6.7c0-0.1,0-0.2,0-0.3c-0.3-0.1-0.7-0.1-1-0.1c-0.5,0-1,0-1.4,0.2
			c-0.5,0.8-0.8,1.8-0.8,2.9c-0.1,2.7,1.5,5,3.9,6C479.5,577.8,480.3,577.1,480.8,576.3z"/>
		<path class="st3" d="M480.8,576.3c0.4-0.7,0.7-1.5,0.7-2.3c0.1-2.2-1.4-4.2-3.5-4.7c0,0.1,0,0.2,0,0.3
			C477.9,572.2,479,574.6,480.8,576.3z"/>
		<path class="st11" d="M481.3,563c-1.2,0.9-2.1,2.2-2.7,3.6c-0.3,0.8-0.5,1.7-0.6,2.6c2.1,0.5,3.6,2.5,3.5,4.7
			c0,0.8-0.3,1.6-0.7,2.3c0.8,0.7,1.7,1.3,2.7,1.7c2.1-1,3.5-3,3.6-5.4c0.1-1.6-0.5-3-1.4-4.1C484.8,567.2,481.3,563,481.3,563z"/>
	</g>
</g>
<g>
	<text transform="matrix(1 0 0 1 54.557 246.4053)" class="st12 st13 st14">Graphic Design</text>
</g>
<g>
	<text transform="matrix(1 0 0 1 404.628 246.4053)" class="st12 st13 st14">Web Deevelopment</text>
</g>
<g>
	<g id="vlpb_00000060752262741385983640000002365401677618396288_">
		<g>
			<g id="vlpc_00000036938550865936574450000011288440400845401742_">
				<g id="vlpd_00000077299310361298351250000008660325708040141449_">
					<path class="st15" d="M59.6,508.3h17.1c2.6,0,4.7,2.1,4.7,4.7v16.4c0,2.6-2.1,4.7-4.7,4.7H59.6c-2.6,0-4.7-2.1-4.7-4.7V513
						C54.9,510.4,57,508.3,59.6,508.3z"/>
				</g>
			</g>
		</g>
	</g>
	<path class="st8" d="M74.6,519.9L74.6,519.9c0.3-1,0.2-2.1-0.3-3c-0.8-1.4-2.4-2.1-3.9-1.8l0,0c-0.7-0.8-1.7-1.2-2.7-1.2
		c-1.6,0-3,1-3.5,2.5l0,0c-1,0.2-1.9,0.9-2.4,1.8c-0.8,1.4-0.6,3.1,0.4,4.3l0,0c-0.3,1-0.2,2.1,0.3,3c0.8,1.4,2.4,2.1,3.9,1.8l0,0
		c0.7,0.8,1.7,1.2,2.7,1.2c1.6,0,3-1,3.5-2.5l0,0c1-0.2,1.9-0.9,2.4-1.8C75.8,522.8,75.6,521.1,74.6,519.9z M69.8,522l-1.4,0.8
		l-1.4-0.8v-1.7l1.4-0.8l1.4,0.8V522z M73.4,517.4L73.4,517.4c0.3,0.5,0.4,1.2,0.3,1.8l-3-1.7c0,0-0.1,0-0.1,0c-0.1,0-0.3,0-0.4,0
		l-3.4,2l0-1.4l2.8-1.6c0.3-0.2,0.6-0.3,0.9-0.3l0,0C71.7,515.9,72.8,516.4,73.4,517.4z M67.6,514.9L67.6,514.9L67.6,514.9
		c0.6,0,1.2,0.2,1.7,0.6l-3,1.7c0,0-0.1,0-0.1,0.1c-0.1,0.1-0.1,0.2-0.1,0.3v3.9l-1.2-0.7l0-3.2c0-0.3,0.1-0.6,0.2-0.9l0,0
		C65.4,515.7,66.4,514.9,67.6,514.9z M62.5,518.7L62.5,518.7c0.3-0.5,0.8-1,1.4-1.2v3.4c0,0,0,0.1,0,0.1c0,0.1,0.1,0.2,0.2,0.3
		l3.4,2l-1.2,0.7l-2.8-1.6c-0.3-0.2-0.5-0.4-0.7-0.6l0,0C62.1,521,61.9,519.8,62.5,518.7z M63.3,525L63.3,525
		c-0.3-0.5-0.4-1.2-0.3-1.8l3,1.7c0,0,0.1,0,0.1,0c0.1,0,0.3,0,0.4,0l3.4-2l0,1.4L67,526c-0.3,0.2-0.6,0.3-0.9,0.3l0,0
		C65,526.5,63.9,526.1,63.3,525z M69.1,527.5L69.1,527.5L69.1,527.5c-0.6,0-1.2-0.2-1.7-0.6l3-1.7c0,0,0.1,0,0.1-0.1
		c0.1-0.1,0.1-0.2,0.1-0.3v-3.9l1.2,0.7l0,3.2c0,0.3-0.1,0.6-0.2,0.9l0,0C71.3,526.8,70.3,527.5,69.1,527.5z M74.2,523.7L74.2,523.7
		c-0.3,0.5-0.8,1-1.4,1.2v-3.4c0,0,0-0.1,0-0.1c0-0.1-0.1-0.2-0.2-0.3l-3.4-2l1.2-0.7l2.8,1.6c0.3,0.2,0.5,0.4,0.7,0.6l0,0
		C74.6,521.4,74.8,522.7,74.2,523.7z"/>
</g>
<g id="vlpa_00000015326276023470369870000000559526169678212237_">
	<g id="vlpb_00000069373895704725193770000013223057977471176863_">
		<g id="vlpc_00000053537401032255618120000012844769137218796974_">
			<g id="vlpd_00000087385329225183206110000017094156222111251339_">
				<path class="st4" d="M59.6,412.4h17.1c2.6,0,4.7,2.1,4.7,4.7l0,16.4c0,2.6-2.1,4.7-4.7,4.7l-17.1,0c-2.6,0-4.7-2.1-4.7-4.7
					l0-16.4C54.9,414.5,57,412.4,59.6,412.4z"/>
			</g>
		</g>
	</g>
	<g id="vlpe_00000070822581032987192000000017903422947446229160_">
		<g id="vlpf_00000151513318168099766480000004307701311821395884_">
			<path class="st16" d="M61.2,430.5l0-11.4c0-0.1,0-0.1,0.1-0.1c0.2,0,0.4,0,0.6,0c0.3,0,0.5,0,0.8,0s0.6,0,1,0c0.3,0,0.7,0,1,0
				c0.9,0,1.7,0.1,2.3,0.3c0.6,0.2,1.1,0.5,1.5,0.9c0.4,0.4,0.6,0.8,0.8,1.3c0.2,0.5,0.3,0.9,0.3,1.4c0,0.9-0.2,1.7-0.7,2.4
				c-0.4,0.6-1.1,1.1-1.8,1.3c-0.8,0.3-1.6,0.4-2.5,0.4c-0.3,0-0.4,0-0.6,0c-0.1,0-0.3,0-0.5,0v3.5c0,0.1,0,0.1-0.1,0.2h0h-2.1
				C61.3,430.6,61.2,430.6,61.2,430.5L61.2,430.5z M63.6,421.1v3.7c0.2,0,0.3,0,0.4,0h0.6c0.4,0,0.9-0.1,1.3-0.2
				c0.4-0.1,0.7-0.3,0.9-0.6c0.2-0.3,0.3-0.7,0.3-1.1c0-0.3-0.1-0.7-0.3-1c-0.2-0.3-0.5-0.5-0.8-0.6c-0.4-0.2-0.8-0.2-1.3-0.2
				c-0.3,0-0.5,0-0.8,0C63.9,421.1,63.7,421.1,63.6,421.1L63.6,421.1z"/>
			<path class="st16" d="M71.2,421.8h1.9c0.1,0,0.2,0.1,0.2,0.2c0,0.1,0.1,0.2,0.1,0.3c0,0.1,0,0.2,0.1,0.3c0,0.1,0,0.3,0,0.4
				c0.3-0.4,0.7-0.7,1.2-0.9c0.5-0.3,1.1-0.4,1.7-0.4c0.1,0,0.1,0,0.2,0.1v0v2.2c0,0.1-0.1,0.1-0.2,0.1c-0.4,0-0.8,0-1.2,0.1
				c-0.3,0.1-0.6,0.2-0.9,0.3c-0.2,0.1-0.4,0.2-0.6,0.4v5.6c0,0.1,0,0.2-0.1,0.2h-2.2c-0.1,0-0.2,0-0.2-0.1v0v-6.1
				c0-0.3,0-0.5,0-0.8c0-0.3,0-0.6,0-0.9c0-0.3,0-0.5,0-0.8C71,421.8,71.1,421.8,71.2,421.8C71.1,421.8,71.1,421.8,71.2,421.8
				L71.2,421.8z"/>
		</g>
	</g>
</g>
<rect x="60.4" y="465.3" transform="matrix(-1.836970e-16 1 -1 -1.836970e-16 541.6205 405.2616)" class="st17" width="15.7" height="16.3"/>
<g>
	<path class="st8" d="M76.9,556.2H59.8c-2.6,0-4.7,2.1-4.7,4.7v16.4c0,2.6,2.1,4.7,4.7,4.7h17.1c2.6,0,4.7-2.1,4.7-4.7v-16.4
		C81.5,558.3,79.5,556.2,76.9,556.2z"/>
	<g>
		<g id="waves_00000031180617131969466530000005886158606724757385_">
			<path d="M78,577.1c-0.5,0-0.9-0.3-1.3-0.6c-0.3-0.3-0.6-0.5-1-0.5c-0.4,0-0.6,0.2-1,0.5c-0.3,0.3-0.7,0.6-1.3,0.6
				c-0.5,0-0.9-0.3-1.3-0.6c-0.3-0.3-0.6-0.5-1-0.5s-0.6,0.2-1,0.5c-0.3,0.3-0.7,0.6-1.3,0.6s-0.9-0.3-1.3-0.6
				c-0.3-0.3-0.6-0.5-1-0.5c-0.4,0-0.6,0.2-1,0.5c-0.3,0.3-0.7,0.6-1.3,0.6c0,0,0,0,0,0c-0.9-0.1-1.4-0.6-1.7-0.9
				c-0.2-0.2-0.3-0.3-0.5-0.3c-0.4,0.1-0.9,0.4-1.2,0.7c-0.4,0.3-0.7,0.6-1,0.6c-0.1,0-0.2-0.1-0.2-0.2c0-0.1,0.1-0.2,0.2-0.2
				c0.2,0,0.5-0.2,0.7-0.5c0.4-0.3,0.9-0.7,1.5-0.8c0,0,0,0,0,0c0.3,0,0.5,0.2,0.8,0.5c0.3,0.3,0.7,0.7,1.4,0.8c0.4,0,0.6-0.2,1-0.5
				c0.3-0.3,0.7-0.6,1.3-0.6c0.5,0,0.9,0.3,1.3,0.6c0.3,0.3,0.6,0.5,1,0.5s0.6-0.2,1-0.5c0.3-0.3,0.7-0.6,1.3-0.6s0.9,0.3,1.3,0.6
				c0.3,0.3,0.6,0.5,1,0.5c0.4,0,0.6-0.2,1-0.5c0.3-0.3,0.7-0.6,1.3-0.6c0.5,0,0.9,0.3,1.3,0.6c0.3,0.3,0.6,0.5,1,0.5
				c0.1,0,0.2,0.1,0.2,0.2C78.2,577,78.1,577.1,78,577.1z"/>
		</g>
		<g id="hull_00000076584724139482646670000010849902092368813969_">
			<path d="M72.4,576.5c-0.1,0-0.2-0.1-0.2-0.1c-0.1-0.1,0-0.3,0.1-0.3c1.5-0.7,2.8-1.5,3.8-2.2l-14.4,0.9l0.4,0.8
				c0.1,0.1,0,0.3-0.1,0.3c-0.1,0.1-0.3,0-0.3-0.1l-0.6-1.2c0-0.1,0-0.2,0-0.2c0-0.1,0.1-0.1,0.2-0.1l15.5-1c0.1,0,0.2,0.1,0.2,0.1
				c0,0.1,0,0.2-0.1,0.3C75.9,574.7,74.4,575.6,72.4,576.5C72.5,576.5,72.5,576.5,72.4,576.5z"/>
		</g>
		<g id="front_sail_00000038376068902436658000000001043573559212946313_">
			<path d="M75.1,572.9C75,572.9,75,572.9,75.1,572.9c-0.2,0-0.2-0.1-0.3-0.1c-0.6-0.2-1-0.4-1.8-0.2c-0.1,0-0.3,0-0.3-0.2
				c-1.1-3.9-2.9-6.8-5.3-8.5c-0.1-0.1-0.1-0.2-0.1-0.3s0.2-0.2,0.3-0.1c1.4,0.4,3,1.6,4.4,3.3c1.5,1.8,2.7,3.8,3.3,5.8
				c0,0.1,0,0.2-0.1,0.2C75.2,572.9,75.1,572.9,75.1,572.9z M73.6,572c0.4,0,0.8,0.1,1.1,0.2c-1.1-3.1-3.4-5.9-5.5-7.4
				c0.7,0.7,1.3,1.5,1.9,2.5c0.8,1.3,1.5,2.9,2,4.7C73.2,572.1,73.4,572,73.6,572z"/>
		</g>
		<g id="rear_sail_00000047021168654067685100000007015747855397639554_">
			<path d="M62.5,573.5c-0.1,0-0.1,0-0.2-0.1c-0.1-0.1-0.1-0.2,0-0.3c3.4-4.4,1.2-9.2,0-11.1c-0.1-0.1,0-0.2,0-0.3s0.2-0.1,0.3-0.1
				c1.9,0.8,3.9,2.3,5.5,4c1.9,2.1,3.2,4.5,3.5,7c0,0.1,0,0.2-0.1,0.2c-0.1,0.1-0.2,0.1-0.2,0c-3.2-1.3-6.1-1.1-8.7,0.5
				C62.6,573.5,62.5,573.5,62.5,573.5z M63.1,562.4c0.6,1.2,1.3,2.8,1.4,4.7c0.2,2-0.3,3.8-1.3,5.5c1-0.5,1.9-0.8,3-0.9
				c1.6-0.2,3.2,0,4.9,0.7C70.2,567.5,66.1,563.9,63.1,562.4z"/>
		</g>
	</g>
</g>
<g>
	<g id="vlpb_00000093860453335710682600000001766339917116501923_">
		<g id="vlpc_00000122718567133418644380000011964841377084919949_">
			<g id="vlpd_00000060738622192444463480000001753343128000819857_">
				<path class="st4" d="M59.2,318h17.1c2.7,0,4.6,2.1,4.6,4.6v16.5c0,2.7-2.1,4.6-4.6,4.6H59.2c-2.7,0-4.6-2.1-4.6-4.6v-16.3
					C54.4,320.2,56.5,318,59.2,318z"/>
			</g>
		</g>
	</g>
	<g id="Layer_2_00000037683800662986853480000014266210332675463042_">
		<g id="Outlined_Mnemonics_Logos_00000053535829495752522670000013748690177050696633_">
			<g id="Ps_00000013192869558085392360000014736534476207653048_">
				<path class="st18" d="M60.3,336.3V325c0,0,0-0.2,0.2-0.2c0.2,0,0.4,0,0.7,0c0.2,0,0.4,0,0.7,0s0.7,0,1.1,0s0.5,0,0.9,0
					c0.9,0,1.8,0.2,2.3,0.4c0.7,0.2,1.2,0.2,1.6,0.7c0.4,0.4,0.7,0.7,0.9,1.2c0.2,0.5,0.2,0.9,0.2,1.4c0,0.9-0.2,1.8-0.7,2.5
					c-0.5,0.7-1.1,1.1-1.8,1.4c-0.7,0.2-1.6,0.4-2.5,0.4c-0.4,0-0.5,0-0.5,0c-0.2,0-0.4,0-0.5,0v3.6c0,0,0,0.2-0.2,0.2l0,0
					L60.3,336.3C60.3,336.5,60.3,336.5,60.3,336.3z M62.8,326.7v3.7c0.2,0,0.4,0,0.4,0h0.5c0.4,0,0.9,0,1.2-0.2
					c0.5,0,0.9-0.2,1.1-0.5s0.4-0.7,0.4-1.2c0-0.4,0-0.7-0.2-1.1c-0.2-0.2-0.5-0.4-0.9-0.5c-0.4-0.2-0.9-0.2-1.2-0.2
					c-0.4,0-0.5,0-0.7,0C62.9,326.7,62.8,326.7,62.8,326.7L62.8,326.7z"/>
				<path class="st18" d="M75.9,329.9c-0.4-0.2-0.7-0.4-1.1-0.4c-0.4-0.2-0.9-0.2-1.2-0.2c-0.2,0-0.5,0-0.7,0
					c-0.2,0-0.4,0.2-0.4,0.2c0,0.2-0.2,0.2-0.2,0.4s0,0.2,0.2,0.4c0.2,0.2,0.2,0.2,0.4,0.4c0.2,0.2,0.5,0.2,0.9,0.4
					c0.5,0.2,1.2,0.5,1.8,0.9c0.2,0,0.5,0.4,0.7,0.7s0.4,0.7,0.2,1.2c0,0.5-0.2,1.1-0.4,1.4c-0.4,0.5-0.7,0.9-1.2,1.1
					c-0.5,0.2-1.2,0.4-2.1,0.4c-0.5,0-1.1,0-1.6-0.2c-0.4,0-0.7-0.2-1.1-0.4l-0.2-0.2v-2c0,0,0,0,0-0.2c0,0,0,0,0.2,0
					c0.4,0.2,0.9,0.4,1.4,0.5c0.4,0.2,0.9,0.2,1.2,0.2c0.4,0,0.7,0,0.9-0.2c0.2,0,0.4-0.4,0.4-0.5s-0.2-0.4-0.4-0.5
					c-0.2-0.2-0.5-0.4-1.1-0.5c-0.4,0-0.9-0.2-1.4-0.5c-0.4-0.4-0.5-0.5-0.9-1.1c-0.2-0.4-0.2-0.7-0.2-1.1c0-0.5,0.2-0.9,0.4-1.4
					c0.4-0.4,0.7-0.7,1.2-1.1s1.2-0.4,2-0.4c0.5,0,0.9,0,1.4,0.2c0.4,0,0.7,0.2,0.9,0.2c0,0,0.2,0,0.2,0.2v0.2v1.8v0.2
					C75.9,329.9,75.9,329.9,75.9,329.9z"/>
			</g>
		</g>
	</g>
</g>
<g>
	<g>
		<g>
			<g id="vlpb_00000059286797767157371260000004821080591796590744_">
				<g id="vlpc_00000011739236895369609320000015266419035592993679_">
					<g id="vlpd_00000158022825130933446530000014583079618574824352_">
						<path class="st8" d="M59.8,460.4H77c2.7,0,4.7,2.2,4.7,4.7v16.7c0,2.7-2.2,4.7-4.7,4.7H59.8c-2.7,0-4.7-2.2-4.7-4.7l0-16.5
							C55,462.6,57.1,460.4,59.8,460.4z"/>
					</g>
				</g>
			</g>
		</g>
	</g>
</g>
<g>
	<path id="path0_fill_00000006672102649542403750000007182779731687251632_" class="st9" d="M66.7,480.9c1.3,0,2.4-1.1,2.4-2.4V476
		h-2.4c-1.3,0-2.4,1.1-2.4,2.4C64.2,479.8,65.3,480.9,66.7,480.9z"/>
	<path id="path1_fill_00000126324859965353504910000015650968777077999770_" class="st19" d="M64.2,473.5c0-1.3,1.1-2.4,2.4-2.4h2.4
		l0,4.9h-2.4C65.3,476,64.2,474.9,64.2,473.5z"/>
	<path id="path1_fill_00000119810281270593617810000017668754324508579221_" class="st20" d="M64.2,468.7c0-1.3,1.1-2.4,2.4-2.4h2.4
		v4.9h-2.4C65.3,471.1,64.2,470,64.2,468.7z"/>
	<path id="path2_fill_00000051381943168500925930000016706414633910165688_" class="st21" d="M69.1,466.2h2.4c1.3,0,2.4,1.1,2.4,2.4
		s-1.1,2.4-2.4,2.4h-2.4V466.2z"/>
	<path id="path3_fill_00000000207010946782555210000010307740889823150762_" class="st22" d="M74,473.5c0,1.3-1.1,2.4-2.4,2.4
		c-1.3,0-2.4-1.1-2.4-2.4c0-1.3,1.1-2.4,2.4-2.4C72.9,471.1,74,472.2,74,473.5z"/>
</g>
<g>
	<rect x="54.7" y="363.7" class="st23" width="26.9" height="26.9"/>
	<g id="vlpa_00000137101496696711123960000015390269498552861312_">
		<g id="vlpb_00000177443112676636110670000016403248357629265596_">
			<g id="vlpc_00000164499344346558228020000015976010228175117707_">
				<g id="vlpd_00000038394961396462047630000011248403998799702155_">
					<path class="st4" d="M59.6,364.1h17.2c2.7,0,4.7,2.2,4.7,4.7l0,16.7c0,2.7-2.2,4.7-4.7,4.7H59.6c-2.7,0-4.7-2.2-4.7-4.7l0-16.5
						C54.7,366.2,56.9,364.1,59.6,364.1z"/>
				</g>
			</g>
		</g>
		<g id="vlpe_00000148649375879092023740000003315907049447693962_">
			<g>
				<g id="vlpf_00000070119741308433464870000012124080515360393092_">
					<path class="st16" d="M65.5,379.7h-4.1l-0.9,2.7c0,0.2-0.2,0.2-0.2,0.2h-2c-0.2,0-0.2,0-0.2-0.2l3.6-10.2c0-0.2,0-0.2,0.2-0.4
						c0-0.4,0-0.5,0-0.9l0,0l0,0h2.9H65l4.1,11.5c0,0.2,0,0.2-0.2,0.2h-2.3c0,0-0.2,0-0.2-0.2L65.5,379.7L65.5,379.7z M62.1,377.5
						H65c0-0.2-0.2-0.5-0.2-0.7c-0.2-0.4-0.4-0.7-0.5-1.1c0-0.4-0.2-0.7-0.2-1.1c0-0.4-0.2-0.5-0.4-0.9c0-0.4-0.2-0.5-0.2-0.9l0,0
						c-0.2,0.5-0.4,0.9-0.5,1.4c-0.2,0.5-0.2,1.1-0.4,1.6C62.4,376.4,62.3,377,62.1,377.5z"/>
					<path class="st16" d="M75.7,378.8h-3.6c0,0.4,0.2,0.7,0.4,1.1c0.2,0.4,0.5,0.5,0.9,0.7s0.9,0.4,1.4,0.4c0.4,0,0.7,0,1.1-0.2
						c0.4,0,0.7-0.2,1.1-0.2l0,0v1.8c0,0,0,0,0,0.2l0,0c-0.4,0.2-0.7,0.2-1.1,0.4c-0.5,0.2-1.1,0.2-1.6,0.2c-0.9,0-1.6-0.2-2.2-0.4
						c-0.5-0.2-1.1-0.5-1.4-1.1c-0.5-0.7-0.7-1.3-0.9-1.8c-0.2-0.5-0.2-1.1-0.2-1.6c0-0.5,0-1.3,0.4-1.8c0.2-0.5,0.5-1.1,0.9-1.6
						c0.2-0.4,0.7-0.7,1.3-0.9s1.1-0.4,1.8-0.4c0.5,0,1.3,0.2,1.8,0.4c0.5,0.2,0.9,0.5,1.3,0.9c0.4,0.4,0.5,0.7,0.7,1.3
						c0.2,0.4,0.2,0.9,0.2,1.4c0,0.2,0,0.5,0,0.7s0,0.4,0,0.5c0,0,0,0.2-0.2,0.2c0,0-0.2,0-0.4,0c-0.2,0-0.4,0-0.7,0
						C76.2,378.8,75.9,378.8,75.7,378.8L75.7,378.8z M72.1,377.1h2.3c0.4,0,0.5,0,0.7,0h0.2v-0.4c0-0.2,0-0.4,0-0.4
						c-0.2-0.5-0.7-1.1-1.4-1.1c-0.7,0-1.3,0.4-1.6,0.9C72.3,376.6,72.1,376.8,72.1,377.1z"/>
				</g>
			</g>
		</g>
	</g>
</g>
<rect x="266.3" y="179.1" transform="matrix(0.7071 0.7071 -0.7071 0.7071 212.5452 -139.1053)" class="st24" width="15.7" height="15.7"/>
<rect x="54.6" y="136.2" class="st23" width="438.6" height="75.5"/>
<text transform="matrix(1 0 0 1 54.5571 143.9057)"><tspan x="0" y="0" class="st4 st25 st14">I’ve always been deeply curious about how things work — especially in the digital world. </tspan><tspan x="0" y="12.4" class="st4 st25 st14">That curiosity turned into a passion, and over the years, it pushed me to explore and </tspan><tspan x="0" y="24.8" class="st4 st25 st14">learn a wide range of tools, software, and technologies. Whether it&apos;s design, develop</tspan><tspan x="412.5" y="24.8" class="st4 st25 st14">-</tspan><tspan x="0" y="37.2" class="st4 st25 st14">ment, or automation, I dive in with focus and genuine interest. Every skill I’ve picked up </tspan><tspan x="0" y="49.6" class="st4 st25 st14">wasn’t just a checkbox — it was part of a journey I truly enjoyed .</tspan></text>
<text transform="matrix(1 0 0 1 52.8441 96.5241)" class="st4 st26 st27 st28">Skills</text>
<rect x="53.8" y="112.5" class="st1" width="95.5" height="4"/>
<rect x="76.5" y="116.5" class="st24" width="19.6" height="19.6"/>
<line class="st29" x1="480.9" y1="299" x2="480.9" y2="311.2"/>
<line class="st29" x1="480.9" y1="349.4" x2="480.9" y2="361.7"/>
<line class="st29" x1="480.9" y1="397.4" x2="480.9" y2="409.7"/>
<line class="st29" x1="480.9" y1="445.4" x2="480.9" y2="457.6"/>
<line class="st29" x1="480.9" y1="493.3" x2="480.9" y2="505.5"/>
<line class="st29" x1="480.9" y1="541.2" x2="480.9" y2="553.5"/>
<line class="st29" x1="66.7" y1="299" x2="66.7" y2="311.2"/>
<line class="st29" x1="66.7" y1="349.4" x2="66.7" y2="361.7"/>
<line class="st29" x1="66.7" y1="397.4" x2="66.7" y2="409.7"/>
<line class="st29" x1="66.7" y1="445.4" x2="66.7" y2="457.6"/>
<line class="st29" x1="66.7" y1="493.3" x2="66.7" y2="505.5"/>
<line class="st29" x1="66.7" y1="541.2" x2="66.7" y2="553.5"/>
<line class="st29" x1="387.8" y1="568.6" x2="448.7" y2="568.6"/>
<line class="st29" x1="66.7" y1="261.2" x2="66.7" y2="253.2"/>
<line class="st29" x1="480.9" y1="261.2" x2="480.9" y2="253.2"/>
<line class="st29" x1="135.2" y1="244.1" x2="170.7" y2="244.1"/>
<line class="st29" x1="91.7" y1="569.5" x2="143.7" y2="569.5"/>
<line class="st29" x1="402.6" y1="242.2" x2="353.6" y2="242.2"/>
<polygon class="st30" points="474.2,274.2 487.8,274.2 486.6,288.1 481,289.7 475.5,288.1 "/>
<polygon class="st6" points="485.3,277 476.8,277 476.9,278.7 483.4,278.7 483.3,280.5 479,280.5 479.1,282.1 483.1,282.1 
	482.9,284.4 481,284.9 479.1,284.4 479,283 477.3,283 477.5,285.5 481,286.6 484.5,285.6 "/>
<g>
	<path class="st18" d="M482.5,475.4c0-0.8-0.7-1.5-1.5-1.5c-0.8,0-1.5,0.7-1.5,1.5c0,0.8,0.7,1.5,1.5,1.5
		C481.8,476.9,482.5,476.2,482.5,475.4z"/>
	<path class="st31" d="M485.9,472.7c0.3-1.3,0.7-3.6-0.7-4.4c-1.4-0.8-3.3,0.7-4.2,1.6c-1-0.9-2.9-2.4-4.3-1.6
		c-1.4,0.8-1,3.1-0.7,4.4c-1.3,0.4-3.6,1.1-3.6,2.7c0,1.6,2.3,2.4,3.6,2.8c-0.3,1.3-0.7,3.6,0.7,4.3c1.4,0.8,3.3-0.7,4.3-1.6
		c1,0.9,2.8,2.4,4.2,1.6c1.4-0.8,1-3.1,0.7-4.4c1.3-0.4,3.5-1.2,3.5-2.8C489.5,473.8,487.2,473,485.9,472.7z M485.8,477.5
		c-0.2-0.7-0.5-1.4-0.9-2.1c0.3-0.7,0.6-1.4,0.8-2.1c1,0.3,3,0.9,3,2.1C488.8,476.6,486.8,477.2,485.8,477.5z M484.9,482
		c-1.1,0.6-2.6-0.8-3.3-1.5c0.5-0.5,1-1.1,1.4-1.8c0.8-0.1,1.6-0.2,2.3-0.3C485.5,479.3,486,481.4,484.9,482z M477.1,481.9
		c-1.1-0.6-0.6-2.6-0.3-3.6c0.7,0.1,1.5,0.3,2.3,0.3c0.5,0.6,1,1.2,1.5,1.7C479.9,481,478.2,482.5,477.1,481.9z M473.2,475.4
		c0-1.2,2.1-1.8,3-2.1c0.2,0.7,0.5,1.4,0.8,2.1c-0.3,0.7-0.6,1.4-0.8,2.1C475.3,477.3,473.2,476.6,473.2,475.4z M477.1,468.9
		c1.1-0.6,2.7,0.9,3.4,1.5c-0.5,0.5-1,1.1-1.4,1.7c-0.8,0.1-1.6,0.2-2.3,0.3C476.5,471.5,476,469.5,477.1,468.9z M483.5,472.9
		c0.5,0.1,1.1,0.2,1.6,0.3c-0.1,0.5-0.3,0.9-0.5,1.4C484.2,474,483.9,473.5,483.5,472.9z M481,470.9c0.3,0.4,0.7,0.7,1,1.2
		c-0.7,0-1.3,0-2,0C480.3,471.7,480.7,471.3,481,470.9z M477.5,474.6c-0.2-0.5-0.4-1-0.5-1.4c0.5-0.1,1-0.2,1.5-0.3
		C478.2,473.5,477.8,474,477.5,474.6z M478.5,478c-0.6-0.1-1.1-0.1-1.6-0.2c0.2-0.5,0.3-1,0.6-1.5
		C477.8,476.8,478.2,477.4,478.5,478z M481,480c-0.3-0.4-0.7-0.8-1-1.2c0.7,0,1.3,0,2,0C481.7,479.2,481.4,479.6,481,480z
		 M484.5,476.2c0.2,0.5,0.4,1,0.6,1.5c-0.5,0.1-1,0.2-1.6,0.3C483.9,477.4,484.2,476.8,484.5,476.2z M482.6,478
		c-1,0.1-2.1,0.1-3.1,0c-0.6-0.8-1.1-1.7-1.6-2.6c0.4-0.9,1-1.8,1.5-2.6c1-0.1,2.1-0.1,3.1,0c0.6,0.8,1.1,1.7,1.6,2.6
		C483.7,476.3,483.1,477.2,482.6,478z M484.9,468.9c1.1,0.6,0.6,2.7,0.4,3.6c-0.7-0.2-1.5-0.3-2.3-0.3c-0.5-0.6-1-1.2-1.4-1.7
		C482.2,469.7,483.8,468.3,484.9,468.9z"/>
</g>
</svg>
