<?xml version="1.0" encoding="utf-8"?>
<!-- Generator: Adobe Illustrator 27.9.1, SVG Export Plug-In . SVG Version: 6.00 Build 0)  -->
<svg version="1.1" id="Layer_1" xmlns="http://www.w3.org/2000/svg" xmlns:xlink="http://www.w3.org/1999/xlink" x="0px" y="0px"
	 viewBox="0 0 26.5 26" style="enable-background:new 0 0 26.5 26;" xml:space="preserve">
<style type="text/css">
	.st0{fill:#F7F6E2;}
	.st1{fill:#87CCD1;}
	.st2{fill:#2F1110;}
	.st3{fill:#F7991C;}
	.st4{fill:#101519;}
	.st5{fill:#F5DE17;}
	.st6{fill:#3555A5;}
	.st7{fill:#E24E26;}
	.st8{fill:#FFFFFF;}
	.st9{fill:#47B97E;}
	.st10{fill:#FFC40D;}
	.st11{fill:#DA3226;}
	.st12{fill:#74A89A;}
	.st13{fill:#918FC6;}
	.st14{fill:none;stroke:#F7F5E2;stroke-miterlimit:10;}
	.st15{fill:#2ECEE8;}
	.st16{fill:#8062A9;}
	.st17{fill:#EF4F23;}
	.st18{fill:#F27264;}
	.st19{fill:#53C0DD;}
	.st20{fill:none;}
	.st21{fill:#F0F5DA;}
	.st22{fill:none;stroke:#020202;stroke-width:0.25;stroke-miterlimit:10;}
	.st23{fill:#F9F9F9;}
	.st24{fill-rule:evenodd;clip-rule:evenodd;fill:#2ECEE8;}
</style>
<g>
	<g id="vlpb_00000137101550133030970610000001144422734783362223_">
		<g id="vlpc_00000021104131962963587210000008704412756701575582_">
			<g id="vlpd_00000140708472948726500710000016625335902394162074_">
				<path class="st4" d="M4.7,0h17.2c2.7,0,4.7,2.2,4.7,4.7v16.7c0,2.7-2.2,4.7-4.7,4.7H4.7C2,26,0,23.8,0,21.3V4.8
					C-0.2,2.2,2,0,4.7,0z"/>
			</g>
		</g>
	</g>
	<path class="st8" d="M18.6,6.2c-0.1-0.1-0.2-0.1-0.6-0.1c-0.5,0-0.5,0-0.6,0.1c-0.1,0.1-0.2,0.2-0.3,0.4c0,0.1,0,1.5,0,4v3.9l1,1.5
		l1,1.5l0-5.4c0-3.8,0-5.4,0-5.5C18.8,6.4,18.7,6.3,18.6,6.2z"/>
	<path class="st8" d="M13.1,12.3c-2-3-3.7-5.5-3.7-5.6C9.3,6.6,9.2,6.6,8.5,6.6C8,6.6,8,6.6,7.8,6.6c-0.1,0-0.2,0.1-0.2,0.2L7.5,6.9
		l0,6l0,6l0.1,0.1c0,0.1,0.1,0.2,0.2,0.2l0.1,0.1h0.5c0.5,0,0.5,0,0.6-0.1c0.1-0.1,0.2-0.1,0.3-0.3c0.1-0.1,0.1-0.3,0.1-4.6
		c0-2.5,0-4.5,0-4.5c0,0,1.4,2,3.1,4.6l3.1,4.6l2.5,3.3c0.8,1.1,1.9,2.6,2.6,3.6h1.2c0.1,0,0.2,0,0.3,0l-3-4.5
		C17.8,19.5,15.1,15.4,13.1,12.3z"/>
</g>
</svg>
