<?xml version="1.0" encoding="utf-8"?>
<!-- Generator: Adobe Illustrator 27.9.1, SVG Export Plug-In . SVG Version: 6.00 Build 0)  -->
<svg version="1.1" id="Layer_1" xmlns="http://www.w3.org/2000/svg" xmlns:xlink="http://www.w3.org/1999/xlink" x="0px" y="0px"
	 viewBox="0 0 249.2 104.6" style="enable-background:new 0 0 249.2 104.6;" xml:space="preserve">
<style type="text/css">
	.st0{fill:#121A41;}
	.st1{fill:#27366D;}
	.st2{fill:#121B41;}
</style>
<path class="st0" d="M5.6,98.5c2,0.2,4-0.8,4.9-2.6c6-11.2,14.1-21,23.9-29c17.3-14.2,39.1-22,61.5-22c10.5,0,20.8,1.7,30.8,5
	c13.8,4.6,26.6,12.4,37,22.6c0.6,0.6,1.1,1.1,1.8,1.8c20.1,19.6,46.6,30.4,74.6,30.4c1.5,0,3-0.1,4.5-0.1c1.5-0.1,2.9-0.8,3.8-2
	c0.9-1.2,1.2-2.8,0.7-4.2l0,0C234.5,47.5,191.4,9.5,139.3,1.6c-6.8-1-13.7-1.6-20.7-1.6C99.6,0,81.1,3.9,63.9,11.6
	c-0.2,0.1-0.3,0.1-0.4,0.2c-0.2,0.1-0.4,0.2-0.6,0.3l-0.2,0.1c-2.2,1-4.1,1.9-5.9,2.9c-2.6,1.3-5,2.7-7.3,4
	c-0.1,0.1-0.3,0.2-0.4,0.3c-6.8,4.9-12.4,11.4-16.3,18.9c-7.3,2.4-13.9,6.5-19.3,12c-0.1,0.1-0.2,0.2-0.3,0.3
	c-2.7,3.3-4.9,6.3-6.9,9.3c-0.1,0.1-0.1,0.2-0.2,0.3C2.1,67.1,0,75.2,0,83.3c0,3.9,0.5,7.7,1.4,11.5C1.9,96.7,3.6,98.2,5.6,98.5z"/>
</svg>
