<?xml version="1.0" encoding="utf-8"?>
<!-- Generator: Adobe Illustrator 27.9.1, SVG Export Plug-In . SVG Version: 6.00 Build 0)  -->
<svg version="1.1" id="Layer_1" xmlns="http://www.w3.org/2000/svg" xmlns:xlink="http://www.w3.org/1999/xlink" x="0px" y="0px"
	 viewBox="0 0 265.7 79" style="enable-background:new 0 0 265.7 79;" xml:space="preserve">
<style type="text/css">
	.st0{fill:#121A41;}
	.st1{fill:#27366D;}
	.st2{fill:#121B41;}
</style>
<path class="st0" d="M265.6,0c0,0-66.3,0-132.7,0S0.2,0,0.2,0C0.2,5.9,0,11.8,0,17.8C0.3,50.7,26.7,79,60.2,79
	c30.8,0,56.1-23.2,59.6-53c1.3-6,6.7-10.6,13.1-10.6c6.4,0,11.8,4.5,13.1,10.6c3.5,29.8,28.8,53,59.6,53c33.5,0,59.8-28.2,60.1-61.2
	C265.8,11.8,265.6,5.9,265.6,0z"/>
</svg>
