<?xml version="1.0" encoding="utf-8"?>
<!-- Generator: Adobe Illustrator 27.9.1, SVG Export Plug-In . SVG Version: 6.00 Build 0)  -->
<svg version="1.1" id="Layer_1" xmlns="http://www.w3.org/2000/svg" xmlns:xlink="http://www.w3.org/1999/xlink" x="0px" y="0px"
	 viewBox="0 0 500 1250" style="enable-background:new 0 0 500 1250;" xml:space="preserve">
<style type="text/css">
	.st0{fill:#88D1D4;}
	.st1{fill:#121B41;}
</style>
<g>
	<path class="st0" d="M219,312.4c0,155.1,125.9,281,281,281V31.6C344.9,31.6,219,157.2,219,312.4z"/>
	<path class="st1" d="M451.8,414.6c2.7-18.8,23.2-33.4,48-33.4v-16.6c-29.3,0-54.3,14.1-64.7,34c-17.2-20.5-29.3-49-33.2-81.3
		c-0.8,7.2-1.4,14.6-1.4,22.1c0,75.4,44.3,136.5,99,136.5v-44.3C482.4,431.7,466,425.5,451.8,414.6z"/>
	<g id="XMLID_282_">
		<path class="st1" d="M482.4,389.6c-1.4,0-2.3,1.2-2.3,2.7v1.2c0,1.6,1,2.7,2.3,2.7H500v-6.4h-17.6V389.6z"/>
		<path class="st1" d="M407.4,269.8v10.4h0.2c0,1.2-0.2,2.1-0.2,3.3c0,23.8,19.3,43.2,43.2,43.2c22.1,0,40.4-16.6,42.8-38.1
			c0.8-3.3,3.1-6.1,6.4-7V270h-92.4V269.8z"/>
		<path class="st1" d="M498.8,140.7c-13.7,0-27,2.7-39.3,8.4c-0.2,0-0.2,0-0.4,0.2c-0.2,0-0.2,0.2-0.4,0.2h-0.2
			c-1.6,0.8-2.9,1.4-4.3,2.1c-2,1-3.5,2-5.3,2.9c-0.2,0-0.2,0.2-0.2,0.2c-4.9,3.5-9,8.2-11.7,13.5c-5.3,1.8-10,4.7-13.9,8.6L423,177
			c-2,2.3-3.5,4.5-4.9,6.6l-0.2,0.2c-2.9,5.1-4.3,10.9-4.3,16.6c0,2.7,0.4,5.5,1,8.2c0.4,1.4,1.6,2.5,2.9,2.7
			c1.4,0.2,2.9-0.6,3.5-1.8c4.3-8,10.2-15,17.2-20.9c12.5-10.2,28.1-15.8,44.1-15.8c5.9,0,11.7,0.8,17.4,2.1v-34.4
			C499.6,140.7,499.2,140.7,498.8,140.7z"/>
		<path class="st1" d="M480.1,410.6c-5.9,4.1-9.6,9.8-9.6,16c0,12.1,13.1,21.9,29.3,21.9v-32.2C492.2,416.5,485.4,414.4,480.1,410.6
			z"/>
	</g>
	<path id="XMLID_281_" class="st1" d="M425.4,266.9"/>
</g>
</svg>
