<?xml version="1.0" encoding="utf-8"?>
<!-- Generator: Adobe Illustrator 27.9.1, SVG Export Plug-In . SVG Version: 6.00 Build 0)  -->
<svg version="1.1" id="Layer_1" xmlns="http://www.w3.org/2000/svg" xmlns:xlink="http://www.w3.org/1999/xlink" x="0px" y="0px"
	 viewBox="0 0 110.3 220.5" style="enable-background:new 0 0 110.3 220.5;" xml:space="preserve">
<style type="text/css">
	.st0{fill:#88D1D4;}
	.st1{fill:#121B41;}
</style>
<g id="XMLID_00000147918277226333365270000015295832025616800920_">
	<path class="st0" d="M0,110.3c0,60.9,49.4,110.3,110.3,110.3V0C49.4,0,0,49.4,0,110.3z"/>
	<path class="st1" d="M85.6,162.5c1.4-9.6,11.9-17.1,24.6-17.1V137c-15,0-27.8,7.2-33.1,17.4c-8.8-10.5-15-25.1-17-41.6
		c-0.4,3.7-0.7,7.5-0.7,11.3c0,38.6,22.7,69.9,50.7,69.9v-22.7C101.3,171.3,92.9,168.1,85.6,162.5z"/>
	<g id="XMLID_00000089546064797753154960000006777389215240067747_">
		<path class="st1" d="M101.3,150c-0.7,0-1.2,0.6-1.2,1.4v0.6c0,0.8,0.5,1.4,1.2,1.4h9V150H101.3z"/>
		<path class="st1" d="M63,88.1v5.3H63c0,0.6-0.1,1.1-0.1,1.7c0,12.2,9.9,22.1,22.1,22.1c11.3,0,20.7-8.5,21.9-19.5
			c0.4-1.7,1.6-3.1,3.3-3.6v-5.9H63z"/>
		<path class="st1" d="M109.7,22.3c-7,0-13.8,1.4-20.1,4.3c-0.1,0-0.1,0-0.2,0.1c-0.1,0-0.1,0.1-0.2,0.1l-0.1,0
			c-0.8,0.4-1.5,0.7-2.2,1.1c-1,0.5-1.8,1-2.7,1.5c-0.1,0-0.1,0.1-0.1,0.1c-2.5,1.8-4.6,4.2-6,6.9c-2.7,0.9-5.1,2.4-7.1,4.4
			c0,0-0.1,0.1-0.1,0.1c-1,1.2-1.8,2.3-2.5,3.4c0,0-0.1,0.1-0.1,0.1C66.8,47,66,50,66,53c0,1.4,0.2,2.8,0.5,4.2
			c0.2,0.7,0.8,1.3,1.5,1.4c0.7,0.1,1.5-0.3,1.8-0.9c2.2-4.1,5.2-7.7,8.8-10.7c6.4-5.2,14.4-8.1,22.6-8.1c3,0,6,0.4,8.9,1.1V22.4
			C110.1,22.4,109.9,22.3,109.7,22.3z"/>
		<path class="st1" d="M100.1,160.6c-3,2.1-4.9,5-4.9,8.2c0,6.2,6.7,11.2,15,11.2v-16.5C106.3,163.5,102.8,162.4,100.1,160.6z"/>
	</g>
	<path id="XMLID_00000020395558337779791960000010659881528738753974_" class="st1" d="M72.1,86.9"/>
</g>
</svg>
