<?xml version="1.0" encoding="utf-8"?>
<!-- Generator: Adobe Illustrator 27.9.1, SVG Export Plug-In . SVG Version: 6.00 Build 0)  -->
<svg version="1.1" id="Layer_1" xmlns="http://www.w3.org/2000/svg" xmlns:xlink="http://www.w3.org/1999/xlink" x="0px" y="0px"
	 viewBox="0 0 1080 4469" style="enable-background:new 0 0 1080 4469;" xml:space="preserve">
<style type="text/css">
	.st0{fill:#F7F6E2;}
	.st1{fill:#88D1D4;}
	.st2{fill:#121B41;}
	.st3{font-family:'Poppins-Regular';}
	.st4{font-size:37.0974px;}
	.st5{fill:#FFFFFF;}
	.st6{fill:#222B42;}
	.st7{fill:#222B43;}
	.st8{font-size:19.4817px;}
	.st9{font-size:58.5129px;}
</style>
<rect x="2.9" class="st0" width="538.1" height="709.8"/>
<rect x="538.6" class="st1" width="541.4" height="709.8"/>
<path class="st1" d="M553.6,130.5V351c60.9,0,110.3-49.4,110.3-110.3S614.5,130.5,553.6,130.5z"/>
<g>
	<path class="st2" d="M347.5,531.7v-70h9.9l15.5,36.4v-36.4h11.7v70h-9.5L359.7,493v38.7H347.5z"/>
	<path class="st2" d="M395.5,531.7v-70h14.2v70H395.5z"/>
	<path class="st2" d="M420.4,531.7v-70h15.2v29.5l13.4-29.5h14.7l-14,31.4l15,38.5h-15.3L438,500.3l-2.4,4v27.4H420.4z"/>
	<path class="st2" d="M491.8,532.6c-5.1,0-9.2-0.9-12.2-2.8c-3-1.8-5.1-4.5-6.4-7.9c-1.3-3.4-1.9-7.5-1.9-12.3v-26.1
		c0-4.8,0.6-8.9,1.9-12.3c1.3-3.4,3.4-6,6.4-7.8c3-1.8,7.1-2.7,12.2-2.7c5.2,0,9.3,0.9,12.3,2.7c3,1.8,5.2,4.4,6.5,7.8
		c1.3,3.4,1.9,7.4,1.9,12.2v26.1c0,4.8-0.6,8.9-1.9,12.3c-1.3,3.4-3.5,6.1-6.5,7.9C501.1,531.7,497,532.6,491.8,532.6z M491.8,522.3
		c1.8,0,3.2-0.4,4.1-1.3c0.9-0.8,1.4-2,1.7-3.4c0.3-1.4,0.4-2.9,0.4-4.5v-33.1c0-1.6-0.1-3.1-0.4-4.5c-0.3-1.4-0.9-2.5-1.7-3.3
		c-0.9-0.8-2.2-1.3-4.1-1.3c-1.7,0-3,0.4-3.9,1.3c-0.9,0.8-1.4,1.9-1.7,3.3c-0.3,1.4-0.4,2.9-0.4,4.5v33.1c0,1.6,0.1,3.1,0.4,4.5
		c0.3,1.4,0.8,2.5,1.7,3.4C488.7,521.9,490.1,522.3,491.8,522.3z"/>
	<path class="st2" d="M347.5,611.8v-70h17.1c5.9,0,10.5,0.8,13.9,2.3c3.3,1.5,5.7,3.9,7,7.2c1.4,3.3,2.1,7.4,2.1,12.5v25.5
		c0,5.2-0.7,9.4-2.1,12.8c-1.4,3.3-3.7,5.8-7,7.4c-3.3,1.6-7.8,2.4-13.6,2.4H347.5z M361.8,601.9h3c2.6,0,4.5-0.4,5.7-1.3
		c1.1-0.8,1.8-2.1,2.1-3.7c0.3-1.6,0.4-3.7,0.4-6.1V562c0-2.4-0.2-4.4-0.6-5.8c-0.4-1.5-1.1-2.5-2.2-3.2c-1.1-0.7-3-1-5.5-1h-2.9
		V601.9z"/>
	<path class="st2" d="M416.5,612.7c-5.1,0-9.2-0.9-12.2-2.8c-3-1.8-5.1-4.5-6.4-7.9c-1.3-3.4-1.9-7.5-1.9-12.3v-26.1
		c0-4.8,0.6-8.9,1.9-12.3c1.3-3.4,3.4-6,6.4-7.8c3-1.8,7.1-2.7,12.2-2.7c5.2,0,9.3,0.9,12.3,2.7c3,1.8,5.2,4.4,6.5,7.8
		c1.3,3.4,1.9,7.4,1.9,12.2v26.1c0,4.8-0.6,8.9-1.9,12.3c-1.3,3.4-3.5,6.1-6.5,7.9C425.8,611.8,421.7,612.7,416.5,612.7z
		 M416.5,602.5c1.8,0,3.2-0.4,4.1-1.3c0.9-0.8,1.4-2,1.7-3.4c0.3-1.4,0.4-2.9,0.4-4.5v-33.1c0-1.6-0.1-3.1-0.4-4.5
		c-0.3-1.4-0.9-2.5-1.7-3.3c-0.9-0.8-2.2-1.3-4.1-1.3c-1.7,0-3,0.4-3.9,1.3c-0.9,0.8-1.4,1.9-1.7,3.3c-0.3,1.4-0.4,2.9-0.4,4.5v33.1
		c0,1.6,0.1,3.1,0.4,4.5c0.3,1.4,0.8,2.5,1.7,3.4C413.4,602,414.7,602.5,416.5,602.5z"/>
	<path class="st2" d="M446.8,611.8v-70H461v60.3h16.4v9.7H446.8z"/>
	<path class="st2" d="M480.7,611.8l13.6-70h15.8l13.5,70h-13.2l-2.5-15.4h-11.1l-2.7,15.4H480.7z M498.1,587.7h8.4l-4.2-28.2
		L498.1,587.7z"/>
</g>
<g>
</g>
<g>
	<text transform="matrix(1 0 0 1 306.8237 402.4614)"><tspan x="0" y="0" class="st2 st3 st4">Branding &amp;</tspan><tspan x="-51.8" y="37.1" class="st2 st3 st4">Web Designer</tspan></text>
</g>
<g>
	<defs>
		
			<rect id="SVGID_1_" x="541" y="125.4" transform="matrix(-1 -1.224647e-16 1.224647e-16 -1 1412.1533 835.2175)" width="330.3" height="584.4"/>
	</defs>
	<clipPath id="SVGID_00000076579985532211104890000002724581449872642206_">
		<use xlink:href="#SVGID_1_"  style="overflow:visible;"/>
	</clipPath>
</g>
<g id="XMLID_280_">
	<path class="st1" d="M430.7,245.4c0,60.9,49.4,110.3,110.3,110.3V135.2C480.1,135.2,430.7,184.5,430.7,245.4z"/>
	<path class="st2" d="M516.3,297.7c1.4-9.6,11.9-17.1,24.6-17.1v-8.5c-15,0-27.8,7.2-33.1,17.4c-8.8-10.5-15-25.1-17-41.6
		c-0.4,3.7-0.7,7.5-0.7,11.3c0,38.6,22.7,69.9,50.7,69.9v-22.7C532,306.5,523.6,303.3,516.3,297.7z"/>
	<g id="XMLID_282_">
		<path class="st2" d="M532,287.6c-0.7,0-1.2,0.6-1.2,1.4v0.6c0,0.8,0.5,1.4,1.2,1.4h9v-3.3H532z"/>
		<path class="st2" d="M493.6,225.7v5.3h0.1c0,0.6-0.1,1.1-0.1,1.7c0,12.2,9.9,22.1,22.1,22.1c11.3,0,20.7-8.5,21.9-19.5
			c0.4-1.7,1.6-3.1,3.3-3.6v-5.9H493.6z"/>
		<path class="st2" d="M540.4,157.5c-7,0-13.8,1.4-20.1,4.3c-0.1,0-0.1,0-0.2,0.1c-0.1,0-0.1,0.1-0.2,0.1l-0.1,0
			c-0.8,0.4-1.5,0.7-2.2,1.1c-1,0.5-1.8,1-2.7,1.5c-0.1,0-0.1,0.1-0.1,0.1c-2.5,1.8-4.6,4.2-6,6.9c-2.7,0.9-5.1,2.4-7.1,4.4
			c0,0-0.1,0.1-0.1,0.1c-1,1.2-1.8,2.3-2.5,3.4c0,0-0.1,0.1-0.1,0.1c-1.5,2.6-2.2,5.6-2.2,8.5c0,1.4,0.2,2.8,0.5,4.2
			c0.2,0.7,0.8,1.3,1.5,1.4c0.7,0.1,1.5-0.3,1.8-0.9c2.2-4.1,5.2-7.7,8.8-10.7c6.4-5.2,14.4-8.1,22.6-8.1c3,0,6,0.4,8.9,1.1v-17.6
			C540.8,157.5,540.6,157.5,540.4,157.5z"/>
		<path class="st2" d="M530.8,295.7c-3,2.1-4.9,5-4.9,8.2c0,6.2,6.7,11.2,15,11.2v-16.5C537,298.7,533.5,297.6,530.8,295.7z"/>
	</g>
	<path id="XMLID_281_" class="st2" d="M502.8,222.1"/>
</g>
<path class="st5" d="M553.6,351"/>
<image style="overflow:visible;" width="1331" height="829" xlink:href="B7E64D67.jpg"  transform="matrix(0.807 0 0 0.807 1638.9438 867)">
</image>
<rect x="1759.4" y="1644" class="st0" width="1079" height="1445"/>
<text transform="matrix(1 0 0 1 2201.582 1836.5)" class="st3" style="font-size:40.2508px;">PARTNERS</text>
<circle cx="1754.6" cy="2012" r="115.6"/>
<circle cx="2027.9" cy="2012" r="115.6"/>
<circle cx="2301.2" cy="2012" r="115.6"/>
<circle cx="2574.5" cy="2012" r="115.6"/>
<circle cx="2847.8" cy="2012" r="115.6"/>
<g id="XMLID_00000147918277226333365270000015295832025616800920_">
	<path class="st1" d="M1100,110.3c0,60.9,49.4,110.3,110.3,110.3V0C1149.4,0,1100,49.4,1100,110.3z"/>
	<path class="st2" d="M1185.6,162.5c1.4-9.6,11.9-17.1,24.6-17.1V137c-15,0-27.8,7.2-33.1,17.4c-8.8-10.5-15-25.1-17-41.6
		c-0.4,3.7-0.7,7.5-0.7,11.3c0,38.6,22.7,69.9,50.7,69.9v-22.7C1201.3,171.3,1192.9,168.1,1185.6,162.5z"/>
	<g id="XMLID_00000089546064797753154960000006777389215240067747_">
		<path class="st2" d="M1201.3,150c-0.7,0-1.2,0.6-1.2,1.4v0.6c0,0.8,0.5,1.4,1.2,1.4h9V150H1201.3z"/>
		<path class="st2" d="M1163,86.9v5.3h0.1c0,0.6-0.1,1.1-0.1,1.7c0,12.2,9.9,22.1,22.1,22.1c11.3,0,20.7-8.5,21.9-19.5
			c0.4-1.7,1.6-3.1,3.3-3.6v-5.9H1163z"/>
		<path class="st2" d="M1209.7,22.3c-7,0-13.8,1.4-20.1,4.3c-0.1,0-0.1,0-0.2,0.1c-0.1,0-0.1,0.1-0.2,0.1l-0.1,0
			c-0.8,0.4-1.5,0.7-2.2,1.1c-1,0.5-1.8,1-2.7,1.5c-0.1,0-0.1,0.1-0.1,0.1c-2.5,1.8-4.6,4.2-6,6.9c-2.7,0.9-5.1,2.4-7.1,4.4
			c0,0-0.1,0.1-0.1,0.1c-1,1.2-1.8,2.3-2.5,3.4c0,0-0.1,0.1-0.1,0.1c-1.5,2.6-2.2,5.6-2.2,8.5c0,1.4,0.2,2.8,0.5,4.2
			c0.2,0.7,0.8,1.3,1.5,1.4c0.7,0.1,1.5-0.3,1.8-0.9c2.2-4.1,5.2-7.7,8.8-10.7c6.4-5.2,14.4-8.1,22.6-8.1c3,0,6,0.4,8.9,1.1V22.4
			C1210.1,22.4,1209.9,22.3,1209.7,22.3z"/>
		<path class="st2" d="M1200.1,160.6c-3,2.1-4.9,5-4.9,8.2c0,6.2,6.7,11.2,15,11.2v-16.5C1206.3,163.5,1202.8,162.4,1200.1,160.6z"
			/>
	</g>
	<path id="XMLID_00000020395558337779791960000010659881528738753974_" class="st2" d="M1172.1,86.9"/>
</g>
<rect y="709.8" class="st6" width="271.7" height="255.2"/>
<rect x="271.7" y="709.8" class="st1" width="268.7" height="255.2"/>
<rect x="541.5" y="709.8" class="st0" width="268.7" height="255.2"/>
<rect x="811.3" y="709.8" class="st7" width="268.7" height="255.2"/>
<g>
	<text transform="matrix(1 0 0 1 62.7505 812.541)" class="st5 st3 st8">CONTEST WON</text>
</g>
<text transform="matrix(1 0 0 1 335.8053 822.667)" class="st6 st3 st8">CLIENTS MADE</text>
<g>
	<text transform="matrix(1 0 0 1 600.9711 822.667)" class="st6 st3 st8">DESIGNS MADE</text>
</g>
<text transform="matrix(1 0 0 1 868.5281 822.667)" class="st5 st3 st8">YEARS EXPERIENCE</text>
<text transform="matrix(1 0 0 1 78.4648 878.9036)" class="st5 st3 st9">225</text>
<g>
	<text transform="matrix(1 0 0 1 348.9863 883.5703)" class="st7 st3 st9">345</text>
</g>
<g>
	<text transform="matrix(1 0 0 1 600.0836 883.5703)" class="st7 st3 st9">10210</text>
</g>
<text transform="matrix(1 0 0 1 922.4716 880.237)" class="st5 st3 st9">14</text>
<rect x="2.9" y="965" class="st5" width="1077.1" height="552"/>
<rect x="2.9" y="1517" class="st0" width="1077.1" height="505.5"/>
<g>
	<text transform="matrix(1 0 0 1 472.3699 1074.0703)" class="st7 st3 st9">Skills</text>
</g>
</svg>
