<?xml version="1.0" encoding="utf-8"?>
<!-- Generator: Adobe Illustrator 27.9.1, SVG Export Plug-In . SVG Version: 6.00 Build 0)  -->
<svg version="1.1" xmlns="http://www.w3.org/2000/svg" xmlns:xlink="http://www.w3.org/1999/xlink" x="0px" y="0px"
	 viewBox="0 0 213 429.5" style="enable-background:new 0 0 213 429.5;" xml:space="preserve">
<style type="text/css">
	.st0{fill:none;}
	.st1{fill:url(#SVGID_1_);}
	.st2{fill:url(#SVGID_00000145777311816545499160000006507580720937682353_);}
	.st3{fill:url(#SVGID_00000072243685247484590180000008152997168508655028_);}
	.st4{fill:url(#SVGID_00000060748798649962649520000004833016672479469702_);}
	.st5{fill:none;stroke:#000000;stroke-width:0.5;stroke-miterlimit:10;}
	.st6{fill:url(#SVGID_00000065778713733338821340000005152619277814920844_);}
	.st7{fill:#232323;}
	.st8{fill:#5E465D;}
	.st9{fill:#706F6F;}
	.st10{fill:#1D1D1B;}
	.st11{fill:url(#SVGID_00000044160204194903777050000017856227463830534815_);}
	.st12{fill:url(#SVGID_00000101810638251406451460000001461938920880489392_);}
	.st13{fill:url(#SVGID_00000045598011055706890110000003804413937326793347_);}
	.st14{fill:url(#SVGID_00000110435049928674950800000014983313141548459926_);}
	.st15{fill:url(#SVGID_00000013194449641289549130000008016461294745454756_);}
	.st16{fill:url(#SVGID_00000018236542788228429970000010926775825265825953_);}
	.st17{fill:url(#SVGID_00000016066992411655549700000016503867531708389023_);}
	.st18{fill:url(#SVGID_00000146477113284310846190000003511950958792542082_);}
	.st19{fill:url(#SVGID_00000088817585994549938070000002371145180953578152_);}
	.st20{fill:url(#SVGID_00000023996376504724720620000009199572371466539927_);}
	.st21{fill:url(#SVGID_00000010293752577290030390000013976702730965058188_);}
	.st22{fill:url(#SVGID_00000068676772592114554720000014547951371752935569_);}
	.st23{fill:url(#SVGID_00000080890057548209368340000001604637151997148565_);}
	.st24{fill:url(#SVGID_00000128479000112846036340000005375752188762640048_);}
	.st25{fill:url(#SVGID_00000135649922263289068250000005280778568393407651_);}
	.st26{fill:url(#SVGID_00000181799558208164140450000013986811932791163562_);}
</style>
<g id="background">
</g>
<g id="objects">
	<path class="st0" d="M201,395.4c0,13.3-10.8,24.1-24.1,24.1H36.1c-13.3,0-24.1-10.8-24.1-24.1V34.2c0-13.3,10.8-24.1,24.1-24.1
		c5.3,0,10.6,0,16.2,0h108.4h16.3c13.3,0,24.1,10.8,24.1,24.1V395.4z"/>
	<g>
		<path class="st8" d="M177.6,0H35.4C16.8,0,1.8,15,1.8,33.6V396c0,18.5,15,33.6,33.6,33.6h142.3c18.5,0,33.6-15,33.6-33.6V33.6
			C211.2,15,196.2,0,177.6,0z M201,395.4c0,13.3-10.8,24.1-24.1,24.1H36.1c-13.3,0-24.1-10.8-24.1-24.1V34.2
			c0-13.3,10.8-24.1,24.1-24.1c5.3,0,10.6,0,16.2,0h108.4h16.3c13.3,0,24.1,10.8,24.1,24.1V395.4z"/>
		<path class="st9" d="M177.4,1H35.6C17.5,1,2.8,15.7,2.8,33.8v361.9c0,18.1,14.7,32.8,32.8,32.8h141.7c18.1,0,32.8-14.7,32.8-32.8
			V33.8C210.2,15.7,195.5,1,177.4,1z M209.2,395.5c0,17.7-14.4,32.1-32.1,32.1H35.9c-17.7,0-32.1-14.4-32.1-32.1V34.1
			C3.8,16.4,18.2,2,35.9,2h141.2c17.7,0,32.1,14.4,32.1,32.1V395.5z"/>
		<path class="st10" d="M176.8,3.3H36.2c-17,0-30.9,13.8-30.9,30.9v361.3c0,17,13.8,30.9,30.9,30.9h140.6c17,0,30.9-13.8,30.9-30.9
			V34.1C207.7,17.1,193.8,3.3,176.8,3.3z M201,395.4c0,13.3-10.8,24.1-24.1,24.1H36.1c-13.3,0-24.1-10.8-24.1-24.1V34.2
			c0-13.3,10.8-24.1,24.1-24.1c5.3,0,10.6,0,16.2,0h108.4h16.3c13.3,0,24.1,10.8,24.1,24.1V395.4z"/>
		<g>
			<g>
				
					<linearGradient id="SVGID_1_" gradientUnits="userSpaceOnUse" x1="-1136.0831" y1="-2191.5325" x2="-1084.3048" y2="-2191.5325" gradientTransform="matrix(0 1 -1 0 -1979.7195 1245.8477)">
					<stop  offset="0" style="stop-color:#68595F"/>
					<stop  offset="1.850530e-02" style="stop-color:#896E80"/>
					<stop  offset="3.819530e-02" style="stop-color:#5E3B5B"/>
					<stop  offset="8.205520e-02" style="stop-color:#2B1D2A"/>
					<stop  offset="0.1053" style="stop-color:#704A6A"/>
					<stop  offset="0.9049" style="stop-color:#615060"/>
					<stop  offset="0.9391" style="stop-color:#2B1D2A"/>
					<stop  offset="0.9646" style="stop-color:#5E3B5B"/>
					<stop  offset="0.9829" style="stop-color:#845675"/>
					<stop  offset="1" style="stop-color:#5B4A5C"/>
				</linearGradient>
				<rect x="211.2" y="109.8" class="st1" width="1.2" height="51.8"/>
				
					<linearGradient id="SVGID_00000080904081410705937830000010439514690234225326_" gradientUnits="userSpaceOnUse" x1="-1136.0697" y1="-2192.4519" x2="-1084.3024" y2="-2192.4519" gradientTransform="matrix(0 1 -1 0 -1979.7195 1245.8477)">
					<stop  offset="0" style="stop-color:#676067"/>
					<stop  offset="6.402420e-02" style="stop-color:#654E63"/>
					<stop  offset="0.186" style="stop-color:#786F77"/>
					<stop  offset="0.8064" style="stop-color:#786F77"/>
					<stop  offset="0.9191" style="stop-color:#654E63"/>
					<stop  offset="1" style="stop-color:#676067"/>
				</linearGradient>
				<path style="fill:url(#SVGID_00000080904081410705937830000010439514690234225326_);" d="M212.4,161.5v-51.8l0.6,0.7
					c-0.3,5.5-0.3,44.9,0,50.4L212.4,161.5z"/>
			</g>
			<g>
				
					<linearGradient id="SVGID_00000033348788967926095750000008992345921134181791_" gradientUnits="userSpaceOnUse" x1="-1146.9821" y1="1544.347" x2="-1114.1821" y2="1544.347" gradientTransform="matrix(0 1 1 0 -1543.6471 1245.8477)">
					<stop  offset="0" style="stop-color:#68595F"/>
					<stop  offset="1.850530e-02" style="stop-color:#896E80"/>
					<stop  offset="3.819530e-02" style="stop-color:#5E3B5B"/>
					<stop  offset="8.205520e-02" style="stop-color:#2D1E2C"/>
					<stop  offset="0.1053" style="stop-color:#704A6A"/>
					<stop  offset="0.9049" style="stop-color:#615060"/>
					<stop  offset="0.9391" style="stop-color:#2D1E2C"/>
					<stop  offset="0.9646" style="stop-color:#5E3B5B"/>
					<stop  offset="0.9829" style="stop-color:#845675"/>
					<stop  offset="1" style="stop-color:#5B4A5C"/>
				</linearGradient>
				
					<rect x="0.3" y="98.9" style="fill:url(#SVGID_00000033348788967926095750000008992345921134181791_);" width="0.7" height="32.8"/>
				
					<linearGradient id="SVGID_00000044894880745265747900000013052112391190073222_" gradientUnits="userSpaceOnUse" x1="-1146.9736" y1="1543.8221" x2="-1114.1805" y2="1543.8221" gradientTransform="matrix(0 1 1 0 -1543.6471 1245.8477)">
					<stop  offset="0" style="stop-color:#676067"/>
					<stop  offset="6.402420e-02" style="stop-color:#654E63"/>
					<stop  offset="0.186" style="stop-color:#786F77"/>
					<stop  offset="0.8064" style="stop-color:#786F77"/>
					<stop  offset="0.9191" style="stop-color:#654E63"/>
					<stop  offset="1" style="stop-color:#676067"/>
				</linearGradient>
				<path style="fill:url(#SVGID_00000044894880745265747900000013052112391190073222_);" d="M0.3,131.7V98.9L0,99.3
					c0.2,3.5,0.2,28.5,0,31.9L0.3,131.7z"/>
				
					<linearGradient id="SVGID_00000168117327096018905280000013198757152485721479_" gradientUnits="userSpaceOnUse" x1="1.425" y1="131.6757" x2="1.425" y2="98.8741">
					<stop  offset="0" style="stop-color:#68595F"/>
					<stop  offset="5.306120e-02" style="stop-color:#2D1E2C"/>
					<stop  offset="0.5184" style="stop-color:#5E3B5B"/>
					<stop  offset="0.9646" style="stop-color:#2D1E2C"/>
					<stop  offset="1" style="stop-color:#5B4A5C"/>
				</linearGradient>
				
					<rect x="1" y="98.9" style="fill:url(#SVGID_00000168117327096018905280000013198757152485721479_);" width="0.8" height="32.8"/>
			</g>
			<g>
				
					<linearGradient id="SVGID_00000065050473204230397660000015569717823263687344_" gradientUnits="userSpaceOnUse" x1="-1105.7161" y1="1544.347" x2="-1072.9161" y2="1544.347" gradientTransform="matrix(0 1 1 0 -1543.6471 1245.8477)">
					<stop  offset="0" style="stop-color:#68595F"/>
					<stop  offset="1.850530e-02" style="stop-color:#896E80"/>
					<stop  offset="3.819530e-02" style="stop-color:#5E3B5B"/>
					<stop  offset="8.205520e-02" style="stop-color:#2D1E2C"/>
					<stop  offset="0.1053" style="stop-color:#704A6A"/>
					<stop  offset="0.9049" style="stop-color:#615060"/>
					<stop  offset="0.9391" style="stop-color:#2D1E2C"/>
					<stop  offset="0.9646" style="stop-color:#5E3B5B"/>
					<stop  offset="0.9829" style="stop-color:#845675"/>
					<stop  offset="1" style="stop-color:#5B4A5C"/>
				</linearGradient>
				
					<rect x="0.3" y="140.1" style="fill:url(#SVGID_00000065050473204230397660000015569717823263687344_);" width="0.7" height="32.8"/>
				
					<linearGradient id="SVGID_00000027574542106598065850000012620858995643243442_" gradientUnits="userSpaceOnUse" x1="-1105.7076" y1="1543.8221" x2="-1072.9146" y2="1543.8221" gradientTransform="matrix(0 1 1 0 -1543.6471 1245.8477)">
					<stop  offset="0" style="stop-color:#676067"/>
					<stop  offset="6.402420e-02" style="stop-color:#654E63"/>
					<stop  offset="0.186" style="stop-color:#786F77"/>
					<stop  offset="0.8064" style="stop-color:#786F77"/>
					<stop  offset="0.9191" style="stop-color:#654E63"/>
					<stop  offset="1" style="stop-color:#676067"/>
				</linearGradient>
				<path style="fill:url(#SVGID_00000027574542106598065850000012620858995643243442_);" d="M0.3,172.9v-32.8L0,140.6
					c0.2,3.5,0.2,28.5,0,31.9L0.3,172.9z"/>
				
					<linearGradient id="SVGID_00000131327954637994906960000009371356053542373261_" gradientUnits="userSpaceOnUse" x1="1.425" y1="172.9417" x2="1.425" y2="140.1401">
					<stop  offset="0" style="stop-color:#68595F"/>
					<stop  offset="5.306120e-02" style="stop-color:#2D1E2C"/>
					<stop  offset="0.5184" style="stop-color:#5E3B5B"/>
					<stop  offset="0.9646" style="stop-color:#2D1E2C"/>
					<stop  offset="1" style="stop-color:#5B4A5C"/>
				</linearGradient>
				
					<rect x="1" y="140.1" style="fill:url(#SVGID_00000131327954637994906960000009371356053542373261_);" width="0.8" height="32.8"/>
			</g>
			<g>
				
					<linearGradient id="SVGID_00000101816864819151925360000004494875908873571503_" gradientUnits="userSpaceOnUse" x1="-1177.9727" y1="1544.347" x2="-1161.1372" y2="1544.347" gradientTransform="matrix(0 1 1 0 -1543.6471 1245.8477)">
					<stop  offset="0" style="stop-color:#68595F"/>
					<stop  offset="1.850530e-02" style="stop-color:#896E80"/>
					<stop  offset="3.819530e-02" style="stop-color:#5E3B5B"/>
					<stop  offset="8.205520e-02" style="stop-color:#2D1E2C"/>
					<stop  offset="0.1053" style="stop-color:#704A6A"/>
					<stop  offset="0.9049" style="stop-color:#615060"/>
					<stop  offset="0.9391" style="stop-color:#2D1E2C"/>
					<stop  offset="0.9646" style="stop-color:#5E3B5B"/>
					<stop  offset="0.9829" style="stop-color:#845675"/>
					<stop  offset="1" style="stop-color:#5B4A5C"/>
				</linearGradient>
				
					<rect x="0.3" y="67.9" style="fill:url(#SVGID_00000101816864819151925360000004494875908873571503_);" width="0.7" height="16.8"/>
				
					<linearGradient id="SVGID_00000178197041957055668560000014788077720176107952_" gradientUnits="userSpaceOnUse" x1="-1177.9646" y1="1543.8221" x2="-1161.1357" y2="1543.8221" gradientTransform="matrix(0 1 1 0 -1543.6471 1245.8477)">
					<stop  offset="0" style="stop-color:#676067"/>
					<stop  offset="6.402420e-02" style="stop-color:#654E63"/>
					<stop  offset="0.186" style="stop-color:#786F77"/>
					<stop  offset="0.8064" style="stop-color:#786F77"/>
					<stop  offset="0.9191" style="stop-color:#654E63"/>
					<stop  offset="1" style="stop-color:#676067"/>
				</linearGradient>
				<path style="fill:url(#SVGID_00000178197041957055668560000014788077720176107952_);" d="M0.3,84.7V67.9L0,68.3
					c0.2,3.3,0.2,12.7,0,16L0.3,84.7z"/>
				
					<linearGradient id="SVGID_00000158750440351454395130000017285534440552305042_" gradientUnits="userSpaceOnUse" x1="1.425" y1="84.72" x2="1.425" y2="67.8831">
					<stop  offset="0" style="stop-color:#68595F"/>
					<stop  offset="5.306120e-02" style="stop-color:#2D1E2C"/>
					<stop  offset="0.5184" style="stop-color:#5E3B5B"/>
					<stop  offset="0.9646" style="stop-color:#2D1E2C"/>
					<stop  offset="1" style="stop-color:#5B4A5C"/>
				</linearGradient>
				
					<rect x="1" y="67.9" style="fill:url(#SVGID_00000158750440351454395130000017285534440552305042_);" width="0.8" height="16.8"/>
			</g>
		</g>
	</g>
	<g>
		<path class="st10" d="M122.3,32.2H88.9c-3.8,0-6.8-3.1-6.8-6.8l0,0c0-3.8,3.1-6.8,6.8-6.8h33.5c3.8,0,6.8,3.1,6.8,6.8l0,0
			C129.1,29.1,126.1,32.2,122.3,32.2z"/>
		<g>
			
				<linearGradient id="SVGID_00000137848472676677851870000001684361628210706333_" gradientUnits="userSpaceOnUse" x1="120.4336" y1="28.1544" x2="120.4336" y2="22.2931">
				<stop  offset="0" style="stop-color:#666666"/>
				<stop  offset="1" style="stop-color:#010104"/>
			</linearGradient>
			<circle style="fill:url(#SVGID_00000137848472676677851870000001684361628210706333_);" cx="120.4" cy="25.4" r="3"/>
			
				<image style="overflow:visible;" width="25" height="24" xlink:href="F2A52DDD.png"  transform="matrix(0.24 0 0 0.24 117.44 22.5079)">
			</image>
			
				<linearGradient id="SVGID_00000072266314681356952350000002901120495742034566_" gradientUnits="userSpaceOnUse" x1="-3164.1719" y1="-2313.8586" x2="-3164.1719" y2="-2317.2078" gradientTransform="matrix(-1 0 0 -1 -3043.7383 -2290.0906)">
				<stop  offset="0" style="stop-color:#0B131C"/>
				<stop  offset="1" style="stop-color:#354039"/>
			</linearGradient>
			<circle style="fill:url(#SVGID_00000072266314681356952350000002901120495742034566_);" cx="120.4" cy="25.4" r="1.7"/>
			<g id="Camera_00000181771962106803296260000008551096653390836141_">
				
					<linearGradient id="SVGID_00000080169707100008100570000011023629619520653703_" gradientUnits="userSpaceOnUse" x1="121.4844" y1="26.4161" x2="119.3793" y2="24.311">
					<stop  offset="0" style="stop-color:#231F20"/>
					<stop  offset="8.317667e-02" style="stop-color:#222326"/>
					<stop  offset="0.1958" style="stop-color:#1F2C37"/>
					<stop  offset="0.3254" style="stop-color:#1A3D54"/>
					<stop  offset="0.4675" style="stop-color:#13537C"/>
					<stop  offset="0.62" style="stop-color:#0B71AE"/>
					<stop  offset="0.7788" style="stop-color:#0094EC"/>
					<stop  offset="0.7847" style="stop-color:#0095EE"/>
					<stop  offset="0.7998" style="stop-color:#0488D6"/>
					<stop  offset="0.8384" style="stop-color:#0D689F"/>
					<stop  offset="0.8761" style="stop-color:#154E72"/>
					<stop  offset="0.912" style="stop-color:#1B394E"/>
					<stop  offset="0.9455" style="stop-color:#1F2B35"/>
					<stop  offset="0.9758" style="stop-color:#222225"/>
					<stop  offset="1" style="stop-color:#231F20"/>
				</linearGradient>
				<path style="fill:url(#SVGID_00000080169707100008100570000011023629619520653703_);" d="M121.9,25.4c0,0.8-0.7,1.5-1.5,1.5
					c-0.8,0-1.5-0.7-1.5-1.5c0-0.8,0.7-1.5,1.5-1.5C121.3,23.9,121.9,24.5,121.9,25.4z"/>
				
					<radialGradient id="SVGID_00000176730460768005699220000002467907777868166320_" cx="120.4328" cy="25.3637" r="1.4876" gradientUnits="userSpaceOnUse">
					<stop  offset="0" style="stop-color:#231F20"/>
					<stop  offset="0.2019" style="stop-color:#175168"/>
					<stop  offset="0.3838" style="stop-color:#0D78A2"/>
					<stop  offset="0.5384" style="stop-color:#0695CB"/>
					<stop  offset="0.6597" style="stop-color:#02A7E5"/>
					<stop  offset="0.7326" style="stop-color:#00ADEE"/>
					<stop  offset="0.7594" style="stop-color:#02A6E4"/>
					<stop  offset="0.8055" style="stop-color:#0693C8"/>
					<stop  offset="0.8651" style="stop-color:#0E749C"/>
					<stop  offset="0.9352" style="stop-color:#184A5F"/>
					<stop  offset="1" style="stop-color:#231F20"/>
				</radialGradient>
				<path style="fill:url(#SVGID_00000176730460768005699220000002467907777868166320_);" d="M121.9,25.4c0,0.8-0.7,1.5-1.5,1.5
					c-0.8,0-1.5-0.7-1.5-1.5c0-0.8,0.7-1.5,1.5-1.5C121.3,23.9,121.9,24.5,121.9,25.4z"/>
			</g>
			
				<radialGradient id="SVGID_00000016763907969896135390000009836223177373897874_" cx="121.2499" cy="26.1398" r="0.5312" gradientUnits="userSpaceOnUse">
				<stop  offset="0" style="stop-color:#CCCCCC"/>
				<stop  offset="2.412361e-02" style="stop-color:#C4C4C4"/>
				<stop  offset="0.2198" style="stop-color:#898989"/>
				<stop  offset="0.4085" style="stop-color:#585858"/>
				<stop  offset="0.5855" style="stop-color:#323232"/>
				<stop  offset="0.7482" style="stop-color:#161616"/>
				<stop  offset="0.8915" style="stop-color:#060606"/>
				<stop  offset="1" style="stop-color:#000000"/>
			</radialGradient>
			<path style="fill:url(#SVGID_00000016763907969896135390000009836223177373897874_);" d="M121.8,26.1c0-0.3-0.2-0.5-0.5-0.5
				c-0.3,0-0.5,0.2-0.5,0.5s0.2,0.5,0.5,0.5C121.5,26.7,121.8,26.4,121.8,26.1z"/>
		</g>
	</g>
</g>
</svg>
