<?xml version="1.0" encoding="utf-8"?>
<!-- Generator: Adobe Illustrator 27.9.1, SVG Export Plug-In . SVG Version: 6.00 Build 0)  -->
<svg version="1.1" id="Layer_1" xmlns="http://www.w3.org/2000/svg" xmlns:xlink="http://www.w3.org/1999/xlink" x="0px" y="0px"
	 viewBox="0 0 154.2 55.3" style="enable-background:new 0 0 154.2 55.3;" xml:space="preserve">
<style type="text/css">
	.st0{opacity:3.000000e-02;}
	.st1{fill:#FFFFFF;}
	.st2{opacity:8.000000e-02;}
	.st3{fill:#FF32AB;}
</style>
<g>
	<g class="st0">
		<g>
			<path class="st1" d="M6.4,7.1c2.2,0,4.3,0,6.4,0c0.4,0,0.9,0.4,1,0.7c2.6,6,5.1,12,7.7,18.1c0.2,0.4,0.3,0.7,0.6,1
				c0-3.1,0-6.3,0-9.5c0-3.1,0-6.2,0-9.3c0-0.9,0.2-1.2,1.1-1.2c2.4,0,4.7,0,7.2,0v41.8c-2.2,0-4.4,0-6.6,0c-0.3,0-0.7-0.6-0.8-0.9
				c-2.7-6.2-5.4-12.4-8.1-18.6c-0.1-0.1-0.2-0.3-0.4-0.7v20.2H6.4V7.1z"/>
		</g>
		<g>
			<path class="st1" d="M84.2,48.8H76c0-0.3-0.1-0.6-0.1-0.9c0-13.1,0-26.3,0-39.4c0-1.1,0.2-1.5,1.4-1.5c2.2,0.1,4.4,0,6.8,0v17.5
				c0.1,0,0.2,0,0.3,0.1c0.3-0.6,0.6-1.2,0.8-1.8c2.2-4.9,4.3-9.8,6.4-14.7c0.3-0.8,0.8-1,1.6-1c2.3,0,4.7,0,7.2,0
				c-1,2-1.8,3.9-2.7,5.7c-1.7,3.6-3.5,7.2-5.2,10.8c-0.2,0.5-0.2,1.2,0,1.7c2.9,7.4,5.8,14.8,8.8,22.2c0.1,0.4,0.3,0.8,0.4,1.2
				c-2.8,0-5.6,0-8.3,0c-0.3,0-0.8-0.6-1-1c-1.7-4.3-3.4-8.6-5.1-12.9c-0.1-0.3-0.3-0.7-0.5-1.3c-1,3.1-3.2,5.3-2.7,8.6
				C84.5,44.3,84.2,46.5,84.2,48.8L84.2,48.8z"/>
		</g>
		<g>
			<path class="st1" d="M136.7,20.5h-8.2c0-0.6,0-1.2,0-1.8c-0.1-2-1.5-3.7-3.4-4.1c-1.7-0.4-3.5,0.5-4.4,2.1
				c-0.9,1.6-0.7,3.7,0.9,5c1.2,1,2.6,1.6,4,2.3c2.1,1.1,4.5,1.9,6.4,3.3c4.3,3,5.5,7.5,4.4,12.4c-1.1,5.2-4.5,8.4-9.8,9.4
				c-8.4,1.5-15.5-5.4-14.5-14h8.1c0,0.6,0,1.3,0,1.9c0.1,1.9,1.5,3.6,3.4,4c1.7,0.4,3.6-0.5,4.5-2.1c0.9-1.6,0.7-3.7-0.8-4.9
				c-1-0.9-2.3-1.7-3.6-2.2c-2.8-1.1-5.6-2.2-7.8-4.4c-3.5-3.4-4.8-7.7-3.3-12.4c1.5-4.7,4.8-7.9,9.8-8.6
				C130.8,5.2,137.2,11.5,136.7,20.5L136.7,20.5z"/>
		</g>
		<g>
			<path class="st1" d="M72.4,23.3H64c0-1.2,0-2.3,0-3.5c0-1-0.1-1.9-0.2-2.9c-0.3-1.7-1.4-2.7-3-2.8c-1.6-0.1-2.9,0.8-3.2,2.6
				c-0.4,2.2-0.7,4.4-0.7,6.6c0,5,0.3,9.9,0.5,14.9c0,0.5,0.2,1,0.3,1.5c0.5,1.5,1.6,2.2,3.3,2.1c1.5-0.1,2.5-0.8,2.9-2.3
				c0.2-0.9,0.3-1.9,0.3-2.9c0-1.2,0-2.5,0-3.8h8.3c0.2,3.8,0.3,7.6-1.7,11c-2.3,4.1-6,5.7-10.5,5.6c-5.1-0.1-8.7-2.6-10.4-7.4
				c-0.8-2.3-1.2-4.7-1.2-7.1c-0.1-5.4,0-10.9,0.2-16.3c0.2-3.6,1.4-6.9,4.3-9.3c3.7-3,7.8-3.2,12.1-1.8c4.2,1.4,6.3,4.8,6.9,9.1
				C72.3,18.7,72.3,20.9,72.4,23.3z"/>
		</g>
		<g>
			<path class="st1" d="M110.9,11.7c0,2.6-2.2,4.8-4.8,4.8c-2.6,0-4.7-2.2-4.7-4.8c0-2.7,2.1-4.7,4.8-4.7
				C108.9,7,110.9,9,110.9,11.7L110.9,11.7z"/>
		</g>
	</g>
	<g class="st2">
		<rect y="6.9" class="st1" width="154.2" height="0.2"/>
	</g>
	<g class="st2">
		<rect x="35.4" y="3.4" class="st1" width="0.2" height="48.4"/>
	</g>
	<g class="st2">
		<rect x="43.8" class="st1" width="0.2" height="55.3"/>
	</g>
	<g>
		<path class="st3" d="M43.8,36.5h-8.1V7.1h8.1V36.5z"/>
	</g>
	<g>
		<path class="st3" d="M44.4,44.4c0,2.6-2.1,4.8-4.7,4.8c-2.5,0.1-4.8-2.2-4.8-4.8c0-2.6,2.2-4.8,4.8-4.8
			C42.3,39.7,44.4,41.8,44.4,44.4L44.4,44.4z"/>
	</g>
	<g class="st2">
		<rect x="4" y="39.6" class="st1" width="139.4" height="0.2"/>
	</g>
	<g class="st2">
		<rect x="3.4" y="49.3" class="st1" width="72.9" height="0.2"/>
	</g>
	<g class="st2">
		<rect y="36.3" class="st1" width="154.2" height="0.2"/>
	</g>
</g>
</svg>
