<svg width="132" height="43" viewBox="0 0 132 43" fill="none" xmlns="http://www.w3.org/2000/svg">
<g clip-path="url(#clip0_195_595)">
<path d="M0.827637 0.755356C3.03506 0.755356 5.15626 0.720865 7.27746 0.789847C7.63962 0.800194 8.17078 1.18649 8.31909 1.52796C10.9163 7.5363 13.4617 13.5653 16.0244 19.5875C16.1762 19.9462 16.3452 20.298 16.6694 20.5843C16.6694 17.4352 16.6728 14.2827 16.6694 11.1337C16.6659 8.03987 16.6763 4.94602 16.6245 1.85217C16.6107 0.996793 16.8591 0.669128 17.7489 0.686374C20.1185 0.734661 22.488 0.703619 24.9472 0.703619V42.4688C22.7502 42.4688 20.5531 42.5033 18.3594 42.4274C18.0697 42.4171 17.7007 41.8687 17.5386 41.4996C14.8345 35.3085 12.1614 29.1036 9.47454 22.9055C9.41246 22.7641 9.31244 22.6365 9.08135 22.2536V42.4102H0.827637V0.755356Z" fill="#EB4599"/>
<path d="M78.6531 42.4274H70.4167C70.3718 42.0963 70.2994 41.8238 70.2994 41.5479C70.2994 28.4172 70.3167 15.2899 70.2891 2.15911C70.2891 1.0485 70.5133 0.610462 71.7308 0.669096C73.9348 0.776019 76.1456 0.700138 78.5152 0.700138V18.1699C78.6118 18.1906 78.7118 18.2147 78.8084 18.2354C79.0843 17.6215 79.3637 17.0075 79.6361 16.3901C81.7884 11.5062 83.9579 6.62915 86.0653 1.72452C86.4067 0.931228 86.8931 0.689791 87.6691 0.69324C90.0042 0.707037 92.3358 0.696689 94.8743 0.696689C93.9154 2.69717 93.0325 4.55279 92.1426 6.40841C90.4077 10.0162 88.6452 13.6136 86.962 17.2455C86.7378 17.7318 86.7241 18.4699 86.9207 18.9735C89.8179 26.3925 92.7703 33.7943 95.7055 41.1995C95.8538 41.5755 95.9815 41.9618 96.1539 42.4481C93.3118 42.4481 90.6008 42.4861 87.8933 42.4033C87.5449 42.3929 87.0655 41.8204 86.9 41.4065C85.1754 37.1124 83.5026 32.7975 81.8125 28.4861C81.6815 28.1481 81.54 27.817 81.2641 27.1444C80.2225 30.1969 78.0909 32.4733 78.5911 35.7913C78.9153 37.947 78.6531 40.189 78.6531 42.424V42.4274Z" fill="#EB4599"/>
<path d="M131.145 14.1724H122.974C122.974 13.5378 122.991 12.9652 122.974 12.3927C122.898 10.3956 121.498 8.70555 119.57 8.26752C117.863 7.88122 116.041 8.74005 115.134 10.3646C114.217 12.0098 114.438 14.1034 115.986 15.3796C117.152 16.3419 118.587 16.9903 119.942 17.7008C122.074 18.8218 124.406 19.6427 126.358 21.012C130.673 24.0368 131.887 28.4827 130.793 33.4081C129.652 38.561 126.254 41.8239 121.029 42.7827C112.665 44.321 105.529 37.409 106.56 28.8276H114.638C114.638 29.4692 114.614 30.0831 114.641 30.6936C114.734 32.6355 116.131 34.2772 118.021 34.698C119.687 35.0705 121.577 34.1875 122.484 32.6113C123.381 31.0454 123.178 28.9518 121.722 27.686C120.677 26.7789 119.418 26.0166 118.128 25.5096C115.317 24.4024 112.52 23.2953 110.323 21.1465C106.794 17.6974 105.535 13.4895 107.008 8.78488C108.491 4.05271 111.761 0.89678 116.773 0.151773C125.223 -1.10025 131.666 5.20126 131.149 14.1655L131.145 14.1724Z" fill="#EB4599"/>
<path d="M66.8401 16.9213H58.4174C58.4174 15.7279 58.4484 14.5759 58.407 13.4239C58.376 12.4685 58.3277 11.4993 58.169 10.5577C57.8759 8.82279 56.7584 7.8398 55.1338 7.75702C53.5403 7.67424 52.2366 8.56756 51.9227 10.3197C51.533 12.4857 51.1846 14.7001 51.1949 16.8902C51.2191 21.8535 51.4674 26.8133 51.6502 31.7731C51.6675 32.2629 51.8227 32.763 51.9882 33.2321C52.5297 34.7808 53.5403 35.4085 55.2683 35.3292C56.7618 35.2602 57.7896 34.4841 58.1276 32.9872C58.338 32.0594 58.3898 31.0902 58.4277 30.1348C58.476 28.8897 58.4381 27.6411 58.4381 26.3063H66.6883C66.9056 30.1383 66.9436 33.884 65.0121 37.3159C62.7253 41.3858 59.0589 43.0379 54.5578 42.9103C49.498 42.7654 45.835 40.3407 44.1795 35.5154C43.4069 33.2632 42.9895 30.7936 42.9378 28.4103C42.824 22.9883 42.8895 17.549 43.1723 12.1339C43.3586 8.56756 44.5313 5.24607 47.4423 2.83859C51.0984 -0.189722 55.289 -0.355279 59.5004 1.0761C63.7014 2.50403 65.7709 5.92209 66.4158 10.1576C66.747 12.3305 66.7056 14.5587 66.8401 16.9213Z" fill="#EB4599"/>
<path d="M38.2402 30.1831H30.1348V0.77948H38.2402V30.1831Z" fill="#EB4599"/>
<path d="M38.8852 38.1057C38.899 40.7443 36.8054 42.8931 34.1634 42.9483C31.6801 43.0035 29.3692 40.7064 29.3416 38.1506C29.314 35.5879 31.5317 33.3529 34.122 33.3356C36.7468 33.3184 38.8714 35.4465 38.8852 38.1023V38.1057Z" fill="#EB4599"/>
<path d="M105.37 5.38403C105.36 8.00535 103.194 10.1645 100.579 10.1541C98.0063 10.1438 95.8403 7.93982 95.8438 5.32885C95.8472 2.66269 97.927 0.624268 100.635 0.624268C103.332 0.624268 105.384 2.69028 105.374 5.38403H105.37Z" fill="#EB4599"/>
</g>
<defs>
<clipPath id="clip0_195_595">
<rect width="130.345" height="43" fill="white" transform="translate(0.827637)"/>
</clipPath>
</defs>
</svg>
