<?xml version="1.0" encoding="utf-8"?>
<!-- Generator: Adobe Illustrator 27.9.1, SVG Export Plug-In . SVG Version: 6.00 Build 0)  -->
<svg version="1.1" id="Layer_1" xmlns="http://www.w3.org/2000/svg" xmlns:xlink="http://www.w3.org/1999/xlink" x="0px" y="0px"
	 viewBox="0 0 828 368" style="enable-background:new 0 0 828 368;" xml:space="preserve">
<style type="text/css">
	.st0{fill:#081B37;}
	.st1{fill:#FFFFFF;}
	.st2{fill:#F46F33;}
	.st3{fill:#7D8691;}
	.st4{fill:#BAC3CC;}
	.st5{fill:none;stroke:#7D8691;stroke-miterlimit:10;}
</style>
<symbol  id="New_Symbol" viewBox="-64 -63.6 127.6 127.6">
	<path class="st0" d="M49.6,64H-50c-7.8,0-14-6.3-14-14v-99.6c0-7.8,6.3-14,14-14h99.6c7.8,0,14,6.3,14,14V50
		C63.6,57.7,57.4,64,49.6,64z"/>
	<g>
		<g>
			<polygon class="st1" points="-33.9,-6.1 0,-33.9 -33.9,18.5 			"/>
			<polygon class="st1" points="33.9,-6.1 33.9,18.5 0,-33.9 			"/>
		</g>
		<polygon class="st2" points="3.8,13.9 -3.8,13.9 -33.9,33.9 -33.9,18.5 0,-33.9 33.9,18.5 33.9,33.9 		"/>
	</g>
</symbol>
<path class="st3" d="M632.1,151.2c-16.8,0-30.7,4.3-41.3,12.9c-10.6,8.6-16,19.4-16,32.3c0,13,5.5,23.9,16.3,32.4
	c10.8,8.5,25,12.8,42.2,12.8c21.3,0,37.5-6.6,48.1-19.5l1-1.2l-18.6-8.3l-0.8,1.1c-6.1,7.8-15.6,11.6-29.1,11.6
	c-9.6,0-17.8-2-24.3-5.9c-6-3.6-10-8.6-12-15h88.2l0.2-1.1c0.4-2.3,0.7-4.5,0.7-6.7c0-12.4-5.1-23.2-15.2-32
	C661.2,155.7,648,151.2,632.1,151.2z M664.2,189.2h-66.8c1.7-6.3,5.4-11.4,11.2-15.3c6.2-4.2,14.1-6.3,23.5-6.3c8,0,15.2,2,21.2,5.9
	C658.8,177.1,662.5,182.4,664.2,189.2z"/>
<g>
	<g>
		
			<use xlink:href="#New_Symbol"  width="127.6" height="127.6" id="XMLID_00000163031163242035192010000010827445338801369489_" x="-64" y="-63.6" transform="matrix(0.9537 0 0 -0.9537 170.2713 181.0416)" style="overflow:visible;"/>
	</g>
	<g>
		<polygon class="st3" points="358.6,120 317,214.8 275.1,120 250.3,120 304.5,239.6 329.2,239.6 383.6,120 		"/>
		<rect x="698.6" y="119.5" class="st3" width="21.8" height="120.1"/>
		<path class="st3" d="M456.5,212.7l-0.8,1.1c-6.1,7.8-15.6,11.6-29.1,11.6c-9.6,0-17.8-2-24.3-5.9c-6-3.6-10-8.6-12-15h88.2
			l0.2-1.1c0.4-2.3,0.7-4.5,0.7-6.7c0-12.4-5.1-23.2-15.2-32c-10.1-8.9-23.3-13.4-39.3-13.4c-16.8,0-30.7,4.3-41.3,12.9
			c-10.6,8.6-16,19.4-16,32.3c0,13,5.5,23.9,16.3,32.4c10.8,8.5,25,12.8,42.2,12.8c21.3,0,37.5-6.6,48.1-19.5l1-1.2L456.5,212.7z
			 M401.4,173.9c6.2-4.2,14.1-6.3,23.5-6.3c8,0,15.2,2,21.2,5.9c5.6,3.6,9.3,8.9,10.9,15.7h-66.8
			C391.9,182.9,395.7,177.7,401.4,173.9z"/>
		<path class="st3" d="M671.5,164.6c-10.1-8.9-23.3-13.4-39.3-13.4c-16.8,0-30.7,4.3-41.3,12.9c-10.6,8.6-16,19.4-16,32.3
			c0,13,5.5,23.9,16.3,32.4c10.8,8.5,25,12.8,42.2,12.8c21.3,0,37.5-6.6,48.1-19.5l1-1.2l-18.6-8.3l-0.8,1.1
			c-6.1,7.8-15.6,11.6-29.1,11.6c-9.6,0-17.8-2-24.3-5.9c-6-3.6-10-8.6-12-15h88.2l0.2-1.1c0.4-2.3,0.7-4.5,0.7-6.7
			C686.6,184.2,681.5,173.5,671.5,164.6z M597.5,189.2c1.7-6.3,5.4-11.4,11.2-15.3c6.2-4.2,14.1-6.3,23.5-6.3c8,0,15.2,2,21.2,5.9
			c5.6,3.6,9.3,8.9,10.9,15.7H597.5z"/>
		<polygon class="st4" points="581.8,153.4 556,153.4 528.2,182.8 500.4,153.4 474.6,153.4 515.1,196.7 474.6,239.6 501.3,239.6 
			528.2,210.8 555.1,239.6 581.8,239.6 541.3,196.7 		"/>
	</g>
</g>
<polygon class="st4" points="827.5,33.4 801.7,33.4 773.9,62.8 746.2,33.4 720.4,33.4 760.8,76.7 720.4,119.5 747,119.5 773.9,90.7 
	800.9,119.5 827.5,119.5 787.1,76.7 "/>
<polygon class="st4" points="827.5,241.7 801.7,241.7 773.9,271.2 746.2,241.7 720.4,241.7 760.8,285 720.4,327.9 747,327.9 
	773.9,299.1 800.9,327.9 827.5,327.9 787.1,285 "/>
<polygon class="st4" points="109.2,241.7 83.4,241.7 55.6,271 27.9,241.7 2.1,241.7 42.5,284.9 2.1,327.6 28.7,327.6 55.6,298.9 
	82.6,327.6 109.2,327.6 68.8,284.9 "/>
<polygon class="st4" points="109.2,33.4 83.4,33.4 55.6,62.8 27.9,33.4 2.1,33.4 42.5,76.7 2.1,119.5 28.7,119.5 55.6,90.7 
	82.6,119.5 109.2,119.5 68.8,76.7 "/>
<rect x="109.2" y="119.5" class="st5" width="611.1" height="122.2"/>
<rect x="1.6" y="33.4" class="st5" width="825.9" height="294.5"/>
<rect x="109.2" y="33.4" class="st5" width="611.1" height="86.2"/>
<rect x="109.2" y="241.7" class="st5" width="611.1" height="86.2"/>
<rect x="1.6" y="119.5" class="st5" width="107.6" height="122.2"/>
<rect x="721.1" y="119.5" class="st5" width="106.5" height="122.2"/>
</svg>
