<?xml version="1.0" encoding="utf-8"?>
<!-- Generator: Adobe Illustrator 27.9.1, SVG Export Plug-In . SVG Version: 6.00 Build 0)  -->
<svg version="1.1" id="Layer_1" xmlns="http://www.w3.org/2000/svg" xmlns:xlink="http://www.w3.org/1999/xlink" x="0px" y="0px"
	 viewBox="0 0 828 661.3" style="enable-background:new 0 0 828 661.3;" xml:space="preserve">
<style type="text/css">
	.st0{fill:#081B37;}
	.st1{fill:#FFFFFF;}
	.st2{fill:#F46F33;}
	.st3{fill:#FDFDFD;}
	.st4{fill:#7D8691;}
</style>
<symbol  id="New_Symbol" viewBox="-64 -63.6 127.6 127.6">
	<path class="st0" d="M49.6,64H-50c-7.8,0-14-6.3-14-14v-99.6c0-7.8,6.3-14,14-14h99.6c7.8,0,14,6.3,14,14V50
		C63.6,57.7,57.4,64,49.6,64z"/>
	<g>
		<g>
			<polygon class="st1" points="-33.9,-6.1 0,-33.9 -33.9,18.5 			"/>
			<polygon class="st1" points="33.9,-6.1 33.9,18.5 0,-33.9 			"/>
		</g>
		<polygon class="st2" points="3.8,13.9 -3.8,13.9 -33.9,33.9 -33.9,18.5 0,-33.9 33.9,18.5 33.9,33.9 		"/>
	</g>
</symbol>
<g>
	<g>
		
			<rect x="345.6" y="-166.7" transform="matrix(-1.836970e-16 1 -1 -1.836970e-16 615.0883 -248.2466)" class="st0" width="172" height="700.2"/>
	</g>
	<g>
		<rect x="101.6" y="117.4" class="st0" width="660.2" height="132"/>
	</g>
	<g>
		<g>
			<g>
				<g>
					<polygon class="st3" points="101.6,194.6 165.3,246.8 101.6,148.4 					"/>
				</g>
				<g>
					<polygon class="st3" points="228.9,194.6 228.9,148.4 165.3,246.8 					"/>
				</g>
			</g>
			<g>
				<polygon class="st2" points="172.4,156.9 158.1,156.9 101.6,119.4 101.6,148.4 165.3,246.8 228.9,148.4 228.9,119.4 				"/>
			</g>
		</g>
		<g>
			<polygon class="st4" points="370.9,117.9 326,220.3 280.8,117.9 254,117.9 312.6,247.1 339.2,247.1 397.9,117.9 			"/>
		</g>
		<g>
			<path class="st4" d="M666.4,151.7c-18.1,0-33.1,4.7-44.6,14c-11.4,9.3-17.2,21-17.2,34.9c0,14,5.9,25.8,17.6,35
				c11.7,9.2,27,13.9,45.6,13.9c23,0,40.5-7.1,51.9-21l1-1.3l-20.1-9l-0.9,1.2c-6.6,8.4-16.9,12.5-31.4,12.5
				c-10.4,0-19.2-2.1-26.3-6.4c-6.5-3.9-10.8-9.3-12.9-16.2h95.3l0.2-1.2c0.5-2.5,0.7-4.9,0.7-7.2c0-13.4-5.5-25.1-16.4-34.6
				C697.9,156.5,683.6,151.7,666.4,151.7z M701.1,192.6h-72.2c1.8-6.8,5.9-12.4,12-16.5c6.7-4.5,15.2-6.8,25.4-6.8
				c8.7,0,16.4,2.1,22.9,6.4C695.3,179.6,699.3,185.3,701.1,192.6z"/>
		</g>
		<g>
			<rect x="738.2" y="117.4" class="st4" width="23.6" height="129.7"/>
		</g>
		<g>
			<path class="st4" d="M476.7,218.1l-0.9,1.2c-6.6,8.4-16.9,12.5-31.4,12.5c-10.4,0-19.2-2.1-26.3-6.4c-6.5-3.9-10.8-9.3-12.9-16.2
				h95.3l0.2-1.2c0.5-2.5,0.7-4.9,0.7-7.2c0-13.4-5.5-25.1-16.4-34.6c-10.9-9.6-25.2-14.5-42.5-14.5c-18.1,0-33.1,4.7-44.6,14
				c-11.4,9.3-17.2,21-17.2,34.9c0,14,5.9,25.8,17.6,35c11.7,9.2,27,13.9,45.6,13.9c23,0,40.5-7.1,51.9-21l1-1.3L476.7,218.1z
				 M477.3,192.6h-72.2c1.8-6.8,5.9-12.4,12.1-16.5c6.7-4.5,15.2-6.8,25.4-6.8c8.7,0,16.4,2.1,22.9,6.4
				C471.5,179.6,475.5,185.3,477.3,192.6z"/>
		</g>
		<g>
			<path class="st4" d="M700.7,218.1l-0.9,1.2c-6.6,8.4-16.9,12.5-31.4,12.5c-10.4,0-19.2-2.1-26.3-6.4c-6.5-3.9-10.8-9.3-12.9-16.2
				h95.3l0.2-1.2c0.5-2.5,0.7-4.9,0.7-7.2c0-13.4-5.5-25.1-16.4-34.6c-10.9-9.6-25.2-14.5-42.5-14.5c-18.1,0-33.1,4.7-44.6,14
				c-11.4,9.3-17.2,21-17.2,34.9c0,14,5.9,25.8,17.6,35c11.7,9.2,27,13.9,45.6,13.9c23,0,40.5-7.1,51.9-21l1-1.3L700.7,218.1z
				 M701.2,192.6h-72.2c1.8-6.8,5.9-12.4,12.1-16.5c6.7-4.5,15.2-6.8,25.4-6.8c8.7,0,16.4,2.1,22.9,6.4
				C695.4,179.6,699.4,185.3,701.2,192.6z"/>
		</g>
		<g>
			<polygon class="st4" points="525.1,247.1 612.1,154 584.2,154 496.3,247.1 			"/>
		</g>
		<g>
			<polygon class="st4" points="583.2,247.1 496.3,154 524.1,154 612.1,247.1 			"/>
		</g>
	</g>
	<g>
		<g>
			<g>
				<polygon points="77.6,279.9 71.1,279.9 71.1,273.4 72.1,273.4 72.1,278.9 77.6,278.9 				"/>
			</g>
			<g>
				<path d="M72.1,261.4h-1v-12h1V261.4z M72.1,237.4h-1v-12h1V237.4z M72.1,213.4h-1v-12h1V213.4z M72.1,189.4h-1v-12h1V189.4z
					 M72.1,165.4h-1v-12h1V165.4z M72.1,141.4h-1v-12h1V141.4z M72.1,117.4h-1v-12h1V117.4z"/>
			</g>
			<g>
				<polygon points="72.1,93.4 71.1,93.4 71.1,86.9 77.6,86.9 77.6,87.9 72.1,87.9 				"/>
			</g>
			<g>
				<path d="M773.8,87.9h-12v-1h12V87.9z M749.7,87.9h-12v-1h12V87.9z M725.7,87.9h-12v-1h12V87.9z M701.7,87.9h-12v-1h12V87.9z
					 M677.7,87.9h-12v-1h12V87.9z M653.7,87.9h-12v-1h12V87.9z M629.7,87.9h-12v-1h12V87.9z M605.7,87.9h-12v-1h12V87.9z
					 M581.7,87.9h-12v-1h12V87.9z M557.7,87.9h-12v-1h12V87.9z M533.7,87.9h-12v-1h12V87.9z M509.7,87.9h-12v-1h12V87.9z
					 M485.7,87.9h-12v-1h12V87.9z M461.7,87.9h-12v-1h12V87.9z M437.7,87.9h-12v-1h12V87.9z M413.7,87.9h-12v-1h12V87.9z
					 M389.7,87.9h-12v-1h12V87.9z M365.7,87.9h-12v-1h12V87.9z M341.6,87.9h-12v-1h12V87.9z M317.6,87.9h-12v-1h12V87.9z
					 M293.6,87.9h-12v-1h12V87.9z M269.6,87.9h-12v-1h12V87.9z M245.6,87.9h-12v-1h12V87.9z M221.6,87.9h-12v-1h12V87.9z
					 M197.6,87.9h-12v-1h12V87.9z M173.6,87.9h-12v-1h12V87.9z M149.6,87.9h-12v-1h12V87.9z M125.6,87.9h-12v-1h12V87.9z
					 M101.6,87.9h-12v-1h12V87.9z"/>
			</g>
			<g>
				<polygon points="792.3,93.4 791.3,93.4 791.3,87.9 785.8,87.9 785.8,86.9 792.3,86.9 				"/>
			</g>
			<g>
				<path d="M792.3,261.4h-1v-12h1V261.4z M792.3,237.4h-1v-12h1V237.4z M792.3,213.4h-1v-12h1V213.4z M792.3,189.4h-1v-12h1V189.4z
					 M792.3,165.4h-1v-12h1V165.4z M792.3,141.4h-1v-12h1V141.4z M792.3,117.4h-1v-12h1V117.4z"/>
			</g>
			<g>
				<polygon points="792.3,279.9 785.8,279.9 785.8,278.9 791.3,278.9 791.3,273.4 792.3,273.4 				"/>
			</g>
			<g>
				<path d="M773.8,279.9h-12v-1h12V279.9z M749.7,279.9h-12v-1h12V279.9z M725.7,279.9h-12v-1h12V279.9z M701.7,279.9h-12v-1h12
					V279.9z M677.7,279.9h-12v-1h12V279.9z M653.7,279.9h-12v-1h12V279.9z M629.7,279.9h-12v-1h12V279.9z M605.7,279.9h-12v-1h12
					V279.9z M581.7,279.9h-12v-1h12V279.9z M557.7,279.9h-12v-1h12V279.9z M533.7,279.9h-12v-1h12V279.9z M509.7,279.9h-12v-1h12
					V279.9z M485.7,279.9h-12v-1h12V279.9z M461.7,279.9h-12v-1h12V279.9z M437.7,279.9h-12v-1h12V279.9z M413.7,279.9h-12v-1h12
					V279.9z M389.7,279.9h-12v-1h12V279.9z M365.6,279.9h-12v-1h12V279.9z M341.6,279.9h-12v-1h12V279.9z M317.6,279.9h-12v-1h12
					V279.9z M293.6,279.9h-12v-1h12V279.9z M269.6,279.9h-12v-1h12V279.9z M245.6,279.9h-12v-1h12V279.9z M221.6,279.9h-12v-1h12
					V279.9z M197.6,279.9h-12v-1h12V279.9z M173.6,279.9h-12v-1h12V279.9z M149.6,279.9h-12v-1h12V279.9z M125.6,279.9h-12v-1h12
					V279.9z M101.6,279.9h-12v-1h12V279.9z"/>
			</g>
		</g>
		<g>
			<path d="M395.8,59.8c-1.3,0-2.4-0.2-3.4-0.7c-1-0.5-1.8-1.1-2.4-2s-0.9-1.8-1-2.9h3c0,0.6,0.2,1.1,0.6,1.5
				c0.3,0.5,0.8,0.8,1.3,1.1c0.5,0.3,1.1,0.4,1.8,0.4c0.8,0,1.5-0.2,2.1-0.5s1.1-0.8,1.4-1.5c0.3-0.6,0.5-1.4,0.5-2.2
				c0-0.8-0.2-1.6-0.5-2.2c-0.4-0.7-0.8-1.2-1.5-1.5c-0.6-0.4-1.3-0.5-2.1-0.5c-0.6,0-1.2,0.1-1.9,0.3c-0.6,0.2-1.1,0.5-1.5,0.8
				l-2.9-0.4l1.1-10.3h11.3v2.7h-8.6l-0.6,5.7h0.1c0.4-0.4,0.9-0.7,1.6-1c0.7-0.3,1.4-0.4,2.1-0.4c0.9,0,1.8,0.2,2.6,0.5
				c0.8,0.3,1.5,0.8,2,1.4c0.6,0.6,1,1.3,1.4,2.2c0.3,0.8,0.5,1.7,0.5,2.7c0,1.3-0.3,2.5-0.9,3.5c-0.6,1-1.4,1.8-2.5,2.4
				C398.4,59.5,397.2,59.8,395.8,59.8z"/>
			<path d="M418.5,56.1l-11.5-11.4l1.9-1.9l11.5,11.5L418.5,56.1z M409,56.1l-1.9-1.9l11.5-11.5l1.9,1.9L409,56.1z"/>
			<path d="M432.4,39.2v20.4h-3.1V42h-0.1l-4.8,3.5v-3.1l4.5-3.2H432.4z"/>
		</g>
		<g>
			<path d="M43.7,204.4c0,1.3-0.2,2.4-0.7,3.4s-1.1,1.8-2,2.4s-1.8,0.9-2.9,1v-3c0.6,0,1.1-0.2,1.5-0.6s0.8-0.8,1.1-1.3
				c0.3-0.5,0.4-1.1,0.4-1.8c0-0.8-0.2-1.5-0.5-2.1s-0.8-1.1-1.5-1.4c-0.6-0.3-1.4-0.5-2.2-0.5c-0.8,0-1.6,0.2-2.2,0.5
				c-0.7,0.4-1.2,0.8-1.5,1.5c-0.4,0.6-0.5,1.3-0.5,2.1c0,0.6,0.1,1.2,0.3,1.9c0.2,0.6,0.5,1.1,0.8,1.5l-0.4,2.9l-10.3-1.1v-11.3
				h2.7v8.6l5.7,0.6v-0.1c-0.4-0.4-0.7-0.9-1-1.6c-0.3-0.7-0.4-1.4-0.4-2.1c0-0.9,0.2-1.8,0.5-2.6c0.3-0.8,0.8-1.5,1.4-2
				c0.6-0.6,1.3-1,2.2-1.4c0.8-0.3,1.7-0.5,2.7-0.5c1.3,0,2.5,0.3,3.5,0.9c1,0.6,1.8,1.4,2.4,2.5C43.4,201.8,43.7,203,43.7,204.4z"
				/>
			<path d="M39.9,181.7l-11.4,11.5l-1.9-1.9L38,179.8L39.9,181.7z M39.9,191.2l-1.9,1.9l-11.5-11.5l1.9-1.9L39.9,191.2z"/>
			<path d="M23.1,167.8h20.4v3.1H25.9v0.1l3.5,4.8h-3.1l-3.2-4.5V167.8z"/>
		</g>
	</g>
</g>
<g>
	<g>
		<g>
			<g>
				<polygon points="77.6,620.3 71.1,620.3 71.1,613.8 72.1,613.8 72.1,619.3 77.6,619.3 				"/>
			</g>
			<g>
				<path d="M72.1,601.8h-1v-12h1V601.8z M72.1,577.8h-1v-12h1V577.8z M72.1,553.8h-1v-12h1V553.8z M72.1,529.8h-1v-12h1V529.8z
					 M72.1,505.8h-1v-12h1V505.8z M72.1,481.8h-1v-12h1V481.8z M72.1,457.8h-1v-12h1V457.8z"/>
			</g>
			<g>
				<polygon points="72.1,433.8 71.1,433.8 71.1,427.3 77.6,427.3 77.6,428.3 72.1,428.3 				"/>
			</g>
			<g>
				<path d="M773.8,428.3h-12v-1h12V428.3z M749.7,428.3h-12v-1h12V428.3z M725.7,428.3h-12v-1h12V428.3z M701.7,428.3h-12v-1h12
					V428.3z M677.7,428.3h-12v-1h12V428.3z M653.7,428.3h-12v-1h12V428.3z M629.7,428.3h-12v-1h12V428.3z M605.7,428.3h-12v-1h12
					V428.3z M581.7,428.3h-12v-1h12V428.3z M557.7,428.3h-12v-1h12V428.3z M533.7,428.3h-12v-1h12V428.3z M509.7,428.3h-12v-1h12
					V428.3z M485.7,428.3h-12v-1h12V428.3z M461.7,428.3h-12v-1h12V428.3z M437.7,428.3h-12v-1h12V428.3z M413.7,428.3h-12v-1h12
					V428.3z M389.7,428.3h-12v-1h12V428.3z M365.7,428.3h-12v-1h12V428.3z M341.6,428.3h-12v-1h12V428.3z M317.6,428.3h-12v-1h12
					V428.3z M293.6,428.3h-12v-1h12V428.3z M269.6,428.3h-12v-1h12V428.3z M245.6,428.3h-12v-1h12V428.3z M221.6,428.3h-12v-1h12
					V428.3z M197.6,428.3h-12v-1h12V428.3z M173.6,428.3h-12v-1h12V428.3z M149.6,428.3h-12v-1h12V428.3z M125.6,428.3h-12v-1h12
					V428.3z M101.6,428.3h-12v-1h12V428.3z"/>
			</g>
			<g>
				<polygon points="792.3,433.8 791.3,433.8 791.3,428.3 785.8,428.3 785.8,427.3 792.3,427.3 				"/>
			</g>
			<g>
				<path d="M792.3,601.8h-1v-12h1V601.8z M792.3,577.8h-1v-12h1V577.8z M792.3,553.8h-1v-12h1V553.8z M792.3,529.8h-1v-12h1V529.8z
					 M792.3,505.8h-1v-12h1V505.8z M792.3,481.8h-1v-12h1V481.8z M792.3,457.8h-1v-12h1V457.8z"/>
			</g>
			<g>
				<polygon points="792.3,620.3 785.8,620.3 785.8,619.3 791.3,619.3 791.3,613.8 792.3,613.8 				"/>
			</g>
			<g>
				<path d="M773.8,620.3h-12v-1h12V620.3z M749.7,620.3h-12v-1h12V620.3z M725.7,620.3h-12v-1h12V620.3z M701.7,620.3h-12v-1h12
					V620.3z M677.7,620.3h-12v-1h12V620.3z M653.7,620.3h-12v-1h12V620.3z M629.7,620.3h-12v-1h12V620.3z M605.7,620.3h-12v-1h12
					V620.3z M581.7,620.3h-12v-1h12V620.3z M557.7,620.3h-12v-1h12V620.3z M533.7,620.3h-12v-1h12V620.3z M509.7,620.3h-12v-1h12
					V620.3z M485.7,620.3h-12v-1h12V620.3z M461.7,620.3h-12v-1h12V620.3z M437.7,620.3h-12v-1h12V620.3z M413.7,620.3h-12v-1h12
					V620.3z M389.7,620.3h-12v-1h12V620.3z M365.6,620.3h-12v-1h12V620.3z M341.6,620.3h-12v-1h12V620.3z M317.6,620.3h-12v-1h12
					V620.3z M293.6,620.3h-12v-1h12V620.3z M269.6,620.3h-12v-1h12V620.3z M245.6,620.3h-12v-1h12V620.3z M221.6,620.3h-12v-1h12
					V620.3z M197.6,620.3h-12v-1h12V620.3z M173.6,620.3h-12v-1h12V620.3z M149.6,620.3h-12v-1h12V620.3z M125.6,620.3h-12v-1h12
					V620.3z M101.6,620.3h-12v-1h12V620.3z"/>
			</g>
		</g>
		<g>
			<path d="M395.8,400.2c-1.3,0-2.4-0.2-3.4-0.7c-1-0.5-1.8-1.1-2.4-2s-0.9-1.8-1-2.9h3c0,0.6,0.2,1.1,0.6,1.5
				c0.3,0.5,0.8,0.8,1.3,1.1c0.5,0.3,1.1,0.4,1.8,0.4c0.8,0,1.5-0.2,2.1-0.5s1.1-0.8,1.4-1.5c0.3-0.6,0.5-1.4,0.5-2.2
				c0-0.8-0.2-1.6-0.5-2.2c-0.4-0.7-0.8-1.2-1.5-1.5c-0.6-0.4-1.3-0.5-2.1-0.5c-0.6,0-1.2,0.1-1.9,0.3c-0.6,0.2-1.1,0.5-1.5,0.8
				l-2.9-0.4l1.1-10.3h11.3v2.7h-8.6l-0.6,5.7h0.1c0.4-0.4,0.9-0.7,1.6-1c0.7-0.3,1.4-0.4,2.1-0.4c0.9,0,1.8,0.2,2.6,0.5
				c0.8,0.3,1.5,0.8,2,1.4c0.6,0.6,1,1.3,1.4,2.2c0.3,0.8,0.5,1.7,0.5,2.7c0,1.3-0.3,2.5-0.9,3.5c-0.6,1-1.4,1.8-2.5,2.4
				C398.4,400,397.2,400.2,395.8,400.2z"/>
			<path d="M418.5,396.5L407.1,385l1.9-1.9l11.5,11.5L418.5,396.5z M409,396.5l-1.9-1.9l11.5-11.5l1.9,1.9L409,396.5z"/>
			<path d="M432.4,379.6V400h-3.1v-17.5h-0.1l-4.8,3.5v-3.1l4.5-3.2H432.4z"/>
		</g>
		<g>
			<path d="M43.7,544.8c0,1.3-0.2,2.4-0.7,3.4s-1.1,1.8-2,2.4s-1.8,0.9-2.9,1v-3c0.6,0,1.1-0.2,1.5-0.6s0.8-0.8,1.1-1.3
				c0.3-0.5,0.4-1.1,0.4-1.8c0-0.8-0.2-1.5-0.5-2.1s-0.8-1.1-1.5-1.4c-0.6-0.3-1.4-0.5-2.2-0.5c-0.8,0-1.6,0.2-2.2,0.5
				c-0.7,0.4-1.2,0.8-1.5,1.5c-0.4,0.6-0.5,1.3-0.5,2.1c0,0.6,0.1,1.2,0.3,1.9c0.2,0.6,0.5,1.1,0.8,1.5l-0.4,2.9L23.1,550v-11.3h2.7
				v8.6l5.7,0.6V548c-0.4-0.4-0.7-0.9-1-1.6c-0.3-0.7-0.4-1.4-0.4-2.1c0-0.9,0.2-1.8,0.5-2.6c0.3-0.8,0.8-1.5,1.4-2
				c0.6-0.6,1.3-1,2.2-1.4c0.8-0.3,1.7-0.5,2.7-0.5c1.3,0,2.5,0.3,3.5,0.9c1,0.6,1.8,1.4,2.4,2.5C43.4,542.2,43.7,543.4,43.7,544.8z
				"/>
			<path d="M39.9,522.1l-11.4,11.5l-1.9-1.9L38,520.2L39.9,522.1z M39.9,531.6l-1.9,1.9l-11.5-11.5l1.9-1.9L39.9,531.6z"/>
			<path d="M23.1,508.2h20.4v3.1H25.9v0.1l3.5,4.8h-3.1l-3.2-4.5V508.2z"/>
		</g>
	</g>
	<g>
		<g>
			
				<use xlink:href="#New_Symbol"  width="127.6" height="127.6" id="XMLID_00000183933319000200114470000005668002162092641976_" x="-64" y="-63.6" transform="matrix(1.0335 0 0 -1.0335 166.6836 524.2785)" style="overflow:visible;"/>
		</g>
		<g>
			<polygon class="st4" points="370.8,458.1 325.7,560.8 280.3,458.1 253.4,458.1 312.2,587.7 338.9,587.7 397.8,458.1 			"/>
			<path class="st4" d="M667.1,492c-18.2,0-33.2,4.7-44.7,14c-11.5,9.3-17.3,21.1-17.3,35c0,14.1,5.9,25.9,17.6,35.1
				c11.7,9.2,27.1,13.9,45.7,13.9c23.1,0,40.6-7.1,52.1-21.1l1-1.3l-20.2-9l-0.9,1.2c-6.6,8.4-16.9,12.5-31.5,12.5
				c-10.4,0-19.3-2.2-26.4-6.4c-6.5-3.9-10.9-9.4-13-16.3h95.6l0.2-1.2c0.5-2.5,0.7-4.9,0.7-7.3c0-13.5-5.5-25.1-16.4-34.7
				C698.7,496.9,684.4,492,667.1,492z M701.9,533.1h-72.4c1.8-6.8,5.9-12.4,12.1-16.6c6.7-4.5,15.2-6.8,25.5-6.8
				c8.7,0,16.4,2.1,23,6.4C696.1,520,700.1,525.7,701.9,533.1z"/>
			<rect x="739.2" y="457.6" class="st4" width="23.6" height="130.1"/>
			<path class="st4" d="M476.9,558.6l-0.9,1.2c-6.6,8.4-16.9,12.5-31.5,12.5c-10.4,0-19.3-2.2-26.4-6.4c-6.5-3.9-10.9-9.4-13-16.3
				h95.6l0.2-1.2c0.5-2.5,0.7-4.9,0.7-7.3c0-13.5-5.5-25.1-16.4-34.7c-11-9.6-25.3-14.5-42.6-14.5c-18.2,0-33.2,4.7-44.7,14
				c-11.5,9.3-17.3,21.1-17.3,35c0,14.1,5.9,25.9,17.6,35.1c11.7,9.2,27.1,13.9,45.7,13.9c23.1,0,40.6-7.1,52.1-21.1l1-1.3
				L476.9,558.6z M477.4,533.1H405c1.8-6.8,5.9-12.4,12.1-16.6c6.7-4.5,15.2-6.8,25.5-6.8c8.7,0,16.4,2.1,23,6.4
				C471.6,520,475.6,525.7,477.4,533.1z"/>
			<path class="st4" d="M701.5,558.6l-0.9,1.2c-6.6,8.4-16.9,12.5-31.5,12.5c-10.4,0-19.3-2.2-26.4-6.4c-6.5-3.9-10.9-9.4-13-16.3
				h95.6l0.2-1.2c0.5-2.5,0.7-4.9,0.7-7.3c0-13.5-5.5-25.1-16.4-34.7c-11-9.6-25.3-14.5-42.6-14.5c-18.2,0-33.2,4.7-44.7,14
				c-11.5,9.3-17.3,21.1-17.3,35c0,14.1,5.9,25.9,17.6,35.1c11.7,9.2,27.1,13.9,45.7,13.9c23.1,0,40.6-7.1,52.1-21.1l1-1.3
				L701.5,558.6z M702.1,533.1h-72.4c1.8-6.8,5.9-12.4,12.1-16.6c6.7-4.5,15.2-6.8,25.5-6.8c8.7,0,16.4,2.1,23,6.4
				C696.3,520,700.3,525.7,702.1,533.1z"/>
			<polygon class="st4" points="525.4,587.7 612.6,494.3 584.6,494.3 496.5,587.7 			"/>
			<polygon class="st4" points="583.7,587.7 496.5,494.3 524.4,494.3 612.6,587.7 			"/>
		</g>
	</g>
</g>
</svg>
