<?xml version="1.0" encoding="utf-8"?>
<!-- Generator: Adobe Illustrator 27.9.1, SVG Export Plug-In . SVG Version: 6.00 Build 0)  -->
<svg version="1.1" id="Layer_1" xmlns="http://www.w3.org/2000/svg" xmlns:xlink="http://www.w3.org/1999/xlink" x="0px" y="0px"
	 viewBox="0 0 828 368" style="enable-background:new 0 0 828 368;" xml:space="preserve">
<style type="text/css">
	.st0{fill:#7D8691;}
	.st1{fill:#081B37;}
	.st2{fill:#FFFFFF;}
	.st3{fill:#F46F33;}
</style>
<g>
	<g>
		<path class="st0" d="M576.9,156.3C576.9,156.3,576.9,156.3,576.9,156.3C576.8,156.3,576.8,156.3,576.9,156.3
			C576.8,156.3,576.9,156.3,576.9,156.3z"/>
	</g>
</g>
<g>
	
		<rect x="540.5" y="80.5" transform="matrix(3.267949e-07 1 -1 3.267949e-07 908.4996 -540.4997)" class="st0" width="368" height="207"/>
</g>
<g>
	<rect x="414" y="0" class="st1" width="207" height="368"/>
</g>
<g>
	<rect x="207" y="0" class="st2" width="207" height="368"/>
</g>
<g>
	<rect x="0" y="0" class="st3" width="207" height="368"/>
</g>
<g>
	<g>
		<path class="st1" d="M21.1,319.3v-10.2h1.6v4.3h5v-4.3h1.6v10.2h-1.6v-4.5h-5v4.5H21.1z"/>
		<path class="st1" d="M34.7,319.5c-0.8,0-1.4-0.2-1.9-0.5c-0.5-0.3-1-0.8-1.3-1.4s-0.4-1.3-0.4-2.1c0-0.8,0.1-1.5,0.4-2.1
			c0.3-0.6,0.7-1.1,1.2-1.4s1.1-0.5,1.9-0.5c0.4,0,0.9,0.1,1.3,0.2s0.8,0.4,1.1,0.7c0.3,0.3,0.6,0.7,0.8,1.2s0.3,1.1,0.3,1.8v0.5
			h-6.1v-1.1h5.3l-0.7,0.4c0-0.5-0.1-0.9-0.2-1.2c-0.1-0.4-0.4-0.6-0.6-0.8c-0.3-0.2-0.6-0.3-1.1-0.3c-0.4,0-0.8,0.1-1.1,0.3
			s-0.5,0.5-0.7,0.8s-0.2,0.7-0.2,1.1v0.8c0,0.5,0.1,1,0.3,1.3s0.4,0.6,0.8,0.8s0.7,0.3,1.1,0.3c0.3,0,0.5,0,0.8-0.1
			c0.2-0.1,0.4-0.2,0.6-0.4c0.2-0.2,0.3-0.4,0.4-0.6l1.4,0.3c-0.1,0.4-0.3,0.7-0.6,1s-0.6,0.5-1.1,0.7
			C35.8,319.4,35.3,319.5,34.7,319.5z"/>
		<path class="st1" d="M38.7,319.3l3-4.5l0,1.2l-2.8-4.3h1.7l0.9,1.4c0.2,0.4,0.4,0.8,0.6,1.1c0.2,0.4,0.4,0.7,0.6,1h-0.7
			c0.2-0.3,0.4-0.7,0.5-1c0.2-0.4,0.4-0.7,0.6-1.1l0.9-1.4h1.7l-2.9,4.3v-1.1l3,4.4h-1.7l-1-1.6c-0.2-0.4-0.4-0.7-0.6-1.1
			s-0.4-0.7-0.5-1h0.7c-0.2,0.3-0.4,0.6-0.5,1s-0.4,0.7-0.6,1.1l-1,1.6H38.7z"/>
	</g>
	<g>
		<path class="st1" d="M20.3,341l0.3-1.5h9.9l-0.3,1.5H20.3z M21,336.4l0.3-1.6h9.9l-0.2,1.6H21z M21.6,344.5l2.1-13.1h1.5
			l-2.1,13.1H21.6z M26.2,344.5l2.2-13.1h1.5l-2.1,13.1H26.2z"/>
		<path class="st1" d="M32.9,344.5v-13.1h8.1v1.7H35v4.2h5.6v1.7H35v5.4H32.9z"/>
		<path class="st1" d="M43.1,341.9v-1.6l5.6-8.9H50v2.4h-0.8l-4,6.4v0.1H53v1.7H43.1z M49.3,344.5v-3l0-0.7v-9.3h1.9v13.1H49.3z"/>
		<path class="st1" d="M59.7,344.7c-0.6,0-1.2-0.1-1.7-0.3c-0.6-0.2-1.1-0.5-1.5-1s-0.8-1.1-1.1-1.9s-0.4-1.8-0.4-3
			c0-1.1,0.1-2.1,0.3-3s0.6-1.6,1-2.2s1-1.1,1.6-1.4c0.6-0.3,1.3-0.5,2.1-0.5c0.8,0,1.5,0.2,2.1,0.5c0.6,0.3,1.1,0.7,1.5,1.3
			s0.6,1.2,0.7,1.9h-2c-0.1-0.5-0.4-1-0.8-1.3c-0.4-0.3-0.9-0.5-1.5-0.5c-0.6,0-1.2,0.2-1.6,0.6s-0.8,0.9-1,1.6s-0.4,1.5-0.4,2.5
			h0.1c0.2-0.4,0.5-0.7,0.8-1s0.7-0.5,1.1-0.6s0.8-0.2,1.3-0.2c0.8,0,1.5,0.2,2.1,0.5c0.6,0.4,1.1,0.9,1.5,1.5s0.5,1.4,0.5,2.2
			c0,0.8-0.2,1.6-0.6,2.3s-0.9,1.2-1.6,1.6S60.6,344.7,59.7,344.7z M59.7,343c0.5,0,0.9-0.1,1.3-0.4s0.7-0.6,0.9-1
			c0.2-0.4,0.3-0.9,0.3-1.4c0-0.5-0.1-1-0.3-1.4c-0.2-0.4-0.5-0.7-0.9-1s-0.8-0.4-1.3-0.4c-0.4,0-0.7,0.1-1,0.2s-0.6,0.3-0.8,0.6
			c-0.2,0.3-0.4,0.5-0.6,0.9c-0.1,0.3-0.2,0.7-0.2,1c0,0.5,0.1,0.9,0.3,1.3c0.2,0.4,0.5,0.7,0.9,1S59.2,343,59.7,343z"/>
		<path class="st1" d="M66.7,344.5v-13.1h8.1v1.7h-6.1v4.2h5.6v1.7h-5.6v5.4H66.7z"/>
		<path class="st1" d="M81.5,344.7c-0.9,0-1.7-0.2-2.4-0.5s-1.2-0.7-1.6-1.3s-0.6-1.2-0.6-1.9h2c0,0.4,0.2,0.7,0.4,1
			s0.5,0.5,0.9,0.7s0.8,0.2,1.3,0.2c0.5,0,1-0.1,1.4-0.3s0.7-0.4,0.9-0.7s0.3-0.7,0.3-1.1c0-0.4-0.1-0.8-0.3-1.2s-0.5-0.6-1-0.8
			s-0.9-0.3-1.5-0.3h-1.1V337h1.1c0.5,0,0.9-0.1,1.3-0.3s0.7-0.4,0.9-0.7s0.3-0.7,0.3-1.1c0-0.4-0.1-0.8-0.3-1.1s-0.4-0.5-0.8-0.7
			c-0.3-0.2-0.7-0.3-1.2-0.3c-0.4,0-0.8,0.1-1.2,0.2s-0.7,0.4-0.9,0.7s-0.4,0.6-0.4,1h-1.9c0-0.7,0.2-1.3,0.6-1.9s0.9-1,1.6-1.3
			s1.4-0.5,2.2-0.5c0.8,0,1.6,0.2,2.2,0.5s1.1,0.8,1.4,1.3c0.3,0.5,0.5,1.1,0.5,1.8c0,0.7-0.2,1.4-0.6,1.9c-0.4,0.5-1,0.9-1.6,1v0.1
			c0.6,0.1,1.1,0.3,1.5,0.6c0.4,0.3,0.7,0.6,0.9,1.1s0.3,0.9,0.3,1.5c0,0.7-0.2,1.4-0.6,1.9s-0.9,1-1.6,1.3S82.4,344.7,81.5,344.7z"
			/>
		<path class="st1" d="M92.8,344.7c-0.9,0-1.7-0.2-2.4-0.5s-1.2-0.7-1.6-1.3s-0.6-1.2-0.6-1.9h2c0,0.4,0.2,0.7,0.4,1
			s0.5,0.5,0.9,0.7s0.8,0.2,1.3,0.2c0.5,0,1-0.1,1.4-0.3s0.7-0.4,0.9-0.7s0.3-0.7,0.3-1.1c0-0.4-0.1-0.8-0.3-1.2s-0.5-0.6-1-0.8
			s-0.9-0.3-1.5-0.3h-1.1V337h1.1c0.5,0,0.9-0.1,1.3-0.3s0.7-0.4,0.9-0.7s0.3-0.7,0.3-1.1c0-0.4-0.1-0.8-0.3-1.1s-0.4-0.5-0.8-0.7
			c-0.3-0.2-0.7-0.3-1.2-0.3c-0.4,0-0.8,0.1-1.2,0.2s-0.7,0.4-0.9,0.7s-0.4,0.6-0.4,1h-1.9c0-0.7,0.2-1.3,0.6-1.9s0.9-1,1.6-1.3
			s1.4-0.5,2.2-0.5c0.8,0,1.6,0.2,2.2,0.5s1.1,0.8,1.4,1.3c0.3,0.5,0.5,1.1,0.5,1.8c0,0.7-0.2,1.4-0.6,1.9c-0.4,0.5-1,0.9-1.6,1v0.1
			c0.6,0.1,1.1,0.3,1.5,0.6c0.4,0.3,0.7,0.6,0.9,1.1s0.3,0.9,0.3,1.5c0,0.7-0.2,1.4-0.6,1.9s-0.9,1-1.6,1.3S93.7,344.7,92.8,344.7z"
			/>
	</g>
</g>
<g>
	<g>
		<path class="st1" d="M228.1,319.3v-10.2h1.6v4.3h5v-4.3h1.6v10.2h-1.6v-4.5h-5v4.5H228.1z"/>
		<path class="st1" d="M241.7,319.5c-0.8,0-1.4-0.2-1.9-0.5c-0.5-0.3-1-0.8-1.3-1.4s-0.4-1.3-0.4-2.1c0-0.8,0.1-1.5,0.4-2.1
			c0.3-0.6,0.7-1.1,1.2-1.4s1.1-0.5,1.9-0.5c0.4,0,0.9,0.1,1.3,0.2s0.8,0.4,1.1,0.7c0.3,0.3,0.6,0.7,0.8,1.2s0.3,1.1,0.3,1.8v0.5
			h-6.1v-1.1h5.3l-0.7,0.4c0-0.5-0.1-0.9-0.2-1.2c-0.1-0.4-0.4-0.6-0.6-0.8c-0.3-0.2-0.6-0.3-1.1-0.3c-0.4,0-0.8,0.1-1.1,0.3
			s-0.5,0.5-0.7,0.8s-0.2,0.7-0.2,1.1v0.8c0,0.5,0.1,1,0.3,1.3s0.4,0.6,0.8,0.8s0.7,0.3,1.1,0.3c0.3,0,0.5,0,0.8-0.1
			c0.2-0.1,0.4-0.2,0.6-0.4c0.2-0.2,0.3-0.4,0.4-0.6l1.4,0.3c-0.1,0.4-0.3,0.7-0.6,1s-0.6,0.5-1.1,0.7
			C242.8,319.4,242.3,319.5,241.7,319.5z"/>
		<path class="st1" d="M245.7,319.3l3-4.5l0,1.2l-2.8-4.3h1.7l0.9,1.4c0.2,0.4,0.4,0.8,0.6,1.1c0.2,0.4,0.4,0.7,0.6,1h-0.7
			c0.2-0.3,0.4-0.7,0.5-1c0.2-0.4,0.4-0.7,0.6-1.1l0.9-1.4h1.7l-2.9,4.3v-1.1l3,4.4h-1.7l-1-1.6c-0.2-0.4-0.4-0.7-0.6-1.1
			s-0.4-0.7-0.5-1h0.7c-0.2,0.3-0.4,0.6-0.5,1s-0.4,0.7-0.6,1.1l-1,1.6H245.7z"/>
	</g>
	<g>
		<path class="st1" d="M227.3,341l0.3-1.5h9.9l-0.3,1.5H227.3z M228,336.4l0.3-1.6h9.9l-0.2,1.6H228z M228.6,344.5l2.1-13.1h1.5
			l-2.1,13.1H228.6z M233.2,344.5l2.2-13.1h1.5l-2.1,13.1H233.2z"/>
		<path class="st1" d="M239.9,344.5v-13.1h8.1v1.7H242v4.2h5.6v1.7H242v5.4H239.9z"/>
		<path class="st1" d="M250.6,344.5v-13.1h8.1v1.7h-6.1v4.2h5.6v1.7h-5.6v5.4H250.6z"/>
		<path class="st1" d="M261.2,344.5v-13.1h8.1v1.7h-6.1v4.2h5.6v1.7h-5.6v5.4H261.2z"/>
		<path class="st1" d="M271.8,344.5v-13.1h8.1v1.7h-6.1v4.2h5.6v1.7h-5.6v5.4H271.8z"/>
		<path class="st1" d="M282.4,344.5v-13.1h8.1v1.7h-6.1v4.2h5.6v1.7h-5.6v5.4H282.4z"/>
		<path class="st1" d="M293,344.5v-13.1h8.1v1.7H295v4.2h5.6v1.7H295v5.4H293z"/>
	</g>
</g>
<g>
	<g>
		<g>
			<path class="st2" d="M435.1,319.3v-10.2h1.6v4.3h5v-4.3h1.6v10.2h-1.6v-4.5h-5v4.5H435.1z"/>
		</g>
		<g>
			<path class="st2" d="M448.7,319.5c-0.8,0-1.4-0.2-1.9-0.5c-0.5-0.3-1-0.8-1.3-1.4s-0.4-1.3-0.4-2.1c0-0.8,0.1-1.5,0.4-2.1
				c0.3-0.6,0.7-1.1,1.2-1.4c0.5-0.3,1.1-0.5,1.9-0.5c0.4,0,0.9,0.1,1.3,0.2c0.4,0.1,0.8,0.4,1.1,0.7c0.3,0.3,0.6,0.7,0.8,1.2
				c0.2,0.5,0.3,1.1,0.3,1.8v0.5h-6.1v-1.1h5.3l-0.7,0.4c0-0.5-0.1-0.9-0.2-1.2c-0.1-0.4-0.4-0.6-0.6-0.8c-0.3-0.2-0.6-0.3-1.1-0.3
				c-0.4,0-0.8,0.1-1.1,0.3s-0.5,0.5-0.7,0.8s-0.2,0.7-0.2,1.1v0.8c0,0.5,0.1,1,0.3,1.3c0.2,0.4,0.4,0.6,0.8,0.8
				c0.3,0.2,0.7,0.3,1.1,0.3c0.3,0,0.5,0,0.8-0.1c0.2-0.1,0.4-0.2,0.6-0.4c0.2-0.2,0.3-0.4,0.4-0.6l1.4,0.3c-0.1,0.4-0.3,0.7-0.6,1
				c-0.3,0.3-0.6,0.5-1.1,0.7C449.8,319.4,449.3,319.5,448.7,319.5z"/>
		</g>
		<g>
			<path class="st2" d="M452.7,319.3l3-4.5l0,1.2l-2.8-4.3h1.7l0.9,1.4c0.2,0.4,0.4,0.8,0.6,1.1c0.2,0.4,0.4,0.7,0.6,1h-0.7
				c0.2-0.3,0.4-0.7,0.5-1c0.2-0.4,0.4-0.7,0.6-1.1l0.9-1.4h1.7l-2.9,4.3v-1.1l3,4.4h-1.7l-1-1.6c-0.2-0.4-0.4-0.7-0.6-1.1
				s-0.4-0.7-0.5-1h0.7c-0.2,0.3-0.4,0.6-0.5,1s-0.4,0.7-0.6,1.1l-1,1.6H452.7z"/>
		</g>
	</g>
	<g>
		<g>
			<path class="st2" d="M434.3,341l0.3-1.5h9.9l-0.3,1.5H434.3z M435,336.4l0.3-1.6h9.9l-0.2,1.6H435z M435.6,344.5l2.1-13.1h1.5
				l-2.1,13.1H435.6z M440.2,344.5l2.2-13.1h1.5l-2.1,13.1H440.2z"/>
		</g>
		<g>
			<path class="st2" d="M451.3,344.7c-1,0-1.9-0.3-2.6-0.8s-1.3-1.3-1.6-2.3s-0.6-2.2-0.6-3.6c0-1.4,0.2-2.6,0.6-3.6
				s0.9-1.8,1.6-2.3s1.6-0.8,2.6-0.8c1,0,1.9,0.3,2.6,0.8s1.3,1.3,1.7,2.3s0.6,2.2,0.6,3.6s-0.2,2.6-0.6,3.6s-0.9,1.8-1.6,2.3
				S452.3,344.7,451.3,344.7z M451.3,343c0.6,0,1.1-0.2,1.5-0.6c0.4-0.4,0.7-1,1-1.7s0.3-1.6,0.3-2.7c0-1.1-0.1-2-0.3-2.7
				s-0.5-1.3-1-1.7c-0.4-0.4-0.9-0.6-1.5-0.6s-1.1,0.2-1.5,0.6s-0.7,1-1,1.7c-0.2,0.7-0.3,1.7-0.3,2.7c0,1.1,0.1,2,0.3,2.7
				s0.5,1.3,1,1.7C450.2,342.8,450.7,343,451.3,343z"/>
		</g>
		<g>
			<path class="st2" d="M462.8,344.7c-0.9,0-1.7-0.2-2.4-0.5s-1.3-0.8-1.6-1.3c-0.4-0.6-0.6-1.2-0.6-1.9c0-0.6,0.1-1.1,0.3-1.5
				s0.5-0.9,0.9-1.2s0.8-0.5,1.4-0.6v-0.1c-0.7-0.2-1.2-0.5-1.6-1s-0.6-1.2-0.6-1.9c0-0.7,0.2-1.3,0.5-1.8s0.9-0.9,1.5-1.2
				s1.4-0.5,2.2-0.5c0.8,0,1.5,0.2,2.2,0.5s1.1,0.7,1.5,1.2s0.5,1.1,0.5,1.8c0,0.7-0.2,1.3-0.6,1.9s-0.9,0.9-1.6,1v0.1
				c0.5,0.1,0.9,0.3,1.3,0.6s0.7,0.7,1,1.2s0.4,1,0.4,1.5c0,0.7-0.2,1.3-0.6,1.9c-0.4,0.6-0.9,1-1.7,1.3S463.7,344.7,462.8,344.7z
				 M462.8,343c0.5,0,1-0.1,1.4-0.3s0.7-0.4,0.9-0.8c0.2-0.3,0.3-0.7,0.3-1.1c0-0.5-0.1-0.9-0.3-1.2s-0.5-0.6-0.9-0.8
				s-0.8-0.3-1.4-0.3c-0.5,0-1,0.1-1.4,0.3s-0.7,0.5-0.9,0.8s-0.3,0.7-0.3,1.2c0,0.4,0.1,0.8,0.3,1.1c0.2,0.3,0.5,0.6,0.9,0.8
				S462.2,343,462.8,343z M462.8,337c0.4,0,0.8-0.1,1.2-0.3s0.6-0.4,0.8-0.7c0.2-0.3,0.3-0.7,0.3-1.1c0-0.4-0.1-0.8-0.3-1.1
				s-0.5-0.5-0.8-0.7c-0.3-0.2-0.7-0.3-1.2-0.3s-0.8,0.1-1.2,0.3c-0.3,0.2-0.6,0.4-0.8,0.7s-0.3,0.7-0.3,1.1c0,0.4,0.1,0.8,0.3,1.1
				c0.2,0.3,0.5,0.6,0.8,0.7S462.3,337,462.8,337z"/>
		</g>
		<g>
			<path class="st2" d="M474.5,331.4v13.1h-2v-11.3h-0.1l-3.1,2.3v-2l2.9-2.1H474.5z"/>
		</g>
		<g>
			<path class="st2" d="M477.4,344.5v-13.1h4.8c0.9,0,1.7,0.2,2.3,0.5s1.1,0.7,1.4,1.2c0.3,0.5,0.4,1.1,0.4,1.7c0,0.5-0.1,1-0.3,1.4
				s-0.5,0.7-0.8,0.9s-0.7,0.4-1.1,0.5v0.1c0.4,0,0.9,0.2,1.3,0.4c0.4,0.3,0.8,0.6,1,1.1s0.4,1,0.4,1.7c0,0.7-0.2,1.3-0.5,1.8
				s-0.8,1-1.4,1.3s-1.5,0.5-2.5,0.5H477.4z M479.4,337.1h2.6c0.4,0,0.8-0.1,1.2-0.3s0.6-0.4,0.8-0.7s0.3-0.7,0.3-1.1
				c0-0.5-0.2-1-0.6-1.3c-0.4-0.4-1-0.5-1.7-0.5h-2.7V337.1z M479.4,342.8h2.8c0.9,0,1.6-0.2,2-0.5s0.6-0.8,0.6-1.4
				c0-0.4-0.1-0.8-0.3-1.1s-0.5-0.6-0.9-0.8c-0.4-0.2-0.8-0.3-1.4-0.3h-2.9V342.8z"/>
		</g>
		<g>
			<path class="st2" d="M493.4,344.7c-0.9,0-1.7-0.2-2.4-0.5s-1.2-0.7-1.6-1.3s-0.6-1.2-0.6-1.9h2c0,0.4,0.2,0.7,0.4,1
				s0.5,0.5,0.9,0.7s0.8,0.2,1.3,0.2c0.5,0,1-0.1,1.4-0.3s0.7-0.4,0.9-0.7s0.3-0.7,0.3-1.1c0-0.4-0.1-0.8-0.3-1.2s-0.5-0.6-1-0.8
				s-0.9-0.3-1.5-0.3H492V337h1.1c0.5,0,0.9-0.1,1.3-0.3s0.7-0.4,0.9-0.7s0.3-0.7,0.3-1.1c0-0.4-0.1-0.8-0.3-1.1s-0.4-0.5-0.8-0.7
				c-0.3-0.2-0.7-0.3-1.2-0.3c-0.4,0-0.8,0.1-1.2,0.2s-0.7,0.4-0.9,0.7s-0.4,0.6-0.4,1H489c0-0.7,0.2-1.3,0.6-1.9s0.9-1,1.6-1.3
				s1.4-0.5,2.2-0.5c0.8,0,1.6,0.2,2.2,0.5s1.1,0.8,1.4,1.3c0.3,0.5,0.5,1.1,0.5,1.8c0,0.7-0.2,1.4-0.6,1.9c-0.4,0.5-1,0.9-1.6,1
				v0.1c0.6,0.1,1.1,0.3,1.5,0.6c0.4,0.3,0.7,0.6,0.9,1.1s0.3,0.9,0.3,1.5c0,0.7-0.2,1.4-0.6,1.9s-0.9,1-1.6,1.3
				S494.3,344.7,493.4,344.7z"/>
		</g>
		<g>
			<path class="st2" d="M500.7,344.5l5.7-11.3v-0.1h-6.6v-1.7h8.7v1.8l-5.7,11.3H500.7z"/>
		</g>
	</g>
</g>
<g>
	<g>
		<path class="st1" d="M642.1,319.3v-10.2h1.6v4.3h5v-4.3h1.6v10.2h-1.6v-4.5h-5v4.5H642.1z"/>
		<path class="st1" d="M655.7,319.5c-0.8,0-1.4-0.2-1.9-0.5c-0.5-0.3-1-0.8-1.3-1.4s-0.4-1.3-0.4-2.1c0-0.8,0.1-1.5,0.4-2.1
			c0.3-0.6,0.7-1.1,1.2-1.4c0.5-0.3,1.1-0.5,1.9-0.5c0.4,0,0.9,0.1,1.3,0.2c0.4,0.1,0.8,0.4,1.1,0.7c0.3,0.3,0.6,0.7,0.8,1.2
			c0.2,0.5,0.3,1.1,0.3,1.8v0.5h-6.1v-1.1h5.3l-0.7,0.4c0-0.5-0.1-0.9-0.2-1.2c-0.1-0.4-0.4-0.6-0.6-0.8c-0.3-0.2-0.6-0.3-1.1-0.3
			c-0.4,0-0.8,0.1-1.1,0.3s-0.5,0.5-0.7,0.8s-0.2,0.7-0.2,1.1v0.8c0,0.5,0.1,1,0.3,1.3c0.2,0.4,0.4,0.6,0.8,0.8
			c0.3,0.2,0.7,0.3,1.1,0.3c0.3,0,0.5,0,0.8-0.1c0.2-0.1,0.4-0.2,0.6-0.4c0.2-0.2,0.3-0.4,0.4-0.6l1.4,0.3c-0.1,0.4-0.3,0.7-0.6,1
			c-0.3,0.3-0.6,0.5-1.1,0.7C656.8,319.4,656.3,319.5,655.7,319.5z"/>
		<path class="st1" d="M659.7,319.3l3-4.5l0,1.2l-2.8-4.3h1.7l0.9,1.4c0.2,0.4,0.4,0.8,0.6,1.1c0.2,0.4,0.4,0.7,0.6,1h-0.7
			c0.2-0.3,0.4-0.7,0.5-1c0.2-0.4,0.4-0.7,0.6-1.1l0.9-1.4h1.7l-2.9,4.3v-1.1l3,4.4h-1.7l-1-1.6c-0.2-0.4-0.4-0.7-0.6-1.1
			s-0.4-0.7-0.5-1h0.7c-0.2,0.3-0.4,0.6-0.5,1s-0.4,0.7-0.6,1.1l-1,1.6H659.7z"/>
	</g>
	<g>
		<path class="st1" d="M641.3,341l0.3-1.5h9.9l-0.3,1.5H641.3z M642,336.4l0.3-1.6h9.9l-0.2,1.6H642z M642.6,344.5l2.1-13.1h1.5
			l-2.1,13.1H642.6z M647.2,344.5l2.2-13.1h1.5l-2.1,13.1H647.2z"/>
		<path class="st1" d="M654.2,344.5l5.7-11.3v-0.1h-6.6v-1.7h8.7v1.8l-5.7,11.3H654.2z"/>
		<path class="st1" d="M666.2,331.4v13.1h-2v-13.1H666.2z M668.5,344.5h-3.2v-1.8h3.1c1,0,1.8-0.2,2.5-0.6s1.1-0.9,1.5-1.6
			s0.5-1.6,0.5-2.6c0-1-0.2-1.9-0.5-2.6s-0.8-1.2-1.5-1.6s-1.4-0.6-2.4-0.6h-3.3v-1.8h3.4c1.3,0,2.4,0.3,3.3,0.8s1.6,1.3,2.1,2.2
			c0.5,1,0.7,2.1,0.7,3.5c0,1.4-0.2,2.5-0.7,3.5s-1.2,1.7-2.2,2.3S669.8,344.5,668.5,344.5z"/>
		<path class="st1" d="M681.4,344.7c-0.9,0-1.7-0.2-2.4-0.5s-1.3-0.8-1.6-1.3c-0.4-0.6-0.6-1.2-0.6-1.9c0-0.6,0.1-1.1,0.3-1.5
			s0.5-0.9,0.9-1.2s0.8-0.5,1.4-0.6v-0.1c-0.7-0.2-1.2-0.5-1.6-1s-0.6-1.2-0.6-1.9c0-0.7,0.2-1.3,0.5-1.8s0.9-0.9,1.5-1.2
			s1.4-0.5,2.2-0.5c0.8,0,1.5,0.2,2.2,0.5s1.1,0.7,1.5,1.2s0.5,1.1,0.5,1.8c0,0.7-0.2,1.3-0.6,1.9s-0.9,0.9-1.6,1v0.1
			c0.5,0.1,0.9,0.3,1.3,0.6s0.7,0.7,1,1.2s0.4,1,0.4,1.5c0,0.7-0.2,1.3-0.6,1.9c-0.4,0.6-0.9,1-1.7,1.3S682.3,344.7,681.4,344.7z
			 M681.4,343c0.5,0,1-0.1,1.4-0.3s0.7-0.4,0.9-0.8c0.2-0.3,0.3-0.7,0.3-1.1c0-0.5-0.1-0.9-0.3-1.2s-0.5-0.6-0.9-0.8
			s-0.8-0.3-1.4-0.3c-0.5,0-1,0.1-1.4,0.3s-0.7,0.5-0.9,0.8s-0.3,0.7-0.3,1.2c0,0.4,0.1,0.8,0.3,1.1c0.2,0.3,0.5,0.6,0.9,0.8
			S680.9,343,681.4,343z M681.4,337c0.4,0,0.8-0.1,1.2-0.3s0.6-0.4,0.8-0.7c0.2-0.3,0.3-0.7,0.3-1.1c0-0.4-0.1-0.8-0.3-1.1
			s-0.5-0.5-0.8-0.7c-0.3-0.2-0.7-0.3-1.2-0.3s-0.8,0.1-1.2,0.3c-0.3,0.2-0.6,0.4-0.8,0.7s-0.3,0.7-0.3,1.1c0,0.4,0.1,0.8,0.3,1.1
			c0.2,0.3,0.5,0.6,0.8,0.7S681,337,681.4,337z"/>
		<path class="st1" d="M692.9,344.7c-0.6,0-1.2-0.1-1.7-0.3c-0.6-0.2-1.1-0.5-1.5-1s-0.8-1.1-1.1-1.9s-0.4-1.8-0.4-3
			c0-1.1,0.1-2.1,0.3-3s0.6-1.6,1-2.2s1-1.1,1.6-1.4c0.6-0.3,1.3-0.5,2.1-0.5c0.8,0,1.5,0.2,2.1,0.5c0.6,0.3,1.1,0.7,1.5,1.3
			s0.6,1.2,0.7,1.9h-2c-0.1-0.5-0.4-1-0.8-1.3c-0.4-0.3-0.9-0.5-1.5-0.5c-0.6,0-1.2,0.2-1.6,0.6s-0.8,0.9-1,1.6s-0.4,1.5-0.4,2.5
			h0.1c0.2-0.4,0.5-0.7,0.8-1s0.7-0.5,1.1-0.6s0.8-0.2,1.3-0.2c0.8,0,1.5,0.2,2.1,0.5c0.6,0.4,1.1,0.9,1.5,1.5s0.5,1.4,0.5,2.2
			c0,0.8-0.2,1.6-0.6,2.3s-0.9,1.2-1.6,1.6S693.8,344.7,692.9,344.7z M692.9,343c0.5,0,0.9-0.1,1.3-0.4s0.7-0.6,0.9-1
			c0.2-0.4,0.3-0.9,0.3-1.4c0-0.5-0.1-1-0.3-1.4c-0.2-0.4-0.5-0.7-0.9-1s-0.8-0.4-1.3-0.4c-0.4,0-0.7,0.1-1,0.2s-0.6,0.3-0.8,0.6
			c-0.2,0.3-0.4,0.5-0.6,0.9c-0.1,0.3-0.2,0.7-0.2,1c0,0.5,0.1,0.9,0.3,1.3c0.2,0.4,0.5,0.7,0.9,1S692.4,343,692.9,343z"/>
		<path class="st1" d="M703.8,344.7c-0.8,0-1.5-0.2-2.1-0.5c-0.6-0.3-1.1-0.7-1.5-1.3c-0.4-0.5-0.6-1.2-0.7-1.9h2
			c0.1,0.5,0.4,1,0.8,1.3s0.9,0.5,1.5,0.5c0.6,0,1.2-0.2,1.6-0.6s0.8-0.9,1-1.6c0.2-0.7,0.4-1.6,0.4-2.5h-0.1
			c-0.2,0.4-0.5,0.7-0.8,0.9s-0.7,0.5-1.1,0.6s-0.8,0.2-1.3,0.2c-0.8,0-1.5-0.2-2.1-0.6s-1.1-0.9-1.5-1.5s-0.5-1.4-0.5-2.2
			c0-0.8,0.2-1.6,0.6-2.3c0.4-0.7,0.9-1.2,1.6-1.6c0.7-0.4,1.5-0.6,2.4-0.6c0.6,0,1.2,0.1,1.7,0.3s1.1,0.6,1.5,1
			c0.5,0.5,0.8,1.1,1.1,1.9c0.3,0.8,0.4,1.8,0.4,3c0,1.1-0.1,2.2-0.3,3s-0.6,1.6-1,2.3s-1,1.1-1.6,1.4
			C705.3,344.5,704.6,344.7,703.8,344.7z M704,338.3c0.4,0,0.7-0.1,1-0.2s0.6-0.3,0.8-0.6c0.2-0.3,0.4-0.5,0.6-0.9
			c0.1-0.3,0.2-0.7,0.2-1c0-0.5-0.1-0.9-0.3-1.3s-0.5-0.7-0.9-1s-0.8-0.4-1.3-0.4c-0.5,0-0.9,0.1-1.3,0.4s-0.7,0.6-0.9,1
			c-0.2,0.4-0.3,0.9-0.3,1.4s0.1,1,0.3,1.4s0.5,0.7,0.9,1C703,338.2,703.5,338.3,704,338.3z"/>
		<path class="st1" d="M715.8,331.4v13.1h-2v-11.3h-0.1l-3.1,2.3v-2l2.9-2.1H715.8z"/>
	</g>
</g>
</svg>
