<?xml version="1.0" encoding="utf-8"?>
<!-- Generator: Adobe Illustrator 27.9.1, SVG Export Plug-In . SVG Version: 6.00 Build 0)  -->
<svg version="1.1" id="Layer_1" xmlns="http://www.w3.org/2000/svg" xmlns:xlink="http://www.w3.org/1999/xlink" x="0px" y="0px"
	 viewBox="0 0 828 368" style="enable-background:new 0 0 828 368;" xml:space="preserve">
<style type="text/css">
	.st0{opacity:0.46;}
	.st1{fill:#7D8691;}
	.st2{fill:#F46F33;}
</style>
<g>
	<g class="st0">
		<g>
			<rect x="84.5" y="198.4" class="st1" width="688.1" height="1.1"/>
		</g>
		<g>
			<rect x="107" y="175.9" class="st1" width="688.1" height="1.1"/>
		</g>
		<g>
			
				<rect x="153.6" y="32.3" transform="matrix(0.9148 -0.4039 0.4039 0.9148 -62.1646 78.1419)" class="st1" width="1.1" height="308.3"/>
		</g>
		<g>
			
				<rect x="120" y="32.3" transform="matrix(0.9148 -0.4039 0.4039 0.9148 -65.0233 64.5898)" class="st1" width="1.1" height="308.3"/>
		</g>
		<g>
			
				<rect x="59.6" y="185.9" transform="matrix(0.4141 -0.9102 0.9102 0.4141 -43.9742 304.5244)" class="st1" width="309.8" height="1.1"/>
		</g>
		<g>
			
				<rect x="24.5" y="185.9" transform="matrix(0.4141 -0.9102 0.9102 0.4141 -64.5765 272.5177)" class="st1" width="309.8" height="1.1"/>
		</g>
		<g>
			
				<rect x="453.5" y="-6.3" transform="matrix(0.7317 -0.6816 0.6816 0.7317 -5.2427 359.5207)" class="st1" width="1.1" height="385.5"/>
		</g>
		<g>
			
				<rect x="492.6" y="-6.3" transform="matrix(0.7317 -0.6816 0.6816 0.7317 5.2481 386.1747)" class="st1" width="1.1" height="385.5"/>
		</g>
		<g>
			
				<rect x="302.9" y="185.9" transform="matrix(0.6818 -0.7316 0.7316 0.6818 21.3446 421.9082)" class="st1" width="385.5" height="1.1"/>
		</g>
		<g>
			
				<rect x="265.6" y="185.9" transform="matrix(0.6818 -0.7316 0.7316 0.6818 9.4925 394.6624)" class="st1" width="385.5" height="1.1"/>
		</g>
		<g>
			<rect x="53.2" y="74.8" class="st1" width="719.4" height="1.1"/>
		</g>
		<g>
			<rect x="53.2" y="253.2" class="st1" width="719.4" height="1.1"/>
		</g>
		<g>
			<rect x="53.2" y="250" class="st1" width="719.4" height="1.1"/>
		</g>
		<g>
			<rect x="62.1" y="120.2" class="st1" width="717.3" height="1.1"/>
		</g>
		<g>
			<rect x="60.2" y="123.5" class="st1" width="717.3" height="1.1"/>
		</g>
		<g>
			<rect x="705.1" y="52.8" class="st1" width="1.1" height="259.3"/>
		</g>
		<g>
			<rect x="542.5" y="52.8" class="st1" width="1.1" height="259.3"/>
		</g>
		<g>
			<rect x="403.3" y="52.8" class="st1" width="1.1" height="259.3"/>
		</g>
		<g>
			<rect x="240.7" y="52.8" class="st1" width="1.1" height="259.3"/>
		</g>
		<g>
			<rect x="722.5" y="52.8" class="st1" width="1.1" height="259.3"/>
		</g>
		<g>
			<rect x="754.2" y="52.8" class="st1" width="1.1" height="259.3"/>
		</g>
	</g>
	<g>
		<g>
			<path class="st2" d="M334.7,121.9L334.7,121.9C334.7,121.9,334.7,121.9,334.7,121.9C334.7,121.9,334.7,121.9,334.7,121.9z"/>
		</g>
		<g>
			<polygon class="st1" points="228,76 167.5,214 106.5,76 70.4,76 149.3,250.1 185.2,250.1 264.4,76 			"/>
			<rect x="723.1" y="75.3" class="st1" width="31.7" height="174.8"/>
			<polygon class="st1" points="553,124.6 515.4,124.6 475,167.4 434.5,124.6 397,124.6 455.9,187.7 397,250.1 435.8,250.1 
				475,208.1 514.2,250.1 553,250.1 494.1,187.7 			"/>
		</g>
		<path class="st1" d="M370.6,211l-1.2,1.6c-8.9,11.3-22.7,16.8-42.4,16.8c-14,0-25.9-2.9-35.4-8.6c-8.7-5.2-14.6-12.6-17.4-21.8
			h128.4l0.3-1.6c0.6-3.3,1-6.6,1-9.8c0-18.1-7.4-33.8-22.1-46.6c-14.7-12.9-34-19.5-57.2-19.5c-24.5,0-44.7,6.3-60.1,18.8
			c-15.4,12.5-23.2,28.3-23.2,47.1c0,18.9,8,34.8,23.7,47.2c15.7,12.4,36.4,18.7,61.5,18.7c31,0,54.5-9.5,70-28.4l1.4-1.7L370.6,211
			z M290.3,154.4c9-6.1,20.5-9.1,34.2-9.1c11.7,0,22.1,2.9,30.9,8.6c8.1,5.3,13.5,13,15.9,22.9h-97.3
			C276.6,167.5,282,160,290.3,154.4z"/>
		<g>
			<path class="st1" d="M649.7,124C649.7,124,649.7,124,649.7,124C649.7,124,649.7,124,649.7,124C649.7,124,649.7,124,649.7,124z"/>
		</g>
		<path class="st1" d="M683.6,140.9c-14.7-12.9-34-19.5-57.2-19.5c-24.5,0-44.7,6.3-60.1,18.8c-15.4,12.5-23.2,28.3-23.2,47.1
			c0,18.9,8,34.8,23.7,47.2c15.7,12.4,36.4,18.7,61.5,18.7c31,0,54.5-9.5,70-28.4l1.4-1.7L672.5,211l-1.2,1.6
			c-8.9,11.3-22.7,16.8-42.4,16.8c-14,0-25.9-2.9-35.4-8.6c-8.7-5.2-14.6-12.6-17.4-21.8h128.4l0.3-1.6c0.6-3.3,1-6.6,1-9.8
			C705.7,169.5,698.3,153.8,683.6,140.9z M575.9,176.7c2.5-9.2,7.9-16.6,16.2-22.3c9-6.1,20.5-9.1,34.2-9.1
			c11.7,0,22.1,2.9,30.9,8.6c8.1,5.3,13.5,13,15.9,22.9H575.9z"/>
	</g>
</g>
</svg>
