<?xml version="1.0" encoding="utf-8"?>
<!-- Generator: Adobe Illustrator 27.9.1, SVG Export Plug-In . SVG Version: 6.00 Build 0)  -->
<svg version="1.1" id="Layer_1" xmlns="http://www.w3.org/2000/svg" xmlns:xlink="http://www.w3.org/1999/xlink" x="0px" y="0px"
	 viewBox="0 0 1419 607.7" style="enable-background:new 0 0 1419 607.7;" xml:space="preserve">
<style type="text/css">
	.st0{fill:#FFFFFF;}
	.st1{fill:#081B37;}
	.st2{opacity:0.22;}
	.st3{fill:#F46F33;}
</style>
<rect x="1000" class="st0" width="419" height="607.5"/>
<path class="st1" d="M951.5,0h-903C21.7,0,0,21.7,0,48.5V559c0,26.8,21.7,48.5,48.5,48.5h903c26.8,0,48.5-21.7,48.5-48.5V48.5
	C1000,21.7,978.3,0,951.5,0z"/>
<g class="st2">
	<g>
		<g>
			<rect x="4422.3" y="-462.2" class="st0" width="4.8" height="1134.5"/>
		</g>
		<g>
			<rect x="3623.6" y="-462.2" class="st0" width="4.8" height="1134.5"/>
		</g>
		<g>
			
				<rect x="3738" y="102.6" transform="matrix(0.5429 -0.8398 0.8398 0.5429 1879.738 3663.5244)" class="st0" width="1134.5" height="4.8"/>
		</g>
		<g>
			
				<rect x="3623.6" y="-462.4" transform="matrix(0.8399 -0.5428 0.5428 0.8399 523.6774 1984.9418)" class="st0" width="4.8" height="1134.5"/>
		</g>
		<g>
			
				<rect x="4025.9" y="-681.8" transform="matrix(0.5541 -0.8325 0.8325 0.5541 1803.4664 3349.6023)" class="st0" width="4.8" height="1346.5"/>
		</g>
		<g>
			
				<rect x="3740.8" y="-392.6" transform="matrix(0.6323 -0.7747 0.7747 0.6323 1158.9685 3003.0525)" class="st0" width="4.8" height="1346.4"/>
		</g>
		<g>
			
				<rect x="3650.7" y="277.9" transform="matrix(0.7747 -0.6323 0.6323 0.7747 796.8571 2797.2104)" class="st0" width="1346.4" height="4.8"/>
		</g>
		<g>
			
				<rect x="3367.1" y="-10.9" transform="matrix(0.8321 -0.5547 0.5547 0.8321 683.2108 2239.6321)" class="st0" width="1346.5" height="4.8"/>
		</g>
		<g>
			<rect x="3523.1" y="-44.6" class="st0" width="1020.1" height="4.8"/>
		</g>
	</g>
</g>
<g>
	<g id="XMLID_00000028314363729640564930000003205740312110683042_">
		<g>
			<g>
				<g>
					<polygon class="st0" points="361.8,326.1 497.2,436.9 361.8,227.8 					"/>
					<polygon class="st0" points="632.5,326.1 632.5,227.8 497.2,436.9 					"/>
				</g>
				<polygon class="st3" points="512.3,245.9 482,245.9 361.8,166.2 361.8,227.8 497.2,436.9 632.5,227.8 632.5,166.2 				"/>
			</g>
		</g>
	</g>
	<g class="st2">
		<g>
			<g>
				<rect x="632.5" y="100" class="st0" width="1.6" height="386.7"/>
			</g>
			<g>
				<rect x="360" y="100.1" class="st0" width="1.6" height="386.7"/>
			</g>
			<g>
				
					<rect x="396.1" y="292.5" transform="matrix(0.5429 -0.8398 0.8398 0.5429 23.0812 629.0971)" class="st0" width="386.7" height="1.6"/>
			</g>
			<g>
				
					<rect x="404" y="101.9" transform="matrix(0.8399 -0.5428 0.5428 0.8399 -95.4397 267.0137)" class="st0" width="1.6" height="386.7"/>
			</g>
			<g>
				<polygon class="st0" points="324.1,139.2 322.9,140.4 686.6,382.5 687.5,381.1 				"/>
			</g>
			<g>
				
					<rect x="396.7" y="127.2" transform="matrix(0.6323 -0.7747 0.7747 0.6323 -130.1589 439.137)" class="st0" width="1.6" height="458.9"/>
			</g>
			<g>
				
					<rect x="370.3" y="353.1" transform="matrix(0.7747 -0.6323 0.6323 0.7747 -88.6703 458.9342)" class="st0" width="458.9" height="1.6"/>
			</g>
			<g>
				<path class="st0" d="M675.8,135.4L308.4,379.9l0.9,1.4L677,136.6C676.6,136.2,676.2,135.8,675.8,135.4z"/>
			</g>
			<g>
				<rect x="326" y="244.3" class="st0" width="347.7" height="1.6"/>
			</g>
		</g>
	</g>
</g>
<g>
	<g>
		<path class="st1" d="M1295.2,54.1h-171.7c-13.4,0-24.2,10.8-24.2,24.2V250c0,13.4,10.8,24.2,24.2,24.2h171.7
			c13.4,0,24.2-10.8,24.2-24.2V78.3C1319.4,65,1308.6,54.1,1295.2,54.1z"/>
		<g>
			<g>
				<polygon class="st0" points="1151.2,175.1 1209.7,222.9 1151.2,132.6 				"/>
				<polygon class="st0" points="1268.1,175.1 1268.1,132.6 1209.7,222.9 				"/>
			</g>
			<polygon class="st3" points="1216.2,140.5 1203.1,140.5 1151.2,106 1151.2,132.6 1209.7,222.9 1268.1,132.6 1268.1,106 			"/>
		</g>
	</g>
	<g id="XMLID_00000145025624776821105640000010934158057235253928_">
		<g>
			<path class="st1" d="M1209.7,333.3L1209.7,333.3c-60.8,0-110.1,49.3-110.1,110.1v0c0,60.8,49.3,110.1,110.1,110.1h0
				c60.8,0,110.1-49.3,110.1-110.1v0C1319.7,382.6,1270.4,333.3,1209.7,333.3z"/>
			<g>
				<g>
					<polygon class="st0" points="1151.5,454.2 1210,502.1 1151.5,411.8 					"/>
					<polygon class="st0" points="1268.4,454.2 1268.4,411.8 1210,502.1 					"/>
				</g>
				<polygon class="st3" points="1216.5,419.6 1203.4,419.6 1151.5,385.2 1151.5,411.8 1210,502.1 1268.4,411.8 1268.4,385.2 				
					"/>
			</g>
		</g>
	</g>
</g>
</svg>
