<?xml version="1.0" encoding="utf-8"?>
<!-- Generator: Adobe Illustrator 27.9.1, SVG Export Plug-In . SVG Version: 6.00 Build 0)  -->
<svg version="1.1" id="Layer_1" xmlns="http://www.w3.org/2000/svg" xmlns:xlink="http://www.w3.org/1999/xlink" x="0px" y="0px"
	 viewBox="0 0 1000 598.9" style="enable-background:new 0 0 1000 598.9;" xml:space="preserve">
<style type="text/css">
	.st0{fill:#999999;}
	.st1{fill:#3A3A3A;}
</style>
<g>
	<g>
		<g>
			<path d="M488.9,102.1v20.4h-3.1V105h-0.1l-4.8,3.5v-3.1l4.5-3.2H488.9z"/>
		</g>
		<g>
			<path d="M505.3,119l-11.5-11.4l1.9-1.9l11.5,11.5L505.3,119z M495.7,119l-1.9-1.9l11.5-11.5l1.9,1.9L495.7,119z"/>
		</g>
		<g>
			<path d="M519.2,102.1v20.4h-3.1V105H516l-4.8,3.5v-3.1l4.5-3.2H519.2z"/>
		</g>
	</g>
	<g>
		<g>
			<path d="M292.6,310.6H313v3.1h-17.5v0.1l3.5,4.8h-3.1l-3.2-4.5V310.6z"/>
		</g>
		<g>
			<path d="M309.5,294.2L298,305.6l-1.9-1.9l11.5-11.5L309.5,294.2z M309.5,303.7l-1.9,1.9l-11.5-11.5l1.9-1.9L309.5,303.7z"/>
		</g>
		<g>
			<path d="M292.6,280.3H313v3.1h-17.5v0.1l3.5,4.8h-3.1l-3.2-4.5V280.3z"/>
		</g>
	</g>
	<g>
		<g>
			<g>
				<g>
					<g>
						<polygon class="st0" points="361.5,324.6 500,438 361.5,224 						"/>
					</g>
				</g>
				<g>
					<g>
						<polygon class="st0" points="638.5,324.6 638.5,224 500,438 						"/>
					</g>
				</g>
			</g>
			<g>
				<g>
					<polygon class="st1" points="515.5,242.5 484.5,242.5 361.5,160.9 361.5,224 500,438 638.5,224 638.5,160.9 					"/>
				</g>
			</g>
		</g>
		<g>
			<g>
				<g>
					<polygon points="648.9,448.3 642.4,448.3 642.4,447.3 647.9,447.3 647.9,441.8 648.9,441.8 					"/>
				</g>
			</g>
			<g>
				<g>
					<path d="M630,448.3h-12.4v-1H630V448.3z M605.2,448.3h-12.4v-1h12.4V448.3z M580.5,448.3h-12.4v-1h12.4V448.3z M555.7,448.3
						h-12.4v-1h12.4V448.3z M530.9,448.3h-12.4v-1h12.4V448.3z M506.2,448.3h-12.4v-1h12.4V448.3z M481.4,448.3h-12.4v-1h12.4V448.3
						z M456.7,448.3h-12.4v-1h12.4V448.3z M431.9,448.3h-12.4v-1h12.4V448.3z M407.2,448.3h-12.4v-1h12.4V448.3z M382.4,448.3H370
						v-1h12.4V448.3z"/>
				</g>
			</g>
			<g>
				<g>
					<polygon points="357.6,448.3 351.1,448.3 351.1,441.8 352.1,441.8 352.1,447.3 357.6,447.3 					"/>
				</g>
			</g>
			<g>
				<g>
					<path d="M352.1,429.4h-1v-12.4h1V429.4z M352.1,404.7h-1v-12.4h1V404.7z M352.1,379.9h-1v-12.4h1V379.9z M352.1,355.2h-1v-12.4
						h1V355.2z M352.1,330.4h-1V318h1V330.4z M352.1,305.6h-1v-12.4h1V305.6z M352.1,280.9h-1v-12.4h1V280.9z M352.1,256.1h-1v-12.4
						h1V256.1z M352.1,231.4h-1V219h1V231.4z M352.1,206.6h-1v-12.4h1V206.6z M352.1,181.8h-1v-12.4h1V181.8z"/>
				</g>
			</g>
			<g>
				<g>
					<polygon points="352.1,157.1 351.1,157.1 351.1,150.6 357.6,150.6 357.6,151.6 352.1,151.6 					"/>
				</g>
			</g>
			<g>
				<g>
					<path d="M630,151.6h-12.4v-1H630V151.6z M605.2,151.6h-12.4v-1h12.4V151.6z M580.5,151.6h-12.4v-1h12.4V151.6z M555.7,151.6
						h-12.4v-1h12.4V151.6z M530.9,151.6h-12.4v-1h12.4V151.6z M506.2,151.6h-12.4v-1h12.4V151.6z M481.4,151.6h-12.4v-1h12.4V151.6
						z M456.7,151.6h-12.4v-1h12.4V151.6z M431.9,151.6h-12.4v-1h12.4V151.6z M407.2,151.6h-12.4v-1h12.4V151.6z M382.4,151.6H370
						v-1h12.4V151.6z"/>
				</g>
			</g>
			<g>
				<g>
					<polygon points="648.9,157.1 647.9,157.1 647.9,151.6 642.4,151.6 642.4,150.6 648.9,150.6 					"/>
				</g>
			</g>
			<g>
				<g>
					<path d="M648.9,429.4h-1v-12.4h1V429.4z M648.9,404.7h-1v-12.4h1V404.7z M648.9,379.9h-1v-12.4h1V379.9z M648.9,355.2h-1v-12.4
						h1V355.2z M648.9,330.4h-1V318h1V330.4z M648.9,305.6h-1v-12.4h1V305.6z M648.9,280.9h-1v-12.4h1V280.9z M648.9,256.1h-1v-12.4
						h1V256.1z M648.9,231.4h-1V219h1V231.4z M648.9,206.6h-1v-12.4h1V206.6z M648.9,181.8h-1v-12.4h1V181.8z"/>
				</g>
			</g>
		</g>
	</g>
</g>
</svg>
