<?xml version="1.0" encoding="utf-8"?>
<!-- Generator: Adobe Illustrator 27.9.1, SVG Export Plug-In . SVG Version: 6.00 Build 0)  -->
<svg version="1.1" id="Layer_1" xmlns="http://www.w3.org/2000/svg" xmlns:xlink="http://www.w3.org/1999/xlink" x="0px" y="0px"
	 viewBox="0 0 1000 600" style="enable-background:new 0 0 1000 600;" xml:space="preserve">
<style type="text/css">
	.st0{fill:#081B37;}
	.st1{fill:#FFFFFF;}
	.st2{fill:#F46F33;}
	.st3{fill:#F9F9F9;}
	.st4{fill:#7D8691;}
	.st5{opacity:0.24;}
	.st6{fill:#FDFDFD;}
</style>
<symbol  id="New_Symbol" viewBox="-64 -63.6 127.6 127.6">
	<path class="st0" d="M49.6,64H-50c-7.8,0-14-6.3-14-14v-99.6c0-7.8,6.3-14,14-14h99.6c7.8,0,14,6.3,14,14V50
		C63.6,57.7,57.4,64,49.6,64z"/>
	<g>
		<g>
			<polygon class="st1" points="-33.9,-6.1 0,-33.9 -33.9,18.5 			"/>
			<polygon class="st1" points="33.9,-6.1 33.9,18.5 0,-33.9 			"/>
		</g>
		<polygon class="st2" points="3.8,13.9 -3.8,13.9 -33.9,33.9 -33.9,18.5 0,-33.9 33.9,18.5 33.9,33.9 		"/>
	</g>
</symbol>
<g>
	<rect x="513.2" y="300" class="st3" width="486.8" height="299.5"/>
	<rect y="0.5" class="st3" width="513.2" height="299.5"/>
	<rect y="300" class="st0" width="513.2" height="299.5"/>
	<rect x="513.2" y="0.5" class="st0" width="486.8" height="299.5"/>
	<g>
		<g>
			
				<use xlink:href="#New_Symbol"  width="127.6" height="127.6" id="XMLID_00000109715840013412788720000013374323543439893899_" x="-64" y="-63.6" transform="matrix(0.5168 0 0 -0.5168 124.1049 150.4993)" style="overflow:visible;"/>
		</g>
		<g>
			<polygon class="st4" points="226.1,117.4 203.6,168.8 180.9,117.4 167.5,117.4 196.9,182.2 210.2,182.2 239.7,117.4 			"/>
			<rect x="410.4" y="117.2" class="st4" width="11.8" height="65.1"/>
			<path class="st4" d="M279.2,167.7l-0.5,0.6c-3.3,4.2-8.5,6.3-15.8,6.3c-5.2,0-9.6-1.1-13.2-3.2c-3.3-2-5.4-4.7-6.5-8.1h47.8
				l0.1-0.6c0.2-1.2,0.4-2.5,0.4-3.6c0-6.7-2.8-12.6-8.2-17.4c-5.5-4.8-12.6-7.3-21.3-7.3c-9.1,0-16.6,2.4-22.4,7
				c-5.7,4.6-8.6,10.5-8.6,17.5c0,7,3,13,8.8,17.6c5.9,4.6,13.6,7,22.9,7c11.5,0,20.3-3.6,26-10.6l0.5-0.6L279.2,167.7z
				 M249.3,146.6c3.3-2.3,7.6-3.4,12.7-3.4c4.4,0,8.2,1.1,11.5,3.2c3,2,5,4.8,5.9,8.5h-36.2C244.2,151.5,246.2,148.7,249.3,146.6z"
				/>
			<path class="st4" d="M395.7,141.6c-5.5-4.8-12.6-7.3-21.3-7.3c-9.1,0-16.6,2.4-22.4,7c-5.7,4.6-8.6,10.5-8.6,17.5
				c0,7,3,13,8.8,17.6c5.9,4.6,13.6,7,22.9,7c11.5,0,20.3-3.6,26-10.6l0.5-0.6l-10.1-4.5l-0.5,0.6c-3.3,4.2-8.5,6.3-15.8,6.3
				c-5.2,0-9.6-1.1-13.2-3.2c-3.3-2-5.4-4.7-6.5-8.1h47.8l0.1-0.6c0.2-1.2,0.4-2.5,0.4-3.6C403.9,152.2,401.2,146.4,395.7,141.6z
				 M355.6,154.9c0.9-3.4,3-6.2,6-8.3c3.3-2.3,7.6-3.4,12.7-3.4c4.4,0,8.2,1.1,11.5,3.2c3,2,5,4.8,5.9,8.5H355.6z"/>
			<polygon class="st4" points="347.1,135.5 333.1,135.5 318.1,151.5 303,135.5 289,135.5 310.9,159 289,182.2 303.5,182.2 
				318.1,166.6 332.6,182.2 347.1,182.2 325.2,159 			"/>
		</g>
	</g>
	<g>
		<g>
			<polygon class="st1" points="671.3,165.7 756.6,235.5 671.3,103.8 			"/>
			<polygon class="st1" points="841.9,165.7 841.9,103.8 756.6,235.5 			"/>
		</g>
		<polygon class="st2" points="766.2,115.2 747,115.2 671.3,65 671.3,103.8 756.6,235.5 841.9,103.8 841.9,65 		"/>
	</g>
	<g class="st5">
		<g>
			<rect x="838.9" y="327" class="st0" width="1" height="235"/>
		</g>
		<g>
			<rect x="673.5" y="327" class="st0" width="1" height="235"/>
		</g>
		<g>
			<rect x="697.2" y="444" transform="matrix(0.5429 -0.8398 0.8398 0.5429 -0.9175 887.338)" class="st0" width="235" height="1"/>
		</g>
		<g>
			
				<rect x="673.5" y="327" transform="matrix(0.8399 -0.5428 0.5428 0.8399 -133.3524 436.9792)" class="st0" width="1" height="235"/>
		</g>
		<g>
			
				<rect x="756.8" y="281.5" transform="matrix(0.5541 -0.8325 0.8325 0.5541 -12.7578 818.1524)" class="st0" width="1" height="278.9"/>
		</g>
		<g>
			
				<rect x="697.8" y="341.4" transform="matrix(0.6323 -0.7747 0.7747 0.6323 -115.7608 717.7661)" class="st0" width="1" height="278.9"/>
		</g>
		<g>
			
				<rect x="679.1" y="480.3" transform="matrix(0.7747 -0.6323 0.6323 0.7747 -119.6272 625.8873)" class="st0" width="278.9" height="1"/>
		</g>
		<g>
			
				<rect x="620.3" y="420.5" transform="matrix(0.8321 -0.5547 0.5547 0.8321 -105.9196 492.1404)" class="st0" width="278.9" height="1"/>
		</g>
		<g>
			<rect x="652.7" y="413.5" class="st0" width="211.3" height="1"/>
		</g>
	</g>
	<path class="st2" d="M756.6,533.1c-0.1,0-0.2,0-0.3,0l-0.2,0c-0.1,0-0.1,0-0.2,0c0,0-0.4-0.2-0.4-0.2c0,0,0,0,0,0l-0.4-0.2
		l-0.1-0.1l0,0l-81-66.3c-0.5-0.4-0.8-1.1-0.8-1.7v-95.8c0-0.8,0.5-1.6,1.2-2c0.3-0.2,0.7-0.3,1.1-0.3c0.4,0,0.9,0.1,1.2,0.4
		l71.4,47.4H765l71.4-47.4c0.4-0.2,0.8-0.4,1.2-0.4c0.4,0,0.7,0.1,1.1,0.3c0.7,0.4,1.2,1.2,1.2,2v95.8c0,0.7-0.3,1.3-0.8,1.7
		L758,532.6l-0.2,0.1l-0.1,0.1c-0.1,0-0.1,0.1-0.2,0.1c-0.1,0-0.1,0.1-0.2,0.1c-0.1,0-0.2,0-0.3,0.1l-0.1,0
		C756.9,533.1,756.7,533.1,756.6,533.1z M677.8,404.9l78.9,121.8l78.9-121.8v-32.1L767,418.3c-0.4,0.2-0.8,0.4-1.2,0.4h-18.2
		c-0.4,0-0.9-0.1-1.2-0.4l-68.5-45.5V404.9z M760,527.2l16.2-15.4l59.2-48.5v-50.2L760,527.2z M677.8,463.4l73.6,61.4l-11.5-15.5
		l-62.2-96V463.4z"/>
	<g>
		<g>
			<g>
				<g>
					<polygon class="st6" points="92.3,455.3 124,481.3 92.3,432.3 					"/>
					<polygon class="st6" points="155.7,455.3 155.7,432.3 124,481.3 					"/>
				</g>
			</g>
			<polygon class="st2" points="127.6,436.5 120.5,436.5 92.3,417.9 92.3,432.3 124,481.3 155.7,432.3 155.7,417.9 			"/>
		</g>
		<polygon class="st4" points="226.4,417.1 204,468.1 181.5,417.1 168.2,417.1 197.3,481.4 210.6,481.4 239.8,417.1 		"/>
		<path class="st4" d="M373.4,433.9c-9,0-16.5,2.3-22.2,6.9c-5.7,4.6-8.6,10.5-8.6,17.4c0,7,2.9,12.9,8.8,17.4
			c5.8,4.6,13.4,6.9,22.7,6.9c11.4,0,20.1-3.5,25.8-10.5l0.5-0.6l-10-4.5l-0.5,0.6c-3.3,4.2-8.4,6.2-15.6,6.2
			c-5.2,0-9.6-1.1-13.1-3.2c-3.2-1.9-5.4-4.6-6.4-8.1h47.4l0.1-0.6c0.2-1.2,0.4-2.4,0.4-3.6c0-6.7-2.7-12.5-8.2-17.2
			C389.1,436.3,382,433.9,373.4,433.9z M390.7,454.3h-35.9c0.9-3.4,2.9-6.1,6-8.2c3.3-2.2,7.6-3.4,12.6-3.4c4.3,0,8.2,1.1,11.4,3.2
			C387.8,447.8,389.8,450.7,390.7,454.3z"/>
		<rect x="409.2" y="416.9" class="st4" width="11.7" height="64.5"/>
		<path class="st4" d="M279,467l-0.5,0.6c-3.3,4.2-8.4,6.2-15.6,6.2c-5.2,0-9.6-1.1-13.1-3.2c-3.2-1.9-5.4-4.6-6.4-8.1h47.4l0.1-0.6
			c0.2-1.2,0.4-2.4,0.4-3.6c0-6.7-2.7-12.5-8.2-17.2c-5.4-4.8-12.5-7.2-21.1-7.2c-9,0-16.5,2.3-22.2,6.9c-5.7,4.6-8.6,10.5-8.6,17.4
			c0,7,2.9,12.9,8.8,17.4c5.8,4.6,13.4,6.9,22.7,6.9c11.4,0,20.1-3.5,25.8-10.5l0.5-0.6L279,467z M279.3,454.3h-35.9
			c0.9-3.4,2.9-6.1,6-8.2c3.3-2.2,7.6-3.4,12.6-3.4c4.3,0,8.2,1.1,11.4,3.2C276.4,447.8,278.4,450.7,279.3,454.3z"/>
		<path class="st4" d="M390.5,467l-0.5,0.6c-3.3,4.2-8.4,6.2-15.6,6.2c-5.2,0-9.6-1.1-13.1-3.2c-3.2-1.9-5.4-4.6-6.4-8.1h47.4
			l0.1-0.6c0.2-1.2,0.4-2.4,0.4-3.6c0-6.7-2.7-12.5-8.2-17.2c-5.4-4.8-12.5-7.2-21.1-7.2c-9,0-16.5,2.3-22.2,6.9
			c-5.7,4.6-8.6,10.5-8.6,17.4c0,7,2.9,12.9,8.8,17.4c5.8,4.6,13.4,6.9,22.7,6.9c11.4,0,20.1-3.5,25.8-10.5l0.5-0.6L390.5,467z
			 M390.8,454.3h-35.9c0.9-3.4,2.9-6.1,6-8.2c3.3-2.2,7.6-3.4,12.6-3.4c4.3,0,8.2,1.1,11.4,3.2C387.9,447.8,389.8,450.7,390.8,454.3
			z"/>
		<polygon class="st4" points="303.1,481.4 346.4,435.1 332.5,435.1 288.8,481.4 		"/>
		<polygon class="st4" points="332,481.4 288.8,435.1 302.6,435.1 346.4,481.4 		"/>
	</g>
</g>
</svg>
