<?xml version="1.0" encoding="utf-8"?>
<!-- Generator: Adobe Illustrator 27.9.1, SVG Export Plug-In . SVG Version: 6.00 Build 0)  -->
<svg version="1.1" id="Layer_1" xmlns="http://www.w3.org/2000/svg" xmlns:xlink="http://www.w3.org/1999/xlink" x="0px" y="0px"
	 viewBox="0 0 1588 1078.8" style="enable-background:new 0 0 1588 1078.8;" xml:space="preserve">
<style type="text/css">
	.st0{fill:#FFFFFF;}
	.st1{fill:#081B37;}
	.st2{fill:#F46F33;}
</style>
<g>
	<g>
		<rect class="st0" width="1588" height="1078.8"/>
	</g>
</g>
<g>
	<g>
		<g>
			<path class="st1" d="M1480,497.7H108c-30.9,0-56,25.1-56,56v431.7c0,30.9,25.1,56,56,56h1372c30.9,0,56-25.1,56-56V553.7
				C1536,522.7,1510.9,497.7,1480,497.7z"/>
		</g>
	</g>
</g>
<g>
	<g id="XMLID_00000059306936583739863910000015151059095793285761_">
		<g>
			<g>
				<g>
					<path class="st1" d="M302.5,302.6h-65.7c-5.1,0-9.3,4.1-9.3,9.3v65.7c0,5.1,4.1,9.3,9.3,9.3h65.7c5.1,0,9.3-4.1,9.3-9.3v-65.7
						C311.7,306.8,307.6,302.6,302.5,302.6z"/>
				</g>
			</g>
			<g>
				<g>
					<g>
						<g>
							<polygon class="st0" points="247.4,348.9 269.8,367.2 247.4,332.7 							"/>
						</g>
					</g>
					<g>
						<g>
							<polygon class="st0" points="292.1,348.9 292.1,332.7 269.8,367.2 							"/>
						</g>
					</g>
				</g>
				<g>
					<g>
						<polygon class="st2" points="272.3,335.7 267.2,335.7 247.4,322.5 247.4,332.7 269.8,367.2 292.1,332.7 292.1,322.5 						"/>
					</g>
				</g>
			</g>
		</g>
	</g>
</g>
<g>
	<g>
		<g>
			<path class="st1" d="M469.8,270.2h-91c-7.1,0-12.8,5.7-12.8,12.8v91c0,7.1,5.7,12.8,12.8,12.8h91c7.1,0,12.8-5.7,12.8-12.8v-91
				C482.7,275.9,476.9,270.2,469.8,270.2z"/>
		</g>
	</g>
	<g>
		<g>
			<g>
				<g>
					<polygon class="st0" points="393.5,334.3 424.5,359.7 393.5,311.8 					"/>
				</g>
			</g>
			<g>
				<g>
					<polygon class="st0" points="455.5,334.3 455.5,311.8 424.5,359.7 					"/>
				</g>
			</g>
		</g>
		<g>
			<g>
				<polygon class="st2" points="428,316 421,316 393.5,297.7 393.5,311.8 424.5,359.7 455.5,311.8 455.5,297.7 				"/>
			</g>
		</g>
	</g>
</g>
<g>
	<g>
		<g>
			<path class="st1" d="M669.6,237.7H553.3c-9.1,0-16.4,7.3-16.4,16.4v116.3c0,9.1,7.3,16.4,16.4,16.4h116.3
				c9.1,0,16.4-7.3,16.4-16.4V254.2C686,245.1,678.7,237.7,669.6,237.7z"/>
		</g>
	</g>
	<g>
		<g>
			<g>
				<g>
					<polygon class="st0" points="572.1,319.7 611.7,352.1 572.1,290.9 					"/>
				</g>
			</g>
			<g>
				<g>
					<polygon class="st0" points="651.3,319.7 651.3,290.9 611.7,352.1 					"/>
				</g>
			</g>
		</g>
		<g>
			<g>
				<polygon class="st2" points="616.1,296.2 607.2,296.2 572.1,272.9 572.1,290.9 611.7,352.1 651.3,290.9 651.3,272.9 				"/>
			</g>
		</g>
	</g>
</g>
<g>
	<g>
		<g>
			<path class="st1" d="M901.8,205.3H760.2c-11,0-20,8.9-20,20v141.6c0,11,8.9,20,20,20h141.6c11,0,20-8.9,20-20V225.3
				C921.8,214.2,912.9,205.3,901.8,205.3z"/>
		</g>
	</g>
	<g>
		<g>
			<g>
				<g>
					<polygon class="st0" points="783.1,305.1 831.3,344.6 783.1,270.1 					"/>
				</g>
			</g>
			<g>
				<g>
					<polygon class="st0" points="879.5,305.1 879.5,270.1 831.3,344.6 					"/>
				</g>
			</g>
		</g>
		<g>
			<g>
				<polygon class="st2" points="836.7,276.5 825.9,276.5 783.1,248.1 783.1,270.1 831.3,344.6 879.5,270.1 879.5,248.1 				"/>
			</g>
		</g>
	</g>
</g>
<g>
	<g>
		<g>
			<path class="st1" d="M1166.5,172.9H999.6c-13,0-23.5,10.5-23.5,23.5v166.9c0,13,10.5,23.5,23.5,23.5h166.9
				c13,0,23.5-10.5,23.5-23.5V196.4C1190,183.4,1179.5,172.9,1166.5,172.9z"/>
		</g>
	</g>
	<g>
		<g>
			<g>
				<g>
					<polygon class="st0" points="1026.5,290.5 1083.3,337 1026.5,249.2 					"/>
				</g>
			</g>
			<g>
				<g>
					<polygon class="st0" points="1140.2,290.5 1140.2,249.2 1083.3,337 					"/>
				</g>
			</g>
		</g>
		<g>
			<g>
				<polygon class="st2" points="1089.7,256.8 1077,256.8 1026.5,223.3 1026.5,249.2 1083.3,337 1140.2,249.2 1140.2,223.3 				"/>
			</g>
		</g>
	</g>
</g>
<g>
	<g id="XMLID_00000164512251603787948600000009268905157920548772_">
		<g>
			<g>
				<path class="st1" d="M1463.6,140.4h-192.2c-15,0-27.1,12.1-27.1,27.1v192.2c0,15,12.1,27.1,27.1,27.1h192.2
					c15,0,27.1-12.1,27.1-27.1V167.5C1490.7,152.6,1478.6,140.4,1463.6,140.4z"/>
			</g>
			<g>
				<g>
					<g>
						<polygon class="st0" points="1302.4,275.8 1367.8,329.4 1302.4,228.3 						"/>
					</g>
					<g>
						<polygon class="st0" points="1433.3,275.8 1433.3,228.3 1367.8,329.4 						"/>
					</g>
				</g>
				<g>
					<polygon class="st2" points="1375.2,237.1 1360.5,237.1 1302.4,198.5 1302.4,228.3 1367.8,329.4 1433.3,228.3 1433.3,198.5 
											"/>
				</g>
			</g>
		</g>
	</g>
</g>
<g>
	<g>
		<path d="M329.9,403.7H204.6V278.4h125.3V403.7z M205.6,402.7h123.3V279.4H205.6V402.7z"/>
	</g>
</g>
<g>
	<g>
		<rect x="266.8" y="103.8" width="1" height="175.1"/>
	</g>
</g>
<g>
	<g>
		<g>
			<path class="st0" d="M329.9,935.5H204.6V810.1h125.3V935.5z M205.6,934.5h123.3V811.1H205.6V934.5z"/>
		</g>
	</g>
</g>
<g>
	<g>
		<g>
			<rect x="266.3" y="635.6" class="st0" width="1" height="175.1"/>
		</g>
	</g>
</g>
<g>
	<g id="XMLID_00000039817618416785215960000013912539018259093900_">
		<g>
			<g>
				<g>
					<g>
						<g>
							<polygon class="st0" points="226.9,880.1 267.3,913.2 226.9,850.8 							"/>
						</g>
					</g>
					<g>
						<g>
							<polygon class="st0" points="307.6,880.1 307.6,850.8 267.3,913.2 							"/>
						</g>
					</g>
				</g>
				<g>
					<g>
						<polygon class="st2" points="271.8,856.2 262.7,856.2 226.9,832.4 226.9,850.8 267.3,913.2 307.6,850.8 307.6,832.4 						"/>
					</g>
				</g>
			</g>
		</g>
	</g>
</g>
<g>
	<g>
		<g>
			<g>
				<polygon class="st0" points="384.2,874.7 441.5,921.7 384.2,833.1 				"/>
			</g>
		</g>
		<g>
			<g>
				<polygon class="st0" points="498.8,874.7 498.8,833.1 441.5,921.7 				"/>
			</g>
		</g>
	</g>
	<g>
		<g>
			<polygon class="st2" points="447.9,840.8 435.1,840.8 384.2,807 384.2,833.1 441.5,921.7 498.8,833.1 498.8,807 			"/>
		</g>
	</g>
</g>
<g>
	<g>
		<g>
			<g>
				<polygon class="st0" points="552,864.3 625.3,924.3 552,811.1 				"/>
			</g>
		</g>
		<g>
			<g>
				<polygon class="st0" points="698.6,864.3 698.6,811.1 625.3,924.3 				"/>
			</g>
		</g>
	</g>
	<g>
		<g>
			<polygon class="st2" points="633.6,820.9 617.1,820.9 552,777.7 552,811.1 625.3,924.3 698.6,811.1 698.6,777.7 			"/>
		</g>
	</g>
</g>
<g>
	<g>
		<g>
			<g>
				<polygon class="st0" points="751.9,853.9 841.2,927 751.9,789.1 				"/>
			</g>
		</g>
		<g>
			<g>
				<polygon class="st0" points="930.4,853.9 930.4,789.1 841.2,927 				"/>
			</g>
		</g>
	</g>
	<g>
		<g>
			<polygon class="st2" points="851.2,801.1 831.1,801.1 751.9,748.5 751.9,789.1 841.2,927 930.4,789.1 930.4,748.5 			"/>
		</g>
	</g>
</g>
<g>
	<g>
		<g>
			<g>
				<polygon class="st0" points="984.4,843.5 1089.7,929.7 984.4,767.1 				"/>
			</g>
		</g>
		<g>
			<g>
				<polygon class="st0" points="1195,843.5 1195,767.1 1089.7,929.7 				"/>
			</g>
		</g>
	</g>
	<g>
		<g>
			<polygon class="st2" points="1101.5,781.2 1077.9,781.2 984.4,719.2 984.4,767.1 1089.7,929.7 1195,767.1 1195,719.2 			"/>
		</g>
	</g>
</g>
<g>
	<g>
		<g>
			<g>
				<polygon class="st0" points="1248.2,833.1 1369.4,932.4 1248.2,745.1 				"/>
			</g>
		</g>
		<g>
			<g>
				<polygon class="st0" points="1490.7,833.1 1490.7,745.1 1369.4,932.4 				"/>
			</g>
		</g>
	</g>
	<g>
		<g>
			<polygon class="st2" points="1383.1,761.3 1355.8,761.3 1248.2,689.9 1248.2,745.1 1369.4,932.4 1490.7,745.1 1490.7,689.9 			
				"/>
		</g>
	</g>
</g>
<g>
	<path d="M208.2,69.8V37h7.4l7.1,18.8c0.2,0.6,0.4,1.3,0.7,2.1c0.3,0.8,0.5,1.8,0.8,2.8s0.5,2,0.8,2.9c0.2,1,0.5,1.8,0.7,2.6h-1.1
		c0.2-0.7,0.4-1.6,0.7-2.5c0.2-1,0.5-1.9,0.8-2.9s0.5-1.9,0.8-2.8s0.5-1.6,0.7-2.2l7-18.8h7.4v32.7h-5V52.2c0-0.7,0-1.5,0-2.4
		s0-1.9,0.1-3c0-1,0-2.1,0.1-3.2c0-1.1,0-2.1,0.1-3.1h0.4c-0.3,1.1-0.6,2.2-1,3.3c-0.3,1.1-0.7,2.2-1,3.3c-0.3,1.1-0.6,2-0.9,2.9
		c-0.3,0.9-0.6,1.6-0.8,2.2l-6.7,17.6H223l-6.8-17.6c-0.2-0.6-0.5-1.3-0.8-2.1c-0.3-0.9-0.6-1.8-0.9-2.9s-0.7-2.1-1-3.3
		c-0.4-1.1-0.7-2.3-1.1-3.4h0.4c0,0.9,0.1,1.9,0.1,2.9c0,1,0,2.1,0.1,3.2c0,1.1,0,2.1,0.1,3c0,1,0,1.8,0,2.5v17.6H208.2z"/>
	<path d="M251.3,41.5c-0.8,0-1.5-0.3-2.1-0.8c-0.6-0.6-0.9-1.2-0.9-2c0-0.8,0.3-1.5,0.9-2c0.6-0.6,1.3-0.8,2.1-0.8s1.6,0.3,2.2,0.8
		s0.9,1.2,0.9,2c0,0.8-0.3,1.5-0.9,2S252.2,41.5,251.3,41.5z M248.9,69.8V45.2h4.8v24.6H248.9z"/>
	<path d="M265.1,55.2v14.5h-4.8V45.2h4.6l0,6h-0.5c0.7-2.2,1.8-3.8,3.1-4.8s3-1.5,4.9-1.5c1.7,0,3.1,0.4,4.4,1.1s2.2,1.7,2.9,3.1
		s1.1,3.1,1.1,5.1v15.6H276v-15c0-1.8-0.5-3.2-1.4-4.2s-2.2-1.5-3.8-1.5c-1.1,0-2.1,0.2-2.9,0.7c-0.9,0.5-1.5,1.2-2,2.1
		S265.1,53.9,265.1,55.2z"/>
	<path d="M289.8,41.5c-0.8,0-1.5-0.3-2.1-0.8c-0.6-0.6-0.9-1.2-0.9-2c0-0.8,0.3-1.5,0.9-2c0.6-0.6,1.3-0.8,2.1-0.8s1.6,0.3,2.2,0.8
		s0.9,1.2,0.9,2c0,0.8-0.3,1.5-0.9,2S290.6,41.5,289.8,41.5z M287.3,69.8V45.2h4.8v24.6H287.3z"/>
	<path d="M298.6,69.8V45.2h4.6l0.1,5.7H303c0.4-1.4,0.9-2.5,1.6-3.4s1.6-1.6,2.6-2s2-0.7,3.1-0.7c1.8,0,3.2,0.6,4.3,1.7
		c1.1,1.1,1.8,2.6,2.2,4.6h-0.6c0.3-1.3,0.9-2.5,1.7-3.4s1.7-1.6,2.9-2.1c1.1-0.5,2.3-0.7,3.6-0.7c1.5,0,2.8,0.3,3.9,0.9
		s2.1,1.6,2.8,2.8s1,2.8,1,4.7v16.6h-4.8V53.7c0-1.6-0.5-2.8-1.4-3.6s-2-1.1-3.2-1.1c-1,0-1.9,0.2-2.6,0.6s-1.3,1-1.7,1.8
		s-0.6,1.6-0.6,2.6v15.7H313V53.4c0-1.3-0.4-2.4-1.3-3.2c-0.8-0.8-1.9-1.2-3.2-1.2c-0.9,0-1.7,0.2-2.5,0.6c-0.8,0.4-1.4,1-1.8,1.8
		c-0.5,0.8-0.7,1.8-0.7,3v15.3H298.6z"/>
	<path d="M345.5,70.3c-1.6,0-3-0.3-4.2-0.9c-1.3-0.6-2.3-1.4-3-2.5s-1.1-2.5-1.1-4.1c0-1.4,0.3-2.5,0.8-3.4c0.5-0.9,1.3-1.6,2.2-2.1
		s1.9-0.9,3.1-1.2c1.1-0.3,2.3-0.5,3.4-0.6c1.5-0.2,2.6-0.3,3.5-0.4c0.9-0.1,1.6-0.3,2-0.5c0.4-0.3,0.6-0.7,0.6-1.2v-0.1
		c0-0.9-0.2-1.7-0.5-2.3s-0.9-1.1-1.6-1.5c-0.7-0.3-1.6-0.5-2.6-0.5c-1.1,0-2,0.2-2.8,0.5c-0.8,0.3-1.4,0.8-1.9,1.3s-0.8,1-1.1,1.6
		l-4.5-1.2c0.6-1.5,1.4-2.6,2.4-3.5s2.2-1.5,3.6-2s2.7-0.6,4.2-0.6c1,0,2.1,0.1,3.2,0.4s2.2,0.7,3.1,1.3s1.8,1.5,2.4,2.6
		s0.9,2.6,0.9,4.4v16.3H353v-3.4h-0.2c-0.3,0.6-0.8,1.2-1.4,1.8s-1.4,1.1-2.4,1.5C348,70.1,346.8,70.3,345.5,70.3z M346.6,66.4
		c1.3,0,2.4-0.3,3.4-0.8s1.7-1.2,2.2-2c0.5-0.8,0.7-1.8,0.7-2.7v-3.1c-0.2,0.2-0.5,0.3-1,0.5s-1.1,0.3-1.7,0.4
		c-0.6,0.1-1.2,0.2-1.8,0.3s-1.1,0.1-1.5,0.2c-0.9,0.1-1.7,0.3-2.5,0.6c-0.8,0.3-1.4,0.7-1.8,1.2c-0.4,0.5-0.7,1.2-0.7,2
		c0,0.8,0.2,1.4,0.6,2s0.9,0.9,1.6,1.2S345.7,66.4,346.6,66.4z"/>
	<path d="M369,37v32.7h-4.8V37H369z"/>
	<path d="M398.9,70.3c-2.4,0-4.6-0.4-6.4-1.2s-3.2-1.9-4.2-3.3c-1-1.4-1.6-3.2-1.7-5.2h5c0.1,1.2,0.5,2.2,1.2,2.9
		c0.7,0.8,1.5,1.4,2.6,1.7s2.2,0.6,3.5,0.6c1.4,0,2.6-0.2,3.7-0.6c1.1-0.4,1.9-1,2.6-1.8c0.6-0.8,0.9-1.7,0.9-2.8
		c0-1-0.3-1.7-0.8-2.3c-0.5-0.6-1.3-1.1-2.2-1.5c-0.9-0.4-2-0.8-3.2-1.1l-3.8-1.1c-2.7-0.7-4.8-1.8-6.3-3.2
		c-1.5-1.4-2.3-3.2-2.3-5.5c0-1.9,0.5-3.5,1.5-5s2.4-2.5,4.2-3.3c1.8-0.8,3.7-1.2,5.9-1.2c2.2,0,4.2,0.4,5.9,1.2s3,1.9,4,3.2
		c1,1.4,1.5,2.9,1.5,4.7h-4.9c-0.2-1.5-0.9-2.7-2.1-3.5s-2.8-1.2-4.6-1.2c-1.3,0-2.5,0.2-3.4,0.6c-1,0.4-1.7,1-2.3,1.7
		c-0.5,0.7-0.8,1.5-0.8,2.5c0,1,0.3,1.9,1,2.5c0.6,0.6,1.4,1.1,2.3,1.5c0.9,0.4,1.8,0.7,2.6,0.9l3.2,0.8c1,0.3,2.1,0.6,3.2,1.1
		c1.1,0.4,2.1,1,3.1,1.7s1.7,1.6,2.3,2.6c0.6,1,0.9,2.3,0.9,3.8c0,1.8-0.5,3.5-1.4,4.9s-2.3,2.6-4.1,3.4
		C403.6,69.9,401.4,70.3,398.9,70.3z"/>
	<path d="M426.9,70.3c-2.3,0-4.3-0.5-6-1.6s-3-2.5-4-4.4c-1-1.9-1.4-4.1-1.4-6.6c0-2.5,0.5-4.8,1.4-6.7c1-1.9,2.3-3.4,4-4.4
		s3.7-1.6,6-1.6c1.3,0,2.5,0.2,3.6,0.5c1.1,0.3,2.1,0.8,3,1.4c0.9,0.6,1.7,1.4,2.3,2.3c0.6,0.9,1.1,1.9,1.4,3l-4.6,1.1
		c-0.2-0.6-0.4-1.2-0.7-1.7s-0.7-1-1.2-1.4c-0.5-0.4-1-0.7-1.6-0.9s-1.3-0.3-2.1-0.3c-1.5,0-2.7,0.4-3.7,1.2c-1,0.8-1.7,1.8-2.2,3.1
		s-0.7,2.7-0.7,4.3c0,1.6,0.2,3,0.7,4.3c0.5,1.3,1.2,2.3,2.2,3.1c1,0.8,2.2,1.2,3.7,1.2c0.8,0,1.5-0.1,2.1-0.3
		c0.6-0.2,1.2-0.5,1.7-0.9s0.9-0.9,1.3-1.4c0.3-0.5,0.6-1.2,0.7-1.8l4.6,1.1c-0.3,1.2-0.8,2.2-1.4,3.1c-0.6,0.9-1.4,1.7-2.3,2.3
		c-0.9,0.6-1.9,1.1-3,1.5S428.2,70.3,426.9,70.3z"/>
	<path d="M449.9,70.3c-1.6,0-3-0.3-4.2-0.9c-1.3-0.6-2.3-1.4-3-2.5s-1.1-2.5-1.1-4.1c0-1.4,0.3-2.5,0.8-3.4c0.5-0.9,1.3-1.6,2.2-2.1
		s1.9-0.9,3.1-1.2c1.1-0.3,2.3-0.5,3.4-0.6c1.5-0.2,2.6-0.3,3.5-0.4c0.9-0.1,1.6-0.3,2-0.5c0.4-0.3,0.6-0.7,0.6-1.2v-0.1
		c0-0.9-0.2-1.7-0.5-2.3s-0.9-1.1-1.6-1.5c-0.7-0.3-1.6-0.5-2.6-0.5c-1.1,0-2,0.2-2.8,0.5c-0.8,0.3-1.4,0.8-1.9,1.3s-0.8,1-1.1,1.6
		l-4.5-1.2c0.6-1.5,1.4-2.6,2.4-3.5s2.2-1.5,3.6-2s2.7-0.6,4.2-0.6c1,0,2.1,0.1,3.2,0.4s2.2,0.7,3.1,1.3s1.8,1.5,2.4,2.6
		s0.9,2.6,0.9,4.4v16.3h-4.7v-3.4h-0.2c-0.3,0.6-0.8,1.2-1.4,1.8s-1.4,1.1-2.4,1.5C452.3,70.1,451.2,70.3,449.9,70.3z M450.9,66.4
		c1.3,0,2.4-0.3,3.4-0.8s1.7-1.2,2.2-2c0.5-0.8,0.7-1.8,0.7-2.7v-3.1c-0.2,0.2-0.5,0.3-1,0.5s-1.1,0.3-1.7,0.4
		c-0.6,0.1-1.2,0.2-1.8,0.3s-1.1,0.1-1.5,0.2c-0.9,0.1-1.7,0.3-2.5,0.6c-0.8,0.3-1.4,0.7-1.8,1.2c-0.4,0.5-0.7,1.2-0.7,2
		c0,0.8,0.2,1.4,0.6,2s0.9,0.9,1.6,1.2S450,66.4,450.9,66.4z"/>
	<path d="M473.4,37v32.7h-4.8V37H473.4z"/>
	<path d="M490.5,70.3c-2.4,0-4.5-0.5-6.3-1.6s-3.1-2.5-4.1-4.4c-0.9-1.9-1.4-4.1-1.4-6.7c0-2.5,0.5-4.7,1.4-6.7
		c0.9-1.9,2.2-3.4,3.9-4.5c1.7-1.1,3.7-1.6,6-1.6c1.4,0,2.8,0.2,4.1,0.7c1.3,0.5,2.5,1.2,3.5,2.2s1.9,2.3,2.5,3.8
		c0.6,1.6,0.9,3.5,0.9,5.7V59h-19.6v-3.6h17.1l-2.3,1.2c0-1.5-0.2-2.8-0.7-4c-0.5-1.1-1.2-2-2.1-2.7c-0.9-0.6-2.1-1-3.4-1
		c-1.4,0-2.5,0.3-3.5,1s-1.7,1.5-2.2,2.6c-0.5,1.1-0.8,2.3-0.8,3.5v2.5c0,1.7,0.3,3.1,0.9,4.3c0.6,1.2,1.4,2,2.4,2.6
		c1,0.6,2.2,0.9,3.6,0.9c0.9,0,1.7-0.1,2.5-0.4s1.4-0.6,1.9-1.2c0.5-0.5,0.9-1.2,1.2-1.9l4.5,1.1c-0.4,1.3-1.1,2.4-2,3.3
		s-2.1,1.7-3.5,2.3C493.8,70,492.2,70.3,490.5,70.3z"/>
	<path d="M518.2,69.8v-3.6l11.1-11.5c1.1-1.2,2.1-2.3,2.9-3.2s1.3-1.8,1.7-2.7s0.6-1.8,0.6-2.7c0-1.1-0.3-2-0.8-2.8
		c-0.5-0.8-1.2-1.4-2.1-1.8c-0.9-0.4-1.9-0.6-3-0.6c-1.2,0-2.2,0.2-3,0.7s-1.5,1.1-2,2s-0.7,1.9-0.7,3.1h-4.8c0-2,0.5-3.7,1.4-5.2
		s2.2-2.7,3.8-3.5c1.6-0.8,3.4-1.2,5.5-1.2c2.1,0,3.9,0.4,5.5,1.2c1.6,0.8,2.8,1.9,3.7,3.3s1.3,3,1.3,4.8c0,1.2-0.2,2.4-0.7,3.5
		s-1.2,2.4-2.4,3.9c-1.1,1.4-2.7,3.2-4.7,5.2l-6.4,6.7v0.3h14.7v4.3H518.2z"/>
	<path d="M546,69.8v-3.6l11.1-11.5c1.1-1.2,2.1-2.3,2.9-3.2s1.3-1.8,1.7-2.7c0.4-0.8,0.6-1.8,0.6-2.7c0-1.1-0.3-2-0.8-2.8
		c-0.5-0.8-1.2-1.4-2.1-1.8c-0.9-0.4-1.9-0.6-3-0.6c-1.2,0-2.2,0.2-3,0.7s-1.5,1.1-2,2s-0.7,1.9-0.7,3.1h-4.8c0-2,0.5-3.7,1.4-5.2
		c0.9-1.5,2.2-2.7,3.8-3.5c1.6-0.8,3.4-1.2,5.5-1.2c2.1,0,3.9,0.4,5.5,1.2c1.6,0.8,2.8,1.9,3.7,3.3s1.3,3,1.3,4.8
		c0,1.2-0.2,2.4-0.7,3.5c-0.4,1.1-1.2,2.4-2.4,3.9c-1.1,1.4-2.7,3.2-4.7,5.2l-6.4,6.7v0.3h14.7v4.3H546z"/>
	<path d="M573.8,79V45.2h4.7v4h0.4c0.3-0.5,0.7-1.1,1.2-1.8c0.5-0.7,1.2-1.3,2.2-1.8c0.9-0.5,2.2-0.8,3.7-0.8c2,0,3.7,0.5,5.3,1.5
		c1.5,1,2.8,2.4,3.7,4.3s1.3,4.2,1.3,6.8c0,2.6-0.4,4.9-1.3,6.8c-0.9,1.9-2.1,3.4-3.6,4.4c-1.5,1-3.3,1.5-5.3,1.5
		c-1.5,0-2.7-0.3-3.6-0.8c-0.9-0.5-1.7-1.1-2.2-1.8c-0.5-0.7-0.9-1.3-1.2-1.8h-0.3v13H573.8z M584.9,66.2c1.4,0,2.6-0.4,3.5-1.1
		c1-0.8,1.7-1.8,2.1-3.1c0.5-1.3,0.7-2.8,0.7-4.4c0-1.6-0.2-3.1-0.7-4.3c-0.5-1.3-1.2-2.3-2.1-3c-0.9-0.7-2.1-1.1-3.5-1.1
		c-1.4,0-2.5,0.4-3.5,1.1c-1,0.7-1.7,1.7-2.2,3c-0.5,1.3-0.7,2.8-0.7,4.5c0,1.7,0.2,3.2,0.7,4.5c0.5,1.3,1.2,2.3,2.2,3
		S583.5,66.2,584.9,66.2z"/>
	<path d="M598.6,69.8l9.6-14.5l0,3.7l-9.1-13.8h5.4l2.8,4.5c0.8,1.2,1.4,2.4,2,3.5c0.6,1.1,1.2,2.2,1.8,3.3h-2.2
		c0.6-1.1,1.2-2.1,1.7-3.3s1.2-2.3,2-3.5l2.8-4.5h5.4l-9.2,14v-3.6l9.6,14.2h-5.4l-3.3-5.2c-0.8-1.2-1.4-2.4-2-3.5s-1.2-2.2-1.8-3.2
		h2.2c-0.6,1-1.1,2.1-1.7,3.2s-1.2,2.3-1.9,3.5l-3.3,5.2H598.6z"/>
</g>
<g>
	<path class="st0" d="M208.2,604.7V572h7.4l7.1,18.8c0.2,0.6,0.4,1.3,0.7,2.1c0.3,0.8,0.5,1.8,0.8,2.8s0.5,2,0.8,2.9
		s0.5,1.8,0.7,2.6h-1.1c0.2-0.7,0.4-1.6,0.7-2.5c0.2-1,0.5-1.9,0.8-2.9s0.5-1.9,0.8-2.8s0.5-1.6,0.7-2.2l7-18.8h7.4v32.7h-5v-17.6
		c0-0.7,0-1.5,0-2.4s0-1.9,0.1-3c0-1,0-2.1,0.1-3.2c0-1.1,0-2.1,0.1-3.1h0.4c-0.3,1.1-0.6,2.2-1,3.3c-0.3,1.1-0.7,2.2-1,3.3
		c-0.3,1.1-0.6,2-0.9,2.9c-0.3,0.9-0.6,1.6-0.8,2.2l-6.7,17.6H223l-6.8-17.6c-0.2-0.6-0.5-1.3-0.8-2.1c-0.3-0.9-0.6-1.8-0.9-2.9
		c-0.3-1-0.7-2.1-1-3.3c-0.4-1.1-0.7-2.3-1.1-3.4h0.4c0,0.9,0.1,1.9,0.1,2.9c0,1,0,2.1,0.1,3.2c0,1.1,0,2.1,0.1,3c0,1,0,1.8,0,2.5
		v17.6H208.2z"/>
	<path class="st0" d="M251.3,576.4c-0.8,0-1.5-0.3-2.1-0.8c-0.6-0.6-0.9-1.2-0.9-2c0-0.8,0.3-1.5,0.9-2c0.6-0.6,1.3-0.8,2.1-0.8
		s1.6,0.3,2.2,0.8s0.9,1.2,0.9,2c0,0.8-0.3,1.5-0.9,2S252.2,576.4,251.3,576.4z M248.9,604.7v-24.6h4.8v24.6H248.9z"/>
	<path class="st0" d="M265.1,590.1v14.5h-4.8v-24.6h4.6l0,6h-0.5c0.7-2.2,1.8-3.8,3.1-4.8s3-1.5,4.9-1.5c1.7,0,3.1,0.4,4.4,1.1
		s2.2,1.7,2.9,3.1c0.7,1.4,1.1,3.1,1.1,5.1v15.6H276v-15c0-1.8-0.5-3.2-1.4-4.2s-2.2-1.5-3.8-1.5c-1.1,0-2.1,0.2-2.9,0.7
		c-0.9,0.5-1.5,1.2-2,2.1S265.1,588.8,265.1,590.1z"/>
	<path class="st0" d="M289.8,576.4c-0.8,0-1.5-0.3-2.1-0.8c-0.6-0.6-0.9-1.2-0.9-2c0-0.8,0.3-1.5,0.9-2c0.6-0.6,1.3-0.8,2.1-0.8
		s1.6,0.3,2.2,0.8s0.9,1.2,0.9,2c0,0.8-0.3,1.5-0.9,2S290.6,576.4,289.8,576.4z M287.3,604.7v-24.6h4.8v24.6H287.3z"/>
	<path class="st0" d="M298.6,604.7v-24.6h4.6l0.1,5.7H303c0.4-1.4,0.9-2.5,1.6-3.4s1.6-1.6,2.6-2c1-0.4,2-0.7,3.1-0.7
		c1.8,0,3.2,0.6,4.3,1.7c1.1,1.1,1.8,2.6,2.2,4.6h-0.6c0.3-1.3,0.9-2.5,1.7-3.4s1.7-1.6,2.9-2.1c1.1-0.5,2.3-0.7,3.6-0.7
		c1.5,0,2.8,0.3,3.9,0.9s2.1,1.6,2.8,2.8s1,2.8,1,4.7v16.6h-4.8v-16.1c0-1.6-0.5-2.8-1.4-3.6s-2-1.1-3.2-1.1c-1,0-1.9,0.2-2.6,0.6
		s-1.3,1-1.7,1.8c-0.4,0.8-0.6,1.6-0.6,2.6v15.7H313v-16.4c0-1.3-0.4-2.4-1.3-3.2c-0.8-0.8-1.9-1.2-3.2-1.2c-0.9,0-1.7,0.2-2.5,0.6
		c-0.8,0.4-1.4,1-1.8,1.8c-0.5,0.8-0.7,1.8-0.7,3v15.3H298.6z"/>
	<path class="st0" d="M345.5,605.2c-1.6,0-3-0.3-4.2-0.9c-1.3-0.6-2.3-1.4-3-2.5s-1.1-2.5-1.1-4.1c0-1.4,0.3-2.5,0.8-3.4
		c0.5-0.9,1.3-1.6,2.2-2.1s1.9-0.9,3.1-1.2c1.1-0.3,2.3-0.5,3.4-0.6c1.5-0.2,2.6-0.3,3.5-0.4c0.9-0.1,1.6-0.3,2-0.5
		c0.4-0.3,0.6-0.7,0.6-1.2v-0.1c0-0.9-0.2-1.7-0.5-2.3s-0.9-1.1-1.6-1.5c-0.7-0.3-1.6-0.5-2.6-0.5c-1.1,0-2,0.2-2.8,0.5
		c-0.8,0.3-1.4,0.8-1.9,1.3s-0.8,1-1.1,1.6l-4.5-1.2c0.6-1.5,1.4-2.6,2.4-3.5s2.2-1.5,3.6-2s2.7-0.6,4.2-0.6c1,0,2.1,0.1,3.2,0.4
		s2.2,0.7,3.1,1.3s1.8,1.5,2.4,2.6s0.9,2.6,0.9,4.4v16.3H353v-3.4h-0.2c-0.3,0.6-0.8,1.2-1.4,1.8s-1.4,1.1-2.4,1.5
		C348,605,346.8,605.2,345.5,605.2z M346.6,601.4c1.3,0,2.4-0.3,3.4-0.8s1.7-1.2,2.2-2s0.7-1.8,0.7-2.7v-3.1c-0.2,0.2-0.5,0.3-1,0.5
		c-0.5,0.1-1.1,0.3-1.7,0.4c-0.6,0.1-1.2,0.2-1.8,0.3s-1.1,0.1-1.5,0.2c-0.9,0.1-1.7,0.3-2.5,0.6c-0.8,0.3-1.4,0.7-1.8,1.2
		c-0.4,0.5-0.7,1.2-0.7,2c0,0.8,0.2,1.4,0.6,2s0.9,0.9,1.6,1.2S345.7,601.4,346.6,601.4z"/>
	<path class="st0" d="M369,572v32.7h-4.8V572H369z"/>
	<path class="st0" d="M398.9,605.2c-2.4,0-4.6-0.4-6.4-1.2s-3.2-1.9-4.2-3.3c-1-1.4-1.6-3.2-1.7-5.2h5c0.1,1.2,0.5,2.2,1.2,2.9
		c0.7,0.8,1.5,1.4,2.6,1.7s2.2,0.6,3.5,0.6c1.4,0,2.6-0.2,3.7-0.6c1.1-0.4,1.9-1,2.6-1.8c0.6-0.8,0.9-1.7,0.9-2.8
		c0-1-0.3-1.7-0.8-2.3c-0.5-0.6-1.3-1.1-2.2-1.5c-0.9-0.4-2-0.8-3.2-1.1l-3.8-1.1c-2.7-0.7-4.8-1.8-6.3-3.2
		c-1.5-1.4-2.3-3.2-2.3-5.5c0-1.9,0.5-3.5,1.5-5c1-1.4,2.4-2.5,4.2-3.3c1.8-0.8,3.7-1.2,5.9-1.2c2.2,0,4.2,0.4,5.9,1.2
		c1.7,0.8,3,1.9,4,3.2c1,1.4,1.5,2.9,1.5,4.7h-4.9c-0.2-1.5-0.9-2.7-2.1-3.5s-2.8-1.2-4.6-1.2c-1.3,0-2.5,0.2-3.4,0.6
		c-1,0.4-1.7,1-2.3,1.7c-0.5,0.7-0.8,1.5-0.8,2.5c0,1,0.3,1.9,1,2.5c0.6,0.6,1.4,1.1,2.3,1.5c0.9,0.4,1.8,0.7,2.6,0.9l3.2,0.8
		c1,0.3,2.1,0.6,3.2,1.1c1.1,0.4,2.1,1,3.1,1.7c0.9,0.7,1.7,1.6,2.3,2.6c0.6,1,0.9,2.3,0.9,3.8c0,1.8-0.5,3.5-1.4,4.9
		s-2.3,2.6-4.1,3.4C403.6,604.8,401.4,605.2,398.9,605.2z"/>
	<path class="st0" d="M426.9,605.2c-2.3,0-4.3-0.5-6-1.6s-3-2.5-4-4.4s-1.4-4.1-1.4-6.6c0-2.5,0.5-4.8,1.4-6.7c1-1.9,2.3-3.4,4-4.4
		s3.7-1.6,6-1.6c1.3,0,2.5,0.2,3.6,0.5c1.1,0.3,2.1,0.8,3,1.4c0.9,0.6,1.7,1.4,2.3,2.3c0.6,0.9,1.1,1.9,1.4,3l-4.6,1.1
		c-0.2-0.6-0.4-1.2-0.7-1.7c-0.3-0.5-0.7-1-1.2-1.4c-0.5-0.4-1-0.7-1.6-0.9s-1.3-0.3-2.1-0.3c-1.5,0-2.7,0.4-3.7,1.2
		c-1,0.8-1.7,1.8-2.2,3.1s-0.7,2.7-0.7,4.3c0,1.6,0.2,3,0.7,4.3c0.5,1.3,1.2,2.3,2.2,3.1c1,0.8,2.2,1.2,3.7,1.2
		c0.8,0,1.5-0.1,2.1-0.3c0.6-0.2,1.2-0.5,1.7-0.9c0.5-0.4,0.9-0.9,1.3-1.4c0.3-0.5,0.6-1.2,0.7-1.8l4.6,1.1
		c-0.3,1.2-0.8,2.2-1.4,3.1c-0.6,0.9-1.4,1.7-2.3,2.3c-0.9,0.6-1.9,1.1-3,1.5S428.2,605.2,426.9,605.2z"/>
	<path class="st0" d="M449.9,605.2c-1.6,0-3-0.3-4.2-0.9c-1.3-0.6-2.3-1.4-3-2.5s-1.1-2.5-1.1-4.1c0-1.4,0.3-2.5,0.8-3.4
		c0.5-0.9,1.3-1.6,2.2-2.1s1.9-0.9,3.1-1.2c1.1-0.3,2.3-0.5,3.4-0.6c1.5-0.2,2.6-0.3,3.5-0.4c0.9-0.1,1.6-0.3,2-0.5
		c0.4-0.3,0.6-0.7,0.6-1.2v-0.1c0-0.9-0.2-1.7-0.5-2.3s-0.9-1.1-1.6-1.5c-0.7-0.3-1.6-0.5-2.6-0.5c-1.1,0-2,0.2-2.8,0.5
		c-0.8,0.3-1.4,0.8-1.9,1.3s-0.8,1-1.1,1.6l-4.5-1.2c0.6-1.5,1.4-2.6,2.4-3.5s2.2-1.5,3.6-2s2.7-0.6,4.2-0.6c1,0,2.1,0.1,3.2,0.4
		s2.2,0.7,3.1,1.3s1.8,1.5,2.4,2.6s0.9,2.6,0.9,4.4v16.3h-4.7v-3.4h-0.2c-0.3,0.6-0.8,1.2-1.4,1.8s-1.4,1.1-2.4,1.5
		C452.3,605,451.2,605.2,449.9,605.2z M450.9,601.4c1.3,0,2.4-0.3,3.4-0.8s1.7-1.2,2.2-2s0.7-1.8,0.7-2.7v-3.1
		c-0.2,0.2-0.5,0.3-1,0.5c-0.5,0.1-1.1,0.3-1.7,0.4c-0.6,0.1-1.2,0.2-1.8,0.3s-1.1,0.1-1.5,0.2c-0.9,0.1-1.7,0.3-2.5,0.6
		c-0.8,0.3-1.4,0.7-1.8,1.2c-0.4,0.5-0.7,1.2-0.7,2c0,0.8,0.2,1.4,0.6,2s0.9,0.9,1.6,1.2S450,601.4,450.9,601.4z"/>
	<path class="st0" d="M473.4,572v32.7h-4.8V572H473.4z"/>
	<path class="st0" d="M490.5,605.2c-2.4,0-4.5-0.5-6.3-1.6s-3.1-2.5-4.1-4.4c-0.9-1.9-1.4-4.1-1.4-6.7c0-2.5,0.5-4.7,1.4-6.7
		c0.9-1.9,2.2-3.4,3.9-4.5c1.7-1.1,3.7-1.6,6-1.6c1.4,0,2.8,0.2,4.1,0.7c1.3,0.5,2.5,1.2,3.5,2.2s1.9,2.3,2.5,3.8
		c0.6,1.6,0.9,3.5,0.9,5.7v1.7h-19.6v-3.6h17.1l-2.3,1.2c0-1.5-0.2-2.8-0.7-4c-0.5-1.1-1.2-2-2.1-2.7c-0.9-0.6-2.1-1-3.4-1
		c-1.4,0-2.5,0.3-3.5,1s-1.7,1.5-2.2,2.6c-0.5,1.1-0.8,2.3-0.8,3.5v2.5c0,1.7,0.3,3.1,0.9,4.3c0.6,1.2,1.4,2,2.4,2.6
		c1,0.6,2.2,0.9,3.6,0.9c0.9,0,1.7-0.1,2.5-0.4c0.7-0.3,1.4-0.6,1.9-1.2c0.5-0.5,0.9-1.2,1.2-1.9l4.5,1.1c-0.4,1.3-1.1,2.4-2,3.3
		s-2.1,1.7-3.5,2.3C493.8,604.9,492.2,605.2,490.5,605.2z"/>
	<path class="st0" d="M518.2,604.7v-3.6l11.1-11.5c1.1-1.2,2.1-2.3,2.9-3.2s1.3-1.8,1.7-2.7s0.6-1.8,0.6-2.7c0-1.1-0.3-2-0.8-2.8
		c-0.5-0.8-1.2-1.4-2.1-1.8c-0.9-0.4-1.9-0.6-3-0.6c-1.2,0-2.2,0.2-3,0.7c-0.9,0.5-1.5,1.1-2,2s-0.7,1.9-0.7,3.1h-4.8
		c0-2,0.5-3.7,1.4-5.2c0.9-1.5,2.2-2.7,3.8-3.5c1.6-0.8,3.4-1.2,5.5-1.2c2.1,0,3.9,0.4,5.5,1.2c1.6,0.8,2.8,1.9,3.7,3.3
		c0.9,1.4,1.3,3,1.3,4.8c0,1.2-0.2,2.4-0.7,3.5s-1.2,2.4-2.4,3.9c-1.1,1.4-2.7,3.2-4.7,5.2l-6.4,6.7v0.3h14.7v4.3H518.2z"/>
	<path class="st0" d="M546,604.7v-3.6l11.1-11.5c1.1-1.2,2.1-2.3,2.9-3.2s1.3-1.8,1.7-2.7c0.4-0.8,0.6-1.8,0.6-2.7
		c0-1.1-0.3-2-0.8-2.8c-0.5-0.8-1.2-1.4-2.1-1.8c-0.9-0.4-1.9-0.6-3-0.6c-1.2,0-2.2,0.2-3,0.7c-0.9,0.5-1.5,1.1-2,2
		s-0.7,1.9-0.7,3.1h-4.8c0-2,0.5-3.7,1.4-5.2c0.9-1.5,2.2-2.7,3.8-3.5c1.6-0.8,3.4-1.2,5.5-1.2c2.1,0,3.9,0.4,5.5,1.2
		c1.6,0.8,2.8,1.9,3.7,3.3c0.9,1.4,1.3,3,1.3,4.8c0,1.2-0.2,2.4-0.7,3.5c-0.4,1.1-1.2,2.4-2.4,3.9c-1.1,1.4-2.7,3.2-4.7,5.2
		l-6.4,6.7v0.3h14.7v4.3H546z"/>
	<path class="st0" d="M573.8,613.9v-33.8h4.7v4h0.4c0.3-0.5,0.7-1.1,1.2-1.8c0.5-0.7,1.2-1.3,2.2-1.8c0.9-0.5,2.2-0.8,3.7-0.8
		c2,0,3.7,0.5,5.3,1.5c1.5,1,2.8,2.4,3.7,4.3s1.3,4.2,1.3,6.8c0,2.6-0.4,4.9-1.3,6.8c-0.9,1.9-2.1,3.4-3.6,4.4
		c-1.5,1-3.3,1.5-5.3,1.5c-1.5,0-2.7-0.3-3.6-0.8c-0.9-0.5-1.7-1.1-2.2-1.8c-0.5-0.7-0.9-1.3-1.2-1.8h-0.3v13H573.8z M584.9,601.1
		c1.4,0,2.6-0.4,3.5-1.1c1-0.8,1.7-1.8,2.1-3.1c0.5-1.3,0.7-2.8,0.7-4.4c0-1.6-0.2-3.1-0.7-4.3c-0.5-1.3-1.2-2.3-2.1-3
		c-0.9-0.7-2.1-1.1-3.5-1.1c-1.4,0-2.5,0.4-3.5,1.1c-1,0.7-1.7,1.7-2.2,3c-0.5,1.3-0.7,2.8-0.7,4.5c0,1.7,0.2,3.2,0.7,4.5
		c0.5,1.3,1.2,2.3,2.2,3S583.5,601.1,584.9,601.1z"/>
	<path class="st0" d="M598.6,604.7l9.6-14.5l0,3.7l-9.1-13.8h5.4l2.8,4.5c0.8,1.2,1.4,2.4,2,3.5c0.6,1.1,1.2,2.2,1.8,3.3h-2.2
		c0.6-1.1,1.2-2.1,1.7-3.3s1.2-2.3,2-3.5l2.8-4.5h5.4l-9.2,14v-3.6l9.6,14.2h-5.4l-3.3-5.2c-0.8-1.2-1.4-2.4-2-3.5s-1.2-2.2-1.8-3.2
		h2.2c-0.6,1-1.1,2.1-1.7,3.2s-1.2,2.3-1.9,3.5l-3.3,5.2H598.6z"/>
</g>
</svg>
