<?xml version="1.0" encoding="utf-8"?>
<!-- Generator: Adobe Illustrator 27.9.1, SVG Export Plug-In . SVG Version: 6.00 Build 0)  -->
<svg version="1.1" id="Layer_1" xmlns="http://www.w3.org/2000/svg" xmlns:xlink="http://www.w3.org/1999/xlink" x="0px" y="0px"
	 viewBox="0 0 1484 874" style="enable-background:new 0 0 1484 874;" xml:space="preserve">
<style type="text/css">
	.st0{fill:#081B37;}
	.st1{opacity:0.22;}
	.st2{fill:#FFFFFF;}
	.st3{fill:#F46F33;}
	.st4{fill:#DB1B1B;}
	.st5{fill:#F9F9F9;}
	.st6{fill:#E8E8E8;}
	.st7{fill:#B40300;}
	.st8{opacity:0.23;}
	.st9{fill:#878787;}
	.st10{fill:#A5A5A5;}
	.st11{fill:#E33F2C;}
	.st12{fill:#2CA24D;}
	.st13{fill:#3C7EEB;}
	.st14{fill:#EFB403;}
</style>
<g>
	<path class="st0" d="M295.5,0H45C20.1,0,0,20.1,0,45v784c0,24.9,20.1,45,45,45h250.5c24.9,0,45-20.1,45-45V45
		C340.5,20.1,320.4,0,295.5,0z"/>
	<path class="st0" d="M1439,0H404.9c-24.9,0-45,20.1-45,45v784c0,24.9,20.1,45,45,45H1439c24.9,0,45-20.1,45-45V45
		C1484,20.1,1463.9,0,1439,0z"/>
</g>
<g class="st1">
	<g>
		<g>
			<rect x="4422.3" y="-462.2" class="st2" width="4.8" height="1134.5"/>
		</g>
		<g>
			<rect x="3623.6" y="-462.2" class="st2" width="4.8" height="1134.5"/>
		</g>
		<g>
			
				<rect x="3738" y="102.6" transform="matrix(0.5429 -0.8398 0.8398 0.5429 1879.738 3663.5244)" class="st2" width="1134.5" height="4.8"/>
		</g>
		<g>
			
				<rect x="3623.6" y="-462.4" transform="matrix(0.8399 -0.5428 0.5428 0.8399 523.6774 1984.9418)" class="st2" width="4.8" height="1134.5"/>
		</g>
		<g>
			
				<rect x="4025.9" y="-681.8" transform="matrix(0.5541 -0.8325 0.8325 0.5541 1803.4664 3349.6023)" class="st2" width="4.8" height="1346.5"/>
		</g>
		<g>
			
				<rect x="3740.8" y="-392.6" transform="matrix(0.6323 -0.7747 0.7747 0.6323 1158.9685 3003.0525)" class="st2" width="4.8" height="1346.4"/>
		</g>
		<g>
			
				<rect x="3650.7" y="277.9" transform="matrix(0.7747 -0.6323 0.6323 0.7747 796.8571 2797.2104)" class="st2" width="1346.4" height="4.8"/>
		</g>
		<g>
			
				<rect x="3367.1" y="-10.9" transform="matrix(0.8321 -0.5547 0.5547 0.8321 683.2108 2239.6321)" class="st2" width="1346.5" height="4.8"/>
		</g>
		<g>
			<rect x="3523.1" y="-44.6" class="st2" width="1020.1" height="4.8"/>
		</g>
	</g>
</g>
<g>
	<g id="XMLID_00000026132410659508288200000017710148202125249440_">
		<g>
			<g>
				<g>
					<g>
						<g>
							<polygon class="st2" points="110.6,221.3 167.7,268.1 110.6,179.8 							"/>
						</g>
					</g>
					<g>
						<g>
							<polygon class="st2" points="224.9,221.3 224.9,179.8 167.7,268.1 							"/>
						</g>
					</g>
				</g>
				<g>
					<g>
						<polygon class="st3" points="174.2,187.4 161.3,187.4 110.6,153.8 110.6,179.8 167.7,268.1 224.9,179.8 224.9,153.8 						"/>
					</g>
				</g>
			</g>
		</g>
	</g>
</g>
<g>
	<g id="XMLID_00000032651051278384105390000013290761451191477655_">
		<g>
			<g>
				<g>
					<g>
						<g>
							<polygon class="st2" points="116,495.5 173.2,542.3 116,454 							"/>
						</g>
					</g>
					<g>
						<g>
							<polygon class="st2" points="230.3,495.5 230.3,454 173.2,542.3 							"/>
						</g>
					</g>
				</g>
				<g>
					<g>
						<polygon class="st3" points="179.6,461.6 166.7,461.6 116,428 116,454 173.2,542.3 230.3,454 230.3,428 						"/>
					</g>
				</g>
			</g>
		</g>
	</g>
</g>
<g>
	<g>
		<circle class="st4" cx="161" cy="187.2" r="4.9"/>
	</g>
</g>
<g>
	<g>
		<circle class="st4" cx="166.4" cy="461.4" r="4.9"/>
	</g>
</g>
<g>
	<g>
		<circle class="st5" cx="178.1" cy="187.2" r="4.9"/>
	</g>
</g>
<g>
	<g>
		<circle class="st5" cx="224.9" cy="153.8" r="4.9"/>
	</g>
</g>
<g>
	<g>
		<circle class="st5" cx="224.9" cy="221.8" r="4.9"/>
	</g>
</g>
<g>
	<g>
		<circle class="st5" cx="168.4" cy="268.1" r="4.9"/>
	</g>
</g>
<g>
	<g>
		<circle class="st5" cx="110.6" cy="153.8" r="4.9"/>
	</g>
</g>
<g>
	<g>
		<circle class="st5" cx="110.6" cy="224" r="4.9"/>
	</g>
</g>
<g>
	<g>
		<path class="st4" d="M166.9,565.7H91.7V427.5h75.2L166.9,565.7L166.9,565.7z M92.7,564.7h73.2V428.5H92.7V564.7z"/>
	</g>
</g>
<g>
	<g>
		<polygon class="st3" points="173.9,806 173.9,735.6 123.5,702.2 123.5,728.2 		"/>
	</g>
</g>
<g>
	<g>
		<path class="st6" d="M132.6,90.9c-1.5,0-2.8-0.2-4-0.7s-2-1.2-2.6-2.1s-1-2-1-3.2h3.1c0.1,0.7,0.3,1.3,0.7,1.8s1,0.8,1.6,1.1
			c0.7,0.2,1.4,0.4,2.2,0.4c0.9,0,1.6-0.1,2.3-0.4s1.2-0.7,1.6-1.1c0.4-0.5,0.6-1.1,0.6-1.7s-0.2-1.1-0.5-1.5s-0.8-0.7-1.4-0.9
			c-0.6-0.3-1.2-0.5-2-0.7l-2.4-0.7c-1.7-0.4-3-1.1-3.9-2s-1.4-2-1.4-3.4c0-1.2,0.3-2.2,1-3.1c0.6-0.9,1.5-1.6,2.6-2.1
			s2.3-0.7,3.7-0.7s2.6,0.2,3.7,0.7c1.1,0.5,1.9,1.2,2.5,2s0.9,1.8,1,2.9h-3c-0.1-0.9-0.5-1.6-1.3-2.2c-0.8-0.5-1.7-0.8-2.9-0.8
			c-0.8,0-1.5,0.1-2.1,0.4s-1.1,0.6-1.4,1.1c-0.3,0.5-0.5,1-0.5,1.5c0,0.6,0.2,1.2,0.6,1.6s0.9,0.7,1.4,0.9c0.6,0.2,1.1,0.4,1.6,0.6
			l2,0.5c0.6,0.2,1.3,0.4,2,0.7c0.7,0.3,1.3,0.6,1.9,1.1c0.6,0.4,1.1,1,1.4,1.6c0.4,0.7,0.5,1.4,0.5,2.4c0,1.1-0.3,2.2-0.9,3.1
			c-0.6,0.9-1.5,1.6-2.6,2.1C135.5,90.7,134.2,90.9,132.6,90.9z"/>
	</g>
	<g>
		<path class="st6" d="M150.1,75.3v2.4h-8.3v-2.4H150.1z M144.1,71.6h3v14.8c0,0.6,0.1,1.1,0.4,1.3s0.7,0.4,1.3,0.4
			c0.2,0,0.4,0,0.6-0.1c0.3,0,0.5-0.1,0.7-0.1l0.5,2.4c-0.3,0.1-0.7,0.2-1,0.2c-0.4,0-0.7,0.1-1.1,0.1c-1.4,0-2.5-0.4-3.2-1.1
			c-0.8-0.7-1.1-1.7-1.1-3L144.1,71.6L144.1,71.6z"/>
	</g>
	<g>
		<path class="st6" d="M159.4,90.9c-1.5,0-2.8-0.3-3.9-1c-1.1-0.6-1.9-1.6-2.5-2.7s-0.9-2.6-0.9-4.1c0-1.6,0.3-2.9,0.9-4.1
			c0.6-1.2,1.4-2.1,2.5-2.8c1.1-0.7,2.3-1,3.7-1c0.9,0,1.7,0.1,2.5,0.4s1.5,0.7,2.2,1.3c0.6,0.6,1.2,1.4,1.5,2.4
			c0.4,1,0.6,2.1,0.6,3.5v1.1h-12.2v-2.2h10.6l-1.4,0.7c0-0.9-0.1-1.8-0.4-2.5c-0.3-0.7-0.7-1.3-1.3-1.7c-0.6-0.4-1.3-0.6-2.1-0.6
			s-1.6,0.2-2.2,0.6s-1.1,1-1.4,1.6s-0.5,1.4-0.5,2.2v1.5c0,1,0.2,1.9,0.5,2.7c0.4,0.7,0.9,1.3,1.5,1.6c0.6,0.4,1.4,0.6,2.3,0.6
			c0.6,0,1.1-0.1,1.5-0.2c0.5-0.2,0.8-0.4,1.2-0.7c0.3-0.3,0.6-0.7,0.8-1.2l2.8,0.7c-0.2,0.8-0.7,1.5-1.2,2.1
			c-0.6,0.6-1.3,1.1-2.2,1.4S160.5,90.9,159.4,90.9z"/>
	</g>
	<g>
		<path class="st6" d="M169.3,96.3v-21h2.9v2.5h0.2c0.2-0.3,0.4-0.7,0.8-1.1c0.3-0.4,0.8-0.8,1.4-1.1c0.6-0.3,1.3-0.5,2.3-0.5
			c1.2,0,2.3,0.3,3.3,0.9s1.7,1.5,2.3,2.7s0.8,2.6,0.8,4.3c0,1.6-0.3,3.1-0.8,4.2c-0.5,1.2-1.3,2.1-2.3,2.7s-2.1,1-3.3,1
			c-0.9,0-1.7-0.2-2.3-0.5s-1-0.7-1.4-1.1c-0.3-0.4-0.6-0.8-0.8-1.1h-0.2v8.1H169.3z M176.2,88.3c0.9,0,1.6-0.2,2.2-0.7
			c0.6-0.5,1-1.1,1.3-1.9s0.4-1.7,0.4-2.7s-0.1-1.9-0.4-2.7c-0.3-0.8-0.7-1.4-1.3-1.9s-1.3-0.7-2.2-0.7s-1.6,0.2-2.2,0.7
			c-0.6,0.4-1,1.1-1.3,1.8c-0.3,0.8-0.5,1.7-0.5,2.8c0,1.1,0.2,2,0.5,2.8s0.8,1.4,1.3,1.9C174.6,88.1,175.4,88.3,176.2,88.3z"/>
	</g>
	<g>
		<path class="st6" d="M201.4,70.2v20.4h-3.1V73h-0.1l-4.8,3.5v-3.1l4.5-3.2C197.9,70.2,201.4,70.2,201.4,70.2z"/>
	</g>
</g>
<g>
	<g>
		<path class="st6" d="M140.2,365.1c-1.5,0-2.8-0.2-4-0.7s-2-1.2-2.6-2.1c-0.6-0.9-1-2-1-3.2h3.1c0.1,0.7,0.3,1.3,0.7,1.8
			c0.4,0.5,1,0.8,1.6,1.1c0.7,0.2,1.4,0.4,2.2,0.4c0.9,0,1.6-0.1,2.3-0.4c0.7-0.3,1.2-0.7,1.6-1.1c0.4-0.5,0.6-1.1,0.6-1.7
			s-0.2-1.1-0.5-1.5s-0.8-0.7-1.4-0.9c-0.6-0.3-1.2-0.5-2-0.7l-2.4-0.7c-1.7-0.4-3-1.1-3.9-2c-0.9-0.9-1.4-2-1.4-3.4
			c0-1.2,0.3-2.2,1-3.1c0.6-0.9,1.5-1.6,2.6-2.1s2.3-0.7,3.7-0.7c1.4,0,2.6,0.2,3.7,0.7s1.9,1.2,2.5,2s0.9,1.8,1,2.9h-3
			c-0.1-0.9-0.5-1.6-1.3-2.2c-0.8-0.5-1.7-0.8-2.9-0.8c-0.8,0-1.5,0.1-2.1,0.4c-0.6,0.3-1.1,0.6-1.4,1.1s-0.5,1-0.5,1.5
			c0,0.6,0.2,1.2,0.6,1.6s0.9,0.7,1.4,0.9c0.6,0.2,1.1,0.4,1.6,0.6l2,0.5c0.6,0.2,1.3,0.4,2,0.7c0.7,0.3,1.3,0.6,1.9,1.1
			c0.6,0.4,1.1,1,1.4,1.6c0.4,0.7,0.5,1.4,0.5,2.4c0,1.1-0.3,2.2-0.9,3.1s-1.5,1.6-2.6,2.1C143.2,364.9,141.8,365.1,140.2,365.1z"/>
	</g>
	<g>
		<path class="st6" d="M157.8,349.5v2.4h-8.3v-2.4H157.8z M151.7,345.8h3v14.8c0,0.6,0.1,1.1,0.4,1.3c0.3,0.2,0.7,0.4,1.3,0.4
			c0.2,0,0.4,0,0.6-0.1c0.3,0,0.5-0.1,0.7-0.1l0.5,2.4c-0.3,0.1-0.7,0.2-1,0.2c-0.4,0-0.7,0.1-1.1,0.1c-1.4,0-2.5-0.4-3.2-1.1
			c-0.8-0.7-1.1-1.7-1.1-3L151.7,345.8L151.7,345.8z"/>
	</g>
	<g>
		<path class="st6" d="M167.1,365.1c-1.5,0-2.8-0.3-3.9-1c-1.1-0.6-1.9-1.6-2.5-2.7s-0.9-2.6-0.9-4.1c0-1.6,0.3-2.9,0.9-4.1
			c0.6-1.2,1.4-2.1,2.5-2.8c1.1-0.7,2.3-1,3.7-1c0.9,0,1.7,0.1,2.5,0.4c0.8,0.3,1.5,0.7,2.2,1.3c0.6,0.6,1.2,1.4,1.5,2.4
			c0.4,1,0.6,2.1,0.6,3.5v1.1h-12.2v-2.2h10.6l-1.4,0.7c0-0.9-0.1-1.8-0.4-2.5s-0.7-1.3-1.3-1.7c-0.6-0.4-1.3-0.6-2.1-0.6
			c-0.8,0-1.6,0.2-2.2,0.6c-0.6,0.4-1.1,1-1.4,1.6c-0.3,0.6-0.5,1.4-0.5,2.2v1.5c0,1,0.2,1.9,0.5,2.7c0.4,0.7,0.9,1.3,1.5,1.6
			c0.6,0.4,1.4,0.6,2.3,0.6c0.6,0,1.1-0.1,1.5-0.2c0.5-0.2,0.8-0.4,1.2-0.7c0.3-0.3,0.6-0.7,0.8-1.2l2.8,0.7
			c-0.2,0.8-0.7,1.5-1.2,2.1c-0.6,0.6-1.3,1.1-2.2,1.4C169.1,365,168.2,365.1,167.1,365.1z"/>
	</g>
	<g>
		<path class="st6" d="M176.9,370.5v-21h2.9v2.5h0.2c0.2-0.3,0.4-0.7,0.8-1.1c0.3-0.4,0.8-0.8,1.4-1.1c0.6-0.3,1.3-0.5,2.3-0.5
			c1.2,0,2.3,0.3,3.3,0.9c1,0.6,1.7,1.5,2.3,2.7c0.6,1.2,0.8,2.6,0.8,4.3c0,1.6-0.3,3.1-0.8,4.2c-0.5,1.2-1.3,2.1-2.3,2.7
			s-2.1,1-3.3,1c-0.9,0-1.7-0.2-2.3-0.5c-0.6-0.3-1-0.7-1.4-1.1c-0.3-0.4-0.6-0.8-0.8-1.1l0,0v8.1H176.9z M183.9,362.5
			c0.9,0,1.6-0.2,2.2-0.7s1-1.1,1.3-1.9c0.3-0.8,0.4-1.7,0.4-2.7s-0.1-1.9-0.4-2.7s-0.7-1.4-1.3-1.9s-1.3-0.7-2.2-0.7
			c-0.9,0-1.6,0.2-2.2,0.7c-0.6,0.4-1,1.1-1.3,1.8c-0.3,0.8-0.5,1.7-0.5,2.8s0.2,2,0.5,2.8c0.3,0.8,0.8,1.4,1.3,1.9
			C182.3,362.3,183,362.5,183.9,362.5z"/>
	</g>
</g>
<g>
	<g>
		<path class="st6" d="M142.9,639.3c-1.5,0-2.8-0.2-4-0.7s-2-1.2-2.6-2.1s-1-2-1-3.2h3.1c0.1,0.7,0.3,1.3,0.7,1.8s1,0.8,1.6,1.1
			c0.7,0.2,1.4,0.4,2.2,0.4c0.9,0,1.6-0.1,2.3-0.4s1.2-0.7,1.6-1.1c0.4-0.5,0.6-1.1,0.6-1.7c0-0.6-0.2-1.1-0.5-1.5
			c-0.3-0.4-0.8-0.7-1.4-0.9c-0.6-0.3-1.2-0.5-2-0.7l-2.4-0.7c-1.7-0.4-3-1.1-3.9-2c-0.9-0.9-1.4-2-1.4-3.4c0-1.2,0.3-2.2,1-3.1
			c0.6-0.9,1.5-1.6,2.6-2.1s2.3-0.7,3.7-0.7s2.6,0.2,3.7,0.7c1.1,0.5,1.9,1.2,2.5,2c0.6,0.8,0.9,1.8,1,2.9h-3
			c-0.1-0.9-0.5-1.6-1.3-2.2c-0.8-0.5-1.7-0.8-2.9-0.8c-0.8,0-1.5,0.1-2.1,0.4c-0.6,0.3-1.1,0.6-1.4,1.1s-0.5,1-0.5,1.5
			c0,0.6,0.2,1.2,0.6,1.6c0.4,0.4,0.9,0.7,1.4,0.9s1.1,0.4,1.6,0.6l2,0.5c0.6,0.2,1.3,0.4,2,0.7s1.3,0.6,1.9,1.1
			c0.6,0.4,1.1,1,1.4,1.6c0.4,0.7,0.5,1.4,0.5,2.4c0,1.1-0.3,2.2-0.9,3.1c-0.6,0.9-1.5,1.6-2.6,2.1S144.5,639.3,142.9,639.3z"/>
	</g>
	<g>
		<path class="st6" d="M160.5,623.7v2.4h-8.3v-2.4H160.5z M154.4,620h3v14.8c0,0.6,0.1,1.1,0.4,1.3c0.3,0.2,0.7,0.4,1.3,0.4
			c0.2,0,0.4,0,0.6-0.1c0.3,0,0.5-0.1,0.7-0.1l0.5,2.4c-0.3,0.1-0.7,0.2-1,0.2c-0.4,0-0.7,0.1-1.1,0.1c-1.4,0-2.5-0.4-3.2-1.1
			c-0.8-0.7-1.1-1.7-1.1-3V620H154.4z"/>
	</g>
	<g>
		<path class="st6" d="M169.8,639.3c-1.5,0-2.8-0.3-3.9-1c-1.1-0.6-1.9-1.6-2.5-2.7c-0.6-1.1-0.9-2.6-0.9-4.2c0-1.6,0.3-2.9,0.9-4.1
			c0.6-1.2,1.4-2.1,2.5-2.8s2.3-1,3.7-1c0.9,0,1.7,0.1,2.5,0.4c0.8,0.3,1.5,0.7,2.2,1.3c0.6,0.6,1.2,1.4,1.5,2.4s0.6,2.1,0.6,3.5
			v1.1h-12.2V630h10.6l-1.4,0.7c0-0.9-0.1-1.8-0.4-2.5c-0.3-0.7-0.7-1.3-1.3-1.7s-1.3-0.6-2.1-0.6s-1.6,0.2-2.2,0.6s-1.1,1-1.4,1.6
			c-0.3,0.6-0.5,1.5-0.5,2.3v1.5c0,1,0.2,1.9,0.5,2.7s0.9,1.3,1.5,1.6s1.4,0.6,2.3,0.6c0.6,0,1.1-0.1,1.5-0.2
			c0.5-0.2,0.8-0.4,1.2-0.7c0.3-0.3,0.6-0.7,0.8-1.2l2.8,0.7c-0.2,0.8-0.7,1.5-1.2,2.1s-1.3,1.1-2.2,1.4
			C171.8,639.2,170.9,639.3,169.8,639.3z"/>
	</g>
	<g>
		<path class="st6" d="M179.6,644.7v-21h2.9v2.5h0.2c0.2-0.3,0.4-0.7,0.8-1.1c0.3-0.4,0.8-0.8,1.4-1.1s1.3-0.5,2.3-0.5
			c1.2,0,2.3,0.3,3.3,0.9c1,0.6,1.7,1.5,2.3,2.7c0.6,1.2,0.8,2.6,0.8,4.3c0,1.6-0.3,3.1-0.8,4.2c-0.5,1.2-1.3,2.1-2.3,2.7
			c-1,0.6-2.1,1-3.3,1c-0.9,0-1.7-0.2-2.3-0.5s-1-0.7-1.4-1.1c-0.3-0.4-0.6-0.8-0.8-1.1h-0.2v8.1H179.6z M186.6,636.7
			c0.9,0,1.6-0.2,2.2-0.7c0.6-0.5,1-1.1,1.3-1.9c0.3-0.8,0.4-1.7,0.4-2.7s-0.1-1.9-0.4-2.7c-0.3-0.8-0.7-1.4-1.3-1.9
			s-1.3-0.7-2.2-0.7s-1.6,0.2-2.2,0.7c-0.6,0.4-1,1.1-1.3,1.8c-0.3,0.8-0.5,1.7-0.5,2.8c0,1.1,0.2,2,0.5,2.8s0.8,1.4,1.3,1.9
			C185,636.5,185.7,636.7,186.6,636.7z"/>
	</g>
</g>
<g>
	<g>
		<polygon class="st6" points="167.7,123.8 175.5,116 160,116 		"/>
	</g>
</g>
<g>
	<g>
		<polygon class="st6" points="171.2,398 179,390.2 163.4,390.2 		"/>
	</g>
</g>
<g>
	<g>
		<polygon class="st6" points="171.5,668.3 179.2,660.5 163.7,660.5 		"/>
	</g>
</g>
<g>
	<path class="st6" d="M201.3,365.1v-2.2l6.8-7.1c0.7-0.7,1.3-1.4,1.8-2s0.8-1.1,1.1-1.6c0.2-0.5,0.4-1.1,0.4-1.7
		c0-0.7-0.2-1.3-0.5-1.7s-0.7-0.9-1.3-1.1c-0.5-0.3-1.1-0.4-1.8-0.4c-0.7,0-1.3,0.1-1.9,0.4c-0.5,0.3-0.9,0.7-1.2,1.2
		c-0.3,0.5-0.4,1.2-0.4,1.9h-3c0-1.2,0.3-2.3,0.9-3.2c0.6-0.9,1.3-1.6,2.3-2.1c1-0.5,2.1-0.8,3.4-0.8c1.3,0,2.4,0.3,3.4,0.8
		c1,0.5,1.7,1.2,2.3,2s0.8,1.8,0.8,2.9c0,0.7-0.1,1.5-0.4,2.2c-0.3,0.7-0.8,1.5-1.4,2.4c-0.7,0.9-1.7,2-2.9,3.2l-3.9,4.1v0.2h9v2.6
		H201.3z"/>
</g>
<g>
	<path class="st6" d="M208,639.6c-1.4,0-2.6-0.2-3.6-0.7c-1.1-0.5-1.9-1.1-2.5-1.9c-0.6-0.8-0.9-1.8-1-2.9h3.1
		c0,0.6,0.2,1.1,0.6,1.5c0.4,0.4,0.8,0.8,1.4,1s1.2,0.4,2,0.4c0.8,0,1.5-0.1,2.1-0.4s1.1-0.7,1.4-1.1c0.3-0.5,0.5-1.1,0.5-1.7
		c0-0.7-0.2-1.3-0.5-1.8c-0.3-0.5-0.8-0.9-1.5-1.2c-0.6-0.3-1.4-0.4-2.4-0.4h-1.7v-2.5h1.7c0.7,0,1.4-0.1,2-0.4s1-0.6,1.3-1.1
		c0.3-0.5,0.5-1,0.5-1.7c0-0.6-0.1-1.2-0.4-1.6c-0.3-0.5-0.7-0.8-1.2-1.1s-1.1-0.4-1.8-0.4c-0.6,0-1.3,0.1-1.8,0.4
		c-0.6,0.2-1,0.6-1.4,1s-0.5,1-0.6,1.6h-3c0-1.1,0.4-2.1,1-2.9c0.6-0.8,1.4-1.5,2.4-1.9c1-0.5,2.1-0.7,3.4-0.7
		c1.3,0,2.4,0.3,3.4,0.8s1.7,1.2,2.2,2c0.5,0.8,0.8,1.7,0.8,2.7c0,1.1-0.3,2.1-0.9,2.9c-0.6,0.8-1.5,1.3-2.5,1.6v0.1
		c0.9,0.1,1.7,0.4,2.3,0.9c0.6,0.4,1.1,1,1.4,1.7c0.3,0.7,0.5,1.4,0.5,2.3c0,1.1-0.3,2.1-0.9,3c-0.6,0.9-1.5,1.6-2.5,2.1
		C210.6,639.3,209.4,639.6,208,639.6z"/>
</g>
<g>
	<g>
		<path class="st7" d="M1227.5,568.8H1099c-12,0-21.6-9.6-21.6-21.6V418.7c0-12,9.6-21.6,21.6-21.6h128.5c12,0,21.6,9.6,21.6,21.6
			v128.5C1249.1,559.2,1239.5,568.8,1227.5,568.8z"/>
	</g>
	<g>
		<g id="XMLID_00000065064577132469575540000011870335141811109763_">
			<g>
				<g>
					<g>
						<g>
							<g>
								<polygon class="st2" points="836.8,495.8 920.3,564.2 836.8,435.2 								"/>
							</g>
						</g>
						<g>
							<g>
								<polygon class="st2" points="1003.9,495.8 1003.9,435.2 920.3,564.2 								"/>
							</g>
						</g>
					</g>
				</g>
			</g>
		</g>
	</g>
	<g class="st8">
		<g>
			<g>
				<polygon class="st9" points="836.2,552.6 836.2,449.8 762.6,400.9 762.6,439 				"/>
			</g>
		</g>
	</g>
	<g class="st8">
		<g>
			<g>
				<polygon class="st9" points="1003.9,410.7 1003.9,513.5 1077.4,562.4 1077.4,524.3 				"/>
			</g>
		</g>
	</g>
	<g class="st8">
		<g>
			<g>
				<polygon class="st9" points="847.4,562.6 950.3,562.6 999.1,636 961.1,636 				"/>
			</g>
		</g>
	</g>
	<g class="st8">
		<g>
			<g>
				<polygon class="st9" points="995.4,397.4 892.6,397.4 843.6,323.7 881.8,323.7 				"/>
			</g>
		</g>
	</g>
	<g class="st8">
		<g>
			<g>
				<path class="st10" d="M1077.2,637.5H761.8V322.1h315.4V637.5z M763.4,635.9h312.2V323.7H763.4V635.9z"/>
			</g>
		</g>
	</g>
	<g class="st8">
		<g>
			<g>
				<path class="st10" d="M1003,563.3H836v-167h167.1v167H1003z M837.5,561.8h163.9V397.9H837.5V561.8z"/>
			</g>
		</g>
	</g>
	<g>
		<g>
			<g>
				<g>
					<path class="st2" d="M1168.1,437.2c-0.6,8.9-2.5,18.6-5.6,28c-0.3,0.7-0.1,1.8,0.1,2.3c4.2,7.4,9.5,14.2,15.3,20.5
						c1.2,1.2,2.2,1.6,3.9,1.3c8.9-1.5,18-2,27-0.6c4.7,0.7,9.1,2,12.4,5.4c5.3,5.1,3.5,13.7-3.2,16.5c-4.4,1.8-8.8,1.6-13.3,0.7
						c-9.9-1.8-18.4-6.6-26.1-12.9c-0.9-0.7-1.6-0.9-2.6-0.7c-9.9,2.2-19.9,4.5-29.4,7.9c-0.7,0.3-1.6,1-2,1.8
						c-5,8.3-10.2,16.4-16.9,23.4c-3.8,3.8-7.9,7.3-13,8.9c-4.5,1.5-9.1,1.5-13.3-1.3c-4.2-2.9-5.7-7.2-3.5-11.8
						c1.3-2.8,3.2-5.3,5.4-7.3c6.3-6,13.9-9.8,21.8-13.3c0.9-0.4,1.8-1,2.8-1.2c3.5-0.9,5.3-3.2,6.9-6.3c5.7-10.8,9.8-22.3,14-33.7
						c0.9-2.3,0.9-4.2-0.1-6.4c-3.4-8-5.7-16.4-5.6-25.1c0-2.8,0.6-5.6,1.3-8.2c1.2-4.2,4.1-7,8.5-7.6c4.2-0.6,7.9,0.9,10.8,4.2
						C1166.5,425.1,1168.1,430.2,1168.1,437.2z M1184.7,495.4c0.1,0.3,0.1,0.4,0.1,0.4c0.3,0.3,0.6,0.6,1,0.7
						c5.3,3.8,11,6.9,17.2,8.2c1.8,0.4,3.8,0.3,5.6,0c2.8-0.6,3.9-2.3,3.9-4.8c0-2.2-1.2-3.8-3.9-4.4c-2.8-0.6-5.7-0.9-8.5-1
						C1194.9,494.2,1189.8,494.5,1184.7,495.4z M1128.3,511.4c-1.2,0.6-2.5,1.2-3.7,1.8c-5.7,2.9-11.4,5.8-16.2,10.4
						c-1.6,1.5-2.9,3.5-4.1,5.4c-0.7,1.2-0.7,2.6,0.4,3.7c1.2,1,2.6,1.2,3.9,0.6c1.6-0.9,3.4-1.8,4.7-2.9
						C1119.7,525.2,1124.2,518.5,1128.3,511.4z M1153.8,453c0.3,0,0.4,0,0.7-0.1c0.1-0.3,0.3-0.6,0.3-1c1.9-6.6,3.2-13.3,3.5-20.2
						c0.1-1.6,0-3.2-0.3-4.8c-0.3-1.6-1.2-2.9-2.9-3.2c-1.6-0.3-3.2,0.9-3.9,2.5c-0.3,0.6-0.6,1.2-0.6,1.8c0,3.8-0.4,7.7,0.1,11.4
						C1151.1,444.1,1152.7,448.5,1153.8,453z M1159.2,476.8c-2.8,6.4-5.6,12.9-8.3,19.4c6.4-1.8,12.9-3.4,19.1-5.1
						C1166.5,486.3,1162.8,481.5,1159.2,476.8z"/>
				</g>
			</g>
		</g>
	</g>
	<g>
		<g>
			<polygon class="st3" points="929.7,446.3 911,446.3 836.8,397.1 836.8,435.2 920.3,564.2 1003.9,435.2 1003.9,397.1 			"/>
		</g>
	</g>
	<g>
		<g>
			<g>
				<g>
					<path class="st11" d="M604.1,440.6c10.1-20.2,25.7-34.5,46.9-41.8c29.9-10.4,57.7-5.7,82.7,14.3c2.5,2,2.5,3.2,0.1,5.4
						c-6.6,6.1-12.9,12.6-19.1,19c-1.6,1.6-2.5,1.6-4.2,0.1C685,416.8,646,427,633.3,457.8c-0.6,1.3-1.2,2.5-1.8,3.8
						C622.5,454.8,613.3,447.6,604.1,440.6z"/>
				</g>
			</g>
			<g>
				<g>
					<path class="st12" d="M631.7,495.2c4.2,10.7,10.5,19.9,20.2,26.1c17.4,11.4,35.3,11.4,53.8,2.5c1.3-0.6,2.6-1.3,3.9-2
						c8.3,7.4,17.4,14,26.3,20.7c-9.3,9.3-20.9,15-33.6,18c-25.6,6-49.5,2.5-71.3-12.6c-11.7-8.2-20.9-18.6-27.2-31.6
						C613.3,509.4,622.5,502.2,631.7,495.2z"/>
				</g>
			</g>
			<g>
				<g>
					<path class="st13" d="M735.8,542.6c-8.9-6.7-18-13.3-26.3-20.7c5-4.5,9.9-8.9,12.7-15.2c1-2.5,2-5,2.9-7.4
						c0.9-2.5,0-3.5-2.8-3.5c-12.7,0.1-25.4,0-38.3,0c-4.4,0-4.4,0-4.4-4.5c0-8.5,0.1-17.1,0-25.6c0-2.5,0.7-3.2,3.2-3.1
						c24.4,0.1,48.8,0.1,73.3,0c2.3,0,3.5,0.6,3.8,3.1c3.7,28.5-1.8,54.2-22.2,75.4C737.1,541.5,736.6,542.1,735.8,542.6z"/>
				</g>
			</g>
			<g>
				<g>
					<path class="st14" d="M631.7,495.2c-9.2,7-18.4,14.2-27.6,21.2c-12.4-25.3-12.4-50.5,0-75.8c9.2,7,18.4,14.2,27.6,21.2
						C628.3,472.9,628.3,484.1,631.7,495.2z"/>
				</g>
			</g>
		</g>
	</g>
	<g>
		<g>
			<path class="st6" d="M882.5,259.9c-1.5,0-2.8-0.2-4-0.7s-2-1.2-2.6-2.1s-1-2-1-3.2h3.1c0.1,0.7,0.3,1.3,0.7,1.8s1,0.8,1.6,1.1
				c0.7,0.2,1.4,0.4,2.2,0.4c0.9,0,1.6-0.1,2.3-0.4c0.7-0.3,1.2-0.7,1.6-1.1c0.4-0.5,0.6-1.1,0.6-1.7c0-0.6-0.2-1.1-0.5-1.5
				c-0.3-0.4-0.8-0.7-1.4-0.9c-0.6-0.3-1.2-0.5-2-0.7l-2.4-0.7c-1.7-0.4-3-1.1-3.9-2c-0.9-0.9-1.4-2-1.4-3.4c0-1.2,0.3-2.2,1-3.1
				c0.6-0.9,1.5-1.6,2.6-2.1s2.3-0.7,3.7-0.7s2.6,0.2,3.7,0.7c1.1,0.5,1.9,1.2,2.5,2s0.9,1.8,1,2.9h-3c-0.1-0.9-0.5-1.6-1.3-2.2
				c-0.8-0.5-1.7-0.8-2.9-0.8c-0.8,0-1.5,0.1-2.1,0.4s-1.1,0.6-1.4,1.1s-0.5,1-0.5,1.5c0,0.6,0.2,1.2,0.6,1.6
				c0.4,0.4,0.9,0.7,1.4,0.9c0.5,0.2,1.1,0.4,1.6,0.6l2,0.5c0.6,0.2,1.3,0.4,2,0.7c0.7,0.3,1.3,0.6,1.9,1.1c0.6,0.4,1.1,1,1.4,1.6
				c0.4,0.7,0.5,1.4,0.5,2.4c0,1.1-0.3,2.2-0.9,3.1c-0.6,0.9-1.5,1.6-2.6,2.1S884.1,259.9,882.5,259.9z"/>
		</g>
		<g>
			<path class="st6" d="M900.1,244.3v2.4h-8.3v-2.4H900.1z M894,240.6h3v14.8c0,0.6,0.1,1.1,0.4,1.3s0.7,0.4,1.3,0.4
				c0.2,0,0.4,0,0.6-0.1c0.3,0,0.5-0.1,0.7-0.1l0.5,2.4c-0.3,0.1-0.7,0.2-1,0.2c-0.4,0-0.7,0.1-1.1,0.1c-1.4,0-2.5-0.4-3.2-1.1
				c-0.8-0.7-1.1-1.7-1.1-3v-14.9H894z"/>
		</g>
		<g>
			<path class="st6" d="M909.4,259.9c-1.5,0-2.8-0.3-3.9-1c-1.1-0.6-1.9-1.6-2.5-2.7s-0.9-2.6-0.9-4.2c0-1.6,0.3-2.9,0.9-4.1
				c0.6-1.2,1.4-2.1,2.5-2.8c1.1-0.7,2.3-1,3.7-1c0.9,0,1.7,0.1,2.5,0.4s1.5,0.7,2.2,1.3c0.6,0.6,1.2,1.4,1.5,2.4s0.6,2.1,0.6,3.5
				v1.1h-12.2v-2.2h10.6l-1.4,0.7c0-0.9-0.1-1.8-0.4-2.5c-0.3-0.7-0.7-1.3-1.3-1.7s-1.3-0.6-2.1-0.6s-1.6,0.2-2.2,0.6
				c-0.6,0.4-1.1,1-1.4,1.6c-0.3,0.6-0.5,1.5-0.5,2.3v1.5c0,1,0.2,1.9,0.5,2.7c0.3,0.8,0.9,1.3,1.5,1.6c0.6,0.3,1.4,0.6,2.3,0.6
				c0.6,0,1.1-0.1,1.5-0.2c0.5-0.2,0.8-0.4,1.2-0.7c0.3-0.3,0.6-0.7,0.8-1.2l2.8,0.7c-0.2,0.8-0.7,1.5-1.2,2.1s-1.3,1.1-2.2,1.4
				C911.4,259.8,910.5,259.9,909.4,259.9z"/>
		</g>
		<g>
			<path class="st6" d="M919.2,265.3v-21h2.9v2.5h0.2c0.2-0.3,0.4-0.7,0.8-1.1c0.3-0.4,0.8-0.8,1.4-1.1c0.6-0.3,1.3-0.5,2.3-0.5
				c1.2,0,2.3,0.3,3.3,0.9c1,0.6,1.7,1.5,2.3,2.7s0.8,2.6,0.8,4.3c0,1.6-0.3,3.1-0.8,4.2c-0.5,1.2-1.3,2.1-2.3,2.7
				c-1,0.6-2.1,1-3.3,1c-0.9,0-1.7-0.2-2.3-0.5c-0.6-0.3-1-0.7-1.4-1.1c-0.3-0.4-0.6-0.8-0.8-1.1h-0.2v8.1H919.2z M926.2,257.3
				c0.9,0,1.6-0.2,2.2-0.7c0.6-0.5,1-1.1,1.3-1.9s0.4-1.7,0.4-2.7s-0.1-1.9-0.4-2.7c-0.3-0.8-0.7-1.4-1.3-1.9s-1.3-0.7-2.2-0.7
				s-1.6,0.2-2.2,0.7c-0.6,0.4-1,1.1-1.3,1.8c-0.3,0.8-0.5,1.7-0.5,2.8s0.2,2,0.5,2.8s0.8,1.4,1.3,1.9
				C924.6,257.1,925.3,257.3,926.2,257.3z"/>
		</g>
	</g>
	<g>
		<g>
			<polygon class="st6" points="911.1,286.4 918.8,278.6 903.3,278.6 			"/>
		</g>
	</g>
	<g>
		<g>
			<path class="st6" d="M940.5,256v-2.5l8.7-13.7h2v3.7h-1.3l-6.2,9.8v0.2h11.9v2.6H940.5z M950,259.9v-4.7l0-1.1v-14.3h2.9v20.1
				H950z"/>
		</g>
	</g>
</g>
</svg>
