<?xml version="1.0" encoding="utf-8"?>
<!-- Generator: Adobe Illustrator 27.9.1, SVG Export Plug-In . SVG Version: 6.00 Build 0)  -->
<svg version="1.1" id="Layer_1" xmlns="http://www.w3.org/2000/svg" xmlns:xlink="http://www.w3.org/1999/xlink" x="0px" y="0px"
	 viewBox="0 0 1080 1080" style="enable-background:new 0 0 1080 1080;" xml:space="preserve">
<style type="text/css">
	.st0{fill:#FFFFFF;}
	.st1{fill:#0D0D0D;}
	.st2{fill:#CD2328;}
	.st3{fill:#8E192F;}
	.st4{fill:#B62225;}
	.st5{fill:#E93B48;}
	.st6{fill:#EC626C;}
	.st7{fill:#EA5661;}
	.st8{fill:#B31F36;}
	.st9{fill:#8B6271;}
	.st10{fill:#F8F6F1;}
	.st11{fill:#606161;}
	.st12{opacity:0.15;}
	.st13{fill:#6D1628;}
	.st14{fill:#F26866;}
	.st15{fill:#232121;}
	.st16{fill:#CFDCDC;}
	.st17{fill:#0E0E0E;}
	.st18{fill:#F4ECE5;}
	.st19{fill:#CB832A;}
	.st20{fill:#FFCD05;}
	.st21{fill:#911F36;}
	.st22{fill:#F9F8F2;}
	.st23{fill:none;}
	.st24{fill:#54121D;}
	.st25{fill:#4A77A8;}
	.st26{fill:#84827E;}
	.st27{fill:#6B6B6B;}
	.st28{fill:#65A042;}
	.st29{fill:#B8CACD;}
</style>
<rect class="st0" width="1080" height="1080"/>
<g>
	<g>
		<g>
			<path class="st1" d="M801.7,548.9c-67.7,0-97.3-38.1-99.1-40.5l27.6-20.5l-0.1-0.2c2.2,2.7,53.9,65.5,194.8-10.9
				c8.3-4.6,18.8-1.4,23.4,6.9c4.6,8.3,1.4,18.8-6.9,23.4C883.2,538.4,837.2,548.9,801.7,548.9z"/>
		</g>
	</g>
	<g>
		<g>
			<g>
				<path class="st2" d="M895.1,381.3c-0.2,0.1-0.4,0.4-0.7,0.7c-0.4,0.1-1,0.3-1.4,0.4c0.4-0.1,1-0.3,1.4-0.4
					C894.7,381.7,894.9,381.4,895.1,381.3z"/>
			</g>
		</g>
		<g>
			<g>
				<path class="st2" d="M891.8,382.5c0.2-0.2,0.4-0.2,0.5-0.2C892.3,382.2,892,382.2,891.8,382.5c-0.8,0.3-1.6,0.5-2.4,0.9
					c-0.1,0-0.2,0.1-0.3,0.1c0.1,0,0.2-0.1,0.3-0.1C890.3,383,891.1,382.7,891.8,382.5z"/>
			</g>
		</g>
		<g>
			<g>
				<path class="st2" d="M907.9,393.1c-0.1-0.3-0.2-0.9-0.4-1.2c-1.2-3.2-1.9-6.4-3.4-9.5c1.5,2.9,2.2,6.3,3.4,9.5
					C907.7,392.2,907.7,392.6,907.9,393.1z"/>
			</g>
		</g>
		<g>
			<g>
				<path class="st2" d="M901.5,380.2c-0.7-0.2-1.3-0.3-2.1-0.2C900.2,379.8,900.9,379.9,901.5,380.2z"/>
			</g>
		</g>
		<g>
			<g>
				<path class="st2" d="M892,460.1c0.8-0.2,1.6-0.5,2.4-0.8c3.6-1.2,7.2-2.4,10.9-3.6c-3.6,1.2-7.2,2.4-10.9,3.6
					C893.7,459.6,892.8,459.8,892,460.1z"/>
			</g>
		</g>
		<g>
			<g>
				<path class="st2" d="M876.5,390.3c-0.1,0.2-0.1,0.4,0,0.7C876.4,390.8,876.4,390.5,876.5,390.3z"/>
			</g>
		</g>
		<g>
			<g>
				<path class="st2" d="M879.3,386.9c-0.1,0-0.2,0.1-0.2,0.1c-0.4,0.1-0.8,0.2-1.1,0.4c0.3-0.2,0.7-0.3,1.1-0.4
					C879.1,386.9,879.1,386.9,879.3,386.9z"/>
			</g>
		</g>
		<g>
			<g>
				<path class="st2" d="M876.6,390.2L876.6,390.2c0.1,0.2,0.1,0.4,0.2,0.7C876.7,390.7,876.6,390.4,876.6,390.2z"/>
			</g>
		</g>
		<g>
			<g>
				<path class="st2" d="M882.6,407.1c0,0.1,0.1,0.2,0.1,0.4l0,0C882.8,407.4,882.6,407.3,882.6,407.1L882.6,407.1z"/>
			</g>
		</g>
		<g>
			<g>
				<path class="st2" d="M895.9,381.4L895.9,381.4c1.3-0.9,2.6-1.3,3.7-1.4C898.4,380.1,897.2,380.5,895.9,381.4z"/>
			</g>
		</g>
		<g>
			<g>
				<path class="st2" d="M909.2,400.6c0.8,1.6,1.7,3.2,2.9,4.6C910.9,403.8,909.8,402.3,909.2,400.6z"/>
			</g>
		</g>
		<g>
			<g>
				<path class="st2" d="M876.9,389.1c0-0.1,0-0.1,0.1-0.2C876.9,389,876.9,389.1,876.9,389.1z"/>
			</g>
		</g>
		<g>
			<g>
				<path class="st2" d="M912,405.2c0.8,1,1.5,1.9,2.4,2.7C913.7,407,912.8,406.1,912,405.2z"/>
			</g>
		</g>
		<g>
			<g>
				<path class="st2" d="M882.8,427.9c0.1-2.1,0.3-4.3,0.4-6.3C883.2,423.6,883,425.7,882.8,427.9z"/>
			</g>
		</g>
		<g>
			<g>
				<path class="st2" d="M905.4,455.6c2.1-0.7,4.2-1.4,6.3-2.1c5.6-1.9,11.3-3.6,16.8-5.5c-5.6,1.9-11.3,3.6-16.8,5.5
					C909.5,454.2,907.4,455,905.4,455.6z"/>
			</g>
		</g>
		<g>
			<g>
				<path class="st2" d="M938.2,437.5c-0.2-0.5-0.4-1-0.8-1.5c-0.9-1.4-1.9-2.8-2.8-4.2c1,1.3,2,2.7,2.8,4.2
					C937.8,436.5,938,437.1,938.2,437.5z"/>
			</g>
		</g>
		<g>
			<g>
				<path class="st2" d="M911,396.1c0-0.1,0.1-0.2,0-0.4C911,395.9,911,396,911,396.1L911,396.1z"/>
			</g>
		</g>
		<g>
			<g>
				<path class="st2" d="M918.8,413c-0.7-0.8-1.3-1.6-2-2.4c-0.8-1-1.5-1.9-2.3-2.7c0.8,0.9,1.6,1.9,2.3,2.7
					C917.5,411.4,918.1,412.3,918.8,413z"/>
			</g>
		</g>
		<g>
			<g>
				<path class="st2" d="M911,395.8c0-0.1-0.1-0.3-0.1-0.4c-0.1-0.3-0.2-0.8-0.3-1.1c0.1,0.3,0.2,0.9,0.3,1.1
					C910.9,395.5,911,395.6,911,395.8z"/>
			</g>
		</g>
		<g>
			<g>
				<path class="st2" d="M940.4,444.4L940.4,444.4c0-0.1-0.1-0.3-0.1-0.4c-0.2-0.7-0.4-1.3-0.7-2.1c0.2,0.7,0.3,1.4,0.7,2.1
					C940.3,444.2,940.4,444.3,940.4,444.4z"/>
			</g>
		</g>
		<g>
			<g>
				<path class="st2" d="M924.8,420.3c2.3,2.5,4.6,5,6.8,7.6C929.4,425.3,927.1,422.8,924.8,420.3c-1.9-2.5-3.9-4.8-6-7.2
					C920.8,415.4,923,417.7,924.8,420.3z"/>
			</g>
		</g>
		<g>
			<g>
				<path class="st2" d="M882.8,407.6c0.3-0.1,0.5-0.2,0.9-0.3C883.4,407.4,883.1,407.5,882.8,407.6
					C882.9,407.6,882.8,407.6,882.8,407.6c0.3,1.3,1.1,2.5,1,3.9c-0.2,3.4-0.3,6.7-0.4,10c0.1-3.4,0.3-6.7,0.4-10
					C883.8,410,883.1,408.9,882.8,407.6z"/>
			</g>
		</g>
		<g>
			<g>
				<path class="st2" d="M940.9,446.3c0,0.2,0.1,0.5,0.1,0.8c-3.7,1.2-7.5,2.4-11.3,3.6c3.7-1.2,7.5-2.4,11.3-3.6
					C941,446.8,940.9,446.5,940.9,446.3z"/>
			</g>
		</g>
		<g>
			<g>
				<path class="st2" d="M940.5,444.7c0-0.1-0.1-0.2-0.1-0.3l0,0C940.5,444.5,940.5,444.6,940.5,444.7z"/>
			</g>
		</g>
		<g>
			<g>
				<path class="st2" d="M885.5,385.2L885.5,385.2c0.8,2.5,1.6,5,2.5,7.5C887.1,390.2,886.2,387.7,885.5,385.2z"/>
			</g>
		</g>
		<g>
			<g>
				<path class="st2" d="M885.5,385.2L885.5,385.2L885.5,385.2c0.8,2.5,1.6,5,2.5,7.5C887.1,390.2,886.2,387.7,885.5,385.2z"/>
			</g>
		</g>
		<g>
			<g>
				<path class="st2" d="M904.5,389.1c-2,0.7-3.9,1.3-5.9,2c0,0.1,0.1,0.1,0.1,0.2c0-0.1-0.1-0.1-0.1-0.2c2.5-0.8,4.9-1.6,7.4-2.4
					l0,0C905.6,388.8,905,389,904.5,389.1z"/>
			</g>
		</g>
		<g>
			<g>
				<path class="st2" d="M906,388.7c0,0.1,0.1,0.2,0.1,0.2c0.4,1.3,0.9,2.6,1.4,3.8C907,391.4,906.6,390,906,388.7z"/>
			</g>
		</g>
		<g>
			<g>
				<path class="st2" d="M905.9,388.3C905.9,388.3,905.9,388.1,905.9,388.3c-0.7-2.1-1.2-3.9-1.9-5.9
					C904.7,384.3,905.3,386.2,905.9,388.3C905.9,388.1,905.9,388.3,905.9,388.3z"/>
			</g>
		</g>
		<g>
			<g>
				<path class="st2" d="M895,403.5c1.2-0.4,2.3-0.8,3.5-1.2C897.3,402.8,896.2,403.2,895,403.5L895,403.5L895,403.5z"/>
			</g>
		</g>
		<g>
			<g>
				<path class="st2" d="M887.2,435c0,0.7,0,1.4-0.1,2.1c0.1-1.4,0.1-2.7,0.1-4.2l0,0C887.2,433.6,887.2,434.3,887.2,435z"/>
			</g>
		</g>
		<g>
			<g>
				<path class="st2" d="M887.2,432.9c0,0.7-0.1,1.4-0.1,2.1C887.2,434.3,887.2,433.6,887.2,432.9L887.2,432.9z"/>
			</g>
		</g>
		<g>
			<g>
				<path class="st2" d="M896.1,383.3c-0.2,0.1-0.4,0.1-0.7,0.2h0.1C895.6,383.4,895.9,383.4,896.1,383.3L896.1,383.3z"/>
			</g>
		</g>
		<g>
			<g>
				<path class="st2" d="M896.4,384.3c0,0.1,0.1,0.2,0.1,0.2c-0.1-0.2-0.2-0.4-0.2-0.7C896.3,384,896.3,384.2,896.4,384.3z"/>
			</g>
		</g>
		<g>
			<g>
				<path class="st2" d="M895.5,383.6c0.2,0,0.3-0.1,0.5-0.1l0,0C895.9,383.4,895.8,383.4,895.5,383.6z"/>
			</g>
		</g>
		<g>
			<g>
				<path class="st2" d="M894,385.4c-0.3-0.7-0.7-1.2-1-1.9c-0.1-0.2-0.1-0.4-0.2-0.7c0.1,0.2,0.1,0.4,0.2,0.7
					C893.3,384.1,893.7,384.8,894,385.4z"/>
			</g>
		</g>
		<g>
			<g>
				<path class="st3" d="M921.2,453.9c-2.8,1-5.7,1.9-8.5,2.8c3.2,9.4,6.2,18.9,9.4,28.3c-3.2-9.4-6.2-18.9-9.4-28.3
					C915.5,455.9,918.4,454.9,921.2,453.9z"/>
			</g>
		</g>
		<g>
			<g>
				<path class="st3" d="M922.1,485.1c5.6-1.9,11.3-3.6,16.8-5.5l0,0C933.3,481.4,927.8,483.3,922.1,485.1z"/>
			</g>
		</g>
		<g>
			<g>
				<path class="st3" d="M939.2,479.4c-2.6-5.7-4.8-11.7-6.7-17.7c-0.9-2.8-1.5-5.7-2.3-8.5c-0.7,0.2-1.3,0.1-1.9-0.2
					c-0.4-0.2-0.8-0.7-1.1-1.1c-2.1,0.7-4,1.3-6.1,2.1c-2.8,1-5.7,1.9-8.5,2.8c3.2,9.4,6.2,18.9,9.4,28.3c5.6-1.9,11.3-3.6,16.8-5.5
					l0,0l0,0C939,479.6,939.1,479.5,939.2,479.4z"/>
			</g>
		</g>
		<g>
			<g>
				<path class="st3" d="M912.7,456.7c3.2,9.4,6.2,18.9,9.4,28.3C919,475.6,915.8,466.2,912.7,456.7L912.7,456.7z"/>
			</g>
		</g>
		<g>
			<g>
				<path class="st3" d="M927.3,451.9c0.2,0.4,0.5,0.9,1.1,1.1c0.5,0.3,1.2,0.3,1.9,0.2c-0.2-0.7-0.3-1.4-0.5-2.1
					C929,451.4,928.2,451.6,927.3,451.9z"/>
			</g>
		</g>
		<g>
			<g>
				<path class="st4" d="M942.2,451.3c-0.2-0.5-0.3-1.1-0.5-1.7l0,0C941.8,450.2,942.1,450.7,942.2,451.3z"/>
			</g>
		</g>
		<g>
			<g>
				<path class="st4" d="M930.5,453.1L930.5,453.1c0.6,2.8,1.3,5.7,2.2,8.5c1.9,6,4,11.9,6.7,17.7c3.4-1.1,6.9-2.3,10.3-3.3
					c1.3-0.4,0.7-1.1,0.5-1.7c-1.4-3.1-2.7-6.2-3.9-9.4c-1.2-3.2-2.2-6.3-2.9-9.7c-0.3-1.3-0.7-2.6-1.1-4c-0.2-0.5-0.3-1.1-0.5-1.7
					C940.5,450,930.5,453.1,930.5,453.1z"/>
			</g>
		</g>
		<g>
			<g>
				<path class="st4" d="M941,447.3L941,447.3c0.2,0.8,0.4,1.5,0.7,2.3l0,0C941.4,448.8,941.2,448.1,941,447.3L941,447.3z"/>
			</g>
		</g>
		<g>
			<g>
				<path class="st4" d="M930.3,453.2L930.3,453.2c0.1,0,10.3-3.3,11.4-3.6c-0.2-0.8-0.4-1.5-0.7-2.3l0,0c-3.7,1.3-7.4,2.5-11.3,3.8
					C929.9,451.8,930.2,452.5,930.3,453.2z"/>
			</g>
		</g>
		<g>
			<g>
				<path class="st5" d="M915.8,487.2c2.1-0.7,4.2-1.4,6.3-2.1C920,485.8,917.9,486.5,915.8,487.2L915.8,487.2z"/>
			</g>
		</g>
		<g>
			<g>
				<path class="st5" d="M912.7,456.7c-1.6,0.5-3.3,1.1-4.9,1.6c-1.2,0.3-1.3,0.9-1,2c0.7,2.3,1.9,4.4,2.6,6.7
					c2.4,6.7,4.3,13.4,6.3,20.2c2.1-0.7,4.2-1.4,6.3-2.1C919,475.6,915.8,466.2,912.7,456.7L912.7,456.7z"/>
			</g>
		</g>
		<g>
			<g>
				<path class="st5" d="M897.8,468.2c-0.3-1-0.7-2-1-2.9c-1.2-2.7-1.2-2.7-4-1.9c-0.7,0.2-1.4,0.4-2.1,0.8c2,4.3,3.6,8.7,5.1,13.1
					c1.7,4.9,2.9,10,4.3,15.2c1.6-0.5,3.3-1.1,4.9-1.6c-0.5-2.2-1.2-4.4-1.7-6.6C901.8,478.8,899.6,473.6,897.8,468.2z"/>
			</g>
		</g>
		<g>
			<g>
				<path class="st5" d="M890.6,464.2L890.6,464.2c0.7-0.2,1.4-0.4,2.1-0.8C892,463.6,891.3,463.9,890.6,464.2z"/>
			</g>
		</g>
		<g>
			<g>
				<path class="st2" d="M896.1,383.3L896.1,383.3c0.1,0.2,0.1,0.3,0.2,0.5C896.2,383.7,896.1,383.6,896.1,383.3z"/>
			</g>
		</g>
		<g>
			<g>
				<path class="st2" d="M904.1,382.4c-0.8-1.1-1.5-1.9-2.5-2.2C902.5,380.5,903.3,381.3,904.1,382.4z"/>
			</g>
		</g>
		<g>
			<g>
				<path class="st2" d="M895.9,381.4c0,0.1,0,0.1,0,0.2c0.1,0.3,0.2,0.5,0.3,0.9c0.1,0.3,0.1,0.5-0.1,0.9l0,0l0,0
					c0.1,0.2,0.1,0.3,0.2,0.5c0.1,0.2,0.2,0.4,0.2,0.7c0,0,0,0.1,0.1,0.1c0.3,0.4,0.7,0.9,0.9,1.3c0.7,1.4,0.9,3.1,1.5,4.5
					c2.3-0.8,4.7-1.6,7-2.4c-0.7-2-1.2-3.9-1.9-5.8c-0.8-1.1-1.5-1.9-2.5-2.2c-0.7-0.2-1.3-0.3-2.1-0.2
					C898.4,380.1,897.2,380.5,895.9,381.4L895.9,381.4L895.9,381.4z M896.2,382.5L896.2,382.5L896.2,382.5z"/>
			</g>
		</g>
		<g>
			<g>
				<path class="st2" d="M886.4,384.2c0.9-0.3,1.9-0.5,2.7-0.9C888.1,383.7,887.2,384,886.4,384.2L886.4,384.2L886.4,384.2z"/>
			</g>
		</g>
		<g>
			<g>
				<path class="st2" d="M886.4,384.2c-0.2,0.3-0.4,0.5-0.5,0.9c0.4,1.1,0.8,2.3,1.2,3.4c0.4,1.2,0.8,2.4,1.1,3.5
					c0.4,1.6,1.2,1.9,2.6,1.2c0.7-0.3,1.3-0.4,1.9-0.7c-1-3.2-2.1-6.2-3.1-9.4c-0.1,0-0.2,0.1-0.3,0.1
					C888.1,383.7,887.2,384,886.4,384.2L886.4,384.2z M887.6,390.3c-0.2-0.5-0.4-1.2-0.5-1.7C887.1,389.1,887.3,389.8,887.6,390.3z"
					/>
			</g>
		</g>
		<g>
			<g>
				<path class="st6" d="M886.4,384.2c-1.9,0.7-3.7,1.2-5.6,1.9C882.5,385.5,884.4,384.9,886.4,384.2L886.4,384.2z"/>
			</g>
		</g>
		<g>
			<g>
				<path class="st6" d="M879.3,387.7c0.8,2.4,1.5,4.7,2.4,7.1c0.2,0.8,0.4,1.4-0.7,1.6l0,0c0,0.2,0.1,0.3,0.1,0.5
					c0.1,0.1,0.1,0.1,0.2,0.2c1.1-0.3,2.2-0.8,3.3-1.1c0.8-0.2,1.5-0.5,2.3-0.8c0-0.2,0-0.5,0-0.8c-0.9-1.5-1.4-3.1-1.9-4.7
					c-0.1-0.5-0.2-1.1-0.4-1.6c-0.2-1.1-0.1-2.2,0.9-2.9l0,0l0,0l0,0l0,0l0,0c0.1,0,0.2-0.1,0.2-0.1l0,0c0.2-0.3,0.4-0.5,0.5-0.9
					c-1.9,0.7-3.7,1.2-5.6,1.9c1.2,0,1.9,0.3,2.1,1.6c0.5,2.1,1.3,4,2,6.1c0.2,0.8,0.2,1.3-0.7,1.5c-0.9,0.3-1.2-0.1-1.4-0.9
					c-0.7-2.2-1.4-4.3-2.2-6.4c-0.2-0.7-0.2-1.4-1.2-1.2c-0.1,0-0.2,0.1-0.2,0.1C879.1,387.3,879.1,387.5,879.3,387.7z"/>
			</g>
		</g>
		<g>
			<g>
				<path class="st6" d="M886.8,395.4c-0.8,0.2-1.5,0.5-2.3,0.8C885.3,395.8,886,395.6,886.8,395.4L886.8,395.4z"/>
			</g>
		</g>
		<g>
			<g>
				<path class="st6" d="M886.4,384.2L886.4,384.2c-0.2,0.3-0.4,0.5-0.5,0.9l0,0l0,0C885.9,384.9,886.1,384.5,886.4,384.2z"/>
			</g>
		</g>
		<g>
			<g>
				<path class="st2" d="M894.1,389.9c-0.9-2.4-2.1-4.8-2.2-7.5c-0.8,0.3-1.6,0.5-2.4,0.9c1,3.2,2.1,6.2,3.1,9.4
					C894.3,392.4,894.7,391.6,894.1,389.9z"/>
			</g>
		</g>
		<g>
			<g>
				<path class="st7" d="M880.2,386.2c-0.4,0.1-0.9,0.1-1,0.7C879.5,386.4,879.8,386.3,880.2,386.2z"/>
			</g>
		</g>
		<g>
			<g>
				<path class="st7" d="M880.6,388.1c0.8,2.2,1.4,4.3,2.2,6.4c0.2,0.8,0.5,1.1,1.4,0.9c0.9-0.3,0.9-0.9,0.7-1.5
					c-0.7-2.1-1.4-4-2-6.1c-0.3-1.2-1-1.6-2.1-1.6c-0.1,0-0.2,0.1-0.4,0.1c-0.4,0.1-0.9,0.1-1,0.7
					C880.3,386.7,880.3,387.5,880.6,388.1z"/>
			</g>
		</g>
		<g>
			<g>
				<path class="st5" d="M906,388.7c-2.5,0.8-4.9,1.6-7.4,2.4c2-0.7,3.9-1.3,5.9-2C905,389,905.6,388.8,906,388.7z"/>
			</g>
		</g>
		<g>
			<g>
				<path class="st5" d="M906,388.7c0-0.1-0.1-0.2-0.1-0.4C905.9,388.4,906,388.5,906,388.7L906,388.7L906,388.7z"/>
			</g>
		</g>
		<g>
			<g>
				<path class="st5" d="M892.5,382.2c0.1,0,0.2,0,0.3,0.1C892.7,382.4,892.6,382.2,892.5,382.2z"/>
			</g>
		</g>
		<g>
			<g>
				<path class="st5" d="M896.1,383.3c0.1,0.4,0.3,0.8,0.4,1.2c0-0.1,0-0.1-0.1-0.2C896.3,384,896.2,383.7,896.1,383.3L896.1,383.3z
					"/>
			</g>
		</g>
		<g>
			<g>
				<path class="st5" d="M906,388.7L906,388.7c-0.5,0.2-1,0.3-1.5,0.5C905,389,905.6,388.8,906,388.7z"/>
			</g>
		</g>
		<g>
			<g>
				<path class="st5" d="M894.1,389.9c0.5,1.7,0.3,2.5-1.5,2.7c-0.7,0.2-1.3,0.4-1.9,0.7c-1.4,0.7-2.2,0.4-2.6-1.2
					c-0.3-1.2-0.8-2.4-1.1-3.5c-0.4-1.1-0.8-2.3-1.2-3.4c-0.1,0-0.2,0.1-0.2,0.1c0.8,2.5,1.6,5,2.5,7.5c0.2,0.8,0.4,1.4-0.7,1.6
					c0.8,0.4,1.4-0.1,2.1-0.3c3.1-1,6.2-2,9.3-3.1c2.5-0.8,4.9-1.6,7.4-2.4c0-0.1-0.1-0.2-0.1-0.4v-0.1c-2.3,0.8-4.7,1.6-7,2.4
					c-1.4-1.6-1.5-3.9-2.3-5.8l0,0c0,0,0-0.1-0.1-0.1c0-0.1-0.1-0.2-0.1-0.2c0,0.1,0,0.1,0.1,0.2c-0.1-0.4-0.3-0.8-0.4-1.2
					c-0.2,0-0.3,0.1-0.5,0.1h-0.1h0.1h-0.1l0,0c0.3,0.9,0.5,1.7,0.9,2.7c0.3,0.9,0.5,1.7,1,2.6c0.2,0.7,0.3,1.1,0.3,1.5
					c0,0.2-0.2,0.4-0.3,0.7c-0.3,0.2-0.8,0.4-1.4,0.4c-0.2,0.1-0.4,0.1-0.7,0c-0.1-0.1-0.2-0.2-0.3-0.5c-0.8-2.4-1.5-4.8-2.4-7.1
					c-0.1-0.4,0-0.9,0.4-1.1c0.1-0.1,0.2-0.3,0.2-0.4c-0.1,0-0.2,0-0.3-0.1c-0.1,0-0.2-0.1-0.3-0.1c-0.2,0-0.4,0-0.5,0.2
					C892,385.1,893.2,387.5,894.1,389.9z"/>
			</g>
		</g>
		<g>
			<g>
				<path class="st5" d="M896.5,384.5c0,0,0,0.1,0.1,0.1l0,0l0,0C896.5,384.6,896.5,384.6,896.5,384.5z"/>
			</g>
		</g>
		<g>
			<g>
				<path class="st5" d="M885.7,385.1L885.7,385.1c0.4,1.1,0.8,2.3,1.2,3.4C886.6,387.4,886.1,386.3,885.7,385.1z"/>
			</g>
		</g>
		<g>
			<g>
				<path class="st5" d="M885.5,385.2L885.5,385.2c0.1,0,0.2-0.1,0.2-0.1C885.6,385.2,885.6,385.2,885.5,385.2z"/>
			</g>
		</g>
		<g>
			<g>
				<path class="st8" d="M876.9,389c0.1-0.4,0.3-0.9,0.7-1.2C877.2,388.1,877,388.6,876.9,389z"/>
			</g>
		</g>
		<g>
			<g>
				<path class="st8" d="M877.2,391.4c-0.1-0.2-0.2-0.3-0.4-0.4l0,0C877,391.1,877.1,391.2,877.2,391.4z"/>
			</g>
		</g>
		<g>
			<g>
				<path class="st8" d="M876.9,390.9c-0.1-0.2-0.1-0.4-0.2-0.7c0-0.3,0.1-0.7,0.2-1c-0.1,0.3-0.1,0.7-0.2,1l0,0l0,0
					C876.6,390.4,876.7,390.7,876.9,390.9z"/>
			</g>
		</g>
		<g>
			<g>
				<path class="st8" d="M876.9,390.9L876.9,390.9c0.1,0.1,0.3,0.3,0.4,0.4c0.1,0.1,0.1,0.2,0.2,0.3c0.1,0.2,0.2,0.3,0.3,0.5
					c0,0.1,0.1,0.1,0.1,0.2c0-0.1-0.1-0.1-0.1-0.2c0.4,1,0.7,2.2,1,3.3c0.4,1.3,1.1,1.6,2.2,1l0,0l0,0c-0.5-1.7-1.1-3.5-1.7-5.2
					c-0.4-1.2-0.5-2.4,0-3.5c-0.1-0.2-0.1-0.4-0.2-0.7c-0.4,0.1-0.8,0.2-1.1,0.4c-0.1,0.1-0.3,0.2-0.4,0.3c-0.3,0.3-0.5,0.8-0.7,1.2
					c0,0.1,0,0.1-0.1,0.2c-0.1,0.3-0.1,0.7-0.2,1C876.6,390.4,876.7,390.7,876.9,390.9z"/>
			</g>
		</g>
		<g>
			<g>
				<path class="st8" d="M876.6,390.2L876.6,390.2c0.1,0.2,0.1,0.4,0.2,0.7C876.7,390.7,876.6,390.4,876.6,390.2z"/>
			</g>
		</g>
		<g>
			<g>
				<path class="st8" d="M876.9,390.9c0.2,0.2,0.4,0.5,0.5,0.8c-0.1-0.1-0.1-0.2-0.2-0.3C877.1,391.2,877,391.1,876.9,390.9
					L876.9,390.9z"/>
			</g>
		</g>
		<g>
			<g>
				<path class="st2" d="M893,383.6c0.3,0.5,0.7,1.2,1,1.9c0.3,0.9,0.7,1.6,0.9,2.5c-0.1-0.2-0.1-0.4-0.2-0.7
					c0.1,0.2,0.1,0.4,0.2,0.7s0.1,0.4,0.2,0.7c0.1,0.2,0.1,0.4,0.2,0.7c0-0.2-0.1-0.4-0.2-0.7c0.2,0.9,0.4,1.7,0.5,2.7
					c0,0.1,0.1,0.2,0.1,0.3c0.7-0.1,1.1-0.2,1.4-0.4c0.2-0.2,0.3-0.4,0.3-0.7c0.1-0.4,0-0.9-0.3-1.5c-0.3-0.9-0.7-1.7-1-2.6
					s-0.5-1.7-0.9-2.7c-0.1-0.2-0.1-0.4-0.2-0.8c-0.2-0.3-0.4-0.5-0.7-0.9c-0.4,0.1-1,0.3-1.4,0.4c-0.1,0.1-0.2,0.3-0.2,0.4
					C892.9,383.1,892.9,383.3,893,383.6z M896.7,387.6c-0.1-0.4-0.3-0.9-0.4-1.3C896.4,386.7,896.5,387.2,896.7,387.6z"/>
			</g>
		</g>
		<g>
			<g>
				<path class="st2" d="M895.8,391.5c0.7-0.1,1.1-0.2,1.4-0.4C896.8,391.3,896.4,391.5,895.8,391.5L895.8,391.5z"/>
			</g>
		</g>
		<g>
			<g>
				<path class="st2" d="M897.5,390.4c0,0.2-0.2,0.4-0.3,0.7C897.4,390.9,897.5,390.7,897.5,390.4z"/>
			</g>
		</g>
		<g>
			<g>
				<path class="st2" d="M896.2,386.3c-0.3-0.9-0.5-1.7-0.9-2.7l0,0l0,0C895.6,384.4,896,385.3,896.2,386.3z"/>
			</g>
		</g>
		<g>
			<g>
				<path class="st9" d="M908.5,398.8L908.5,398.8c0-0.1-0.1-0.2-0.1-0.2l0,0C908.4,398.6,908.5,398.7,908.5,398.8z"/>
			</g>
		</g>
		<g>
			<g>
				<path class="st9" d="M940.2,482.3c-1.5,0.4-2.9,1-4.5,1.4C937.3,483.2,938.8,482.7,940.2,482.3L940.2,482.3z"/>
			</g>
		</g>
		<g>
			<g>
				<path class="st9" d="M922.4,488.3L922.4,488.3c2.9-1.1,5.9-2.2,8.8-3.2C928.3,486.1,925.2,487.1,922.4,488.3z"/>
			</g>
		</g>
		<g>
			<g>
				<path class="st9" d="M940.3,482.5L940.3,482.5L940.3,482.5c0-0.1,0-0.2,0-0.2c-1.5,0.4-2.9,1-4.5,1.4c-1.5,0.4-2.9,1-4.5,1.4
					c-2.9,1-6,2-8.8,3.2c0.2,0,0.5,0,0.8,0C928.8,486.3,934.5,484.5,940.3,482.5z"/>
			</g>
		</g>
		<g>
			<g>
				<path class="st9" d="M923.2,488.3c5.7-1.9,11.5-3.8,17.1-5.7l0,0C934.5,484.5,928.8,486.3,923.2,488.3z"/>
			</g>
		</g>
		<g>
			<g>
				<path class="st3" d="M876.6,391.9c0-0.3-0.1-0.5-0.1-0.9C876.5,391.3,876.6,391.5,876.6,391.9L876.6,391.9L876.6,391.9z"/>
			</g>
		</g>
		<g>
			<g>
				<path class="st3" d="M878.9,397.5L878.9,397.5c-0.7-2.2-1.4-4.5-2.1-6.7C877.5,393.2,878.3,395.4,878.9,397.5z"/>
			</g>
		</g>
		<g>
			<g>
				<path class="st3" d="M878.8,397.6L878.8,397.6C878.7,397.6,878.7,397.6,878.8,397.6c-0.8-2-1.4-3.8-2.2-5.8
					C877.3,393.7,878.1,395.7,878.8,397.6C878.7,397.6,878.7,397.6,878.8,397.6z"/>
			</g>
		</g>
		<g>
			<g>
				<path class="st3" d="M878.7,397.6L878.7,397.6C878.8,397.6,878.8,397.6,878.7,397.6c0.1,0,0.2,0,0.2-0.1l0,0l0,0
					c-0.7-2.2-1.4-4.5-2.1-6.7c-0.1,0-0.2,0.1-0.3,0.1c0,0.3,0.1,0.5,0.1,0.9C877.3,393.7,878.1,395.7,878.7,397.6z"/>
			</g>
		</g>
		<g>
			<g>
				<path class="st3" d="M876.6,391.9L876.6,391.9c0.7,2,1.4,3.8,2.1,5.8l0,0C878.1,395.7,877.3,393.7,876.6,391.9z"/>
			</g>
		</g>
		<g>
			<g>
				<path class="st5" d="M895.8,381.4c-0.2-0.1-0.4-0.1-0.7-0.1C895.3,381.1,895.4,381.1,895.8,381.4z"/>
			</g>
		</g>
		<g>
			<g>
				<path class="st5" d="M894.4,381.9c0.2,0.3,0.4,0.5,0.7,0.9c0.8-0.1,0.2-1,0.8-1.3c0-0.1,0-0.1,0-0.2h-0.1
					c-0.2-0.1-0.4-0.1-0.7-0.1C894.9,381.4,894.7,381.7,894.4,381.9z"/>
			</g>
		</g>
		<g>
			<g>
				<path class="st5" d="M876.6,390.2c0,0,0,0.1-0.1,0.1C876.5,390.3,876.5,390.2,876.6,390.2L876.6,390.2z"/>
			</g>
		</g>
		<g>
			<g>
				<path class="st5" d="M876.9,390.9L876.9,390.9c-0.1-0.2-0.1-0.4-0.2-0.7c0,0,0,0.1-0.1,0.1c-0.1,0.2-0.1,0.4,0,0.7
					C876.6,391,876.7,391,876.9,390.9L876.9,390.9z"/>
			</g>
		</g>
		<g>
			<g>
				<path class="st2" d="M906.8,390.8c-0.2-0.5-0.4-1.2-0.7-1.7c0-0.1-0.1-0.2-0.1-0.2l0,0C906.3,389.3,906.6,390,906.8,390.8z"/>
			</g>
		</g>
		<g>
			<g>
				<path class="st2" d="M907.5,392.8c-0.5-1.3-1-2.6-1.4-3.8c0.2,0.5,0.4,1.2,0.7,1.7c-0.2-0.7-0.4-1.4-0.8-2.1
					c-2.5,0.8-4.9,1.6-7.4,2.4c0,0.1,0.1,0.1,0.1,0.2c0.7,1.1,1.1,2.2,1.5,3.4c0.4,1.2,0,1.6-1.1,2c-3.5,1.1-7,2.3-10.4,3.5l0,0
					l18.8-6.2C907.8,393.6,907.8,393.3,907.5,392.8z"/>
			</g>
		</g>
		<g>
			<g>
				<path class="st7" d="M888.9,400.2C888.8,400.2,888.8,400.2,888.9,400.2c-1.2-1.4-1.2-3.3-2-4.8c-0.8,0.2-1.5,0.5-2.3,0.8
					c-1.1,0.3-2.2,0.8-3.3,1.1c1.1-0.3,2.2-0.8,3.3-1.1c-1.1,0.3-2.2,0.8-3.3,1.1c0.3,1.7,1.4,3.3,1.3,5L888.9,400.2z"/>
			</g>
		</g>
		<g>
			<g>
				<path class="st8" d="M881.2,397.2c-0.1-0.1-0.1-0.1-0.2-0.2c-0.7,0.2-1.4,0.4-2.1,0.7l0,0l0,0c-0.1,0-0.1,0-0.2,0l0,0l0,0l0,0
					c0,1.2,0.7,2.3,1,3.5c0.3,1.1,0.5,1.5,0.9,1.7l2.1-0.7C882.6,400.4,881.6,398.8,881.2,397.2z"/>
			</g>
		</g>
		<g>
			<g>
				<path class="st8" d="M878.9,397.5L878.9,397.5C878.8,397.5,878.8,397.5,878.9,397.5L878.9,397.5
					C878.8,397.6,878.8,397.5,878.9,397.5z"/>
			</g>
		</g>
		<g>
			<g>
				<path class="st8" d="M896.5,384.8c0.9,2,0.9,4.2,2.3,5.8c-0.7-1.4-0.9-3.1-1.5-4.5C897.2,385.6,896.8,385.1,896.5,384.8z"/>
			</g>
		</g>
		<g>
			<g>
				<path class="st8" d="M896.5,384.8L896.5,384.8c0.3,0.4,0.7,0.9,0.9,1.3C897.2,385.6,896.8,385.1,896.5,384.8z"/>
			</g>
		</g>
		<g>
			<g>
				<path class="st8" d="M896.2,382.5c-0.1-0.3-0.2-0.5-0.3-0.9l0,0c-0.4,0.3,0,1.1-0.8,1.3c0.1,0.2,0.1,0.4,0.2,0.8
					c0.2-0.1,0.4-0.1,0.7-0.2C896.3,383,896.3,382.7,896.2,382.5z"/>
			</g>
		</g>
		<g>
			<g>
				<path class="st8" d="M896.2,382.5c-0.1-0.3-0.2-0.5-0.3-0.9l0,0l0,0C896,381.8,896.1,382.1,896.2,382.5z"/>
			</g>
		</g>
		<g>
			<g>
				<path class="st8" d="M895.4,383.6L895.4,383.6c-0.1-0.2-0.1-0.4-0.2-0.8C895.2,383.1,895.3,383.3,895.4,383.6z"/>
			</g>
		</g>
		<g>
			<g>
				<path class="st2" d="M886.8,394.6c0,0.2,0,0.5,0,0.8l0,0l0,0l0,0c0.8,1.5,0.8,3.4,2,4.8c3.5-1.2,6.9-2.3,10.4-3.5
					c1.1-0.3,1.5-0.8,1.1-2s-0.9-2.3-1.5-3.4c0-0.1-0.1-0.1-0.1-0.2l0,0l0,0c-3.1,1-6.2,2.1-9.3,3.1c-0.7,0.2-1.3,0.8-2.1,0.3
					C887.1,394.5,887,394.5,886.8,394.6L886.8,394.6z"/>
			</g>
		</g>
		<g>
			<g>
				<path class="st2" d="M898.8,391.3c0.7,1.1,1.1,2.2,1.5,3.4C899.9,393.5,899.4,392.4,898.8,391.3z"/>
			</g>
		</g>
		<g>
			<g>
				<path class="st2" d="M887.2,394.4c1.1-0.2,0.9-0.9,0.7-1.6c-0.9-2.5-1.6-5-2.5-7.5c-1,0.8-1.1,2-0.9,2.9
					c0.1,0.5,0.2,1.1,0.4,1.6c0.4,1.6,1,3.2,1.9,4.7C887,394.5,887.1,394.5,887.2,394.4z"/>
			</g>
		</g>
		<g>
			<g>
				<path class="st2" d="M885,389.9c0.4,1.6,1,3.2,1.9,4.7l0,0C886,393.1,885.5,391.5,885,389.9z"/>
			</g>
		</g>
		<g>
			<g>
				<path class="st7" d="M881.7,394.8c-0.8-2.4-1.6-4.7-2.4-7.1c-0.5,1.2-0.4,2.3,0,3.5c0.7,1.7,1.2,3.5,1.7,5.2
					C882,396.2,881.9,395.6,881.7,394.8z"/>
			</g>
		</g>
		<g>
			<g>
				<path class="st5" d="M877.4,391.7c0.1,0.2,0.2,0.3,0.3,0.5C877.6,392.1,877.5,391.9,877.4,391.7z"/>
			</g>
		</g>
		<g>
			<g>
				<path class="st5" d="M881,397c0-0.2-0.1-0.3-0.1-0.5c-1.2,0.7-1.7,0.3-2.2-1c-0.3-1.1-0.5-2.2-1-3.3c-0.1-0.2-0.2-0.3-0.3-0.5
					c-0.2-0.3-0.3-0.5-0.5-0.8l0,0c0.7,2.2,1.4,4.5,2.1,6.7C879.6,397.3,880.3,397.2,881,397z"/>
			</g>
		</g>
		<g>
			<g>
				<path class="st5" d="M880.9,396.4L880.9,396.4c0,0.2,0.1,0.3,0.1,0.5C881,396.8,881,396.7,880.9,396.4z"/>
			</g>
		</g>
		<g>
			<g>
				<path class="st2" d="M895.8,391.5c0-0.1-0.1-0.2-0.1-0.3c-0.9-2.5-1.7-5.1-2.5-7.6c-0.1-0.2-0.1-0.4-0.2-0.7
					c-0.4,0.2-0.5,0.5-0.4,1.1c0.8,2.4,1.5,4.8,2.4,7.1c0.1,0.2,0.2,0.4,0.3,0.5C895.2,391.6,895.4,391.6,895.8,391.5z"/>
			</g>
		</g>
		<g>
			<g>
				<path class="st2" d="M895.1,391.5c0.1,0.1,0.3,0.1,0.7,0l0,0C895.4,391.6,895.2,391.6,895.1,391.5z"/>
			</g>
		</g>
		<g>
			<g>
				<path class="st2" d="M894.9,387.9c0.1,0.2,0.1,0.4,0.2,0.7C895.1,388.4,895,388.1,894.9,387.9z"/>
			</g>
		</g>
		<g>
			<g>
				<path class="st2" d="M895.6,391.2c-0.1-0.9-0.3-1.9-0.5-2.7c-0.1-0.2-0.1-0.4-0.2-0.7c-0.2-0.9-0.5-1.7-0.9-2.5
					c-0.3-0.7-0.7-1.2-1-1.9C893.9,386.1,894.8,388.7,895.6,391.2z"/>
			</g>
		</g>
		<g>
			<g>
				<g>
					<path d="M971.1,533.9l-0.3-0.7c-3.9-6.8-7.6-13.1-9.7-20.3c-2-6.3-2.8-13.2-3.7-19.9c-0.1-1.1-0.2-2.2-0.4-3.4
						c-0.4-4-0.9-8.3-2.7-12.3c-0.1-0.3-0.2-0.7-0.3-1.1c-0.2-1-0.5-2.2-1.4-3.4c-2.5-5.7-5-11.8-6.6-18.2c-0.4-2-1-3.8-1.5-5.7
						c-0.2-0.7-0.4-1.4-0.7-2.1c0-0.1-0.1-0.2-0.1-0.3l0,0c-0.1-1.1-0.2-2.3-0.8-3.5c-0.2-0.8-0.4-1.5-0.7-2.3
						c-0.5-2.1-1.1-4.3-2.4-6.1c-3.9-6.2-8.7-11.6-13-16.1c-1.4-2-3.1-3.8-4.6-5.7c-1.2-1.3-2.3-2.6-3.3-3.9
						c-0.9-1.1-1.9-2.2-2.7-3.2c-1.9-2.1-3.7-4.2-4.7-6.7c1-0.4,1.6-1.1,2.1-2.1c0.3-0.9,0.3-2-0.1-2.8c0-0.1,0-0.1-0.1-0.2
						c-0.1-0.7-0.4-2-1.7-2.7c-0.4-0.2-1-0.4-1.6-0.4v-0.1c-0.4-1.1-0.8-2.3-1.2-3.5c-0.7-2.1-1.3-4.2-2.4-6.2
						c-0.1-0.1-0.1-0.2-0.2-0.3c-2.2-3.2-5.4-4.3-8.8-3.1c-0.7,0.2-1.3,0.4-2,0.9c-0.4,0-0.9,0.1-1.1,0.1c-0.7,0.2-1.1,0.5-1.4,1
						c-0.4-0.1-1-0.1-1.6,0.1c-0.2,0.1-0.4,0.2-0.7,0.3l-2,0.7l-3.2,1l-5.6,1.9c-0.3,0-0.5,0.1-0.9,0.2c-0.5,0.2-1.1,0.5-1.5,1
						c-1.9,0.7-3.1,2.2-3.5,4.6c-0.3,0.8-0.3,1.6-0.1,2.4l0,0c-0.1,1.1,0.2,2,0.4,2.4c0,0.1,0.1,0.1,0.1,0.2
						c0.5,1.7,1.1,3.5,1.7,5.2l0.8,2.3c-0.4,0.4-0.8,0.8-0.9,1.2c-0.7,1.4-0.2,2.6,0.1,3.4c0,0.1,0.1,0.2,0.1,0.2
						c0.4,1.4,1.3,2.1,1.9,2.4c0.5,0.3,1.4,0.5,2.5,0.3c0,0.1,0.1,0.2,0.1,0.4c0.2,0.5,0.4,1.1,0.3,1.4c-0.2,3.4-0.3,6.8-0.4,10
						c-0.1,1.4-0.2,2.8-0.3,4.3c-0.2,2.7-0.4,5.6-0.3,8.5c-0.5,3.4-0.7,6.9-0.8,10.2c0,1.2-0.1,2.3-0.1,3.5
						c-0.2,3.7-0.2,7.4,1.2,11.1l0.1,0.3c0.8,2.1,1.5,4.2,3.1,5c-0.1,0.2-0.2,0.4-0.2,0.7c-0.1,0.5-0.1,1,0.1,1.5l0.2,0.7
						c0.2,0.5,0.3,1.1,0.5,1.6c2.9,7.1,6,14.7,7.6,23c0.3,1.5,0.7,3.1,1.9,3.9c-0.3,0.7-0.4,1.3-0.3,2c0,0.1,0.1,0.2,0.1,0.4
						c0.2,0.5,0.3,1,0.4,1.5c0.4,1.3,0.8,2.7,1.5,4c2.5,4.8,5.2,9.5,7.8,13.9c5.4,9.2,8.5,19.3,9.5,30c0.7,7.1,2,15.4,6.4,22.9
						c1.4,2.7,3.4,6.2,6.3,9.2c2.7,2.8,6.4,3.8,9.8,2.6c2.7-0.9,4.9-3.1,6-6c0.3-0.8,0.5-1,1-1.2c0.2-0.1,0.5-0.2,0.8-0.3
						c0.5-0.2,1.3-0.3,2.5,0.3c3.1,1.6,5.5,2,7.8,1.2c2.9-1,4.6-3.7,5.6-5.7c0.1-0.2,0.2-0.3,0.3-0.5c0.3-0.7,0.8-1,1.3-1.2
						c0.7-0.2,1.3-0.1,2,0.3c2.8,1.7,6,2.2,8.7,1.2c3.6-1.2,6-4.5,6.3-8.5C978.2,551.9,976.1,542.4,971.1,533.9z M915.6,423.5
						c-0.4,0.1-1,0.2-1.4,0.3c-1.5,0.5-3.2,1.1-4.7,1.5c-1.5,0.5-3.2,1.1-4.7,1.5c-0.5,0.2-1.1,0.4-1.7,0.8c0,0,0,0,0-0.1v-0.1
						c-0.3,0.1-0.7,0.2-1.1,0.4c-0.3,0.1-0.8,0.2-1.1,0.4c-0.9,0.3-1.9,0.7-2.7,1c-2.5,0.8-4.9,1.6-7.4,2.4
						c-1.1,0.3-2.1,0.7-3.2,0.9c-0.1,0.1-0.2,0.2-0.3,0.2c-0.1,1.4-0.1,2.7-0.1,4.2c0-0.7,0.1-1.4,0.1-2.1s0-1.4,0.1-2.1
						c-1.5,0.4-3.1,0.9-4.6,1.3c-0.1-2.2,0-4.3,0.1-6.4s0.3-4.3,0.4-6.3c0.1-3.4,0.3-6.7,0.4-10c0.1-1.4-0.7-2.6-1-3.9h0.1h-0.1
						c0-0.1-0.1-0.2-0.1-0.4l0,0l19.3-6.4l6.4-2.2c0,0.1,0.1,0.2,0.1,0.2c0.2,0.7,0.4,1.2,0.7,1.7c0.8,1.6,1.7,3.2,2.9,4.6
						c0.8,1,1.5,1.9,2.4,2.7c0.8,0.9,1.6,1.9,2.3,2.7s1.3,1.6,2,2.4c2.1,2.4,4.2,4.7,6,7.2C921.7,421.3,918.7,422.4,915.6,423.5z"/>
				</g>
			</g>
			<g>
				<g>
					<g>
						<path class="st0" d="M967.4,535.9l-0.3-0.7c-4-7-7.9-13.5-10.2-21.2c-2-6.7-2.9-13.7-3.9-20.5c-0.1-1.1-0.3-2.3-0.4-3.5
							c-0.4-3.9-0.8-7.5-2.4-11c-0.3-0.7-0.4-1.3-0.5-1.9c-0.2-0.7-0.3-1.3-0.7-1.7c-0.2-0.3-0.4-0.5-0.5-0.9
							c-2.5-5.6-5.2-12.1-6.8-19c-0.4-1.7-0.9-3.5-1.5-5.4c-0.2-0.7-0.4-1.4-0.7-2.1c0-0.1-0.1-0.7-0.2-0.7c0-0.1,0-0.3-0.1-0.4
							c-0.1-0.9-0.2-1.6-0.4-2.2c-0.1-0.1-0.1-0.3-0.1-0.4c-0.2-0.8-0.4-1.5-0.8-2.5c-0.4-1.9-1-3.6-1.9-4.9
							c-3.1-4.7-6.6-9-9.9-12.7l-9.2,3.3c-0.2,0.1-0.3,0.1-0.5,0.1l-1.2,0.3l-9.1,3.1l-1.5,0.7c-0.4,0.2-0.9,0.2-1.3,0.3l-3.7,1.4
							l-7.5,2.5l-0.5,0.1c0,0.2,0,0.3,0,0.5v0.7c-0.1,2.4-2.1,4.3-4.5,4.2c-0.1,0-0.2,0-0.2,0c-1.2-0.1-2.3-0.8-2.9-1.6
							c-0.1,1.6-0.1,3.2-0.2,4.7c0,1.2-0.1,2.4-0.1,3.6c-0.2,3.4-0.2,6.4,0.9,9.5l0.1,0.3c0.3,1,1,2.6,1.3,2.9c1.7,1,2.4,3.2,1.9,5
							v0.1c0.1,0.4,0.3,0.9,0.4,1.3c3.1,7.3,6.1,15.2,7.9,23.8c0.1,0.4,0.2,1.1,0.3,1.4c1.4,1.2,2,3.2,1.4,4.9
							c0.1,0.3,0.3,1.2,0.3,1.2c0.3,1.2,0.7,2.3,1.2,3.3c2.5,4.7,5.1,9.4,7.6,13.8c5.7,9.7,9.1,20.4,10.2,31.8
							c0.7,6.7,1.7,14.3,5.9,21.2c0,0.1,0.1,0.1,0.1,0.2c1.3,2.4,3.1,5.6,5.6,8.2c1.1,1.1,2.3,1.6,3.5,1.9c0.7,0.1,1.3,0,2-0.2
							c2-0.7,2.8-2.3,3.4-3.5c0.7-1.6,1.5-2.7,2.8-3.5c0.4-0.2,1-0.5,1.5-0.7c1-0.3,1.9-0.4,2.8-0.3c1,0.1,2,0.4,2.9,1
							c1.2,0.7,2.3,1,3.1,1.1c0.4,0,0.9,0,1.3-0.1c1.4-0.4,2.4-2.2,3.1-3.5c0.1-0.2,0.2-0.5,0.4-0.8c0.9-1.5,2.2-2.6,3.8-3.2
							c0.9-0.3,1.7-0.3,2.6-0.3c1,0.1,2,0.4,2.9,1c1,0.5,2,1,2.9,1.1c0.8,0.1,1.5,0,2.2-0.2c2-0.7,3.2-2.4,3.4-4.8
							C973.9,552.4,972,543.8,967.4,535.9z"/>
					</g>
				</g>
				<g>
					<g>
						<path class="st0" d="M888.2,431.8c0,0,2.1,8.2,2.4,12.1c0.3,3.9-1.4,6.4-3.4,5.6c-2-0.9-5.2-10.8-5.2-11.5s0.5-4.2,0.5-4.2"/>
					</g>
				</g>
				<g>
					<g>
						<path d="M932.3,574.4c-0.2,0-0.4-0.2-0.9-0.5c-2.2-2.2-3.7-4.9-4.8-7.1c-0.1-0.2-0.2-0.3-0.3-0.4c-3.6-6-4.7-13.1-5.2-19.3
							c-1.1-12-4.7-23.3-10.7-33.5c-2.5-4.3-5.1-9-7.6-13.5c-0.3-0.5-0.5-1.4-0.9-2.4v-0.1c0.4-2.5-0.3-5-2-7l0,0
							c-1.9-9.1-5-17.3-8.2-24.7l0,0c0.3-2.8-0.8-5.8-2.9-7.6c-0.2-0.5-0.4-1.2-0.5-1.5l-0.1-0.3c-0.9-2.3-0.8-4.8-0.7-7.8
							c0-0.9,0.1-1.7,0.1-2.5c3.6-0.3,6.8-2.8,7.6-6.3l5.5-1.7l3.6-1.3c0.7-0.1,1.3-0.3,2-0.5l1.4-0.5l8.7-2.9l1-0.2
							c0.3-0.1,0.7-0.2,1.1-0.3c0,0,3.7-1.3,6.3-2.3c3.1,3.6,5.6,6.8,7.5,9.9c0.5,0.8,0.9,2.2,1.3,3.7c0.3,1,0.5,1.9,0.8,2.7
							c0.1,0.2,0.2,0.5,0.3,0.9c0,0.1,0.1,0.5,0.1,0.9s0.1,0.7,0.1,0.9c0,0.1,0.2,0.9,0.2,1c0.2,0.8,0.4,1.4,0.7,2.2
							c0.5,1.7,1,3.5,1.4,5c1.6,7.3,4.5,14,7.1,19.8c0.2,0.5,0.5,1.1,0.9,1.5c0,0.1,0.1,0.3,0.1,0.4c0.2,0.7,0.4,1.6,0.9,2.6
							c1.3,2.8,1.6,6,2.1,9.7c0.1,1.2,0.2,2.4,0.4,3.6c1,7,1.9,14.1,4,21.2c2.4,8.2,6.4,15,10.6,22.2l0.3,0.7c4,7,5.8,14.9,5.1,23.3
							c0,0.4-0.2,1-0.4,1.1c-0.1,0-0.2,0-0.4,0c-0.3,0-0.8-0.2-1.2-0.4c-1.5-0.9-3.1-1.4-4.8-1.6c-1.5-0.1-2.9,0-4.5,0.4
							c-2.6,0.9-4.8,2.7-6.2,5.2c-0.1,0.2-0.3,0.5-0.5,1c-0.2,0.4-0.4,0.8-0.5,1c-0.2-0.1-0.5-0.2-0.9-0.4c-1.5-0.8-3.1-1.3-4.6-1.4
							c-1.5-0.1-3.2,0-4.7,0.5c-0.8,0.2-1.5,0.5-2.3,1c-2.2,1.2-3.8,3.2-4.8,5.7c-0.1,0.3-0.3,0.9-0.7,1L932.3,574.4z"/>
					</g>
				</g>
				<g>
					<g>
						<path class="st8" d="M907.1,394.5c0.1,0,0.2-0.1,0.3-0.1c-0.7-0.5-1.2-1.2-1.5-2c-0.4-1.2-0.9-2.4-1.2-3.7
							c-0.5-2-1.2-3.8-2-5.5c-1.1-1.5-2-1.6-2.3-1.6c-0.4,0-1,0-1.6,0.2c-0.4,0.1-0.9,0.3-1.3,0.5c-0.5,0.2-1.1,0.4-1.6,0.4
							c-0.9,0.9-2.1,1.2-3.3,1.1l0,0c-0.1,0.1-0.3,0.1-0.4,0.2l-2.1,0.8l-3.2,1l-5.6,1.9c-0.2,0.1-0.4,0.1-0.7,0.1c0,0,0,0-0.1,0
							c-0.4,0.4-1,0.8-1.5,1c-0.2,0.1-0.5,0.2-0.7,1.3c0,0.2-0.1,0.4-0.2,0.7c0,0.1,0.1,0.3,0.1,0.4c0,0.3,0.1,0.7,0,1
							c0,0.1,0.1,0.2,0.1,0.3c0.1,0.1,0.2,0.4,0.2,0.7c0.5,1.7,1.1,3.5,1.7,5.2l0.8,2.3c0.3,0.9,0.3,1.7,0,2.5
							C881.1,403.1,907.1,394.5,907.1,394.5z"/>
					</g>
				</g>
			</g>
			<g>
				<g>
					<path d="M878.9,397.5L878.9,397.5c-0.7-2.2-1.4-4.5-2.1-6.7C877.5,393.2,878.3,395.4,878.9,397.5z"/>
				</g>
			</g>
			<g>
				<g>
					<path d="M904.5,389.1c-2,0.7-3.9,1.3-5.9,2l0,0C900.7,390.4,902.5,389.8,904.5,389.1z"/>
				</g>
			</g>
			<g>
				<g>
					<path d="M905.9,388.3c0,0.1,0.1,0.2,0.1,0.4c0,0.1,0.1,0.2,0.1,0.2c0-0.1-0.1-0.2-0.1-0.2C906,388.5,905.9,388.4,905.9,388.3
						c-0.7-2.1-1.2-3.9-1.9-5.9C904.7,384.3,905.3,386.2,905.9,388.3C905.9,388.1,905.9,388.3,905.9,388.3z"/>
				</g>
			</g>
			<g>
				<g>
					<path d="M896.1,383.3L896.1,383.3c0.1,0.3,0.2,0.7,0.3,1c0-0.1-0.1-0.3-0.1-0.4C896.2,383.7,896.1,383.6,896.1,383.3
						c-0.2,0.1-0.3,0.1-0.5,0.2c0,0,0,0,0.1,0C895.8,383.4,895.9,383.4,896.1,383.3z"/>
				</g>
			</g>
		</g>
	</g>
	<g>
		<g>
			<path d="M911.7,530.9c-0.1,0-0.1,0.1-0.2,0.1l-0.9,0.9c-0.1,0.1-0.2,0.2-0.4,0.3c-0.1,0.1-0.2,0.2-0.3,0.3
				c-0.7-2-1.2-6.1-1.5-8.4c0-0.1,0-0.2,0-0.3l0,0c0-0.1,0-0.2,0-0.2h0.1v-0.2c0-0.2,0-0.3,0-0.5h-0.2c0-0.1,0-0.2,0-0.2l0.2-0.1
				c0-0.2,0-0.4-0.1-0.7c0-0.2-0.1-0.3-0.1-0.7c-0.1-0.2-0.1-0.4-0.2-0.8c-0.1-0.2-0.2-0.4-0.2-0.7l-0.1-0.2
				c-0.1-0.1-0.1-0.3-0.2-0.4l-0.3-4.6l0.2-6.6c0.2-0.4,0.3-0.9,0.4-1.1c0.1-0.4,0.1-0.8,0.1-1.2l0,0c0.5-0.2,0.9-0.7,1-0.9
				c0.3-0.7,0.2-1.3-0.3-2.2c-1.3-2.1-1.7-4.5-2.1-6.4c-0.1-0.9-0.2-1.6-0.3-2.5l-0.2-2c-0.1-1.3-0.3-2.8-1.1-3.7
				c-0.8-0.8-1.3-1.6-1.5-2.5c-0.8-2.2,0.1-4.5,1.2-7l0.5-0.1l-0.1-0.8c0.4-1.1,0.9-2.3,1.1-3.5c0.1-0.5,0.2-1.1,0.3-1.6
				c0.9,0.5,2.2,1.2,3.4,2c-0.1-0.9-0.2-1.9-0.3-2.7c-1-0.7-2-1.2-2.6-1.6c0.1-1,0.2-2,0.1-2.9c0-1.4,0.2-2.4,0.9-3.3
				c-0.2-0.8-0.4-1.5-0.5-2.3c-0.3-1.2-0.3-2.3-0.3-3.3c-0.1,0.1-0.3,0.2-0.4,0.3c-1.4-6.3-3.9-11-7.8-14.2c-1.2-1-2.3-1.6-3.4-2.2
				c-0.7-0.3-1.4-0.7-2.4-1.1c-0.5-0.2-1.1-0.3-1.5-0.5c-2.1-0.7-3.9-0.8-5.7-0.5h-0.3c-0.9,0.1-1.6,0.3-2.4,0.7l-0.2,0.1
				c-1.5,0.7-2.8,1.7-4.2,3.2c-3.8,4.5-3.2,9.9-2,15.1c0.3,1.3,0.7,2.6,1.1,3.9c0.9,3.1,1.7,5.9,1.9,9v0.5c0,0.3,0.1,0.9,0,1
				c0,0-0.1,0.1-0.4,0.1c-5.7,1.1-9.1,5.5-12.2,10.2c-1,0.5-1.4,1.6-1.6,2.5c-0.3,0.9-0.4,1.2-0.8,1.3l-0.5,0.2l-0.3,0.7v0.3
				c0,2.3-0.4,2.4-0.9,2.4c-0.4,0.1-1.2,0-2.3-0.2c-1.6-0.3-2.8-0.4-4-0.2c-2,0.2-3.6,1.2-4.9,2.9c-2,0.9-3.5,2.7-4.4,4.9
				c-2.8,7.8-2.9,15.8,0,24c3.7,13.9,10.8,22.1,21.8,25c2,0.5,3.5,0.7,4.9,0.5c2.9-0.4,4.7-2.5,6.2-5.6c4.7,3.1,10,4.2,16.2,3.3
				c0.4,0,0.8-0.1,1.2-0.2c5.1-0.9,9.9-3.3,14.1-7.1l0.3-0.2l0.3-1.4c0.3-0.1,0.8-0.3,1.3-0.5L911.7,530.9z M894.9,540.1
				c-0.8,0.1-1.5,0.3-2.3,0.4c-0.8,0.1-1.6,0.2-2.5,0.2c-1.1,0-2.3,0-3.4-0.2c-1.9-0.3-3.7-1-5.6-2.1c-1.4-0.9-2.7-1.9-4-3.1
				l-0.2-0.2c-0.4-0.7-0.9-1.2-1.4-1.3c-0.2-0.1-0.4-0.1-0.7-0.1l-0.4,0.1h-0.2l-0.3,0.4c-0.3,0.5-0.4,1.1-0.3,1.6
				c-0.5-0.2-1.3-0.5-2.2-1.1c-0.2-0.1-0.4-0.3-0.7-0.4l-0.4-0.1H870c-0.3,0-1,0.3-1.3,1.3c-0.1,0.3-0.1,0.7,0,1l0.1,0.3l0.1,0.1
				c0.2,0.3,0.5,0.5,1,0.8c1.2,1.5,2.7,2.2,4.3,2.7c0.3,0.1,0.5,0.2,0.9,0.3c-0.9,1.2-1.9,1.4-2.5,1.5c-1.2,0.1-2.5-0.2-3.6-0.5
				c-6.6-2-11.6-7-15.3-15.3c-1.4-3.2-2.4-6.2-2.9-9.1c-0.2-1.5-0.4-3.1-0.5-4.7c-0.2-2.2-0.2-3.9,0-5.6c0.1-1.2,0.3-2.2,0.5-3.3
				c0.2-0.9,0.5-1.7,1-2.6c0.7-1.5,1.4-2.6,2.3-3.5c1.2-1,2.5-2,3.9-2.2c0.7-0.1,1.4,0,2.2,0.3c0.5,0.2,1.3,0.5,1.4,1
				c0.1,0.2,0,0.7-0.1,1.1c-0.2,1.2-0.8,2.3-1.2,3.4c-0.9,2.1-2,4.4-1.4,7.2c-0.2,0.4-0.3,1.3,0.2,2.1l0.9,3.5
				c0,0.3,0.1,0.8,0.1,1.2c0.1,1.6,0.2,3.7,2.2,6.1l2-1l-0.9-4c0.5,1.2,1.2,2.4,2.1,3.5c1.7,3.7,4.4,6.1,8.6,8l3.4,1.3l-0.4-0.5
				l0.3,0.1l-7.9-10.3l-3.2-8l-0.3-2.7l0.1-1.3v-2.8v-1.1l0.1-0.4h0.1l0.1-0.8l0.3-1.5h-0.1c0-0.3,0.1-0.7,0.1-1.1
				c0.3-2.3,0.9-4.7,1.7-6.9c0.3-0.9,0.7-1.7,1-2.6c0.7-0.8,1.2-1.6,1.9-2.4c1.6-2.3,3.3-4.5,5.4-5.8c-0.1,0.2-0.5,1-0.5,1l1,0.5
				l-1.2-0.3c-1.1,1.1-1.2,2.2-0.3,3.1c0.3,0.3,0.8,0.4,1.3,0.4c1-0.1,1.6-1.3,1.9-1.9c5.9-5,7.5-11.8,4.8-20.3
				c-0.9-2.7-1.9-5.8-2.3-9c-0.4-3.1,0-5.4,1.1-6.9c0.8-1.1,2-1.6,3.5-1.9c0.9-0.1,1.7-0.1,2.7,0c8.4,1.1,13.3,8.7,12.8,19.8
				c-0.4,10-2.7,16.7-7.3,21.6c-0.2,0.3-0.5,0.5-0.8,0.9c-0.7,0.7-1.1,1.3-1.4,2c-0.1,0.1-0.2,0.3-0.3,0.5c-0.3,0.4-0.2,0.9-0.2,1.2
				c0,0.1,0,0.3,0,0.5v1.6l1.5-0.5c0.3-0.1,0.8-0.2,1-0.4c1.2-0.5,2.3-1.3,3.3-2.3c0.2-0.2,0.5-0.5,0.8-0.9c0.2-0.2,0.4-0.5,0.7-0.8
				c0.5-0.8,0.9-0.9,0.9-0.9s0.4,0.2,0.9,1.5c0.5,1.4,1.1,3.1,1.2,4.6c0,2,0,3.9-0.2,5.8c0,0.4-0.1,0.9-0.2,1.4
				c-0.2,1.9-0.7,3.8-1.2,5.8c-0.8,2.9-1.9,5.7-3.3,8.4c-2.5,4.7-5.6,7.3-9.6,8l-3.8,0.7l3.5,1.5c1.1,0.4,2.3,0.7,3.6,0.4
				c2.9-0.4,6-2.4,8.6-5.8c2.1-2.5,3.4-5.7,4.7-8.8c0,1-0.1,2,0.2,3.1l0.5,4.7c0,0.3,0.1,0.5,0.1,0.8l0,0l0.1,0.2
				c0.1,0.8,0.3,1.5,0.5,2.2l2.9,11.1C903.5,537.1,899.2,539.2,894.9,540.1z"/>
		</g>
	</g>
	<g>
		<g>
			<path class="st10" d="M901.1,465.8c-0.4,10-2.7,16.7-7.3,21.7c-0.2,0.3-0.5,0.5-0.8,0.9c-0.7,0.7-1.1,1.3-1.4,2
				c-0.1,0.1-0.2,0.3-0.3,0.5c-0.3,0.4-0.2,0.9-0.2,1.2c0,0.1,0,0.3,0,0.5v1.6l1.5-0.5c0.3-0.1,0.8-0.2,1-0.4
				c1.2-0.5,2.3-1.3,3.3-2.3c0.2-0.2,0.5-0.5,0.8-0.9c0.2-0.2,0.4-0.5,0.7-0.8c0.5-0.8,0.9-0.9,0.9-0.9s0.4,0.2,0.9,1.5
				c0.5,1.4,1.1,3.1,1.2,4.6c0,2,0,3.9-0.2,5.8c0,0.4-0.1,0.9-0.2,1.4c-0.2,1.9-0.7,3.8-1.2,5.8c-0.8,2.9-1.9,5.7-3.3,8.4
				c-2.5,4.7-5.6,7.3-9.6,8l-3.8,0.7l3.5,1.5c1.1,0.4,2.3,0.7,3.6,0.4c2.9-0.4,6-2.4,8.6-5.8c2.1-2.5,3.4-5.7,4.7-8.8
				c0,1-0.1,2,0.2,3.1l0.5,4.7c0,0.3,0.1,0.5,0.1,0.8l0,0l0.1,0.2c0.1,0.8,0.3,1.5,0.5,2.2l2.9,11.1c-4.5,3.2-8.7,5.1-13,6
				c-0.8,0.1-1.5,0.3-2.3,0.4c-0.8,0.1-1.6,0.2-2.5,0.2c-1.1,0-2.3,0-3.4-0.2c-1.9-0.3-3.7-1-5.6-2.1c-1.4-0.9-2.7-1.9-4-3.1
				l-0.2-0.2c-0.4-0.7-0.9-1.2-1.4-1.3c-0.2-0.1-0.4-0.1-0.7-0.1l-0.4,0.1H874l-0.3,0.4c-0.3,0.5-0.4,1.1-0.3,1.6
				c-0.5-0.2-1.3-0.5-2.2-1.1c-0.2-0.1-0.4-0.3-0.7-0.4l-0.4-0.1h-0.3c-0.3,0-1,0.3-1.3,1.3c-0.1,0.3-0.1,0.7,0,1l0.1,0.3l0.1,0.1
				c0.2,0.3,0.5,0.5,1,0.8c1.2,1.5,2.7,2.2,4.3,2.7c0.3,0.1,0.5,0.2,0.9,0.3c-0.9,1.2-1.9,1.4-2.5,1.5c-1.2,0.1-2.5-0.2-3.6-0.5
				c-6.6-2-11.6-7-15.3-15.3c-1.4-3.2-2.4-6.2-2.9-9.1c-0.2-1.5-0.4-3.1-0.5-4.7c-0.2-2.2-0.2-3.9,0-5.6c0.1-1.2,0.3-2.2,0.5-3.3
				c0.2-0.9,0.5-1.7,1-2.6c0.7-1.5,1.4-2.6,2.3-3.5c1.2-1,2.5-2,3.9-2.2c0.7-0.1,1.4,0,2.2,0.3c0.5,0.2,1.3,0.5,1.4,1
				c0.1,0.2,0,0.7-0.1,1.1c-0.2,1.2-0.8,2.3-1.2,3.4c-0.9,2.1-2,4.4-1.4,7.2c-0.2,0.4-0.3,1.3,0.2,2.1l0.9,3.5
				c0,0.3,0.1,0.8,0.1,1.2c0.1,1.6,0.2,3.7,2.2,6.1l2-1l-0.9-4c0.5,1.2,1.2,2.4,2.1,3.5c1.7,3.7,4.4,6.1,8.6,8l3.4,1.3l-0.4-0.5
				l0.3,0.1l-7.9-10.3l-3.2-8l-0.3-2.7l0.1-1.3v-2.8v-1.1l0.1-0.4h0.1l0.1-0.8l0.3-1.5h-0.1c0-0.3,0.1-0.7,0.1-1.1
				c0.3-2.3,0.9-4.7,1.7-6.9c0.3-0.9,0.7-1.7,1-2.6c0.7-0.8,1.2-1.6,1.9-2.4c1.6-2.3,3.3-4.5,5.4-5.8c-0.1,0.2-0.5,1-0.5,1l1,0.5
				l-1.2-0.3c-1.1,1.1-1.2,2.2-0.3,3.1c0.3,0.3,0.8,0.4,1.3,0.4c1-0.1,1.6-1.3,1.9-1.9c5.9-5,7.5-11.8,4.8-20.3
				c-0.9-2.7-1.9-5.8-2.3-9c-0.4-3.1,0-5.4,1.1-6.9c0.8-1.1,2-1.6,3.5-1.9c0.9-0.1,1.7-0.1,2.7,0
				C896.7,447.1,901.6,454.7,901.1,465.8z"/>
		</g>
	</g>
	<g>
		<g>
			<g>
				<g>
					<path class="st8" d="M959.5,483c-0.8-2.8-0.8-5.7-0.8-5.7l0,0c0.1-2.5-0.4-5.2-1-6.7c-1-2.3-3.8-5.8-4.7-7.2
						c-0.9-1.5-0.3-3.6,0.2-8.3c0.3-2.8-0.7-5.8-1.4-7.8l-4.2,1.4c0.9,1,1.5,2.3,1.9,4c0.1,0.5,0.2,1.1,0.2,1.6
						c0.1,2.1-0.2,3.6-0.9,4.8c-0.3,0.8-0.9,1.3-1.3,1.7c-0.1,0.1-0.1,0.1-0.2,0.2l0.2,0.8l-1-0.1c-0.2,0.2-0.4,0.3-0.7,0.4
						l-0.2,0.2c-0.1,0-0.2,0.1-0.3,0.1c-0.5,0.1-1,0.3-1.5,0.5c-0.2,0.1-0.4,0.1-0.7,0.2c0,0-0.8,0.3-1,0.4
						c-0.9,0.3-1.6,0.7-2.3,0.9c-0.9,0.3-1.6,0.8-2.4,1.1c-1.1,0.5-2.1,1.1-2.9,1.5c-0.4,0.2-0.8,0.4-1.1,0.7c-0.1,0-0.1,0-0.2,0
						c-6.6-0.7-12-4.6-9.7-11l-16.2,5.5c0.1,0.4,0.2,0.8,0.3,1.2c-0.5,0.9-0.9,1.9-0.9,3.3c0,1-0.1,2-0.1,2.9c0.7,0.4,1.6,1,2.6,1.6
						c0.1,0.9,0.2,1.9,0.3,2.7c-1.2-0.7-2.4-1.4-3.4-2c-0.1,0.5-0.2,1.1-0.3,1.6c-0.3,1.2-0.7,2.3-1.1,3.5l0.1,0.8l-0.5,0.1
						c-1.1,2.5-2,4.7-1.2,7c0.3,0.9,0.8,1.7,1.5,2.5c0.9,0.9,1,2.4,1.1,3.7l0.2,2c0.1,0.9,0.2,1.6,0.3,2.5c0.2,2,0.8,4.4,2.1,6.4
						c0.4,0.8,0.5,1.5,0.3,2.2c-0.1,0.3-0.4,0.7-1,0.9l0,0c0,0.4,0,0.8-0.1,1.2c0,0.2-0.1,0.5-0.2,0.9l0,0c0,0,0,0,0,0.1l33.3-11.4
						c0.3-0.4,0.8-0.8,1.2-1.2c0.5-0.5,1.2-1,1.9-1.4c0.8-0.4,1.5-1,2.3-1.4s1.5-0.8,2.3-1.1c0.2-0.1,0.4-0.2,0.5-0.3
						c0.3-0.1,0.5-0.2,0.9-0.3c0.1,0,0.2-0.1,0.2-0.1l0,0c0.2-0.1,0.3-0.1,0.5-0.2c0.4-0.2,0.9-0.3,1.3-0.5l0,0c0,0,0.2-0.1,0.4-0.2
						c0.4-0.2,1.2-0.5,2.1-0.7c0.1,0,0.3,0,0.4,0c0.3,0,0.8,0,1.1,0c0.2,0,0.4,0,0.7,0.1c0.4,0.1,0.9,0.2,1.2,0.4
						c0.1,0.1,0.3,0.2,0.4,0.2c0.2,0.1,0.4,0.2,0.7,0.4l3.9-1.3C961.6,486.2,960,484.7,959.5,483z M954.5,480.8
						c-0.1,0.2-0.1,0.5-0.2,0.8c-0.1,0.3-0.2,0.7-0.4,1c-0.4,0.9-0.9,1.5-1.4,2l0,0l-0.4,0.4c0,0-0.1,0-0.1,0.1l0,0l-0.4,0.4
						c-0.8,0.2-1.5,0.5-2.2,0.8c0,0,0,0-0.1,0c-0.3,0.1-0.7,0.2-1.1,0.4l0,0c-0.1,0-0.2,0.1-0.3,0.1c-0.2,0.1-0.5,0.2-0.5,0.2
						c-1.1,0.4-2.2,1-3.3,1.5c-0.5,0.3-1.1,0.7-1.6,1h-0.1c-4.5,0.1-8.8-1.2-11.1-3.8l0,0c-0.1-0.1-0.2-0.2-0.2-0.3
						c-0.7-0.8-1.1-1.6-1.2-2.6c-0.3-1.5-0.1-3.3,0.9-5.4c0.4-1,1.1-1.9,2-2.7c0.7-0.7,1.4-1.3,2.3-2c0.1-0.1,0.2-0.1,0.3-0.2
						c0.3-0.2,0.8-0.4,1.1-0.8c1.1-0.7,2.2-1.3,3.4-1.9c0.7-0.3,1.3-0.7,2-0.9c0.8-0.3,1.6-0.7,2.4-1c0.3-0.1,0.7-0.2,1-0.3
						c0.2-0.1,0.4-0.2,0.8-0.2c0.5-0.2,1.1-0.3,1.5-0.5c0.3-0.1,0.5-0.2,0.8-0.2v-0.2c0.3-0.1,0.8,0,1.2,0.2c0.3,0.2,0.8,0.5,1.2,1
						c0.1,0.1,0.1,0.1,0.2,0.2c0.1,0.2,0.3,0.3,0.4,0.5c1.4,2,2.8,5.1,3.6,8.6c0.1,0.5,0.2,1,0.2,1.4
						C954.6,479.4,954.6,480.1,954.5,480.8z"/>
				</g>
			</g>
			<g>
				<g>
					<path d="M902.6,478.1c0.7-2.4,1.1-4.9,1.4-7.2c0.2,0.7,0.4,1.2,0.5,1.7C905.3,475.2,904.2,477.4,902.6,478.1z"/>
				</g>
			</g>
		</g>
	</g>
	<g>
		<g>
			<path class="st10" d="M899.9,485.1c0,0-6.2,6.3-9.2,7.6c-2.9,1.3-2.2-4.4-2.2-4.4l2.2-1.5"/>
		</g>
	</g>
	<g>
		<g>
			<polyline points="911.8,530.8 907.3,521.5 908.7,533.3 911.7,534.3 911.6,533.3 			"/>
		</g>
	</g>
	<g>
		<g>
			<path d="M879.8,482.7c0,0-3.2,3.8-5.9,5c0,0-0.1-3.8,2.4-6.7"/>
		</g>
	</g>
	<g>
		<g>
			<path class="st10" d="M861.5,497.3c0,0-4.6,26.3,15.4,31.7c0,0-13-2.5-14-3.4s-4.8-3.5-5.2-4.6s-1.9-5.1-1.7-7.4
				c0.1-2.3,0-7.2,0-7.2s0-2.8,0.2-3.5"/>
		</g>
	</g>
	<g>
		<g>
			<path d="M863.1,490.8c0,0-0.7-3.3,3.8-10.5s12.5-7,12.5-7L872,480"/>
		</g>
	</g>
	<g>
		<g>
			<path d="M877,528.7c0,0-10-10.9-10.3-20.5c-0.2-9.6,1.1-15.1,1.1-15.1s-4.3,7.2-4.3,10s-0.4,1.6,0.8,5.7c1.2,4,2,5.9,2.6,7.8
				c0.8,1.9,1.1,1.4,1,2.3"/>
		</g>
	</g>
	<g>
		<g>
			<path class="st10" d="M859.6,495.8c0,0,2.2,0.3,2.7,2.1c0.5,1.6-1.2,5-0.1,12.8c1.2,7.8,6.4,13.9,6.4,13.9l-8-8.3l-3.1-6.4
				c0,0,0.1-3.8,0-4"/>
		</g>
	</g>
	<g>
		<g>
			<path class="st10" d="M875,540.7c0,0-3.6-3.2-4.7-6.4c-1.1-3.3-7.2-6.6-4.6-1.6c2.6,5,1.3,3.2,2.2,4.3c0.9,1.2,1.3,1.7,2,2.6
				c0.7,0.9,1.3,1.1,1.3,1.1"/>
		</g>
	</g>
	<g>
		<g>
			<path class="st10" d="M873.7,535.8c0,0,10.2,5.6,13.7,5c3.5-0.5,1.4-6.8-1.2-7.5c-2.6-0.8-8.3-1.9-8.7-1.6
				c-0.4,0.1-2.1,0.3-2.2,0.3s-1.3-0.1-1.3-0.1"/>
		</g>
	</g>
	<g>
		<g>
			<path d="M900.8,483.7c0,0-4.8,8.5-9.8,10.4l0.1-1.4c0,0,5.9-8.1,6.1-10"/>
		</g>
	</g>
	<g>
		<g>
			<path class="st10" d="M898.2,480.7c0,0-3.4,7.6-5.7,10.3c-2.3,2.6-6.6-0.3-6.6-0.3l0.8-3.3"/>
		</g>
	</g>
	<g>
		<g>
			<g>
				<path d="M962.1,488.7c-2.6-2.9-5.1-2.7-5.6-3.9c-0.4-1.2,1.7-4.8,1.7-4.8c1-2.8,0.2-7.3-0.5-9.3c-1-2.3-3.8-5.8-4.7-7.2
					c-0.9-1.5-0.3-3.6,0.2-8.3c0.4-4.7-2.4-9.8-2.4-9.8l-3.5,39.7l4.3,8.7c0,0,5.1,16.2,9.6,14c0.5-0.2,1-0.7,1.5-1.1
					c0-0.1,0.5-3.4,1.3-6C964.8,497.8,964.7,491.7,962.1,488.7z"/>
			</g>
		</g>
		<g>
			<g>
				<path class="st11" d="M943.6,444.5c0.5,0.7,1,1.4,1.5,2.2C944.6,446,944,445.3,943.6,444.5c-1.9-2.2-3.9-4.5-5.7-6.1
					c-0.9-0.9-1.6-1.6-2.3-2.2c-0.5-0.4-0.9-0.8-1.1-1c0.3,0.2,0.7,0.5,1.1,0.9c0.7,0.5,1.4,1.2,2.4,2.1
					C939.7,439.8,941.7,442,943.6,444.5z"/>
			</g>
		</g>
		<g>
			<g>
				<path class="st11" d="M949.2,456.2l0.1,0.4c-0.1-0.3-0.2-0.5-0.3-0.9c-0.5-1.9-1.3-3.9-2.1-5.9c0.9,1.9,1.6,3.7,2.2,5.8
					C949.1,455.9,949.2,456,949.2,456.2z"/>
			</g>
		</g>
		<g>
			<g>
				<path d="M953,467.2l-3.2,1.6c-1.4,0.8-3.1,1.4-4.8,2c-1.3,0.5-2.8,1-4.5,1.3l-0.5,0.2h-0.5c-1.2,0.2-2.4,0.3-3.6,0.3
					c-0.8,0-1.6,0-2.6-0.1l-0.7-0.1c-5.9-0.7-10.6-3.3-12.8-7.2c-1.9-3.3-1.7-7.3,0.1-11.3c1.6-3.3,4.8-6.2,9.6-8.7
					c1.4-0.8,2.9-1.5,4.8-2.2c1.3-0.5,2.6-1,3.8-1.4l1.7-1.5c0.7,0.1,1.4,0.2,2.2,0.3l1.9,2.5c0.7,0.8,1.2,1.7,1.7,2.6l0.2,0.3
					c0.5,0.9,1,1.7,1.5,2.6l0.4,0.8v0.1c1,2.1,1.7,4.2,2.3,6.2c0.1,0.2,0.1,0.4,0.2,0.7l0.3,1.1v0.1L953,467.2z"/>
			</g>
		</g>
		<g>
			<g>
				<path class="st10" d="M948.3,464.8c-1.2,0.5-2.6,1.2-4.3,1.7c-1.3,0.5-2.8,0.9-4.4,1.2c0,0-0.1,0-0.2,0
					c-1.2,0.2-2.3,0.3-3.5,0.4c-1,0-1.9,0-2.7-0.1c-7-0.8-12.7-5.1-9.3-12.2c1.3-2.8,4.4-5.1,7.9-6.9c1.4-0.8,2.9-1.4,4.5-2.1
					c1.5-0.7,3.1-1.2,4.5-1.6h0.1c0.5,0.8,1.1,1.4,1.5,2.3c0.1,0.1,0.1,0.2,0.2,0.3c0.5,0.9,1,1.7,1.5,2.7c0,0.1,0,0.1,0.1,0.2
					c0.9,1.9,1.6,3.8,2.2,5.9c0.1,0.2,0.1,0.3,0.1,0.5l0.1,0.4l0,0l-0.8,4.3L948.3,464.8z"/>
			</g>
		</g>
		<g>
			<g>
				<path d="M956.6,484.8c0.1,0.3,0.4,0.5,0.9,0.8l-0.7-2.4C956.6,483.8,956.5,484.4,956.6,484.8z"/>
			</g>
		</g>
		<g>
			<g>
				<path d="M956.6,484.8c-0.1-0.3,0-1,0.2-1.6l-5.1-20.8l-3.3-0.2l-2-0.1l-0.7,0.7c-0.8,0.2-1.6,0.5-2.6,0.9c0,0-0.8,0.3-1,0.4
					c-1.9,0.7-3.4,1.3-4.8,2c-2,1-3.7,2-5,2.9c-2.8,2-4.9,4.2-6,6.7c-2,3.9-2,8,0,11.4c2.3,4,7.2,6.7,13.3,7.2
					c0.9,0.1,1.7,0.1,2.7,0.1c0.7,0,1.3-0.1,2-0.1h0.4c1.6-0.2,3.4-0.5,5.1-1.1c0.5-0.1,1-0.3,1.4-0.4c1.1-0.3,2.3-0.8,3.4-1.3
					l3.8-1.6l-0.9-3.7C957,485.4,956.7,485.1,956.6,484.8z"/>
			</g>
		</g>
		<g>
			<g>
				<path class="st10" d="M948.6,468.9l4.4,17.8c0,0-0.1,0-0.1,0.1c-1,0.4-2.1,0.9-3.3,1.2c-0.3,0.1-0.7,0.2-1,0.3
					c-1.4,0.4-2.9,0.8-4.5,1l0,0c-0.7,0.1-1.3,0.1-2,0.1c-8,0.2-15.6-4.3-11.8-12.1c0.9-1.9,2.5-3.5,4.6-4.9c1.4-1,2.9-1.9,4.5-2.6
					c1.4-0.8,2.9-1.3,4.4-1.9c0.3-0.1,0.7-0.2,1-0.3c1.2-0.4,2.4-0.8,3.4-1.1l0,0L948.6,468.9z"/>
			</g>
		</g>
		<g>
			<g>
				<path d="M956.6,484.8c0.1,0.3,0.4,0.5,0.9,0.9l-0.7-2.5C956.6,483.7,956.5,484.4,956.6,484.8z"/>
			</g>
		</g>
		<g>
			<g>
				<path d="M956.6,484.8c-0.1-0.3,0-1,0.2-1.6l-0.4-1.9l-4.9,4.2c-0.8,0.2-1.5,0.5-2.2,0.8c-0.3,0.1-0.8,0.2-1.1,0.4
					c-0.2,0.1-0.9,0.3-0.9,0.3c-1.1,0.4-2.2,1-3.3,1.5c-2,1.1-3.6,2.2-5,3.3c-1.6,1.4-2.9,2.9-3.7,4.7c-1.3,2.7-1.6,5.4-1.1,7.6
					c1.2,5.2,6.2,8.7,13.1,9.4c0.8,0.1,1.6,0.1,2.4,0.1h0.7c1.6-0.1,3.3-0.3,4.8-0.8c0.8-0.2,1.4-0.3,1.9-0.5
					c0.9-0.2,1.7-0.5,2.5-0.9l3.7-1.4l-3.7-15.3v-0.3v-0.5l-1.2-4.7l-0.9-3.5C957,485.4,956.7,485.1,956.6,484.8z"/>
			</g>
		</g>
		<g>
			<g>
				<path d="M944.6,448.1c0,0,2,3.3,2.3,4.2c0.3,0.9,2.8,9.5,2.8,9.5s0.9,0.1,1.3-1.3c0.4-1.4,3.5-13.4-1.9-17.1s-9.6-3.2-9.6-3.2"
					/>
			</g>
		</g>
		<g>
			<g>
				<path d="M956.8,471.6c-3.4-5.7-7.3-10.8-7.3-10.8l1.4,10.9c0,0,1.9,6.2,2,6.6c0.1,0.3,1.9,6.7,1.9,6.7S960.2,477.3,956.8,471.6z
					"/>
			</g>
		</g>
		<g>
			<g>
				<path d="M962.1,488.7c-2.6-2.9-5.1-2.7-5.6-3.9c-0.2-0.7,0.3-2.1,0.9-3.2c-2-0.8-3.4-0.8-3.4-0.8l6.9,27.6c0,0,2.1-4.5,3.4-9.6
					C964.7,495.7,964.2,491.1,962.1,488.7z"/>
			</g>
		</g>
		<g>
			<g>
				<path class="st10" d="M945.3,462.7c0,0,5.9-2.2,4.3-9.9s-8.8-7.6-8.8-7.6"/>
			</g>
		</g>
		<g>
			<g>
				<path class="st10" d="M951.4,485.5c0,0,4.5-2.5,3.1-8.4s-4.4-11-6.7-10.6"/>
			</g>
		</g>
		<g>
			<g>
				<path class="st10" d="M962.5,493.1c-0.4-6.4-7.8-4-8.7-3.7l0,0h-0.1c-0.9,0.3-1.9,0.7-2.8,1c-0.3,0.1-0.5,0.2-0.9,0.3
					c-0.3,0.1-0.5,0.2-0.9,0.3c-1,0.4-2,0.9-2.9,1.4c-1.5,0.8-2.9,1.7-4.2,2.7c-1.1,1-2.1,2.1-2.6,3.2c-0.9,1.7-1.1,3.4-0.8,4.7
					c0.9,3.9,5.9,6,11,5.9c0.1,0,0.3,0,0.5,0c1.4-0.1,2.7-0.3,4-0.7c0.5-0.1,1.1-0.3,1.6-0.4c0.7-0.2,1.2-0.4,1.7-0.7l0,0l0,0
					c0.1,0,0.3-0.1,0.4-0.1l-0.1-0.3C959,505.1,962.8,499,962.5,493.1z"/>
			</g>
		</g>
		<g>
			<g>
				<path d="M961.6,488.2c-0.4-0.2-0.9-0.4-0.9-0.4v-0.3c-0.5-0.4-1-0.8-1.4-1l-5.4,2.8c0,0,3.5,0.1,4.7,3.1s2,7.5,2.2,9
					c0.2,1.3,2.3-2.2,2.6-3.6c0.2-0.7,0.5-1.4,0.9-2.3c-0.2-2.5-0.9-5-2.3-6.7C961.9,488.5,961.7,488.4,961.6,488.2z"/>
			</g>
		</g>
		<g>
			<g>
				<path class="st10" d="M960.5,499.2c0,0,1,4.7,0.2,6.3c-0.8,1.6-3.7,2.1-3.7,2.1"/>
			</g>
		</g>
		<g>
			<g>
				<path d="M960.7,487.4c0,0-2-1.1-2.6-2.8c-0.7-1.7-0.2-3.7,0.1-4.5s-1.1-1.4-1.9,0.1c-0.8,1.6-0.9,1.2-1,3.1s1.3,3.1,1.4,3.3"/>
			</g>
		</g>
		<g>
			<g>
				<path d="M963.3,509.9c0,0,3.7-8.5,2.1-15.4s-5-8.7-5.8-11.7c-0.8-2.8-0.8-5.7-0.8-5.7s-2.7,3.1-2.7,5.2
					c-0.1,2.2-1.5,2.5-0.1,3.6c1.5,1,1.6,0.9,3.2,2.4c1.5,1.6,1.3,1.9,1.9,2.7c0.5,0.9,0.3,0.2,0.9,1.5c0.5,1.3,0.7,1.6,1,2.3
					c0.3,0.7,0.3,1,0.3,2.3s-0.4,3.1-0.7,4.4c-0.2,1.2-0.4,2.3-0.5,2.7s-1,1-1.1,1.7c-0.1,0.8-0.4,1.1-0.1,1.5"/>
			</g>
		</g>
		<g>
			<g>
				<path class="st10" d="M952.1,489.9c0,0,3.9-2.4,7.2,0.3c3.3,2.7,2.7,8.4,2.7,11.4c0,3.1-1.5,4.5-2.3,4.9"/>
			</g>
		</g>
	</g>
	<g>
		<g>
			<path class="st0" d="M927.5,432.5l-9.2-11.7l5.8-1.3c0,0,5.4,9,7.5,11.3"/>
		</g>
	</g>
	<g>
		<g>
			<path class="st0" d="M884.7,429.6c0,0,2.5,6.8,4,8.6c1.5,2,1.1,2.1,1.5,2s6.3-3.4,6.8-3.7s-3.3-0.5,2.9-1.6s14.7-3.3,15.9-3.7
				c1.2-0.5,1.5-2.4,4.2-2.7c2.6-0.3,3.3-1.3,3.3-1.3s0.4-3.4,0.3-3.9c-0.1-0.7-4.5-1.5-4.5-1.5l-8.6-0.4"/>
		</g>
	</g>
	<g>
		<g>
			<path class="st8" d="M907.2,508c0,0-1.2-11-3.5-17.1s-0.8-7.2,0-11.6s3.5-16.7,3.5-16.7l11.6,0.3c0,0-1.9,3.9-0.8,8.3
				c1.1,4.4,0.2,7.8,0.8,11.1"/>
		</g>
	</g>
	<g>
		<g>
			<path d="M885.5,443.2c0,0-2.6-3.4-1.7-10.3c0.9-6.9,2-22.4,2.2-24.1s-1.4-4.8-1.4-4.8s-2.3,1.9-2.5,2.6
				c-0.2,0.8,0.7,10.6,0.7,11.3c0,0.7-0.7,3.7-0.7,3.7s-1,7.1-1.1,8.8c-0.1,1.7-0.3,4.9-0.3,4.9s0,4,0.2,4.6
				c0.2,0.7,0.4,2.1,0.4,2.1"/>
		</g>
	</g>
	<g>
		<g>
			<path d="M885.5,441c0,0-1.3-5.9,0.3-12.6c1.7-6.8,0.8-22.3,0.4-23.7s-4,5-3.4,6.8c0.7,1.7,0.2,4.6-0.1,8.3
				c-0.2,3.7-0.9,7-1.2,7.8c-0.2,0.8-0.5,0.7-0.7,1.7c-0.1,1.1,0,4.7-0.2,5.4c-0.2,0.7-0.2,2.4-0.2,2.4"/>
		</g>
	</g>
	<g>
		<g>
			<path d="M906.8,397.6c0,0,4.2,10,10,16.7c6,6.7,11.8,14.1,14.9,18s6.7,10.3,6.7,10.3l2.2-1.6c0,0-2.3-6.4-2.9-7.2
				c-0.8-0.8-5.6-4.9-6.1-6.1c-0.4-1.2-2.5-2.7-3.6-4.7c-1.1-1.9-4.2-6.6-4.2-6.6"/>
		</g>
	</g>
	<g>
		<g class="st12">
			<g>
				<g>
					<polyline points="230.2,850.6 420.7,930 779,898.7 682.9,806.2 					"/>
				</g>
			</g>
		</g>
		<g>
			<g>
				<g>
					<path d="M688.1,892.4h36.8c7.4,0,13.4-6,13.4-13.4v-66.5h-63.7V879C674.7,886.4,680.7,892.4,688.1,892.4z"/>
				</g>
			</g>
			<g>
				<g>
					<path class="st1" d="M711.9,895.5h-10.8c-16.4,0-29.7-13.3-29.7-29.7V809h70.1v56.8C741.6,882.2,728.3,895.5,711.9,895.5z
						 M677.9,815.6V866c0,12.8,10.4,23.3,23.3,23.3H712c12.8,0,23.3-10.4,23.3-23.3v-50.4H677.9z"/>
				</g>
			</g>
		</g>
		<g>
			<g>
				<g>
					<path d="M379.6,908.1h36.8c7.4,0,13.4-6,13.4-13.4v-66.5h-63.7v66.5C366.2,902.1,372.2,908.1,379.6,908.1z"/>
				</g>
			</g>
			<g>
				<g>
					<path class="st1" d="M403.4,911.4h-10.8c-16.4,0-29.7-13.3-29.7-29.7v-56.8H433v56.8C433.1,898,419.8,911.4,403.4,911.4z
						 M369.5,831.3v50.4c0,12.8,10.4,23.3,23.3,23.3h10.8c12.8,0,23.3-10.4,23.3-23.3v-50.4H369.5z"/>
				</g>
			</g>
		</g>
		<g>
			<g>
				<g>
					<path d="M264.7,861.9h36.8c7.4,0,13.4-6,13.4-13.4V782h-63.7v66.5C251.3,855.9,257.3,861.9,264.7,861.9z"/>
				</g>
			</g>
			<g>
				<g>
					<path class="st1" d="M288.5,865.2h-10.8c-16.4,0-29.7-13.3-29.7-29.7v-56.8h70.1v56.8C318.2,851.8,304.9,865.2,288.5,865.2z
						 M254.4,785.1v50.4c0,12.8,10.4,23.3,23.3,23.3h10.8c12.8,0,23.3-10.4,23.3-23.3v-50.4H254.4z"/>
				</g>
			</g>
		</g>
		<g>
			<g>
				<g>
					<path class="st13" d="M347.7,169c0-0.7-0.7-1.1-1.2-0.9c-33,12.2-65.8,26.4-97.9,42.4c-12,6-20.9,19.9-21,32.4
						c-2,224.1-3.9,321.1-5.9,542.6c-0.1,12.3,8.3,26,20.1,32.4c34.7,18.7,70.1,35.5,105.8,50.1L347.7,169L347.7,169z"/>
				</g>
			</g>
			<g>
				<g>
					<path class="st1" d="M350.9,872.9l-6.4-2.2c-35.1-14.3-68.7-30.9-104.2-49.9c-12.8-6.9-21.8-21.7-21.7-35.3
						c1-109.7,2-190.3,2.9-268.2c1-79.3,2-161.4,2.9-274.5c0.1-14,9.7-28.8,22.7-35.3c32.6-16.1,65.6-30.4,98.2-42.5
						c1.3-0.4,2.7-0.3,3.8,0.4c1.1,0.8,1.7,2.1,1.7,3.4v704.1H350.9z M344.4,172.4c-31.4,11.8-63,25.6-94.4,41.1
						c-10.8,5.4-19.1,18.1-19.2,29.6c-1,113.1-2,195.2-2.9,274.5c-1,77.9-2,158.4-2.9,268.1c-0.1,11.1,7.8,23.8,18.4,29.6
						c33.8,18.1,67.7,34.3,101.2,48.2V172.4H344.4z"/>
				</g>
			</g>
		</g>
		<g>
			<g>
				<g>
					<path class="st8" d="M750.3,838.9c-129.7,46-268.9,55.7-402.6,29.2V169.5c0-1,0.7-1.9,1.6-2.1
						c133.2-26.1,271.8-16.3,400.9,29.5c11,3.9,20,16.7,20,28.1c0,237.3,0,348.8,0,586C770.2,822.3,761.3,835,750.3,838.9z"/>
				</g>
			</g>
			<g>
				<g>
					<path class="st1" d="M496,885.9c-49.9,0.8-101.7,5.5-148.9-14.6l-2.6-0.5V169.5c0-2.5,1.7-4.7,4.3-5.2
						c134.5-26.3,273.6-16.1,402.6,29.6c12.2,4.4,22.1,18.4,22.1,31.1v586c0,12.8-9.9,26.8-22.1,31.1l0,0
						C669.1,871.2,582.7,885.9,496,885.9z M350.9,865.5c132.9,25.9,270.7,15.7,398.3-29.5l0,0c9.6-3.5,17.8-14.9,17.8-25V225
						c0-10-8.2-21.5-17.8-25c-127.6-45.2-265.2-55.5-398.3-29.5L350.9,865.5L350.9,865.5z"/>
				</g>
			</g>
		</g>
		<g>
			<g>
				<g>
					<path class="st3" d="M746.3,838.9c10.9-3.9,19.8-16.7,19.8-28.1c0-35.4,0-69.4,0-102.2c-2.4-1.7-3.7-2.7-3.7-2.7s0,17.7,0,32.3
						s-23.5,39.1-92.3,52.3c-68.8,13.1-227.6,21.7-271.1,7.9c-43.5-13.9-47.4-143.5-47.4-143.5l-0.3,5.5c0,66.2-3.5,134.8-3.5,207.8
						C480.1,894.7,618,884.9,746.3,838.9z"/>
				</g>
			</g>
		</g>
		<g>
			<g>
				<g>
					<path class="st14" d="M458.7,169.6c0,0,52-10,117.4,1.1s90.1,21.2,86,28c-4.2,6.8-81.2-0.2-136.9-4.7
						C469.5,189.4,445.9,178.2,458.7,169.6z"/>
				</g>
			</g>
		</g>
		<g>
			<g>
				<g>
					<path class="st14" d="M761.9,254.4v161.1C761.9,415.7,751.5,305.9,761.9,254.4z"/>
				</g>
			</g>
		</g>
		<g>
			<g>
				<g>
					<path class="st8" d="M237.9,239.1c0,0,2.8-16.1,21.2-24.1c18.4-8.1,71.8-32,75.9-31.7c4.2,0.3,2.8,27.9,2.8,27.9
						s-7.4-19.2-19.7-15.6c-12.2,3.6-55.1,23-61.9,28.9C249.4,230.4,237.9,239.1,237.9,239.1z"/>
				</g>
			</g>
		</g>
		<g>
			<g>
				<g>
					<g>
						<g>
							<g>
								<path class="st15" d="M457.7,638.2c-15.7,0-31.7,0-47.3-0.1c-16.1-0.1-29.1-14.4-29.1-31.8V232.8
									c0-17.4,12.9-32.2,28.7-33.1c15.7-0.9,31.8-1.3,47.6-1.3c71.2,0,142,8.7,210.4,25.9c15,3.8,26.8,19.3,26.8,35.3v345.2
									c0,16.3-12.7,29.9-28.2,30.4C598.6,637.2,528.4,638.2,457.7,638.2z"/>
							</g>
						</g>
					</g>
					<g>
						<g>
							<g>
								<path class="st16" d="M388.1,606.3c0-123.2,0-250.3,0-373.5c0-13.8,9.9-25.7,22.3-26.3c85.9-4.7,172.5,3.4,255.9,24.4
									c12,3.1,21.6,16.1,21.6,28.7c0,113.8,0,231.4,0,345.2c0,12.7-9.6,23.3-21.6,23.7c-83.5,2.6-170.1,3.6-255.9,2.9
									C398.1,631.2,388.1,619.9,388.1,606.3z"/>
							</g>
						</g>
					</g>
				</g>
				<g>
					<g>
						<g>
							<path class="st15" d="M681.3,259.9c0-0.1,0-0.1,0-0.2v-0.2l0,0c-0.2-9.6-7.6-19.4-16.5-21.7
								c-52.4-13.1-106.3-21.3-160.7-24.2c-5.4-0.2-10.7-0.5-16.1-0.7c-4.3-0.1-8.5-0.2-12.8-0.3c-5.9-0.1-11.8-0.2-17.7-0.2
								c-8.4,0-16.8,0.1-25.2,0.4c-7.2,0.2-14.4,0.5-21.6,0.9c-8.5,0.4-15.7,9.2-15.9,19.2l0,0v0.4l0,0l0,0v373
								c0,10,7,18.2,15.6,18.2c15.6,0.1,31.6,0.1,47.2,0.1c70.6,0,140.7-1.1,208.5-3.2c8.3-0.3,15.1-7.9,15.1-16.9L681.3,259.9
								L681.3,259.9z"/>
						</g>
					</g>
				</g>
			</g>
			<g>
				<g>
					<g>
						<g>
							<g>
								<path class="st15" d="M443.4,579c-7.9,0-14.2-6.3-14.2-14.2V279.3c0-7.8,6.2-14.1,14-14.2c3.5,0,7-0.1,10.5-0.1
									c23,0,46.4,1,69.5,2.9c7.3,0.7,13,6.9,13,14.2v282.2c0,7.8-6.3,14.1-14.1,14.2c-23,0.2-46.1,0.3-68.4,0.3L443.4,579z"/>
							</g>
						</g>
					</g>
					<g>
						<g>
							<g>
								<path class="st0" d="M529.5,282.2c0-3.8-2.9-7.1-6.8-7.4c-22.8-2-45.9-2.9-68.9-2.9c-3.5,0-6.9,0-10.4,0.1
									c-4,0-7.3,3.4-7.3,7.4v285.3c0,4.2,3.3,7.4,7.4,7.4c3.5,0,6.9,0,10.4,0c22.8,0,45.7-0.1,68.4-0.3c4,0,7.3-3.4,7.3-7.4V282.2
									H529.5z"/>
							</g>
						</g>
					</g>
					<g>
						<g>
							<g>
								<path class="st15" d="M466,294.5c11.3,0.2,22.6,0.5,33.9,1.3c3.9,0.2,7,3.5,7,7.4v238.9c0,4-3.3,7.4-7.4,7.4
									c-11.3,0.1-22.5,0.1-33.5,0.1c-4.2,0-7.4-3.3-7.4-7.4V302C458.6,297.8,461.9,294.4,466,294.5z"/>
							</g>
						</g>
					</g>
					<g>
						<g>
							<g>
								<path class="st15" d="M558.9,579.2c-7.9,0-14.2-6.3-14.2-14.2V286.1c0-7.9,6.3-14.2,14.2-14.2c0.5,0,1.1,0,1.7,0.1
									c25.2,3.1,50.6,7.4,75.3,12.8c6.4,1.4,11.1,7.2,11.1,13.9v264.9c0,7.8-6.1,14-13.9,14.2
									C608.7,578.5,583.8,578.9,558.9,579.2L558.9,579.2L558.9,579.2z"/>
							</g>
						</g>
					</g>
					<g>
						<g>
							<g>
								<path class="st0" d="M551.4,286.1V565c0,4.2,3.4,7.5,7.5,7.4c24.9-0.3,49.6-0.9,74-1.4c4-0.1,7.2-3.4,7.2-7.4V298.7
									c0-3.5-2.4-6.6-5.8-7.3c-24.6-5.4-49.5-9.6-74.6-12.7C555.3,278.3,551.4,281.7,551.4,286.1z"/>
							</g>
						</g>
					</g>
					<g>
						<g>
							<g>
								<path class="st15" d="M573.9,303.4c14.6,2.1,29.3,4.6,43.7,7.5v237.9c-14.5,0.3-29.1,0.7-43.7,0.9V303.4z"/>
							</g>
						</g>
					</g>
				</g>
				<g>
					<g>
						<g>
							<circle class="st0" cx="458.6" cy="327.2" r="17.5"/>
						</g>
					</g>
				</g>
				<g>
					<g>
						<g>
							<circle class="st0" cx="573.9" cy="343.6" r="17.5"/>
						</g>
					</g>
				</g>
			</g>
		</g>
		<g>
			<g>
				<g>
					<g>
						<g>
							<path class="st3" d="M651.9,747.5c13.2-13,17-31.2,14.2-54.1c-2.8-22.8-10.3-31.3-31.2-28.4c-57.1,8-114.9,11-173.6-0.1
								c-12.6-2.4-23.7,2.8-24.8,17.7c-2.1,26.5-1.5,53.4,23,70.1c1.2,1,2.5,2,3.7,2.8l1.4,0.9c0,0,25,23.8,79.1,21.4
								c54-2.3,87.4-8.2,108-30.4l0,0C651.8,747.6,651.9,747.6,651.9,747.5L651.9,747.5z M456.3,700.2c-6.2-2.3-10.3-7.8-8.5-15.4
								c1.5-6.8,7.1-8.1,12.7-7.4c9.2,1,18.2,2.9,27.4,3.8c48.8,5,97.1,3.7,144.5-4c8.3-1.4,18.2-4.8,21.3,7.9
								c3.2,13.3-8,15.6-16.5,17.9c-25.8,7-52.7,6.2-79.4,7.2c-25.6,0.2-51.1,2.2-76.7-2.7C472.7,705.9,464.4,703.3,456.3,700.2z
								 M472.5,749.5c29.5-27.2,108.6-25.7,142.1-0.1l-126.7,6.1C482.8,753.7,477.6,751.8,472.5,749.5z"/>
						</g>
					</g>
				</g>
				<g>
					<g>
						<g>
							<path class="st17" d="M644.7,742.6c12.7-12.5,16.4-29.9,13.7-51.8c-2.7-22-9.8-30-29.9-27.3c-54.8,7.6-110.1,10.6-166.4-0.1
								c-12-2.3-22.7,2.7-23.8,16.9c-2,25.5-1.5,51.2,22.1,67.3c1.2,0.9,2.4,1.9,3.5,2.7l1.4,0.9c0,0,23.9,22.8,75.8,20.5
								C592.8,769.5,624.9,763.8,644.7,742.6L644.7,742.6C644.6,742.6,644.7,742.6,644.7,742.6L644.7,742.6z M457.2,697.2
								c-5.9-2.2-9.8-7.4-8.1-14.7c1.5-6.6,6.9-7.8,12.1-7.2c8.7,1,17.5,2.7,26.3,3.7c46.9,4.8,93.1,3.6,138.5-3.9
								c8-1.3,17.5-4.6,20.4,7.5c3.1,12.8-7.6,15-15.7,17.1c-24.7,6.8-50.5,6-76.1,6.9c-24.5,0.2-49,2.1-73.5-2.6
								C472.9,702.6,464.9,700.1,457.2,697.2z M472.7,744.5c28.3-26.1,104.1-24.6,136.2-0.1l-121.5,5.9
								C482.5,748.5,477.6,746.6,472.7,744.5z"/>
						</g>
					</g>
				</g>
				<g>
					<g>
						<g>
							<path class="st18" d="M554.4,706.8c-24.5,0.2-48.9,2.1-73.5-2.6c-8.1-1.5-16.1-4-23.8-7c-5.9-2.2-9.8-7.4-8.1-14.7
								c1.5-6.6,6.9-7.8,12.1-7.2c8.7,1,17.5,2.7,26.3,3.7c46.9,4.8,93.1,3.6,138.5-3.9c8-1.3,17.5-4.6,20.4,7.5
								c3.1,12.8-7.6,15-15.7,17.1C606,706.6,580.1,705.8,554.4,706.8z"/>
						</g>
					</g>
				</g>
				<g>
					<g>
						<g>
							<path class="st8" d="M613.8,748.5c-47.4,12.1-93,17.1-141.1-4C502.5,716.9,585.2,720.1,613.8,748.5z"/>
						</g>
					</g>
				</g>
			</g>
			<g>
				<g>
					<g>
						<path class="st17" d="M475.9,656c-0.8,0.5-39.4-0.4-45.9,43.1c0,0-20.4-49.9,45.1-42.6"/>
					</g>
				</g>
			</g>
			<g>
				<g>
					<g>
						<path class="st17" d="M621.1,656.3c9.2,1,37.6,6.1,42.9,42.8C664.1,699.1,684.2,650.3,621.1,656.3z"/>
					</g>
				</g>
			</g>
			<g>
				<g>
					<g>
						<path class="st17" d="M517.6,788.4c1,0.1,30.3,16.2,84.5-3.4c0,0-44.7,36-83.6,3.6"/>
					</g>
				</g>
			</g>
		</g>
		<g>
			<g>
				<g>
					<g>
						<path class="st1" d="M252.1,548.8c-0.8,0-1.5-0.2-2.1-0.8c-0.8-0.7-1.1-1.5-1.1-2.4v-53.1c0-1.5,1.1-2.8,2.6-3.2
							c16.7-3.3,33.5-6.6,50.6-9.8c1-0.2,2,0.1,2.6,0.7c0.8,0.7,1.2,1.5,1.2,2.5v54.8c0,1.6-1.2,2.9-2.7,3.2
							c-16.9,2.7-33.9,5.5-50.6,8.1C252.5,548.8,252.4,548.8,252.1,548.8z M255.4,495.2v46.6c14.6-2.3,29.3-4.7,44-7v-48.2
							C284.7,489.5,270.1,492.3,255.4,495.2z M302.7,537.6L302.7,537.6L302.7,537.6z"/>
					</g>
				</g>
			</g>
			<g>
				<g>
					<g>
						<path class="st1" d="M257.9,534.7c-1,0-2-0.3-2.7-1c-1-0.8-1.5-2-1.5-3.3v-26.7c0-2.1,1.5-3.8,3.5-4.3l25.2-4.7
							c1.3-0.2,2.5,0.1,3.5,0.9s1.5,2.1,1.5,3.3V526c0,2.1-1.5,3.9-3.6,4.3c-8.4,1.4-16.8,2.8-25.2,4.3
							C258.4,534.7,258.2,534.7,257.9,534.7z M283.1,526.2L283.1,526.2L283.1,526.2z M262.2,507.4v18c5.6-1,11-1.9,16.6-2.8v-18.2
							L262.2,507.4z"/>
					</g>
				</g>
			</g>
		</g>
		<g>
			<g>
				<g>
					<g>
						<path class="st1" d="M163.3,701.4c-8.7,0-16.3-6.7-17.1-15.5c-7.8-79.4,25.1-126.4,54.1-151.8c31.1-27.4,64.3-35.8,65.6-36.2
							c9.2-2.3,18.6,3.4,20.9,12.6c2.3,9.2-3.3,18.6-12.6,20.9c-4.5,1.2-105.7,28.6-93.8,151.2c0.9,9.5-6,17.9-15.5,18.8
							C164.5,701.4,164,701.4,163.3,701.4z"/>
					</g>
				</g>
			</g>
			<g>
				<g>
					<g>
						<path d="M250.3,673.8c0,0,54.5,74.9,31,110.3c0,0-35.2-30.7-37.1-32.8c-2-2.2-8.1-28.4-8.1-28.4v-3.4"/>
					</g>
				</g>
			</g>
			<g>
				<g>
					<g>
						<g>
							<path d="M250.2,751.6c-8.3,0-15.3-3.4-19.4-9.6c-3.4-4.9-4.6-11.4-2.9-15.6l0.7-1.6l1.4-0.7c1.3-0.9,3.3-1.6,6-1.6
								c3.4,0,7.2,1.3,11.4,3.8c5.4,3.4,11,5.2,15.8,5.2c2.7,0,5.1-0.5,7.1-1.6c0.5-0.3,1-0.7,1.4-1l6.4,5.5
								C276.5,737.1,267.2,751.6,250.2,751.6z"/>
						</g>
					</g>
				</g>
				<g>
					<g>
						<g>
							<path class="st19" d="M272.4,733.5c-7.5,4.3-18,2.2-27.4-3.6c-7.6-4.8-11.5-3.1-12.7-2.3c0,0-0.1,0-0.1,0.1
								c-0.2,0.1-0.3,0.2-0.3,0.2l0.1-0.1c-0.1,0-0.1,0.1-0.2,0.1c-2,4.9,2.3,19.3,18.4,19.3c14.7,0,22.8-12.7,24.2-15.1
								C273.8,732.7,273.1,733.1,272.4,733.5z"/>
						</g>
					</g>
				</g>
				<g>
					<g>
						<g>
							<path d="M263.2,740.1c-6.4,0-13.8-2.3-20.4-6.6c-3.6-2.2-5.8-2.5-6.8-2.5c-0.9,0-1.2,0.2-1.2,0.2s0.1-0.1,0.3-0.2l-6.4-5.8
								c3.3-3.9,4.9-4.4,10.2-5.2c1.6-0.3,3.8-0.7,6.8-1.3c6.3-1.3,6.4-1.5,7.9-5.5c0.5-1.5,1.2-3.4,2.3-5.7
								c2.6-5.5,7.1-8.5,12.3-8.5c5.5,0,10.8,3.5,13.9,9.2c5.6,10.4,2.2,23.7-7.5,29.1C271.2,739.1,267.3,740.1,263.2,740.1z"/>
						</g>
					</g>
				</g>
				<g>
					<g>
						<g>
							<path class="st20" d="M231.9,728c0,0,3.8-3.8,13.1,2s19.8,7.9,27.4,3.6c7.5-4.3,10.4-14.9,5.8-23.3
								c-4.6-8.4-14.3-9.7-18.6-0.9c-4.3,9-1.7,11-13.2,13.4C235,725.3,235.1,724,231.9,728z"/>
						</g>
					</g>
				</g>
			</g>
			<g>
				<g>
					<g>
						<g>
							<path d="M277.9,694.9c-6.2-0.9-11-4.2-13.4-9.2c-2-4-2.2-9-0.5-11.9l0.7-1.1l1.1-0.3c1.1-0.4,2.6-0.9,4.7-0.7
								c2.5,0.3,5.2,1.7,8.1,4c3.6,3.1,7.6,5,11.3,5.6c2,0.3,3.8,0.1,5.5-0.5c0.4-0.1,0.8-0.3,1.2-0.5l4.3,4.8
								C299,687,290.6,696.7,277.9,694.9z"/>
						</g>
					</g>
				</g>
				<g>
					<g>
						<g>
							<path class="st19" d="M296.4,683.8c-6.1,2.3-13.7-0.3-20-5.7c-5.1-4.4-8.3-3.5-9.2-3.1c0,0,0,0-0.1,0
								c-0.2,0.1-0.2,0.1-0.2,0.1s0,0,0.1-0.1h-0.1c-2,3.5-0.3,14.6,11.6,16.3c10.9,1.5,18.4-7,19.7-8.6
								C297.6,683.4,296.9,683.6,296.4,683.8z"/>
						</g>
					</g>
				</g>
				<g>
					<g>
						<g>
							<path d="M288.8,687.8c-4.8-0.7-9.9-3.2-14.5-7c-2.4-2.1-4-2.5-4.8-2.6c-0.7-0.1-1,0-1,0s0.1,0,0.2-0.2l-4.2-4.9
								c2.8-2.6,4.2-2.7,8.1-2.8c1.3,0,2.9-0.1,5.2-0.2c4.9-0.3,5-0.4,6.4-3.2c0.5-1.1,1.3-2.4,2.3-4c2.5-3.7,6.2-5.6,10.2-5
								c4,0.5,7.6,3.8,9.4,8.3c3.1,8.3-0.9,17.9-8.7,20.9C294.9,688,291.9,688.2,288.8,687.8z"/>
						</g>
					</g>
				</g>
				<g>
					<g>
						<g>
							<path class="st20" d="M266.8,675.4c0,0,3.3-2.5,9.5,2.8c6.2,5.4,14,8,20,5.7s9.3-9.9,6.8-16.7s-9.6-8.8-13.8-2.6
								s-2.5,8.1-11.3,8.6C269.3,673.8,269.6,672.8,266.8,675.4z"/>
						</g>
					</g>
				</g>
			</g>
			<g>
				<g>
					<g>
						<g>
							<path d="M278.1,778.8c-22.3-33.5-31.8-66-28.8-99.1l0.7-7L223.1,692l-88.9,25.5l-31.8-0.3l34.1,112l23.4-18.4l94.2-26.9h27.5
								L278.1,778.8z M253.5,780.6l-95.3,27.2l-20.1,15.7l-31.5-103.1l27.9,0.3l89.9-25.7l21.6-15.5c-3.2,35.1,7.8,68.7,29.4,101.2
								L253.5,780.6z"/>
						</g>
					</g>
				</g>
				<g>
					<g>
						<g>
							<g>
								<path class="st8" d="M242.5,686L226,697.9l-0.5,0.1l-90.3,25.8l-23.9-0.2l28.7,94.5l16.9-13.3l96.3-27.4h16.5
									C250.4,747,241.3,716.3,242.5,686z"/>
							</g>
						</g>
					</g>
					<g>
						<g>
							<g>
								<path class="st21" d="M226.1,750c0.5-15.1-15.8-10.2-15.8-10.2s-15.3,3.8-17.8,8.3s-4.3,10.9-4.8,12.2l25.3,12.5
									C212.9,773,225.5,765.1,226.1,750z"/>
							</g>
						</g>
					</g>
					<g>
						<g>
							<g>
								<path class="st20" d="M266.5,780.6L266.5,780.6c0,0-50.7-0.3-73.4-25c-22.7-24.8-61.3-31.9-61.3-31.9l-14.6-3.2l-10.4-0.1
									l31.3,103.1l20.2-15.8l95.3-27.2L266.5,780.6z"/>
							</g>
						</g>
					</g>
					<g>
						<g>
							<g>
								<path class="st19" d="M118.2,728.5l12.7-3.2l-5.7-3.2l-8.1-1.7l-10.4-0.1l31.4,103.2l20.2-15.8l47.2-13.4
									c4.4-3.3,7.2-5.5,7.2-5.5L142.1,805L118.2,728.5z"/>
							</g>
						</g>
					</g>
					<g>
						<g>
							<g>
								<path class="st19" d="M216.3,770.8c-8.7-3.6-17-8.5-23.3-15.3c-3.2-3.5-6.7-6.6-10.3-9.3c-7.6-1-13.7-1.7-13.7-1.7
									l-14.1,4.3l-2.3,19.2c0,0,12.1,13.9,31.9,13.3C201.1,780.7,212.9,773.2,216.3,770.8z"/>
							</g>
						</g>
					</g>
					<g>
						<g>
							<g>
								<path d="M246.1,679.5L224.5,695l-89.9,25.7l-27.9-0.3l31.4,103.2l20.2-15.8l95.3-27.2h22C253.9,748.2,243,714.5,246.1,679.5
									z M253,777.3l-96.3,27.4L139.8,818L111,723.6l23.9,0.2l90.3-25.8l0.5-0.1l16.5-11.9c-1.1,30.3,8,61,27.1,91.3H253z"/>
							</g>
						</g>
					</g>
				</g>
			</g>
			<g>
				<g>
					<g>
						<g>
							<g>
								<path d="M192.7,775.5c-1,0-2-0.1-2.9-0.3c-1.6-0.4-3.3-0.7-5.2-0.7c-2.1,0-4.2,0.2-6.3,0.4l-1.5,0.1c-0.7,0.1-1.3,0.1-2,0.1
									c-5.8,0-11-2.4-15.5-7.1c-1,0.2-2,0.3-2.8,0.3c-3.2,0-5.7-1.3-7.3-2.3c-5.4-3.3-9.2-7.8-11.3-13.2l-0.9-2.3
									c-2.9-6.2-4-12.9-5-19.3l-0.3-1.7c-1.9-9.4-1.4-18.2,1.1-26.9c0.7-2.2,1.4-4.5,2.8-6.7l0.3-0.5c-1.2-1.2-1.7-2.8-1.6-5.2
									V690c0.1-3.3,1.4-8.1,7.1-12.2c9.8-7.2,20.9-11.5,32.9-12.8c1.1-0.1,2.2-0.2,3.2-0.2c3.3,0,6.3,0.5,9.1,1.7
									c6.7,2.8,8.1,7.1,8.1,10.4c2.7,0.8,6,1.9,8.5,3.9c2.3-0.5,4.7-1.1,6.8-2.4l0.9-0.5c2.6-1.6,5.5-3.3,8.7-4.4
									c2.6-0.9,5.2-1.4,7.8-1.4c8.1,0,13.7,5,13.8,12.5c0.1,8.4-6.6,17.5-15.9,21.5c-3.2,1.3-6.3,2.1-9.7,2.1c-0.1,0-0.2,0-0.3,0
									c0.2,0.7,0.4,1.2,0.7,1.9c0.9,2.4,1.9,4.8,3.1,7.1c2.4,4.3,4.5,9,6.3,14.2c1.6,4.7,3.3,10.9,1.4,18
									c-2.2,8.2-7.9,13.2-16.5,14.7C206.6,770.5,199.1,775.5,192.7,775.5z M155.6,737.5c2.5,0.3,5.7,1.6,6.2,6.6
									c0,0.1,0,0.2,0,0.3c1.1,6,2.6,10.7,4.8,15c1.5,2.9,5.1,4.9,9.2,5.2c-2.5-4.9-3.7-10.2-4.8-15.3c-0.2-1.1-0.4-2.2-0.8-3.4
									c-0.7-2.9-1.4-6.4-1.5-10.2l-0.5-13.1l8.2,10.3c3.1,3.8,4.4,8.2,5.2,11.5l0.5,2.3c1.2,4.8,2.3,9.4,4.5,13.4
									c0.7,1.3,1.4,2.2,2.3,2.9c0.8,0.7,2,1,3.4,1c2.5,0,5.1-1.2,6.7-2.9c-4.7-3.8-6.2-9-7.8-13.5l-0.2-0.8
									c-1.5-4.8-2.4-9.7-3.3-14.9l7.6-3.3c3.1,4,4.5,8.4,5.9,12.7l0.5,1.6c1,2.9,1.9,5.7,3.5,8c1.4,2.1,2,2.3,2.9,2.3
									c0.2,0,0.5,0,0.9-0.1c2.2-0.3,3.5-1.5,5.1-4.2c1.5-2.6,1.6-5.1,0.7-9c-1.9-6.6-4.7-12.8-7.6-19.2c-0.7-1.4-1.3-2.8-2-4.3
									c-1.5-3.5-3.3-7.5-3.3-12.2c-1.3-0.8-3.7-2.5-3.6-5.9l0.1-4.2h4.2c2.6,0,4.6,0.8,6.1,1.4c0.5,0.2,1.1,0.4,1.6,0.5
									c1.4,0.4,2.9,0.7,4.4,0.7c6.1,0,11.4-3.6,13.2-9.2c1-2.9,0.5-3.3,0.4-3.4c-0.3-0.2-0.9-0.5-2-0.5c-1.5,0-3.5,0.5-4.9,1
									c-1.7,0.5-3.4,1.5-5.2,2.6c-0.9,0.5-1.9,1.1-2.8,1.6c-3.6,1.9-7.2,2.8-11.3,2.8c-2.3,0-4.7-0.3-7.4-1
									c-2.5-0.7-3.5-2.5-3.9-3.6c-3.5-1.4-7.3-2.1-11.7-2.1c-1.4,0-2.8,0.1-4.4,0.2l-6.6,0.5l1.2-3.6l-2.6-0.4l2.8-4.8
									c-3.7,0.7-7.3,1.7-10.9,3.4l3.1,7.8c-1.7,1.1-3.4,2.1-4.9,2.9c-1.9,1-3.5,2-5,3.1c-5.8,4.4-8.7,9.7-9.5,17.4
									c-0.5,5.6-0.2,11.1,0.5,17.7c0.5,5.2,2.2,10.3,3.8,15.5l0.4,1.5l1,2.1c1.5,2.8,2.9,5.1,4.9,7.1c-0.8-3.2-1.2-6.4-1.7-9.6
									c-0.2-1.1-0.3-2.3-0.5-3.4l-1-5.7L155.6,737.5z"/>
							</g>
						</g>
					</g>
					<g>
						<g>
							<g>
								<path class="st17" d="M220.7,677.8c-3.2,1.1-6,2.8-8.7,4.6c-2.6,1.5-5.4,2.2-8.1,2.8c-1.1,0.2-2.1,0.4-3.1-0.4
									c-2.4-2.3-5.9-3.2-9.4-4c-1-0.2-2.1,0-1.6-1.6c1.3-4.3-1.3-6.8-5.1-8.4c-3.1-1.3-6.6-1.6-10.2-1.2
									c-11.3,1.2-21.5,5.2-30.8,11.9c-3.3,2.4-5.2,5.4-5.4,8.8c0,0.9-0.2,2,0.5,2.3c3.4,1.6,1.5,3.6-0.1,5.9
									c-1.2,1.6-1.7,3.6-2.3,5.4c-2.5,8.6-2.5,16.9-1,25c1.1,6.9,2,13.8,5,20.1c0.3,0.8,0.7,1.6,0.9,2.4c1.9,4.6,5,8.3,9.5,11
									c2.2,1.4,4.8,2.4,8,1.1c1.6-0.7,1.9,0.2,2.5,0.9c3.5,3.9,8.1,6.9,14.5,6.3c5-0.4,9.7-1.1,14.6,0.1
									c5.2,1.3,12.7-3.6,15.2-8.8c0.4-0.9,0.2-1.6,2.1-1.9c7.6-1,12.1-5,13.9-11.7c1.4-5.6,0.4-10.6-1.3-15.5
									c-1.6-4.7-3.6-9.2-6-13.5c-1.3-2.4-2.4-5-3.4-7.6s-1.6-5.2-2.6-8.4c4.9,1.1,9.4,1.3,14.3-0.9c7.6-3.4,13.5-10.8,13.4-17.6
									C236.3,677.9,229.4,674.8,220.7,677.8z M232,689.3c-3.2,9.2-13,14.1-22.8,11.3c-2.1-0.5-3.9-1.9-6.6-1.9
									c-0.1,2.5,3.7,2.1,3.6,4.6c-0.2,4.3,1.2,8,2.9,11.7c3.6,7.9,7.5,15.6,9.8,24c1.1,3.9,1.4,8-1.1,12.2c-1.7,2.9-4,5.6-8.2,6.2
									c-4.4,0.7-6.2-1.6-8-4c-2.2-3.1-3.3-6.7-4.4-10.2c-1.4-4.2-2.7-8.4-5.5-12c0.8,4.8,1.6,9.6,3.2,14.2c1.5,4.8,2.9,9.8,7.5,13
									c1.7,1.2,1.5,2.5,0.5,4c-3.5,5.7-12.3,7.6-16.9,3.8c-1.4-1.2-2.4-2.6-3.3-4.2c-2.8-5.2-4-11-5.5-16.8
									c-0.9-3.5-2.1-6.9-4.5-9.8c0.1,3.3,0.8,6.3,1.4,9.4c1.7,7.4,2.7,15.2,7.5,21.5c1.3,1.7-0.5,1.9-1.9,2.1
									c-7,1.4-14.4-1.6-17.4-7.2c-2.6-5-4.3-10.5-5.2-16.2c-0.2-1.3,0.1-3.1-2.5-3.4c1,5.9,1.6,11.8,3.5,17.4
									c0.2,0.8,1.5,1.5,0.3,2.5c-1.1,0.9-2.5,0.5-3.6,0.2c-1.9-0.4-3.1-1.4-4.3-2.5c-2.9-2.6-4.8-5.8-6.6-9.1
									c-0.4-0.8-0.8-1.5-1.2-2.3c-1.9-5.9-3.9-11.8-4.6-18.1c-0.7-6.1-1.2-12.2-0.5-18.6c0.8-7.5,3.6-14.6,11.3-20.3
									c2.9-2.2,6.4-3.7,10.2-6.1c-1,0.2-1.3,0.2-1.6,0.3c-2.2,0.9-4.4,1.9-6.6,2.7c-0.5,0.2-1.3,0.7-1.7,0.5
									c-1.3-0.3-1.7-0.3-2.3,0.5c-0.5,0.8-0.9,1.7-1.5,2.4c-0.8,0.7-1.4,2.1-2.7,1.6c-1.1-0.3-2-1.1-2-2.3
									c0.1-2.4,1.2-4.6,3.5-6.3c10.2-7.6,21.3-12.1,34-12c3.8,0,6.4,1.6,8.5,3.8c0.8,0.8,1,1.7,0.2,2.9c-0.9,1.4-2,0.7-2.9,0.8
									c-1.4,0.1-2.6-0.3-3.7-0.9c-1.7-0.9-3.7-1.3-6-0.9c-0.1,0.2-0.3,0.5-0.4,0.8c1.1,0.2,2.1,0.3,3.2,0.5
									c-0.5,1.1-2.2,0.8-2.5,1.9c7-0.7,13.3,0,19.1,2.6c1.6,0.8,0.9,2.6,2.3,2.9c5,1.3,10,1.4,15.5-1.4c2.8-1.5,5.6-3.5,8.7-4.5
									c3.8-1.2,7.9-2,10.8,0.2C233.7,683.1,233,686.2,232,689.3z"/>
							</g>
						</g>
					</g>
					<g>
						<g>
							<g>
								<path class="st22" d="M155.3,761.8c1.2,0.2,2.5,0.7,3.6-0.2c1.3-1,0-1.7-0.3-2.5c-1.9-5.6-2.5-11.5-3.5-17.4
									c2.6,0.3,2.3,2.1,2.5,3.4c1,5.7,2.6,11.1,5.2,16.2c2.9,5.6,10.3,8.6,17.4,7.2c1.3-0.3,3.3-0.3,1.9-2.1
									c-4.8-6.3-5.8-14-7.5-21.5c-0.7-3.1-1.3-6.1-1.4-9.4c2.3,2.9,3.6,6.3,4.5,9.8c1.4,5.7,2.6,11.6,5.5,16.8
									c0.9,1.5,1.9,2.9,3.3,4.2c4.7,3.9,13.4,2,16.9-3.8c1-1.5,1.2-2.8-0.5-4c-4.6-3.2-6-8.2-7.5-13c-1.4-4.6-2.3-9.4-3.2-14.2
									c2.7,3.6,4,7.9,5.5,12c1.2,3.5,2.2,7.1,4.4,10.2c1.7,2.4,3.6,4.7,8,4c4.2-0.7,6.4-3.3,8.2-6.2c2.5-4.3,2.2-8.3,1.1-12.2
									c-2.3-8.4-6.2-16.2-9.8-24c-1.6-3.7-3.2-7.4-2.9-11.7c0.1-2.5-3.7-2.1-3.6-4.6c2.6,0,4.4,1.2,6.6,1.9
									c9.8,2.7,19.8-2.1,22.8-11.3c1.1-3.1,1.6-6.2-1.1-8.3c-2.9-2.2-6.9-1.4-10.8-0.2c-3.2,1-5.9,2.9-8.7,4.5
									c-5.5,2.8-10.5,2.7-15.5,1.4c-1.4-0.3-0.7-2.3-2.3-2.9c-5.7-2.5-12-3.2-19.1-2.6c0.3-1.1,2-0.8,2.5-1.9
									c-1.1-0.2-2.1-0.3-3.2-0.5c-0.5-0.3-1.9,0.7-1.7-0.2c0.1-0.5,1.3-1.1,2.2-0.5c2.3-0.4,4.3,0,6,0.9c1.2,0.5,2.3,1,3.7,0.9
									c1-0.1,2.1,0.7,2.9-0.8c0.8-1.2,0.5-2.2-0.2-2.9c-2.1-2.2-4.7-3.8-8.5-3.8c-12.7-0.1-23.8,4.4-34,12
									c-2.3,1.7-3.4,3.9-3.5,6.3c0,1.2,0.9,2,2,2.3c1.3,0.4,2-1,2.7-1.6s1-1.6,1.5-2.4c0.7-0.9,1.1-0.9,2.3-0.5
									c0.4,0.1,1.1-0.3,1.7-0.5c2.2-0.9,4.4-1.9,6.6-2.7c0.3-0.1,0.7-0.1,1.6-0.3c-3.7,2.4-7.2,3.9-10.2,6.1
									c-7.8,5.8-10.5,12.8-11.3,20.3c-0.7,6.3-0.1,12.5,0.5,18.6c0.7,6.3,2.7,12.2,4.6,18.1c0.4,0.8,0.8,1.5,1.2,2.3
									c1.7,3.3,3.7,6.4,6.6,9.1C152.2,760.4,153.4,761.5,155.3,761.8z"/>
							</g>
						</g>
					</g>
				</g>
				<g>
					<g>
						<g>
							<path class="st17" d="M174.3,678c-0.9-0.5-2.1,0-2.2,0.5c-0.1,0.9,1.2-0.1,1.7,0.2C173.9,678.6,174.2,678.4,174.3,678z"/>
						</g>
					</g>
				</g>
			</g>
			<g>
				<g>
					<g>
						<line class="st23" x1="232.5" y1="704.2" x2="209.8" y2="710.3"/>
					</g>
				</g>
			</g>
			<g>
				<g>
					<g>
						<path class="st17" d="M204.1,702.5c0,0,3.7,4.3,16.7,2.9c13.1-1.2,18.6-11.1,18.6-11.1l-6.9-2.7c0,0-5.2,8.5-14.5,9.3
							s-13.8-4.3-14.5-2.2s1.4,5.7,1.4,5.7"/>
					</g>
				</g>
			</g>
			<g>
				<g>
					<g>
						<path class="st22" d="M206.1,698.6c0,0,8.3,3.8,15.2,1.6s10-7.9,10-7.9s-6.3-2.9-6.8-2.9s-7.5,0.9-7.5,0.9"/>
					</g>
				</g>
			</g>
			<g>
				<g>
					<g>
						<path class="st14" d="M241.1,722.8c0,0,4.6,17.7,8.3,26.9s10.9,19.3,11,20.9c0.1,1.5-13.3,3.4-15.3,2.8
							c-2-0.5-17.6-4.8-17.6-4.8s16.3,2.3,21.1-0.4s-6.7-26.8-7.5-34.4C240.2,726.1,241.1,722.8,241.1,722.8z"/>
					</g>
				</g>
			</g>
			<g>
				<g>
					<g>
						<path d="M241.1,679.8l-37.7,18.8c0,0,10.7,8.5,12.6,11.3s11.3,0.8,11.3,0.8l10.4-9.1l1.7-7.2l0.7-2.4"/>
					</g>
				</g>
			</g>
			<g>
				<g>
					<g>
						<path class="st8" d="M242.9,687.1l-31.2,13.3l5.2,12.1l3.1-0.8c0,0,5.7-0.8,9-1.4s7.6-2.4,7.6-2.4s3.9-5.4,4.3-6.4
							c0.3-1.1,0.8-6.3,0.7-6.8"/>
					</g>
				</g>
			</g>
			<g>
				<g>
					<g>
						<path class="st14" d="M217.1,701.3l22.6-10c0,0-0.3,13.2,1.4,19.4c0,0-4.5-9.2-4.3-15.5C236.9,695.2,219.3,701.9,217.1,701.3z
							"/>
					</g>
				</g>
			</g>
			<g>
				<g>
					<g>
						<path class="st24" d="M251.2,684.1c0,0,7.9,12.5,9.4,15.7c0,0-4.6,4.9-5.4,8.4s-0.2-0.3-0.2-0.3S248.2,690.3,251.2,684.1z"/>
					</g>
				</g>
			</g>
			<g>
				<g>
					<g>
						<path class="st24" d="M278.5,740.4c0,0,3.1,15.9,3.4,22.5s-3.4,13.2-3.4,13.2s-9.2-13-10.8-16.8c-1.6-3.8-4-8.4-4-8.4
							l15.4-10.5"/>
					</g>
				</g>
			</g>
			<g>
				<g>
					<g>
						<path class="st17" d="M140.5,701.4c0,0,13.9-14.6,23-17.9c0,0-13.3,2-18.2,6c-4.9,3.9-3.9-1.1-3.7-1.7
							c0.2-0.5-2.7,0.4-2.8,2.7s0,2.7,0,4.2c0,1.4-0.1,2.2-0.1,2.2"/>
					</g>
				</g>
			</g>
			<g>
				<g>
					<g>
						<path class="st22" d="M174.3,681.2c0,0,9-1.5,11.3-1.3s-8.2-4.9-9.4-5c-1.2-0.2-3.6-1.9-4.5-0.1c-0.9,1.7-1.6,2.4-1.7,2.7
							c-0.1,0.2-0.4,1.2-0.5,1.5s-0.7,1.4-0.7,1.5"/>
					</g>
				</g>
			</g>
			<g>
				<g>
					<g>
						<path class="st17" d="M155,741.7c0,0,1.3,13.4,2,15.5s2.4,2.9,2.4,3.6s1.3,0.2,1.2-0.7s-0.5-4.3-0.5-4.3"/>
					</g>
				</g>
			</g>
			<g>
				<g>
					<g>
						<path class="st17" d="M173.1,735.6c0,0,0.1,7.4,0.5,12c0.5,4.7,3.5,14.3,4.8,16.1c1.3,1.7,3.2,3.3,3.8,3.7s0.7,0.5,0.7,0.5"/>
					</g>
				</g>
			</g>
			<g>
				<g>
					<g>
						<path class="st17" d="M192.4,731.7c0,0-0.9,8.4,2,16.4c2.8,8,10,13,10,13h1.2"/>
					</g>
				</g>
			</g>
		</g>
		<g>
			<g>
				<g>
					<g>
						<g>
							<path class="st17" d="M710.5,365.3c15,0.5,29.9,1.1,44.8,1.9c0-29.4,0-39,0-68.4c-14.9-1.3-29.8-2.4-44.8-3.3
								C710.5,325.4,710.5,335.5,710.5,365.3z"/>
						</g>
					</g>
					<g>
						<g>
							<path class="st1" d="M758.4,370.7l-3.4-0.2c-14.9-0.8-29.8-1.4-44.7-1.9l-3.2-0.1v-76.4l3.4,0.2c15,0.9,30,2,44.9,3.3
								l2.9,0.2L758.4,370.7L758.4,370.7z M713.7,362.3c12.8,0.4,25.6,1,38.3,1.6v-62c-12.7-1.1-25.5-2.1-38.3-2.8V362.3z"/>
						</g>
					</g>
				</g>
				<g>
					<g>
						<g>
							<g>
								<path class="st1" d="M760.3,283.2l-7.1-0.3c-13.7-0.7-27.5-1.1-41.3-1.5l-6.6-0.2v-40l7.2,0.3c13.9,0.7,27.9,1.5,41.5,2.6
									l6.2,0.4L760.3,283.2L760.3,283.2z M711.8,274.9h0.3c13.8,0.4,27.6,0.9,41.4,1.5h0.4v-25.9h-0.3c-13.7-1.1-27.5-2-41.4-2.6
									h-0.4V274.9z"/>
							</g>
						</g>
					</g>
					<g>
						<g>
							<g>
								<path class="st25" d="M754.7,277.4c-14.5-0.7-29.3-1.2-43.9-1.6V247c14.6,0.8,29.4,1.6,43.9,2.7V277.4z"/>
							</g>
						</g>
					</g>
				</g>
				<g>
					<g>
						<g>
							<g>
								<polygon class="st26" points="714.3,311.6 723.3,312.1 723.3,300.1 714.3,299.6 								"/>
							</g>
						</g>
					</g>
					<g>
						<g>
							<g>
								<polygon class="st26" points="714.3,343.2 723.3,343.6 723.3,332.7 714.3,332.2 								"/>
							</g>
						</g>
					</g>
					<g>
						<g>
							<g>
								<polygon class="st26" points="714.3,327.4 723.3,327.8 723.3,316.8 714.3,316.4 								"/>
							</g>
						</g>
					</g>
					<g>
						<g>
							<g>
								<polygon class="st26" points="729.1,328.1 737.8,328.6 737.8,317.6 729.1,317.1 								"/>
							</g>
						</g>
					</g>
					<g>
						<g>
							<g>
								<polygon class="st26" points="729.1,312.2 737.8,312.7 737.8,300.9 729.1,300.3 								"/>
							</g>
						</g>
					</g>
					<g>
						<g>
							<g>
								<polygon class="st26" points="729.1,343.8 737.8,344.2 737.8,333.3 729.1,332.9 								"/>
							</g>
						</g>
					</g>
					<g>
						<g>
							<g>
								<polygon class="st26" points="742.9,301.1 742.9,313 751.7,313.4 751.7,301.6 								"/>
							</g>
						</g>
					</g>
					<g>
						<g>
							<g>
								<polygon class="st26" points="742.9,344.4 751.7,344.8 751.7,334 742.9,333.5 								"/>
							</g>
						</g>
					</g>
					<g>
						<g>
							<g>
								<polygon class="st26" points="714.3,358 723.3,358.4 723.3,347.4 714.3,347 								"/>
							</g>
						</g>
					</g>
					<g>
						<g>
							<g>
								<polygon class="st26" points="729.1,358.6 737.8,359 737.8,348.1 729.1,347.6 								"/>
							</g>
						</g>
					</g>
					<g>
						<g>
							<g>
								<polygon class="st26" points="742.5,359.2 751.2,359.6 751.2,348.7 742.5,348.4 								"/>
							</g>
						</g>
					</g>
					<g>
						<g>
							<g>
								<polygon class="st26" points="742.9,328.8 751.7,329.3 751.7,318.3 742.9,317.9 								"/>
							</g>
						</g>
					</g>
				</g>
				<g>
					<g>
						<g>
							<polygon class="st0" points="715.6,262.5 714.1,260.8 714.9,260 722.9,250.5 724.7,251.9 							"/>
						</g>
					</g>
				</g>
				<g>
					<g>
						<g>
							<polygon class="st0" points="721.2,263.4 720,262.1 720.8,261.4 720.3,261.1 724,256.7 725.7,258 							"/>
						</g>
					</g>
				</g>
			</g>
			<g>
				<g>
					<g>
						<g>
							<path class="st15" d="M755.4,409.4c-14.9-0.8-29.9-1.4-44.8-1.9l-3.4-0.1v58.8l3.2,0.1c15,0.3,30,0.7,44.7,1.1l3.3,0.1v-57.9
								L755.4,409.4z"/>
						</g>
					</g>
				</g>
				<g>
					<g>
						<g>
							<polygon class="st16" points="713.7,434.7 713.7,440.5 752,441.4 752,435.5 							"/>
						</g>
					</g>
				</g>
				<g>
					<g>
						<g>
							
								<rect x="731.8" y="429.3" transform="matrix(2.950535e-02 -0.9996 0.9996 2.950535e-02 263.848 1166.9187)" class="st16" width="2.2" height="36.5"/>
						</g>
					</g>
				</g>
			</g>
		</g>
	</g>
	<g>
		<g>
			<g>
				<g>
					<g>
						<rect x="709.1" y="566.8" class="st15" width="48" height="62.7"/>
					</g>
				</g>
			</g>
			<g>
				<g>
					<g>
						<polygon class="st15" points="709.9,629.5 705.2,631.5 705.2,568.8 709.9,566.8 						"/>
					</g>
				</g>
			</g>
			<g>
				<g>
					<g>
						<rect x="713.1" y="569.8" class="st27" width="37.2" height="1.6"/>
					</g>
				</g>
			</g>
		</g>
		<g>
			<g>
				<g>
					<rect x="714.1" y="575.8" class="st28" width="35.5" height="8.8"/>
				</g>
			</g>
		</g>
		<g>
			<g>
				<g>
					<rect x="714.2" y="587.4" class="st28" width="3.1" height="3.1"/>
				</g>
			</g>
		</g>
		<g>
			<g>
				<g>
					<rect x="725.5" y="587.4" class="st28" width="3.1" height="3.1"/>
				</g>
			</g>
		</g>
		<g>
			<g>
				<g>
					<rect x="736.7" y="587.4" class="st27" width="3.1" height="3.1"/>
				</g>
			</g>
		</g>
		<g>
			<g>
				<g>
					<rect x="747.8" y="587.4" class="st28" width="3.1" height="3.1"/>
				</g>
			</g>
		</g>
		<g>
			<g>
				<g>
					<rect x="714.1" y="595.1" class="st27" width="8.8" height="6.1"/>
				</g>
			</g>
		</g>
		<g>
			<g>
				<g>
					<rect x="728" y="594.8" class="st27" width="9.7" height="6.8"/>
				</g>
			</g>
		</g>
		<g>
			<g>
				<g>
					<rect x="741.2" y="594.8" class="st28" width="9.7" height="6.8"/>
				</g>
			</g>
		</g>
		<g>
			<g>
				<g>
					<path class="st15" d="M733.1,624.5c0,0-16.6-2.5-16.9-1.9c-0.2,0.7-5.4,1.6-6,2.5s-1.1,1.2-1.1,1.5s0,0.3,0,0.3l-3.8,4.4H757
						c0,0-0.8-3.8,0-3.8C757.8,627.6,733.1,624.5,733.1,624.5"/>
				</g>
			</g>
		</g>
		<g>
			<g>
				<g>
					<g>
						<g>
							<path class="st27" d="M741.7,612.9c-0.1,0.3-0.2,0.5-0.5,0.8c-0.4,0.2-0.9,0.2-1.3-0.1c-0.3-0.3-0.8-0.7-1.1-1
								c-1.4-1.1-3.1-1.9-4.8-2.1c-2.4-0.3-4.6,0-6.8,1.1c-1,0.4-1.7,1.1-2.5,1.9c-0.1,0.1-0.3,0.2-0.4,0.3c-0.4,0.2-1,0-1.3-0.4
								s-0.2-1,0.2-1.4c1.3-1.3,2.8-2.3,4.6-2.9c1.2-0.4,2.4-0.8,3.6-0.8c2.9-0.2,5.7,0.5,8.1,2.1c0.8,0.4,1.4,1,2,1.6
								c0.1,0.1,0.2,0.3,0.3,0.5C741.7,612.6,741.7,612.8,741.7,612.9z"/>
						</g>
					</g>
				</g>
				<g>
					<g>
						<g>
							<path class="st27" d="M732.2,612.4c2.6,0,4.8,1,6.7,2.7c0.7,0.7,0.4,1.6-0.4,1.9c-0.3,0.1-0.7,0-1-0.2s-0.7-0.5-1-0.8
								c-1-0.8-2.1-1.2-3.3-1.3c-1.7-0.2-3.4,0.1-4.9,1.1c-0.4,0.2-0.8,0.5-1.1,0.9c-0.4,0.3-0.8,0.4-1.3,0.2
								c-0.8-0.3-0.9-1.2-0.3-1.7c0.4-0.4,0.9-0.8,1.4-1.2c1.3-0.9,2.7-1.4,4.3-1.5C731.7,612.4,731.9,612.4,732.2,612.4z"/>
						</g>
					</g>
				</g>
				<g>
					<g>
						<g>
							<path class="st27" d="M732.1,616.4c1.1,0,2.1,0.2,2.9,0.8c0.4,0.2,0.9,0.5,1.2,0.9c0.5,0.4,0.5,1.1,0.1,1.6
								c-0.4,0.4-1.1,0.4-1.5,0.1c-0.4-0.3-0.9-0.7-1.4-0.9c-1.3-0.4-2.4-0.2-3.5,0.7c-0.1,0.1-0.2,0.1-0.2,0.2
								c-0.4,0.4-1.2,0.3-1.5-0.1c-0.4-0.4-0.3-1.1,0.1-1.5c1-0.9,2.1-1.4,3.4-1.6c0.1,0,0.1,0,0.2,0
								C731.9,616.4,732,616.4,732.1,616.4z"/>
						</g>
					</g>
				</g>
				<g>
					<g>
						<g>
							<path class="st27" d="M734.1,622.7c0,1-0.9,1.9-1.9,1.9c-1.1,0-1.9-0.9-1.9-1.9c0-1.1,0.8-1.9,1.9-1.9
								S734.1,621.6,734.1,622.7z"/>
						</g>
					</g>
				</g>
			</g>
		</g>
	</g>
	<g>
		<g>
			<g>
				<g>
					<circle class="st17" cx="732.2" cy="517.9" r="21.7"/>
				</g>
			</g>
		</g>
		<g>
			<g>
				<g>
					<circle class="st29" cx="732.2" cy="517.9" r="17.5"/>
				</g>
			</g>
		</g>
		<g>
			<g>
				<g>
					<rect x="730.3" y="505.7" class="st17" width="4" height="22.9"/>
				</g>
			</g>
		</g>
	</g>
	<g>
		<g>
			<g>
				<polygon class="st17" points="712,704.4 712,742.8 752.5,737.8 752.5,703 				"/>
			</g>
			<g>
				<path class="st1" d="M708.7,746.4v-45.1l47-1.6v41L708.7,746.4z M715.3,707.5v31.6l34.1-4.3v-28.6L715.3,707.5z"/>
			</g>
		</g>
		<g>
			<g>
				<polygon class="st27" points="732.7,722.8 713.3,725.2 713.3,741.4 747.5,738.3 				"/>
			</g>
		</g>
	</g>
	<g>
		<g>
			<path class="st8" d="M879.3,395l-1.3-3.8c-0.4-1.3,0.2-2.6,1.5-3.1l5.9-2c0,0,2.8,0.1,3.1,0.4"/>
		</g>
	</g>
</g>
</svg>
