<?xml version="1.0" encoding="utf-8"?>
<!-- Generator: Adobe Illustrator 27.9.1, SVG Export Plug-In . SVG Version: 6.00 Build 0)  -->
<svg version="1.1" id="Layer_1" xmlns="http://www.w3.org/2000/svg" xmlns:xlink="http://www.w3.org/1999/xlink" x="0px" y="0px"
	 viewBox="0 0 875.2 780" style="enable-background:new 0 0 875.2 780;" xml:space="preserve">
<style type="text/css">
	.st0{fill:#0D0D0D;}
	.st1{fill:#CD2328;}
	.st2{fill:#8E192F;}
	.st3{fill:#B62225;}
	.st4{fill:#E93B48;}
	.st5{fill:#EC626C;}
	.st6{fill:#EA5661;}
	.st7{fill:#B31F36;}
	.st8{fill:#8B6271;}
	.st9{fill:#FFFFFF;}
	.st10{fill:#F8F6F1;}
	.st11{fill:#606161;}
	.st12{opacity:0.15;}
	.st13{fill:#6D1628;}
	.st14{fill:#F26866;}
	.st15{fill:#232121;}
	.st16{fill:#CFDCDC;}
	.st17{fill:#0E0E0E;}
	.st18{fill:#F4ECE5;}
	.st19{fill:#CB832A;}
	.st20{fill:#FFCD05;}
	.st21{fill:#911F36;}
	.st22{fill:#F9F8F2;}
	.st23{fill:none;}
	.st24{fill:#54121D;}
	.st25{fill:#4A77A8;}
	.st26{fill:#84827E;}
	.st27{fill:#6B6B6B;}
	.st28{fill:#65A042;}
	.st29{fill:#B8CACD;}
	.st30{fill:#B21F37;}
	.st31{fill:#215483;}
	.st32{fill:#D6D5D2;}
	.st33{fill:#FECE43;}
	.st34{opacity:0.49;fill:#B21F37;enable-background:new    ;}
	.st35{fill:#4B78A9;}
	.st36{fill:#8F2438;}
	.st37{fill:#ABB4CE;}
	.st38{fill:#DEE2F2;}
	.st39{fill:#666666;}
	.st40{fill:#F26966;}
	.st41{fill:#999999;}
	.st42{opacity:0.38;fill:#FFFFFF;enable-background:new    ;}
	.st43{fill:#0D0F10;}
	.st44{fill:#4F5051;}
	.st45{fill:#6B6C6C;}
	.st46{fill:#0C0B0A;}
	.st47{fill:#C3E2ED;}
	.st48{fill:#9FABB0;}
	.st49{clip-path:url(#SVGID_00000058568687810580558660000008115607694102817674_);fill:#FFCD05;}
	.st50{clip-path:url(#SVGID_00000058568687810580558660000008115607694102817674_);}
	.st51{fill:#FBEFD7;}
	.st52{fill:#B21F36;}
	.st53{fill:#170F09;}
	.st54{fill:#222221;}
	.st55{fill:#D89A53;}
	.st56{fill:#FDFDFD;}
	.st57{fill:#592A07;}
	.st58{fill:#B88346;}
	.st59{fill:#DBDADA;}
	.st60{fill:#383837;}
	.st61{fill:#804118;}
	.st62{fill:#646463;}
	.st63{fill:#E5AF73;}
	.st64{fill:#2D2D2C;}
	.st65{fill:#693309;}
	.st66{fill:#DB9D56;}
	.st67{fill:#613214;}
	.st68{fill:#FCCA1D;}
	.st69{fill:#8E1830;}
	.st70{fill:#FFDE83;}
	.st71{fill:#D1CDC5;}
	.st72{fill:#7F3211;}
	.st73{fill:#FCFCFC;}
	.st74{fill:#D6D5D5;}
	.st75{fill:#FCCD2A;}
	.st76{fill:#181516;}
	.st77{fill:#FBFBFB;}
	.st78{fill:#3F383B;}
	.st79{fill:#716E6D;}
	.st80{fill:#7A1E2F;}
	.st81{opacity:0.74;fill:#FFCCD6;enable-background:new    ;}
	.st82{fill:#CFCECE;}
	.st83{opacity:0.58;}
</style>
<g>
	<g>
		<g>
			<path class="st0" d="M699.3,398.9c-67.7,0-97.3-38.1-99.1-40.5l27.6-20.5l-0.1-0.2c2.2,2.7,53.9,65.5,194.8-10.9
				c8.3-4.6,18.8-1.4,23.4,6.9c4.6,8.3,1.4,18.8-6.9,23.4C780.8,388.4,734.8,398.9,699.3,398.9z"/>
		</g>
	</g>
	<g>
		<g>
			<g>
				<path class="st1" d="M792.7,231.3c-0.2,0.1-0.4,0.4-0.7,0.7c-0.4,0.1-1,0.3-1.4,0.4c0.4-0.1,1-0.3,1.4-0.4
					C792.3,231.7,792.5,231.4,792.7,231.3z"/>
			</g>
		</g>
		<g>
			<g>
				<path class="st1" d="M789.4,232.5c0.2-0.2,0.4-0.2,0.5-0.2C789.9,232.2,789.6,232.2,789.4,232.5c-0.8,0.3-1.6,0.5-2.4,0.9
					c-0.1,0-0.2,0.1-0.3,0.1c0.1,0,0.2-0.1,0.3-0.1C787.9,233,788.7,232.7,789.4,232.5z"/>
			</g>
		</g>
		<g>
			<g>
				<path class="st1" d="M805.5,243.1c-0.1-0.3-0.2-0.9-0.4-1.2c-1.2-3.2-1.9-6.4-3.4-9.5c1.5,2.9,2.2,6.3,3.4,9.5
					C805.3,242.2,805.3,242.6,805.5,243.1z"/>
			</g>
		</g>
		<g>
			<g>
				<path class="st1" d="M799.1,230.2c-0.7-0.2-1.3-0.3-2.1-0.2C797.8,229.8,798.5,229.9,799.1,230.2z"/>
			</g>
		</g>
		<g>
			<g>
				<path class="st1" d="M789.6,310.1c0.8-0.2,1.6-0.5,2.4-0.8c3.6-1.2,7.2-2.4,10.9-3.6c-3.6,1.2-7.2,2.4-10.9,3.6
					C791.3,309.6,790.4,309.8,789.6,310.1z"/>
			</g>
		</g>
		<g>
			<g>
				<path class="st1" d="M774.1,240.3c-0.1,0.2-0.1,0.4,0,0.7C774,240.8,774,240.5,774.1,240.3z"/>
			</g>
		</g>
		<g>
			<g>
				<path class="st1" d="M776.9,236.9c-0.1,0-0.2,0.1-0.2,0.1c-0.4,0.1-0.8,0.2-1.1,0.4c0.3-0.2,0.7-0.3,1.1-0.4
					C776.7,236.9,776.7,236.9,776.9,236.9z"/>
			</g>
		</g>
		<g>
			<g>
				<path class="st1" d="M774.2,240.2L774.2,240.2c0.1,0.2,0.1,0.4,0.2,0.7C774.3,240.7,774.2,240.4,774.2,240.2z"/>
			</g>
		</g>
		<g>
			<g>
				<path class="st1" d="M780.2,257.1c0,0.1,0.1,0.2,0.1,0.4l0,0C780.4,257.4,780.2,257.3,780.2,257.1L780.2,257.1z"/>
			</g>
		</g>
		<g>
			<g>
				<path class="st1" d="M793.5,231.4L793.5,231.4c1.3-0.9,2.6-1.3,3.7-1.4C796,230.1,794.8,230.5,793.5,231.4z"/>
			</g>
		</g>
		<g>
			<g>
				<path class="st1" d="M806.8,250.6c0.8,1.6,1.7,3.2,2.9,4.6C808.5,253.8,807.4,252.3,806.8,250.6z"/>
			</g>
		</g>
		<g>
			<g>
				<path class="st1" d="M774.5,239.1c0-0.1,0-0.1,0.1-0.2C774.5,239,774.5,239.1,774.5,239.1z"/>
			</g>
		</g>
		<g>
			<g>
				<path class="st1" d="M809.6,255.2c0.8,1,1.5,1.9,2.4,2.7C811.3,257,810.4,256.1,809.6,255.2z"/>
			</g>
		</g>
		<g>
			<g>
				<path class="st1" d="M780.4,277.9c0.1-2.1,0.3-4.3,0.4-6.3C780.8,273.6,780.6,275.7,780.4,277.9z"/>
			</g>
		</g>
		<g>
			<g>
				<path class="st1" d="M803,305.6c2.1-0.7,4.2-1.4,6.3-2.1c5.6-1.9,11.3-3.6,16.8-5.5c-5.6,1.9-11.3,3.6-16.8,5.5
					C807.1,304.2,805,305,803,305.6z"/>
			</g>
		</g>
		<g>
			<g>
				<path class="st1" d="M835.8,287.5c-0.2-0.5-0.4-1-0.8-1.5c-0.9-1.4-1.9-2.8-2.8-4.2c1,1.3,2,2.7,2.8,4.2
					C835.4,286.5,835.6,287.1,835.8,287.5z"/>
			</g>
		</g>
		<g>
			<g>
				<path class="st1" d="M808.6,246.1c0-0.1,0.1-0.2,0-0.4C808.6,245.9,808.6,246,808.6,246.1L808.6,246.1z"/>
			</g>
		</g>
		<g>
			<g>
				<path class="st1" d="M816.4,263c-0.7-0.8-1.3-1.6-2-2.4c-0.8-1-1.5-1.9-2.3-2.7c0.8,0.9,1.6,1.9,2.3,2.7
					C815.1,261.4,815.7,262.3,816.4,263z"/>
			</g>
		</g>
		<g>
			<g>
				<path class="st1" d="M808.6,245.8c0-0.1-0.1-0.3-0.1-0.4c-0.1-0.3-0.2-0.8-0.3-1.1c0.1,0.3,0.2,0.9,0.3,1.1
					C808.5,245.5,808.6,245.6,808.6,245.8z"/>
			</g>
		</g>
		<g>
			<g>
				<path class="st1" d="M838,294.4L838,294.4c0-0.1-0.1-0.3-0.1-0.4c-0.2-0.7-0.4-1.3-0.7-2.1c0.2,0.7,0.3,1.4,0.7,2.1
					C837.9,294.2,838,294.3,838,294.4z"/>
			</g>
		</g>
		<g>
			<g>
				<path class="st1" d="M822.4,270.3c2.3,2.5,4.6,5,6.8,7.6C827,275.3,824.7,272.8,822.4,270.3c-1.9-2.5-3.9-4.8-6-7.2
					C818.4,265.4,820.6,267.7,822.4,270.3z"/>
			</g>
		</g>
		<g>
			<g>
				<path class="st1" d="M780.4,257.6c0.3-0.1,0.5-0.2,0.9-0.3C781,257.4,780.7,257.5,780.4,257.6
					C780.5,257.6,780.4,257.6,780.4,257.6c0.3,1.3,1.1,2.5,1,3.9c-0.2,3.4-0.3,6.7-0.4,10c0.1-3.4,0.3-6.7,0.4-10
					C781.4,260,780.7,258.9,780.4,257.6z"/>
			</g>
		</g>
		<g>
			<g>
				<path class="st1" d="M838.5,296.3c0,0.2,0.1,0.5,0.1,0.8c-3.7,1.2-7.5,2.4-11.3,3.6c3.7-1.2,7.5-2.4,11.3-3.6
					C838.6,296.8,838.5,296.5,838.5,296.3z"/>
			</g>
		</g>
		<g>
			<g>
				<path class="st1" d="M838.1,294.7c0-0.1-0.1-0.2-0.1-0.3l0,0C838.1,294.5,838.1,294.6,838.1,294.7z"/>
			</g>
		</g>
		<g>
			<g>
				<path class="st1" d="M783.1,235.2L783.1,235.2c0.8,2.5,1.6,5,2.5,7.5C784.7,240.2,783.8,237.7,783.1,235.2z"/>
			</g>
		</g>
		<g>
			<g>
				<path class="st1" d="M783.1,235.2L783.1,235.2L783.1,235.2c0.8,2.5,1.6,5,2.5,7.5C784.7,240.2,783.8,237.7,783.1,235.2z"/>
			</g>
		</g>
		<g>
			<g>
				<path class="st1" d="M802.1,239.1c-2,0.7-3.9,1.3-5.9,2c0,0.1,0.1,0.1,0.1,0.2c0-0.1-0.1-0.1-0.1-0.2c2.5-0.8,4.9-1.6,7.4-2.4
					l0,0C803.2,238.8,802.6,239,802.1,239.1z"/>
			</g>
		</g>
		<g>
			<g>
				<path class="st1" d="M803.6,238.7c0,0.1,0.1,0.2,0.1,0.2c0.4,1.3,0.9,2.6,1.4,3.8C804.6,241.4,804.2,240,803.6,238.7z"/>
			</g>
		</g>
		<g>
			<g>
				<path class="st1" d="M803.5,238.3C803.5,238.3,803.5,238.1,803.5,238.3c-0.7-2.1-1.2-3.9-1.9-5.9
					C802.3,234.3,802.9,236.2,803.5,238.3C803.5,238.1,803.5,238.3,803.5,238.3z"/>
			</g>
		</g>
		<g>
			<g>
				<path class="st1" d="M792.6,253.5c1.2-0.4,2.3-0.8,3.5-1.2C794.9,252.8,793.8,253.2,792.6,253.5L792.6,253.5L792.6,253.5z"/>
			</g>
		</g>
		<g>
			<g>
				<path class="st1" d="M784.8,285c0,0.7,0,1.4-0.1,2.1c0.1-1.4,0.1-2.7,0.1-4.2l0,0C784.8,283.6,784.8,284.3,784.8,285z"/>
			</g>
		</g>
		<g>
			<g>
				<path class="st1" d="M784.8,282.9c0,0.7-0.1,1.4-0.1,2.1C784.8,284.3,784.8,283.6,784.8,282.9L784.8,282.9z"/>
			</g>
		</g>
		<g>
			<g>
				<path class="st1" d="M793.7,233.3c-0.2,0.1-0.4,0.1-0.7,0.2h0.1C793.2,233.4,793.5,233.4,793.7,233.3L793.7,233.3z"/>
			</g>
		</g>
		<g>
			<g>
				<path class="st1" d="M794,234.3c0,0.1,0.1,0.2,0.1,0.2c-0.1-0.2-0.2-0.4-0.2-0.7C793.9,234,793.9,234.2,794,234.3z"/>
			</g>
		</g>
		<g>
			<g>
				<path class="st1" d="M793.1,233.6c0.2,0,0.3-0.1,0.5-0.1l0,0C793.5,233.4,793.4,233.4,793.1,233.6z"/>
			</g>
		</g>
		<g>
			<g>
				<path class="st1" d="M791.6,235.4c-0.3-0.7-0.7-1.2-1-1.9c-0.1-0.2-0.1-0.4-0.2-0.7c0.1,0.2,0.1,0.4,0.2,0.7
					C790.9,234.1,791.3,234.8,791.6,235.4z"/>
			</g>
		</g>
		<g>
			<g>
				<path class="st2" d="M818.8,303.9c-2.8,1-5.7,1.9-8.5,2.8c3.2,9.4,6.2,18.9,9.4,28.3c-3.2-9.4-6.2-18.9-9.4-28.3
					C813.1,305.9,816,304.9,818.8,303.9z"/>
			</g>
		</g>
		<g>
			<g>
				<path class="st2" d="M819.7,335.1c5.6-1.9,11.3-3.6,16.8-5.5l0,0C830.9,331.4,825.4,333.3,819.7,335.1z"/>
			</g>
		</g>
		<g>
			<g>
				<path class="st2" d="M836.8,329.4c-2.6-5.7-4.8-11.7-6.7-17.7c-0.9-2.8-1.5-5.7-2.3-8.5c-0.7,0.2-1.3,0.1-1.9-0.2
					c-0.4-0.2-0.8-0.7-1.1-1.1c-2.1,0.7-4,1.3-6.1,2.1c-2.8,1-5.7,1.9-8.5,2.8c3.2,9.4,6.2,18.9,9.4,28.3c5.6-1.9,11.3-3.6,16.8-5.5
					l0,0l0,0C836.6,329.6,836.7,329.5,836.8,329.4z"/>
			</g>
		</g>
		<g>
			<g>
				<path class="st2" d="M810.3,306.7c3.2,9.4,6.2,18.9,9.4,28.3C816.6,325.6,813.4,316.2,810.3,306.7L810.3,306.7z"/>
			</g>
		</g>
		<g>
			<g>
				<path class="st2" d="M824.9,301.9c0.2,0.4,0.5,0.9,1.1,1.1c0.5,0.3,1.2,0.3,1.9,0.2c-0.2-0.7-0.3-1.4-0.5-2.1
					C826.6,301.4,825.8,301.6,824.9,301.9z"/>
			</g>
		</g>
		<g>
			<g>
				<path class="st3" d="M839.8,301.3c-0.2-0.5-0.3-1.1-0.5-1.7l0,0C839.4,300.2,839.7,300.7,839.8,301.3z"/>
			</g>
		</g>
		<g>
			<g>
				<path class="st3" d="M828.1,303.1L828.1,303.1c0.6,2.8,1.3,5.7,2.2,8.5c1.9,6,4,11.9,6.7,17.7c3.4-1.1,6.9-2.3,10.3-3.3
					c1.3-0.4,0.7-1.1,0.5-1.7c-1.4-3.1-2.7-6.2-3.9-9.4c-1.2-3.2-2.2-6.3-2.9-9.7c-0.3-1.3-0.7-2.6-1.1-4c-0.2-0.5-0.3-1.1-0.5-1.7
					C838.1,300,828.1,303.1,828.1,303.1z"/>
			</g>
		</g>
		<g>
			<g>
				<path class="st3" d="M838.6,297.3L838.6,297.3c0.2,0.8,0.4,1.5,0.7,2.3l0,0C839,298.8,838.8,298.1,838.6,297.3L838.6,297.3z"/>
			</g>
		</g>
		<g>
			<g>
				<path class="st3" d="M827.9,303.2L827.9,303.2c0.1,0,10.3-3.3,11.4-3.6c-0.2-0.8-0.4-1.5-0.7-2.3l0,0c-3.7,1.3-7.4,2.5-11.3,3.8
					C827.5,301.8,827.8,302.5,827.9,303.2z"/>
			</g>
		</g>
		<g>
			<g>
				<path class="st4" d="M813.4,337.2c2.1-0.7,4.2-1.4,6.3-2.1C817.6,335.8,815.5,336.5,813.4,337.2L813.4,337.2z"/>
			</g>
		</g>
		<g>
			<g>
				<path class="st4" d="M810.3,306.7c-1.6,0.5-3.3,1.1-4.9,1.6c-1.2,0.3-1.3,0.9-1,2c0.7,2.3,1.9,4.4,2.6,6.7
					c2.4,6.7,4.3,13.4,6.3,20.2c2.1-0.7,4.2-1.4,6.3-2.1C816.6,325.6,813.4,316.2,810.3,306.7L810.3,306.7z"/>
			</g>
		</g>
		<g>
			<g>
				<path class="st4" d="M795.4,318.2c-0.3-1-0.7-2-1-2.9c-1.2-2.7-1.2-2.7-4-1.9c-0.7,0.2-1.4,0.4-2.1,0.8c2,4.3,3.6,8.7,5.1,13.1
					c1.7,4.9,2.9,10,4.3,15.2c1.6-0.5,3.3-1.1,4.9-1.6c-0.5-2.2-1.2-4.4-1.7-6.6C799.4,328.8,797.2,323.6,795.4,318.2z"/>
			</g>
		</g>
		<g>
			<g>
				<path class="st4" d="M788.2,314.2L788.2,314.2c0.7-0.2,1.4-0.4,2.1-0.8C789.6,313.6,788.9,313.9,788.2,314.2z"/>
			</g>
		</g>
		<g>
			<g>
				<path class="st1" d="M793.7,233.3L793.7,233.3c0.1,0.2,0.1,0.3,0.2,0.5C793.8,233.7,793.7,233.6,793.7,233.3z"/>
			</g>
		</g>
		<g>
			<g>
				<path class="st1" d="M801.7,232.4c-0.8-1.1-1.5-1.9-2.5-2.2C800.1,230.5,800.9,231.3,801.7,232.4z"/>
			</g>
		</g>
		<g>
			<g>
				<path class="st1" d="M793.5,231.4c0,0.1,0,0.1,0,0.2c0.1,0.3,0.2,0.5,0.3,0.9c0.1,0.3,0.1,0.5-0.1,0.9l0,0l0,0
					c0.1,0.2,0.1,0.3,0.2,0.5c0.1,0.2,0.2,0.4,0.2,0.7c0,0,0,0.1,0.1,0.1c0.3,0.4,0.7,0.9,0.9,1.3c0.7,1.4,0.9,3.1,1.5,4.5
					c2.3-0.8,4.7-1.6,7-2.4c-0.7-2-1.2-3.9-1.9-5.8c-0.8-1.1-1.5-1.9-2.5-2.2c-0.7-0.2-1.3-0.3-2.1-0.2
					C796,230.1,794.8,230.5,793.5,231.4L793.5,231.4L793.5,231.4z M793.8,232.5L793.8,232.5L793.8,232.5z"/>
			</g>
		</g>
		<g>
			<g>
				<path class="st1" d="M784,234.2c0.9-0.3,1.9-0.5,2.7-0.9C785.7,233.7,784.8,234,784,234.2L784,234.2L784,234.2z"/>
			</g>
		</g>
		<g>
			<g>
				<path class="st1" d="M784,234.2c-0.2,0.3-0.4,0.5-0.5,0.9c0.4,1.1,0.8,2.3,1.2,3.4c0.4,1.2,0.8,2.4,1.1,3.5
					c0.4,1.6,1.2,1.9,2.6,1.2c0.7-0.3,1.3-0.4,1.9-0.7c-1-3.2-2.1-6.2-3.1-9.4c-0.1,0-0.2,0.1-0.3,0.1
					C785.7,233.7,784.8,234,784,234.2L784,234.2z M785.2,240.3c-0.2-0.5-0.4-1.2-0.5-1.7C784.7,239.1,784.9,239.8,785.2,240.3z"/>
			</g>
		</g>
		<g>
			<g>
				<path class="st5" d="M784,234.2c-1.9,0.7-3.7,1.2-5.6,1.9C780.1,235.5,782,234.9,784,234.2L784,234.2z"/>
			</g>
		</g>
		<g>
			<g>
				<path class="st5" d="M776.9,237.7c0.8,2.4,1.5,4.7,2.4,7.1c0.2,0.8,0.4,1.4-0.7,1.6l0,0c0,0.2,0.1,0.3,0.1,0.5
					c0.1,0.1,0.1,0.1,0.2,0.2c1.1-0.3,2.2-0.8,3.3-1.1c0.8-0.2,1.5-0.5,2.3-0.8c0-0.2,0-0.5,0-0.8c-0.9-1.5-1.4-3.1-1.9-4.7
					c-0.1-0.5-0.2-1.1-0.4-1.6c-0.2-1.1-0.1-2.2,0.9-2.9l0,0l0,0l0,0l0,0l0,0c0.1,0,0.2-0.1,0.2-0.1l0,0c0.2-0.3,0.4-0.5,0.5-0.9
					c-1.9,0.7-3.7,1.2-5.6,1.9c1.2,0,1.9,0.3,2.1,1.6c0.5,2.1,1.3,4,2,6.1c0.2,0.8,0.2,1.3-0.7,1.5c-0.9,0.3-1.2-0.1-1.4-0.9
					c-0.7-2.2-1.4-4.3-2.2-6.4c-0.2-0.7-0.2-1.4-1.2-1.2c-0.1,0-0.2,0.1-0.2,0.1C776.7,237.3,776.7,237.5,776.9,237.7z"/>
			</g>
		</g>
		<g>
			<g>
				<path class="st5" d="M784.4,245.4c-0.8,0.2-1.5,0.5-2.3,0.8C782.9,245.8,783.6,245.6,784.4,245.4L784.4,245.4z"/>
			</g>
		</g>
		<g>
			<g>
				<path class="st5" d="M784,234.2L784,234.2c-0.2,0.3-0.4,0.5-0.5,0.9l0,0l0,0C783.5,234.9,783.7,234.5,784,234.2z"/>
			</g>
		</g>
		<g>
			<g>
				<path class="st1" d="M791.7,239.9c-0.9-2.4-2.1-4.8-2.2-7.5c-0.8,0.3-1.6,0.5-2.4,0.9c1,3.2,2.1,6.2,3.1,9.4
					C791.9,242.4,792.3,241.6,791.7,239.9z"/>
			</g>
		</g>
		<g>
			<g>
				<path class="st6" d="M777.8,236.2c-0.4,0.1-0.9,0.1-1,0.7C777.1,236.4,777.4,236.3,777.8,236.2z"/>
			</g>
		</g>
		<g>
			<g>
				<path class="st6" d="M778.2,238.1c0.8,2.2,1.4,4.3,2.2,6.4c0.2,0.8,0.5,1.1,1.4,0.9c0.9-0.3,0.9-0.9,0.7-1.5
					c-0.7-2.1-1.4-4-2-6.1c-0.3-1.2-1-1.6-2.1-1.6c-0.1,0-0.2,0.1-0.4,0.1c-0.4,0.1-0.9,0.1-1,0.7
					C777.9,236.7,777.9,237.5,778.2,238.1z"/>
			</g>
		</g>
		<g>
			<g>
				<path class="st4" d="M803.6,238.7c-2.5,0.8-4.9,1.6-7.4,2.4c2-0.7,3.9-1.3,5.9-2C802.6,239,803.2,238.8,803.6,238.7z"/>
			</g>
		</g>
		<g>
			<g>
				<path class="st4" d="M803.6,238.7c0-0.1-0.1-0.2-0.1-0.4C803.5,238.4,803.6,238.5,803.6,238.7L803.6,238.7L803.6,238.7z"/>
			</g>
		</g>
		<g>
			<g>
				<path class="st4" d="M790.1,232.2c0.1,0,0.2,0,0.3,0.1C790.3,232.4,790.2,232.2,790.1,232.2z"/>
			</g>
		</g>
		<g>
			<g>
				<path class="st4" d="M793.7,233.3c0.1,0.4,0.3,0.8,0.4,1.2c0-0.1,0-0.1-0.1-0.2C793.9,234,793.8,233.7,793.7,233.3L793.7,233.3z
					"/>
			</g>
		</g>
		<g>
			<g>
				<path class="st4" d="M803.6,238.7L803.6,238.7c-0.5,0.2-1,0.3-1.5,0.5C802.6,239,803.2,238.8,803.6,238.7z"/>
			</g>
		</g>
		<g>
			<g>
				<path class="st4" d="M791.7,239.9c0.5,1.7,0.3,2.5-1.5,2.7c-0.7,0.2-1.3,0.4-1.9,0.7c-1.4,0.7-2.2,0.4-2.6-1.2
					c-0.3-1.2-0.8-2.4-1.1-3.5c-0.4-1.1-0.8-2.3-1.2-3.4c-0.1,0-0.2,0.1-0.2,0.1c0.8,2.5,1.6,5,2.5,7.5c0.2,0.8,0.4,1.4-0.7,1.6
					c0.8,0.4,1.4-0.1,2.1-0.3c3.1-1,6.2-2,9.3-3.1c2.5-0.8,4.9-1.6,7.4-2.4c0-0.1-0.1-0.2-0.1-0.4v-0.1c-2.3,0.8-4.7,1.6-7,2.4
					c-1.4-1.6-1.5-3.9-2.3-5.8l0,0c0,0,0-0.1-0.1-0.1c0-0.1-0.1-0.2-0.1-0.2c0,0.1,0,0.1,0.1,0.2c-0.1-0.4-0.3-0.8-0.4-1.2
					c-0.2,0-0.3,0.1-0.5,0.1h-0.1h0.1h-0.1l0,0c0.3,0.9,0.5,1.7,0.9,2.7c0.3,0.9,0.5,1.7,1,2.6c0.2,0.7,0.3,1.1,0.3,1.5
					c0,0.2-0.2,0.4-0.3,0.7c-0.3,0.2-0.8,0.4-1.4,0.4c-0.2,0.1-0.4,0.1-0.7,0c-0.1-0.1-0.2-0.2-0.3-0.5c-0.8-2.4-1.5-4.8-2.4-7.1
					c-0.1-0.4,0-0.9,0.4-1.1c0.1-0.1,0.2-0.3,0.2-0.4c-0.1,0-0.2,0-0.3-0.1c-0.1,0-0.2-0.1-0.3-0.1c-0.2,0-0.4,0-0.5,0.2
					C789.6,235.1,790.8,237.5,791.7,239.9z"/>
			</g>
		</g>
		<g>
			<g>
				<path class="st4" d="M794.1,234.5c0,0,0,0.1,0.1,0.1l0,0l0,0C794.1,234.6,794.1,234.6,794.1,234.5z"/>
			</g>
		</g>
		<g>
			<g>
				<path class="st4" d="M783.3,235.1L783.3,235.1c0.4,1.1,0.8,2.3,1.2,3.4C784.2,237.4,783.7,236.3,783.3,235.1z"/>
			</g>
		</g>
		<g>
			<g>
				<path class="st4" d="M783.1,235.2L783.1,235.2c0.1,0,0.2-0.1,0.2-0.1C783.2,235.2,783.2,235.2,783.1,235.2z"/>
			</g>
		</g>
		<g>
			<g>
				<path class="st7" d="M774.5,239c0.1-0.4,0.3-0.9,0.7-1.2C774.8,238.1,774.6,238.6,774.5,239z"/>
			</g>
		</g>
		<g>
			<g>
				<path class="st7" d="M774.8,241.4c-0.1-0.2-0.2-0.3-0.4-0.4l0,0C774.6,241.1,774.7,241.2,774.8,241.4z"/>
			</g>
		</g>
		<g>
			<g>
				<path class="st7" d="M774.5,240.9c-0.1-0.2-0.1-0.4-0.2-0.7c0-0.3,0.1-0.7,0.2-1c-0.1,0.3-0.1,0.7-0.2,1l0,0l0,0
					C774.2,240.4,774.3,240.7,774.5,240.9z"/>
			</g>
		</g>
		<g>
			<g>
				<path class="st7" d="M774.5,240.9L774.5,240.9c0.1,0.1,0.3,0.3,0.4,0.4c0.1,0.1,0.1,0.2,0.2,0.3c0.1,0.2,0.2,0.3,0.3,0.5
					c0,0.1,0.1,0.1,0.1,0.2c0-0.1-0.1-0.1-0.1-0.2c0.4,1,0.7,2.2,1,3.3c0.4,1.3,1.1,1.6,2.2,1l0,0l0,0c-0.5-1.7-1.1-3.5-1.7-5.2
					c-0.4-1.2-0.5-2.4,0-3.5c-0.1-0.2-0.1-0.4-0.2-0.7c-0.4,0.1-0.8,0.2-1.1,0.4c-0.1,0.1-0.3,0.2-0.4,0.3c-0.3,0.3-0.5,0.8-0.7,1.2
					c0,0.1,0,0.1-0.1,0.2c-0.1,0.3-0.1,0.7-0.2,1C774.2,240.4,774.3,240.7,774.5,240.9z"/>
			</g>
		</g>
		<g>
			<g>
				<path class="st7" d="M774.2,240.2L774.2,240.2c0.1,0.2,0.1,0.4,0.2,0.7C774.3,240.7,774.2,240.4,774.2,240.2z"/>
			</g>
		</g>
		<g>
			<g>
				<path class="st7" d="M774.5,240.9c0.2,0.2,0.4,0.5,0.5,0.8c-0.1-0.1-0.1-0.2-0.2-0.3C774.7,241.2,774.6,241.1,774.5,240.9
					L774.5,240.9z"/>
			</g>
		</g>
		<g>
			<g>
				<path class="st1" d="M790.6,233.6c0.3,0.5,0.7,1.2,1,1.9c0.3,0.9,0.7,1.6,0.9,2.5c-0.1-0.2-0.1-0.4-0.2-0.7
					c0.1,0.2,0.1,0.4,0.2,0.7s0.1,0.4,0.2,0.7c0.1,0.2,0.1,0.4,0.2,0.7c0-0.2-0.1-0.4-0.2-0.7c0.2,0.9,0.4,1.7,0.5,2.7
					c0,0.1,0.1,0.2,0.1,0.3c0.7-0.1,1.1-0.2,1.4-0.4c0.2-0.2,0.3-0.4,0.3-0.7c0.1-0.4,0-0.9-0.3-1.5c-0.3-0.9-0.7-1.7-1-2.6
					s-0.5-1.7-0.9-2.7c-0.1-0.2-0.1-0.4-0.2-0.8c-0.2-0.3-0.4-0.5-0.7-0.9c-0.4,0.1-1,0.3-1.4,0.4c-0.1,0.1-0.2,0.3-0.2,0.4
					C790.5,233.1,790.5,233.3,790.6,233.6z M794.3,237.6c-0.1-0.4-0.3-0.9-0.4-1.3C794,236.7,794.1,237.2,794.3,237.6z"/>
			</g>
		</g>
		<g>
			<g>
				<path class="st1" d="M793.4,241.5c0.7-0.1,1.1-0.2,1.4-0.4C794.4,241.3,794,241.5,793.4,241.5L793.4,241.5z"/>
			</g>
		</g>
		<g>
			<g>
				<path class="st1" d="M795.1,240.4c0,0.2-0.2,0.4-0.3,0.7C795,240.9,795.1,240.7,795.1,240.4z"/>
			</g>
		</g>
		<g>
			<g>
				<path class="st1" d="M793.8,236.3c-0.3-0.9-0.5-1.7-0.9-2.7l0,0l0,0C793.2,234.4,793.6,235.3,793.8,236.3z"/>
			</g>
		</g>
		<g>
			<g>
				<path class="st8" d="M806.1,248.8L806.1,248.8c0-0.1-0.1-0.2-0.1-0.2l0,0C806,248.6,806.1,248.7,806.1,248.8z"/>
			</g>
		</g>
		<g>
			<g>
				<path class="st8" d="M837.8,332.3c-1.5,0.4-2.9,1-4.5,1.4C834.9,333.2,836.4,332.7,837.8,332.3L837.8,332.3z"/>
			</g>
		</g>
		<g>
			<g>
				<path class="st8" d="M820,338.3L820,338.3c2.9-1.1,5.9-2.2,8.8-3.2C825.9,336.1,822.8,337.1,820,338.3z"/>
			</g>
		</g>
		<g>
			<g>
				<path class="st8" d="M837.9,332.5L837.9,332.5L837.9,332.5c0-0.1,0-0.2,0-0.2c-1.5,0.4-2.9,1-4.5,1.4c-1.5,0.4-2.9,1-4.5,1.4
					c-2.9,1-6,2-8.8,3.2c0.2,0,0.5,0,0.8,0C826.4,336.3,832.1,334.5,837.9,332.5z"/>
			</g>
		</g>
		<g>
			<g>
				<path class="st8" d="M820.8,338.3c5.7-1.9,11.5-3.8,17.1-5.7l0,0C832.1,334.5,826.4,336.3,820.8,338.3z"/>
			</g>
		</g>
		<g>
			<g>
				<path class="st2" d="M774.2,241.9c0-0.3-0.1-0.5-0.1-0.9C774.1,241.3,774.2,241.5,774.2,241.9L774.2,241.9L774.2,241.9z"/>
			</g>
		</g>
		<g>
			<g>
				<path class="st2" d="M776.5,247.5L776.5,247.5c-0.7-2.2-1.4-4.5-2.1-6.7C775.1,243.2,775.9,245.4,776.5,247.5z"/>
			</g>
		</g>
		<g>
			<g>
				<path class="st2" d="M776.4,247.6L776.4,247.6C776.3,247.6,776.3,247.6,776.4,247.6c-0.8-2-1.4-3.8-2.2-5.8
					C774.9,243.7,775.7,245.7,776.4,247.6C776.3,247.6,776.3,247.6,776.4,247.6z"/>
			</g>
		</g>
		<g>
			<g>
				<path class="st2" d="M776.3,247.6L776.3,247.6C776.4,247.6,776.4,247.6,776.3,247.6c0.1,0,0.2,0,0.2-0.1l0,0l0,0
					c-0.7-2.2-1.4-4.5-2.1-6.7c-0.1,0-0.2,0.1-0.3,0.1c0,0.3,0.1,0.5,0.1,0.9C774.9,243.7,775.7,245.7,776.3,247.6z"/>
			</g>
		</g>
		<g>
			<g>
				<path class="st2" d="M774.2,241.9L774.2,241.9c0.7,2,1.4,3.8,2.1,5.8l0,0C775.7,245.7,774.9,243.7,774.2,241.9z"/>
			</g>
		</g>
		<g>
			<g>
				<path class="st4" d="M793.4,231.4c-0.2-0.1-0.4-0.1-0.7-0.1C792.9,231.1,793,231.1,793.4,231.4z"/>
			</g>
		</g>
		<g>
			<g>
				<path class="st4" d="M792,231.9c0.2,0.3,0.4,0.5,0.7,0.9c0.8-0.1,0.2-1,0.8-1.3c0-0.1,0-0.1,0-0.2h-0.1
					c-0.2-0.1-0.4-0.1-0.7-0.1C792.5,231.4,792.3,231.7,792,231.9z"/>
			</g>
		</g>
		<g>
			<g>
				<path class="st4" d="M774.2,240.2c0,0,0,0.1-0.1,0.1C774.1,240.3,774.1,240.2,774.2,240.2L774.2,240.2z"/>
			</g>
		</g>
		<g>
			<g>
				<path class="st4" d="M774.5,240.9L774.5,240.9c-0.1-0.2-0.1-0.4-0.2-0.7c0,0,0,0.1-0.1,0.1c-0.1,0.2-0.1,0.4,0,0.7
					C774.2,241,774.3,241,774.5,240.9L774.5,240.9z"/>
			</g>
		</g>
		<g>
			<g>
				<path class="st1" d="M804.4,240.8c-0.2-0.5-0.4-1.2-0.7-1.7c0-0.1-0.1-0.2-0.1-0.2l0,0C803.9,239.3,804.2,240,804.4,240.8z"/>
			</g>
		</g>
		<g>
			<g>
				<path class="st1" d="M805.1,242.8c-0.5-1.3-1-2.6-1.4-3.8c0.2,0.5,0.4,1.2,0.7,1.7c-0.2-0.7-0.4-1.4-0.8-2.1
					c-2.5,0.8-4.9,1.6-7.4,2.4c0,0.1,0.1,0.1,0.1,0.2c0.7,1.1,1.1,2.2,1.5,3.4c0.4,1.2,0,1.6-1.1,2c-3.5,1.1-7,2.3-10.4,3.5l0,0
					l18.8-6.2C805.4,243.6,805.4,243.3,805.1,242.8z"/>
			</g>
		</g>
		<g>
			<g>
				<path class="st6" d="M786.5,250.2C786.4,250.2,786.4,250.2,786.5,250.2c-1.2-1.4-1.2-3.3-2-4.8c-0.8,0.2-1.5,0.5-2.3,0.8
					c-1.1,0.3-2.2,0.8-3.3,1.1c1.1-0.3,2.2-0.8,3.3-1.1c-1.1,0.3-2.2,0.8-3.3,1.1c0.3,1.7,1.4,3.3,1.3,5L786.5,250.2z"/>
			</g>
		</g>
		<g>
			<g>
				<path class="st7" d="M778.8,247.2c-0.1-0.1-0.1-0.1-0.2-0.2c-0.7,0.2-1.4,0.4-2.1,0.7l0,0l0,0c-0.1,0-0.1,0-0.2,0l0,0l0,0l0,0
					c0,1.2,0.7,2.3,1,3.5c0.3,1.1,0.5,1.5,0.9,1.7l2.1-0.7C780.2,250.4,779.2,248.8,778.8,247.2z"/>
			</g>
		</g>
		<g>
			<g>
				<path class="st7" d="M776.5,247.5L776.5,247.5C776.4,247.5,776.4,247.5,776.5,247.5L776.5,247.5
					C776.4,247.6,776.4,247.5,776.5,247.5z"/>
			</g>
		</g>
		<g>
			<g>
				<path class="st7" d="M794.1,234.8c0.9,2,0.9,4.2,2.3,5.8c-0.7-1.4-0.9-3.1-1.5-4.5C794.8,235.6,794.4,235.1,794.1,234.8z"/>
			</g>
		</g>
		<g>
			<g>
				<path class="st7" d="M794.1,234.8L794.1,234.8c0.3,0.4,0.7,0.9,0.9,1.3C794.8,235.6,794.4,235.1,794.1,234.8z"/>
			</g>
		</g>
		<g>
			<g>
				<path class="st7" d="M793.8,232.5c-0.1-0.3-0.2-0.5-0.3-0.9l0,0c-0.4,0.3,0,1.1-0.8,1.3c0.1,0.2,0.1,0.4,0.2,0.8
					c0.2-0.1,0.4-0.1,0.7-0.2C793.9,233,793.9,232.7,793.8,232.5z"/>
			</g>
		</g>
		<g>
			<g>
				<path class="st7" d="M793.8,232.5c-0.1-0.3-0.2-0.5-0.3-0.9l0,0l0,0C793.6,231.8,793.7,232.1,793.8,232.5z"/>
			</g>
		</g>
		<g>
			<g>
				<path class="st7" d="M793,233.6L793,233.6c-0.1-0.2-0.1-0.4-0.2-0.8C792.8,233.1,792.9,233.3,793,233.6z"/>
			</g>
		</g>
		<g>
			<g>
				<path class="st1" d="M784.4,244.6c0,0.2,0,0.5,0,0.8l0,0l0,0l0,0c0.8,1.5,0.8,3.4,2,4.8c3.5-1.2,6.9-2.3,10.4-3.5
					c1.1-0.3,1.5-0.8,1.1-2s-0.9-2.3-1.5-3.4c0-0.1-0.1-0.1-0.1-0.2l0,0l0,0c-3.1,1-6.2,2.1-9.3,3.1c-0.7,0.2-1.3,0.8-2.1,0.3
					C784.7,244.5,784.6,244.5,784.4,244.6L784.4,244.6z"/>
			</g>
		</g>
		<g>
			<g>
				<path class="st1" d="M796.4,241.3c0.7,1.1,1.1,2.2,1.5,3.4C797.5,243.5,797,242.4,796.4,241.3z"/>
			</g>
		</g>
		<g>
			<g>
				<path class="st1" d="M784.8,244.4c1.1-0.2,0.9-0.9,0.7-1.6c-0.9-2.5-1.6-5-2.5-7.5c-1,0.8-1.1,2-0.9,2.9
					c0.1,0.5,0.2,1.1,0.4,1.6c0.4,1.6,1,3.2,1.9,4.7C784.6,244.5,784.7,244.5,784.8,244.4z"/>
			</g>
		</g>
		<g>
			<g>
				<path class="st1" d="M782.6,239.9c0.4,1.6,1,3.2,1.9,4.7l0,0C783.6,243.1,783.1,241.5,782.6,239.9z"/>
			</g>
		</g>
		<g>
			<g>
				<path class="st6" d="M779.3,244.8c-0.8-2.4-1.6-4.7-2.4-7.1c-0.5,1.2-0.4,2.3,0,3.5c0.7,1.7,1.2,3.5,1.7,5.2
					C779.6,246.2,779.5,245.6,779.3,244.8z"/>
			</g>
		</g>
		<g>
			<g>
				<path class="st4" d="M775,241.7c0.1,0.2,0.2,0.3,0.3,0.5C775.2,242.1,775.1,241.9,775,241.7z"/>
			</g>
		</g>
		<g>
			<g>
				<path class="st4" d="M778.6,247c0-0.2-0.1-0.3-0.1-0.5c-1.2,0.7-1.7,0.3-2.2-1c-0.3-1.1-0.5-2.2-1-3.3c-0.1-0.2-0.2-0.3-0.3-0.5
					c-0.2-0.3-0.3-0.5-0.5-0.8l0,0c0.7,2.2,1.4,4.5,2.1,6.7C777.2,247.3,777.9,247.2,778.6,247z"/>
			</g>
		</g>
		<g>
			<g>
				<path class="st4" d="M778.5,246.4L778.5,246.4c0,0.2,0.1,0.3,0.1,0.5C778.6,246.8,778.6,246.7,778.5,246.4z"/>
			</g>
		</g>
		<g>
			<g>
				<path class="st1" d="M793.4,241.5c0-0.1-0.1-0.2-0.1-0.3c-0.9-2.5-1.7-5.1-2.5-7.6c-0.1-0.2-0.1-0.4-0.2-0.7
					c-0.4,0.2-0.5,0.5-0.4,1.1c0.8,2.4,1.5,4.8,2.4,7.1c0.1,0.2,0.2,0.4,0.3,0.5C792.8,241.6,793,241.6,793.4,241.5z"/>
			</g>
		</g>
		<g>
			<g>
				<path class="st1" d="M792.7,241.5c0.1,0.1,0.3,0.1,0.7,0l0,0C793,241.6,792.8,241.6,792.7,241.5z"/>
			</g>
		</g>
		<g>
			<g>
				<path class="st1" d="M792.5,237.9c0.1,0.2,0.1,0.4,0.2,0.7C792.7,238.4,792.6,238.1,792.5,237.9z"/>
			</g>
		</g>
		<g>
			<g>
				<path class="st1" d="M793.2,241.2c-0.1-0.9-0.3-1.9-0.5-2.7c-0.1-0.2-0.1-0.4-0.2-0.7c-0.2-0.9-0.5-1.7-0.9-2.5
					c-0.3-0.7-0.7-1.2-1-1.9C791.5,236.1,792.4,238.7,793.2,241.2z"/>
			</g>
		</g>
		<g>
			<g>
				<g>
					<path d="M868.7,383.9l-0.3-0.7c-3.9-6.8-7.6-13.1-9.7-20.3c-2-6.3-2.8-13.2-3.7-19.9c-0.1-1.1-0.2-2.2-0.4-3.4
						c-0.4-4-0.9-8.3-2.7-12.3c-0.1-0.3-0.2-0.7-0.3-1.1c-0.2-1-0.5-2.2-1.4-3.4c-2.5-5.7-5-11.8-6.6-18.2c-0.4-2-1-3.8-1.5-5.7
						c-0.2-0.7-0.4-1.4-0.7-2.1c0-0.1-0.1-0.2-0.1-0.3l0,0c-0.1-1.1-0.2-2.3-0.8-3.5c-0.2-0.8-0.4-1.5-0.7-2.3
						c-0.5-2.1-1.1-4.3-2.4-6.1c-3.9-6.2-8.7-11.6-13-16.1c-1.4-2-3.1-3.8-4.6-5.7c-1.2-1.3-2.3-2.6-3.3-3.9
						c-0.9-1.1-1.9-2.2-2.7-3.2c-1.9-2.1-3.7-4.2-4.7-6.7c1-0.4,1.6-1.1,2.1-2.1c0.3-0.9,0.3-2-0.1-2.8c0-0.1,0-0.1-0.1-0.2
						c-0.1-0.7-0.4-2-1.7-2.7c-0.4-0.2-1-0.4-1.6-0.4v-0.1c-0.4-1.1-0.8-2.3-1.2-3.5c-0.7-2.1-1.3-4.2-2.4-6.2
						c-0.1-0.1-0.1-0.2-0.2-0.3c-2.2-3.2-5.4-4.3-8.8-3.1c-0.7,0.2-1.3,0.4-2,0.9c-0.4,0-0.9,0.1-1.1,0.1c-0.7,0.2-1.1,0.5-1.4,1
						c-0.4-0.1-1-0.1-1.6,0.1c-0.2,0.1-0.4,0.2-0.7,0.3l-2,0.7l-3.2,1l-5.6,1.9c-0.3,0-0.5,0.1-0.9,0.2c-0.5,0.2-1.1,0.5-1.5,1
						c-1.9,0.7-3.1,2.2-3.5,4.6c-0.3,0.8-0.3,1.6-0.1,2.4l0,0c-0.1,1.1,0.2,2,0.4,2.4c0,0.1,0.1,0.1,0.1,0.2
						c0.5,1.7,1.1,3.5,1.7,5.2l0.8,2.3c-0.4,0.4-0.8,0.8-0.9,1.2c-0.7,1.4-0.2,2.6,0.1,3.4c0,0.1,0.1,0.2,0.1,0.2
						c0.4,1.4,1.3,2.1,1.9,2.4c0.5,0.3,1.4,0.5,2.5,0.3c0,0.1,0.1,0.2,0.1,0.4c0.2,0.5,0.4,1.1,0.3,1.4c-0.2,3.4-0.3,6.8-0.4,10
						c-0.1,1.4-0.2,2.8-0.3,4.3c-0.2,2.7-0.4,5.6-0.3,8.5c-0.5,3.4-0.7,6.9-0.8,10.2c0,1.2-0.1,2.3-0.1,3.5
						c-0.2,3.7-0.2,7.4,1.2,11.1l0.1,0.3c0.8,2.1,1.5,4.2,3.1,5c-0.1,0.2-0.2,0.4-0.2,0.7c-0.1,0.5-0.1,1,0.1,1.5l0.2,0.7
						c0.2,0.5,0.3,1.1,0.5,1.6c2.9,7.1,6,14.7,7.6,23c0.3,1.5,0.7,3.1,1.9,3.9c-0.3,0.7-0.4,1.3-0.3,2c0,0.1,0.1,0.2,0.1,0.4
						c0.2,0.5,0.3,1,0.4,1.5c0.4,1.3,0.8,2.7,1.5,4c2.5,4.8,5.2,9.5,7.8,13.9c5.4,9.2,8.5,19.3,9.5,30c0.7,7.1,2,15.4,6.4,22.9
						c1.4,2.7,3.4,6.2,6.3,9.2c2.7,2.8,6.4,3.8,9.8,2.6c2.7-0.9,4.9-3.1,6-6c0.3-0.8,0.5-1,1-1.2c0.2-0.1,0.5-0.2,0.8-0.3
						c0.5-0.2,1.3-0.3,2.5,0.3c3.1,1.6,5.5,2,7.8,1.2c2.9-1,4.6-3.7,5.6-5.7c0.1-0.2,0.2-0.3,0.3-0.5c0.3-0.7,0.8-1,1.3-1.2
						c0.7-0.2,1.3-0.1,2,0.3c2.8,1.7,6,2.2,8.7,1.2c3.6-1.2,6-4.5,6.3-8.5C875.8,401.9,873.7,392.4,868.7,383.9z M813.2,273.5
						c-0.4,0.1-1,0.2-1.4,0.3c-1.5,0.5-3.2,1.1-4.7,1.5c-1.5,0.5-3.2,1.1-4.7,1.5c-0.5,0.2-1.1,0.4-1.7,0.8c0,0,0,0,0-0.1v-0.1
						c-0.3,0.1-0.7,0.2-1.1,0.4c-0.3,0.1-0.8,0.2-1.1,0.4c-0.9,0.3-1.9,0.7-2.7,1c-2.5,0.8-4.9,1.6-7.4,2.4
						c-1.1,0.3-2.1,0.7-3.2,0.9c-0.1,0.1-0.2,0.2-0.3,0.2c-0.1,1.4-0.1,2.7-0.1,4.2c0-0.7,0.1-1.4,0.1-2.1s0-1.4,0.1-2.1
						c-1.5,0.4-3.1,0.9-4.6,1.3c-0.1-2.2,0-4.3,0.1-6.4s0.3-4.3,0.4-6.3c0.1-3.4,0.3-6.7,0.4-10c0.1-1.4-0.7-2.6-1-3.9h0.1h-0.1
						c0-0.1-0.1-0.2-0.1-0.4l0,0l19.3-6.4l6.4-2.2c0,0.1,0.1,0.2,0.1,0.2c0.2,0.7,0.4,1.2,0.7,1.7c0.8,1.6,1.7,3.2,2.9,4.6
						c0.8,1,1.5,1.9,2.4,2.7c0.8,0.9,1.6,1.9,2.3,2.7s1.3,1.6,2,2.4c2.1,2.4,4.2,4.7,6,7.2C819.3,271.3,816.3,272.4,813.2,273.5z"/>
				</g>
			</g>
			<g>
				<g>
					<g>
						<path class="st9" d="M865,385.9l-0.3-0.7c-4-7-7.9-13.5-10.2-21.2c-2-6.7-2.9-13.7-3.9-20.5c-0.1-1.1-0.3-2.3-0.4-3.5
							c-0.4-3.9-0.8-7.5-2.4-11c-0.3-0.7-0.4-1.3-0.5-1.9c-0.2-0.7-0.3-1.3-0.7-1.7c-0.2-0.3-0.4-0.5-0.5-0.9
							c-2.5-5.6-5.2-12.1-6.8-19c-0.4-1.7-0.9-3.5-1.5-5.4c-0.2-0.7-0.4-1.4-0.7-2.1c0-0.1-0.1-0.7-0.2-0.7c0-0.1,0-0.3-0.1-0.4
							c-0.1-0.9-0.2-1.6-0.4-2.2c-0.1-0.1-0.1-0.3-0.1-0.4c-0.2-0.8-0.4-1.5-0.8-2.5c-0.4-1.9-1-3.6-1.9-4.9
							c-3.1-4.7-6.6-9-9.9-12.7l-9.2,3.3c-0.2,0.1-0.3,0.1-0.5,0.1l-1.2,0.3l-9.1,3.1l-1.5,0.7c-0.4,0.2-0.9,0.2-1.3,0.3l-3.7,1.4
							l-7.5,2.5l-0.5,0.1c0,0.2,0,0.3,0,0.5v0.7c-0.1,2.4-2.1,4.3-4.5,4.2c-0.1,0-0.2,0-0.2,0c-1.2-0.1-2.3-0.8-2.9-1.6
							c-0.1,1.6-0.1,3.2-0.2,4.7c0,1.2-0.1,2.4-0.1,3.6c-0.2,3.4-0.2,6.4,0.9,9.5l0.1,0.3c0.3,1,1,2.6,1.3,2.9c1.7,1,2.4,3.2,1.9,5
							v0.1c0.1,0.4,0.3,0.9,0.4,1.3c3.1,7.3,6.1,15.2,7.9,23.8c0.1,0.4,0.2,1.1,0.3,1.4c1.4,1.2,2,3.2,1.4,4.9
							c0.1,0.3,0.3,1.2,0.3,1.2c0.3,1.2,0.7,2.3,1.2,3.3c2.5,4.7,5.1,9.4,7.6,13.8c5.7,9.7,9.1,20.4,10.2,31.8
							c0.7,6.7,1.7,14.3,5.9,21.2c0,0.1,0.1,0.1,0.1,0.2c1.3,2.4,3.1,5.6,5.6,8.2c1.1,1.1,2.3,1.6,3.5,1.9c0.7,0.1,1.3,0,2-0.2
							c2-0.7,2.8-2.3,3.4-3.5c0.7-1.6,1.5-2.7,2.8-3.5c0.4-0.2,1-0.5,1.5-0.7c1-0.3,1.9-0.4,2.8-0.3c1,0.1,2,0.4,2.9,1
							c1.2,0.7,2.3,1,3.1,1.1c0.4,0,0.9,0,1.3-0.1c1.4-0.4,2.4-2.2,3.1-3.5c0.1-0.2,0.2-0.5,0.4-0.8c0.9-1.5,2.2-2.6,3.8-3.2
							c0.9-0.3,1.7-0.3,2.6-0.3c1,0.1,2,0.4,2.9,1c1,0.5,2,1,2.9,1.1c0.8,0.1,1.5,0,2.2-0.2c2-0.7,3.2-2.4,3.4-4.8
							C871.5,402.4,869.6,393.8,865,385.9z"/>
					</g>
				</g>
				<g>
					<g>
						<path class="st9" d="M785.8,281.8c0,0,2.1,8.2,2.4,12.1c0.3,3.9-1.4,6.4-3.4,5.6c-2-0.9-5.2-10.8-5.2-11.5s0.5-4.2,0.5-4.2"/>
					</g>
				</g>
				<g>
					<g>
						<path d="M829.9,424.4c-0.2,0-0.4-0.2-0.9-0.5c-2.2-2.2-3.7-4.9-4.8-7.1c-0.1-0.2-0.2-0.3-0.3-0.4c-3.6-6-4.7-13.1-5.2-19.3
							c-1.1-12-4.7-23.3-10.7-33.5c-2.5-4.3-5.1-9-7.6-13.5c-0.3-0.5-0.5-1.4-0.9-2.4v-0.1c0.4-2.5-0.3-5-2-7l0,0
							c-1.9-9.1-5-17.3-8.2-24.7l0,0c0.3-2.8-0.8-5.8-2.9-7.6c-0.2-0.5-0.4-1.2-0.5-1.5l-0.1-0.3c-0.9-2.3-0.8-4.8-0.7-7.8
							c0-0.9,0.1-1.7,0.1-2.5c3.6-0.3,6.8-2.8,7.6-6.3l5.5-1.7l3.6-1.3c0.7-0.1,1.3-0.3,2-0.5l1.4-0.5l8.7-2.9l1-0.2
							c0.3-0.1,0.7-0.2,1.1-0.3c0,0,3.7-1.3,6.3-2.3c3.1,3.6,5.6,6.8,7.5,9.9c0.5,0.8,0.9,2.2,1.3,3.7c0.3,1,0.5,1.9,0.8,2.7
							c0.1,0.2,0.2,0.5,0.3,0.9c0,0.1,0.1,0.5,0.1,0.9s0.1,0.7,0.1,0.9c0,0.1,0.2,0.9,0.2,1c0.2,0.8,0.4,1.4,0.7,2.2
							c0.5,1.7,1,3.5,1.4,5c1.6,7.3,4.5,14,7.1,19.8c0.2,0.5,0.5,1.1,0.9,1.5c0,0.1,0.1,0.3,0.1,0.4c0.2,0.7,0.4,1.6,0.9,2.6
							c1.3,2.8,1.6,6,2.1,9.7c0.1,1.2,0.2,2.4,0.4,3.6c1,7,1.9,14.1,4,21.2c2.4,8.2,6.4,15,10.6,22.2l0.3,0.7c4,7,5.8,14.9,5.1,23.3
							c0,0.4-0.2,1-0.4,1.1c-0.1,0-0.2,0-0.4,0c-0.3,0-0.8-0.2-1.2-0.4c-1.5-0.9-3.1-1.4-4.8-1.6c-1.5-0.1-2.9,0-4.5,0.4
							c-2.6,0.9-4.8,2.7-6.2,5.2c-0.1,0.2-0.3,0.5-0.5,1c-0.2,0.4-0.4,0.8-0.5,1c-0.2-0.1-0.5-0.2-0.9-0.4c-1.5-0.8-3.1-1.3-4.6-1.4
							c-1.5-0.1-3.2,0-4.7,0.5c-0.8,0.2-1.5,0.5-2.3,1c-2.2,1.2-3.8,3.2-4.8,5.7c-0.1,0.3-0.3,0.9-0.7,1L829.9,424.4z"/>
					</g>
				</g>
				<g>
					<g>
						<path class="st7" d="M804.7,244.5c0.1,0,0.2-0.1,0.3-0.1c-0.7-0.5-1.2-1.2-1.5-2c-0.4-1.2-0.9-2.4-1.2-3.7
							c-0.5-2-1.2-3.8-2-5.5c-1.1-1.5-2-1.6-2.3-1.6c-0.4,0-1,0-1.6,0.2c-0.4,0.1-0.9,0.3-1.3,0.5c-0.5,0.2-1.1,0.4-1.6,0.4
							c-0.9,0.9-2.1,1.2-3.3,1.1l0,0c-0.1,0.1-0.3,0.1-0.4,0.2l-2.1,0.8l-3.2,1l-5.6,1.9c-0.2,0.1-0.4,0.1-0.7,0.1c0,0,0,0-0.1,0
							c-0.4,0.4-1,0.8-1.5,1c-0.2,0.1-0.5,0.2-0.7,1.3c0,0.2-0.1,0.4-0.2,0.7c0,0.1,0.1,0.3,0.1,0.4c0,0.3,0.1,0.7,0,1
							c0,0.1,0.1,0.2,0.1,0.3c0.1,0.1,0.2,0.4,0.2,0.7c0.5,1.7,1.1,3.5,1.7,5.2l0.8,2.3c0.3,0.9,0.3,1.7,0,2.5
							C778.7,253.1,804.7,244.5,804.7,244.5z"/>
					</g>
				</g>
			</g>
			<g>
				<g>
					<path d="M776.5,247.5L776.5,247.5c-0.7-2.2-1.4-4.5-2.1-6.7C775.1,243.2,775.9,245.4,776.5,247.5z"/>
				</g>
			</g>
			<g>
				<g>
					<path d="M802.1,239.1c-2,0.7-3.9,1.3-5.9,2l0,0C798.3,240.4,800.1,239.8,802.1,239.1z"/>
				</g>
			</g>
			<g>
				<g>
					<path d="M803.5,238.3c0,0.1,0.1,0.2,0.1,0.4c0,0.1,0.1,0.2,0.1,0.2c0-0.1-0.1-0.2-0.1-0.2C803.6,238.5,803.5,238.4,803.5,238.3
						c-0.7-2.1-1.2-3.9-1.9-5.9C802.3,234.3,802.9,236.2,803.5,238.3C803.5,238.1,803.5,238.3,803.5,238.3z"/>
				</g>
			</g>
			<g>
				<g>
					<path d="M793.7,233.3L793.7,233.3c0.1,0.3,0.2,0.7,0.3,1c0-0.1-0.1-0.3-0.1-0.4C793.8,233.7,793.7,233.6,793.7,233.3
						c-0.2,0.1-0.3,0.1-0.5,0.2c0,0,0,0,0.1,0C793.4,233.4,793.5,233.4,793.7,233.3z"/>
				</g>
			</g>
		</g>
	</g>
	<g>
		<g>
			<path d="M809.3,380.9c-0.1,0-0.1,0.1-0.2,0.1l-0.9,0.9c-0.1,0.1-0.2,0.2-0.4,0.3c-0.1,0.1-0.2,0.2-0.3,0.3
				c-0.7-2-1.2-6.1-1.5-8.4c0-0.1,0-0.2,0-0.3l0,0c0-0.1,0-0.2,0-0.2h0.1v-0.2c0-0.2,0-0.3,0-0.5h-0.2c0-0.1,0-0.2,0-0.2l0.2-0.1
				c0-0.2,0-0.4-0.1-0.7c0-0.2-0.1-0.3-0.1-0.7c-0.1-0.2-0.1-0.4-0.2-0.8c-0.1-0.2-0.2-0.4-0.2-0.7l-0.1-0.2
				c-0.1-0.1-0.1-0.3-0.2-0.4l-0.3-4.6l0.2-6.6c0.2-0.4,0.3-0.9,0.4-1.1c0.1-0.4,0.1-0.8,0.1-1.2l0,0c0.5-0.2,0.9-0.7,1-0.9
				c0.3-0.7,0.2-1.3-0.3-2.2c-1.3-2.1-1.7-4.5-2.1-6.4c-0.1-0.9-0.2-1.6-0.3-2.5l-0.2-2c-0.1-1.3-0.3-2.8-1.1-3.7
				c-0.8-0.8-1.3-1.6-1.5-2.5c-0.8-2.2,0.1-4.5,1.2-7l0.5-0.1l-0.1-0.8c0.4-1.1,0.9-2.3,1.1-3.5c0.1-0.5,0.2-1.1,0.3-1.6
				c0.9,0.5,2.2,1.2,3.4,2c-0.1-0.9-0.2-1.9-0.3-2.7c-1-0.7-2-1.2-2.6-1.6c0.1-1,0.2-2,0.1-2.9c0-1.4,0.2-2.4,0.9-3.3
				c-0.2-0.8-0.4-1.5-0.5-2.3c-0.3-1.2-0.3-2.3-0.3-3.3c-0.1,0.1-0.3,0.2-0.4,0.3c-1.4-6.3-3.9-11-7.8-14.2c-1.2-1-2.3-1.6-3.4-2.2
				c-0.7-0.3-1.4-0.7-2.4-1.1c-0.5-0.2-1.1-0.3-1.5-0.5c-2.1-0.7-3.9-0.8-5.7-0.5h-0.3c-0.9,0.1-1.6,0.3-2.4,0.7l-0.2,0.1
				c-1.5,0.7-2.8,1.7-4.2,3.2c-3.8,4.5-3.2,9.9-2,15.1c0.3,1.3,0.7,2.6,1.1,3.9c0.9,3.1,1.7,5.9,1.9,9v0.5c0,0.3,0.1,0.9,0,1
				c0,0-0.1,0.1-0.4,0.1c-5.7,1.1-9.1,5.5-12.2,10.2c-1,0.5-1.4,1.6-1.6,2.5c-0.3,0.9-0.4,1.2-0.8,1.3l-0.5,0.2l-0.3,0.7v0.3
				c0,2.3-0.4,2.4-0.9,2.4c-0.4,0.1-1.2,0-2.3-0.2c-1.6-0.3-2.8-0.4-4-0.2c-2,0.2-3.6,1.2-4.9,2.9c-2,0.9-3.5,2.7-4.4,4.9
				c-2.8,7.8-2.9,15.8,0,24c3.7,13.9,10.8,22.1,21.8,25c2,0.5,3.5,0.7,4.9,0.5c2.9-0.4,4.7-2.5,6.2-5.6c4.7,3.1,10,4.2,16.2,3.3
				c0.4,0,0.8-0.1,1.2-0.2c5.1-0.9,9.9-3.3,14.1-7.1l0.3-0.2l0.3-1.4c0.3-0.1,0.8-0.3,1.3-0.5L809.3,380.9z M792.5,390.1
				c-0.8,0.1-1.5,0.3-2.3,0.4c-0.8,0.1-1.6,0.2-2.5,0.2c-1.1,0-2.3,0-3.4-0.2c-1.9-0.3-3.7-1-5.6-2.1c-1.4-0.9-2.7-1.9-4-3.1
				l-0.2-0.2c-0.4-0.7-0.9-1.2-1.4-1.3c-0.2-0.1-0.4-0.1-0.7-0.1l-0.4,0.1h-0.2l-0.3,0.4c-0.3,0.5-0.4,1.1-0.3,1.6
				c-0.5-0.2-1.3-0.5-2.2-1.1c-0.2-0.1-0.4-0.3-0.7-0.4l-0.4-0.1h-0.3c-0.3,0-1,0.3-1.3,1.3c-0.1,0.3-0.1,0.7,0,1l0.1,0.3l0.1,0.1
				c0.2,0.3,0.5,0.5,1,0.8c1.2,1.5,2.7,2.2,4.3,2.7c0.3,0.1,0.5,0.2,0.9,0.3c-0.9,1.2-1.9,1.4-2.5,1.5c-1.2,0.1-2.5-0.2-3.6-0.5
				c-6.6-2-11.6-7-15.3-15.3c-1.4-3.2-2.4-6.2-2.9-9.1c-0.2-1.5-0.4-3.1-0.5-4.7c-0.2-2.2-0.2-3.9,0-5.6c0.1-1.2,0.3-2.2,0.5-3.3
				c0.2-0.9,0.5-1.7,1-2.6c0.7-1.5,1.4-2.6,2.3-3.5c1.2-1,2.5-2,3.9-2.2c0.7-0.1,1.4,0,2.2,0.3c0.5,0.2,1.3,0.5,1.4,1
				c0.1,0.2,0,0.7-0.1,1.1c-0.2,1.2-0.8,2.3-1.2,3.4c-0.9,2.1-2,4.4-1.4,7.2c-0.2,0.4-0.3,1.3,0.2,2.1l0.9,3.5
				c0,0.3,0.1,0.8,0.1,1.2c0.1,1.6,0.2,3.7,2.2,6.1l2-1l-0.9-4c0.5,1.2,1.2,2.4,2.1,3.5c1.7,3.7,4.4,6.1,8.6,8l3.4,1.3l-0.4-0.5
				l0.3,0.1l-7.9-10.3l-3.2-8l-0.3-2.7l0.1-1.3v-2.8v-1.1l0.1-0.4h0.1l0.1-0.8l0.3-1.5h-0.1c0-0.3,0.1-0.7,0.1-1.1
				c0.3-2.3,0.9-4.7,1.7-6.9c0.3-0.9,0.7-1.7,1-2.6c0.7-0.8,1.2-1.6,1.9-2.4c1.6-2.3,3.3-4.5,5.4-5.8c-0.1,0.2-0.5,1-0.5,1l1,0.5
				l-1.2-0.3c-1.1,1.1-1.2,2.2-0.3,3.1c0.3,0.3,0.8,0.4,1.3,0.4c1-0.1,1.6-1.3,1.9-1.9c5.9-5,7.5-11.8,4.8-20.3
				c-0.9-2.7-1.9-5.8-2.3-9c-0.4-3.1,0-5.4,1.1-6.9c0.8-1.1,2-1.6,3.5-1.9c0.9-0.1,1.7-0.1,2.7,0c8.4,1.1,13.3,8.7,12.8,19.8
				c-0.4,10-2.7,16.7-7.3,21.6c-0.2,0.3-0.5,0.5-0.8,0.9c-0.7,0.7-1.1,1.3-1.4,2c-0.1,0.1-0.2,0.3-0.3,0.5c-0.3,0.4-0.2,0.9-0.2,1.2
				c0,0.1,0,0.3,0,0.5v1.6l1.5-0.5c0.3-0.1,0.8-0.2,1-0.4c1.2-0.5,2.3-1.3,3.3-2.3c0.2-0.2,0.5-0.5,0.8-0.9c0.2-0.2,0.4-0.5,0.7-0.8
				c0.5-0.8,0.9-0.9,0.9-0.9s0.4,0.2,0.9,1.5c0.5,1.4,1.1,3.1,1.2,4.6c0,2,0,3.9-0.2,5.8c0,0.4-0.1,0.9-0.2,1.4
				c-0.2,1.9-0.7,3.8-1.2,5.8c-0.8,2.9-1.9,5.7-3.3,8.4c-2.5,4.7-5.6,7.3-9.6,8l-3.8,0.7l3.5,1.5c1.1,0.4,2.3,0.7,3.6,0.4
				c2.9-0.4,6-2.4,8.6-5.8c2.1-2.5,3.4-5.7,4.7-8.8c0,1-0.1,2,0.2,3.1l0.5,4.7c0,0.3,0.1,0.5,0.1,0.8l0,0l0.1,0.2
				c0.1,0.8,0.3,1.5,0.5,2.2l2.9,11.1C801.1,387.1,796.8,389.2,792.5,390.1z"/>
		</g>
	</g>
	<g>
		<g>
			<path class="st10" d="M798.7,315.8c-0.4,10-2.7,16.7-7.3,21.7c-0.2,0.3-0.5,0.5-0.8,0.9c-0.7,0.7-1.1,1.3-1.4,2
				c-0.1,0.1-0.2,0.3-0.3,0.5c-0.3,0.4-0.2,0.9-0.2,1.2c0,0.1,0,0.3,0,0.5v1.6l1.5-0.5c0.3-0.1,0.8-0.2,1-0.4
				c1.2-0.5,2.3-1.3,3.3-2.3c0.2-0.2,0.5-0.5,0.8-0.9c0.2-0.2,0.4-0.5,0.7-0.8c0.5-0.8,0.9-0.9,0.9-0.9s0.4,0.2,0.9,1.5
				c0.5,1.4,1.1,3.1,1.2,4.6c0,2,0,3.9-0.2,5.8c0,0.4-0.1,0.9-0.2,1.4c-0.2,1.9-0.7,3.8-1.2,5.8c-0.8,2.9-1.9,5.7-3.3,8.4
				c-2.5,4.7-5.6,7.3-9.6,8l-3.8,0.7l3.5,1.5c1.1,0.4,2.3,0.7,3.6,0.4c2.9-0.4,6-2.4,8.6-5.8c2.1-2.5,3.4-5.7,4.7-8.8
				c0,1-0.1,2,0.2,3.1l0.5,4.7c0,0.3,0.1,0.5,0.1,0.8l0,0l0.1,0.2c0.1,0.8,0.3,1.5,0.5,2.2l2.9,11.1c-4.5,3.2-8.7,5.1-13,6
				c-0.8,0.1-1.5,0.3-2.3,0.4c-0.8,0.1-1.6,0.2-2.5,0.2c-1.1,0-2.3,0-3.4-0.2c-1.9-0.3-3.7-1-5.6-2.1c-1.4-0.9-2.7-1.9-4-3.1
				l-0.2-0.2c-0.4-0.7-0.9-1.2-1.4-1.3c-0.2-0.1-0.4-0.1-0.7-0.1l-0.4,0.1h-0.3l-0.3,0.4c-0.3,0.5-0.4,1.1-0.3,1.6
				c-0.5-0.2-1.3-0.5-2.2-1.1c-0.2-0.1-0.4-0.3-0.7-0.4l-0.4-0.1h-0.3c-0.3,0-1,0.3-1.3,1.3c-0.1,0.3-0.1,0.7,0,1l0.1,0.3l0.1,0.1
				c0.2,0.3,0.5,0.5,1,0.8c1.2,1.5,2.7,2.2,4.3,2.7c0.3,0.1,0.5,0.2,0.9,0.3c-0.9,1.2-1.9,1.4-2.5,1.5c-1.2,0.1-2.5-0.2-3.6-0.5
				c-6.6-2-11.6-7-15.3-15.3c-1.4-3.2-2.4-6.2-2.9-9.1c-0.2-1.5-0.4-3.1-0.5-4.7c-0.2-2.2-0.2-3.9,0-5.6c0.1-1.2,0.3-2.2,0.5-3.3
				c0.2-0.9,0.5-1.7,1-2.6c0.7-1.5,1.4-2.6,2.3-3.5c1.2-1,2.5-2,3.9-2.2c0.7-0.1,1.4,0,2.2,0.3c0.5,0.2,1.3,0.5,1.4,1
				c0.1,0.2,0,0.7-0.1,1.1c-0.2,1.2-0.8,2.3-1.2,3.4c-0.9,2.1-2,4.4-1.4,7.2c-0.2,0.4-0.3,1.3,0.2,2.1l0.9,3.5
				c0,0.3,0.1,0.8,0.1,1.2c0.1,1.6,0.2,3.7,2.2,6.1l2-1l-0.9-4c0.5,1.2,1.2,2.4,2.1,3.5c1.7,3.7,4.4,6.1,8.6,8l3.4,1.3l-0.4-0.5
				l0.3,0.1l-7.9-10.3l-3.2-8l-0.3-2.7l0.1-1.3v-2.8v-1.1l0.1-0.4h0.1l0.1-0.8l0.3-1.5H764c0-0.3,0.1-0.7,0.1-1.1
				c0.3-2.3,0.9-4.7,1.7-6.9c0.3-0.9,0.7-1.7,1-2.6c0.7-0.8,1.2-1.6,1.9-2.4c1.6-2.3,3.3-4.5,5.4-5.8c-0.1,0.2-0.5,1-0.5,1l1,0.5
				l-1.2-0.3c-1.1,1.1-1.2,2.2-0.3,3.1c0.3,0.3,0.8,0.4,1.3,0.4c1-0.1,1.6-1.3,1.9-1.9c5.9-5,7.5-11.8,4.8-20.3
				c-0.9-2.7-1.9-5.8-2.3-9c-0.4-3.1,0-5.4,1.1-6.9c0.8-1.1,2-1.6,3.5-1.9c0.9-0.1,1.7-0.1,2.7,0
				C794.3,297.1,799.2,304.7,798.7,315.8z"/>
		</g>
	</g>
	<g>
		<g>
			<g>
				<g>
					<path class="st7" d="M857.1,333c-0.8-2.8-0.8-5.7-0.8-5.7l0,0c0.1-2.5-0.4-5.2-1-6.7c-1-2.3-3.8-5.8-4.7-7.2
						c-0.9-1.5-0.3-3.6,0.2-8.3c0.3-2.8-0.7-5.8-1.4-7.8l-4.2,1.4c0.9,1,1.5,2.3,1.9,4c0.1,0.5,0.2,1.1,0.2,1.6
						c0.1,2.1-0.2,3.6-0.9,4.8c-0.3,0.8-0.9,1.3-1.3,1.7c-0.1,0.1-0.1,0.1-0.2,0.2l0.2,0.8l-1-0.1c-0.2,0.2-0.4,0.3-0.7,0.4
						l-0.2,0.2c-0.1,0-0.2,0.1-0.3,0.1c-0.5,0.1-1,0.3-1.5,0.5c-0.2,0.1-0.4,0.1-0.7,0.2c0,0-0.8,0.3-1,0.4
						c-0.9,0.3-1.6,0.7-2.3,0.9c-0.9,0.3-1.6,0.8-2.4,1.1c-1.1,0.5-2.1,1.1-2.9,1.5c-0.4,0.2-0.8,0.4-1.1,0.7c-0.1,0-0.1,0-0.2,0
						c-6.6-0.7-12-4.6-9.7-11l-16.2,5.5c0.1,0.4,0.2,0.8,0.3,1.2c-0.5,0.9-0.9,1.9-0.9,3.3c0,1-0.1,2-0.1,2.9c0.7,0.4,1.6,1,2.6,1.6
						c0.1,0.9,0.2,1.9,0.3,2.7c-1.2-0.7-2.4-1.4-3.4-2c-0.1,0.5-0.2,1.1-0.3,1.6c-0.3,1.2-0.7,2.3-1.1,3.5l0.1,0.8l-0.5,0.1
						c-1.1,2.5-2,4.7-1.2,7c0.3,0.9,0.8,1.7,1.5,2.5c0.9,0.9,1,2.4,1.1,3.7l0.2,2c0.1,0.9,0.2,1.6,0.3,2.5c0.2,2,0.8,4.4,2.1,6.4
						c0.4,0.8,0.5,1.5,0.3,2.2c-0.1,0.3-0.4,0.7-1,0.9l0,0c0,0.4,0,0.8-0.1,1.2c0,0.2-0.1,0.5-0.2,0.9l0,0c0,0,0,0,0,0.1l33.3-11.4
						c0.3-0.4,0.8-0.8,1.2-1.2c0.5-0.5,1.2-1,1.9-1.4c0.8-0.4,1.5-1,2.3-1.4s1.5-0.8,2.3-1.1c0.2-0.1,0.4-0.2,0.5-0.3
						c0.3-0.1,0.5-0.2,0.9-0.3c0.1,0,0.2-0.1,0.2-0.1l0,0c0.2-0.1,0.3-0.1,0.5-0.2c0.4-0.2,0.9-0.3,1.3-0.5l0,0c0,0,0.2-0.1,0.4-0.2
						c0.4-0.2,1.2-0.5,2.1-0.7c0.1,0,0.3,0,0.4,0c0.3,0,0.8,0,1.1,0c0.2,0,0.4,0,0.7,0.1c0.4,0.1,0.9,0.2,1.2,0.4
						c0.1,0.1,0.3,0.2,0.4,0.2c0.2,0.1,0.4,0.2,0.7,0.4l3.9-1.3C859.2,336.2,857.6,334.7,857.1,333z M852.1,330.8
						c-0.1,0.2-0.1,0.5-0.2,0.8c-0.1,0.3-0.2,0.7-0.4,1c-0.4,0.9-0.9,1.5-1.4,2l0,0l-0.4,0.4c0,0-0.1,0-0.1,0.1l0,0l-0.4,0.4
						c-0.8,0.2-1.5,0.5-2.2,0.8c0,0,0,0-0.1,0c-0.3,0.1-0.7,0.2-1.1,0.4l0,0c-0.1,0-0.2,0.1-0.3,0.1c-0.2,0.1-0.5,0.2-0.5,0.2
						c-1.1,0.4-2.2,1-3.3,1.5c-0.5,0.3-1.1,0.7-1.6,1H840c-4.5,0.1-8.8-1.2-11.1-3.8l0,0c-0.1-0.1-0.2-0.2-0.2-0.3
						c-0.7-0.8-1.1-1.6-1.2-2.6c-0.3-1.5-0.1-3.3,0.9-5.4c0.4-1,1.1-1.9,2-2.7c0.7-0.7,1.4-1.3,2.3-2c0.1-0.1,0.2-0.1,0.3-0.2
						c0.3-0.2,0.8-0.4,1.1-0.8c1.1-0.7,2.2-1.3,3.4-1.9c0.7-0.3,1.3-0.7,2-0.9c0.8-0.3,1.6-0.7,2.4-1c0.3-0.1,0.7-0.2,1-0.3
						c0.2-0.1,0.4-0.2,0.8-0.2c0.5-0.2,1.1-0.3,1.5-0.5c0.3-0.1,0.5-0.2,0.8-0.2v-0.2c0.3-0.1,0.8,0,1.2,0.2c0.3,0.2,0.8,0.5,1.2,1
						c0.1,0.1,0.1,0.1,0.2,0.2c0.1,0.2,0.3,0.3,0.4,0.5c1.4,2,2.8,5.1,3.6,8.6c0.1,0.5,0.2,1,0.2,1.4
						C852.2,329.4,852.2,330.1,852.1,330.8z"/>
				</g>
			</g>
			<g>
				<g>
					<path d="M800.2,328.1c0.7-2.4,1.1-4.9,1.4-7.2c0.2,0.7,0.4,1.2,0.5,1.7C802.9,325.2,801.8,327.4,800.2,328.1z"/>
				</g>
			</g>
		</g>
	</g>
	<g>
		<g>
			<path class="st10" d="M797.5,335.1c0,0-6.2,6.3-9.2,7.6c-2.9,1.3-2.2-4.4-2.2-4.4l2.2-1.5"/>
		</g>
	</g>
	<g>
		<g>
			<polyline points="809.4,380.8 804.9,371.5 806.3,383.3 809.3,384.3 809.2,383.3 			"/>
		</g>
	</g>
	<g>
		<g>
			<path d="M777.4,332.7c0,0-3.2,3.8-5.9,5c0,0-0.1-3.8,2.4-6.7"/>
		</g>
	</g>
	<g>
		<g>
			<path class="st10" d="M759.1,347.3c0,0-4.6,26.3,15.4,31.7c0,0-13-2.5-14-3.4s-4.8-3.5-5.2-4.6s-1.9-5.1-1.7-7.4
				c0.1-2.3,0-7.2,0-7.2s0-2.8,0.2-3.5"/>
		</g>
	</g>
	<g>
		<g>
			<path d="M760.7,340.8c0,0-0.7-3.3,3.8-10.5s12.5-7,12.5-7l-7.4,6.7"/>
		</g>
	</g>
	<g>
		<g>
			<path d="M774.6,378.7c0,0-10-10.9-10.3-20.5c-0.2-9.6,1.1-15.1,1.1-15.1s-4.3,7.2-4.3,10s-0.4,1.6,0.8,5.7c1.2,4,2,5.9,2.6,7.8
				c0.8,1.9,1.1,1.4,1,2.3"/>
		</g>
	</g>
	<g>
		<g>
			<path class="st10" d="M757.2,345.8c0,0,2.2,0.3,2.7,2.1c0.5,1.6-1.2,5-0.1,12.8c1.2,7.8,6.4,13.9,6.4,13.9l-8-8.3l-3.1-6.4
				c0,0,0.1-3.8,0-4"/>
		</g>
	</g>
	<g>
		<g>
			<path class="st10" d="M772.6,390.7c0,0-3.6-3.2-4.7-6.4c-1.1-3.3-7.2-6.6-4.6-1.6c2.6,5,1.3,3.2,2.2,4.3c0.9,1.2,1.3,1.7,2,2.6
				c0.7,0.9,1.3,1.1,1.3,1.1"/>
		</g>
	</g>
	<g>
		<g>
			<path class="st10" d="M771.3,385.8c0,0,10.2,5.6,13.7,5c3.5-0.5,1.4-6.8-1.2-7.5c-2.6-0.8-8.3-1.9-8.7-1.6
				c-0.4,0.1-2.1,0.3-2.2,0.3s-1.3-0.1-1.3-0.1"/>
		</g>
	</g>
	<g>
		<g>
			<path d="M798.4,333.7c0,0-4.8,8.5-9.8,10.4l0.1-1.4c0,0,5.9-8.1,6.1-10"/>
		</g>
	</g>
	<g>
		<g>
			<path class="st10" d="M795.8,330.7c0,0-3.4,7.6-5.7,10.3c-2.3,2.6-6.6-0.3-6.6-0.3l0.8-3.3"/>
		</g>
	</g>
	<g>
		<g>
			<g>
				<path d="M859.7,338.7c-2.6-2.9-5.1-2.7-5.6-3.9c-0.4-1.2,1.7-4.8,1.7-4.8c1-2.8,0.2-7.3-0.5-9.3c-1-2.3-3.8-5.8-4.7-7.2
					c-0.9-1.5-0.3-3.6,0.2-8.3c0.4-4.7-2.4-9.8-2.4-9.8l-3.5,39.7l4.3,8.7c0,0,5.1,16.2,9.6,14c0.5-0.2,1-0.7,1.5-1.1
					c0-0.1,0.5-3.4,1.3-6C862.4,347.8,862.3,341.7,859.7,338.7z"/>
			</g>
		</g>
		<g>
			<g>
				<path class="st11" d="M841.2,294.5c0.5,0.7,1,1.4,1.5,2.2C842.2,296,841.6,295.3,841.2,294.5c-1.9-2.2-3.9-4.5-5.7-6.1
					c-0.9-0.9-1.6-1.6-2.3-2.2c-0.5-0.4-0.9-0.8-1.1-1c0.3,0.2,0.7,0.5,1.1,0.9c0.7,0.5,1.4,1.2,2.4,2.1
					C837.3,289.8,839.3,292,841.2,294.5z"/>
			</g>
		</g>
		<g>
			<g>
				<path class="st11" d="M846.8,306.2l0.1,0.4c-0.1-0.3-0.2-0.5-0.3-0.9c-0.5-1.9-1.3-3.9-2.1-5.9c0.9,1.9,1.6,3.7,2.2,5.8
					C846.7,305.9,846.8,306,846.8,306.2z"/>
			</g>
		</g>
		<g>
			<g>
				<path d="M850.6,317.2l-3.2,1.6c-1.4,0.8-3.1,1.4-4.8,2c-1.3,0.5-2.8,1-4.5,1.3l-0.5,0.2h-0.5c-1.2,0.2-2.4,0.3-3.6,0.3
					c-0.8,0-1.6,0-2.6-0.1l-0.7-0.1c-5.9-0.7-10.6-3.3-12.8-7.2c-1.9-3.3-1.7-7.3,0.1-11.3c1.6-3.3,4.8-6.2,9.6-8.7
					c1.4-0.8,2.9-1.5,4.8-2.2c1.3-0.5,2.6-1,3.8-1.4l1.7-1.5c0.7,0.1,1.4,0.2,2.2,0.3l1.9,2.5c0.7,0.8,1.2,1.7,1.7,2.6l0.2,0.3
					c0.5,0.9,1,1.7,1.5,2.6l0.4,0.8v0.1c1,2.1,1.7,4.2,2.3,6.2c0.1,0.2,0.1,0.4,0.2,0.7l0.3,1.1v0.1L850.6,317.2z"/>
			</g>
		</g>
		<g>
			<g>
				<path class="st10" d="M845.9,314.8c-1.2,0.5-2.6,1.2-4.3,1.7c-1.3,0.5-2.8,0.9-4.4,1.2c0,0-0.1,0-0.2,0
					c-1.2,0.2-2.3,0.3-3.5,0.4c-1,0-1.9,0-2.7-0.1c-7-0.8-12.7-5.1-9.3-12.2c1.3-2.8,4.4-5.1,7.9-6.9c1.4-0.8,2.9-1.4,4.5-2.1
					c1.5-0.7,3.1-1.2,4.5-1.6h0.1c0.5,0.8,1.1,1.4,1.5,2.3c0.1,0.1,0.1,0.2,0.2,0.3c0.5,0.9,1,1.7,1.5,2.7c0,0.1,0,0.1,0.1,0.2
					c0.9,1.9,1.6,3.8,2.2,5.9c0.1,0.2,0.1,0.3,0.1,0.5l0.1,0.4l0,0l-0.8,4.3L845.9,314.8z"/>
			</g>
		</g>
		<g>
			<g>
				<path d="M854.2,334.8c0.1,0.3,0.4,0.5,0.9,0.8l-0.7-2.4C854.2,333.8,854.1,334.4,854.2,334.8z"/>
			</g>
		</g>
		<g>
			<g>
				<path d="M854.2,334.8c-0.1-0.3,0-1,0.2-1.6l-5.1-20.8l-3.3-0.2l-2-0.1l-0.7,0.7c-0.8,0.2-1.6,0.5-2.6,0.9c0,0-0.8,0.3-1,0.4
					c-1.9,0.7-3.4,1.3-4.8,2c-2,1-3.7,2-5,2.9c-2.8,2-4.9,4.2-6,6.7c-2,3.9-2,8,0,11.4c2.3,4,7.2,6.7,13.3,7.2
					c0.9,0.1,1.7,0.1,2.7,0.1c0.7,0,1.3-0.1,2-0.1h0.4c1.6-0.2,3.4-0.5,5.1-1.1c0.5-0.1,1-0.3,1.4-0.4c1.1-0.3,2.3-0.8,3.4-1.3
					l3.8-1.6l-0.9-3.7C854.6,335.4,854.3,335.1,854.2,334.8z"/>
			</g>
		</g>
		<g>
			<g>
				<path class="st10" d="M846.2,318.9l4.4,17.8c0,0-0.1,0-0.1,0.1c-1,0.4-2.1,0.9-3.3,1.2c-0.3,0.1-0.7,0.2-1,0.3
					c-1.4,0.4-2.9,0.8-4.5,1l0,0c-0.7,0.1-1.3,0.1-2,0.1c-8,0.2-15.6-4.3-11.8-12.1c0.9-1.9,2.5-3.5,4.6-4.9c1.4-1,2.9-1.9,4.5-2.6
					c1.4-0.8,2.9-1.3,4.4-1.9c0.3-0.1,0.7-0.2,1-0.3c1.2-0.4,2.4-0.8,3.4-1.1l0,0L846.2,318.9z"/>
			</g>
		</g>
		<g>
			<g>
				<path d="M854.2,334.8c0.1,0.3,0.4,0.5,0.9,0.9l-0.7-2.5C854.2,333.7,854.1,334.4,854.2,334.8z"/>
			</g>
		</g>
		<g>
			<g>
				<path d="M854.2,334.8c-0.1-0.3,0-1,0.2-1.6l-0.4-1.9l-4.9,4.2c-0.8,0.2-1.5,0.5-2.2,0.8c-0.3,0.1-0.8,0.2-1.1,0.4
					c-0.2,0.1-0.9,0.3-0.9,0.3c-1.1,0.4-2.2,1-3.3,1.5c-2,1.1-3.6,2.2-5,3.3c-1.6,1.4-2.9,2.9-3.7,4.7c-1.3,2.7-1.6,5.4-1.1,7.6
					c1.2,5.2,6.2,8.7,13.1,9.4c0.8,0.1,1.6,0.1,2.4,0.1h0.7c1.6-0.1,3.3-0.3,4.8-0.8c0.8-0.2,1.4-0.3,1.9-0.5
					c0.9-0.2,1.7-0.5,2.5-0.9l3.7-1.4l-3.7-15.3v-0.3v-0.5l-1.2-4.7l-0.9-3.5C854.6,335.4,854.3,335.1,854.2,334.8z"/>
			</g>
		</g>
		<g>
			<g>
				<path d="M842.2,298.1c0,0,2,3.3,2.3,4.2c0.3,0.9,2.8,9.5,2.8,9.5s0.9,0.1,1.3-1.3c0.4-1.4,3.5-13.4-1.9-17.1s-9.6-3.2-9.6-3.2"
					/>
			</g>
		</g>
		<g>
			<g>
				<path d="M854.4,321.6c-3.4-5.7-7.3-10.8-7.3-10.8l1.4,10.9c0,0,1.9,6.2,2,6.6c0.1,0.3,1.9,6.7,1.9,6.7S857.8,327.3,854.4,321.6z
					"/>
			</g>
		</g>
		<g>
			<g>
				<path d="M859.7,338.7c-2.6-2.9-5.1-2.7-5.6-3.9c-0.2-0.7,0.3-2.1,0.9-3.2c-2-0.8-3.4-0.8-3.4-0.8l6.9,27.6c0,0,2.1-4.5,3.4-9.6
					C862.3,345.7,861.8,341.1,859.7,338.7z"/>
			</g>
		</g>
		<g>
			<g>
				<path class="st10" d="M842.9,312.7c0,0,5.9-2.2,4.3-9.9s-8.8-7.6-8.8-7.6"/>
			</g>
		</g>
		<g>
			<g>
				<path class="st10" d="M849,335.5c0,0,4.5-2.5,3.1-8.4s-4.4-11-6.7-10.6"/>
			</g>
		</g>
		<g>
			<g>
				<path class="st10" d="M860.1,343.1c-0.4-6.4-7.8-4-8.7-3.7l0,0h-0.1c-0.9,0.3-1.9,0.7-2.8,1c-0.3,0.1-0.5,0.2-0.9,0.3
					c-0.3,0.1-0.5,0.2-0.9,0.3c-1,0.4-2,0.9-2.9,1.4c-1.5,0.8-2.9,1.7-4.2,2.7c-1.1,1-2.1,2.1-2.6,3.2c-0.9,1.7-1.1,3.4-0.8,4.7
					c0.9,3.9,5.9,6,11,5.9c0.1,0,0.3,0,0.5,0c1.4-0.1,2.7-0.3,4-0.7c0.5-0.1,1.1-0.3,1.6-0.4c0.7-0.2,1.2-0.4,1.7-0.7l0,0l0,0
					c0.1,0,0.3-0.1,0.4-0.1l-0.1-0.3C856.6,355.1,860.4,349,860.1,343.1z"/>
			</g>
		</g>
		<g>
			<g>
				<path d="M859.2,338.2c-0.4-0.2-0.9-0.4-0.9-0.4v-0.3c-0.5-0.4-1-0.8-1.4-1l-5.4,2.8c0,0,3.5,0.1,4.7,3.1s2,7.5,2.2,9
					c0.2,1.3,2.3-2.2,2.6-3.6c0.2-0.7,0.5-1.4,0.9-2.3c-0.2-2.5-0.9-5-2.3-6.7C859.5,338.5,859.3,338.4,859.2,338.2z"/>
			</g>
		</g>
		<g>
			<g>
				<path class="st10" d="M858.1,349.2c0,0,1,4.7,0.2,6.3c-0.8,1.6-3.7,2.1-3.7,2.1"/>
			</g>
		</g>
		<g>
			<g>
				<path d="M858.3,337.4c0,0-2-1.1-2.6-2.8c-0.7-1.7-0.2-3.7,0.1-4.5s-1.1-1.4-1.9,0.1c-0.8,1.6-0.9,1.2-1,3.1s1.3,3.1,1.4,3.3"/>
			</g>
		</g>
		<g>
			<g>
				<path d="M860.9,359.9c0,0,3.7-8.5,2.1-15.4s-5-8.7-5.8-11.7c-0.8-2.8-0.8-5.7-0.8-5.7s-2.7,3.1-2.7,5.2
					c-0.1,2.2-1.5,2.5-0.1,3.6c1.5,1,1.6,0.9,3.2,2.4c1.5,1.6,1.3,1.9,1.9,2.7c0.5,0.9,0.3,0.2,0.9,1.5c0.5,1.3,0.7,1.6,1,2.3
					c0.3,0.7,0.3,1,0.3,2.3s-0.4,3.1-0.7,4.4c-0.2,1.2-0.4,2.3-0.5,2.7s-1,1-1.1,1.7c-0.1,0.8-0.4,1.1-0.1,1.5"/>
			</g>
		</g>
		<g>
			<g>
				<path class="st10" d="M849.7,339.9c0,0,3.9-2.4,7.2,0.3c3.3,2.7,2.7,8.4,2.7,11.4c0,3.1-1.5,4.5-2.3,4.9"/>
			</g>
		</g>
	</g>
	<g>
		<g>
			<path class="st9" d="M825.1,282.5l-9.2-11.7l5.8-1.3c0,0,5.4,9,7.5,11.3"/>
		</g>
	</g>
	<g>
		<g>
			<path class="st9" d="M782.3,279.6c0,0,2.5,6.8,4,8.6c1.5,2,1.1,2.1,1.5,2s6.3-3.4,6.8-3.7s-3.3-0.5,2.9-1.6s14.7-3.3,15.9-3.7
				c1.2-0.5,1.5-2.4,4.2-2.7c2.6-0.3,3.3-1.3,3.3-1.3s0.4-3.4,0.3-3.9c-0.1-0.7-4.5-1.5-4.5-1.5l-8.6-0.4"/>
		</g>
	</g>
	<g>
		<g>
			<path class="st7" d="M804.8,358c0,0-1.2-11-3.5-17.1s-0.8-7.2,0-11.6s3.5-16.7,3.5-16.7l11.6,0.3c0,0-1.9,3.9-0.8,8.3
				c1.1,4.4,0.2,7.8,0.8,11.1"/>
		</g>
	</g>
	<g>
		<g>
			<path d="M783.1,293.2c0,0-2.6-3.4-1.7-10.3c0.9-6.9,2-22.4,2.2-24.1s-1.4-4.8-1.4-4.8s-2.3,1.9-2.5,2.6
				c-0.2,0.8,0.7,10.6,0.7,11.3c0,0.7-0.7,3.7-0.7,3.7s-1,7.1-1.1,8.8c-0.1,1.7-0.3,4.9-0.3,4.9s0,4,0.2,4.6
				c0.2,0.7,0.4,2.1,0.4,2.1"/>
		</g>
	</g>
	<g>
		<g>
			<path d="M783.1,291c0,0-1.3-5.9,0.3-12.6c1.7-6.8,0.8-22.3,0.4-23.7c-0.4-1.4-4,5-3.4,6.8c0.7,1.7,0.2,4.6-0.1,8.3
				c-0.2,3.7-0.9,7-1.2,7.8c-0.2,0.8-0.5,0.7-0.7,1.7c-0.1,1.1,0,4.7-0.2,5.4c-0.2,0.7-0.2,2.4-0.2,2.4"/>
		</g>
	</g>
	<g>
		<g>
			<path d="M804.4,247.6c0,0,4.2,10,10,16.7c6,6.7,11.8,14.1,14.9,18s6.7,10.3,6.7,10.3l2.2-1.6c0,0-2.3-6.4-2.9-7.2
				c-0.8-0.8-5.6-4.9-6.1-6.1c-0.4-1.2-2.5-2.7-3.6-4.7c-1.1-1.9-4.2-6.6-4.2-6.6"/>
		</g>
	</g>
	<g>
		<g class="st12">
			<g>
				<g>
					<polyline points="127.8,700.6 318.3,780 676.6,748.7 580.5,656.2 					"/>
				</g>
			</g>
		</g>
		<g>
			<g>
				<g>
					<path d="M585.7,742.4h36.8c7.4,0,13.4-6,13.4-13.4v-66.5h-63.7V729C572.3,736.4,578.3,742.4,585.7,742.4z"/>
				</g>
			</g>
			<g>
				<g>
					<path class="st0" d="M609.5,745.5h-10.8c-16.4,0-29.7-13.3-29.7-29.7V659h70.1v56.8C639.2,732.2,625.9,745.5,609.5,745.5z
						 M575.5,665.6V716c0,12.8,10.4,23.3,23.3,23.3h10.8c12.8,0,23.3-10.4,23.3-23.3v-50.4H575.5z"/>
				</g>
			</g>
		</g>
		<g>
			<g>
				<g>
					<path d="M277.2,758.1H314c7.4,0,13.4-6,13.4-13.4v-66.5h-63.7v66.5C263.8,752.1,269.8,758.1,277.2,758.1z"/>
				</g>
			</g>
			<g>
				<g>
					<path class="st0" d="M301,761.4h-10.8c-16.4,0-29.7-13.3-29.7-29.7v-56.8h70.1v56.8C330.7,748,317.4,761.4,301,761.4z
						 M267.1,681.3v50.4c0,12.8,10.4,23.3,23.3,23.3h10.8c12.8,0,23.3-10.4,23.3-23.3v-50.4H267.1z"/>
				</g>
			</g>
		</g>
		<g>
			<g>
				<g>
					<path d="M162.3,711.9h36.8c7.4,0,13.4-6,13.4-13.4V632h-63.7v66.5C148.9,705.9,154.9,711.9,162.3,711.9z"/>
				</g>
			</g>
			<g>
				<g>
					<path class="st0" d="M186.1,715.2h-10.8c-16.4,0-29.7-13.3-29.7-29.7v-56.8h70.1v56.8C215.8,701.8,202.5,715.2,186.1,715.2z
						 M152,635.1v50.4c0,12.8,10.4,23.3,23.3,23.3h10.8c12.8,0,23.3-10.4,23.3-23.3v-50.4H152z"/>
				</g>
			</g>
		</g>
		<g>
			<g>
				<g>
					<path class="st13" d="M245.3,19c0-0.7-0.7-1.1-1.2-0.9c-33,12.2-65.8,26.4-97.9,42.4c-12,6-20.9,19.9-21,32.4
						c-2,224.1-3.9,321.1-5.9,542.6c-0.1,12.3,8.3,26,20.1,32.4c34.7,18.7,70.1,35.5,105.8,50.1L245.3,19L245.3,19z"/>
				</g>
			</g>
			<g>
				<g>
					<path class="st0" d="M248.5,722.9l-6.4-2.2c-35.1-14.3-68.7-30.9-104.2-49.9c-12.8-6.9-21.8-21.7-21.7-35.3
						c1-109.7,2-190.3,2.9-268.2c1-79.3,2-161.4,2.9-274.5c0.1-14,9.7-28.8,22.7-35.3c32.6-16.1,65.6-30.4,98.2-42.5
						c1.3-0.4,2.7-0.3,3.8,0.4c1.1,0.8,1.7,2.1,1.7,3.4v704.1H248.5z M242,22.4c-31.4,11.8-63,25.6-94.4,41.1
						c-10.8,5.4-19.1,18.1-19.2,29.6c-1,113.1-2,195.2-2.9,274.5c-1,77.9-2,158.4-2.9,268.1c-0.1,11.1,7.8,23.8,18.4,29.6
						c33.8,18.1,67.7,34.3,101.2,48.2V22.4H242z"/>
				</g>
			</g>
		</g>
		<g>
			<g>
				<g>
					<path class="st7" d="M647.9,688.9c-129.7,46-268.9,55.7-402.6,29.2V19.5c0-1,0.7-1.9,1.6-2.1C380.1-8.7,518.7,1.1,647.8,46.9
						c11,3.9,20,16.7,20,28.1c0,237.3,0,348.8,0,586C667.8,672.3,658.9,685,647.9,688.9z"/>
				</g>
			</g>
			<g>
				<g>
					<path class="st0" d="M393.6,735.9c-49.9,0.8-101.7,5.5-148.9-14.6l-2.6-0.5V19.5c0-2.5,1.7-4.7,4.3-5.2
						C380.9-12,520-1.8,649,43.9c12.2,4.4,22.1,18.4,22.1,31.1v586c0,12.8-9.9,26.8-22.1,31.1l0,0
						C566.7,721.2,480.3,735.9,393.6,735.9z M248.5,715.5c132.9,25.9,270.7,15.7,398.3-29.5l0,0c9.6-3.5,17.8-14.9,17.8-25V75
						c0-10-8.2-21.5-17.8-25C519.2,4.8,381.6-5.5,248.5,20.5L248.5,715.5L248.5,715.5z"/>
				</g>
			</g>
		</g>
		<g>
			<g>
				<g>
					<path class="st2" d="M643.9,688.9c10.9-3.9,19.8-16.7,19.8-28.1c0-35.4,0-69.4,0-102.2c-2.4-1.7-3.7-2.7-3.7-2.7s0,17.7,0,32.3
						s-23.5,39.1-92.3,52.3c-68.8,13.1-227.6,21.7-271.1,7.9c-43.5-13.9-47.4-143.5-47.4-143.5l-0.3,5.5c0,66.2-3.5,134.8-3.5,207.8
						C377.7,744.7,515.6,734.9,643.9,688.9z"/>
				</g>
			</g>
		</g>
		<g>
			<g>
				<g>
					<path class="st14" d="M356.3,19.6c0,0,52-10,117.4,1.1s90.1,21.2,86,28c-4.2,6.8-81.2-0.2-136.9-4.7
						C367.1,39.4,343.5,28.2,356.3,19.6z"/>
				</g>
			</g>
		</g>
		<g>
			<g>
				<g>
					<path class="st14" d="M659.5,104.4v161.1C659.5,265.7,649.1,155.9,659.5,104.4z"/>
				</g>
			</g>
		</g>
		<g>
			<g>
				<g>
					<path class="st7" d="M135.5,89.1c0,0,2.8-16.1,21.2-24.1c18.4-8.1,71.8-32,75.9-31.7c4.2,0.3,2.8,27.9,2.8,27.9
						S228,42,215.7,45.6c-12.2,3.6-55.1,23-61.9,28.9C147,80.4,135.5,89.1,135.5,89.1z"/>
				</g>
			</g>
		</g>
		<g>
			<g>
				<g>
					<g>
						<g>
							<g>
								<path class="st15" d="M355.3,488.2c-15.7,0-31.7,0-47.3-0.1c-16.1-0.1-29.1-14.4-29.1-31.8V82.8c0-17.4,12.9-32.2,28.7-33.1
									c15.7-0.9,31.8-1.3,47.6-1.3c71.2,0,142,8.7,210.4,25.9c15,3.8,26.8,19.3,26.8,35.3v345.2c0,16.3-12.7,29.9-28.2,30.4
									C496.2,487.2,426,488.2,355.3,488.2z"/>
							</g>
						</g>
					</g>
					<g>
						<g>
							<g>
								<path class="st16" d="M285.7,456.3c0-123.2,0-250.3,0-373.5c0-13.8,9.9-25.7,22.3-26.3c85.9-4.7,172.5,3.4,255.9,24.4
									c12,3.1,21.6,16.1,21.6,28.7c0,113.8,0,231.4,0,345.2c0,12.7-9.6,23.3-21.6,23.7c-83.5,2.6-170.1,3.6-255.9,2.9
									C295.7,481.2,285.7,469.9,285.7,456.3z"/>
							</g>
						</g>
					</g>
				</g>
				<g>
					<g>
						<g>
							<path class="st15" d="M578.9,109.9c0-0.1,0-0.1,0-0.2v-0.2l0,0c-0.2-9.6-7.6-19.4-16.5-21.7C510,74.7,456.1,66.5,401.7,63.6
								c-5.4-0.2-10.7-0.5-16.1-0.7c-4.3-0.1-8.5-0.2-12.8-0.3c-5.9-0.1-11.8-0.2-17.7-0.2c-8.4,0-16.8,0.1-25.2,0.4
								c-7.2,0.2-14.4,0.5-21.6,0.9c-8.5,0.4-15.7,9.2-15.9,19.2l0,0v0.4l0,0l0,0v373c0,10,7,18.2,15.6,18.2
								c15.6,0.1,31.6,0.1,47.2,0.1c70.6,0,140.7-1.1,208.5-3.2c8.3-0.3,15.1-7.9,15.1-16.9L578.9,109.9L578.9,109.9z"/>
						</g>
					</g>
				</g>
			</g>
			<g>
				<g>
					<g>
						<g>
							<g>
								<path class="st15" d="M341,429c-7.9,0-14.2-6.3-14.2-14.2V129.3c0-7.8,6.2-14.1,14-14.2c3.5,0,7-0.1,10.5-0.1
									c23,0,46.4,1,69.5,2.9c7.3,0.7,13,6.9,13,14.2v282.2c0,7.8-6.3,14.1-14.1,14.2c-23,0.2-46.1,0.3-68.4,0.3L341,429z"/>
							</g>
						</g>
					</g>
					<g>
						<g>
							<g>
								<path class="st9" d="M427.1,132.2c0-3.8-2.9-7.1-6.8-7.4c-22.8-2-45.9-2.9-68.9-2.9c-3.5,0-6.9,0-10.4,0.1
									c-4,0-7.3,3.4-7.3,7.4v285.3c0,4.2,3.3,7.4,7.4,7.4c3.5,0,6.9,0,10.4,0c22.8,0,45.7-0.1,68.4-0.3c4,0,7.3-3.4,7.3-7.4V132.2
									H427.1z"/>
							</g>
						</g>
					</g>
					<g>
						<g>
							<g>
								<path class="st15" d="M363.6,144.5c11.3,0.2,22.6,0.5,33.9,1.3c3.9,0.2,7,3.5,7,7.4v238.9c0,4-3.3,7.4-7.4,7.4
									c-11.3,0.1-22.5,0.1-33.5,0.1c-4.2,0-7.4-3.3-7.4-7.4V152C356.2,147.8,359.5,144.4,363.6,144.5z"/>
							</g>
						</g>
					</g>
					<g>
						<g>
							<g>
								<path class="st15" d="M456.5,429.2c-7.9,0-14.2-6.3-14.2-14.2V136.1c0-7.9,6.3-14.2,14.2-14.2c0.5,0,1.1,0,1.7,0.1
									c25.2,3.1,50.6,7.4,75.3,12.8c6.4,1.4,11.1,7.2,11.1,13.9v264.9c0,7.8-6.1,14-13.9,14.2
									C506.3,428.5,481.4,428.9,456.5,429.2L456.5,429.2L456.5,429.2z"/>
							</g>
						</g>
					</g>
					<g>
						<g>
							<g>
								<path class="st9" d="M449,136.1V415c0,4.2,3.4,7.5,7.5,7.4c24.9-0.3,49.6-0.9,74-1.4c4-0.1,7.2-3.4,7.2-7.4V148.7
									c0-3.5-2.4-6.6-5.8-7.3c-24.6-5.4-49.5-9.6-74.6-12.7C452.9,128.3,449,131.7,449,136.1z"/>
							</g>
						</g>
					</g>
					<g>
						<g>
							<g>
								<path class="st15" d="M471.5,153.4c14.6,2.1,29.3,4.6,43.7,7.5v237.9c-14.5,0.3-29.1,0.7-43.7,0.9V153.4z"/>
							</g>
						</g>
					</g>
				</g>
				<g>
					<g>
						<g>
							<circle class="st9" cx="356.2" cy="177.2" r="17.5"/>
						</g>
					</g>
				</g>
				<g>
					<g>
						<g>
							<circle class="st9" cx="471.5" cy="193.6" r="17.5"/>
						</g>
					</g>
				</g>
			</g>
		</g>
		<g>
			<g>
				<g>
					<g>
						<g>
							<path class="st2" d="M549.5,597.5c13.2-13,17-31.2,14.2-54.1c-2.8-22.8-10.3-31.3-31.2-28.4c-57.1,8-114.9,11-173.6-0.1
								c-12.6-2.4-23.7,2.8-24.8,17.7c-2.1,26.5-1.5,53.4,23,70.1c1.2,1,2.5,2,3.7,2.8l1.4,0.9c0,0,25,23.8,79.1,21.4
								c54-2.3,87.4-8.2,108-30.4l0,0C549.4,597.6,549.5,597.6,549.5,597.5L549.5,597.5z M353.9,550.2c-6.2-2.3-10.3-7.8-8.5-15.4
								c1.5-6.8,7.1-8.1,12.7-7.4c9.2,1,18.2,2.9,27.4,3.8c48.8,5,97.1,3.7,144.5-4c8.3-1.4,18.2-4.8,21.3,7.9
								c3.2,13.3-8,15.6-16.5,17.9c-25.8,7-52.7,6.2-79.4,7.2c-25.6,0.2-51.1,2.2-76.7-2.7C370.3,555.9,362,553.3,353.9,550.2z
								 M370.1,599.5c29.5-27.2,108.6-25.7,142.1-0.1l-126.7,6.1C380.4,603.7,375.2,601.8,370.1,599.5z"/>
						</g>
					</g>
				</g>
				<g>
					<g>
						<g>
							<path class="st17" d="M542.3,592.6c12.7-12.5,16.4-29.9,13.7-51.8c-2.7-22-9.8-30-29.9-27.3c-54.8,7.6-110.1,10.6-166.4-0.1
								c-12-2.3-22.7,2.7-23.8,16.9c-2,25.5-1.5,51.2,22.1,67.3c1.2,0.9,2.4,1.9,3.5,2.7l1.4,0.9c0,0,23.9,22.8,75.8,20.5
								C490.4,619.5,522.5,613.8,542.3,592.6L542.3,592.6C542.2,592.6,542.3,592.6,542.3,592.6L542.3,592.6z M354.8,547.2
								c-5.9-2.2-9.8-7.4-8.1-14.7c1.5-6.6,6.9-7.8,12.1-7.2c8.7,1,17.5,2.7,26.3,3.7c46.9,4.8,93.1,3.6,138.5-3.9
								c8-1.3,17.5-4.6,20.4,7.5c3.1,12.8-7.6,15-15.7,17.1c-24.7,6.8-50.5,6-76.1,6.9c-24.5,0.2-49,2.1-73.5-2.6
								C370.5,552.6,362.5,550.1,354.8,547.2z M370.3,594.5c28.3-26.1,104.1-24.6,136.2-0.1L385,600.3
								C380.1,598.5,375.2,596.6,370.3,594.5z"/>
						</g>
					</g>
				</g>
				<g>
					<g>
						<g>
							<path class="st18" d="M452,556.8c-24.5,0.2-48.9,2.1-73.5-2.6c-8.1-1.5-16.1-4-23.8-7c-5.9-2.2-9.8-7.4-8.1-14.7
								c1.5-6.6,6.9-7.8,12.1-7.2c8.7,1,17.5,2.7,26.3,3.7c46.9,4.8,93.1,3.6,138.5-3.9c8-1.3,17.5-4.6,20.4,7.5
								c3.1,12.8-7.6,15-15.7,17.1C503.6,556.6,477.7,555.8,452,556.8z"/>
						</g>
					</g>
				</g>
				<g>
					<g>
						<g>
							<path class="st7" d="M511.4,598.5c-47.4,12.1-93,17.1-141.1-4C400.1,566.9,482.8,570.1,511.4,598.5z"/>
						</g>
					</g>
				</g>
			</g>
			<g>
				<g>
					<g>
						<path class="st17" d="M373.5,506c-0.8,0.5-39.4-0.4-45.9,43.1c0,0-20.4-49.9,45.1-42.6"/>
					</g>
				</g>
			</g>
			<g>
				<g>
					<g>
						<path class="st17" d="M518.7,506.3c9.2,1,37.6,6.1,42.9,42.8C561.7,549.1,581.8,500.3,518.7,506.3z"/>
					</g>
				</g>
			</g>
			<g>
				<g>
					<g>
						<path class="st17" d="M415.2,638.4c1,0.1,30.3,16.2,84.5-3.4c0,0-44.7,36-83.6,3.6"/>
					</g>
				</g>
			</g>
		</g>
		<g>
			<g>
				<g>
					<g>
						<path class="st0" d="M149.7,398.8c-0.8,0-1.5-0.2-2.1-0.8c-0.8-0.7-1.1-1.5-1.1-2.4v-53.1c0-1.5,1.1-2.8,2.6-3.2
							c16.7-3.3,33.5-6.6,50.6-9.8c1-0.2,2,0.1,2.6,0.7c0.8,0.7,1.2,1.5,1.2,2.5v54.8c0,1.6-1.2,2.9-2.7,3.2
							c-16.9,2.7-33.9,5.5-50.6,8.1C150.1,398.8,150,398.8,149.7,398.8z M153,345.2v46.6c14.6-2.3,29.3-4.7,44-7v-48.2
							C182.3,339.5,167.7,342.3,153,345.2z M200.3,387.6L200.3,387.6L200.3,387.6z"/>
					</g>
				</g>
			</g>
			<g>
				<g>
					<g>
						<path class="st0" d="M155.5,384.7c-1,0-2-0.3-2.7-1c-1-0.8-1.5-2-1.5-3.3v-26.7c0-2.1,1.5-3.8,3.5-4.3l25.2-4.7
							c1.3-0.2,2.5,0.1,3.5,0.9s1.5,2.1,1.5,3.3V376c0,2.1-1.5,3.9-3.6,4.3c-8.4,1.4-16.8,2.8-25.2,4.3
							C156,384.7,155.8,384.7,155.5,384.7z M180.7,376.2L180.7,376.2L180.7,376.2z M159.8,357.4v18c5.6-1,11-1.9,16.6-2.8v-18.2
							L159.8,357.4z"/>
					</g>
				</g>
			</g>
		</g>
		<g>
			<g>
				<g>
					<g>
						<path class="st0" d="M60.9,551.4c-8.7,0-16.3-6.7-17.1-15.5C36,456.5,68.9,409.5,97.9,384.1c31.1-27.4,64.3-35.8,65.6-36.2
							c9.2-2.3,18.6,3.4,20.9,12.6c2.3,9.2-3.3,18.6-12.6,20.9C167.3,382.6,66.1,410,78,532.6c0.9,9.5-6,17.9-15.5,18.8
							C62.1,551.4,61.6,551.4,60.9,551.4z"/>
					</g>
				</g>
			</g>
			<g>
				<g>
					<g>
						<path d="M147.9,523.8c0,0,54.5,74.9,31,110.3c0,0-35.2-30.7-37.1-32.8c-2-2.2-8.1-28.4-8.1-28.4v-3.4"/>
					</g>
				</g>
			</g>
			<g>
				<g>
					<g>
						<g>
							<path d="M147.8,601.6c-8.3,0-15.3-3.4-19.4-9.6c-3.4-4.9-4.6-11.4-2.9-15.6l0.7-1.6l1.4-0.7c1.3-0.9,3.3-1.6,6-1.6
								c3.4,0,7.2,1.3,11.4,3.8c5.4,3.4,11,5.2,15.8,5.2c2.7,0,5.1-0.5,7.1-1.6c0.5-0.3,1-0.7,1.4-1l6.4,5.5
								C174.1,587.1,164.8,601.6,147.8,601.6z"/>
						</g>
					</g>
				</g>
				<g>
					<g>
						<g>
							<path class="st19" d="M170,583.5c-7.5,4.3-18,2.2-27.4-3.6c-7.6-4.8-11.5-3.1-12.7-2.3c0,0-0.1,0-0.1,0.1
								c-0.2,0.1-0.3,0.2-0.3,0.2l0.1-0.1c-0.1,0-0.1,0.1-0.2,0.1c-2,4.9,2.3,19.3,18.4,19.3c14.7,0,22.8-12.7,24.2-15.1
								C171.4,582.7,170.7,583.1,170,583.5z"/>
						</g>
					</g>
				</g>
				<g>
					<g>
						<g>
							<path d="M160.8,590.1c-6.4,0-13.8-2.3-20.4-6.6c-3.6-2.2-5.8-2.5-6.8-2.5c-0.9,0-1.2,0.2-1.2,0.2s0.1-0.1,0.3-0.2l-6.4-5.8
								c3.3-3.9,4.9-4.4,10.2-5.2c1.6-0.3,3.8-0.7,6.8-1.3c6.3-1.3,6.4-1.5,7.9-5.5c0.5-1.5,1.2-3.4,2.3-5.7
								c2.6-5.5,7.1-8.5,12.3-8.5c5.5,0,10.8,3.5,13.9,9.2c5.6,10.4,2.2,23.7-7.5,29.1C168.8,589.1,164.9,590.1,160.8,590.1z"/>
						</g>
					</g>
				</g>
				<g>
					<g>
						<g>
							<path class="st20" d="M129.5,578c0,0,3.8-3.8,13.1,2s19.8,7.9,27.4,3.6c7.5-4.3,10.4-14.9,5.8-23.3
								c-4.6-8.4-14.3-9.7-18.6-0.9c-4.3,9-1.7,11-13.2,13.4C132.6,575.3,132.7,574,129.5,578z"/>
						</g>
					</g>
				</g>
			</g>
			<g>
				<g>
					<g>
						<g>
							<path d="M175.5,544.9c-6.2-0.9-11-4.2-13.4-9.2c-2-4-2.2-9-0.5-11.9l0.7-1.1l1.1-0.3c1.1-0.4,2.6-0.9,4.7-0.7
								c2.5,0.3,5.2,1.7,8.1,4c3.6,3.1,7.6,5,11.3,5.6c2,0.3,3.8,0.1,5.5-0.5c0.4-0.1,0.8-0.3,1.2-0.5l4.3,4.8
								C196.6,537,188.2,546.7,175.5,544.9z"/>
						</g>
					</g>
				</g>
				<g>
					<g>
						<g>
							<path class="st19" d="M194,533.8c-6.1,2.3-13.7-0.3-20-5.7c-5.1-4.4-8.3-3.5-9.2-3.1c0,0,0,0-0.1,0c-0.2,0.1-0.2,0.1-0.2,0.1
								s0,0,0.1-0.1h-0.1c-2,3.5-0.3,14.6,11.6,16.3c10.9,1.5,18.4-7,19.7-8.6C195.2,533.4,194.5,533.6,194,533.8z"/>
						</g>
					</g>
				</g>
				<g>
					<g>
						<g>
							<path d="M186.4,537.8c-4.8-0.7-9.9-3.2-14.5-7c-2.4-2.1-4-2.5-4.8-2.6c-0.7-0.1-1,0-1,0s0.1,0,0.2-0.2l-4.2-4.9
								c2.8-2.6,4.2-2.7,8.1-2.8c1.3,0,2.9-0.1,5.2-0.2c4.9-0.3,5-0.4,6.4-3.2c0.5-1.1,1.3-2.4,2.3-4c2.5-3.7,6.2-5.6,10.2-5
								c4,0.5,7.6,3.8,9.4,8.3c3.1,8.3-0.9,17.9-8.7,20.9C192.5,538,189.5,538.2,186.4,537.8z"/>
						</g>
					</g>
				</g>
				<g>
					<g>
						<g>
							<path class="st20" d="M164.4,525.4c0,0,3.3-2.5,9.5,2.8c6.2,5.4,14,8,20,5.7s9.3-9.9,6.8-16.7c-2.5-6.8-9.6-8.8-13.8-2.6
								c-4.2,6.2-2.5,8.1-11.3,8.6C166.9,523.8,167.2,522.8,164.4,525.4z"/>
						</g>
					</g>
				</g>
			</g>
			<g>
				<g>
					<g>
						<g>
							<path d="M175.7,628.8c-22.3-33.5-31.8-66-28.8-99.1l0.7-7L120.7,542l-88.9,25.5L0,567.2l34.1,112l23.4-18.4l94.2-26.9h27.5
								L175.7,628.8z M151.1,630.6l-95.3,27.2l-20.1,15.7L4.2,570.4l27.9,0.3L122,545l21.6-15.5c-3.2,35.1,7.8,68.7,29.4,101.2
								L151.1,630.6z"/>
						</g>
					</g>
				</g>
				<g>
					<g>
						<g>
							<g>
								<path class="st7" d="M140.1,536l-16.5,11.9l-0.5,0.1l-90.3,25.8l-23.9-0.2l28.7,94.5l16.9-13.3l96.3-27.4h16.5
									C148,597,138.9,566.3,140.1,536z"/>
							</g>
						</g>
					</g>
					<g>
						<g>
							<g>
								<path class="st21" d="M123.7,600c0.5-15.1-15.8-10.2-15.8-10.2s-15.3,3.8-17.8,8.3s-4.3,10.9-4.8,12.2l25.3,12.5
									C110.5,623,123.1,615.1,123.7,600z"/>
							</g>
						</g>
					</g>
					<g>
						<g>
							<g>
								<path class="st20" d="M164.1,630.6L164.1,630.6c0,0-50.7-0.3-73.4-25c-22.7-24.8-61.3-31.9-61.3-31.9l-14.6-3.2l-10.4-0.1
									l31.3,103.1l20.2-15.8l95.3-27.2L164.1,630.6z"/>
							</g>
						</g>
					</g>
					<g>
						<g>
							<g>
								<path class="st19" d="M15.8,578.5l12.7-3.2l-5.7-3.2l-8.1-1.7l-10.4-0.1l31.4,103.2l20.2-15.8l47.2-13.4
									c4.4-3.3,7.2-5.5,7.2-5.5L39.7,655L15.8,578.5z"/>
							</g>
						</g>
					</g>
					<g>
						<g>
							<g>
								<path class="st19" d="M113.9,620.8c-8.7-3.6-17-8.5-23.3-15.3c-3.2-3.5-6.7-6.6-10.3-9.3c-7.6-1-13.7-1.7-13.7-1.7
									l-14.1,4.3L50.2,618c0,0,12.1,13.9,31.9,13.3C98.7,630.7,110.5,623.2,113.9,620.8z"/>
							</g>
						</g>
					</g>
					<g>
						<g>
							<g>
								<path d="M143.7,529.5L122.1,545l-89.9,25.7l-27.9-0.3l31.4,103.2l20.2-15.8l95.3-27.2h22
									C151.5,598.2,140.6,564.5,143.7,529.5z M150.6,627.3l-96.3,27.4L37.4,668L8.6,573.6l23.9,0.2l90.3-25.8l0.5-0.1l16.5-11.9
									c-1.1,30.3,8,61,27.1,91.3H150.6z"/>
							</g>
						</g>
					</g>
				</g>
			</g>
			<g>
				<g>
					<g>
						<g>
							<g>
								<path d="M90.3,625.5c-1,0-2-0.1-2.9-0.3c-1.6-0.4-3.3-0.7-5.2-0.7c-2.1,0-4.2,0.2-6.3,0.4l-1.5,0.1c-0.7,0.1-1.3,0.1-2,0.1
									c-5.8,0-11-2.4-15.5-7.1c-1,0.2-2,0.3-2.8,0.3c-3.2,0-5.7-1.3-7.3-2.3c-5.4-3.3-9.2-7.8-11.3-13.2l-0.9-2.3
									c-2.9-6.2-4-12.9-5-19.3l-0.3-1.7c-1.9-9.4-1.4-18.2,1.1-26.9c0.7-2.2,1.4-4.5,2.8-6.7l0.3-0.5c-1.2-1.2-1.7-2.8-1.6-5.2
									V540c0.1-3.3,1.4-8.1,7.1-12.2c9.8-7.2,20.9-11.5,32.9-12.8c1.1-0.1,2.2-0.2,3.2-0.2c3.3,0,6.3,0.5,9.1,1.7
									c6.7,2.8,8.1,7.1,8.1,10.4c2.7,0.8,6,1.9,8.5,3.9c2.3-0.5,4.7-1.1,6.8-2.4l0.9-0.5c2.6-1.6,5.5-3.3,8.7-4.4
									c2.6-0.9,5.2-1.4,7.8-1.4c8.1,0,13.7,5,13.8,12.5c0.1,8.4-6.6,17.5-15.9,21.5c-3.2,1.3-6.3,2.1-9.7,2.1c-0.1,0-0.2,0-0.3,0
									c0.2,0.7,0.4,1.2,0.7,1.9c0.9,2.4,1.9,4.8,3.1,7.1c2.4,4.3,4.5,9,6.3,14.2c1.6,4.7,3.3,10.9,1.4,18
									c-2.2,8.2-7.9,13.2-16.5,14.7C104.2,620.5,96.7,625.5,90.3,625.5z M53.2,587.5c2.5,0.3,5.7,1.6,6.2,6.6c0,0.1,0,0.2,0,0.3
									c1.1,6,2.6,10.7,4.8,15c1.5,2.9,5.1,4.9,9.2,5.2c-2.5-4.9-3.7-10.2-4.8-15.3c-0.2-1.1-0.4-2.2-0.8-3.4
									c-0.7-2.9-1.4-6.4-1.5-10.2l-0.5-13.1l8.2,10.3c3.1,3.8,4.4,8.2,5.2,11.5l0.5,2.3c1.2,4.8,2.3,9.4,4.5,13.4
									c0.7,1.3,1.4,2.2,2.3,2.9c0.8,0.7,2,1,3.4,1c2.5,0,5.1-1.2,6.7-2.9c-4.7-3.8-6.2-9-7.8-13.5l-0.2-0.8
									c-1.5-4.8-2.4-9.7-3.3-14.9l7.6-3.3c3.1,4,4.5,8.4,5.9,12.7l0.5,1.6c1,2.9,1.9,5.7,3.5,8c1.4,2.1,2,2.3,2.9,2.3
									c0.2,0,0.5,0,0.9-0.1c2.2-0.3,3.5-1.5,5.1-4.2c1.5-2.6,1.6-5.1,0.7-9c-1.9-6.6-4.7-12.8-7.6-19.2c-0.7-1.4-1.3-2.8-2-4.3
									c-1.5-3.5-3.3-7.5-3.3-12.2c-1.3-0.8-3.7-2.5-3.6-5.9l0.1-4.2h4.2c2.6,0,4.6,0.8,6.1,1.4c0.5,0.2,1.1,0.4,1.6,0.5
									c1.4,0.4,2.9,0.7,4.4,0.7c6.1,0,11.4-3.6,13.2-9.2c1-2.9,0.5-3.3,0.4-3.4c-0.3-0.2-0.9-0.5-2-0.5c-1.5,0-3.5,0.5-4.9,1
									c-1.7,0.5-3.4,1.5-5.2,2.6c-0.9,0.5-1.9,1.1-2.8,1.6c-3.6,1.9-7.2,2.8-11.3,2.8c-2.3,0-4.7-0.3-7.4-1
									c-2.5-0.7-3.5-2.5-3.9-3.6c-3.5-1.4-7.3-2.1-11.7-2.1c-1.4,0-2.8,0.1-4.4,0.2l-6.6,0.5l1.2-3.6l-2.6-0.4l2.8-4.8
									c-3.7,0.7-7.3,1.7-10.9,3.4l3.1,7.8c-1.7,1.1-3.4,2.1-4.9,2.9c-1.9,1-3.5,2-5,3.1c-5.8,4.4-8.7,9.7-9.5,17.4
									c-0.5,5.6-0.2,11.1,0.5,17.7c0.5,5.2,2.2,10.3,3.8,15.5l0.4,1.5l1,2.1c1.5,2.8,2.9,5.1,4.9,7.1c-0.8-3.2-1.2-6.4-1.7-9.6
									c-0.2-1.1-0.3-2.3-0.5-3.4l-1-5.7L53.2,587.5z"/>
							</g>
						</g>
					</g>
					<g>
						<g>
							<g>
								<path class="st17" d="M118.3,527.8c-3.2,1.1-6,2.8-8.7,4.6c-2.6,1.5-5.4,2.2-8.1,2.8c-1.1,0.2-2.1,0.4-3.1-0.4
									c-2.4-2.3-5.9-3.2-9.4-4c-1-0.2-2.1,0-1.6-1.6c1.3-4.3-1.3-6.8-5.1-8.4c-3.1-1.3-6.6-1.6-10.2-1.2
									c-11.3,1.2-21.5,5.2-30.8,11.9c-3.3,2.4-5.2,5.4-5.4,8.8c0,0.9-0.2,2,0.5,2.3c3.4,1.6,1.5,3.6-0.1,5.9
									c-1.2,1.6-1.7,3.6-2.3,5.4c-2.5,8.6-2.5,16.9-1,25c1.1,6.9,2,13.8,5,20.1c0.3,0.8,0.7,1.6,0.9,2.4c1.9,4.6,5,8.3,9.5,11
									c2.2,1.4,4.8,2.4,8,1.1c1.6-0.7,1.9,0.2,2.5,0.9c3.5,3.9,8.1,6.9,14.5,6.3c5-0.4,9.7-1.1,14.6,0.1
									c5.2,1.3,12.7-3.6,15.2-8.8c0.4-0.9,0.2-1.6,2.1-1.9c7.6-1,12.1-5,13.9-11.7c1.4-5.6,0.4-10.6-1.3-15.5
									c-1.6-4.7-3.6-9.2-6-13.5c-1.3-2.4-2.4-5-3.4-7.6s-1.6-5.2-2.6-8.4c4.9,1.1,9.4,1.3,14.3-0.9c7.6-3.4,13.5-10.8,13.4-17.6
									C133.9,527.9,127,524.8,118.3,527.8z M129.6,539.3c-3.2,9.2-13,14.1-22.8,11.3c-2.1-0.5-3.9-1.9-6.6-1.9
									c-0.1,2.5,3.7,2.1,3.6,4.6c-0.2,4.3,1.2,8,2.9,11.7c3.6,7.9,7.5,15.6,9.8,24c1.1,3.9,1.4,8-1.1,12.2c-1.7,2.9-4,5.6-8.2,6.2
									c-4.4,0.7-6.2-1.6-8-4c-2.2-3.1-3.3-6.7-4.4-10.2c-1.4-4.2-2.7-8.4-5.5-12c0.8,4.8,1.6,9.6,3.2,14.2c1.5,4.8,2.9,9.8,7.5,13
									c1.7,1.2,1.5,2.5,0.5,4c-3.5,5.7-12.3,7.6-16.9,3.8c-1.4-1.2-2.4-2.6-3.3-4.2c-2.8-5.2-4-11-5.5-16.8
									c-0.9-3.5-2.1-6.9-4.5-9.8c0.1,3.3,0.8,6.3,1.4,9.4c1.7,7.4,2.7,15.2,7.5,21.5c1.3,1.7-0.5,1.9-1.9,2.1
									c-7,1.4-14.4-1.6-17.4-7.2c-2.6-5-4.3-10.5-5.2-16.2c-0.2-1.3,0.1-3.1-2.5-3.4c1,5.9,1.6,11.8,3.5,17.4
									c0.2,0.8,1.5,1.5,0.3,2.5c-1.1,0.9-2.5,0.5-3.6,0.2c-1.9-0.4-3.1-1.4-4.3-2.5c-2.9-2.6-4.8-5.8-6.6-9.1
									c-0.4-0.8-0.8-1.5-1.2-2.3c-1.9-5.9-3.9-11.8-4.6-18.1c-0.7-6.1-1.2-12.2-0.5-18.6c0.8-7.5,3.6-14.6,11.3-20.3
									c2.9-2.2,6.4-3.7,10.2-6.1c-1,0.2-1.3,0.2-1.6,0.3c-2.2,0.9-4.4,1.9-6.6,2.7c-0.5,0.2-1.3,0.7-1.7,0.5
									c-1.3-0.3-1.7-0.3-2.3,0.5c-0.5,0.8-0.9,1.7-1.5,2.4c-0.8,0.7-1.4,2.1-2.7,1.6c-1.1-0.3-2-1.1-2-2.3
									c0.1-2.4,1.2-4.6,3.5-6.3c10.2-7.6,21.3-12.1,34-12c3.8,0,6.4,1.6,8.5,3.8c0.8,0.8,1,1.7,0.2,2.9c-0.9,1.4-2,0.7-2.9,0.8
									c-1.4,0.1-2.6-0.3-3.7-0.9c-1.7-0.9-3.7-1.3-6-0.9c-0.1,0.2-0.3,0.5-0.4,0.8c1.1,0.2,2.1,0.3,3.2,0.5
									c-0.5,1.1-2.2,0.8-2.5,1.9c7-0.7,13.3,0,19.1,2.6c1.6,0.8,0.9,2.6,2.3,2.9c5,1.3,10,1.4,15.5-1.4c2.8-1.5,5.6-3.5,8.7-4.5
									c3.8-1.2,7.9-2,10.8,0.2C131.3,533.1,130.6,536.2,129.6,539.3z"/>
							</g>
						</g>
					</g>
					<g>
						<g>
							<g>
								<path class="st22" d="M52.9,611.8c1.2,0.2,2.5,0.7,3.6-0.2c1.3-1,0-1.7-0.3-2.5c-1.9-5.6-2.5-11.5-3.5-17.4
									c2.6,0.3,2.3,2.1,2.5,3.4c1,5.7,2.6,11.1,5.2,16.2c2.9,5.6,10.3,8.6,17.4,7.2c1.3-0.3,3.3-0.3,1.9-2.1
									c-4.8-6.3-5.8-14-7.5-21.5c-0.7-3.1-1.3-6.1-1.4-9.4c2.3,2.9,3.6,6.3,4.5,9.8c1.4,5.7,2.6,11.6,5.5,16.8
									c0.9,1.5,1.9,2.9,3.3,4.2c4.7,3.9,13.4,2,16.9-3.8c1-1.5,1.2-2.8-0.5-4c-4.6-3.2-6-8.2-7.5-13c-1.4-4.6-2.3-9.4-3.2-14.2
									c2.7,3.6,4,7.9,5.5,12c1.2,3.5,2.2,7.1,4.4,10.2c1.7,2.4,3.6,4.7,8,4c4.2-0.7,6.4-3.3,8.2-6.2c2.5-4.3,2.2-8.3,1.1-12.2
									c-2.3-8.4-6.2-16.2-9.8-24c-1.6-3.7-3.2-7.4-2.9-11.7c0.1-2.5-3.7-2.1-3.6-4.6c2.6,0,4.4,1.2,6.6,1.9
									c9.8,2.7,19.8-2.1,22.8-11.3c1.1-3.1,1.6-6.2-1.1-8.3c-2.9-2.2-6.9-1.4-10.8-0.2c-3.2,1-5.9,2.9-8.7,4.5
									c-5.5,2.8-10.5,2.7-15.5,1.4c-1.4-0.3-0.7-2.3-2.3-2.9c-5.7-2.5-12-3.2-19.1-2.6c0.3-1.1,2-0.8,2.5-1.9
									c-1.1-0.2-2.1-0.3-3.2-0.5c-0.5-0.3-1.9,0.7-1.7-0.2c0.1-0.5,1.3-1.1,2.2-0.5c2.3-0.4,4.3,0,6,0.9c1.2,0.5,2.3,1,3.7,0.9
									c1-0.1,2.1,0.7,2.9-0.8c0.8-1.2,0.5-2.2-0.2-2.9c-2.1-2.2-4.7-3.8-8.5-3.8c-12.7-0.1-23.8,4.4-34,12
									c-2.3,1.7-3.4,3.9-3.5,6.3c0,1.2,0.9,2,2,2.3c1.3,0.4,2-1,2.7-1.6s1-1.6,1.5-2.4c0.7-0.9,1.1-0.9,2.3-0.5
									c0.4,0.1,1.1-0.3,1.7-0.5c2.2-0.9,4.4-1.9,6.6-2.7c0.3-0.1,0.7-0.1,1.6-0.3c-3.7,2.4-7.2,3.9-10.2,6.1
									c-7.8,5.8-10.5,12.8-11.3,20.3c-0.7,6.3-0.1,12.5,0.5,18.6c0.7,6.3,2.7,12.2,4.6,18.1c0.4,0.8,0.8,1.5,1.2,2.3
									c1.7,3.3,3.7,6.4,6.6,9.1C49.8,610.4,51,611.5,52.9,611.8z"/>
							</g>
						</g>
					</g>
				</g>
				<g>
					<g>
						<g>
							<path class="st17" d="M71.9,528c-0.9-0.5-2.1,0-2.2,0.5c-0.1,0.9,1.2-0.1,1.7,0.2C71.5,528.6,71.8,528.4,71.9,528z"/>
						</g>
					</g>
				</g>
			</g>
			<g>
				<g>
					<g>
						<line class="st23" x1="130.1" y1="554.2" x2="107.4" y2="560.3"/>
					</g>
				</g>
			</g>
			<g>
				<g>
					<g>
						<path class="st17" d="M101.7,552.5c0,0,3.7,4.3,16.7,2.9c13.1-1.2,18.6-11.1,18.6-11.1l-6.9-2.7c0,0-5.2,8.5-14.5,9.3
							s-13.8-4.3-14.5-2.2s1.4,5.7,1.4,5.7"/>
					</g>
				</g>
			</g>
			<g>
				<g>
					<g>
						<path class="st22" d="M103.7,548.6c0,0,8.3,3.8,15.2,1.6s10-7.9,10-7.9s-6.3-2.9-6.8-2.9s-7.5,0.9-7.5,0.9"/>
					</g>
				</g>
			</g>
			<g>
				<g>
					<g>
						<path class="st14" d="M138.7,572.8c0,0,4.6,17.7,8.3,26.9s10.9,19.3,11,20.9c0.1,1.5-13.3,3.4-15.3,2.8
							c-2-0.5-17.6-4.8-17.6-4.8s16.3,2.3,21.1-0.4s-6.7-26.8-7.5-34.4C137.8,576.1,138.7,572.8,138.7,572.8z"/>
					</g>
				</g>
			</g>
			<g>
				<g>
					<g>
						<path d="M138.7,529.8L101,548.6c0,0,10.7,8.5,12.6,11.3s11.3,0.8,11.3,0.8l10.4-9.1l1.7-7.2l0.7-2.4"/>
					</g>
				</g>
			</g>
			<g>
				<g>
					<g>
						<path class="st7" d="M140.5,537.1l-31.2,13.3l5.2,12.1l3.1-0.8c0,0,5.7-0.8,9-1.4s7.6-2.4,7.6-2.4s3.9-5.4,4.3-6.4
							c0.3-1.1,0.8-6.3,0.7-6.8"/>
					</g>
				</g>
			</g>
			<g>
				<g>
					<g>
						<path class="st14" d="M114.7,551.3l22.6-10c0,0-0.3,13.2,1.4,19.4c0,0-4.5-9.2-4.3-15.5C134.5,545.2,116.9,551.9,114.7,551.3z
							"/>
					</g>
				</g>
			</g>
			<g>
				<g>
					<g>
						<path class="st24" d="M148.8,534.1c0,0,7.9,12.5,9.4,15.7c0,0-4.6,4.9-5.4,8.4s-0.2-0.3-0.2-0.3S145.8,540.3,148.8,534.1z"/>
					</g>
				</g>
			</g>
			<g>
				<g>
					<g>
						<path class="st24" d="M176.1,590.4c0,0,3.1,15.9,3.4,22.5s-3.4,13.2-3.4,13.2s-9.2-13-10.8-16.8c-1.6-3.8-4-8.4-4-8.4
							l15.4-10.5"/>
					</g>
				</g>
			</g>
			<g>
				<g>
					<g>
						<path class="st17" d="M38.1,551.4c0,0,13.9-14.6,23-17.9c0,0-13.3,2-18.2,6c-4.9,3.9-3.9-1.1-3.7-1.7c0.2-0.5-2.7,0.4-2.8,2.7
							s0,2.7,0,4.2c0,1.4-0.1,2.2-0.1,2.2"/>
					</g>
				</g>
			</g>
			<g>
				<g>
					<g>
						<path class="st22" d="M71.9,531.2c0,0,9-1.5,11.3-1.3s-8.2-4.9-9.4-5c-1.2-0.2-3.6-1.9-4.5-0.1c-0.9,1.7-1.6,2.4-1.7,2.7
							c-0.1,0.2-0.4,1.2-0.5,1.5s-0.7,1.4-0.7,1.5"/>
					</g>
				</g>
			</g>
			<g>
				<g>
					<g>
						<path class="st17" d="M52.6,591.7c0,0,1.3,13.4,2,15.5s2.4,2.9,2.4,3.6s1.3,0.2,1.2-0.7s-0.5-4.3-0.5-4.3"/>
					</g>
				</g>
			</g>
			<g>
				<g>
					<g>
						<path class="st17" d="M70.7,585.6c0,0,0.1,7.4,0.5,12c0.5,4.7,3.5,14.3,4.8,16.1c1.3,1.7,3.2,3.3,3.8,3.7s0.7,0.5,0.7,0.5"/>
					</g>
				</g>
			</g>
			<g>
				<g>
					<g>
						<path class="st17" d="M90,581.7c0,0-0.9,8.4,2,16.4c2.8,8,10,13,10,13h1.2"/>
					</g>
				</g>
			</g>
		</g>
		<g>
			<g>
				<g>
					<g>
						<g>
							<path class="st17" d="M608.1,215.3c15,0.5,29.9,1.1,44.8,1.9c0-29.4,0-39,0-68.4c-14.9-1.3-29.8-2.4-44.8-3.3
								C608.1,175.4,608.1,185.5,608.1,215.3z"/>
						</g>
					</g>
					<g>
						<g>
							<path class="st0" d="M656,220.7l-3.4-0.2c-14.9-0.8-29.8-1.4-44.7-1.9l-3.2-0.1v-76.4l3.4,0.2c15,0.9,30,2,44.9,3.3l2.9,0.2
								L656,220.7L656,220.7z M611.3,212.3c12.8,0.4,25.6,1,38.3,1.6v-62c-12.7-1.1-25.5-2.1-38.3-2.8V212.3z"/>
						</g>
					</g>
				</g>
				<g>
					<g>
						<g>
							<g>
								<path class="st0" d="M657.9,133.2l-7.1-0.3c-13.7-0.7-27.5-1.1-41.3-1.5l-6.6-0.2v-40l7.2,0.3c13.9,0.7,27.9,1.5,41.5,2.6
									l6.2,0.4L657.9,133.2L657.9,133.2z M609.4,124.9h0.3c13.8,0.4,27.6,0.9,41.4,1.5h0.4v-25.9h-0.3c-13.7-1.1-27.5-2-41.4-2.6
									h-0.4V124.9z"/>
							</g>
						</g>
					</g>
					<g>
						<g>
							<g>
								<path class="st25" d="M652.3,127.4c-14.5-0.7-29.3-1.2-43.9-1.6V97c14.6,0.8,29.4,1.6,43.9,2.7V127.4z"/>
							</g>
						</g>
					</g>
				</g>
				<g>
					<g>
						<g>
							<g>
								<polygon class="st26" points="611.9,161.6 620.9,162.1 620.9,150.1 611.9,149.6 								"/>
							</g>
						</g>
					</g>
					<g>
						<g>
							<g>
								<polygon class="st26" points="611.9,193.2 620.9,193.6 620.9,182.7 611.9,182.2 								"/>
							</g>
						</g>
					</g>
					<g>
						<g>
							<g>
								<polygon class="st26" points="611.9,177.4 620.9,177.8 620.9,166.8 611.9,166.4 								"/>
							</g>
						</g>
					</g>
					<g>
						<g>
							<g>
								<polygon class="st26" points="626.7,178.1 635.4,178.6 635.4,167.6 626.7,167.1 								"/>
							</g>
						</g>
					</g>
					<g>
						<g>
							<g>
								<polygon class="st26" points="626.7,162.2 635.4,162.7 635.4,150.9 626.7,150.3 								"/>
							</g>
						</g>
					</g>
					<g>
						<g>
							<g>
								<polygon class="st26" points="626.7,193.8 635.4,194.2 635.4,183.3 626.7,182.9 								"/>
							</g>
						</g>
					</g>
					<g>
						<g>
							<g>
								<polygon class="st26" points="640.5,151.1 640.5,163 649.3,163.4 649.3,151.6 								"/>
							</g>
						</g>
					</g>
					<g>
						<g>
							<g>
								<polygon class="st26" points="640.5,194.4 649.3,194.8 649.3,184 640.5,183.5 								"/>
							</g>
						</g>
					</g>
					<g>
						<g>
							<g>
								<polygon class="st26" points="611.9,208 620.9,208.4 620.9,197.4 611.9,197 								"/>
							</g>
						</g>
					</g>
					<g>
						<g>
							<g>
								<polygon class="st26" points="626.7,208.6 635.4,209 635.4,198.1 626.7,197.6 								"/>
							</g>
						</g>
					</g>
					<g>
						<g>
							<g>
								<polygon class="st26" points="640.1,209.2 648.8,209.6 648.8,198.7 640.1,198.4 								"/>
							</g>
						</g>
					</g>
					<g>
						<g>
							<g>
								<polygon class="st26" points="640.5,178.8 649.3,179.3 649.3,168.3 640.5,167.9 								"/>
							</g>
						</g>
					</g>
				</g>
				<g>
					<g>
						<g>
							<polygon class="st9" points="613.2,112.5 611.7,110.8 612.5,110 620.5,100.5 622.3,101.9 							"/>
						</g>
					</g>
				</g>
				<g>
					<g>
						<g>
							<polygon class="st9" points="618.8,113.4 617.6,112.1 618.4,111.4 617.9,111.1 621.6,106.7 623.3,108 							"/>
						</g>
					</g>
				</g>
			</g>
			<g>
				<g>
					<g>
						<g>
							<path class="st15" d="M653,259.4c-14.9-0.8-29.9-1.4-44.8-1.9l-3.4-0.1v58.8l3.2,0.1c15,0.3,30,0.7,44.7,1.1l3.3,0.1v-57.9
								L653,259.4z"/>
						</g>
					</g>
				</g>
				<g>
					<g>
						<g>
							<polygon class="st16" points="611.3,284.7 611.3,290.5 649.6,291.4 649.6,285.5 							"/>
						</g>
					</g>
				</g>
				<g>
					<g>
						<g>
							
								<rect x="629.4" y="279.3" transform="matrix(2.950535e-02 -0.9996 0.9996 2.950535e-02 314.4441 918.9501)" class="st16" width="2.2" height="36.5"/>
						</g>
					</g>
				</g>
			</g>
		</g>
	</g>
	<g>
		<g>
			<g>
				<g>
					<g>
						<rect x="606.7" y="416.8" class="st15" width="48" height="62.7"/>
					</g>
				</g>
			</g>
			<g>
				<g>
					<g>
						<polygon class="st15" points="607.5,479.5 602.8,481.5 602.8,418.8 607.5,416.8 						"/>
					</g>
				</g>
			</g>
			<g>
				<g>
					<g>
						<rect x="610.7" y="419.8" class="st27" width="37.2" height="1.6"/>
					</g>
				</g>
			</g>
		</g>
		<g>
			<g>
				<g>
					<rect x="611.7" y="425.8" class="st28" width="35.5" height="8.8"/>
				</g>
			</g>
		</g>
		<g>
			<g>
				<g>
					<rect x="611.8" y="437.4" class="st28" width="3.1" height="3.1"/>
				</g>
			</g>
		</g>
		<g>
			<g>
				<g>
					<rect x="623.1" y="437.4" class="st28" width="3.1" height="3.1"/>
				</g>
			</g>
		</g>
		<g>
			<g>
				<g>
					<rect x="634.3" y="437.4" class="st27" width="3.1" height="3.1"/>
				</g>
			</g>
		</g>
		<g>
			<g>
				<g>
					<rect x="645.4" y="437.4" class="st28" width="3.1" height="3.1"/>
				</g>
			</g>
		</g>
		<g>
			<g>
				<g>
					<rect x="611.7" y="445.1" class="st27" width="8.8" height="6.1"/>
				</g>
			</g>
		</g>
		<g>
			<g>
				<g>
					<rect x="625.6" y="444.8" class="st27" width="9.7" height="6.8"/>
				</g>
			</g>
		</g>
		<g>
			<g>
				<g>
					<rect x="638.8" y="444.8" class="st28" width="9.7" height="6.8"/>
				</g>
			</g>
		</g>
		<g>
			<g>
				<g>
					<path class="st15" d="M630.7,474.5c0,0-16.6-2.5-16.9-1.9c-0.2,0.7-5.4,1.6-6,2.5s-1.1,1.2-1.1,1.5s0,0.3,0,0.3l-3.8,4.4h51.7
						c0,0-0.8-3.8,0-3.8C655.4,477.6,630.7,474.5,630.7,474.5"/>
				</g>
			</g>
		</g>
		<g>
			<g>
				<g>
					<g>
						<g>
							<path class="st27" d="M639.3,462.9c-0.1,0.3-0.2,0.5-0.5,0.8c-0.4,0.2-0.9,0.2-1.3-0.1c-0.3-0.3-0.8-0.7-1.1-1
								c-1.4-1.1-3.1-1.9-4.8-2.1c-2.4-0.3-4.6,0-6.8,1.1c-1,0.4-1.7,1.1-2.5,1.9c-0.1,0.1-0.3,0.2-0.4,0.3c-0.4,0.2-1,0-1.3-0.4
								s-0.2-1,0.2-1.4c1.3-1.3,2.8-2.3,4.6-2.9c1.2-0.4,2.4-0.8,3.6-0.8c2.9-0.2,5.7,0.5,8.1,2.1c0.8,0.4,1.4,1,2,1.6
								c0.1,0.1,0.2,0.3,0.3,0.5C639.3,462.6,639.3,462.8,639.3,462.9z"/>
						</g>
					</g>
				</g>
				<g>
					<g>
						<g>
							<path class="st27" d="M629.8,462.4c2.6,0,4.8,1,6.7,2.7c0.7,0.7,0.4,1.6-0.4,1.9c-0.3,0.1-0.7,0-1-0.2s-0.7-0.5-1-0.8
								c-1-0.8-2.1-1.2-3.3-1.3c-1.7-0.2-3.4,0.1-4.9,1.1c-0.4,0.2-0.8,0.5-1.1,0.9c-0.4,0.3-0.8,0.4-1.3,0.2
								c-0.8-0.3-0.9-1.2-0.3-1.7c0.4-0.4,0.9-0.8,1.4-1.2c1.3-0.9,2.7-1.4,4.3-1.5C629.3,462.4,629.5,462.4,629.8,462.4z"/>
						</g>
					</g>
				</g>
				<g>
					<g>
						<g>
							<path class="st27" d="M629.7,466.4c1.1,0,2.1,0.2,2.9,0.8c0.4,0.2,0.9,0.5,1.2,0.9c0.5,0.4,0.5,1.1,0.1,1.6
								c-0.4,0.4-1.1,0.4-1.5,0.1c-0.4-0.3-0.9-0.7-1.4-0.9c-1.3-0.4-2.4-0.2-3.5,0.7c-0.1,0.1-0.2,0.1-0.2,0.2
								c-0.4,0.4-1.2,0.3-1.5-0.1c-0.4-0.4-0.3-1.1,0.1-1.5c1-0.9,2.1-1.4,3.4-1.6c0.1,0,0.1,0,0.2,0
								C629.5,466.4,629.6,466.4,629.7,466.4z"/>
						</g>
					</g>
				</g>
				<g>
					<g>
						<g>
							<path class="st27" d="M631.7,472.7c0,1-0.9,1.9-1.9,1.9c-1.1,0-1.9-0.9-1.9-1.9c0-1.1,0.8-1.9,1.9-1.9
								S631.7,471.6,631.7,472.7z"/>
						</g>
					</g>
				</g>
			</g>
		</g>
	</g>
	<g>
		<g>
			<g>
				<g>
					<circle class="st17" cx="629.8" cy="367.9" r="21.7"/>
				</g>
			</g>
		</g>
		<g>
			<g>
				<g>
					<circle class="st29" cx="629.8" cy="367.9" r="17.5"/>
				</g>
			</g>
		</g>
		<g>
			<g>
				<g>
					<rect x="627.9" y="355.7" class="st17" width="4" height="22.9"/>
				</g>
			</g>
		</g>
	</g>
	<g>
		<g>
			<g>
				<polygon class="st17" points="609.6,554.4 609.6,592.8 650.1,587.8 650.1,553 				"/>
			</g>
			<g>
				<path class="st0" d="M606.3,596.4v-45.1l47-1.6v41L606.3,596.4z M612.9,557.5v31.6l34.1-4.3v-28.6L612.9,557.5z"/>
			</g>
		</g>
		<g>
			<g>
				<polygon class="st27" points="630.3,572.8 610.9,575.2 610.9,591.4 645.1,588.3 				"/>
			</g>
		</g>
	</g>
	<g>
		<g>
			<path class="st7" d="M776.9,245l-1.3-3.8c-0.4-1.3,0.2-2.6,1.5-3.1l5.9-2c0,0,2.8,0.1,3.1,0.4"/>
		</g>
	</g>
</g>
</svg>
