<?xml version="1.0" encoding="utf-8"?>
<!-- Generator: Adobe Illustrator 27.9.1, SVG Export Plug-In . SVG Version: 6.00 Build 0)  -->
<svg version="1.1" id="Layer_1" xmlns="http://www.w3.org/2000/svg" xmlns:xlink="http://www.w3.org/1999/xlink" x="0px" y="0px"
	 viewBox="0 0 361.5 461.8" style="enable-background:new 0 0 361.5 461.8;" xml:space="preserve">
<style type="text/css">
	.st0{fill:#0D0D0D;}
	.st1{fill:#CD2328;}
	.st2{fill:#8E192F;}
	.st3{fill:#B62225;}
	.st4{fill:#E93B48;}
	.st5{fill:#EC626C;}
	.st6{fill:#EA5661;}
	.st7{fill:#B31F36;}
	.st8{fill:#8B6271;}
	.st9{fill:#FFFFFF;}
	.st10{fill:#F8F6F1;}
	.st11{fill:#606161;}
	.st12{opacity:0.15;}
	.st13{fill:#6D1628;}
	.st14{fill:#F26866;}
	.st15{fill:#232121;}
	.st16{fill:#CFDCDC;}
	.st17{fill:#0E0E0E;}
	.st18{fill:#F4ECE5;}
	.st19{fill:#CB832A;}
	.st20{fill:#FFCD05;}
	.st21{fill:#911F36;}
	.st22{fill:#F9F8F2;}
	.st23{fill:none;}
	.st24{fill:#54121D;}
	.st25{fill:#4A77A8;}
	.st26{fill:#84827E;}
	.st27{fill:#6B6B6B;}
	.st28{fill:#65A042;}
	.st29{fill:#B8CACD;}
	.st30{fill:#B21F37;}
	.st31{fill:#215483;}
	.st32{fill:#D6D5D2;}
	.st33{fill:#FECE43;}
	.st34{opacity:0.49;fill:#B21F37;enable-background:new    ;}
	.st35{fill:#4B78A9;}
	.st36{fill:#8F2438;}
	.st37{fill:#ABB4CE;}
	.st38{fill:#DEE2F2;}
	.st39{fill:#666666;}
	.st40{fill:#F26966;}
	.st41{fill:#999999;}
	.st42{opacity:0.38;fill:#FFFFFF;enable-background:new    ;}
	.st43{fill:#0D0F10;}
	.st44{fill:#4F5051;}
	.st45{fill:#6B6C6C;}
	.st46{fill:#0C0B0A;}
	.st47{fill:#C3E2ED;}
	.st48{fill:#9FABB0;}
	.st49{clip-path:url(#SVGID_00000172422972175291408270000016722840044962792365_);fill:#FFCD05;}
	.st50{clip-path:url(#SVGID_00000172422972175291408270000016722840044962792365_);}
	.st51{fill:#FBEFD7;}
	.st52{fill:#B21F36;}
	.st53{fill:#170F09;}
	.st54{fill:#222221;}
	.st55{fill:#D89A53;}
	.st56{fill:#FDFDFD;}
	.st57{fill:#592A07;}
	.st58{fill:#B88346;}
	.st59{fill:#DBDADA;}
	.st60{fill:#383837;}
	.st61{fill:#804118;}
	.st62{fill:#646463;}
	.st63{fill:#E5AF73;}
	.st64{fill:#2D2D2C;}
	.st65{fill:#693309;}
	.st66{fill:#DB9D56;}
	.st67{fill:#613214;}
	.st68{fill:#FCCA1D;}
	.st69{fill:#8E1830;}
	.st70{fill:#FFDE83;}
	.st71{fill:#D1CDC5;}
	.st72{fill:#7F3211;}
	.st73{fill:#FCFCFC;}
	.st74{fill:#D6D5D5;}
	.st75{fill:#FCCD2A;}
	.st76{fill:#181516;}
	.st77{fill:#FBFBFB;}
	.st78{fill:#3F383B;}
	.st79{fill:#716E6D;}
	.st80{fill:#7A1E2F;}
	.st81{opacity:0.74;fill:#FFCCD6;enable-background:new    ;}
	.st82{fill:#CFCECE;}
	.st83{opacity:0.58;}
</style>
<g>
	<path class="st15" d="M25.7,451.3C11.5,451.3,0,439.8,0,425.6V25.7C0,11.5,11.5,0,25.7,0h310.1c14.2,0,25.7,11.5,25.7,25.7v379.4
		c0,25.5-20.7,46.2-46.2,46.2H25.7z"/>
	<path class="st30" d="M315.3,441.3H25.7c-8.7,0-15.7-7-15.7-15.7V25.7C10,17,17,10,25.7,10h310.1c8.7,0,15.7,7,15.7,15.7v379.4
		C351.5,425.1,335.3,441.3,315.3,441.3z"/>
	<path class="st2" d="M315.3,423.5H25.7c-8.7,0-15.7-7-15.7-15.7v17.8c0,8.7,7,15.7,15.7,15.7h289.6c20,0,36.2-16.2,36.2-36.2v-17.8
		C351.5,407.3,335.3,423.5,315.3,423.5z"/>
	<path class="st15" d="M45.9,337.9c-8.6,0-15.6-7-15.6-15.5V43.7c0-8.5,7-15.5,15.5-15.5h199.3c8.5,0,15.5,7,15.5,15.5v278.7
		c0,8.5-7,15.5-15.5,15.5H45.9z"/>
	<path class="st15" d="M37.3,322.4V43.7c0-4.7,3.8-8.5,8.5-8.5h199.3c4.7,0,8.5,3.8,8.5,8.5v278.7c0,4.7-3.8,8.5-8.5,8.5H45.9
		C41.2,330.9,37.3,327.1,37.3,322.4z"/>
	<g>
		<path class="st31" d="M51.9,112.1c-2.2,0-4-1.6-4-3.5v-2.4c0-2,1.8-3.5,4-3.5h184.5c2.2,0,4,1.6,4,3.5v2.4c0,2-1.8,3.5-4,3.5H51.9
			z"/>
		<g>
			<path class="st15" d="M51.9,111.8c-3.3,0-6-2.4-6-5.3v-2.4c0-2.9,2.7-5.3,6-5.3h184.5c3.3,0,6,2.4,6,5.3v2.4c0,2.9-2.7,5.3-6,5.3
				H51.9z"/>
			<path class="st15" d="M51.9,110.1c-2.2,0-4-1.6-4-3.5v-2.4c0-2,1.8-3.5,4-3.5h184.5c2.2,0,4,1.6,4,3.5v2.4c0,2-1.8,3.5-4,3.5
				H51.9z"/>
			<path class="st9" d="M236.4,102.1H51.9c-1.3,0-2.4,0.9-2.4,2v2.4c0,1.1,1.1,2,2.4,2h184.5c1.3,0,2.4-0.9,2.4-2v-2.4
				C238.8,103,237.8,102.1,236.4,102.1z"/>
			<path class="st32" d="M236.4,105.8H51.9c-1.3,0-2.3-0.8-2.4-1.9v0.1v2.4c0,1.1,1.1,2,2.4,2h184.5c1.3,0,2.4-0.9,2.4-2V104v-0.1
				C238.7,105,237.7,105.8,236.4,105.8z"/>
		</g>
	</g>
	<g>
		<path class="st15" d="M51.9,178.5c-3.3,0-6-2.4-6-5.3v-2.4c0-2.9,2.7-5.3,6-5.3h184.5c3.3,0,6,2.4,6,5.3v2.4c0,2.9-2.7,5.3-6,5.3
			H51.9z"/>
		<path class="st15" d="M51.9,176.8c-2.2,0-4-1.6-4-3.5v-2.4c0-2,1.8-3.5,4-3.5h184.5c2.2,0,4,1.6,4,3.5v2.4c0,2-1.8,3.5-4,3.5H51.9
			z"/>
		<path class="st9" d="M236.4,168.8H51.9c-1.3,0-2.4,0.9-2.4,2v2.4c0,1.1,1.1,2,2.4,2h184.5c1.3,0,2.4-0.9,2.4-2v-2.4
			C238.8,169.7,237.8,168.8,236.4,168.8z"/>
		<path class="st32" d="M236.4,172.5H51.9c-1.3,0-2.3-0.8-2.4-1.9v0.1v2.4c0,1.1,1.1,2,2.4,2h184.5c1.3,0,2.4-0.9,2.4-2v-2.4v-0.1
			C238.7,171.7,237.7,172.5,236.4,172.5z"/>
	</g>
	<g>
		<path class="st15" d="M51.9,256.2c-3.3,0-6-2.4-6-5.3v-2.4c0-2.9,2.7-5.3,6-5.3h184.5c3.3,0,6,2.4,6,5.3v2.4c0,2.9-2.7,5.3-6,5.3
			H51.9z"/>
		<path class="st15" d="M51.9,254.4c-2.2,0-4-1.6-4-3.5v-2.4c0-2,1.8-3.5,4-3.5h184.5c2.2,0,4,1.6,4,3.5v2.4c0,2-1.8,3.5-4,3.5H51.9
			z"/>
		<path class="st9" d="M236.4,246.5H51.9c-1.3,0-2.4,0.9-2.4,2v2.4c0,1.1,1.1,2,2.4,2h184.5c1.3,0,2.4-0.9,2.4-2v-2.4
			C238.8,247.4,237.8,246.5,236.4,246.5z"/>
		<path class="st32" d="M236.4,250.2H51.9c-1.3,0-2.3-0.8-2.4-1.9v0.1v2.4c0,1.1,1.1,2,2.4,2h184.5c1.3,0,2.4-0.9,2.4-2v-2.3v-0.1
			C238.7,249.4,237.7,250.2,236.4,250.2z"/>
	</g>
	<g>
		<path class="st15" d="M51.9,326.2c-3.3,0-6-2.4-6-5.3v-2.4c0-2.9,2.7-5.3,6-5.3h184.5c3.3,0,6,2.4,6,5.3v2.4c0,2.9-2.7,5.3-6,5.3
			L51.9,326.2L51.9,326.2z"/>
		<path class="st15" d="M51.9,324.4c-2.2,0-4-1.6-4-3.5v-2.4c0-2,1.8-3.5,4-3.5h184.5c2.2,0,4,1.6,4,3.5v2.4c0,2-1.8,3.5-4,3.5H51.9
			z"/>
		<path class="st9" d="M236.4,316.5H51.9c-1.3,0-2.4,0.9-2.4,2v2.4c0,1.1,1.1,2,2.4,2h184.5c1.3,0,2.4-0.9,2.4-2v-2.4
			C238.8,317.4,237.8,316.5,236.4,316.5z"/>
		<path class="st32" d="M236.4,320.2H51.9c-1.3,0-2.3-0.8-2.4-1.9v0.1v2.4c0,1.1,1.1,2,2.4,2h184.5c1.3,0,2.4-0.9,2.4-2v-2.3v-0.1
			C238.7,319.4,237.7,320.2,236.4,320.2z"/>
	</g>
	<g>
		<path class="st15" d="M88.2,206.2c-0.5,0-1,0-1.5-0.1c-1.6-0.2-3.1-0.4-4.7-0.4s-3.2,0.1-4.7,0.4c-0.5,0.1-1,0.1-1.5,0.1
			c-4.5,0-8.1-3.1-8.1-7v-10.1c0-3.3,2.6-6.1,6.3-6.8c2.6-0.5,5.3-0.8,8-0.8s5.4,0.3,8,0.8c3.7,0.7,6.3,3.6,6.3,6.8v10.1
			c0,1.9-0.9,3.8-2.5,5.1C92.3,205.5,90.3,206.2,88.2,206.2z"/>
		<path class="st15" d="M88.2,204.4c-0.4,0-0.8,0-1.1-0.1c-1.7-0.3-3.4-0.4-5-0.4c-1.7,0-3.4,0.1-5,0.4c-0.4,0.1-0.8,0.1-1.1,0.1
			c-3.4,0-6.2-2.3-6.2-5.2v-10.1c0-2.4,2-4.5,4.8-5.1c2.5-0.5,5-0.7,7.6-0.7s5.1,0.2,7.6,0.7c2.8,0.6,4.8,2.7,4.8,5.1v10.1
			c0,1.4-0.7,2.8-1.9,3.7C91.3,203.9,89.8,204.4,88.2,204.4z"/>
		<path class="st30" d="M89,186.3c-4.6-0.9-9.3-0.9-13.9,0c-1.6,0.3-2.7,1.5-2.7,2.8v10.1c0,1.8,2,3.1,4.1,2.8
			c3.7-0.6,7.4-0.6,11.1,0c2.1,0.3,4.1-1,4.1-2.8v-10.1C91.6,187.8,90.5,186.7,89,186.3z"/>
		<path class="st9" d="M89,186.3c-4.6-0.9-9.3-0.9-13.9,0c-1.6,0.3-2.7,1.5-2.7,2.8v1.4c0-1.3,1.1-2.5,2.7-2.8
			c4.6-0.9,9.3-0.9,13.9,0c1.6,0.3,2.7,1.5,2.7,2.8v-1.4C91.6,187.8,90.5,186.7,89,186.3z"/>
		<path class="st15" d="M68.1,248.3c-6.2,0-11.2-4.3-11.2-9.5v-27.3c0-11.6,11.3-21,25.2-21c13.9,0,25.2,9.4,25.2,21v27.3
			c0,5.3-5,9.5-11.2,9.5H68.1z"/>
		<path class="st15" d="M68.1,246.5c-5.1,0-9.3-3.5-9.3-7.8v-27.3c0-10.6,10.4-19.3,23.2-19.3c12.8,0,23.2,8.6,23.2,19.3v27.3
			c0,4.3-4.2,7.8-9.3,7.8H68.1z"/>
		<path class="st30" d="M96.5,244.1H67.4c-3.3,0-5.9-2.7-5.9-5.9v-25.1c0-10.3,8.3-18.6,18.6-18.6h3.8c10.3,0,18.6,8.3,18.6,18.6
			v25.1C102.5,241.5,99.8,244.1,96.5,244.1z"/>
		<path class="st2" d="M98.8,201.9c1.3,2.3,2.1,4.9,2.1,7.7v24c0,2.9-2.6,5.3-5.7,5.3H68.8c-3.1,0-5.7-2.4-5.7-5.3v-24
			c0-2.8,0.8-5.4,2.1-7.7c-2.3,2.9-3.7,6.5-3.7,10.4v26c0,3.1,2.8,5.7,6.2,5.7h28.6c3.4,0,6.2-2.6,6.2-5.7v-26
			C102.5,208.5,101.1,204.9,98.8,201.9z"/>
		<path class="st15" d="M82,231.1c-7.1,0-14.3-0.6-21.4-1.9l-1.1-0.2c-0.4-0.1-0.7-0.2-1-0.5c-0.9-0.1-1.7-0.9-1.7-1.8v-15.3
			c0-0.3,0-0.5,0-0.7l0.1-2.8c0-0.5,0.3-1,0.7-1.3c0.3-0.3,0.8-0.4,1.2-0.4c0.1,0,0.2,0,0.3,0l3.1,0.5c6.5,1.1,13.1,1.7,19.6,1.7
			s13.1-0.6,19.5-1.7l3.2-0.6c0.1,0,0.2,0,0.4,0c0.4,0,0.9,0.1,1.2,0.4c0.4,0.3,0.7,0.8,0.7,1.3l0.1,2.8c0,0.2,0,0.5,0,0.7v15.3
			c0,0.9-0.7,1.6-1.7,1.8c-0.3,0.2-0.6,0.4-1,0.5l-1.1,0.2C96.3,230.4,89.2,231.1,82,231.1z"/>
		<path class="st15" d="M82,229.3c-7,0-14.1-0.6-21-1.8l-1.1-0.2l0.1-0.5h-1.2v-15.3c0-0.2,0-0.4,0-0.7l0.1-2.8l3.1,0.5
			c6.6,1.2,13.3,1.7,19.9,1.7s13.3-0.6,19.9-1.7l3.2-0.6l0.1,2.8c0,0.2,0,0.4,0,0.6v15.3h-1.2l0.1,0.5l-1.1,0.2
			C96.1,228.7,89,229.3,82,229.3z"/>
		<path class="st15" d="M82,228.3c-6.9,0-13.9-0.6-20.8-1.8l0.2-0.7h-1.5v-14.3c0-0.2,0-0.4,0-0.6l0.1-1.6l1.9,0.3
			c6.6,1.2,13.4,1.8,20.1,1.8s13.5-0.6,20.1-1.8l1.9-0.3l0.1,1.7c0,0.2,0,0.4,0,0.6v14.3h-1.5l0.2,0.7C96,227.7,89,228.3,82,228.3z"
			/>
		<path class="st9" d="M102.5,210.8c-13.5,2.4-27.4,2.4-40.9,0c0,0.2,0,0.4,0,0.6v1.7V224v1.7c0-0.2,0-0.4,0-0.6
			c13.5,2.4,27.4,2.4,40.9,0c0,0.2,0,0.4,0,0.6V224v-10.9v-1.7C102.5,211.2,102.5,211,102.5,210.8z"/>
	</g>
	<g>
		<path class="st15" d="M154,206.2c-0.5,0-1,0-1.5-0.1c-1.6-0.2-3.1-0.4-4.7-0.4s-3.2,0.1-4.7,0.4c-0.5,0.1-1,0.1-1.5,0.1
			c-4.5,0-8.1-3.1-8.1-7v-10.1c0-3.3,2.6-6.1,6.3-6.8c2.6-0.5,5.3-0.8,8-0.8s5.4,0.3,8,0.8c3.7,0.7,6.3,3.6,6.3,6.8v10.1
			c0,1.9-0.9,3.8-2.5,5.1C158.1,205.5,156.1,206.2,154,206.2z"/>
		<path class="st15" d="M154,204.4c-0.4,0-0.8,0-1.1-0.1c-1.7-0.3-3.4-0.4-5-0.4c-1.7,0-3.4,0.1-5,0.4c-0.4,0.1-0.8,0.1-1.1,0.1
			c-3.4,0-6.2-2.3-6.2-5.2v-10.1c0-2.4,2-4.5,4.8-5.1c2.5-0.5,5-0.7,7.6-0.7s5.1,0.2,7.6,0.7c2.8,0.6,4.8,2.7,4.8,5.1v10.1
			c0,1.4-0.7,2.8-1.9,3.7C157.1,203.9,155.6,204.4,154,204.4z"/>
		<path class="st33" d="M154.8,186.3c-4.6-0.9-9.3-0.9-13.9,0c-1.6,0.3-2.7,1.5-2.7,2.8v10.1c0,1.8,2,3.1,4.1,2.8
			c3.7-0.6,7.4-0.6,11.1,0c2.1,0.3,4.1-1,4.1-2.8v-10.1C157.4,187.8,156.3,186.7,154.8,186.3z"/>
		<path class="st9" d="M154.8,186.3c-4.6-0.9-9.3-0.9-13.9,0c-1.6,0.3-2.7,1.5-2.7,2.8v1.4c0-1.3,1.1-2.5,2.7-2.8
			c4.6-0.9,9.3-0.9,13.9,0c1.6,0.3,2.7,1.5,2.7,2.8v-1.4C157.4,187.8,156.3,186.7,154.8,186.3z"/>
		<path class="st15" d="M133.9,248.3c-6.2,0-11.2-4.3-11.2-9.5v-27.3c0-11.6,11.3-21,25.2-21s25.2,9.4,25.2,21v27.3
			c0,5.3-5,9.5-11.2,9.5H133.9z"/>
		<path class="st15" d="M133.9,246.5c-5.1,0-9.3-3.5-9.3-7.8v-27.3c0-10.6,10.4-19.3,23.2-19.3c12.8,0,23.2,8.6,23.2,19.3v27.3
			c0,4.3-4.2,7.8-9.3,7.8H133.9z"/>
		<path class="st33" d="M162.4,244.1h-29.1c-3.3,0-5.9-2.7-5.9-5.9v-25.1c0-10.3,8.3-18.6,18.6-18.6h3.8c10.3,0,18.6,8.3,18.6,18.6
			v25.1C168.3,241.5,165.6,244.1,162.4,244.1z"/>
		<path class="st34" d="M164.6,201.9c1.3,2.3,2.1,4.9,2.1,7.7v24c0,2.9-2.6,5.3-5.7,5.3h-26.4c-3.1,0-5.7-2.4-5.7-5.3v-24
			c0-2.8,0.8-5.4,2.1-7.7c-2.3,2.9-3.7,6.5-3.7,10.4v26c0,3.1,2.8,5.7,6.2,5.7h28.6c3.4,0,6.2-2.6,6.2-5.7v-26
			C168.3,208.5,166.9,204.9,164.6,201.9z"/>
		<path class="st15" d="M147.8,231.1c-7.1,0-14.3-0.6-21.4-1.9l-1.1-0.2c-0.4-0.1-0.7-0.2-1-0.5c-0.9-0.1-1.7-0.9-1.7-1.8v-15.3
			c0-0.3,0-0.5,0-0.7l0.1-2.8c0-0.5,0.3-1,0.7-1.3c0.3-0.3,0.8-0.4,1.2-0.4c0.1,0,0.2,0,0.3,0l3.1,0.5c6.5,1.1,13.1,1.7,19.6,1.7
			s13.1-0.6,19.5-1.7l3.2-0.6c0.1,0,0.2,0,0.4,0c0.4,0,0.9,0.1,1.2,0.4c0.4,0.3,0.7,0.8,0.7,1.3l0.1,2.8c0,0.2,0,0.5,0,0.7v15.3
			c0,0.9-0.7,1.6-1.7,1.8c-0.3,0.2-0.6,0.4-1,0.5l-1.1,0.2C162.1,230.4,155,231.1,147.8,231.1z"/>
		<path class="st15" d="M147.8,229.3c-7,0-14.1-0.6-21-1.8l-1.1-0.2l0.1-0.5h-1.2v-15.3c0-0.2,0-0.4,0-0.7l0.1-2.8l3.1,0.5
			c6.6,1.2,13.3,1.7,19.9,1.7s13.3-0.6,19.9-1.7l3.2-0.6l0.1,2.8c0,0.2,0,0.4,0,0.6v15.3h-1.2l0.1,0.5l-1.1,0.2
			C161.9,228.7,154.8,229.3,147.8,229.3z"/>
		<path class="st15" d="M147.8,228.3c-6.9,0-13.9-0.6-20.8-1.8l0.2-0.7h-1.5v-14.3c0-0.2,0-0.4,0-0.6l0.1-1.6l1.9,0.3
			c6.6,1.2,13.4,1.8,20.1,1.8s13.5-0.6,20.1-1.8l1.9-0.3l0.1,1.7c0,0.2,0,0.4,0,0.6v14.3h-1.5l0.2,0.7
			C161.8,227.7,154.8,228.3,147.8,228.3z"/>
		<path class="st9" d="M168.3,210.8c-13.5,2.4-27.4,2.4-40.9,0c0,0.2,0,0.4,0,0.6v1.7V224v1.7c0-0.2,0-0.4,0-0.6
			c13.5,2.4,27.4,2.4,40.9,0c0,0.2,0,0.4,0,0.6V224v-10.9v-1.7C168.3,211.2,168.3,211,168.3,210.8z"/>
	</g>
	<g>
		<path class="st15" d="M219.8,206.2c-0.5,0-1,0-1.5-0.1c-1.6-0.2-3.1-0.4-4.7-0.4c-1.6,0-3.2,0.1-4.7,0.4c-0.5,0.1-1,0.1-1.5,0.1
			c-4.5,0-8.1-3.1-8.1-7v-10.1c0-3.3,2.6-6.1,6.3-6.8c2.6-0.5,5.3-0.8,8-0.8s5.4,0.3,8,0.8c3.7,0.7,6.3,3.6,6.3,6.8v10.1
			c0,1.9-0.9,3.8-2.5,5.1C223.9,205.5,221.9,206.2,219.8,206.2z"/>
		<path class="st15" d="M219.8,204.4c-0.4,0-0.8,0-1.1-0.1c-1.7-0.3-3.4-0.4-5-0.4c-1.7,0-3.4,0.1-5,0.4c-0.4,0.1-0.8,0.1-1.1,0.1
			c-3.4,0-6.2-2.3-6.2-5.2v-10.1c0-2.4,2-4.5,4.8-5.1c2.5-0.5,5-0.7,7.6-0.7c2.5,0,5.1,0.2,7.6,0.7c2.8,0.6,4.8,2.7,4.8,5.1v10.1
			c0,1.4-0.7,2.8-1.9,3.7C222.9,203.9,221.4,204.4,219.8,204.4z"/>
		<path class="st35" d="M220.6,186.3c-4.6-0.9-9.3-0.9-13.9,0c-1.6,0.3-2.7,1.5-2.7,2.8v10.1c0,1.8,2,3.1,4.1,2.8
			c3.7-0.6,7.4-0.6,11.1,0c2.1,0.3,4.1-1,4.1-2.8v-10.1C223.2,187.8,222.1,186.7,220.6,186.3z"/>
		<path class="st9" d="M220.6,186.3c-4.6-0.9-9.3-0.9-13.9,0c-1.6,0.3-2.7,1.5-2.7,2.8v1.4c0-1.3,1.1-2.5,2.7-2.8
			c4.6-0.9,9.3-0.9,13.9,0c1.6,0.3,2.7,1.5,2.7,2.8v-1.4C223.2,187.8,222.1,186.7,220.6,186.3z"/>
		<path class="st15" d="M199.7,248.3c-6.2,0-11.2-4.3-11.2-9.5v-27.3c0-11.6,11.3-21,25.2-21s25.2,9.4,25.2,21v27.3
			c0,5.3-5,9.5-11.2,9.5H199.7z"/>
		<path class="st15" d="M199.7,246.5c-5.1,0-9.3-3.5-9.3-7.8v-27.3c0-10.6,10.4-19.3,23.2-19.3c12.8,0,23.2,8.6,23.2,19.3v27.3
			c0,4.3-4.2,7.8-9.3,7.8H199.7z"/>
		<path class="st35" d="M228.2,244.1h-29.1c-3.3,0-5.9-2.7-5.9-5.9v-25.1c0-10.3,8.3-18.6,18.6-18.6h3.8c10.3,0,18.6,8.3,18.6,18.6
			v25.1C234.1,241.5,231.4,244.1,228.2,244.1z"/>
		<path class="st31" d="M230.4,201.9c1.3,2.3,2.1,4.9,2.1,7.7v24c0,2.9-2.6,5.3-5.7,5.3h-26.4c-3.1,0-5.7-2.4-5.7-5.3v-24
			c0-2.8,0.8-5.4,2.1-7.7c-2.3,2.9-3.7,6.5-3.7,10.4v26c0,3.1,2.8,5.7,6.2,5.7h28.6c3.4,0,6.2-2.6,6.2-5.7v-26
			C234.1,208.5,232.7,204.9,230.4,201.9z"/>
		<path class="st15" d="M213.6,231.1c-7.1,0-14.3-0.6-21.4-1.9l-1.1-0.2c-0.4-0.1-0.7-0.2-1-0.5c-0.9-0.1-1.7-0.9-1.7-1.8v-15.3
			c0-0.3,0-0.5,0-0.7l0.1-2.8c0-0.5,0.3-1,0.7-1.3c0.3-0.3,0.8-0.4,1.2-0.4c0.1,0,0.2,0,0.3,0l3.1,0.5c6.5,1.1,13.1,1.7,19.6,1.7
			s13.1-0.6,19.5-1.7l3.2-0.6c0.1,0,0.2,0,0.4,0c0.4,0,0.9,0.1,1.2,0.4c0.4,0.3,0.7,0.8,0.7,1.3l0.1,2.8c0,0.2,0,0.5,0,0.7v15.3
			c0,0.9-0.7,1.6-1.7,1.8c-0.3,0.2-0.6,0.4-1,0.5l-1.1,0.2C227.9,230.4,220.8,231.1,213.6,231.1z"/>
		<path class="st15" d="M213.6,229.3c-7,0-14.1-0.6-21-1.8l-1.1-0.2l0.1-0.5h-1.2v-15.3c0-0.2,0-0.4,0-0.7l0.1-2.8l3.1,0.5
			c6.6,1.2,13.3,1.7,19.9,1.7c6.6,0,13.3-0.6,19.9-1.7l3.2-0.6l0.1,2.8c0,0.2,0,0.4,0,0.6v15.3h-1.2l0.1,0.5l-1.1,0.2
			C227.7,228.7,220.6,229.3,213.6,229.3z"/>
		<path class="st15" d="M213.6,228.3c-6.9,0-13.9-0.6-20.8-1.8l0.2-0.7h-1.5v-14.3c0-0.2,0-0.4,0-0.6l0.1-1.6l1.9,0.3
			c6.6,1.2,13.4,1.8,20.1,1.8c6.7,0,13.5-0.6,20.1-1.8l1.9-0.3l0.1,1.7c0,0.2,0,0.4,0,0.6v14.3h-1.5l0.2,0.7
			C227.6,227.7,220.6,228.3,213.6,228.3z"/>
		<path class="st9" d="M234.1,210.8c-13.5,2.4-27.4,2.4-40.9,0c0,0.2,0,0.4,0,0.6v1.7V224v1.7c0-0.2,0-0.4,0-0.6
			c13.5,2.4,27.4,2.4,40.9,0c0,0.2,0,0.4,0,0.6V224v-10.9v-1.7C234.1,211.2,234.1,211,234.1,210.8z"/>
	</g>
	<g>
		<g>
			<path class="st15" d="M108.8,49.1c-0.8-1.2-2.1-1.9-3.5-1.9c-0.6,0-1.1,0.1-1.6,0.4c-1.9,0.8-3.8,1.7-5.7,2.6
				c-1.4-1.2-2.7-2.4-4-3.5c-0.8-0.7-1.7-1-2.7-1s-2,0.4-2.7,1.1c-0.8,0.8-1.7,1.6-2.6,2.4c-1.2-1-2.4-2-3.5-3c-0.7-0.6-1.7-1-2.6-1
				c-1,0-1.9,0.3-2.6,1c-1.3,1.1-2.4,2.1-3.6,3c-0.9-0.8-1.8-1.6-2.6-2.4c-0.7-0.7-1.7-1.1-2.7-1.1s-2,0.4-2.7,1
				c-1.2,1.1-2.6,2.3-4,3.5c-2-0.9-3.9-1.7-5.7-2.6c-0.5-0.2-1.1-0.4-1.6-0.4c-1.4,0-2.7,0.7-3.5,1.9c-0.6,1-0.8,2.2-0.5,3.3
				c0.4,1.4,0.8,2.8,1.2,4.2c0.4,1.3,1.5,2.3,2.8,2.7c7.5,1.8,15.6,3.8,24.6,5.9c0.3,0.1,0.6,0.1,1,0.1c0.3,0,0.6,0,1-0.1
				c9-2.1,17.1-4,24.7-5.9c1.4-0.3,2.4-1.3,2.8-2.7s0.8-2.8,1.2-4.2C109.6,51.3,109.4,50.1,108.8,49.1z"/>
			<path class="st9" d="M96.7,52.7c-1.5-1.3-3.1-2.7-4.6-4c-0.6-0.5-1.4-0.5-1.9,0c-1.1,1.1-2.2,2.1-3.4,3.2c-0.5,0.5-1.3,0.5-1.9,0
				c-1.5-1.2-2.9-2.5-4.4-3.7c-0.5-0.4-1.3-0.4-1.8,0c-1.4,1.2-2.9,2.5-4.4,3.7c-0.5,0.5-1.4,0.4-1.9,0c-1.2-1.1-2.3-2.1-3.4-3.2
				c-0.5-0.5-1.3-0.5-1.9,0c-1.5,1.3-3,2.7-4.6,4c-0.4,0.4-1.1,0.5-1.6,0.3c-2.2-1-4.3-1.9-6.4-2.9c-1-0.5-2.3,0.5-2.1,1.6
				c0.4,1.4,0.8,2.8,1.2,4.1c0.1,0.4,0.4,0.7,0.9,0.8c8,2,16.3,3.9,24.6,5.9c0.2,0.1,0.5,0.1,0.7,0c8.4-2,16.6-3.9,24.6-5.9
				c0.4-0.1,0.8-0.4,0.9-0.8c0.4-1.4,0.8-2.8,1.2-4.1c0.3-1.1-1-2.1-2.1-1.6c-2.1,1-4.2,1.9-6.4,2.9C97.7,53.2,97.1,53,96.7,52.7z"
				/>
			<path class="st15" d="M108,57.3l-0.3-2.3h-56l-0.3,2.3c-1.6,13.8-1.4,27.8,0.5,41.6l0.3,2.2h54.9l0.3-2.2
				C109.4,85.1,109.6,71.1,108,57.3z"/>
			<path class="st30" d="M104.8,98.6c-16.7,0-33.5,0-50.2,0c-1.9-13.6-2.1-27.4-0.5-41c17.1,0,34.1,0,51.2,0
				C106.9,71.2,106.7,85,104.8,98.6z"/>
			<path class="st36" d="M105.3,57.6c-0.2,0-0.5,0-0.7,0c1.2,9.9-2,20.8-3.8,30.9c-0.4,2.1-2.4,3.7-4.7,3.7c-10.9,0-21.8,0-32.7,0
				c-2.3,0-4.3-1.5-4.7-3.6c-1.9-10.1-5.7-21.1-4.5-31c-1.6,13.6-1.4,27.4,0.5,41c16.7,0,33.5,0,50.2,0
				C106.7,85,106.9,71.2,105.3,57.6z"/>
		</g>
		<path class="st15" d="M79.6,65.2c-9,0-16.6,5.2-16.7,11.4C63,82.8,70.6,88,79.6,88l0,0c9,0,16.6-5.2,16.7-11.4
			C96.2,70.4,88.6,65.2,79.6,65.2z"/>
		<path class="st9" d="M93.6,76.6c-0.1,4.9-6.8,8.8-14,8.8s-13.9-3.9-14-8.8c0.1-4.9,6.8-8.8,14-8.8C86.8,67.7,93.5,71.7,93.6,76.6z
			"/>
	</g>
	<g>
		<g>
			<path class="st15" d="M173.1,49.1c-0.8-1.2-2.1-1.9-3.5-1.9c-0.6,0-1.1,0.1-1.6,0.4c-1.9,0.8-3.8,1.7-5.7,2.6
				c-1.4-1.2-2.7-2.4-4-3.5c-0.8-0.7-1.7-1-2.7-1s-2,0.4-2.7,1.1c-0.8,0.8-1.7,1.6-2.6,2.4c-1.2-1-2.4-2.1-3.5-3
				c-0.7-0.6-1.7-1-2.6-1c-1,0-1.9,0.3-2.6,1c-1.3,1.1-2.4,2.1-3.6,3c-0.9-0.8-1.8-1.6-2.6-2.4c-0.7-0.7-1.7-1.1-2.7-1.1
				s-2,0.4-2.7,1c-1.3,1.1-2.6,2.3-4,3.5c-2-0.9-3.9-1.7-5.7-2.6c-0.5-0.2-1.1-0.4-1.6-0.4c-1.4,0-2.7,0.7-3.5,1.9
				c-0.6,1-0.8,2.2-0.5,3.3c0.4,1.4,0.8,2.8,1.2,4.2c0.4,1.3,1.5,2.3,2.8,2.7c7.5,1.8,15.6,3.8,24.7,5.9c0.3,0.1,0.6,0.1,1,0.1
				c0.3,0,0.6,0,1-0.1c9.1-2.1,17.1-4,24.7-5.9c1.4-0.3,2.4-1.3,2.8-2.7s0.8-2.8,1.2-4.2C173.9,51.3,173.7,50.1,173.1,49.1z"/>
			<path class="st9" d="M161,52.7c-1.5-1.3-3.1-2.7-4.6-4c-0.6-0.5-1.4-0.5-1.9,0c-1.1,1.1-2.2,2.1-3.4,3.2c-0.5,0.5-1.3,0.5-1.9,0
				c-1.5-1.2-2.9-2.5-4.4-3.7c-0.5-0.4-1.3-0.4-1.8,0c-1.4,1.2-2.9,2.5-4.4,3.7c-0.5,0.5-1.4,0.4-1.9,0c-1.2-1.1-2.3-2.1-3.4-3.2
				c-0.5-0.5-1.3-0.5-1.9,0c-1.5,1.3-3,2.7-4.6,4c-0.4,0.4-1.1,0.5-1.6,0.3c-2.2-1-4.3-1.9-6.4-2.9c-1-0.5-2.3,0.5-2.1,1.6
				c0.4,1.4,0.8,2.8,1.2,4.1c0.1,0.4,0.4,0.7,0.9,0.8c8,2,16.3,3.9,24.6,5.9c0.2,0.1,0.5,0.1,0.7,0c8.4-2,16.6-3.9,24.6-5.9
				c0.4-0.1,0.8-0.4,0.9-0.8c0.4-1.4,0.8-2.8,1.2-4.1c0.3-1.1-1-2.1-2.1-1.6c-2.1,1-4.2,1.9-6.4,2.9C162.1,53.2,161.4,53,161,52.7z"
				/>
			<path class="st15" d="M172.3,57.3L172,55h-56l-0.3,2.3c-1.6,13.8-1.4,27.8,0.5,41.6l0.3,2.2h54.9l0.3-2.2
				C173.8,85.1,173.9,71.1,172.3,57.3z"/>
			<path class="st33" d="M169.2,98.6c-16.7,0-33.5,0-50.2,0c-1.9-13.6-2.1-27.4-0.5-41c17.1,0,34.1,0,51.2,0
				C171.2,71.2,171.1,85,169.2,98.6z"/>
			<path class="st34" d="M169.6,57.6c-0.2,0-0.5,0-0.7,0c1.2,9.9-2,20.8-3.8,30.9c-0.4,2.1-2.4,3.7-4.7,3.7c-10.9,0-21.8,0-32.7,0
				c-2.3,0-4.3-1.5-4.7-3.6c-1.9-10.1-5.7-21.1-4.5-31c-1.6,13.6-1.4,27.4,0.5,41c16.7,0,33.5,0,50.2,0
				C171.1,85,171.2,71.2,169.6,57.6z"/>
		</g>
		<path class="st15" d="M143.9,65.2c-9,0-16.6,5.2-16.7,11.4c0.1,6.2,7.7,11.4,16.7,11.4l0,0c9,0,16.6-5.2,16.7-11.4
			C160.5,70.4,152.9,65.2,143.9,65.2z"/>
		<path class="st9" d="M157.9,76.6c-0.1,4.9-6.8,8.8-14,8.8s-13.9-3.9-14-8.8c0.1-4.9,6.8-8.8,14-8.8
			C151.2,67.7,157.9,71.7,157.9,76.6z"/>
	</g>
	<g>
		<g>
			<path class="st15" d="M237.4,49.1c-0.8-1.2-2.1-1.9-3.5-1.9c-0.6,0-1.1,0.1-1.6,0.4c-1.9,0.8-3.8,1.7-5.7,2.6
				c-1.4-1.2-2.7-2.4-4-3.5c-0.8-0.7-1.7-1-2.7-1s-2,0.4-2.7,1.1c-0.8,0.8-1.7,1.6-2.6,2.4c-1.2-1-2.4-2-3.5-3c-0.7-0.6-1.7-1-2.6-1
				c-1,0-1.9,0.3-2.6,1c-1.3,1.1-2.4,2.1-3.6,3c-0.9-0.8-1.7-1.6-2.6-2.4c-0.7-0.7-1.7-1.1-2.7-1.1s-2,0.4-2.7,1
				c-1.3,1.1-2.6,2.3-4,3.5c-2-0.9-3.9-1.7-5.7-2.6c-0.5-0.2-1.1-0.4-1.6-0.4c-1.4,0-2.7,0.7-3.5,1.9c-0.6,1-0.8,2.2-0.5,3.3
				c0.4,1.4,0.8,2.8,1.2,4.2c0.4,1.3,1.5,2.3,2.8,2.7c7.5,1.8,15.6,3.8,24.7,5.9c0.3,0.1,0.6,0.1,1,0.1c0.3,0,0.6,0,1-0.1
				c9-2.1,17.1-4,24.7-5.9c1.4-0.3,2.4-1.3,2.8-2.7c0.4-1.4,0.8-2.9,1.2-4.2C238.3,51.3,238.1,50.1,237.4,49.1z"/>
			<path class="st9" d="M225.3,52.7c-1.5-1.3-3.1-2.7-4.6-4c-0.6-0.5-1.4-0.5-1.9,0c-1.1,1.1-2.2,2.1-3.4,3.2
				c-0.5,0.5-1.3,0.5-1.9,0c-1.5-1.2-2.9-2.5-4.4-3.7c-0.5-0.4-1.3-0.4-1.8,0c-1.4,1.2-2.9,2.5-4.4,3.7c-0.5,0.5-1.4,0.4-1.9,0
				c-1.2-1.1-2.3-2.1-3.4-3.2c-0.5-0.5-1.3-0.5-1.9,0c-1.5,1.3-3,2.7-4.6,4c-0.4,0.4-1.1,0.5-1.6,0.3c-2.2-1-4.3-1.9-6.4-2.9
				c-1-0.5-2.3,0.5-2.1,1.6c0.4,1.4,0.8,2.8,1.2,4.1c0.1,0.4,0.4,0.7,0.9,0.8c8,2,16.3,3.9,24.6,5.9c0.2,0.1,0.5,0.1,0.7,0
				c8.4-2,16.6-3.9,24.6-5.9c0.4-0.1,0.8-0.4,0.9-0.8c0.4-1.4,0.8-2.8,1.2-4.1c0.3-1.1-1-2.1-2.1-1.6c-2.1,1-4.2,1.9-6.4,2.9
				C226.4,53.2,225.8,53,225.3,52.7z"/>
			<path class="st15" d="M180.9,101.1l-0.3-2.2c-1.9-13.8-2.1-27.8-0.5-41.6l0.3-2.3h56l0.3,2.3c1.6,13.8,1.4,27.8-0.5,41.6
				l-0.3,2.2L180.9,101.1L180.9,101.1z"/>
			<path class="st15" d="M181.9,100.1l-0.2-1.3c-1.9-13.7-2.1-27.6-0.5-41.4l0.2-1.4h54l0.2,1.4c1.6,13.7,1.4,27.7-0.5,41.4
				l-0.2,1.3L181.9,100.1L181.9,100.1z"/>
			<path class="st35" d="M233.5,98.6c-16.7,0-33.5,0-50.2,0c-1.9-13.6-2.1-27.4-0.5-41c17.1,0,34.1,0,51.2,0
				C235.6,71.2,235.4,85,233.5,98.6z"/>
			<path class="st31" d="M234,57.6c-0.2,0-0.5,0-0.7,0c1.2,9.9-2,20.8-3.8,30.9c-0.4,2.1-2.4,3.7-4.7,3.7c-10.9,0-21.8,0-32.7,0
				c-2.3,0-4.3-1.5-4.7-3.6c-1.9-10.1-5.7-21.1-4.5-31c-1.6,13.6-1.4,27.4,0.5,41c16.7,0,33.5,0,50.2,0
				C235.4,85,235.6,71.2,234,57.6z"/>
		</g>
		<path class="st15" d="M208.3,65.2c-9,0-16.6,5.2-16.7,11.4c0.1,6.2,7.7,11.4,16.7,11.4l0,0c9,0,16.6-5.2,16.7-11.4
			C224.9,70.4,217.2,65.2,208.3,65.2z"/>
		<path class="st9" d="M222.3,76.6c-0.1,4.9-6.8,8.8-14,8.8s-13.9-3.9-14-8.8c0.1-4.9,6.8-8.8,14-8.8
			C215.5,67.7,222.2,71.7,222.3,76.6z"/>
	</g>
	<g>
		<path class="st15" d="M85.1,315.6c-11.8,0-17.7-1.6-19-5.2l-2-3.2c-1.1-0.4-1.9-1.4-1.9-2.6v-34.1c0-0.5,0.1-1,0.4-1.4l4.5-7
			c0.5-0.9,1.5-1.4,2.6-1.4h30.9c1.1,0,2.1,0.5,2.6,1.4l4.4,7c0.3,0.4,0.4,0.9,0.4,1.4v31.4c0,0.2,0,0.4-0.1,0.6l-0.7,2.9
			c-0.1,0.3-0.2,0.5-0.3,0.8l-2.9,4.6C102.4,314.1,96.5,315.6,85.1,315.6z"/>
		<path class="st15" d="M85.1,313.8c-10.6,0-16.4-1.4-17.2-4.1l-2.6-4h-0.1c-0.6,0-1.1-0.5-1.1-1v-34.2c0-0.2,0.1-0.4,0.2-0.5l4.5-7
			c0.2-0.3,0.6-0.5,0.9-0.5h30.9c0.4,0,0.8,0.2,0.9,0.5l4.4,7c0.1,0.2,0.1,0.3,0.1,0.5v31.4c0,0.1,0,0.2,0,0.2l-0.7,2.9
			c0,0.1-0.1,0.2-0.1,0.3l-3,4.7C101.1,312.5,95.3,313.8,85.1,313.8z"/>
		<path class="st33" d="M103.4,303.2v-32.4l-3.8-6H70.7l-3.8,6v32.5H67l3.6,5.6c0,0,0,0,0,0.1c0,1.3,6.5,2.4,14.6,2.4
			c8,0,14.4-1.1,14.6-2.4l3.7-5.7l0,0v-0.1H103.4L103.4,303.2z"/>
		<path class="st15" d="M85.1,271.6c-8.3,0-19.3-0.7-19.3-6.6s11-6.6,19.3-6.6s19.3,0.7,19.3,6.6S93.4,271.6,85.1,271.6z"/>
		<path class="st15" d="M85.1,269.8c-11.5,0-17.3-1.6-17.3-4.8c0-3.2,5.8-4.8,17.3-4.8s17.3,1.6,17.3,4.8
			C102.5,268.2,96.6,269.8,85.1,269.8z"/>
		<ellipse class="st37" cx="85.1" cy="265" rx="14.6" ry="2.4"/>
		<ellipse class="st38" cx="81.9" cy="265" rx="11.4" ry="1.9"/>
		<path class="st15" d="M65.3,304.7l3.8,5.3l1.3-0.9l-3.9-6.5l-1.4,1.6C65.2,304.1,65,304.5,65.3,304.7z"/>
		<g>
			<path class="st15" d="M65.2,304c-0.7,0-1.3-0.2-1.9-0.6c-0.7-0.5-1.2-1.3-1.2-2.2v-18.4c0-1.3,0.9-2.4,2.3-2.7l39.9-9.5
				c0.3-0.1,0.5-0.1,0.8-0.1c0.7,0,1.3,0.2,1.9,0.6c0.7,0.5,1.2,1.4,1.2,2.2v19.1c0,1.3-1,2.4-2.3,2.7L66,303.9
				C65.6,304,65.4,304,65.2,304z"/>
			<path class="st15" d="M65.2,302.2c-0.2,0-0.5-0.1-0.7-0.2c-0.3-0.2-0.4-0.5-0.4-0.8v-18.4c0-0.5,0.3-0.9,0.8-1l39.9-9.5
				c0.1,0,0.2,0,0.3,0c0.2,0,0.5,0.1,0.7,0.2c0.3,0.2,0.4,0.5,0.4,0.8v19.1c0,0.5-0.3,0.9-0.8,1l-39.9,8.8
				C65.3,302.2,65.2,302.2,65.2,302.2z"/>
			<polygon class="st38" points="66.8,283.7 66.8,299.2 103.4,291.5 103.4,275.3 			"/>
		</g>
		<ellipse class="st38" cx="79.8" cy="264.8" rx="4.6" ry="1.2"/>
	</g>
	<g>
		<path class="st15" d="M145.6,315.6c-11.8,0-17.7-1.6-19-5.2l-2-3.2c-1.1-0.4-1.9-1.4-1.9-2.6v-34.1c0-0.5,0.1-1,0.4-1.4l4.5-7
			c0.5-0.9,1.5-1.4,2.6-1.4h30.9c1.1,0,2.1,0.5,2.6,1.4l4.4,7c0.3,0.4,0.4,0.9,0.4,1.4v31.4c0,0.2,0,0.4-0.1,0.6l-0.7,2.9
			c-0.1,0.3-0.2,0.5-0.3,0.8l-2.9,4.6C162.9,314.1,157.1,315.6,145.6,315.6z"/>
		<path class="st15" d="M145.6,313.8c-10.6,0-16.4-1.4-17.2-4.1l-2.6-4h-0.1c-0.6,0-1.1-0.5-1.1-1v-34.2c0-0.2,0.1-0.4,0.2-0.5
			l4.5-7c0.2-0.3,0.6-0.5,0.9-0.5h30.9c0.4,0,0.8,0.2,0.9,0.5l4.4,7c0.1,0.2,0.1,0.3,0.1,0.5v31.4c0,0.1,0,0.2,0,0.2l-0.7,2.9
			c0,0.1-0.1,0.2-0.1,0.3l-3,4.7C161.7,312.5,155.9,313.8,145.6,313.8z"/>
		<path class="st35" d="M163.9,303.2v-32.4l-3.8-6h-28.9l-3.8,6v32.5h0.1l3.6,5.6c0,0,0,0,0,0.1c0,1.3,6.5,2.4,14.6,2.4
			c8,0,14.4-1.1,14.6-2.4l3.7-5.7l0,0v-0.1H163.9L163.9,303.2z"/>
		<path class="st15" d="M145.7,271.6c-8.3,0-19.3-0.7-19.3-6.6s11-6.6,19.3-6.6s19.3,0.7,19.3,6.6C165,270.9,154,271.6,145.7,271.6z
			"/>
		<path class="st15" d="M145.7,269.8c-11.5,0-17.3-1.6-17.3-4.8c0-3.2,5.8-4.8,17.3-4.8s17.3,1.6,17.3,4.8
			C163,268.2,157.2,269.8,145.7,269.8z"/>
		<ellipse class="st37" cx="145.7" cy="265" rx="14.6" ry="2.4"/>
		<ellipse class="st38" cx="142.4" cy="265" rx="11.4" ry="1.9"/>
		<path class="st15" d="M125.9,304.7l3.8,5.3l1.3-0.9l-3.9-6.5l-1.4,1.6C125.7,304.1,125.5,304.5,125.9,304.7z"/>
		<g>
			<path class="st15" d="M125.7,304c-0.7,0-1.3-0.2-1.9-0.6c-0.7-0.5-1.2-1.3-1.2-2.2v-18.4c0-1.3,0.9-2.4,2.3-2.7l39.9-9.5
				c0.3-0.1,0.5-0.1,0.8-0.1c0.7,0,1.3,0.2,1.9,0.6c0.7,0.5,1.2,1.4,1.2,2.2v19.1c0,1.3-1,2.4-2.3,2.7l-39.9,8.8
				C126.2,304,125.9,304,125.7,304z"/>
			<path class="st15" d="M125.7,302.2c-0.2,0-0.5-0.1-0.7-0.2c-0.3-0.2-0.4-0.5-0.4-0.8v-18.4c0-0.5,0.3-0.9,0.8-1l39.9-9.5
				c0.1,0,0.2,0,0.3,0c0.2,0,0.5,0.1,0.7,0.2c0.3,0.2,0.4,0.5,0.4,0.8v19.1c0,0.5-0.3,0.9-0.8,1l-39.9,8.8
				C125.9,302.2,125.8,302.2,125.7,302.2z"/>
			<polygon class="st38" points="127.3,283.7 127.3,299.2 163.9,291.5 163.9,275.3 			"/>
		</g>
	</g>
	<g>
		<path class="st15" d="M206.2,315.6c-11.8,0-17.7-1.6-19-5.2l-2-3.2c-1.1-0.4-1.9-1.4-1.9-2.6v-34.1c0-0.5,0.1-1,0.4-1.4l4.5-7
			c0.5-0.9,1.5-1.4,2.6-1.4h30.9c1.1,0,2.1,0.5,2.6,1.4l4.4,7c0.3,0.4,0.4,0.9,0.4,1.4v31.4c0,0.2,0,0.4-0.1,0.6l-0.7,2.9
			c-0.1,0.3-0.2,0.5-0.3,0.8l-2.9,4.6C223.5,314.1,217.6,315.6,206.2,315.6z"/>
		<path class="st15" d="M206.2,313.8c-10.6,0-16.4-1.4-17.2-4.1l-2.6-4h-0.1c-0.6,0-1.1-0.5-1.1-1v-34.2c0-0.2,0.1-0.4,0.2-0.5
			l4.5-7c0.2-0.3,0.6-0.5,0.9-0.5h30.9c0.4,0,0.8,0.2,0.9,0.5l4.4,7c0.1,0.2,0.1,0.3,0.1,0.5v31.4c0,0.1,0,0.2,0,0.2l-0.7,2.9
			c0,0.1-0.1,0.2-0.1,0.3l-3,4.7C222.2,312.5,216.4,313.8,206.2,313.8z"/>
		<path class="st30" d="M224.5,303.2v-32.4l-3.8-6h-28.9l-3.8,6v32.5h0.1l3.6,5.6c0,0,0,0,0,0.1c0,1.3,6.5,2.4,14.6,2.4
			c8,0,14.4-1.1,14.6-2.4l3.7-5.7l0,0v-0.1H224.5L224.5,303.2z"/>
		<path class="st15" d="M206.2,271.6c-8.3,0-19.3-0.7-19.3-6.6s11-6.6,19.3-6.6s19.3,0.7,19.3,6.6S214.5,271.6,206.2,271.6z"/>
		<path class="st15" d="M206.2,269.8c-11.5,0-17.3-1.6-17.3-4.8c0-3.2,5.8-4.8,17.3-4.8s17.3,1.6,17.3,4.8
			C223.6,268.2,217.7,269.8,206.2,269.8z"/>
		<ellipse class="st37" cx="206.2" cy="265" rx="14.6" ry="2.4"/>
		<ellipse class="st38" cx="203" cy="265" rx="11.4" ry="1.9"/>
		<path class="st15" d="M186.4,304.7l3.8,5.3l1.3-0.9l-3.9-6.5l-1.4,1.6C186.2,304.1,186.1,304.5,186.4,304.7z"/>
		<g>
			<path class="st15" d="M186.2,304c-0.7,0-1.3-0.2-1.9-0.6c-0.7-0.5-1.2-1.3-1.2-2.2v-18.4c0-1.3,0.9-2.4,2.3-2.7l39.9-9.5
				c0.3-0.1,0.5-0.1,0.8-0.1c0.7,0,1.3,0.2,1.9,0.6c0.7,0.5,1.2,1.4,1.2,2.2v19.1c0,1.3-1,2.4-2.3,2.7l-39.9,8.8
				C186.7,304,186.5,304,186.2,304z"/>
			<path class="st15" d="M186.2,302.2c-0.2,0-0.5-0.1-0.7-0.2c-0.3-0.2-0.4-0.5-0.4-0.8v-18.4c0-0.5,0.3-0.9,0.8-1l39.9-9.5
				c0.1,0,0.2,0,0.3,0c0.2,0,0.5,0.1,0.7,0.2c0.3,0.2,0.4,0.5,0.4,0.8v19.1c0,0.5-0.3,0.9-0.8,1l-39.9,8.8
				C186.4,302.2,186.3,302.2,186.2,302.2z"/>
			<polygon class="st38" points="187.9,283.7 187.9,299.2 224.5,291.5 224.5,275.3 			"/>
		</g>
	</g>
	<path class="st15" d="M252.7,397.2H34.9c-2.5,0-4.6-2-4.6-4.5v-32.2c0-2.5,2.1-4.5,4.6-4.5H256c2.5,0,4.6,2,4.6,4.5v29
		C260.6,393.8,257,397.2,252.7,397.2z"/>
	<path class="st15" d="M302.7,265.1c-12.6,0-22.9-9.5-22.9-21.1s10.3-21.1,22.9-21.1s22.9,9.5,22.9,21.1S315.3,265.1,302.7,265.1z"
		/>
	<ellipse class="st15" cx="302.7" cy="244" rx="20.9" ry="19.3"/>
	<path class="st29" d="M302.7,260.8c-10,0-18.2-7.5-18.2-16.8s8.2-16.8,18.2-16.8s18.2,7.5,18.2,16.8S312.7,260.8,302.7,260.8z"/>
	<path class="st39" d="M302.7,256.4c-9.2,0-16.9-6.4-18-14.6c-0.1,0.7-0.2,1.4-0.2,2.2c0,9.2,8.2,16.8,18.2,16.8s18.2-7.5,18.2-16.8
		c0-0.7-0.1-1.5-0.2-2.2C319.6,250.1,311.9,256.4,302.7,256.4z"/>
	<path class="st15" d="M106.1,461.8H65.4c-3.9,0-7.1-3.2-7.1-7.1v-13.4h54.9v13.4C113.2,458.7,110,461.8,106.1,461.8z"/>
	<path class="st15" d="M292.1,461.8h-40.7c-3.9,0-7.1-3.2-7.1-7.1v-13.4h54.9v13.4C299.1,458.7,296,461.8,292.1,461.8z"/>
	<rect x="299.9" y="231.9" class="st15" width="5.5" height="23.7"/>
	<g>
		<rect x="266" y="95.1" class="st15" width="26.7" height="24.7"/>
		<rect x="290" y="95.1" class="st15" width="26.7" height="24.7"/>
	</g>
	<path class="st15" d="M336,73h-19.2h-2.7h-21.3h-2.7h-19.2c-2.6,0-4.8,2-4.8,4.4v20.3h24h2.7h21.3v19.6h-21.3h-2.7h-24v47.4
		c0,1.5,1.3,2.7,3,2.7h21h2.7h21.3h2.7H336c2.6,0,4.8-2,4.8-4.4v-43.2v-2.5V97.7v-2.5V77.5C340.7,75,338.6,73,336,73z"/>
	<ellipse class="st40" cx="182.2" cy="17.2" rx="82.6" ry="3.9"/>
	<g>
		<path class="st41" d="M285.9,93.2h-12.1c-1.4,0-2.5-1.1-2.5-2.5V79.8c0-1.4,1.1-2.5,2.5-2.5h12.1c1.4,0,2.5,1.1,2.5,2.5v10.8
			C288.4,92.1,287.3,93.2,285.9,93.2z"/>
		<path class="st39" d="M286.6,77.6c0.5,0.4,0.7,0.9,0.7,1.5v9.6c0,1.2-1,2.1-2.3,2.1h-10.4c-1.3,0-2.3-1-2.3-2.1v-9.6
			c0-0.6,0.3-1.2,0.7-1.5c-1,0.3-1.8,1.2-1.8,2.3v11c0,1.3,1.2,2.4,2.6,2.4h11.9c1.4,0,2.6-1.1,2.6-2.4v-11
			C288.4,78.8,287.6,77.9,286.6,77.6z"/>
	</g>
	<g>
		<path class="st41" d="M309.9,93.2h-12.1c-1.4,0-2.5-1.1-2.5-2.5V79.8c0-1.4,1.1-2.5,2.5-2.5h12.1c1.4,0,2.5,1.1,2.5,2.5v10.8
			C312.4,92.1,311.3,93.2,309.9,93.2z"/>
		<path class="st39" d="M310.6,77.6c0.5,0.4,0.7,0.9,0.7,1.5v9.6c0,1.2-1,2.1-2.3,2.1h-10.4c-1.3,0-2.3-1-2.3-2.1v-9.6
			c0-0.6,0.3-1.2,0.7-1.5c-1,0.3-1.8,1.2-1.8,2.3v11c0,1.3,1.2,2.4,2.6,2.4h11.9c1.4,0,2.6-1.1,2.6-2.4v-11
			C312.4,78.8,311.6,77.9,310.6,77.6z"/>
	</g>
	<g>
		<path class="st41" d="M333.9,93.2h-12.1c-1.4,0-2.5-1.1-2.5-2.5V79.8c0-1.4,1.1-2.5,2.5-2.5h12.1c1.4,0,2.5,1.1,2.5,2.5v10.8
			C336.4,92.1,335.3,93.2,333.9,93.2z"/>
		<path class="st39" d="M334.6,77.6c0.5,0.4,0.7,0.9,0.7,1.5v9.6c0,1.2-1,2.1-2.3,2.1h-10.4c-1.3,0-2.3-1-2.3-2.1v-9.6
			c0-0.6,0.3-1.2,0.7-1.5c-1,0.3-1.8,1.2-1.8,2.3v11c0,1.3,1.2,2.4,2.6,2.4h11.9c1.4,0,2.6-1.1,2.6-2.4v-11
			C336.4,78.8,335.6,77.9,334.6,77.6z"/>
	</g>
	<g>
		<path class="st41" d="M285.9,115.2h-12.1c-1.4,0-2.5-1.1-2.5-2.5v-10.8c0-1.4,1.1-2.5,2.5-2.5h12.1c1.4,0,2.5,1.1,2.5,2.5v10.8
			C288.4,114,287.3,115.2,285.9,115.2z"/>
		<path class="st39" d="M286.6,99.5c0.5,0.4,0.7,0.9,0.7,1.5v9.6c0,1.2-1,2.1-2.3,2.1h-10.4c-1.3,0-2.3-1-2.3-2.1V101
			c0-0.6,0.3-1.2,0.7-1.5c-1,0.3-1.8,1.2-1.8,2.3v11c0,1.3,1.2,2.4,2.6,2.4h11.9c1.4,0,2.6-1.1,2.6-2.4v-11
			C288.4,100.7,287.6,99.8,286.6,99.5z"/>
	</g>
	<g>
		<path class="st41" d="M285.9,158.9h-12.1c-1.4,0-2.5-1.1-2.5-2.5v-10.8c0-1.4,1.1-2.5,2.5-2.5h12.1c1.4,0,2.5,1.1,2.5,2.5v10.8
			C288.4,157.8,287.3,158.9,285.9,158.9z"/>
		<path class="st39" d="M286.6,143.2c0.5,0.4,0.7,0.9,0.7,1.5v9.6c0,1.2-1,2.1-2.3,2.1h-10.4c-1.3,0-2.3-1-2.3-2.1v-9.6
			c0-0.6,0.3-1.2,0.7-1.5c-1,0.3-1.8,1.2-1.8,2.3v11c0,1.3,1.2,2.4,2.6,2.4h11.9c1.4,0,2.6-1.1,2.6-2.4v-11
			C288.4,144.4,287.6,143.5,286.6,143.2z"/>
	</g>
	<g>
		<path class="st41" d="M309.9,158.9h-12.1c-1.4,0-2.5-1.1-2.5-2.5v-10.8c0-1.4,1.1-2.5,2.5-2.5h12.1c1.4,0,2.5,1.1,2.5,2.5v10.8
			C312.4,157.8,311.3,158.9,309.9,158.9z"/>
		<path class="st39" d="M310.6,143.2c0.5,0.4,0.7,0.9,0.7,1.5v9.6c0,1.2-1,2.1-2.3,2.1h-10.4c-1.3,0-2.3-1-2.3-2.1v-9.6
			c0-0.6,0.3-1.2,0.7-1.5c-1,0.3-1.8,1.2-1.8,2.3v11c0,1.3,1.2,2.4,2.6,2.4h11.9c1.4,0,2.6-1.1,2.6-2.4v-11
			C312.4,144.4,311.6,143.5,310.6,143.2z"/>
	</g>
	<g>
		<path class="st41" d="M333.8,158.9h-12.1c-1.4,0-2.5-1.1-2.5-2.5v-10.8c0-1.4,1.1-2.5,2.5-2.5h12.1c1.4,0,2.5,1.1,2.5,2.5v10.8
			C336.3,157.8,335.2,158.9,333.8,158.9z"/>
		<path class="st39" d="M334.5,143.2c0.5,0.4,0.7,0.9,0.7,1.5v9.6c0,1.2-1,2.1-2.3,2.1h-10.4c-1.3,0-2.3-1-2.3-2.1v-9.6
			c0-0.6,0.3-1.2,0.7-1.5c-1,0.3-1.8,1.2-1.8,2.3v11c0,1.3,1.2,2.4,2.6,2.4h11.9c1.4,0,2.6-1.1,2.6-2.4v-11
			C336.3,144.4,335.5,143.5,334.5,143.2z"/>
	</g>
	<g>
		<path class="st41" d="M309.9,115.2h-12.1c-1.4,0-2.5-1.1-2.5-2.5v-10.8c0-1.4,1.1-2.5,2.5-2.5h12.1c1.4,0,2.5,1.1,2.5,2.5v10.8
			C312.4,114,311.3,115.2,309.9,115.2z"/>
		<path class="st39" d="M310.6,99.5c0.5,0.4,0.7,0.9,0.7,1.5v9.6c0,1.2-1,2.1-2.3,2.1h-10.4c-1.3,0-2.3-1-2.3-2.1V101
			c0-0.6,0.3-1.2,0.7-1.5c-1,0.3-1.8,1.2-1.8,2.3v11c0,1.3,1.2,2.4,2.6,2.4h11.9c1.4,0,2.6-1.1,2.6-2.4v-11
			C312.4,100.7,311.6,99.8,310.6,99.5z"/>
	</g>
	<g>
		<path class="st41" d="M333.9,115.2h-12.1c-1.4,0-2.5-1.1-2.5-2.5v-10.8c0-1.4,1.1-2.5,2.5-2.5h12.1c1.4,0,2.5,1.1,2.5,2.5v10.8
			C336.4,114,335.3,115.2,333.9,115.2z"/>
		<path class="st39" d="M334.6,99.5c0.5,0.4,0.7,0.9,0.7,1.5v9.6c0,1.2-1,2.1-2.3,2.1h-10.4c-1.3,0-2.3-1-2.3-2.1V101
			c0-0.6,0.3-1.2,0.7-1.5c-1,0.3-1.8,1.2-1.8,2.3v11c0,1.3,1.2,2.4,2.6,2.4h11.9c1.4,0,2.6-1.1,2.6-2.4v-11
			C336.4,100.7,335.6,99.8,334.6,99.5z"/>
	</g>
	<g>
		<path class="st41" d="M285.9,137h-12.1c-1.4,0-2.5-1.1-2.5-2.5v-10.8c0-1.4,1.1-2.5,2.5-2.5h12.1c1.4,0,2.5,1.1,2.5,2.5v10.8
			C288.4,136,287.3,137,285.9,137z"/>
		<path class="st39" d="M286.6,121.5c0.5,0.4,0.7,0.9,0.7,1.5v9.6c0,1.2-1,2.1-2.3,2.1h-10.4c-1.3,0-2.3-1-2.3-2.1V123
			c0-0.6,0.3-1.2,0.7-1.5c-1,0.3-1.8,1.2-1.8,2.3v11c0,1.3,1.2,2.4,2.6,2.4h11.9c1.4,0,2.6-1.1,2.6-2.4v-11
			C288.4,122.7,287.6,121.8,286.6,121.5z"/>
	</g>
	<g>
		<path class="st41" d="M309.9,137h-12.1c-1.4,0-2.5-1.1-2.5-2.5v-10.8c0-1.4,1.1-2.5,2.5-2.5h12.1c1.4,0,2.5,1.1,2.5,2.5v10.8
			C312.4,136,311.3,137,309.9,137z"/>
		<path class="st39" d="M310.6,121.5c0.5,0.4,0.7,0.9,0.7,1.5v9.6c0,1.2-1,2.1-2.3,2.1h-10.4c-1.3,0-2.3-1-2.3-2.1V123
			c0-0.6,0.3-1.2,0.7-1.5c-1,0.3-1.8,1.2-1.8,2.3v11c0,1.3,1.2,2.4,2.6,2.4h11.9c1.4,0,2.6-1.1,2.6-2.4v-11
			C312.4,122.7,311.6,121.8,310.6,121.5z"/>
	</g>
	<g>
		<path class="st41" d="M333.9,137h-12.1c-1.4,0-2.5-1.1-2.5-2.5v-10.8c0-1.4,1.1-2.5,2.5-2.5h12.1c1.4,0,2.5,1.1,2.5,2.5v10.8
			C336.4,136,335.3,137,333.9,137z"/>
		<path class="st39" d="M334.6,121.5c0.5,0.4,0.7,0.9,0.7,1.5v9.6c0,1.2-1,2.1-2.3,2.1h-10.4c-1.3,0-2.3-1-2.3-2.1V123
			c0-0.6,0.3-1.2,0.7-1.5c-1,0.3-1.8,1.2-1.8,2.3v11c0,1.3,1.2,2.4,2.6,2.4h11.9c1.4,0,2.6-1.1,2.6-2.4v-11
			C336.4,122.7,335.6,121.8,334.6,121.5z"/>
	</g>
	<g>
		<g>
			<g>
				<g>
					<path class="st15" d="M105.2,138.2c-0.9,0-1.7-0.2-2.5-0.5c-3.5-1.3-7.2-2.8-11.2-4.3c-0.7-0.3-1.3-0.6-1.9-1.1s-1-1-1.4-1.6
						c-2-3.3-3.8-6.3-5.4-9.2c-0.7-1.1-0.8-2.3-0.6-3.5c0.2-1,0.5-1.9,0.7-2.8c0.5-1.8,1.9-3.2,3.8-3.8c0.7-0.2,1.4-0.3,2.1-0.3
						c1.7,0,3.4,0.6,4.6,1.6c0.6,0.5,1.2,1.1,1.5,1.8c0.5,1,1.1,2.1,1.7,3.2c0.9-0.1,1.8-0.3,2.6-0.4c0.3-0.1,0.7-0.1,1-0.1
						c1.6,0,3.2,0.5,4.4,1.5c1.6,1.3,2.4,3.2,2,5.1c-0.1,0.6-0.2,1.1-0.3,1.7c1.3,0.4,2.5,0.9,3.8,1.3c0.8,0.3,1.5,0.7,2.1,1.2
						c2,1.6,2.7,4.1,1.7,6.2c-0.7,1.6-2.3,2.9-4.3,3.2c-1.1,0.2-2.3,0.4-3.4,0.6C106,138.2,105.6,138.2,105.2,138.2z"/>
					<path class="st33" d="M101.6,126.9c0.2-1.2,0.4-2.4,0.7-3.6c0.2-1-1.1-2.1-2.4-1.9c-1.4,0.2-2.9,0.4-4.4,0.6
						c-0.9,0.1-1.9-0.4-2.3-1.2c-0.8-1.5-1.6-3-2.3-4.5c-0.7-1.3-3.1-1.6-3.5-0.4c-0.2,0.9-0.5,1.8-0.7,2.7c-0.1,0.3,0,0.6,0.2,0.9
						c1.7,3,3.5,6,5.4,9.1c0.3,0.4,0.7,0.8,1.2,1c3.8,1.5,7.5,2.9,11.1,4.3c0.4,0.1,0.7,0.2,1.1,0.1c1.1-0.2,2.2-0.4,3.3-0.6
						c1.5-0.3,1.1-2.3-0.5-2.8c-1.8-0.6-3.6-1.2-5.4-1.9C102.1,128.5,101.5,127.6,101.6,126.9z"/>
					<path class="st15" d="M71.3,170.1c-1.7,0-3.4-0.6-4.6-1.6c-0.6-0.5-1.2-1.1-1.5-1.8c-0.5-1-1.1-2.1-1.7-3.2
						c-0.9,0.1-1.8,0.2-2.6,0.4c-0.3,0.1-0.7,0.1-1,0.1c-1.6,0-3.2-0.5-4.4-1.5c-1.6-1.3-2.4-3.2-2-5.1c0.1-0.6,0.2-1.1,0.3-1.7
						c-1.3-0.4-2.5-0.9-3.8-1.3c-0.8-0.3-1.5-0.7-2.1-1.2c-2-1.6-2.7-4.1-1.7-6.2c0.7-1.6,2.3-2.9,4.3-3.2c1.1-0.2,2.3-0.4,3.4-0.6
						c0.4-0.1,0.8-0.1,1.2-0.1c0.9,0,1.7,0.2,2.5,0.5c3.5,1.3,7.1,2.7,11.2,4.3c0.7,0.3,1.3,0.6,1.9,1.1s1.1,1,1.4,1.6
						c2,3.3,3.7,6.3,5.4,9.2c0.6,1.1,0.8,2.3,0.6,3.5c-0.2,1-0.5,2-0.7,2.8c-0.5,1.8-1.9,3.2-3.8,3.8
						C72.8,169.9,72,170.1,71.3,170.1z"/>
					<path class="st33" d="M58.6,154.2c-0.2,1.2-0.4,2.4-0.7,3.6c-0.2,1,1.1,2.1,2.4,1.9c1.4-0.2,2.9-0.4,4.4-0.6
						c0.9-0.1,1.9,0.4,2.3,1.2c0.8,1.5,1.6,3,2.3,4.5c0.7,1.3,3.1,1.6,3.5,0.4c0.2-0.9,0.5-1.8,0.7-2.7c0.1-0.3,0-0.6-0.2-0.9
						c-1.7-3-3.5-6-5.4-9.1c-0.3-0.4-0.7-0.8-1.2-1c-3.8-1.5-7.5-2.9-11.1-4.3c-0.4-0.1-0.7-0.2-1.1-0.1c-1.1,0.2-2.2,0.4-3.3,0.6
						c-1.5,0.3-1.1,2.3,0.5,2.8c1.8,0.6,3.6,1.2,5.4,1.9C58.1,152.7,58.8,153.5,58.6,154.2z"/>
					<path class="st15" d="M75.5,163.9c-0.5,0-0.9-0.2-1.3-0.4l-21.9-17.8c-0.4-0.3-0.6-0.8-0.7-1.3c0-0.5,0.2-1,0.5-1.3l1.8-1.7
						c8.6-8.3,18-16.2,28-23.5l1.9-1.3c0.4-0.3,0.8-0.4,1.2-0.4c0.5,0,0.9,0.1,1.3,0.4l22,17.9c0.4,0.3,0.6,0.8,0.7,1.3
						c0,0.5-0.2,1-0.5,1.3l-1.8,1.7c-8.6,8.3-18.1,16.2-28.1,23.4l-1.9,1.3C76.4,163.8,75.9,163.9,75.5,163.9z"/>
					<path class="st15" d="M53.6,144.3l1.8-1.7c8.5-8.3,17.9-16.1,27.8-23.3l1.9-1.3l22,17.9l-1.8,1.7c-8.6,8.3-17.9,16.1-27.9,23.3
						l-1.9,1.3L53.6,144.3z"/>
					<path class="st9" d="M75.8,159.1c-6.2-5-12.3-10-18.5-15c8.5-8.2,17.7-15.9,27.5-23c6.2,5,12.4,10.1,18.6,15.1
						C94.8,144.3,85.6,152,75.8,159.1z"/>
				</g>
			</g>
		</g>
		<path class="st15" d="M81.6,158.3c-1,0-2-0.4-2.7-1l-18-16.6c-0.7-0.7-1.1-1.6-1.1-2.6s0.4-1.9,1.2-2.5c4.7-4.3,9.9-8.6,15.3-12.7
			c0.7-0.6,1.6-0.8,2.5-0.8c1,0,2,0.4,2.7,1l18.1,16.6c0.7,0.7,1.1,1.6,1.1,2.6s-0.4,1.9-1.2,2.5c-4.7,4.2-9.9,8.5-15.3,12.7
			C83.3,158.1,82.5,158.3,81.6,158.3z"/>
		<path class="st33" d="M96.7,142.3l-18.1-16.6c-5.2,4-10.2,8.2-15,12.5l18,16.6C86.8,150.7,91.8,146.6,96.7,142.3z"/>
		<ellipse class="st15" cx="79.2" cy="138.8" rx="7.6" ry="7"/>
		<ellipse class="st9" cx="79.2" cy="138.8" rx="3.4" ry="3.1"/>
	</g>
	<g>
		<g>
			<g>
				<g>
					<path class="st15" d="M170.6,138.2c-0.9,0-1.7-0.2-2.5-0.5c-3.5-1.3-7.2-2.8-11.2-4.3c-0.7-0.3-1.3-0.6-1.9-1.1s-1-1-1.4-1.6
						c-2-3.3-3.8-6.3-5.4-9.2c-0.7-1.1-0.8-2.3-0.6-3.5c0.2-1,0.5-1.9,0.7-2.8c0.5-1.8,1.9-3.2,3.8-3.8c0.7-0.2,1.4-0.3,2.1-0.3
						c1.7,0,3.4,0.6,4.6,1.6c0.6,0.5,1.2,1.1,1.5,1.8c0.5,1,1.1,2.1,1.7,3.2c0.9-0.1,1.8-0.3,2.6-0.4c0.4-0.1,0.7-0.1,1-0.1
						c1.6,0,3.2,0.5,4.4,1.5c1.6,1.3,2.4,3.2,2,5.1c-0.1,0.6-0.2,1.1-0.3,1.7c1.3,0.4,2.5,0.9,3.8,1.3c0.8,0.3,1.5,0.7,2.1,1.2
						c2,1.6,2.7,4.1,1.7,6.2c-0.7,1.6-2.3,2.9-4.3,3.2c-1.1,0.2-2.3,0.4-3.4,0.6C171.4,138.2,171,138.2,170.6,138.2z"/>
					<path class="st35" d="M167,126.9c0.2-1.2,0.4-2.4,0.7-3.6c0.2-1-1.1-2.1-2.4-1.9c-1.4,0.2-2.9,0.4-4.4,0.6
						c-0.9,0.1-1.9-0.4-2.3-1.2c-0.8-1.5-1.6-3-2.3-4.5c-0.7-1.3-3.1-1.6-3.5-0.4c-0.2,0.9-0.5,1.8-0.7,2.7c-0.1,0.3,0,0.6,0.2,0.9
						c1.7,3,3.5,6,5.4,9.1c0.3,0.4,0.7,0.8,1.2,1c3.8,1.5,7.5,2.9,11.1,4.3c0.4,0.1,0.7,0.2,1.1,0.1c1.1-0.2,2.2-0.4,3.3-0.6
						c1.5-0.3,1.1-2.3-0.5-2.8c-1.8-0.6-3.6-1.2-5.4-1.9C167.6,128.5,166.9,127.6,167,126.9z"/>
					<path class="st15" d="M136.7,170.1c-1.7,0-3.4-0.6-4.6-1.6c-0.6-0.5-1.2-1.1-1.5-1.8c-0.5-1-1.1-2.1-1.7-3.2
						c-0.9,0.1-1.8,0.2-2.6,0.4c-0.3,0.1-0.7,0.1-1,0.1c-1.6,0-3.2-0.5-4.4-1.5c-1.6-1.3-2.4-3.2-2-5.1c0.1-0.6,0.2-1.1,0.3-1.7
						c-1.3-0.4-2.5-0.9-3.8-1.3c-0.8-0.3-1.5-0.7-2.1-1.2c-2-1.6-2.7-4.1-1.7-6.2c0.7-1.6,2.3-2.9,4.3-3.2c1.1-0.2,2.3-0.4,3.4-0.6
						c0.4-0.1,0.8-0.1,1.2-0.1c0.9,0,1.7,0.2,2.5,0.5c3.5,1.3,7.1,2.7,11.2,4.3c0.7,0.3,1.3,0.6,1.9,1.1s1.1,1,1.4,1.6
						c2,3.3,3.7,6.3,5.4,9.2c0.6,1.1,0.8,2.3,0.6,3.5c-0.2,1-0.5,2-0.7,2.8c-0.5,1.8-1.9,3.2-3.8,3.8
						C138.2,169.9,137.4,170.1,136.7,170.1z"/>
					<path class="st35" d="M124,154.2c-0.2,1.2-0.4,2.4-0.7,3.6c-0.2,1,1.1,2.1,2.4,1.9c1.4-0.2,2.9-0.4,4.4-0.6
						c0.9-0.1,1.9,0.4,2.3,1.2c0.8,1.5,1.6,3,2.3,4.5c0.7,1.3,3.1,1.6,3.5,0.4c0.2-0.9,0.5-1.8,0.7-2.7c0.1-0.3,0-0.6-0.2-0.9
						c-1.7-3-3.5-6-5.4-9.1c-0.3-0.4-0.7-0.8-1.2-1c-3.8-1.5-7.5-2.9-11.1-4.3c-0.4-0.1-0.7-0.2-1.1-0.1c-1.1,0.2-2.2,0.4-3.3,0.6
						c-1.5,0.3-1.1,2.3,0.5,2.8c1.8,0.6,3.6,1.2,5.4,1.9C123.5,152.7,124.2,153.5,124,154.2z"/>
					<path class="st15" d="M140.9,163.9c-0.5,0-0.9-0.2-1.3-0.4l-21.9-17.8c-0.4-0.3-0.6-0.8-0.7-1.3c0-0.5,0.2-1,0.5-1.3l1.8-1.7
						c8.6-8.3,18-16.2,28-23.5l1.9-1.3c0.4-0.3,0.8-0.4,1.2-0.4c0.5,0,0.9,0.1,1.3,0.4l22,17.9c0.4,0.3,0.6,0.8,0.7,1.3
						c0,0.5-0.2,1-0.5,1.3l-1.8,1.7c-8.6,8.3-18.1,16.2-28.1,23.4l-1.9,1.3C141.8,163.8,141.3,163.9,140.9,163.9z"/>
					<path class="st15" d="M119,144.3l1.8-1.7c8.5-8.3,17.9-16.1,27.8-23.3l1.9-1.3l22,17.9l-1.8,1.7c-8.6,8.3-17.9,16.1-27.9,23.3
						l-1.9,1.3L119,144.3z"/>
					<path class="st9" d="M141.2,159.1c-6.2-5-12.3-10-18.5-15c8.5-8.2,17.7-15.9,27.5-23c6.2,5,12.4,10.1,18.6,15.1
						C160.2,144.3,151,152,141.2,159.1z"/>
				</g>
			</g>
		</g>
		<path class="st15" d="M147,158.3c-1,0-2-0.4-2.7-1l-18-16.6c-0.7-0.7-1.1-1.6-1.1-2.6s0.4-1.9,1.2-2.5c4.7-4.3,9.9-8.6,15.3-12.7
			c0.7-0.6,1.6-0.8,2.5-0.8c1,0,2,0.4,2.7,1l18.1,16.6c0.7,0.7,1.1,1.6,1.1,2.6s-0.4,1.9-1.2,2.5c-4.7,4.2-9.9,8.5-15.3,12.7
			C148.7,158.1,147.9,158.3,147,158.3z"/>
		<path class="st35" d="M162.1,142.3L144,125.7c-5.2,4-10.2,8.2-15,12.5l18,16.6C152.2,150.7,157.3,146.6,162.1,142.3z"/>
		<ellipse class="st15" cx="144.6" cy="138.8" rx="7.6" ry="7"/>
		<ellipse class="st9" cx="144.6" cy="138.8" rx="3.4" ry="3.1"/>
	</g>
	<g>
		<g>
			<g>
				<g>
					<path class="st15" d="M233.5,138.2c-0.9,0-1.7-0.2-2.5-0.5c-3.5-1.3-7.2-2.8-11.2-4.3c-0.7-0.3-1.3-0.6-1.9-1.1
						c-0.6-0.5-1-1-1.4-1.6c-2-3.3-3.8-6.3-5.4-9.2c-0.7-1.1-0.8-2.3-0.6-3.5c0.2-1,0.5-1.9,0.7-2.8c0.5-1.8,1.9-3.2,3.8-3.8
						c0.7-0.2,1.4-0.3,2.1-0.3c1.7,0,3.4,0.6,4.6,1.6c0.6,0.5,1.2,1.1,1.5,1.8c0.5,1,1.1,2.1,1.7,3.2c0.9-0.1,1.8-0.3,2.6-0.4
						c0.3-0.1,0.7-0.1,1-0.1c1.6,0,3.2,0.5,4.4,1.5c1.6,1.3,2.4,3.2,2,5.1c-0.1,0.6-0.2,1.1-0.3,1.7c1.3,0.4,2.5,0.9,3.8,1.3
						c0.8,0.3,1.5,0.7,2.1,1.2c2,1.6,2.7,4.1,1.7,6.2c-0.7,1.6-2.3,2.9-4.3,3.2c-1.1,0.2-2.3,0.4-3.4,0.6
						C234.2,138.2,233.9,138.2,233.5,138.2z"/>
					<path class="st30" d="M229.9,126.9c0.2-1.2,0.4-2.4,0.7-3.6c0.2-1-1.1-2.1-2.4-1.9c-1.4,0.2-2.9,0.4-4.4,0.6
						c-0.9,0.1-1.9-0.4-2.3-1.2c-0.8-1.5-1.6-3-2.3-4.5c-0.7-1.3-3.1-1.6-3.5-0.4c-0.2,0.9-0.5,1.8-0.7,2.7c-0.1,0.3,0,0.6,0.2,0.9
						c1.7,3,3.5,6,5.4,9.1c0.3,0.4,0.7,0.8,1.2,1c3.8,1.5,7.5,2.9,11.1,4.3c0.4,0.1,0.7,0.2,1.1,0.1c1.1-0.2,2.2-0.4,3.3-0.6
						c1.5-0.3,1.1-2.3-0.5-2.8c-1.8-0.6-3.6-1.2-5.4-1.9C230.4,128.5,229.8,127.6,229.9,126.9z"/>
					<path class="st15" d="M199.6,170.1c-1.7,0-3.4-0.6-4.6-1.6c-0.6-0.5-1.2-1.1-1.5-1.8c-0.5-1-1.1-2.1-1.7-3.2
						c-0.9,0.1-1.8,0.2-2.6,0.4c-0.3,0.1-0.7,0.1-1,0.1c-1.6,0-3.2-0.5-4.4-1.5c-1.6-1.3-2.4-3.2-2-5.1c0.1-0.6,0.2-1.1,0.3-1.7
						c-1.3-0.4-2.5-0.9-3.8-1.3c-0.8-0.3-1.5-0.7-2.1-1.2c-2-1.6-2.7-4.1-1.7-6.2c0.7-1.6,2.3-2.9,4.3-3.2c1.1-0.2,2.3-0.4,3.4-0.6
						c0.4-0.1,0.8-0.1,1.2-0.1c0.9,0,1.7,0.2,2.5,0.5c3.5,1.3,7.1,2.7,11.2,4.3c0.7,0.3,1.3,0.6,1.9,1.1s1.1,1,1.4,1.6
						c2,3.3,3.7,6.3,5.4,9.2c0.6,1.1,0.8,2.3,0.6,3.5c-0.2,1-0.5,2-0.7,2.8c-0.5,1.8-1.9,3.2-3.8,3.8
						C201,169.9,200.3,170.1,199.6,170.1z"/>
					<path class="st30" d="M186.9,154.2c-0.2,1.2-0.4,2.4-0.7,3.6c-0.2,1,1.1,2.1,2.4,1.9c1.4-0.2,2.9-0.4,4.4-0.6
						c0.9-0.1,1.9,0.4,2.3,1.2c0.8,1.5,1.6,3,2.3,4.5c0.7,1.3,3.1,1.6,3.5,0.4c0.2-0.9,0.5-1.8,0.7-2.7c0.1-0.3,0-0.6-0.2-0.9
						c-1.7-3-3.5-6-5.4-9.1c-0.3-0.4-0.7-0.8-1.2-1c-3.8-1.5-7.5-2.9-11.1-4.3c-0.4-0.1-0.7-0.2-1.1-0.1c-1.1,0.2-2.2,0.4-3.3,0.6
						c-1.5,0.3-1.1,2.3,0.5,2.8c1.8,0.6,3.6,1.2,5.4,1.9C186.4,152.7,187,153.5,186.9,154.2z"/>
					<path class="st15" d="M203.8,163.9c-0.5,0-0.9-0.2-1.3-0.4l-21.9-17.8c-0.4-0.3-0.6-0.8-0.7-1.3c0-0.5,0.2-1,0.5-1.3l1.8-1.7
						c8.6-8.3,18-16.2,28-23.5l1.9-1.3c0.4-0.3,0.8-0.4,1.2-0.4c0.5,0,0.9,0.1,1.3,0.4l22,17.9c0.4,0.3,0.6,0.8,0.7,1.3
						c0,0.5-0.2,1-0.5,1.3l-1.8,1.7c-8.6,8.3-18.1,16.2-28.1,23.4l-1.9,1.3C204.6,163.8,204.2,163.9,203.8,163.9z"/>
					<path class="st15" d="M181.9,144.3l1.8-1.7c8.5-8.3,17.9-16.1,27.8-23.3l1.9-1.3l22,17.9l-1.8,1.7
						c-8.6,8.3-17.9,16.1-27.9,23.3l-1.9,1.3L181.9,144.3z"/>
					<path class="st9" d="M204,159.1c-6.2-5-12.3-10-18.5-15c8.5-8.2,17.7-15.9,27.5-23c6.2,5,12.4,10.1,18.6,15.1
						C223.1,144.3,213.9,152,204,159.1z"/>
				</g>
			</g>
		</g>
		<path class="st15" d="M209.9,158.3c-1,0-2-0.4-2.7-1l-18-16.6c-0.7-0.7-1.1-1.6-1.1-2.6s0.4-1.9,1.2-2.5
			c4.7-4.3,9.9-8.6,15.3-12.7c0.7-0.6,1.6-0.8,2.5-0.8c1,0,2,0.4,2.7,1l18.1,16.6c0.7,0.7,1.1,1.6,1.1,2.6s-0.4,1.9-1.2,2.5
			c-4.7,4.2-9.9,8.5-15.3,12.7C211.6,158.1,210.7,158.3,209.9,158.3z"/>
		<path class="st30" d="M224.9,142.3l-18-16.7c-5.2,4-10.2,8.2-15,12.5l18,16.6C215.1,150.7,220.1,146.6,224.9,142.3z"/>
		<ellipse class="st15" cx="207.5" cy="138.8" rx="7.6" ry="7"/>
		<ellipse class="st9" cx="207.5" cy="138.8" rx="3.4" ry="3.1"/>
	</g>
	<polygon class="st42" points="223.6,120.3 212.3,130.7 148,71.4 159.2,61 	"/>
	<path class="st42" d="M233.3,96.4l-48.1-44.3c-0.2-0.2-0.6-0.3-0.9-0.3s-0.7,0.1-0.9,0.3l-8.4,7.8c-0.2,0.2-0.4,0.5-0.4,0.8
		s0.1,0.6,0.4,0.8l48.1,44.3c0.3,0.2,0.6,0.3,0.9,0.3c0.3,0,0.7-0.1,0.9-0.3l8.4-7.8c0.2-0.2,0.4-0.5,0.4-0.8
		C233.6,96.9,233.5,96.6,233.3,96.4z"/>
	<path class="st42" d="M239.5,73.2l-29.2-26.9c-0.6-0.6-1.5-0.9-2.4-0.9s-1.8,0.3-2.4,0.9l-5.1,4.7c-0.6,0.6-1,1.4-1,2.2
		s0.4,1.6,1,2.2l29.2,26.9c0.6,0.6,1.5,0.9,2.4,0.9s1.8-0.3,2.4-0.9l5.1-4.7c0.6-0.6,1-1.4,1-2.2C240.5,74.6,240.2,73.8,239.5,73.2z
		"/>
	<path class="st43" d="M337.8,397.8h-59.8c-3.1,0-5.5-2.5-5.5-5.5v-30.8c0-3.1,2.5-5.5,5.5-5.5h59.8c3.1,0,5.5,2.5,5.5,5.5v30.8
		C343.3,395.4,340.8,397.8,337.8,397.8z"/>
	<polygon class="st44" points="279.4,390.8 289.4,372.8 326.3,372.8 336.3,390.8 	"/>
	<path class="st40" d="M253.6,384.9v-17.8c0-2.3-1.9-4.2-4.2-4.2h-208c-2.3,0-4.2,1.9-4.2,4.2V386c0,2.3,1.9,4.2,4.2,4.2h208.1
		C249.5,390.2,253.6,390,253.6,384.9z"/>
	<path class="st30" d="M249.5,383.2H41.5c-2.3,0-4.2-1.9-4.2-4.2v7c0,2.3,1.9,4.2,4.2,4.2h208.1c0,0,4.1-0.2,4.1-5.3v-7
		C253.6,383,249.5,383.2,249.5,383.2z"/>
	<path class="st15" d="M332.1,64.3h-58.8c-3.6,0-6.4-2.9-6.4-6.4V32.9c0-3.6,2.9-6.4,6.4-6.4h58.8c3.6,0,6.4,2.9,6.4,6.4v24.9
		C338.6,61.4,335.7,64.3,332.1,64.3z"/>
	<path class="st35" d="M273.3,59.3c-0.8,0-1.4-0.6-1.4-1.4V32.9c0-0.8,0.6-1.4,1.4-1.4h58.8c0.8,0,1.4,0.6,1.4,1.4v24.9
		c0,0.8-0.6,1.4-1.4,1.4H273.3z"/>
	<path class="st42" d="M332.1,31.5h-58.8c-0.8,0-1.4,0.6-1.4,1.4v2.5c0-0.8,0.6-1.4,1.4-1.4h58.8c0.8,0,1.4,0.6,1.4,1.4v-2.5
		C333.6,32.1,332.9,31.5,332.1,31.5z"/>
	<rect x="266.9" y="176.8" class="st15" width="74.5" height="37.5"/>
	<polygon class="st41" points="332.6,194.5 273.4,194.5 277.4,185.6 328.6,185.6 	"/>
	<rect x="274" y="200.5" class="st41" width="58.6" height="3.5"/>
	<g>
		
			<rect x="317.3" y="37.5" transform="matrix(0.7071 -0.7071 0.7071 0.7071 62.4426 237.8853)" class="st42" width="2.2" height="12.1"/>
		
			<rect x="314.6" y="38.4" transform="matrix(0.7071 -0.7071 0.7071 0.7071 59.7025 236.7503)" class="st42" width="2.2" height="15.8"/>
		
			<rect x="319.9" y="37.5" transform="matrix(0.7071 -0.7071 0.7071 0.7071 65.0942 238.9836)" class="st42" width="2.2" height="6.8"/>
	</g>
	<rect x="45.7" y="59.3" class="st42" width="11.2" height="250.7"/>
	<g>
		<path class="st15" d="M308.9,338.6c-10.2,0-20.6-0.6-30.8-1.6c-3.1-0.3-5.6-3-5.6-5.8v-45.7c0-2.9,2.5-5.4,5.6-5.8
			c10.2-1.1,20.5-1.6,30.8-1.6c10.2,0,20.6,0.6,30.8,1.6c3.1,0.3,5.6,3,5.6,5.8v45.7c0,2.9-2.5,5.4-5.6,5.8
			C329.5,338.1,319.2,338.6,308.9,338.6z"/>
		<path class="st15" d="M274.3,331.2c0-15.2,0-30.5,0-45.7c0-2,1.8-3.9,4-4.1c20.3-2.1,40.9-2.1,61.2,0c2.2,0.2,4,2.1,4,4.1
			c0,15.2,0,30.5,0,45.7c0,2-1.8,3.9-4,4.1c-20.3,2.1-40.9,2.1-61.2,0C276.1,335.1,274.4,333.3,274.3,331.2z"/>
		<path class="st28" d="M334.6,303.4c-17.1-0.3-34.2-0.3-51.3,0c-2.7,0-4.8-1.9-4.8-4.4c0-3.1,0-6.1,0-9.2c0-2.5,2.1-4.7,4.8-4.9
			c17.1-1.2,34.2-1.2,51.3,0c2.7,0.2,4.8,2.4,4.8,4.9c0,3.1,0,6.1,0,9.2C339.3,301.5,337.2,303.4,334.6,303.4z"/>
		<path class="st15" d="M298.8,314.1c-6.8,0-13.6-0.1-20.2-0.3c0-2.7,0-5.3,0-7.9c6.8-0.1,13.5-0.1,20.2-0.1
			C298.8,308.4,298.8,311.2,298.8,314.1z"/>
		<path class="st28" d="M281.1,309.8L281.1,309.8c0-0.9,0.8-1.5,1.6-1.5c3.9,0,7.8,0,11.7,0c0.9,0,1.6,0.8,1.6,1.6l0,0
			c0,0.9-0.8,1.6-1.6,1.6c-3.9,0-7.8-0.1-11.7-0.1C281.9,311.4,281.1,310.6,281.1,309.8z"/>
		<path class="st45" d="M301.4,309.9L301.4,309.9c0-0.9,0.8-1.6,1.6-1.6c3.9,0,7.8,0,11.7,0c0.9,0,1.6,0.8,1.6,1.6l0,0
			c0,0.9-0.8,1.6-1.6,1.6c-3.9,0-7.8,0-11.7,0C302.1,311.5,301.4,310.7,301.4,309.9z"/>
		<path class="st45" d="M321.7,309.9L321.7,309.9c0-0.9,0.8-1.6,1.6-1.6c3.9,0,7.8,0,11.7,0c0.9,0,1.6,0.7,1.6,1.5l0,0
			c0,0.9-0.8,1.5-1.6,1.5c-3.9,0-7.8,0.1-11.7,0.1C322.4,311.5,321.7,310.7,321.7,309.9z"/>
		<g>
			<g>
				<path class="st45" d="M309.5,331.1c0,0.9-0.7,1.4-1.5,1.4c-0.9,0-1.5-0.7-1.5-1.4c0-0.9,0.7-1.4,1.5-1.4
					S309.5,330.3,309.5,331.1z"/>
			</g>
			<path class="st45" d="M315.1,322.8c-1-1-2.1-1.8-3.4-2.3c-0.9-0.3-1.8-0.5-2.8-0.7c-0.2,0-0.5,0-0.7,0s-0.5,0-0.7,0
				c-1,0.2-2,0.3-2.8,0.7c-1.3,0.5-2.5,1.2-3.4,2.3c-0.3,0.3-0.3,0.8-0.2,1.1c0.2,0.3,0.7,0.5,1,0.4c0.2-0.2,0.2-0.2,0.3-0.3
				c0.7-0.7,1.3-1.1,2-1.4c1.2-0.6,2.5-1,3.8-1c1.3,0,2.6,0.3,3.8,1c0.7,0.3,1.3,0.8,2,1.4c0.2,0.2,0.2,0.2,0.3,0.3
				c0.3,0.2,0.9,0,1-0.4C315.5,323.5,315.5,323.1,315.1,322.8z"/>
			<path class="st45" d="M312.8,325.1c-0.7-0.7-1.5-1.2-2.3-1.5c-0.6-0.2-1.2-0.3-1.9-0.5c-0.2,0-0.3,0-0.5,0c-0.2,0-0.3,0-0.5,0
				c-0.7,0.1-1.3,0.2-1.8,0.4c-0.9,0.3-1.6,0.8-2.3,1.5c-0.3,0.3-0.3,0.8-0.2,1.1c0.1,0.2,0.4,0.4,0.7,0.4c0.1,0,0.2,0,0.3-0.1l0,0
				c0.1-0.1,0.2-0.2,0.3-0.2c0.4-0.4,0.8-0.7,1.2-0.9c0.8-0.4,1.5-0.6,2.3-0.6h0.1c0.8,0,1.5,0.2,2.3,0.6c0.4,0.2,0.8,0.5,1.2,0.9
				c0.1,0.1,0.2,0.2,0.3,0.2l0,0c0.1,0,0.2,0.1,0.3,0.1c0.3,0,0.6-0.2,0.7-0.4C313.1,325.8,313.1,325.4,312.8,325.1z"/>
			<path class="st45" d="M311.1,327.5c-0.5-0.5-1-0.8-1.4-1c-0.4-0.1-0.8-0.2-1.1-0.3c-0.1,0-0.2,0-0.3,0s-0.2,0-0.3,0
				c-0.4,0.1-0.8,0.1-1.1,0.3c-0.5,0.2-1.1,0.5-1.4,1c-0.3,0.3-0.3,0.7-0.1,1c0.1,0.2,0.4,0.4,0.7,0.4c0.1,0,0.2,0,0.3-0.1l0,0
				c0.1-0.1,0.1-0.1,0.2-0.2c0.2-0.2,0.4-0.4,0.7-0.5c0.4-0.2,0.9-0.3,1.2-0.3c0.4,0,0.8,0.1,1.2,0.3c0.2,0.1,0.4,0.3,0.7,0.5
				l0.1,0.1c0,0,0,0,0.1,0l0,0c0.1,0,0.2,0.1,0.3,0.1c0.3,0,0.6-0.2,0.7-0.4C311.4,328.1,311.4,327.6,311.1,327.5z"/>
		</g>
	</g>
	<path class="st37" d="M76.3,264.9c0-0.8,2.1-1.5,4.8-1.6c-0.4,0-0.7,0-1.1,0c-3.3,0-5.9,0.7-5.9,1.6c0,0.9,2.7,1.6,5.9,1.6
		c0.4,0,0.7,0,1.1,0C78.4,266.3,76.3,265.7,76.3,264.9z"/>
	<path class="st37" d="M83.5,264.9c0-0.6-1.6-1.1-3.7-1.2c0.3,0,0.6,0,0.8,0c2.5,0,4.6,0.6,4.6,1.3c0,0.7-2,1.3-4.6,1.3
		c-0.3,0-0.6,0-0.8,0C81.9,266,83.5,265.5,83.5,264.9z"/>
	<path class="st37" d="M136.5,264.9c0-0.8,2.1-1.5,4.8-1.6c-0.4,0-0.7,0-1.1,0c-3.3,0-5.9,0.7-5.9,1.6c0,0.9,2.7,1.6,5.9,1.6
		c0.4,0,0.7,0,1.1,0C138.6,266.3,136.5,265.7,136.5,264.9z"/>
	<path class="st37" d="M143.8,264.9c0-0.6-1.6-1.1-3.7-1.2c0.3,0,0.6,0,0.8,0c2.5,0,4.6,0.6,4.6,1.3c0,0.7-2,1.3-4.6,1.3
		c-0.3,0-0.6,0-0.8,0C142.2,266,143.8,265.5,143.8,264.9z"/>
	<path class="st37" d="M196.8,264.9c0-0.8,2.1-1.5,4.8-1.6c-0.4,0-0.7,0-1.1,0c-3.3,0-5.9,0.7-5.9,1.6c0,0.9,2.7,1.6,5.9,1.6
		c0.4,0,0.7,0,1.1,0C198.9,266.3,196.8,265.7,196.8,264.9z"/>
	<path class="st37" d="M204,264.9c0-0.6-1.6-1.1-3.7-1.2c0.3,0,0.6,0,0.8,0c2.5,0,4.6,0.6,4.6,1.3c0,0.7-2,1.3-4.6,1.3
		c-0.3,0-0.6,0-0.8,0C202.4,266,204,265.5,204,264.9z"/>
</g>
</svg>
